%TF.GenerationSoftware,KiCad,Pcbnew,10.0.5*%
%TF.CreationDate,2026-08-18T16:33:31-04:00*%
%TF.ProjectId,bench_board,62656e63-685f-4626-9f61-72642e6b6963,rev?*%
%TF.SameCoordinates,Original*%
%TF.FileFunction,Drillmap*%
%TF.FilePolarity,Positive*%
%FSLAX45Y45*%
G04 Gerber Fmt 4.5, Leading zero omitted, Abs format (unit mm)*
G04 Created by KiCad (PCBNEW 10.0.5) date 2026-08-18 16:33:31*
%MOMM*%
%LPD*%
G01*
G04 APERTURE LIST*
%ADD10C,0.100000*%
%ADD11C,0.200000*%
G04 APERTURE END LIST*
D10*
X0Y-300000D02*
G75*
G02*
X300000Y0I300000J0D01*
G01*
X0Y-5700000D02*
X0Y-300000D01*
X300000Y0D02*
X7700000Y0D01*
X300000Y-6000000D02*
G75*
G02*
X0Y-5700000I0J300000D01*
G01*
X7700000Y0D02*
G75*
G02*
X8000000Y-300000I0J-300000D01*
G01*
X7700000Y-6000000D02*
X300000Y-6000000D01*
X8000000Y-300000D02*
X8000000Y-5700000D01*
X8000000Y-5700000D02*
G75*
G02*
X7700000Y-6000000I-300000J0D01*
G01*
D11*
D10*
X2782500Y-2630000D02*
X2797500Y-2645000D01*
X2797500Y-2630000D02*
X2782500Y-2645000D01*
X2895000Y-3167500D02*
X2910000Y-3182500D01*
X2910000Y-3167500D02*
X2895000Y-3182500D01*
X2895000Y-3217500D02*
X2910000Y-3232500D01*
X2910000Y-3217500D02*
X2895000Y-3232500D01*
X3167500Y-2395000D02*
X3182500Y-2410000D01*
X3182500Y-2395000D02*
X3167500Y-2410000D01*
X3167500Y-3575000D02*
X3182500Y-3590000D01*
X3182500Y-3575000D02*
X3167500Y-3590000D01*
X3217500Y-3590000D02*
X3232500Y-3605000D01*
X3232500Y-3590000D02*
X3217500Y-3605000D01*
X4867500Y-2437500D02*
X4882500Y-2452500D01*
X4882500Y-2437500D02*
X4867500Y-2452500D01*
X5075000Y-2287500D02*
X5090000Y-2302500D01*
X5090000Y-2287500D02*
X5075000Y-2302500D01*
X676710Y-970460D02*
G75*
G02*
X646710Y-970460I-15000J0D01*
G01*
X646710Y-970460D02*
G75*
G02*
X676710Y-970460I15000J0D01*
G01*
X1043250Y-5020750D02*
G75*
G02*
X1013250Y-5020750I-15000J0D01*
G01*
X1013250Y-5020750D02*
G75*
G02*
X1043250Y-5020750I15000J0D01*
G01*
X1471760Y-4196420D02*
G75*
G02*
X1441760Y-4196420I-15000J0D01*
G01*
X1441760Y-4196420D02*
G75*
G02*
X1471760Y-4196420I15000J0D01*
G01*
X1559610Y-5157390D02*
G75*
G02*
X1529610Y-5157390I-15000J0D01*
G01*
X1529610Y-5157390D02*
G75*
G02*
X1559610Y-5157390I15000J0D01*
G01*
X1796210Y-4496580D02*
G75*
G02*
X1766210Y-4496580I-15000J0D01*
G01*
X1766210Y-4496580D02*
G75*
G02*
X1796210Y-4496580I15000J0D01*
G01*
X1830000Y-4415000D02*
G75*
G02*
X1800000Y-4415000I-15000J0D01*
G01*
X1800000Y-4415000D02*
G75*
G02*
X1830000Y-4415000I15000J0D01*
G01*
X1865000Y-3373430D02*
G75*
G02*
X1835000Y-3373430I-15000J0D01*
G01*
X1835000Y-3373430D02*
G75*
G02*
X1865000Y-3373430I15000J0D01*
G01*
X1926020Y-1328520D02*
G75*
G02*
X1896020Y-1328520I-15000J0D01*
G01*
X1896020Y-1328520D02*
G75*
G02*
X1926020Y-1328520I15000J0D01*
G01*
X1935760Y-4754200D02*
G75*
G02*
X1905760Y-4754200I-15000J0D01*
G01*
X1905760Y-4754200D02*
G75*
G02*
X1935760Y-4754200I15000J0D01*
G01*
X1947500Y-2928210D02*
G75*
G02*
X1917500Y-2928210I-15000J0D01*
G01*
X1917500Y-2928210D02*
G75*
G02*
X1947500Y-2928210I15000J0D01*
G01*
X2191000Y-4210000D02*
G75*
G02*
X2161000Y-4210000I-15000J0D01*
G01*
X2161000Y-4210000D02*
G75*
G02*
X2191000Y-4210000I15000J0D01*
G01*
X2326530Y-3533510D02*
G75*
G02*
X2296530Y-3533510I-15000J0D01*
G01*
X2296530Y-3533510D02*
G75*
G02*
X2326530Y-3533510I15000J0D01*
G01*
X2562180Y-2650600D02*
G75*
G02*
X2532180Y-2650600I-15000J0D01*
G01*
X2532180Y-2650600D02*
G75*
G02*
X2562180Y-2650600I15000J0D01*
G01*
X2595000Y-2428000D02*
G75*
G02*
X2565000Y-2428000I-15000J0D01*
G01*
X2565000Y-2428000D02*
G75*
G02*
X2595000Y-2428000I15000J0D01*
G01*
X2604920Y-3940920D02*
G75*
G02*
X2574920Y-3940920I-15000J0D01*
G01*
X2574920Y-3940920D02*
G75*
G02*
X2604920Y-3940920I15000J0D01*
G01*
X2679200Y-2657170D02*
G75*
G02*
X2649200Y-2657170I-15000J0D01*
G01*
X2649200Y-2657170D02*
G75*
G02*
X2679200Y-2657170I15000J0D01*
G01*
X2690830Y-2938340D02*
G75*
G02*
X2660830Y-2938340I-15000J0D01*
G01*
X2660830Y-2938340D02*
G75*
G02*
X2690830Y-2938340I15000J0D01*
G01*
X2704850Y-3139660D02*
G75*
G02*
X2674850Y-3139660I-15000J0D01*
G01*
X2674850Y-3139660D02*
G75*
G02*
X2704850Y-3139660I15000J0D01*
G01*
X2758000Y-3335000D02*
G75*
G02*
X2728000Y-3335000I-15000J0D01*
G01*
X2728000Y-3335000D02*
G75*
G02*
X2758000Y-3335000I15000J0D01*
G01*
X2818250Y-3206410D02*
G75*
G02*
X2788250Y-3206410I-15000J0D01*
G01*
X2788250Y-3206410D02*
G75*
G02*
X2818250Y-3206410I15000J0D01*
G01*
X2826880Y-3406600D02*
G75*
G02*
X2796880Y-3406600I-15000J0D01*
G01*
X2796880Y-3406600D02*
G75*
G02*
X2826880Y-3406600I15000J0D01*
G01*
X2968040Y-3437330D02*
G75*
G02*
X2938040Y-3437330I-15000J0D01*
G01*
X2938040Y-3437330D02*
G75*
G02*
X2968040Y-3437330I15000J0D01*
G01*
X3060000Y-2273000D02*
G75*
G02*
X3030000Y-2273000I-15000J0D01*
G01*
X3030000Y-2273000D02*
G75*
G02*
X3060000Y-2273000I15000J0D01*
G01*
X3068000Y-3225000D02*
G75*
G02*
X3038000Y-3225000I-15000J0D01*
G01*
X3038000Y-3225000D02*
G75*
G02*
X3068000Y-3225000I15000J0D01*
G01*
X3072100Y-3067100D02*
G75*
G02*
X3042100Y-3067100I-15000J0D01*
G01*
X3042100Y-3067100D02*
G75*
G02*
X3072100Y-3067100I15000J0D01*
G01*
X3120330Y-3882070D02*
G75*
G02*
X3090330Y-3882070I-15000J0D01*
G01*
X3090330Y-3882070D02*
G75*
G02*
X3120330Y-3882070I15000J0D01*
G01*
X3190000Y-3358000D02*
G75*
G02*
X3160000Y-3358000I-15000J0D01*
G01*
X3160000Y-3358000D02*
G75*
G02*
X3190000Y-3358000I15000J0D01*
G01*
X3190790Y-3016330D02*
G75*
G02*
X3160790Y-3016330I-15000J0D01*
G01*
X3160790Y-3016330D02*
G75*
G02*
X3190790Y-3016330I15000J0D01*
G01*
X3290000Y-3442840D02*
G75*
G02*
X3260000Y-3442840I-15000J0D01*
G01*
X3260000Y-3442840D02*
G75*
G02*
X3290000Y-3442840I15000J0D01*
G01*
X3290110Y-2309700D02*
G75*
G02*
X3260110Y-2309700I-15000J0D01*
G01*
X3260110Y-2309700D02*
G75*
G02*
X3290110Y-2309700I15000J0D01*
G01*
X3308820Y-2600230D02*
G75*
G02*
X3278820Y-2600230I-15000J0D01*
G01*
X3278820Y-2600230D02*
G75*
G02*
X3308820Y-2600230I15000J0D01*
G01*
X3340000Y-3691930D02*
G75*
G02*
X3310000Y-3691930I-15000J0D01*
G01*
X3310000Y-3691930D02*
G75*
G02*
X3340000Y-3691930I15000J0D01*
G01*
X3385860Y-2586250D02*
G75*
G02*
X3355860Y-2586250I-15000J0D01*
G01*
X3355860Y-2586250D02*
G75*
G02*
X3385860Y-2586250I15000J0D01*
G01*
X3390000Y-3444160D02*
G75*
G02*
X3360000Y-3444160I-15000J0D01*
G01*
X3360000Y-3444160D02*
G75*
G02*
X3390000Y-3444160I15000J0D01*
G01*
X3440000Y-3691030D02*
G75*
G02*
X3410000Y-3691030I-15000J0D01*
G01*
X3410000Y-3691030D02*
G75*
G02*
X3440000Y-3691030I15000J0D01*
G01*
X3440110Y-2308610D02*
G75*
G02*
X3410110Y-2308610I-15000J0D01*
G01*
X3410110Y-2308610D02*
G75*
G02*
X3440110Y-2308610I15000J0D01*
G01*
X3456780Y-3098100D02*
G75*
G02*
X3426780Y-3098100I-15000J0D01*
G01*
X3426780Y-3098100D02*
G75*
G02*
X3456780Y-3098100I15000J0D01*
G01*
X3489840Y-3444360D02*
G75*
G02*
X3459840Y-3444360I-15000J0D01*
G01*
X3459840Y-3444360D02*
G75*
G02*
X3489840Y-3444360I15000J0D01*
G01*
X3608420Y-2606310D02*
G75*
G02*
X3578420Y-2606310I-15000J0D01*
G01*
X3578420Y-2606310D02*
G75*
G02*
X3608420Y-2606310I15000J0D01*
G01*
X3717320Y-2685630D02*
G75*
G02*
X3687320Y-2685630I-15000J0D01*
G01*
X3687320Y-2685630D02*
G75*
G02*
X3717320Y-2685630I15000J0D01*
G01*
X3734950Y-2967310D02*
G75*
G02*
X3704950Y-2967310I-15000J0D01*
G01*
X3704950Y-2967310D02*
G75*
G02*
X3734950Y-2967310I15000J0D01*
G01*
X3739030Y-2892130D02*
G75*
G02*
X3709030Y-2892130I-15000J0D01*
G01*
X3709030Y-2892130D02*
G75*
G02*
X3739030Y-2892130I15000J0D01*
G01*
X3740000Y-2306940D02*
G75*
G02*
X3710000Y-2306940I-15000J0D01*
G01*
X3710000Y-2306940D02*
G75*
G02*
X3740000Y-2306940I15000J0D01*
G01*
X3740000Y-3443700D02*
G75*
G02*
X3710000Y-3443700I-15000J0D01*
G01*
X3710000Y-3443700D02*
G75*
G02*
X3740000Y-3443700I15000J0D01*
G01*
X3769540Y-2631540D02*
G75*
G02*
X3739540Y-2631540I-15000J0D01*
G01*
X3739540Y-2631540D02*
G75*
G02*
X3769540Y-2631540I15000J0D01*
G01*
X3783180Y-3778460D02*
G75*
G02*
X3753180Y-3778460I-15000J0D01*
G01*
X3753180Y-3778460D02*
G75*
G02*
X3783180Y-3778460I15000J0D01*
G01*
X3832350Y-3444590D02*
G75*
G02*
X3802350Y-3444590I-15000J0D01*
G01*
X3802350Y-3444590D02*
G75*
G02*
X3832350Y-3444590I15000J0D01*
G01*
X3924400Y-3038350D02*
G75*
G02*
X3894400Y-3038350I-15000J0D01*
G01*
X3894400Y-3038350D02*
G75*
G02*
X3924400Y-3038350I15000J0D01*
G01*
X3952940Y-2438600D02*
G75*
G02*
X3922940Y-2438600I-15000J0D01*
G01*
X3922940Y-2438600D02*
G75*
G02*
X3952940Y-2438600I15000J0D01*
G01*
X4205260Y-2852110D02*
G75*
G02*
X4175260Y-2852110I-15000J0D01*
G01*
X4175260Y-2852110D02*
G75*
G02*
X4205260Y-2852110I15000J0D01*
G01*
X4205800Y-2775000D02*
G75*
G02*
X4175800Y-2775000I-15000J0D01*
G01*
X4175800Y-2775000D02*
G75*
G02*
X4205800Y-2775000I15000J0D01*
G01*
X4256030Y-2717470D02*
G75*
G02*
X4226030Y-2717470I-15000J0D01*
G01*
X4226030Y-2717470D02*
G75*
G02*
X4256030Y-2717470I15000J0D01*
G01*
X4296220Y-2501170D02*
G75*
G02*
X4266220Y-2501170I-15000J0D01*
G01*
X4266220Y-2501170D02*
G75*
G02*
X4296220Y-2501170I15000J0D01*
G01*
X4336030Y-3183330D02*
G75*
G02*
X4306030Y-3183330I-15000J0D01*
G01*
X4306030Y-3183330D02*
G75*
G02*
X4336030Y-3183330I15000J0D01*
G01*
X4350680Y-3315050D02*
G75*
G02*
X4320680Y-3315050I-15000J0D01*
G01*
X4320680Y-3315050D02*
G75*
G02*
X4350680Y-3315050I15000J0D01*
G01*
X4460350Y-3072020D02*
G75*
G02*
X4430350Y-3072020I-15000J0D01*
G01*
X4430350Y-3072020D02*
G75*
G02*
X4460350Y-3072020I15000J0D01*
G01*
X4498910Y-2440610D02*
G75*
G02*
X4468910Y-2440610I-15000J0D01*
G01*
X4468910Y-2440610D02*
G75*
G02*
X4498910Y-2440610I15000J0D01*
G01*
X4583180Y-3064020D02*
G75*
G02*
X4553180Y-3064020I-15000J0D01*
G01*
X4553180Y-3064020D02*
G75*
G02*
X4583180Y-3064020I15000J0D01*
G01*
X4630730Y-1945730D02*
G75*
G02*
X4600730Y-1945730I-15000J0D01*
G01*
X4600730Y-1945730D02*
G75*
G02*
X4630730Y-1945730I15000J0D01*
G01*
X4654910Y-3747480D02*
G75*
G02*
X4624910Y-3747480I-15000J0D01*
G01*
X4624910Y-3747480D02*
G75*
G02*
X4654910Y-3747480I15000J0D01*
G01*
X4691900Y-2484160D02*
G75*
G02*
X4661900Y-2484160I-15000J0D01*
G01*
X4661900Y-2484160D02*
G75*
G02*
X4691900Y-2484160I15000J0D01*
G01*
X4695310Y-2560540D02*
G75*
G02*
X4665310Y-2560540I-15000J0D01*
G01*
X4665310Y-2560540D02*
G75*
G02*
X4695310Y-2560540I15000J0D01*
G01*
X4739990Y-1916130D02*
G75*
G02*
X4709990Y-1916130I-15000J0D01*
G01*
X4709990Y-1916130D02*
G75*
G02*
X4739990Y-1916130I15000J0D01*
G01*
X4795000Y-5740000D02*
G75*
G02*
X4765000Y-5740000I-15000J0D01*
G01*
X4765000Y-5740000D02*
G75*
G02*
X4795000Y-5740000I15000J0D01*
G01*
X4890000Y-1916960D02*
G75*
G02*
X4860000Y-1916960I-15000J0D01*
G01*
X4860000Y-1916960D02*
G75*
G02*
X4890000Y-1916960I15000J0D01*
G01*
X4939990Y-2488340D02*
G75*
G02*
X4909990Y-2488340I-15000J0D01*
G01*
X4909990Y-2488340D02*
G75*
G02*
X4939990Y-2488340I15000J0D01*
G01*
X5021250Y-5360000D02*
G75*
G02*
X4991250Y-5360000I-15000J0D01*
G01*
X4991250Y-5360000D02*
G75*
G02*
X5021250Y-5360000I15000J0D01*
G01*
X5178000Y-2465000D02*
G75*
G02*
X5148000Y-2465000I-15000J0D01*
G01*
X5148000Y-2465000D02*
G75*
G02*
X5178000Y-2465000I15000J0D01*
G01*
X5241010Y-2717600D02*
G75*
G02*
X5211010Y-2717600I-15000J0D01*
G01*
X5211010Y-2717600D02*
G75*
G02*
X5241010Y-2717600I15000J0D01*
G01*
X5255660Y-3008340D02*
G75*
G02*
X5225660Y-3008340I-15000J0D01*
G01*
X5225660Y-3008340D02*
G75*
G02*
X5255660Y-3008340I15000J0D01*
G01*
X5474170Y-3008170D02*
G75*
G02*
X5444170Y-3008170I-15000J0D01*
G01*
X5444170Y-3008170D02*
G75*
G02*
X5474170Y-3008170I15000J0D01*
G01*
X5723480Y-3440520D02*
G75*
G02*
X5693480Y-3440520I-15000J0D01*
G01*
X5693480Y-3440520D02*
G75*
G02*
X5723480Y-3440520I15000J0D01*
G01*
X5744050Y-3199110D02*
G75*
G02*
X5714050Y-3199110I-15000J0D01*
G01*
X5714050Y-3199110D02*
G75*
G02*
X5744050Y-3199110I15000J0D01*
G01*
X6391360Y-2984950D02*
G75*
G02*
X6361360Y-2984950I-15000J0D01*
G01*
X6361360Y-2984950D02*
G75*
G02*
X6391360Y-2984950I15000J0D01*
G01*
X6706060Y-2572310D02*
G75*
G02*
X6676060Y-2572310I-15000J0D01*
G01*
X6676060Y-2572310D02*
G75*
G02*
X6706060Y-2572310I15000J0D01*
G01*
X6706120Y-2227630D02*
G75*
G02*
X6676120Y-2227630I-15000J0D01*
G01*
X6676120Y-2227630D02*
G75*
G02*
X6706120Y-2227630I15000J0D01*
G01*
X6831940Y-3084950D02*
G75*
G02*
X6801940Y-3084950I-15000J0D01*
G01*
X6801940Y-3084950D02*
G75*
G02*
X6831940Y-3084950I15000J0D01*
G01*
X6875510Y-2512930D02*
G75*
G02*
X6845510Y-2512930I-15000J0D01*
G01*
X6845510Y-2512930D02*
G75*
G02*
X6875510Y-2512930I15000J0D01*
G01*
X502410Y-1482590D02*
X502410Y-1522590D01*
X482410Y-1502590D02*
X522410Y-1502590D01*
X586250Y-584210D02*
X586250Y-624210D01*
X566250Y-604210D02*
X606250Y-604210D01*
X791420Y-1241200D02*
X791420Y-1281200D01*
X771420Y-1261200D02*
X811420Y-1261200D01*
X990560Y-4543500D02*
X990560Y-4583500D01*
X970560Y-4563500D02*
X1010560Y-4563500D01*
X994460Y-4369580D02*
X994460Y-4409580D01*
X974460Y-4389580D02*
X1014460Y-4389580D01*
X1283160Y-1196840D02*
X1283160Y-1236840D01*
X1263160Y-1216840D02*
X1303160Y-1216840D01*
X1327380Y-590330D02*
X1327380Y-630330D01*
X1307380Y-610330D02*
X1347380Y-610330D01*
X1435650Y-4059080D02*
X1435650Y-4099080D01*
X1415650Y-4079080D02*
X1455650Y-4079080D01*
X1555460Y-4778690D02*
X1555460Y-4818690D01*
X1535460Y-4798690D02*
X1575460Y-4798690D01*
X1720580Y-897620D02*
X1720580Y-937620D01*
X1700580Y-917620D02*
X1740580Y-917620D01*
X1779680Y-3001320D02*
X1779680Y-3041320D01*
X1759680Y-3021320D02*
X1799680Y-3021320D01*
X1817500Y-1497280D02*
X1817500Y-1537280D01*
X1797500Y-1517280D02*
X1837500Y-1517280D01*
X1982500Y-1944100D02*
X1982500Y-1984100D01*
X1962500Y-1964100D02*
X2002500Y-1964100D01*
X2030000Y-4290250D02*
X2030000Y-4330250D01*
X2010000Y-4310250D02*
X2050000Y-4310250D01*
X2091630Y-876630D02*
X2091630Y-916630D01*
X2071630Y-896630D02*
X2111630Y-896630D01*
X2217800Y-3022300D02*
X2217800Y-3062300D01*
X2197800Y-3042300D02*
X2237800Y-3042300D01*
X2220000Y-4590000D02*
X2220000Y-4630000D01*
X2200000Y-4610000D02*
X2240000Y-4610000D01*
X2360000Y-4893600D02*
X2360000Y-4933600D01*
X2340000Y-4913600D02*
X2380000Y-4913600D01*
X2494310Y-4066100D02*
X2494310Y-4106100D01*
X2474310Y-4086100D02*
X2514310Y-4086100D01*
X3458950Y-4126640D02*
X3458950Y-4166640D01*
X3438950Y-4146640D02*
X3478950Y-4146640D01*
X4074080Y-4339270D02*
X4074080Y-4379270D01*
X4054080Y-4359270D02*
X4094080Y-4359270D01*
X4217500Y-2940000D02*
X4217500Y-2980000D01*
X4197500Y-2960000D02*
X4237500Y-2960000D01*
X4239270Y-3655700D02*
X4239270Y-3695700D01*
X4219270Y-3675700D02*
X4259270Y-3675700D01*
X4437020Y-4208050D02*
X4437020Y-4248050D01*
X4417020Y-4228050D02*
X4457020Y-4228050D01*
X4550000Y-5080000D02*
X4550000Y-5120000D01*
X4530000Y-5100000D02*
X4570000Y-5100000D01*
X4575280Y-2925200D02*
X4575280Y-2965200D01*
X4555280Y-2945200D02*
X4595280Y-2945200D01*
X5082670Y-2018400D02*
X5082670Y-2058400D01*
X5062670Y-2038400D02*
X5102670Y-2038400D01*
X5380650Y-3735380D02*
X5380650Y-3775380D01*
X5360650Y-3755380D02*
X5400650Y-3755380D01*
X6252700Y-2394920D02*
X6252700Y-2434920D01*
X6232700Y-2414920D02*
X6272700Y-2414920D01*
X7043142Y-2734142D02*
X7043142Y-2705858D01*
X7014858Y-2705858D01*
X7014858Y-2734142D01*
X7043142Y-2734142D01*
X7043142Y-2894142D02*
X7043142Y-2865858D01*
X7014858Y-2865858D01*
X7014858Y-2894142D01*
X7043142Y-2894142D01*
X7043142Y-2974142D02*
X7043142Y-2945858D01*
X7014858Y-2945858D01*
X7014858Y-2974142D01*
X7043142Y-2974142D01*
X7043142Y-3054142D02*
X7043142Y-3025858D01*
X7014858Y-3025858D01*
X7014858Y-3054142D01*
X7043142Y-3054142D01*
X7043142Y-3134142D02*
X7043142Y-3105858D01*
X7014858Y-3105858D01*
X7014858Y-3134142D01*
X7043142Y-3134142D01*
X7043142Y-3294142D02*
X7043142Y-3265858D01*
X7014858Y-3265858D01*
X7014858Y-3294142D01*
X7043142Y-3294142D01*
X7113142Y-2774142D02*
X7113142Y-2745858D01*
X7084858Y-2745858D01*
X7084858Y-2774142D01*
X7113142Y-2774142D01*
X7113142Y-2854142D02*
X7113142Y-2825858D01*
X7084858Y-2825858D01*
X7084858Y-2854142D01*
X7113142Y-2854142D01*
X7113142Y-2934142D02*
X7113142Y-2905858D01*
X7084858Y-2905858D01*
X7084858Y-2934142D01*
X7113142Y-2934142D01*
X7113142Y-3094142D02*
X7113142Y-3065858D01*
X7084858Y-3065858D01*
X7084858Y-3094142D01*
X7113142Y-3094142D01*
X7113142Y-3174142D02*
X7113142Y-3145858D01*
X7084858Y-3145858D01*
X7084858Y-3174142D01*
X7113142Y-3174142D01*
X7113142Y-3254142D02*
X7113142Y-3225858D01*
X7084858Y-3225858D01*
X7084858Y-3254142D01*
X7113142Y-3254142D01*
X7089000Y-2612000D02*
X7114000Y-2587000D01*
X7089000Y-2562000D01*
X7064000Y-2587000D01*
X7089000Y-2612000D01*
X7059000Y-2612000D02*
X7119000Y-2612000D01*
X7119000Y-2562000D02*
G75*
G02*
X7119000Y-2612000I0J-25000D01*
G01*
X7119000Y-2562000D02*
X7059000Y-2562000D01*
X7059000Y-2562000D02*
G75*
G03*
X7059000Y-2612000I0J-25000D01*
G01*
X7089000Y-3438000D02*
X7114000Y-3413000D01*
X7089000Y-3388000D01*
X7064000Y-3413000D01*
X7089000Y-3438000D01*
X7059000Y-3438000D02*
X7119000Y-3438000D01*
X7119000Y-3388000D02*
G75*
G02*
X7119000Y-3438000I0J-25000D01*
G01*
X7119000Y-3388000D02*
X7059000Y-3388000D01*
X7059000Y-3388000D02*
G75*
G03*
X7059000Y-3438000I0J-25000D01*
G01*
X7684000Y-2576000D02*
X7709000Y-2551000D01*
X7684000Y-2526000D01*
X7659000Y-2551000D01*
X7684000Y-2576000D01*
X7654000Y-2576000D02*
X7714000Y-2576000D01*
X7714000Y-2526000D02*
G75*
G02*
X7714000Y-2576000I0J-25000D01*
G01*
X7714000Y-2526000D02*
X7654000Y-2526000D01*
X7654000Y-2526000D02*
G75*
G03*
X7654000Y-2576000I0J-25000D01*
G01*
X7684000Y-3474000D02*
X7709000Y-3449000D01*
X7684000Y-3424000D01*
X7659000Y-3449000D01*
X7684000Y-3474000D01*
X7654000Y-3474000D02*
X7714000Y-3474000D01*
X7714000Y-3424000D02*
G75*
G02*
X7714000Y-3474000I0J-25000D01*
G01*
X7714000Y-3424000D02*
X7654000Y-3424000D01*
X7654000Y-3424000D02*
G75*
G03*
X7654000Y-3474000I0J-25000D01*
G01*
X550000Y-2950000D02*
X650000Y-3050000D01*
X650000Y-2950000D02*
X550000Y-3050000D01*
X650000Y-3000000D02*
G75*
G02*
X550000Y-3000000I-50000J0D01*
G01*
X550000Y-3000000D02*
G75*
G02*
X650000Y-3000000I50000J0D01*
G01*
X804000Y-2950000D02*
X904000Y-3050000D01*
X904000Y-2950000D02*
X804000Y-3050000D01*
X904000Y-3000000D02*
G75*
G02*
X804000Y-3000000I-50000J0D01*
G01*
X804000Y-3000000D02*
G75*
G02*
X904000Y-3000000I50000J0D01*
G01*
X2950000Y-1150000D02*
X3050000Y-1250000D01*
X3050000Y-1150000D02*
X2950000Y-1250000D01*
X3050000Y-1200000D02*
G75*
G02*
X2950000Y-1200000I-50000J0D01*
G01*
X2950000Y-1200000D02*
G75*
G02*
X3050000Y-1200000I50000J0D01*
G01*
X2950000Y-1404000D02*
X3050000Y-1504000D01*
X3050000Y-1404000D02*
X2950000Y-1504000D01*
X3050000Y-1454000D02*
G75*
G02*
X2950000Y-1454000I-50000J0D01*
G01*
X2950000Y-1454000D02*
G75*
G02*
X3050000Y-1454000I50000J0D01*
G01*
X2950000Y-4650000D02*
X3050000Y-4750000D01*
X3050000Y-4650000D02*
X2950000Y-4750000D01*
X3050000Y-4700000D02*
G75*
G02*
X2950000Y-4700000I-50000J0D01*
G01*
X2950000Y-4700000D02*
G75*
G02*
X3050000Y-4700000I50000J0D01*
G01*
X2950000Y-4904000D02*
X3050000Y-5004000D01*
X3050000Y-4904000D02*
X2950000Y-5004000D01*
X3050000Y-4954000D02*
G75*
G02*
X2950000Y-4954000I-50000J0D01*
G01*
X2950000Y-4954000D02*
G75*
G02*
X3050000Y-4954000I50000J0D01*
G01*
X2950000Y-5158000D02*
X3050000Y-5258000D01*
X3050000Y-5158000D02*
X2950000Y-5258000D01*
X3050000Y-5208000D02*
G75*
G02*
X2950000Y-5208000I-50000J0D01*
G01*
X2950000Y-5208000D02*
G75*
G02*
X3050000Y-5208000I50000J0D01*
G01*
X2950000Y-5412000D02*
X3050000Y-5512000D01*
X3050000Y-5412000D02*
X2950000Y-5512000D01*
X3050000Y-5462000D02*
G75*
G02*
X2950000Y-5462000I-50000J0D01*
G01*
X2950000Y-5462000D02*
G75*
G02*
X3050000Y-5462000I50000J0D01*
G01*
X3950000Y-4650000D02*
X4050000Y-4750000D01*
X4050000Y-4650000D02*
X3950000Y-4750000D01*
X4050000Y-4700000D02*
G75*
G02*
X3950000Y-4700000I-50000J0D01*
G01*
X3950000Y-4700000D02*
G75*
G02*
X4050000Y-4700000I50000J0D01*
G01*
X3950000Y-4904000D02*
X4050000Y-5004000D01*
X4050000Y-4904000D02*
X3950000Y-5004000D01*
X4050000Y-4954000D02*
G75*
G02*
X3950000Y-4954000I-50000J0D01*
G01*
X3950000Y-4954000D02*
G75*
G02*
X4050000Y-4954000I50000J0D01*
G01*
X3950000Y-5158000D02*
X4050000Y-5258000D01*
X4050000Y-5158000D02*
X3950000Y-5258000D01*
X4050000Y-5208000D02*
G75*
G02*
X3950000Y-5208000I-50000J0D01*
G01*
X3950000Y-5208000D02*
G75*
G02*
X4050000Y-5208000I50000J0D01*
G01*
X3950000Y-5412000D02*
X4050000Y-5512000D01*
X4050000Y-5412000D02*
X3950000Y-5512000D01*
X4050000Y-5462000D02*
G75*
G02*
X3950000Y-5462000I-50000J0D01*
G01*
X3950000Y-5462000D02*
G75*
G02*
X4050000Y-5462000I50000J0D01*
G01*
X3950000Y-5666000D02*
X4050000Y-5766000D01*
X4050000Y-5666000D02*
X3950000Y-5766000D01*
X4050000Y-5716000D02*
G75*
G02*
X3950000Y-5716000I-50000J0D01*
G01*
X3950000Y-5716000D02*
G75*
G02*
X4050000Y-5716000I50000J0D01*
G01*
X4250000Y-650000D02*
X4350000Y-750000D01*
X4350000Y-650000D02*
X4250000Y-750000D01*
X4350000Y-700000D02*
G75*
G02*
X4250000Y-700000I-50000J0D01*
G01*
X4250000Y-700000D02*
G75*
G02*
X4350000Y-700000I50000J0D01*
G01*
X4504000Y-650000D02*
X4604000Y-750000D01*
X4604000Y-650000D02*
X4504000Y-750000D01*
X4604000Y-700000D02*
G75*
G02*
X4504000Y-700000I-50000J0D01*
G01*
X4504000Y-700000D02*
G75*
G02*
X4604000Y-700000I50000J0D01*
G01*
X4758000Y-650000D02*
X4858000Y-750000D01*
X4858000Y-650000D02*
X4758000Y-750000D01*
X4858000Y-700000D02*
G75*
G02*
X4758000Y-700000I-50000J0D01*
G01*
X4758000Y-700000D02*
G75*
G02*
X4858000Y-700000I50000J0D01*
G01*
X5012000Y-650000D02*
X5112000Y-750000D01*
X5112000Y-650000D02*
X5012000Y-750000D01*
X5112000Y-700000D02*
G75*
G02*
X5012000Y-700000I-50000J0D01*
G01*
X5012000Y-700000D02*
G75*
G02*
X5112000Y-700000I50000J0D01*
G01*
X5266000Y-650000D02*
X5366000Y-750000D01*
X5366000Y-650000D02*
X5266000Y-750000D01*
X5366000Y-700000D02*
G75*
G02*
X5266000Y-700000I-50000J0D01*
G01*
X5266000Y-700000D02*
G75*
G02*
X5366000Y-700000I50000J0D01*
G01*
X5450000Y-5750000D02*
X5550000Y-5850000D01*
X5550000Y-5750000D02*
X5450000Y-5850000D01*
X5550000Y-5800000D02*
G75*
G02*
X5450000Y-5800000I-50000J0D01*
G01*
X5450000Y-5800000D02*
G75*
G02*
X5550000Y-5800000I50000J0D01*
G01*
X5520000Y-650000D02*
X5620000Y-750000D01*
X5620000Y-650000D02*
X5520000Y-750000D01*
X5620000Y-700000D02*
G75*
G02*
X5520000Y-700000I-50000J0D01*
G01*
X5520000Y-700000D02*
G75*
G02*
X5620000Y-700000I50000J0D01*
G01*
X5704000Y-5750000D02*
X5804000Y-5850000D01*
X5804000Y-5750000D02*
X5704000Y-5850000D01*
X5804000Y-5800000D02*
G75*
G02*
X5704000Y-5800000I-50000J0D01*
G01*
X5704000Y-5800000D02*
G75*
G02*
X5804000Y-5800000I50000J0D01*
G01*
X5774000Y-650000D02*
X5874000Y-750000D01*
X5874000Y-650000D02*
X5774000Y-750000D01*
X5874000Y-700000D02*
G75*
G02*
X5774000Y-700000I-50000J0D01*
G01*
X5774000Y-700000D02*
G75*
G02*
X5874000Y-700000I50000J0D01*
G01*
X6028000Y-650000D02*
X6128000Y-750000D01*
X6128000Y-650000D02*
X6028000Y-750000D01*
X6128000Y-700000D02*
G75*
G02*
X6028000Y-700000I-50000J0D01*
G01*
X6028000Y-700000D02*
G75*
G02*
X6128000Y-700000I50000J0D01*
G01*
X6150000Y-4650000D02*
X6250000Y-4750000D01*
X6250000Y-4650000D02*
X6150000Y-4750000D01*
X6250000Y-4700000D02*
G75*
G02*
X6150000Y-4700000I-50000J0D01*
G01*
X6150000Y-4700000D02*
G75*
G02*
X6250000Y-4700000I50000J0D01*
G01*
X6150000Y-4904000D02*
X6250000Y-5004000D01*
X6250000Y-4904000D02*
X6150000Y-5004000D01*
X6250000Y-4954000D02*
G75*
G02*
X6150000Y-4954000I-50000J0D01*
G01*
X6150000Y-4954000D02*
G75*
G02*
X6250000Y-4954000I50000J0D01*
G01*
X6150000Y-5158000D02*
X6250000Y-5258000D01*
X6250000Y-5158000D02*
X6150000Y-5258000D01*
X6250000Y-5208000D02*
G75*
G02*
X6150000Y-5208000I-50000J0D01*
G01*
X6150000Y-5208000D02*
G75*
G02*
X6250000Y-5208000I50000J0D01*
G01*
X6150000Y-5412000D02*
X6250000Y-5512000D01*
X6250000Y-5412000D02*
X6150000Y-5512000D01*
X6250000Y-5462000D02*
G75*
G02*
X6150000Y-5462000I-50000J0D01*
G01*
X6150000Y-5462000D02*
G75*
G02*
X6250000Y-5462000I50000J0D01*
G01*
X6150000Y-5666000D02*
X6250000Y-5766000D01*
X6250000Y-5666000D02*
X6150000Y-5766000D01*
X6250000Y-5716000D02*
G75*
G02*
X6150000Y-5716000I-50000J0D01*
G01*
X6150000Y-5716000D02*
G75*
G02*
X6250000Y-5716000I50000J0D01*
G01*
X6282000Y-650000D02*
X6382000Y-750000D01*
X6382000Y-650000D02*
X6282000Y-750000D01*
X6382000Y-700000D02*
G75*
G02*
X6282000Y-700000I-50000J0D01*
G01*
X6282000Y-700000D02*
G75*
G02*
X6382000Y-700000I50000J0D01*
G01*
X6536000Y-650000D02*
X6636000Y-750000D01*
X6636000Y-650000D02*
X6536000Y-750000D01*
X6636000Y-700000D02*
G75*
G02*
X6536000Y-700000I-50000J0D01*
G01*
X6536000Y-700000D02*
G75*
G02*
X6636000Y-700000I50000J0D01*
G01*
X6790000Y-650000D02*
X6890000Y-750000D01*
X6890000Y-650000D02*
X6790000Y-750000D01*
X6890000Y-700000D02*
G75*
G02*
X6790000Y-700000I-50000J0D01*
G01*
X6790000Y-700000D02*
G75*
G02*
X6890000Y-700000I50000J0D01*
G01*
X7044000Y-650000D02*
X7144000Y-750000D01*
X7144000Y-650000D02*
X7044000Y-750000D01*
X7144000Y-700000D02*
G75*
G02*
X7044000Y-700000I-50000J0D01*
G01*
X7044000Y-700000D02*
G75*
G02*
X7144000Y-700000I50000J0D01*
G01*
X7050000Y-4750000D02*
X7150000Y-4850000D01*
X7150000Y-4750000D02*
X7050000Y-4850000D01*
X7150000Y-4800000D02*
G75*
G02*
X7050000Y-4800000I-50000J0D01*
G01*
X7050000Y-4800000D02*
G75*
G02*
X7150000Y-4800000I50000J0D01*
G01*
X7100000Y-5550000D02*
X7200000Y-5650000D01*
X7200000Y-5550000D02*
X7100000Y-5650000D01*
X7200000Y-5600000D02*
G75*
G02*
X7100000Y-5600000I-50000J0D01*
G01*
X7100000Y-5600000D02*
G75*
G02*
X7200000Y-5600000I50000J0D01*
G01*
X7298000Y-650000D02*
X7398000Y-750000D01*
X7398000Y-650000D02*
X7298000Y-750000D01*
X7398000Y-700000D02*
G75*
G02*
X7298000Y-700000I-50000J0D01*
G01*
X7298000Y-700000D02*
G75*
G02*
X7398000Y-700000I50000J0D01*
G01*
X7304000Y-4750000D02*
X7404000Y-4850000D01*
X7404000Y-4750000D02*
X7304000Y-4850000D01*
X7404000Y-4800000D02*
G75*
G02*
X7304000Y-4800000I-50000J0D01*
G01*
X7304000Y-4800000D02*
G75*
G02*
X7404000Y-4800000I50000J0D01*
G01*
X7354000Y-5550000D02*
X7454000Y-5650000D01*
X7454000Y-5550000D02*
X7354000Y-5650000D01*
X7454000Y-5600000D02*
G75*
G02*
X7354000Y-5600000I-50000J0D01*
G01*
X7354000Y-5600000D02*
G75*
G02*
X7454000Y-5600000I50000J0D01*
G01*
X7552000Y-650000D02*
X7652000Y-750000D01*
X7652000Y-650000D02*
X7552000Y-750000D01*
X7652000Y-700000D02*
G75*
G02*
X7552000Y-700000I-50000J0D01*
G01*
X7552000Y-700000D02*
G75*
G02*
X7652000Y-700000I50000J0D01*
G01*
X7608000Y-5550000D02*
X7708000Y-5650000D01*
X7708000Y-5550000D02*
X7608000Y-5650000D01*
X7708000Y-5600000D02*
G75*
G02*
X7608000Y-5600000I-50000J0D01*
G01*
X7608000Y-5600000D02*
G75*
G02*
X7708000Y-5600000I50000J0D01*
G01*
D11*
X255777Y-6316484D02*
X255777Y-6116484D01*
X255777Y-6116484D02*
X303396Y-6116484D01*
X303396Y-6116484D02*
X331967Y-6126008D01*
X331967Y-6126008D02*
X351015Y-6145055D01*
X351015Y-6145055D02*
X360539Y-6164103D01*
X360539Y-6164103D02*
X370062Y-6202198D01*
X370062Y-6202198D02*
X370062Y-6230769D01*
X370062Y-6230769D02*
X360539Y-6268865D01*
X360539Y-6268865D02*
X351015Y-6287912D01*
X351015Y-6287912D02*
X331967Y-6306960D01*
X331967Y-6306960D02*
X303396Y-6316484D01*
X303396Y-6316484D02*
X255777Y-6316484D01*
X455777Y-6316484D02*
X455777Y-6183150D01*
X455777Y-6221246D02*
X465301Y-6202198D01*
X465301Y-6202198D02*
X474824Y-6192674D01*
X474824Y-6192674D02*
X493872Y-6183150D01*
X493872Y-6183150D02*
X512920Y-6183150D01*
X579586Y-6316484D02*
X579586Y-6183150D01*
X579586Y-6116484D02*
X570063Y-6126008D01*
X570063Y-6126008D02*
X579586Y-6135531D01*
X579586Y-6135531D02*
X589110Y-6126008D01*
X589110Y-6126008D02*
X579586Y-6116484D01*
X579586Y-6116484D02*
X579586Y-6135531D01*
X703396Y-6316484D02*
X684348Y-6306960D01*
X684348Y-6306960D02*
X674824Y-6287912D01*
X674824Y-6287912D02*
X674824Y-6116484D01*
X808158Y-6316484D02*
X789110Y-6306960D01*
X789110Y-6306960D02*
X779586Y-6287912D01*
X779586Y-6287912D02*
X779586Y-6116484D01*
X1036729Y-6316484D02*
X1036729Y-6116484D01*
X1036729Y-6116484D02*
X1103396Y-6259341D01*
X1103396Y-6259341D02*
X1170063Y-6116484D01*
X1170063Y-6116484D02*
X1170063Y-6316484D01*
X1351015Y-6316484D02*
X1351015Y-6211722D01*
X1351015Y-6211722D02*
X1341491Y-6192674D01*
X1341491Y-6192674D02*
X1322444Y-6183150D01*
X1322444Y-6183150D02*
X1284348Y-6183150D01*
X1284348Y-6183150D02*
X1265301Y-6192674D01*
X1351015Y-6306960D02*
X1331967Y-6316484D01*
X1331967Y-6316484D02*
X1284348Y-6316484D01*
X1284348Y-6316484D02*
X1265301Y-6306960D01*
X1265301Y-6306960D02*
X1255777Y-6287912D01*
X1255777Y-6287912D02*
X1255777Y-6268865D01*
X1255777Y-6268865D02*
X1265301Y-6249817D01*
X1265301Y-6249817D02*
X1284348Y-6240293D01*
X1284348Y-6240293D02*
X1331967Y-6240293D01*
X1331967Y-6240293D02*
X1351015Y-6230769D01*
X1446253Y-6183150D02*
X1446253Y-6383150D01*
X1446253Y-6192674D02*
X1465301Y-6183150D01*
X1465301Y-6183150D02*
X1503396Y-6183150D01*
X1503396Y-6183150D02*
X1522443Y-6192674D01*
X1522443Y-6192674D02*
X1531967Y-6202198D01*
X1531967Y-6202198D02*
X1541491Y-6221246D01*
X1541491Y-6221246D02*
X1541491Y-6278388D01*
X1541491Y-6278388D02*
X1531967Y-6297436D01*
X1531967Y-6297436D02*
X1522443Y-6306960D01*
X1522443Y-6306960D02*
X1503396Y-6316484D01*
X1503396Y-6316484D02*
X1465301Y-6316484D01*
X1465301Y-6316484D02*
X1446253Y-6306960D01*
X1627205Y-6297436D02*
X1636729Y-6306960D01*
X1636729Y-6306960D02*
X1627205Y-6316484D01*
X1627205Y-6316484D02*
X1617682Y-6306960D01*
X1617682Y-6306960D02*
X1627205Y-6297436D01*
X1627205Y-6297436D02*
X1627205Y-6316484D01*
X1627205Y-6192674D02*
X1636729Y-6202198D01*
X1636729Y-6202198D02*
X1627205Y-6211722D01*
X1627205Y-6211722D02*
X1617682Y-6202198D01*
X1617682Y-6202198D02*
X1627205Y-6192674D01*
X1627205Y-6192674D02*
X1627205Y-6211722D01*
D10*
X-20000Y-6637500D02*
X-5000Y-6652500D01*
X-5000Y-6637500D02*
X-20000Y-6652500D01*
D11*
X293872Y-6536484D02*
X312920Y-6536484D01*
X312920Y-6536484D02*
X331967Y-6546008D01*
X331967Y-6546008D02*
X341491Y-6555531D01*
X341491Y-6555531D02*
X351015Y-6574579D01*
X351015Y-6574579D02*
X360539Y-6612674D01*
X360539Y-6612674D02*
X360539Y-6660293D01*
X360539Y-6660293D02*
X351015Y-6698388D01*
X351015Y-6698388D02*
X341491Y-6717436D01*
X341491Y-6717436D02*
X331967Y-6726960D01*
X331967Y-6726960D02*
X312920Y-6736484D01*
X312920Y-6736484D02*
X293872Y-6736484D01*
X293872Y-6736484D02*
X274824Y-6726960D01*
X274824Y-6726960D02*
X265301Y-6717436D01*
X265301Y-6717436D02*
X255777Y-6698388D01*
X255777Y-6698388D02*
X246253Y-6660293D01*
X246253Y-6660293D02*
X246253Y-6612674D01*
X246253Y-6612674D02*
X255777Y-6574579D01*
X255777Y-6574579D02*
X265301Y-6555531D01*
X265301Y-6555531D02*
X274824Y-6546008D01*
X274824Y-6546008D02*
X293872Y-6536484D01*
X446253Y-6717436D02*
X455777Y-6726960D01*
X455777Y-6726960D02*
X446253Y-6736484D01*
X446253Y-6736484D02*
X436729Y-6726960D01*
X436729Y-6726960D02*
X446253Y-6717436D01*
X446253Y-6717436D02*
X446253Y-6736484D01*
X646253Y-6736484D02*
X531967Y-6736484D01*
X589110Y-6736484D02*
X589110Y-6536484D01*
X589110Y-6536484D02*
X570063Y-6565055D01*
X570063Y-6565055D02*
X551015Y-6584103D01*
X551015Y-6584103D02*
X531967Y-6593627D01*
X827205Y-6536484D02*
X731967Y-6536484D01*
X731967Y-6536484D02*
X722443Y-6631722D01*
X722443Y-6631722D02*
X731967Y-6622198D01*
X731967Y-6622198D02*
X751015Y-6612674D01*
X751015Y-6612674D02*
X798634Y-6612674D01*
X798634Y-6612674D02*
X817682Y-6622198D01*
X817682Y-6622198D02*
X827205Y-6631722D01*
X827205Y-6631722D02*
X836729Y-6650769D01*
X836729Y-6650769D02*
X836729Y-6698388D01*
X836729Y-6698388D02*
X827205Y-6717436D01*
X827205Y-6717436D02*
X817682Y-6726960D01*
X817682Y-6726960D02*
X798634Y-6736484D01*
X798634Y-6736484D02*
X751015Y-6736484D01*
X751015Y-6736484D02*
X731967Y-6726960D01*
X731967Y-6726960D02*
X722443Y-6717436D01*
X960539Y-6536484D02*
X979586Y-6536484D01*
X979586Y-6536484D02*
X998634Y-6546008D01*
X998634Y-6546008D02*
X1008158Y-6555531D01*
X1008158Y-6555531D02*
X1017682Y-6574579D01*
X1017682Y-6574579D02*
X1027205Y-6612674D01*
X1027205Y-6612674D02*
X1027205Y-6660293D01*
X1027205Y-6660293D02*
X1017682Y-6698388D01*
X1017682Y-6698388D02*
X1008158Y-6717436D01*
X1008158Y-6717436D02*
X998634Y-6726960D01*
X998634Y-6726960D02*
X979586Y-6736484D01*
X979586Y-6736484D02*
X960539Y-6736484D01*
X960539Y-6736484D02*
X941491Y-6726960D01*
X941491Y-6726960D02*
X931967Y-6717436D01*
X931967Y-6717436D02*
X922443Y-6698388D01*
X922443Y-6698388D02*
X912920Y-6660293D01*
X912920Y-6660293D02*
X912920Y-6612674D01*
X912920Y-6612674D02*
X922443Y-6574579D01*
X922443Y-6574579D02*
X931967Y-6555531D01*
X931967Y-6555531D02*
X941491Y-6546008D01*
X941491Y-6546008D02*
X960539Y-6536484D01*
X1112920Y-6736484D02*
X1112920Y-6603150D01*
X1112920Y-6622198D02*
X1122444Y-6612674D01*
X1122444Y-6612674D02*
X1141491Y-6603150D01*
X1141491Y-6603150D02*
X1170063Y-6603150D01*
X1170063Y-6603150D02*
X1189110Y-6612674D01*
X1189110Y-6612674D02*
X1198634Y-6631722D01*
X1198634Y-6631722D02*
X1198634Y-6736484D01*
X1198634Y-6631722D02*
X1208158Y-6612674D01*
X1208158Y-6612674D02*
X1227205Y-6603150D01*
X1227205Y-6603150D02*
X1255777Y-6603150D01*
X1255777Y-6603150D02*
X1274825Y-6612674D01*
X1274825Y-6612674D02*
X1284348Y-6631722D01*
X1284348Y-6631722D02*
X1284348Y-6736484D01*
X1379586Y-6736484D02*
X1379586Y-6603150D01*
X1379586Y-6622198D02*
X1389110Y-6612674D01*
X1389110Y-6612674D02*
X1408158Y-6603150D01*
X1408158Y-6603150D02*
X1436729Y-6603150D01*
X1436729Y-6603150D02*
X1455777Y-6612674D01*
X1455777Y-6612674D02*
X1465301Y-6631722D01*
X1465301Y-6631722D02*
X1465301Y-6736484D01*
X1465301Y-6631722D02*
X1474824Y-6612674D01*
X1474824Y-6612674D02*
X1493872Y-6603150D01*
X1493872Y-6603150D02*
X1522443Y-6603150D01*
X1522443Y-6603150D02*
X1541491Y-6612674D01*
X1541491Y-6612674D02*
X1551015Y-6631722D01*
X1551015Y-6631722D02*
X1551015Y-6736484D01*
X1941491Y-6526960D02*
X1770063Y-6784103D01*
X2198634Y-6536484D02*
X2217682Y-6536484D01*
X2217682Y-6536484D02*
X2236729Y-6546008D01*
X2236729Y-6546008D02*
X2246253Y-6555531D01*
X2246253Y-6555531D02*
X2255777Y-6574579D01*
X2255777Y-6574579D02*
X2265301Y-6612674D01*
X2265301Y-6612674D02*
X2265301Y-6660293D01*
X2265301Y-6660293D02*
X2255777Y-6698388D01*
X2255777Y-6698388D02*
X2246253Y-6717436D01*
X2246253Y-6717436D02*
X2236729Y-6726960D01*
X2236729Y-6726960D02*
X2217682Y-6736484D01*
X2217682Y-6736484D02*
X2198634Y-6736484D01*
X2198634Y-6736484D02*
X2179587Y-6726960D01*
X2179587Y-6726960D02*
X2170063Y-6717436D01*
X2170063Y-6717436D02*
X2160539Y-6698388D01*
X2160539Y-6698388D02*
X2151015Y-6660293D01*
X2151015Y-6660293D02*
X2151015Y-6612674D01*
X2151015Y-6612674D02*
X2160539Y-6574579D01*
X2160539Y-6574579D02*
X2170063Y-6555531D01*
X2170063Y-6555531D02*
X2179587Y-6546008D01*
X2179587Y-6546008D02*
X2198634Y-6536484D01*
X2351015Y-6717436D02*
X2360539Y-6726960D01*
X2360539Y-6726960D02*
X2351015Y-6736484D01*
X2351015Y-6736484D02*
X2341491Y-6726960D01*
X2341491Y-6726960D02*
X2351015Y-6717436D01*
X2351015Y-6717436D02*
X2351015Y-6736484D01*
X2484348Y-6536484D02*
X2503396Y-6536484D01*
X2503396Y-6536484D02*
X2522444Y-6546008D01*
X2522444Y-6546008D02*
X2531968Y-6555531D01*
X2531968Y-6555531D02*
X2541491Y-6574579D01*
X2541491Y-6574579D02*
X2551015Y-6612674D01*
X2551015Y-6612674D02*
X2551015Y-6660293D01*
X2551015Y-6660293D02*
X2541491Y-6698388D01*
X2541491Y-6698388D02*
X2531968Y-6717436D01*
X2531968Y-6717436D02*
X2522444Y-6726960D01*
X2522444Y-6726960D02*
X2503396Y-6736484D01*
X2503396Y-6736484D02*
X2484348Y-6736484D01*
X2484348Y-6736484D02*
X2465301Y-6726960D01*
X2465301Y-6726960D02*
X2455777Y-6717436D01*
X2455777Y-6717436D02*
X2446253Y-6698388D01*
X2446253Y-6698388D02*
X2436729Y-6660293D01*
X2436729Y-6660293D02*
X2436729Y-6612674D01*
X2436729Y-6612674D02*
X2446253Y-6574579D01*
X2446253Y-6574579D02*
X2455777Y-6555531D01*
X2455777Y-6555531D02*
X2465301Y-6546008D01*
X2465301Y-6546008D02*
X2484348Y-6536484D01*
X2674825Y-6536484D02*
X2693872Y-6536484D01*
X2693872Y-6536484D02*
X2712920Y-6546008D01*
X2712920Y-6546008D02*
X2722444Y-6555531D01*
X2722444Y-6555531D02*
X2731968Y-6574579D01*
X2731968Y-6574579D02*
X2741491Y-6612674D01*
X2741491Y-6612674D02*
X2741491Y-6660293D01*
X2741491Y-6660293D02*
X2731968Y-6698388D01*
X2731968Y-6698388D02*
X2722444Y-6717436D01*
X2722444Y-6717436D02*
X2712920Y-6726960D01*
X2712920Y-6726960D02*
X2693872Y-6736484D01*
X2693872Y-6736484D02*
X2674825Y-6736484D01*
X2674825Y-6736484D02*
X2655777Y-6726960D01*
X2655777Y-6726960D02*
X2646253Y-6717436D01*
X2646253Y-6717436D02*
X2636729Y-6698388D01*
X2636729Y-6698388D02*
X2627206Y-6660293D01*
X2627206Y-6660293D02*
X2627206Y-6612674D01*
X2627206Y-6612674D02*
X2636729Y-6574579D01*
X2636729Y-6574579D02*
X2646253Y-6555531D01*
X2646253Y-6555531D02*
X2655777Y-6546008D01*
X2655777Y-6546008D02*
X2674825Y-6536484D01*
X2922444Y-6536484D02*
X2827206Y-6536484D01*
X2827206Y-6536484D02*
X2817682Y-6631722D01*
X2817682Y-6631722D02*
X2827206Y-6622198D01*
X2827206Y-6622198D02*
X2846253Y-6612674D01*
X2846253Y-6612674D02*
X2893872Y-6612674D01*
X2893872Y-6612674D02*
X2912920Y-6622198D01*
X2912920Y-6622198D02*
X2922444Y-6631722D01*
X2922444Y-6631722D02*
X2931967Y-6650769D01*
X2931967Y-6650769D02*
X2931967Y-6698388D01*
X2931967Y-6698388D02*
X2922444Y-6717436D01*
X2922444Y-6717436D02*
X2912920Y-6726960D01*
X2912920Y-6726960D02*
X2893872Y-6736484D01*
X2893872Y-6736484D02*
X2846253Y-6736484D01*
X2846253Y-6736484D02*
X2827206Y-6726960D01*
X2827206Y-6726960D02*
X2817682Y-6717436D01*
X3027206Y-6736484D02*
X3065301Y-6736484D01*
X3065301Y-6736484D02*
X3084348Y-6726960D01*
X3084348Y-6726960D02*
X3093872Y-6717436D01*
X3093872Y-6717436D02*
X3112920Y-6688865D01*
X3112920Y-6688865D02*
X3122444Y-6650769D01*
X3122444Y-6650769D02*
X3122444Y-6574579D01*
X3122444Y-6574579D02*
X3112920Y-6555531D01*
X3112920Y-6555531D02*
X3103396Y-6546008D01*
X3103396Y-6546008D02*
X3084348Y-6536484D01*
X3084348Y-6536484D02*
X3046253Y-6536484D01*
X3046253Y-6536484D02*
X3027206Y-6546008D01*
X3027206Y-6546008D02*
X3017682Y-6555531D01*
X3017682Y-6555531D02*
X3008158Y-6574579D01*
X3008158Y-6574579D02*
X3008158Y-6622198D01*
X3008158Y-6622198D02*
X3017682Y-6641246D01*
X3017682Y-6641246D02*
X3027206Y-6650769D01*
X3027206Y-6650769D02*
X3046253Y-6660293D01*
X3046253Y-6660293D02*
X3084348Y-6660293D01*
X3084348Y-6660293D02*
X3103396Y-6650769D01*
X3103396Y-6650769D02*
X3112920Y-6641246D01*
X3112920Y-6641246D02*
X3122444Y-6622198D01*
X3198634Y-6536484D02*
X3198634Y-6574579D01*
X3274825Y-6536484D02*
X3274825Y-6574579D01*
X3570063Y-6812674D02*
X3560539Y-6803150D01*
X3560539Y-6803150D02*
X3541491Y-6774579D01*
X3541491Y-6774579D02*
X3531968Y-6755531D01*
X3531968Y-6755531D02*
X3522444Y-6726960D01*
X3522444Y-6726960D02*
X3512920Y-6679341D01*
X3512920Y-6679341D02*
X3512920Y-6641246D01*
X3512920Y-6641246D02*
X3522444Y-6593627D01*
X3522444Y-6593627D02*
X3531968Y-6565055D01*
X3531968Y-6565055D02*
X3541491Y-6546008D01*
X3541491Y-6546008D02*
X3560539Y-6517436D01*
X3560539Y-6517436D02*
X3570063Y-6507912D01*
X3674825Y-6622198D02*
X3655777Y-6612674D01*
X3655777Y-6612674D02*
X3646253Y-6603150D01*
X3646253Y-6603150D02*
X3636729Y-6584103D01*
X3636729Y-6584103D02*
X3636729Y-6574579D01*
X3636729Y-6574579D02*
X3646253Y-6555531D01*
X3646253Y-6555531D02*
X3655777Y-6546008D01*
X3655777Y-6546008D02*
X3674825Y-6536484D01*
X3674825Y-6536484D02*
X3712920Y-6536484D01*
X3712920Y-6536484D02*
X3731968Y-6546008D01*
X3731968Y-6546008D02*
X3741491Y-6555531D01*
X3741491Y-6555531D02*
X3751015Y-6574579D01*
X3751015Y-6574579D02*
X3751015Y-6584103D01*
X3751015Y-6584103D02*
X3741491Y-6603150D01*
X3741491Y-6603150D02*
X3731968Y-6612674D01*
X3731968Y-6612674D02*
X3712920Y-6622198D01*
X3712920Y-6622198D02*
X3674825Y-6622198D01*
X3674825Y-6622198D02*
X3655777Y-6631722D01*
X3655777Y-6631722D02*
X3646253Y-6641246D01*
X3646253Y-6641246D02*
X3636729Y-6660293D01*
X3636729Y-6660293D02*
X3636729Y-6698388D01*
X3636729Y-6698388D02*
X3646253Y-6717436D01*
X3646253Y-6717436D02*
X3655777Y-6726960D01*
X3655777Y-6726960D02*
X3674825Y-6736484D01*
X3674825Y-6736484D02*
X3712920Y-6736484D01*
X3712920Y-6736484D02*
X3731968Y-6726960D01*
X3731968Y-6726960D02*
X3741491Y-6717436D01*
X3741491Y-6717436D02*
X3751015Y-6698388D01*
X3751015Y-6698388D02*
X3751015Y-6660293D01*
X3751015Y-6660293D02*
X3741491Y-6641246D01*
X3741491Y-6641246D02*
X3731968Y-6631722D01*
X3731968Y-6631722D02*
X3712920Y-6622198D01*
X3989110Y-6736484D02*
X3989110Y-6536484D01*
X4074825Y-6736484D02*
X4074825Y-6631722D01*
X4074825Y-6631722D02*
X4065301Y-6612674D01*
X4065301Y-6612674D02*
X4046253Y-6603150D01*
X4046253Y-6603150D02*
X4017682Y-6603150D01*
X4017682Y-6603150D02*
X3998634Y-6612674D01*
X3998634Y-6612674D02*
X3989110Y-6622198D01*
X4198634Y-6736484D02*
X4179587Y-6726960D01*
X4179587Y-6726960D02*
X4170063Y-6717436D01*
X4170063Y-6717436D02*
X4160539Y-6698388D01*
X4160539Y-6698388D02*
X4160539Y-6641246D01*
X4160539Y-6641246D02*
X4170063Y-6622198D01*
X4170063Y-6622198D02*
X4179587Y-6612674D01*
X4179587Y-6612674D02*
X4198634Y-6603150D01*
X4198634Y-6603150D02*
X4227206Y-6603150D01*
X4227206Y-6603150D02*
X4246253Y-6612674D01*
X4246253Y-6612674D02*
X4255777Y-6622198D01*
X4255777Y-6622198D02*
X4265301Y-6641246D01*
X4265301Y-6641246D02*
X4265301Y-6698388D01*
X4265301Y-6698388D02*
X4255777Y-6717436D01*
X4255777Y-6717436D02*
X4246253Y-6726960D01*
X4246253Y-6726960D02*
X4227206Y-6736484D01*
X4227206Y-6736484D02*
X4198634Y-6736484D01*
X4379587Y-6736484D02*
X4360539Y-6726960D01*
X4360539Y-6726960D02*
X4351015Y-6707912D01*
X4351015Y-6707912D02*
X4351015Y-6536484D01*
X4531968Y-6726960D02*
X4512920Y-6736484D01*
X4512920Y-6736484D02*
X4474825Y-6736484D01*
X4474825Y-6736484D02*
X4455777Y-6726960D01*
X4455777Y-6726960D02*
X4446253Y-6707912D01*
X4446253Y-6707912D02*
X4446253Y-6631722D01*
X4446253Y-6631722D02*
X4455777Y-6612674D01*
X4455777Y-6612674D02*
X4474825Y-6603150D01*
X4474825Y-6603150D02*
X4512920Y-6603150D01*
X4512920Y-6603150D02*
X4531968Y-6612674D01*
X4531968Y-6612674D02*
X4541492Y-6631722D01*
X4541492Y-6631722D02*
X4541492Y-6650769D01*
X4541492Y-6650769D02*
X4446253Y-6669817D01*
X4617682Y-6726960D02*
X4636730Y-6736484D01*
X4636730Y-6736484D02*
X4674825Y-6736484D01*
X4674825Y-6736484D02*
X4693873Y-6726960D01*
X4693873Y-6726960D02*
X4703396Y-6707912D01*
X4703396Y-6707912D02*
X4703396Y-6698388D01*
X4703396Y-6698388D02*
X4693873Y-6679341D01*
X4693873Y-6679341D02*
X4674825Y-6669817D01*
X4674825Y-6669817D02*
X4646253Y-6669817D01*
X4646253Y-6669817D02*
X4627206Y-6660293D01*
X4627206Y-6660293D02*
X4617682Y-6641246D01*
X4617682Y-6641246D02*
X4617682Y-6631722D01*
X4617682Y-6631722D02*
X4627206Y-6612674D01*
X4627206Y-6612674D02*
X4646253Y-6603150D01*
X4646253Y-6603150D02*
X4674825Y-6603150D01*
X4674825Y-6603150D02*
X4693873Y-6612674D01*
X4770063Y-6812674D02*
X4779587Y-6803150D01*
X4779587Y-6803150D02*
X4798634Y-6774579D01*
X4798634Y-6774579D02*
X4808158Y-6755531D01*
X4808158Y-6755531D02*
X4817682Y-6726960D01*
X4817682Y-6726960D02*
X4827206Y-6679341D01*
X4827206Y-6679341D02*
X4827206Y-6641246D01*
X4827206Y-6641246D02*
X4817682Y-6593627D01*
X4817682Y-6593627D02*
X4808158Y-6565055D01*
X4808158Y-6565055D02*
X4798634Y-6546008D01*
X4798634Y-6546008D02*
X4779587Y-6517436D01*
X4779587Y-6517436D02*
X4770063Y-6507912D01*
D10*
X-5000Y-6909000D02*
G75*
G02*
X-35000Y-6909000I-15000J0D01*
G01*
X-35000Y-6909000D02*
G75*
G02*
X-5000Y-6909000I15000J0D01*
G01*
D11*
X293872Y-6800484D02*
X312920Y-6800484D01*
X312920Y-6800484D02*
X331967Y-6810008D01*
X331967Y-6810008D02*
X341491Y-6819531D01*
X341491Y-6819531D02*
X351015Y-6838579D01*
X351015Y-6838579D02*
X360539Y-6876674D01*
X360539Y-6876674D02*
X360539Y-6924293D01*
X360539Y-6924293D02*
X351015Y-6962388D01*
X351015Y-6962388D02*
X341491Y-6981436D01*
X341491Y-6981436D02*
X331967Y-6990960D01*
X331967Y-6990960D02*
X312920Y-7000484D01*
X312920Y-7000484D02*
X293872Y-7000484D01*
X293872Y-7000484D02*
X274824Y-6990960D01*
X274824Y-6990960D02*
X265301Y-6981436D01*
X265301Y-6981436D02*
X255777Y-6962388D01*
X255777Y-6962388D02*
X246253Y-6924293D01*
X246253Y-6924293D02*
X246253Y-6876674D01*
X246253Y-6876674D02*
X255777Y-6838579D01*
X255777Y-6838579D02*
X265301Y-6819531D01*
X265301Y-6819531D02*
X274824Y-6810008D01*
X274824Y-6810008D02*
X293872Y-6800484D01*
X446253Y-6981436D02*
X455777Y-6990960D01*
X455777Y-6990960D02*
X446253Y-7000484D01*
X446253Y-7000484D02*
X436729Y-6990960D01*
X436729Y-6990960D02*
X446253Y-6981436D01*
X446253Y-6981436D02*
X446253Y-7000484D01*
X522443Y-6800484D02*
X646253Y-6800484D01*
X646253Y-6800484D02*
X579586Y-6876674D01*
X579586Y-6876674D02*
X608158Y-6876674D01*
X608158Y-6876674D02*
X627205Y-6886198D01*
X627205Y-6886198D02*
X636729Y-6895722D01*
X636729Y-6895722D02*
X646253Y-6914769D01*
X646253Y-6914769D02*
X646253Y-6962388D01*
X646253Y-6962388D02*
X636729Y-6981436D01*
X636729Y-6981436D02*
X627205Y-6990960D01*
X627205Y-6990960D02*
X608158Y-7000484D01*
X608158Y-7000484D02*
X551015Y-7000484D01*
X551015Y-7000484D02*
X531967Y-6990960D01*
X531967Y-6990960D02*
X522443Y-6981436D01*
X770062Y-6800484D02*
X789110Y-6800484D01*
X789110Y-6800484D02*
X808158Y-6810008D01*
X808158Y-6810008D02*
X817682Y-6819531D01*
X817682Y-6819531D02*
X827205Y-6838579D01*
X827205Y-6838579D02*
X836729Y-6876674D01*
X836729Y-6876674D02*
X836729Y-6924293D01*
X836729Y-6924293D02*
X827205Y-6962388D01*
X827205Y-6962388D02*
X817682Y-6981436D01*
X817682Y-6981436D02*
X808158Y-6990960D01*
X808158Y-6990960D02*
X789110Y-7000484D01*
X789110Y-7000484D02*
X770062Y-7000484D01*
X770062Y-7000484D02*
X751015Y-6990960D01*
X751015Y-6990960D02*
X741491Y-6981436D01*
X741491Y-6981436D02*
X731967Y-6962388D01*
X731967Y-6962388D02*
X722443Y-6924293D01*
X722443Y-6924293D02*
X722443Y-6876674D01*
X722443Y-6876674D02*
X731967Y-6838579D01*
X731967Y-6838579D02*
X741491Y-6819531D01*
X741491Y-6819531D02*
X751015Y-6810008D01*
X751015Y-6810008D02*
X770062Y-6800484D01*
X960539Y-6800484D02*
X979586Y-6800484D01*
X979586Y-6800484D02*
X998634Y-6810008D01*
X998634Y-6810008D02*
X1008158Y-6819531D01*
X1008158Y-6819531D02*
X1017682Y-6838579D01*
X1017682Y-6838579D02*
X1027205Y-6876674D01*
X1027205Y-6876674D02*
X1027205Y-6924293D01*
X1027205Y-6924293D02*
X1017682Y-6962388D01*
X1017682Y-6962388D02*
X1008158Y-6981436D01*
X1008158Y-6981436D02*
X998634Y-6990960D01*
X998634Y-6990960D02*
X979586Y-7000484D01*
X979586Y-7000484D02*
X960539Y-7000484D01*
X960539Y-7000484D02*
X941491Y-6990960D01*
X941491Y-6990960D02*
X931967Y-6981436D01*
X931967Y-6981436D02*
X922443Y-6962388D01*
X922443Y-6962388D02*
X912920Y-6924293D01*
X912920Y-6924293D02*
X912920Y-6876674D01*
X912920Y-6876674D02*
X922443Y-6838579D01*
X922443Y-6838579D02*
X931967Y-6819531D01*
X931967Y-6819531D02*
X941491Y-6810008D01*
X941491Y-6810008D02*
X960539Y-6800484D01*
X1112920Y-7000484D02*
X1112920Y-6867150D01*
X1112920Y-6886198D02*
X1122444Y-6876674D01*
X1122444Y-6876674D02*
X1141491Y-6867150D01*
X1141491Y-6867150D02*
X1170063Y-6867150D01*
X1170063Y-6867150D02*
X1189110Y-6876674D01*
X1189110Y-6876674D02*
X1198634Y-6895722D01*
X1198634Y-6895722D02*
X1198634Y-7000484D01*
X1198634Y-6895722D02*
X1208158Y-6876674D01*
X1208158Y-6876674D02*
X1227205Y-6867150D01*
X1227205Y-6867150D02*
X1255777Y-6867150D01*
X1255777Y-6867150D02*
X1274825Y-6876674D01*
X1274825Y-6876674D02*
X1284348Y-6895722D01*
X1284348Y-6895722D02*
X1284348Y-7000484D01*
X1379586Y-7000484D02*
X1379586Y-6867150D01*
X1379586Y-6886198D02*
X1389110Y-6876674D01*
X1389110Y-6876674D02*
X1408158Y-6867150D01*
X1408158Y-6867150D02*
X1436729Y-6867150D01*
X1436729Y-6867150D02*
X1455777Y-6876674D01*
X1455777Y-6876674D02*
X1465301Y-6895722D01*
X1465301Y-6895722D02*
X1465301Y-7000484D01*
X1465301Y-6895722D02*
X1474824Y-6876674D01*
X1474824Y-6876674D02*
X1493872Y-6867150D01*
X1493872Y-6867150D02*
X1522443Y-6867150D01*
X1522443Y-6867150D02*
X1541491Y-6876674D01*
X1541491Y-6876674D02*
X1551015Y-6895722D01*
X1551015Y-6895722D02*
X1551015Y-7000484D01*
X1941491Y-6790960D02*
X1770063Y-7048103D01*
X2198634Y-6800484D02*
X2217682Y-6800484D01*
X2217682Y-6800484D02*
X2236729Y-6810008D01*
X2236729Y-6810008D02*
X2246253Y-6819531D01*
X2246253Y-6819531D02*
X2255777Y-6838579D01*
X2255777Y-6838579D02*
X2265301Y-6876674D01*
X2265301Y-6876674D02*
X2265301Y-6924293D01*
X2265301Y-6924293D02*
X2255777Y-6962388D01*
X2255777Y-6962388D02*
X2246253Y-6981436D01*
X2246253Y-6981436D02*
X2236729Y-6990960D01*
X2236729Y-6990960D02*
X2217682Y-7000484D01*
X2217682Y-7000484D02*
X2198634Y-7000484D01*
X2198634Y-7000484D02*
X2179587Y-6990960D01*
X2179587Y-6990960D02*
X2170063Y-6981436D01*
X2170063Y-6981436D02*
X2160539Y-6962388D01*
X2160539Y-6962388D02*
X2151015Y-6924293D01*
X2151015Y-6924293D02*
X2151015Y-6876674D01*
X2151015Y-6876674D02*
X2160539Y-6838579D01*
X2160539Y-6838579D02*
X2170063Y-6819531D01*
X2170063Y-6819531D02*
X2179587Y-6810008D01*
X2179587Y-6810008D02*
X2198634Y-6800484D01*
X2351015Y-6981436D02*
X2360539Y-6990960D01*
X2360539Y-6990960D02*
X2351015Y-7000484D01*
X2351015Y-7000484D02*
X2341491Y-6990960D01*
X2341491Y-6990960D02*
X2351015Y-6981436D01*
X2351015Y-6981436D02*
X2351015Y-7000484D01*
X2484348Y-6800484D02*
X2503396Y-6800484D01*
X2503396Y-6800484D02*
X2522444Y-6810008D01*
X2522444Y-6810008D02*
X2531968Y-6819531D01*
X2531968Y-6819531D02*
X2541491Y-6838579D01*
X2541491Y-6838579D02*
X2551015Y-6876674D01*
X2551015Y-6876674D02*
X2551015Y-6924293D01*
X2551015Y-6924293D02*
X2541491Y-6962388D01*
X2541491Y-6962388D02*
X2531968Y-6981436D01*
X2531968Y-6981436D02*
X2522444Y-6990960D01*
X2522444Y-6990960D02*
X2503396Y-7000484D01*
X2503396Y-7000484D02*
X2484348Y-7000484D01*
X2484348Y-7000484D02*
X2465301Y-6990960D01*
X2465301Y-6990960D02*
X2455777Y-6981436D01*
X2455777Y-6981436D02*
X2446253Y-6962388D01*
X2446253Y-6962388D02*
X2436729Y-6924293D01*
X2436729Y-6924293D02*
X2436729Y-6876674D01*
X2436729Y-6876674D02*
X2446253Y-6838579D01*
X2446253Y-6838579D02*
X2455777Y-6819531D01*
X2455777Y-6819531D02*
X2465301Y-6810008D01*
X2465301Y-6810008D02*
X2484348Y-6800484D01*
X2741491Y-7000484D02*
X2627206Y-7000484D01*
X2684348Y-7000484D02*
X2684348Y-6800484D01*
X2684348Y-6800484D02*
X2665301Y-6829055D01*
X2665301Y-6829055D02*
X2646253Y-6848103D01*
X2646253Y-6848103D02*
X2627206Y-6857627D01*
X2931967Y-7000484D02*
X2817682Y-7000484D01*
X2874825Y-7000484D02*
X2874825Y-6800484D01*
X2874825Y-6800484D02*
X2855777Y-6829055D01*
X2855777Y-6829055D02*
X2836729Y-6848103D01*
X2836729Y-6848103D02*
X2817682Y-6857627D01*
X3046253Y-6886198D02*
X3027206Y-6876674D01*
X3027206Y-6876674D02*
X3017682Y-6867150D01*
X3017682Y-6867150D02*
X3008158Y-6848103D01*
X3008158Y-6848103D02*
X3008158Y-6838579D01*
X3008158Y-6838579D02*
X3017682Y-6819531D01*
X3017682Y-6819531D02*
X3027206Y-6810008D01*
X3027206Y-6810008D02*
X3046253Y-6800484D01*
X3046253Y-6800484D02*
X3084348Y-6800484D01*
X3084348Y-6800484D02*
X3103396Y-6810008D01*
X3103396Y-6810008D02*
X3112920Y-6819531D01*
X3112920Y-6819531D02*
X3122444Y-6838579D01*
X3122444Y-6838579D02*
X3122444Y-6848103D01*
X3122444Y-6848103D02*
X3112920Y-6867150D01*
X3112920Y-6867150D02*
X3103396Y-6876674D01*
X3103396Y-6876674D02*
X3084348Y-6886198D01*
X3084348Y-6886198D02*
X3046253Y-6886198D01*
X3046253Y-6886198D02*
X3027206Y-6895722D01*
X3027206Y-6895722D02*
X3017682Y-6905246D01*
X3017682Y-6905246D02*
X3008158Y-6924293D01*
X3008158Y-6924293D02*
X3008158Y-6962388D01*
X3008158Y-6962388D02*
X3017682Y-6981436D01*
X3017682Y-6981436D02*
X3027206Y-6990960D01*
X3027206Y-6990960D02*
X3046253Y-7000484D01*
X3046253Y-7000484D02*
X3084348Y-7000484D01*
X3084348Y-7000484D02*
X3103396Y-6990960D01*
X3103396Y-6990960D02*
X3112920Y-6981436D01*
X3112920Y-6981436D02*
X3122444Y-6962388D01*
X3122444Y-6962388D02*
X3122444Y-6924293D01*
X3122444Y-6924293D02*
X3112920Y-6905246D01*
X3112920Y-6905246D02*
X3103396Y-6895722D01*
X3103396Y-6895722D02*
X3084348Y-6886198D01*
X3198634Y-6800484D02*
X3198634Y-6838579D01*
X3274825Y-6800484D02*
X3274825Y-6838579D01*
X3570063Y-7076674D02*
X3560539Y-7067150D01*
X3560539Y-7067150D02*
X3541491Y-7038579D01*
X3541491Y-7038579D02*
X3531968Y-7019531D01*
X3531968Y-7019531D02*
X3522444Y-6990960D01*
X3522444Y-6990960D02*
X3512920Y-6943341D01*
X3512920Y-6943341D02*
X3512920Y-6905246D01*
X3512920Y-6905246D02*
X3522444Y-6857627D01*
X3522444Y-6857627D02*
X3531968Y-6829055D01*
X3531968Y-6829055D02*
X3541491Y-6810008D01*
X3541491Y-6810008D02*
X3560539Y-6781436D01*
X3560539Y-6781436D02*
X3570063Y-6771912D01*
X3627206Y-6800484D02*
X3760539Y-6800484D01*
X3760539Y-6800484D02*
X3674825Y-7000484D01*
X3865301Y-6886198D02*
X3846253Y-6876674D01*
X3846253Y-6876674D02*
X3836729Y-6867150D01*
X3836729Y-6867150D02*
X3827206Y-6848103D01*
X3827206Y-6848103D02*
X3827206Y-6838579D01*
X3827206Y-6838579D02*
X3836729Y-6819531D01*
X3836729Y-6819531D02*
X3846253Y-6810008D01*
X3846253Y-6810008D02*
X3865301Y-6800484D01*
X3865301Y-6800484D02*
X3903396Y-6800484D01*
X3903396Y-6800484D02*
X3922444Y-6810008D01*
X3922444Y-6810008D02*
X3931968Y-6819531D01*
X3931968Y-6819531D02*
X3941491Y-6838579D01*
X3941491Y-6838579D02*
X3941491Y-6848103D01*
X3941491Y-6848103D02*
X3931968Y-6867150D01*
X3931968Y-6867150D02*
X3922444Y-6876674D01*
X3922444Y-6876674D02*
X3903396Y-6886198D01*
X3903396Y-6886198D02*
X3865301Y-6886198D01*
X3865301Y-6886198D02*
X3846253Y-6895722D01*
X3846253Y-6895722D02*
X3836729Y-6905246D01*
X3836729Y-6905246D02*
X3827206Y-6924293D01*
X3827206Y-6924293D02*
X3827206Y-6962388D01*
X3827206Y-6962388D02*
X3836729Y-6981436D01*
X3836729Y-6981436D02*
X3846253Y-6990960D01*
X3846253Y-6990960D02*
X3865301Y-7000484D01*
X3865301Y-7000484D02*
X3903396Y-7000484D01*
X3903396Y-7000484D02*
X3922444Y-6990960D01*
X3922444Y-6990960D02*
X3931968Y-6981436D01*
X3931968Y-6981436D02*
X3941491Y-6962388D01*
X3941491Y-6962388D02*
X3941491Y-6924293D01*
X3941491Y-6924293D02*
X3931968Y-6905246D01*
X3931968Y-6905246D02*
X3922444Y-6895722D01*
X3922444Y-6895722D02*
X3903396Y-6886198D01*
X4179587Y-7000484D02*
X4179587Y-6800484D01*
X4265301Y-7000484D02*
X4265301Y-6895722D01*
X4265301Y-6895722D02*
X4255777Y-6876674D01*
X4255777Y-6876674D02*
X4236730Y-6867150D01*
X4236730Y-6867150D02*
X4208158Y-6867150D01*
X4208158Y-6867150D02*
X4189110Y-6876674D01*
X4189110Y-6876674D02*
X4179587Y-6886198D01*
X4389111Y-7000484D02*
X4370063Y-6990960D01*
X4370063Y-6990960D02*
X4360539Y-6981436D01*
X4360539Y-6981436D02*
X4351015Y-6962388D01*
X4351015Y-6962388D02*
X4351015Y-6905246D01*
X4351015Y-6905246D02*
X4360539Y-6886198D01*
X4360539Y-6886198D02*
X4370063Y-6876674D01*
X4370063Y-6876674D02*
X4389111Y-6867150D01*
X4389111Y-6867150D02*
X4417682Y-6867150D01*
X4417682Y-6867150D02*
X4436730Y-6876674D01*
X4436730Y-6876674D02*
X4446253Y-6886198D01*
X4446253Y-6886198D02*
X4455777Y-6905246D01*
X4455777Y-6905246D02*
X4455777Y-6962388D01*
X4455777Y-6962388D02*
X4446253Y-6981436D01*
X4446253Y-6981436D02*
X4436730Y-6990960D01*
X4436730Y-6990960D02*
X4417682Y-7000484D01*
X4417682Y-7000484D02*
X4389111Y-7000484D01*
X4570063Y-7000484D02*
X4551015Y-6990960D01*
X4551015Y-6990960D02*
X4541492Y-6971912D01*
X4541492Y-6971912D02*
X4541492Y-6800484D01*
X4722444Y-6990960D02*
X4703396Y-7000484D01*
X4703396Y-7000484D02*
X4665301Y-7000484D01*
X4665301Y-7000484D02*
X4646253Y-6990960D01*
X4646253Y-6990960D02*
X4636730Y-6971912D01*
X4636730Y-6971912D02*
X4636730Y-6895722D01*
X4636730Y-6895722D02*
X4646253Y-6876674D01*
X4646253Y-6876674D02*
X4665301Y-6867150D01*
X4665301Y-6867150D02*
X4703396Y-6867150D01*
X4703396Y-6867150D02*
X4722444Y-6876674D01*
X4722444Y-6876674D02*
X4731968Y-6895722D01*
X4731968Y-6895722D02*
X4731968Y-6914769D01*
X4731968Y-6914769D02*
X4636730Y-6933817D01*
X4808158Y-6990960D02*
X4827206Y-7000484D01*
X4827206Y-7000484D02*
X4865301Y-7000484D01*
X4865301Y-7000484D02*
X4884349Y-6990960D01*
X4884349Y-6990960D02*
X4893873Y-6971912D01*
X4893873Y-6971912D02*
X4893873Y-6962388D01*
X4893873Y-6962388D02*
X4884349Y-6943341D01*
X4884349Y-6943341D02*
X4865301Y-6933817D01*
X4865301Y-6933817D02*
X4836730Y-6933817D01*
X4836730Y-6933817D02*
X4817682Y-6924293D01*
X4817682Y-6924293D02*
X4808158Y-6905246D01*
X4808158Y-6905246D02*
X4808158Y-6895722D01*
X4808158Y-6895722D02*
X4817682Y-6876674D01*
X4817682Y-6876674D02*
X4836730Y-6867150D01*
X4836730Y-6867150D02*
X4865301Y-6867150D01*
X4865301Y-6867150D02*
X4884349Y-6876674D01*
X4960539Y-7076674D02*
X4970063Y-7067150D01*
X4970063Y-7067150D02*
X4989111Y-7038579D01*
X4989111Y-7038579D02*
X4998634Y-7019531D01*
X4998634Y-7019531D02*
X5008158Y-6990960D01*
X5008158Y-6990960D02*
X5017682Y-6943341D01*
X5017682Y-6943341D02*
X5017682Y-6905246D01*
X5017682Y-6905246D02*
X5008158Y-6857627D01*
X5008158Y-6857627D02*
X4998634Y-6829055D01*
X4998634Y-6829055D02*
X4989111Y-6810008D01*
X4989111Y-6810008D02*
X4970063Y-6781436D01*
X4970063Y-6781436D02*
X4960539Y-6771912D01*
D10*
X-25000Y-7153000D02*
X-25000Y-7193000D01*
X-45000Y-7173000D02*
X-5000Y-7173000D01*
D11*
X293872Y-7064484D02*
X312920Y-7064484D01*
X312920Y-7064484D02*
X331967Y-7074008D01*
X331967Y-7074008D02*
X341491Y-7083531D01*
X341491Y-7083531D02*
X351015Y-7102579D01*
X351015Y-7102579D02*
X360539Y-7140674D01*
X360539Y-7140674D02*
X360539Y-7188293D01*
X360539Y-7188293D02*
X351015Y-7226388D01*
X351015Y-7226388D02*
X341491Y-7245436D01*
X341491Y-7245436D02*
X331967Y-7254960D01*
X331967Y-7254960D02*
X312920Y-7264484D01*
X312920Y-7264484D02*
X293872Y-7264484D01*
X293872Y-7264484D02*
X274824Y-7254960D01*
X274824Y-7254960D02*
X265301Y-7245436D01*
X265301Y-7245436D02*
X255777Y-7226388D01*
X255777Y-7226388D02*
X246253Y-7188293D01*
X246253Y-7188293D02*
X246253Y-7140674D01*
X246253Y-7140674D02*
X255777Y-7102579D01*
X255777Y-7102579D02*
X265301Y-7083531D01*
X265301Y-7083531D02*
X274824Y-7074008D01*
X274824Y-7074008D02*
X293872Y-7064484D01*
X446253Y-7245436D02*
X455777Y-7254960D01*
X455777Y-7254960D02*
X446253Y-7264484D01*
X446253Y-7264484D02*
X436729Y-7254960D01*
X436729Y-7254960D02*
X446253Y-7245436D01*
X446253Y-7245436D02*
X446253Y-7264484D01*
X627205Y-7131150D02*
X627205Y-7264484D01*
X579586Y-7054960D02*
X531967Y-7197817D01*
X531967Y-7197817D02*
X655777Y-7197817D01*
X770062Y-7064484D02*
X789110Y-7064484D01*
X789110Y-7064484D02*
X808158Y-7074008D01*
X808158Y-7074008D02*
X817682Y-7083531D01*
X817682Y-7083531D02*
X827205Y-7102579D01*
X827205Y-7102579D02*
X836729Y-7140674D01*
X836729Y-7140674D02*
X836729Y-7188293D01*
X836729Y-7188293D02*
X827205Y-7226388D01*
X827205Y-7226388D02*
X817682Y-7245436D01*
X817682Y-7245436D02*
X808158Y-7254960D01*
X808158Y-7254960D02*
X789110Y-7264484D01*
X789110Y-7264484D02*
X770062Y-7264484D01*
X770062Y-7264484D02*
X751015Y-7254960D01*
X751015Y-7254960D02*
X741491Y-7245436D01*
X741491Y-7245436D02*
X731967Y-7226388D01*
X731967Y-7226388D02*
X722443Y-7188293D01*
X722443Y-7188293D02*
X722443Y-7140674D01*
X722443Y-7140674D02*
X731967Y-7102579D01*
X731967Y-7102579D02*
X741491Y-7083531D01*
X741491Y-7083531D02*
X751015Y-7074008D01*
X751015Y-7074008D02*
X770062Y-7064484D01*
X960539Y-7064484D02*
X979586Y-7064484D01*
X979586Y-7064484D02*
X998634Y-7074008D01*
X998634Y-7074008D02*
X1008158Y-7083531D01*
X1008158Y-7083531D02*
X1017682Y-7102579D01*
X1017682Y-7102579D02*
X1027205Y-7140674D01*
X1027205Y-7140674D02*
X1027205Y-7188293D01*
X1027205Y-7188293D02*
X1017682Y-7226388D01*
X1017682Y-7226388D02*
X1008158Y-7245436D01*
X1008158Y-7245436D02*
X998634Y-7254960D01*
X998634Y-7254960D02*
X979586Y-7264484D01*
X979586Y-7264484D02*
X960539Y-7264484D01*
X960539Y-7264484D02*
X941491Y-7254960D01*
X941491Y-7254960D02*
X931967Y-7245436D01*
X931967Y-7245436D02*
X922443Y-7226388D01*
X922443Y-7226388D02*
X912920Y-7188293D01*
X912920Y-7188293D02*
X912920Y-7140674D01*
X912920Y-7140674D02*
X922443Y-7102579D01*
X922443Y-7102579D02*
X931967Y-7083531D01*
X931967Y-7083531D02*
X941491Y-7074008D01*
X941491Y-7074008D02*
X960539Y-7064484D01*
X1112920Y-7264484D02*
X1112920Y-7131150D01*
X1112920Y-7150198D02*
X1122444Y-7140674D01*
X1122444Y-7140674D02*
X1141491Y-7131150D01*
X1141491Y-7131150D02*
X1170063Y-7131150D01*
X1170063Y-7131150D02*
X1189110Y-7140674D01*
X1189110Y-7140674D02*
X1198634Y-7159722D01*
X1198634Y-7159722D02*
X1198634Y-7264484D01*
X1198634Y-7159722D02*
X1208158Y-7140674D01*
X1208158Y-7140674D02*
X1227205Y-7131150D01*
X1227205Y-7131150D02*
X1255777Y-7131150D01*
X1255777Y-7131150D02*
X1274825Y-7140674D01*
X1274825Y-7140674D02*
X1284348Y-7159722D01*
X1284348Y-7159722D02*
X1284348Y-7264484D01*
X1379586Y-7264484D02*
X1379586Y-7131150D01*
X1379586Y-7150198D02*
X1389110Y-7140674D01*
X1389110Y-7140674D02*
X1408158Y-7131150D01*
X1408158Y-7131150D02*
X1436729Y-7131150D01*
X1436729Y-7131150D02*
X1455777Y-7140674D01*
X1455777Y-7140674D02*
X1465301Y-7159722D01*
X1465301Y-7159722D02*
X1465301Y-7264484D01*
X1465301Y-7159722D02*
X1474824Y-7140674D01*
X1474824Y-7140674D02*
X1493872Y-7131150D01*
X1493872Y-7131150D02*
X1522443Y-7131150D01*
X1522443Y-7131150D02*
X1541491Y-7140674D01*
X1541491Y-7140674D02*
X1551015Y-7159722D01*
X1551015Y-7159722D02*
X1551015Y-7264484D01*
X1941491Y-7054960D02*
X1770063Y-7312103D01*
X2198634Y-7064484D02*
X2217682Y-7064484D01*
X2217682Y-7064484D02*
X2236729Y-7074008D01*
X2236729Y-7074008D02*
X2246253Y-7083531D01*
X2246253Y-7083531D02*
X2255777Y-7102579D01*
X2255777Y-7102579D02*
X2265301Y-7140674D01*
X2265301Y-7140674D02*
X2265301Y-7188293D01*
X2265301Y-7188293D02*
X2255777Y-7226388D01*
X2255777Y-7226388D02*
X2246253Y-7245436D01*
X2246253Y-7245436D02*
X2236729Y-7254960D01*
X2236729Y-7254960D02*
X2217682Y-7264484D01*
X2217682Y-7264484D02*
X2198634Y-7264484D01*
X2198634Y-7264484D02*
X2179587Y-7254960D01*
X2179587Y-7254960D02*
X2170063Y-7245436D01*
X2170063Y-7245436D02*
X2160539Y-7226388D01*
X2160539Y-7226388D02*
X2151015Y-7188293D01*
X2151015Y-7188293D02*
X2151015Y-7140674D01*
X2151015Y-7140674D02*
X2160539Y-7102579D01*
X2160539Y-7102579D02*
X2170063Y-7083531D01*
X2170063Y-7083531D02*
X2179587Y-7074008D01*
X2179587Y-7074008D02*
X2198634Y-7064484D01*
X2351015Y-7245436D02*
X2360539Y-7254960D01*
X2360539Y-7254960D02*
X2351015Y-7264484D01*
X2351015Y-7264484D02*
X2341491Y-7254960D01*
X2341491Y-7254960D02*
X2351015Y-7245436D01*
X2351015Y-7245436D02*
X2351015Y-7264484D01*
X2484348Y-7064484D02*
X2503396Y-7064484D01*
X2503396Y-7064484D02*
X2522444Y-7074008D01*
X2522444Y-7074008D02*
X2531968Y-7083531D01*
X2531968Y-7083531D02*
X2541491Y-7102579D01*
X2541491Y-7102579D02*
X2551015Y-7140674D01*
X2551015Y-7140674D02*
X2551015Y-7188293D01*
X2551015Y-7188293D02*
X2541491Y-7226388D01*
X2541491Y-7226388D02*
X2531968Y-7245436D01*
X2531968Y-7245436D02*
X2522444Y-7254960D01*
X2522444Y-7254960D02*
X2503396Y-7264484D01*
X2503396Y-7264484D02*
X2484348Y-7264484D01*
X2484348Y-7264484D02*
X2465301Y-7254960D01*
X2465301Y-7254960D02*
X2455777Y-7245436D01*
X2455777Y-7245436D02*
X2446253Y-7226388D01*
X2446253Y-7226388D02*
X2436729Y-7188293D01*
X2436729Y-7188293D02*
X2436729Y-7140674D01*
X2436729Y-7140674D02*
X2446253Y-7102579D01*
X2446253Y-7102579D02*
X2455777Y-7083531D01*
X2455777Y-7083531D02*
X2465301Y-7074008D01*
X2465301Y-7074008D02*
X2484348Y-7064484D01*
X2741491Y-7264484D02*
X2627206Y-7264484D01*
X2684348Y-7264484D02*
X2684348Y-7064484D01*
X2684348Y-7064484D02*
X2665301Y-7093055D01*
X2665301Y-7093055D02*
X2646253Y-7112103D01*
X2646253Y-7112103D02*
X2627206Y-7121627D01*
X2922444Y-7064484D02*
X2827206Y-7064484D01*
X2827206Y-7064484D02*
X2817682Y-7159722D01*
X2817682Y-7159722D02*
X2827206Y-7150198D01*
X2827206Y-7150198D02*
X2846253Y-7140674D01*
X2846253Y-7140674D02*
X2893872Y-7140674D01*
X2893872Y-7140674D02*
X2912920Y-7150198D01*
X2912920Y-7150198D02*
X2922444Y-7159722D01*
X2922444Y-7159722D02*
X2931967Y-7178769D01*
X2931967Y-7178769D02*
X2931967Y-7226388D01*
X2931967Y-7226388D02*
X2922444Y-7245436D01*
X2922444Y-7245436D02*
X2912920Y-7254960D01*
X2912920Y-7254960D02*
X2893872Y-7264484D01*
X2893872Y-7264484D02*
X2846253Y-7264484D01*
X2846253Y-7264484D02*
X2827206Y-7254960D01*
X2827206Y-7254960D02*
X2817682Y-7245436D01*
X2998634Y-7064484D02*
X3131967Y-7064484D01*
X3131967Y-7064484D02*
X3046253Y-7264484D01*
X3198634Y-7064484D02*
X3198634Y-7102579D01*
X3274825Y-7064484D02*
X3274825Y-7102579D01*
X3570063Y-7340674D02*
X3560539Y-7331150D01*
X3560539Y-7331150D02*
X3541491Y-7302579D01*
X3541491Y-7302579D02*
X3531968Y-7283531D01*
X3531968Y-7283531D02*
X3522444Y-7254960D01*
X3522444Y-7254960D02*
X3512920Y-7207341D01*
X3512920Y-7207341D02*
X3512920Y-7169246D01*
X3512920Y-7169246D02*
X3522444Y-7121627D01*
X3522444Y-7121627D02*
X3531968Y-7093055D01*
X3531968Y-7093055D02*
X3541491Y-7074008D01*
X3541491Y-7074008D02*
X3560539Y-7045436D01*
X3560539Y-7045436D02*
X3570063Y-7035912D01*
X3636729Y-7083531D02*
X3646253Y-7074008D01*
X3646253Y-7074008D02*
X3665301Y-7064484D01*
X3665301Y-7064484D02*
X3712920Y-7064484D01*
X3712920Y-7064484D02*
X3731968Y-7074008D01*
X3731968Y-7074008D02*
X3741491Y-7083531D01*
X3741491Y-7083531D02*
X3751015Y-7102579D01*
X3751015Y-7102579D02*
X3751015Y-7121627D01*
X3751015Y-7121627D02*
X3741491Y-7150198D01*
X3741491Y-7150198D02*
X3627206Y-7264484D01*
X3627206Y-7264484D02*
X3751015Y-7264484D01*
X3846253Y-7264484D02*
X3884348Y-7264484D01*
X3884348Y-7264484D02*
X3903396Y-7254960D01*
X3903396Y-7254960D02*
X3912920Y-7245436D01*
X3912920Y-7245436D02*
X3931968Y-7216865D01*
X3931968Y-7216865D02*
X3941491Y-7178769D01*
X3941491Y-7178769D02*
X3941491Y-7102579D01*
X3941491Y-7102579D02*
X3931968Y-7083531D01*
X3931968Y-7083531D02*
X3922444Y-7074008D01*
X3922444Y-7074008D02*
X3903396Y-7064484D01*
X3903396Y-7064484D02*
X3865301Y-7064484D01*
X3865301Y-7064484D02*
X3846253Y-7074008D01*
X3846253Y-7074008D02*
X3836729Y-7083531D01*
X3836729Y-7083531D02*
X3827206Y-7102579D01*
X3827206Y-7102579D02*
X3827206Y-7150198D01*
X3827206Y-7150198D02*
X3836729Y-7169246D01*
X3836729Y-7169246D02*
X3846253Y-7178769D01*
X3846253Y-7178769D02*
X3865301Y-7188293D01*
X3865301Y-7188293D02*
X3903396Y-7188293D01*
X3903396Y-7188293D02*
X3922444Y-7178769D01*
X3922444Y-7178769D02*
X3931968Y-7169246D01*
X3931968Y-7169246D02*
X3941491Y-7150198D01*
X4179587Y-7264484D02*
X4179587Y-7064484D01*
X4265301Y-7264484D02*
X4265301Y-7159722D01*
X4265301Y-7159722D02*
X4255777Y-7140674D01*
X4255777Y-7140674D02*
X4236730Y-7131150D01*
X4236730Y-7131150D02*
X4208158Y-7131150D01*
X4208158Y-7131150D02*
X4189110Y-7140674D01*
X4189110Y-7140674D02*
X4179587Y-7150198D01*
X4389111Y-7264484D02*
X4370063Y-7254960D01*
X4370063Y-7254960D02*
X4360539Y-7245436D01*
X4360539Y-7245436D02*
X4351015Y-7226388D01*
X4351015Y-7226388D02*
X4351015Y-7169246D01*
X4351015Y-7169246D02*
X4360539Y-7150198D01*
X4360539Y-7150198D02*
X4370063Y-7140674D01*
X4370063Y-7140674D02*
X4389111Y-7131150D01*
X4389111Y-7131150D02*
X4417682Y-7131150D01*
X4417682Y-7131150D02*
X4436730Y-7140674D01*
X4436730Y-7140674D02*
X4446253Y-7150198D01*
X4446253Y-7150198D02*
X4455777Y-7169246D01*
X4455777Y-7169246D02*
X4455777Y-7226388D01*
X4455777Y-7226388D02*
X4446253Y-7245436D01*
X4446253Y-7245436D02*
X4436730Y-7254960D01*
X4436730Y-7254960D02*
X4417682Y-7264484D01*
X4417682Y-7264484D02*
X4389111Y-7264484D01*
X4570063Y-7264484D02*
X4551015Y-7254960D01*
X4551015Y-7254960D02*
X4541492Y-7235912D01*
X4541492Y-7235912D02*
X4541492Y-7064484D01*
X4722444Y-7254960D02*
X4703396Y-7264484D01*
X4703396Y-7264484D02*
X4665301Y-7264484D01*
X4665301Y-7264484D02*
X4646253Y-7254960D01*
X4646253Y-7254960D02*
X4636730Y-7235912D01*
X4636730Y-7235912D02*
X4636730Y-7159722D01*
X4636730Y-7159722D02*
X4646253Y-7140674D01*
X4646253Y-7140674D02*
X4665301Y-7131150D01*
X4665301Y-7131150D02*
X4703396Y-7131150D01*
X4703396Y-7131150D02*
X4722444Y-7140674D01*
X4722444Y-7140674D02*
X4731968Y-7159722D01*
X4731968Y-7159722D02*
X4731968Y-7178769D01*
X4731968Y-7178769D02*
X4636730Y-7197817D01*
X4808158Y-7254960D02*
X4827206Y-7264484D01*
X4827206Y-7264484D02*
X4865301Y-7264484D01*
X4865301Y-7264484D02*
X4884349Y-7254960D01*
X4884349Y-7254960D02*
X4893873Y-7235912D01*
X4893873Y-7235912D02*
X4893873Y-7226388D01*
X4893873Y-7226388D02*
X4884349Y-7207341D01*
X4884349Y-7207341D02*
X4865301Y-7197817D01*
X4865301Y-7197817D02*
X4836730Y-7197817D01*
X4836730Y-7197817D02*
X4817682Y-7188293D01*
X4817682Y-7188293D02*
X4808158Y-7169246D01*
X4808158Y-7169246D02*
X4808158Y-7159722D01*
X4808158Y-7159722D02*
X4817682Y-7140674D01*
X4817682Y-7140674D02*
X4836730Y-7131150D01*
X4836730Y-7131150D02*
X4865301Y-7131150D01*
X4865301Y-7131150D02*
X4884349Y-7140674D01*
X4960539Y-7340674D02*
X4970063Y-7331150D01*
X4970063Y-7331150D02*
X4989111Y-7302579D01*
X4989111Y-7302579D02*
X4998634Y-7283531D01*
X4998634Y-7283531D02*
X5008158Y-7254960D01*
X5008158Y-7254960D02*
X5017682Y-7207341D01*
X5017682Y-7207341D02*
X5017682Y-7169246D01*
X5017682Y-7169246D02*
X5008158Y-7121627D01*
X5008158Y-7121627D02*
X4998634Y-7093055D01*
X4998634Y-7093055D02*
X4989111Y-7074008D01*
X4989111Y-7074008D02*
X4970063Y-7045436D01*
X4970063Y-7045436D02*
X4960539Y-7035912D01*
D10*
X-10858Y-7451142D02*
X-10858Y-7422858D01*
X-39142Y-7422858D01*
X-39142Y-7451142D01*
X-10858Y-7451142D01*
D11*
X293872Y-7328484D02*
X312920Y-7328484D01*
X312920Y-7328484D02*
X331967Y-7338008D01*
X331967Y-7338008D02*
X341491Y-7347531D01*
X341491Y-7347531D02*
X351015Y-7366579D01*
X351015Y-7366579D02*
X360539Y-7404674D01*
X360539Y-7404674D02*
X360539Y-7452293D01*
X360539Y-7452293D02*
X351015Y-7490388D01*
X351015Y-7490388D02*
X341491Y-7509436D01*
X341491Y-7509436D02*
X331967Y-7518960D01*
X331967Y-7518960D02*
X312920Y-7528484D01*
X312920Y-7528484D02*
X293872Y-7528484D01*
X293872Y-7528484D02*
X274824Y-7518960D01*
X274824Y-7518960D02*
X265301Y-7509436D01*
X265301Y-7509436D02*
X255777Y-7490388D01*
X255777Y-7490388D02*
X246253Y-7452293D01*
X246253Y-7452293D02*
X246253Y-7404674D01*
X246253Y-7404674D02*
X255777Y-7366579D01*
X255777Y-7366579D02*
X265301Y-7347531D01*
X265301Y-7347531D02*
X274824Y-7338008D01*
X274824Y-7338008D02*
X293872Y-7328484D01*
X446253Y-7509436D02*
X455777Y-7518960D01*
X455777Y-7518960D02*
X446253Y-7528484D01*
X446253Y-7528484D02*
X436729Y-7518960D01*
X436729Y-7518960D02*
X446253Y-7509436D01*
X446253Y-7509436D02*
X446253Y-7528484D01*
X627205Y-7395150D02*
X627205Y-7528484D01*
X579586Y-7318960D02*
X531967Y-7461817D01*
X531967Y-7461817D02*
X655777Y-7461817D01*
X770062Y-7328484D02*
X789110Y-7328484D01*
X789110Y-7328484D02*
X808158Y-7338008D01*
X808158Y-7338008D02*
X817682Y-7347531D01*
X817682Y-7347531D02*
X827205Y-7366579D01*
X827205Y-7366579D02*
X836729Y-7404674D01*
X836729Y-7404674D02*
X836729Y-7452293D01*
X836729Y-7452293D02*
X827205Y-7490388D01*
X827205Y-7490388D02*
X817682Y-7509436D01*
X817682Y-7509436D02*
X808158Y-7518960D01*
X808158Y-7518960D02*
X789110Y-7528484D01*
X789110Y-7528484D02*
X770062Y-7528484D01*
X770062Y-7528484D02*
X751015Y-7518960D01*
X751015Y-7518960D02*
X741491Y-7509436D01*
X741491Y-7509436D02*
X731967Y-7490388D01*
X731967Y-7490388D02*
X722443Y-7452293D01*
X722443Y-7452293D02*
X722443Y-7404674D01*
X722443Y-7404674D02*
X731967Y-7366579D01*
X731967Y-7366579D02*
X741491Y-7347531D01*
X741491Y-7347531D02*
X751015Y-7338008D01*
X751015Y-7338008D02*
X770062Y-7328484D01*
X960539Y-7328484D02*
X979586Y-7328484D01*
X979586Y-7328484D02*
X998634Y-7338008D01*
X998634Y-7338008D02*
X1008158Y-7347531D01*
X1008158Y-7347531D02*
X1017682Y-7366579D01*
X1017682Y-7366579D02*
X1027205Y-7404674D01*
X1027205Y-7404674D02*
X1027205Y-7452293D01*
X1027205Y-7452293D02*
X1017682Y-7490388D01*
X1017682Y-7490388D02*
X1008158Y-7509436D01*
X1008158Y-7509436D02*
X998634Y-7518960D01*
X998634Y-7518960D02*
X979586Y-7528484D01*
X979586Y-7528484D02*
X960539Y-7528484D01*
X960539Y-7528484D02*
X941491Y-7518960D01*
X941491Y-7518960D02*
X931967Y-7509436D01*
X931967Y-7509436D02*
X922443Y-7490388D01*
X922443Y-7490388D02*
X912920Y-7452293D01*
X912920Y-7452293D02*
X912920Y-7404674D01*
X912920Y-7404674D02*
X922443Y-7366579D01*
X922443Y-7366579D02*
X931967Y-7347531D01*
X931967Y-7347531D02*
X941491Y-7338008D01*
X941491Y-7338008D02*
X960539Y-7328484D01*
X1112920Y-7528484D02*
X1112920Y-7395150D01*
X1112920Y-7414198D02*
X1122444Y-7404674D01*
X1122444Y-7404674D02*
X1141491Y-7395150D01*
X1141491Y-7395150D02*
X1170063Y-7395150D01*
X1170063Y-7395150D02*
X1189110Y-7404674D01*
X1189110Y-7404674D02*
X1198634Y-7423722D01*
X1198634Y-7423722D02*
X1198634Y-7528484D01*
X1198634Y-7423722D02*
X1208158Y-7404674D01*
X1208158Y-7404674D02*
X1227205Y-7395150D01*
X1227205Y-7395150D02*
X1255777Y-7395150D01*
X1255777Y-7395150D02*
X1274825Y-7404674D01*
X1274825Y-7404674D02*
X1284348Y-7423722D01*
X1284348Y-7423722D02*
X1284348Y-7528484D01*
X1379586Y-7528484D02*
X1379586Y-7395150D01*
X1379586Y-7414198D02*
X1389110Y-7404674D01*
X1389110Y-7404674D02*
X1408158Y-7395150D01*
X1408158Y-7395150D02*
X1436729Y-7395150D01*
X1436729Y-7395150D02*
X1455777Y-7404674D01*
X1455777Y-7404674D02*
X1465301Y-7423722D01*
X1465301Y-7423722D02*
X1465301Y-7528484D01*
X1465301Y-7423722D02*
X1474824Y-7404674D01*
X1474824Y-7404674D02*
X1493872Y-7395150D01*
X1493872Y-7395150D02*
X1522443Y-7395150D01*
X1522443Y-7395150D02*
X1541491Y-7404674D01*
X1541491Y-7404674D02*
X1551015Y-7423722D01*
X1551015Y-7423722D02*
X1551015Y-7528484D01*
X1941491Y-7318960D02*
X1770063Y-7576103D01*
X2198634Y-7328484D02*
X2217682Y-7328484D01*
X2217682Y-7328484D02*
X2236729Y-7338008D01*
X2236729Y-7338008D02*
X2246253Y-7347531D01*
X2246253Y-7347531D02*
X2255777Y-7366579D01*
X2255777Y-7366579D02*
X2265301Y-7404674D01*
X2265301Y-7404674D02*
X2265301Y-7452293D01*
X2265301Y-7452293D02*
X2255777Y-7490388D01*
X2255777Y-7490388D02*
X2246253Y-7509436D01*
X2246253Y-7509436D02*
X2236729Y-7518960D01*
X2236729Y-7518960D02*
X2217682Y-7528484D01*
X2217682Y-7528484D02*
X2198634Y-7528484D01*
X2198634Y-7528484D02*
X2179587Y-7518960D01*
X2179587Y-7518960D02*
X2170063Y-7509436D01*
X2170063Y-7509436D02*
X2160539Y-7490388D01*
X2160539Y-7490388D02*
X2151015Y-7452293D01*
X2151015Y-7452293D02*
X2151015Y-7404674D01*
X2151015Y-7404674D02*
X2160539Y-7366579D01*
X2160539Y-7366579D02*
X2170063Y-7347531D01*
X2170063Y-7347531D02*
X2179587Y-7338008D01*
X2179587Y-7338008D02*
X2198634Y-7328484D01*
X2351015Y-7509436D02*
X2360539Y-7518960D01*
X2360539Y-7518960D02*
X2351015Y-7528484D01*
X2351015Y-7528484D02*
X2341491Y-7518960D01*
X2341491Y-7518960D02*
X2351015Y-7509436D01*
X2351015Y-7509436D02*
X2351015Y-7528484D01*
X2484348Y-7328484D02*
X2503396Y-7328484D01*
X2503396Y-7328484D02*
X2522444Y-7338008D01*
X2522444Y-7338008D02*
X2531968Y-7347531D01*
X2531968Y-7347531D02*
X2541491Y-7366579D01*
X2541491Y-7366579D02*
X2551015Y-7404674D01*
X2551015Y-7404674D02*
X2551015Y-7452293D01*
X2551015Y-7452293D02*
X2541491Y-7490388D01*
X2541491Y-7490388D02*
X2531968Y-7509436D01*
X2531968Y-7509436D02*
X2522444Y-7518960D01*
X2522444Y-7518960D02*
X2503396Y-7528484D01*
X2503396Y-7528484D02*
X2484348Y-7528484D01*
X2484348Y-7528484D02*
X2465301Y-7518960D01*
X2465301Y-7518960D02*
X2455777Y-7509436D01*
X2455777Y-7509436D02*
X2446253Y-7490388D01*
X2446253Y-7490388D02*
X2436729Y-7452293D01*
X2436729Y-7452293D02*
X2436729Y-7404674D01*
X2436729Y-7404674D02*
X2446253Y-7366579D01*
X2446253Y-7366579D02*
X2455777Y-7347531D01*
X2455777Y-7347531D02*
X2465301Y-7338008D01*
X2465301Y-7338008D02*
X2484348Y-7328484D01*
X2741491Y-7528484D02*
X2627206Y-7528484D01*
X2684348Y-7528484D02*
X2684348Y-7328484D01*
X2684348Y-7328484D02*
X2665301Y-7357055D01*
X2665301Y-7357055D02*
X2646253Y-7376103D01*
X2646253Y-7376103D02*
X2627206Y-7385627D01*
X2922444Y-7328484D02*
X2827206Y-7328484D01*
X2827206Y-7328484D02*
X2817682Y-7423722D01*
X2817682Y-7423722D02*
X2827206Y-7414198D01*
X2827206Y-7414198D02*
X2846253Y-7404674D01*
X2846253Y-7404674D02*
X2893872Y-7404674D01*
X2893872Y-7404674D02*
X2912920Y-7414198D01*
X2912920Y-7414198D02*
X2922444Y-7423722D01*
X2922444Y-7423722D02*
X2931967Y-7442769D01*
X2931967Y-7442769D02*
X2931967Y-7490388D01*
X2931967Y-7490388D02*
X2922444Y-7509436D01*
X2922444Y-7509436D02*
X2912920Y-7518960D01*
X2912920Y-7518960D02*
X2893872Y-7528484D01*
X2893872Y-7528484D02*
X2846253Y-7528484D01*
X2846253Y-7528484D02*
X2827206Y-7518960D01*
X2827206Y-7518960D02*
X2817682Y-7509436D01*
X2998634Y-7328484D02*
X3131967Y-7328484D01*
X3131967Y-7328484D02*
X3046253Y-7528484D01*
X3198634Y-7328484D02*
X3198634Y-7366579D01*
X3274825Y-7328484D02*
X3274825Y-7366579D01*
X3570063Y-7604674D02*
X3560539Y-7595150D01*
X3560539Y-7595150D02*
X3541491Y-7566579D01*
X3541491Y-7566579D02*
X3531968Y-7547531D01*
X3531968Y-7547531D02*
X3522444Y-7518960D01*
X3522444Y-7518960D02*
X3512920Y-7471341D01*
X3512920Y-7471341D02*
X3512920Y-7433246D01*
X3512920Y-7433246D02*
X3522444Y-7385627D01*
X3522444Y-7385627D02*
X3531968Y-7357055D01*
X3531968Y-7357055D02*
X3541491Y-7338008D01*
X3541491Y-7338008D02*
X3560539Y-7309436D01*
X3560539Y-7309436D02*
X3570063Y-7299912D01*
X3751015Y-7528484D02*
X3636729Y-7528484D01*
X3693872Y-7528484D02*
X3693872Y-7328484D01*
X3693872Y-7328484D02*
X3674825Y-7357055D01*
X3674825Y-7357055D02*
X3655777Y-7376103D01*
X3655777Y-7376103D02*
X3636729Y-7385627D01*
X3827206Y-7347531D02*
X3836729Y-7338008D01*
X3836729Y-7338008D02*
X3855777Y-7328484D01*
X3855777Y-7328484D02*
X3903396Y-7328484D01*
X3903396Y-7328484D02*
X3922444Y-7338008D01*
X3922444Y-7338008D02*
X3931968Y-7347531D01*
X3931968Y-7347531D02*
X3941491Y-7366579D01*
X3941491Y-7366579D02*
X3941491Y-7385627D01*
X3941491Y-7385627D02*
X3931968Y-7414198D01*
X3931968Y-7414198D02*
X3817682Y-7528484D01*
X3817682Y-7528484D02*
X3941491Y-7528484D01*
X4179587Y-7528484D02*
X4179587Y-7328484D01*
X4265301Y-7528484D02*
X4265301Y-7423722D01*
X4265301Y-7423722D02*
X4255777Y-7404674D01*
X4255777Y-7404674D02*
X4236730Y-7395150D01*
X4236730Y-7395150D02*
X4208158Y-7395150D01*
X4208158Y-7395150D02*
X4189110Y-7404674D01*
X4189110Y-7404674D02*
X4179587Y-7414198D01*
X4389111Y-7528484D02*
X4370063Y-7518960D01*
X4370063Y-7518960D02*
X4360539Y-7509436D01*
X4360539Y-7509436D02*
X4351015Y-7490388D01*
X4351015Y-7490388D02*
X4351015Y-7433246D01*
X4351015Y-7433246D02*
X4360539Y-7414198D01*
X4360539Y-7414198D02*
X4370063Y-7404674D01*
X4370063Y-7404674D02*
X4389111Y-7395150D01*
X4389111Y-7395150D02*
X4417682Y-7395150D01*
X4417682Y-7395150D02*
X4436730Y-7404674D01*
X4436730Y-7404674D02*
X4446253Y-7414198D01*
X4446253Y-7414198D02*
X4455777Y-7433246D01*
X4455777Y-7433246D02*
X4455777Y-7490388D01*
X4455777Y-7490388D02*
X4446253Y-7509436D01*
X4446253Y-7509436D02*
X4436730Y-7518960D01*
X4436730Y-7518960D02*
X4417682Y-7528484D01*
X4417682Y-7528484D02*
X4389111Y-7528484D01*
X4570063Y-7528484D02*
X4551015Y-7518960D01*
X4551015Y-7518960D02*
X4541492Y-7499912D01*
X4541492Y-7499912D02*
X4541492Y-7328484D01*
X4722444Y-7518960D02*
X4703396Y-7528484D01*
X4703396Y-7528484D02*
X4665301Y-7528484D01*
X4665301Y-7528484D02*
X4646253Y-7518960D01*
X4646253Y-7518960D02*
X4636730Y-7499912D01*
X4636730Y-7499912D02*
X4636730Y-7423722D01*
X4636730Y-7423722D02*
X4646253Y-7404674D01*
X4646253Y-7404674D02*
X4665301Y-7395150D01*
X4665301Y-7395150D02*
X4703396Y-7395150D01*
X4703396Y-7395150D02*
X4722444Y-7404674D01*
X4722444Y-7404674D02*
X4731968Y-7423722D01*
X4731968Y-7423722D02*
X4731968Y-7442769D01*
X4731968Y-7442769D02*
X4636730Y-7461817D01*
X4808158Y-7518960D02*
X4827206Y-7528484D01*
X4827206Y-7528484D02*
X4865301Y-7528484D01*
X4865301Y-7528484D02*
X4884349Y-7518960D01*
X4884349Y-7518960D02*
X4893873Y-7499912D01*
X4893873Y-7499912D02*
X4893873Y-7490388D01*
X4893873Y-7490388D02*
X4884349Y-7471341D01*
X4884349Y-7471341D02*
X4865301Y-7461817D01*
X4865301Y-7461817D02*
X4836730Y-7461817D01*
X4836730Y-7461817D02*
X4817682Y-7452293D01*
X4817682Y-7452293D02*
X4808158Y-7433246D01*
X4808158Y-7433246D02*
X4808158Y-7423722D01*
X4808158Y-7423722D02*
X4817682Y-7404674D01*
X4817682Y-7404674D02*
X4836730Y-7395150D01*
X4836730Y-7395150D02*
X4865301Y-7395150D01*
X4865301Y-7395150D02*
X4884349Y-7404674D01*
X4960539Y-7604674D02*
X4970063Y-7595150D01*
X4970063Y-7595150D02*
X4989111Y-7566579D01*
X4989111Y-7566579D02*
X4998634Y-7547531D01*
X4998634Y-7547531D02*
X5008158Y-7518960D01*
X5008158Y-7518960D02*
X5017682Y-7471341D01*
X5017682Y-7471341D02*
X5017682Y-7433246D01*
X5017682Y-7433246D02*
X5008158Y-7385627D01*
X5008158Y-7385627D02*
X4998634Y-7357055D01*
X4998634Y-7357055D02*
X4989111Y-7338008D01*
X4989111Y-7338008D02*
X4970063Y-7309436D01*
X4970063Y-7309436D02*
X4960539Y-7299912D01*
D10*
X-30000Y-7726000D02*
X-5000Y-7701000D01*
X-30000Y-7676000D01*
X-55000Y-7701000D01*
X-30000Y-7726000D01*
D11*
X293872Y-7592484D02*
X312920Y-7592484D01*
X312920Y-7592484D02*
X331967Y-7602008D01*
X331967Y-7602008D02*
X341491Y-7611531D01*
X341491Y-7611531D02*
X351015Y-7630579D01*
X351015Y-7630579D02*
X360539Y-7668674D01*
X360539Y-7668674D02*
X360539Y-7716293D01*
X360539Y-7716293D02*
X351015Y-7754388D01*
X351015Y-7754388D02*
X341491Y-7773436D01*
X341491Y-7773436D02*
X331967Y-7782960D01*
X331967Y-7782960D02*
X312920Y-7792484D01*
X312920Y-7792484D02*
X293872Y-7792484D01*
X293872Y-7792484D02*
X274824Y-7782960D01*
X274824Y-7782960D02*
X265301Y-7773436D01*
X265301Y-7773436D02*
X255777Y-7754388D01*
X255777Y-7754388D02*
X246253Y-7716293D01*
X246253Y-7716293D02*
X246253Y-7668674D01*
X246253Y-7668674D02*
X255777Y-7630579D01*
X255777Y-7630579D02*
X265301Y-7611531D01*
X265301Y-7611531D02*
X274824Y-7602008D01*
X274824Y-7602008D02*
X293872Y-7592484D01*
X446253Y-7773436D02*
X455777Y-7782960D01*
X455777Y-7782960D02*
X446253Y-7792484D01*
X446253Y-7792484D02*
X436729Y-7782960D01*
X436729Y-7782960D02*
X446253Y-7773436D01*
X446253Y-7773436D02*
X446253Y-7792484D01*
X636729Y-7592484D02*
X541491Y-7592484D01*
X541491Y-7592484D02*
X531967Y-7687722D01*
X531967Y-7687722D02*
X541491Y-7678198D01*
X541491Y-7678198D02*
X560539Y-7668674D01*
X560539Y-7668674D02*
X608158Y-7668674D01*
X608158Y-7668674D02*
X627205Y-7678198D01*
X627205Y-7678198D02*
X636729Y-7687722D01*
X636729Y-7687722D02*
X646253Y-7706769D01*
X646253Y-7706769D02*
X646253Y-7754388D01*
X646253Y-7754388D02*
X636729Y-7773436D01*
X636729Y-7773436D02*
X627205Y-7782960D01*
X627205Y-7782960D02*
X608158Y-7792484D01*
X608158Y-7792484D02*
X560539Y-7792484D01*
X560539Y-7792484D02*
X541491Y-7782960D01*
X541491Y-7782960D02*
X531967Y-7773436D01*
X770062Y-7592484D02*
X789110Y-7592484D01*
X789110Y-7592484D02*
X808158Y-7602008D01*
X808158Y-7602008D02*
X817682Y-7611531D01*
X817682Y-7611531D02*
X827205Y-7630579D01*
X827205Y-7630579D02*
X836729Y-7668674D01*
X836729Y-7668674D02*
X836729Y-7716293D01*
X836729Y-7716293D02*
X827205Y-7754388D01*
X827205Y-7754388D02*
X817682Y-7773436D01*
X817682Y-7773436D02*
X808158Y-7782960D01*
X808158Y-7782960D02*
X789110Y-7792484D01*
X789110Y-7792484D02*
X770062Y-7792484D01*
X770062Y-7792484D02*
X751015Y-7782960D01*
X751015Y-7782960D02*
X741491Y-7773436D01*
X741491Y-7773436D02*
X731967Y-7754388D01*
X731967Y-7754388D02*
X722443Y-7716293D01*
X722443Y-7716293D02*
X722443Y-7668674D01*
X722443Y-7668674D02*
X731967Y-7630579D01*
X731967Y-7630579D02*
X741491Y-7611531D01*
X741491Y-7611531D02*
X751015Y-7602008D01*
X751015Y-7602008D02*
X770062Y-7592484D01*
X960539Y-7592484D02*
X979586Y-7592484D01*
X979586Y-7592484D02*
X998634Y-7602008D01*
X998634Y-7602008D02*
X1008158Y-7611531D01*
X1008158Y-7611531D02*
X1017682Y-7630579D01*
X1017682Y-7630579D02*
X1027205Y-7668674D01*
X1027205Y-7668674D02*
X1027205Y-7716293D01*
X1027205Y-7716293D02*
X1017682Y-7754388D01*
X1017682Y-7754388D02*
X1008158Y-7773436D01*
X1008158Y-7773436D02*
X998634Y-7782960D01*
X998634Y-7782960D02*
X979586Y-7792484D01*
X979586Y-7792484D02*
X960539Y-7792484D01*
X960539Y-7792484D02*
X941491Y-7782960D01*
X941491Y-7782960D02*
X931967Y-7773436D01*
X931967Y-7773436D02*
X922443Y-7754388D01*
X922443Y-7754388D02*
X912920Y-7716293D01*
X912920Y-7716293D02*
X912920Y-7668674D01*
X912920Y-7668674D02*
X922443Y-7630579D01*
X922443Y-7630579D02*
X931967Y-7611531D01*
X931967Y-7611531D02*
X941491Y-7602008D01*
X941491Y-7602008D02*
X960539Y-7592484D01*
X1112920Y-7792484D02*
X1112920Y-7659150D01*
X1112920Y-7678198D02*
X1122444Y-7668674D01*
X1122444Y-7668674D02*
X1141491Y-7659150D01*
X1141491Y-7659150D02*
X1170063Y-7659150D01*
X1170063Y-7659150D02*
X1189110Y-7668674D01*
X1189110Y-7668674D02*
X1198634Y-7687722D01*
X1198634Y-7687722D02*
X1198634Y-7792484D01*
X1198634Y-7687722D02*
X1208158Y-7668674D01*
X1208158Y-7668674D02*
X1227205Y-7659150D01*
X1227205Y-7659150D02*
X1255777Y-7659150D01*
X1255777Y-7659150D02*
X1274825Y-7668674D01*
X1274825Y-7668674D02*
X1284348Y-7687722D01*
X1284348Y-7687722D02*
X1284348Y-7792484D01*
X1379586Y-7792484D02*
X1379586Y-7659150D01*
X1379586Y-7678198D02*
X1389110Y-7668674D01*
X1389110Y-7668674D02*
X1408158Y-7659150D01*
X1408158Y-7659150D02*
X1436729Y-7659150D01*
X1436729Y-7659150D02*
X1455777Y-7668674D01*
X1455777Y-7668674D02*
X1465301Y-7687722D01*
X1465301Y-7687722D02*
X1465301Y-7792484D01*
X1465301Y-7687722D02*
X1474824Y-7668674D01*
X1474824Y-7668674D02*
X1493872Y-7659150D01*
X1493872Y-7659150D02*
X1522443Y-7659150D01*
X1522443Y-7659150D02*
X1541491Y-7668674D01*
X1541491Y-7668674D02*
X1551015Y-7687722D01*
X1551015Y-7687722D02*
X1551015Y-7792484D01*
X1941491Y-7582960D02*
X1770063Y-7840103D01*
X2198634Y-7592484D02*
X2217682Y-7592484D01*
X2217682Y-7592484D02*
X2236729Y-7602008D01*
X2236729Y-7602008D02*
X2246253Y-7611531D01*
X2246253Y-7611531D02*
X2255777Y-7630579D01*
X2255777Y-7630579D02*
X2265301Y-7668674D01*
X2265301Y-7668674D02*
X2265301Y-7716293D01*
X2265301Y-7716293D02*
X2255777Y-7754388D01*
X2255777Y-7754388D02*
X2246253Y-7773436D01*
X2246253Y-7773436D02*
X2236729Y-7782960D01*
X2236729Y-7782960D02*
X2217682Y-7792484D01*
X2217682Y-7792484D02*
X2198634Y-7792484D01*
X2198634Y-7792484D02*
X2179587Y-7782960D01*
X2179587Y-7782960D02*
X2170063Y-7773436D01*
X2170063Y-7773436D02*
X2160539Y-7754388D01*
X2160539Y-7754388D02*
X2151015Y-7716293D01*
X2151015Y-7716293D02*
X2151015Y-7668674D01*
X2151015Y-7668674D02*
X2160539Y-7630579D01*
X2160539Y-7630579D02*
X2170063Y-7611531D01*
X2170063Y-7611531D02*
X2179587Y-7602008D01*
X2179587Y-7602008D02*
X2198634Y-7592484D01*
X2351015Y-7773436D02*
X2360539Y-7782960D01*
X2360539Y-7782960D02*
X2351015Y-7792484D01*
X2351015Y-7792484D02*
X2341491Y-7782960D01*
X2341491Y-7782960D02*
X2351015Y-7773436D01*
X2351015Y-7773436D02*
X2351015Y-7792484D01*
X2484348Y-7592484D02*
X2503396Y-7592484D01*
X2503396Y-7592484D02*
X2522444Y-7602008D01*
X2522444Y-7602008D02*
X2531968Y-7611531D01*
X2531968Y-7611531D02*
X2541491Y-7630579D01*
X2541491Y-7630579D02*
X2551015Y-7668674D01*
X2551015Y-7668674D02*
X2551015Y-7716293D01*
X2551015Y-7716293D02*
X2541491Y-7754388D01*
X2541491Y-7754388D02*
X2531968Y-7773436D01*
X2531968Y-7773436D02*
X2522444Y-7782960D01*
X2522444Y-7782960D02*
X2503396Y-7792484D01*
X2503396Y-7792484D02*
X2484348Y-7792484D01*
X2484348Y-7792484D02*
X2465301Y-7782960D01*
X2465301Y-7782960D02*
X2455777Y-7773436D01*
X2455777Y-7773436D02*
X2446253Y-7754388D01*
X2446253Y-7754388D02*
X2436729Y-7716293D01*
X2436729Y-7716293D02*
X2436729Y-7668674D01*
X2436729Y-7668674D02*
X2446253Y-7630579D01*
X2446253Y-7630579D02*
X2455777Y-7611531D01*
X2455777Y-7611531D02*
X2465301Y-7602008D01*
X2465301Y-7602008D02*
X2484348Y-7592484D01*
X2741491Y-7792484D02*
X2627206Y-7792484D01*
X2684348Y-7792484D02*
X2684348Y-7592484D01*
X2684348Y-7592484D02*
X2665301Y-7621055D01*
X2665301Y-7621055D02*
X2646253Y-7640103D01*
X2646253Y-7640103D02*
X2627206Y-7649627D01*
X2836729Y-7792484D02*
X2874825Y-7792484D01*
X2874825Y-7792484D02*
X2893872Y-7782960D01*
X2893872Y-7782960D02*
X2903396Y-7773436D01*
X2903396Y-7773436D02*
X2922444Y-7744865D01*
X2922444Y-7744865D02*
X2931967Y-7706769D01*
X2931967Y-7706769D02*
X2931967Y-7630579D01*
X2931967Y-7630579D02*
X2922444Y-7611531D01*
X2922444Y-7611531D02*
X2912920Y-7602008D01*
X2912920Y-7602008D02*
X2893872Y-7592484D01*
X2893872Y-7592484D02*
X2855777Y-7592484D01*
X2855777Y-7592484D02*
X2836729Y-7602008D01*
X2836729Y-7602008D02*
X2827206Y-7611531D01*
X2827206Y-7611531D02*
X2817682Y-7630579D01*
X2817682Y-7630579D02*
X2817682Y-7678198D01*
X2817682Y-7678198D02*
X2827206Y-7697246D01*
X2827206Y-7697246D02*
X2836729Y-7706769D01*
X2836729Y-7706769D02*
X2855777Y-7716293D01*
X2855777Y-7716293D02*
X2893872Y-7716293D01*
X2893872Y-7716293D02*
X2912920Y-7706769D01*
X2912920Y-7706769D02*
X2922444Y-7697246D01*
X2922444Y-7697246D02*
X2931967Y-7678198D01*
X2998634Y-7592484D02*
X3131967Y-7592484D01*
X3131967Y-7592484D02*
X3046253Y-7792484D01*
X3198634Y-7592484D02*
X3198634Y-7630579D01*
X3274825Y-7592484D02*
X3274825Y-7630579D01*
X3570063Y-7868674D02*
X3560539Y-7859150D01*
X3560539Y-7859150D02*
X3541491Y-7830579D01*
X3541491Y-7830579D02*
X3531968Y-7811531D01*
X3531968Y-7811531D02*
X3522444Y-7782960D01*
X3522444Y-7782960D02*
X3512920Y-7735341D01*
X3512920Y-7735341D02*
X3512920Y-7697246D01*
X3512920Y-7697246D02*
X3522444Y-7649627D01*
X3522444Y-7649627D02*
X3531968Y-7621055D01*
X3531968Y-7621055D02*
X3541491Y-7602008D01*
X3541491Y-7602008D02*
X3560539Y-7573436D01*
X3560539Y-7573436D02*
X3570063Y-7563912D01*
X3684348Y-7592484D02*
X3703396Y-7592484D01*
X3703396Y-7592484D02*
X3722444Y-7602008D01*
X3722444Y-7602008D02*
X3731968Y-7611531D01*
X3731968Y-7611531D02*
X3741491Y-7630579D01*
X3741491Y-7630579D02*
X3751015Y-7668674D01*
X3751015Y-7668674D02*
X3751015Y-7716293D01*
X3751015Y-7716293D02*
X3741491Y-7754388D01*
X3741491Y-7754388D02*
X3731968Y-7773436D01*
X3731968Y-7773436D02*
X3722444Y-7782960D01*
X3722444Y-7782960D02*
X3703396Y-7792484D01*
X3703396Y-7792484D02*
X3684348Y-7792484D01*
X3684348Y-7792484D02*
X3665301Y-7782960D01*
X3665301Y-7782960D02*
X3655777Y-7773436D01*
X3655777Y-7773436D02*
X3646253Y-7754388D01*
X3646253Y-7754388D02*
X3636729Y-7716293D01*
X3636729Y-7716293D02*
X3636729Y-7668674D01*
X3636729Y-7668674D02*
X3646253Y-7630579D01*
X3646253Y-7630579D02*
X3655777Y-7611531D01*
X3655777Y-7611531D02*
X3665301Y-7602008D01*
X3665301Y-7602008D02*
X3684348Y-7592484D01*
X3989110Y-7792484D02*
X3989110Y-7592484D01*
X4074825Y-7792484D02*
X4074825Y-7687722D01*
X4074825Y-7687722D02*
X4065301Y-7668674D01*
X4065301Y-7668674D02*
X4046253Y-7659150D01*
X4046253Y-7659150D02*
X4017682Y-7659150D01*
X4017682Y-7659150D02*
X3998634Y-7668674D01*
X3998634Y-7668674D02*
X3989110Y-7678198D01*
X4198634Y-7792484D02*
X4179587Y-7782960D01*
X4179587Y-7782960D02*
X4170063Y-7773436D01*
X4170063Y-7773436D02*
X4160539Y-7754388D01*
X4160539Y-7754388D02*
X4160539Y-7697246D01*
X4160539Y-7697246D02*
X4170063Y-7678198D01*
X4170063Y-7678198D02*
X4179587Y-7668674D01*
X4179587Y-7668674D02*
X4198634Y-7659150D01*
X4198634Y-7659150D02*
X4227206Y-7659150D01*
X4227206Y-7659150D02*
X4246253Y-7668674D01*
X4246253Y-7668674D02*
X4255777Y-7678198D01*
X4255777Y-7678198D02*
X4265301Y-7697246D01*
X4265301Y-7697246D02*
X4265301Y-7754388D01*
X4265301Y-7754388D02*
X4255777Y-7773436D01*
X4255777Y-7773436D02*
X4246253Y-7782960D01*
X4246253Y-7782960D02*
X4227206Y-7792484D01*
X4227206Y-7792484D02*
X4198634Y-7792484D01*
X4379587Y-7792484D02*
X4360539Y-7782960D01*
X4360539Y-7782960D02*
X4351015Y-7763912D01*
X4351015Y-7763912D02*
X4351015Y-7592484D01*
X4531968Y-7782960D02*
X4512920Y-7792484D01*
X4512920Y-7792484D02*
X4474825Y-7792484D01*
X4474825Y-7792484D02*
X4455777Y-7782960D01*
X4455777Y-7782960D02*
X4446253Y-7763912D01*
X4446253Y-7763912D02*
X4446253Y-7687722D01*
X4446253Y-7687722D02*
X4455777Y-7668674D01*
X4455777Y-7668674D02*
X4474825Y-7659150D01*
X4474825Y-7659150D02*
X4512920Y-7659150D01*
X4512920Y-7659150D02*
X4531968Y-7668674D01*
X4531968Y-7668674D02*
X4541492Y-7687722D01*
X4541492Y-7687722D02*
X4541492Y-7706769D01*
X4541492Y-7706769D02*
X4446253Y-7725817D01*
X4617682Y-7782960D02*
X4636730Y-7792484D01*
X4636730Y-7792484D02*
X4674825Y-7792484D01*
X4674825Y-7792484D02*
X4693873Y-7782960D01*
X4693873Y-7782960D02*
X4703396Y-7763912D01*
X4703396Y-7763912D02*
X4703396Y-7754388D01*
X4703396Y-7754388D02*
X4693873Y-7735341D01*
X4693873Y-7735341D02*
X4674825Y-7725817D01*
X4674825Y-7725817D02*
X4646253Y-7725817D01*
X4646253Y-7725817D02*
X4627206Y-7716293D01*
X4627206Y-7716293D02*
X4617682Y-7697246D01*
X4617682Y-7697246D02*
X4617682Y-7687722D01*
X4617682Y-7687722D02*
X4627206Y-7668674D01*
X4627206Y-7668674D02*
X4646253Y-7659150D01*
X4646253Y-7659150D02*
X4674825Y-7659150D01*
X4674825Y-7659150D02*
X4693873Y-7668674D01*
X4941492Y-7716293D02*
X5093873Y-7716293D01*
X5017682Y-7792484D02*
X5017682Y-7640103D01*
X5427206Y-7659150D02*
X5427206Y-7792484D01*
X5379587Y-7582960D02*
X5331968Y-7725817D01*
X5331968Y-7725817D02*
X5455777Y-7725817D01*
X5674825Y-7782960D02*
X5693873Y-7792484D01*
X5693873Y-7792484D02*
X5731968Y-7792484D01*
X5731968Y-7792484D02*
X5751015Y-7782960D01*
X5751015Y-7782960D02*
X5760539Y-7763912D01*
X5760539Y-7763912D02*
X5760539Y-7754388D01*
X5760539Y-7754388D02*
X5751015Y-7735341D01*
X5751015Y-7735341D02*
X5731968Y-7725817D01*
X5731968Y-7725817D02*
X5703396Y-7725817D01*
X5703396Y-7725817D02*
X5684349Y-7716293D01*
X5684349Y-7716293D02*
X5674825Y-7697246D01*
X5674825Y-7697246D02*
X5674825Y-7687722D01*
X5674825Y-7687722D02*
X5684349Y-7668674D01*
X5684349Y-7668674D02*
X5703396Y-7659150D01*
X5703396Y-7659150D02*
X5731968Y-7659150D01*
X5731968Y-7659150D02*
X5751015Y-7668674D01*
X5874825Y-7792484D02*
X5855777Y-7782960D01*
X5855777Y-7782960D02*
X5846254Y-7763912D01*
X5846254Y-7763912D02*
X5846254Y-7592484D01*
X5979587Y-7792484D02*
X5960539Y-7782960D01*
X5960539Y-7782960D02*
X5951015Y-7773436D01*
X5951015Y-7773436D02*
X5941492Y-7754388D01*
X5941492Y-7754388D02*
X5941492Y-7697246D01*
X5941492Y-7697246D02*
X5951015Y-7678198D01*
X5951015Y-7678198D02*
X5960539Y-7668674D01*
X5960539Y-7668674D02*
X5979587Y-7659150D01*
X5979587Y-7659150D02*
X6008158Y-7659150D01*
X6008158Y-7659150D02*
X6027206Y-7668674D01*
X6027206Y-7668674D02*
X6036730Y-7678198D01*
X6036730Y-7678198D02*
X6046254Y-7697246D01*
X6046254Y-7697246D02*
X6046254Y-7754388D01*
X6046254Y-7754388D02*
X6036730Y-7773436D01*
X6036730Y-7773436D02*
X6027206Y-7782960D01*
X6027206Y-7782960D02*
X6008158Y-7792484D01*
X6008158Y-7792484D02*
X5979587Y-7792484D01*
X6103396Y-7659150D02*
X6179587Y-7659150D01*
X6131968Y-7592484D02*
X6131968Y-7763912D01*
X6131968Y-7763912D02*
X6141492Y-7782960D01*
X6141492Y-7782960D02*
X6160539Y-7792484D01*
X6160539Y-7792484D02*
X6179587Y-7792484D01*
X6236730Y-7782960D02*
X6255777Y-7792484D01*
X6255777Y-7792484D02*
X6293873Y-7792484D01*
X6293873Y-7792484D02*
X6312920Y-7782960D01*
X6312920Y-7782960D02*
X6322444Y-7763912D01*
X6322444Y-7763912D02*
X6322444Y-7754388D01*
X6322444Y-7754388D02*
X6312920Y-7735341D01*
X6312920Y-7735341D02*
X6293873Y-7725817D01*
X6293873Y-7725817D02*
X6265301Y-7725817D01*
X6265301Y-7725817D02*
X6246254Y-7716293D01*
X6246254Y-7716293D02*
X6236730Y-7697246D01*
X6236730Y-7697246D02*
X6236730Y-7687722D01*
X6236730Y-7687722D02*
X6246254Y-7668674D01*
X6246254Y-7668674D02*
X6265301Y-7659150D01*
X6265301Y-7659150D02*
X6293873Y-7659150D01*
X6293873Y-7659150D02*
X6312920Y-7668674D01*
X6389111Y-7868674D02*
X6398635Y-7859150D01*
X6398635Y-7859150D02*
X6417682Y-7830579D01*
X6417682Y-7830579D02*
X6427206Y-7811531D01*
X6427206Y-7811531D02*
X6436730Y-7782960D01*
X6436730Y-7782960D02*
X6446254Y-7735341D01*
X6446254Y-7735341D02*
X6446254Y-7697246D01*
X6446254Y-7697246D02*
X6436730Y-7649627D01*
X6436730Y-7649627D02*
X6427206Y-7621055D01*
X6427206Y-7621055D02*
X6417682Y-7602008D01*
X6417682Y-7602008D02*
X6398635Y-7573436D01*
X6398635Y-7573436D02*
X6389111Y-7563912D01*
D10*
X-105000Y-7915000D02*
X-5000Y-8015000D01*
X-5000Y-7915000D02*
X-105000Y-8015000D01*
X-5000Y-7965000D02*
G75*
G02*
X-105000Y-7965000I-50000J0D01*
G01*
X-105000Y-7965000D02*
G75*
G02*
X-5000Y-7965000I50000J0D01*
G01*
D11*
X360539Y-8056484D02*
X246253Y-8056484D01*
X303396Y-8056484D02*
X303396Y-7856484D01*
X303396Y-7856484D02*
X284348Y-7885055D01*
X284348Y-7885055D02*
X265301Y-7904103D01*
X265301Y-7904103D02*
X246253Y-7913627D01*
X446253Y-8037436D02*
X455777Y-8046960D01*
X455777Y-8046960D02*
X446253Y-8056484D01*
X446253Y-8056484D02*
X436729Y-8046960D01*
X436729Y-8046960D02*
X446253Y-8037436D01*
X446253Y-8037436D02*
X446253Y-8056484D01*
X579586Y-7856484D02*
X598634Y-7856484D01*
X598634Y-7856484D02*
X617682Y-7866008D01*
X617682Y-7866008D02*
X627205Y-7875531D01*
X627205Y-7875531D02*
X636729Y-7894579D01*
X636729Y-7894579D02*
X646253Y-7932674D01*
X646253Y-7932674D02*
X646253Y-7980293D01*
X646253Y-7980293D02*
X636729Y-8018388D01*
X636729Y-8018388D02*
X627205Y-8037436D01*
X627205Y-8037436D02*
X617682Y-8046960D01*
X617682Y-8046960D02*
X598634Y-8056484D01*
X598634Y-8056484D02*
X579586Y-8056484D01*
X579586Y-8056484D02*
X560539Y-8046960D01*
X560539Y-8046960D02*
X551015Y-8037436D01*
X551015Y-8037436D02*
X541491Y-8018388D01*
X541491Y-8018388D02*
X531967Y-7980293D01*
X531967Y-7980293D02*
X531967Y-7932674D01*
X531967Y-7932674D02*
X541491Y-7894579D01*
X541491Y-7894579D02*
X551015Y-7875531D01*
X551015Y-7875531D02*
X560539Y-7866008D01*
X560539Y-7866008D02*
X579586Y-7856484D01*
X770062Y-7856484D02*
X789110Y-7856484D01*
X789110Y-7856484D02*
X808158Y-7866008D01*
X808158Y-7866008D02*
X817682Y-7875531D01*
X817682Y-7875531D02*
X827205Y-7894579D01*
X827205Y-7894579D02*
X836729Y-7932674D01*
X836729Y-7932674D02*
X836729Y-7980293D01*
X836729Y-7980293D02*
X827205Y-8018388D01*
X827205Y-8018388D02*
X817682Y-8037436D01*
X817682Y-8037436D02*
X808158Y-8046960D01*
X808158Y-8046960D02*
X789110Y-8056484D01*
X789110Y-8056484D02*
X770062Y-8056484D01*
X770062Y-8056484D02*
X751015Y-8046960D01*
X751015Y-8046960D02*
X741491Y-8037436D01*
X741491Y-8037436D02*
X731967Y-8018388D01*
X731967Y-8018388D02*
X722443Y-7980293D01*
X722443Y-7980293D02*
X722443Y-7932674D01*
X722443Y-7932674D02*
X731967Y-7894579D01*
X731967Y-7894579D02*
X741491Y-7875531D01*
X741491Y-7875531D02*
X751015Y-7866008D01*
X751015Y-7866008D02*
X770062Y-7856484D01*
X960539Y-7856484D02*
X979586Y-7856484D01*
X979586Y-7856484D02*
X998634Y-7866008D01*
X998634Y-7866008D02*
X1008158Y-7875531D01*
X1008158Y-7875531D02*
X1017682Y-7894579D01*
X1017682Y-7894579D02*
X1027205Y-7932674D01*
X1027205Y-7932674D02*
X1027205Y-7980293D01*
X1027205Y-7980293D02*
X1017682Y-8018388D01*
X1017682Y-8018388D02*
X1008158Y-8037436D01*
X1008158Y-8037436D02*
X998634Y-8046960D01*
X998634Y-8046960D02*
X979586Y-8056484D01*
X979586Y-8056484D02*
X960539Y-8056484D01*
X960539Y-8056484D02*
X941491Y-8046960D01*
X941491Y-8046960D02*
X931967Y-8037436D01*
X931967Y-8037436D02*
X922443Y-8018388D01*
X922443Y-8018388D02*
X912920Y-7980293D01*
X912920Y-7980293D02*
X912920Y-7932674D01*
X912920Y-7932674D02*
X922443Y-7894579D01*
X922443Y-7894579D02*
X931967Y-7875531D01*
X931967Y-7875531D02*
X941491Y-7866008D01*
X941491Y-7866008D02*
X960539Y-7856484D01*
X1112920Y-8056484D02*
X1112920Y-7923150D01*
X1112920Y-7942198D02*
X1122444Y-7932674D01*
X1122444Y-7932674D02*
X1141491Y-7923150D01*
X1141491Y-7923150D02*
X1170063Y-7923150D01*
X1170063Y-7923150D02*
X1189110Y-7932674D01*
X1189110Y-7932674D02*
X1198634Y-7951722D01*
X1198634Y-7951722D02*
X1198634Y-8056484D01*
X1198634Y-7951722D02*
X1208158Y-7932674D01*
X1208158Y-7932674D02*
X1227205Y-7923150D01*
X1227205Y-7923150D02*
X1255777Y-7923150D01*
X1255777Y-7923150D02*
X1274825Y-7932674D01*
X1274825Y-7932674D02*
X1284348Y-7951722D01*
X1284348Y-7951722D02*
X1284348Y-8056484D01*
X1379586Y-8056484D02*
X1379586Y-7923150D01*
X1379586Y-7942198D02*
X1389110Y-7932674D01*
X1389110Y-7932674D02*
X1408158Y-7923150D01*
X1408158Y-7923150D02*
X1436729Y-7923150D01*
X1436729Y-7923150D02*
X1455777Y-7932674D01*
X1455777Y-7932674D02*
X1465301Y-7951722D01*
X1465301Y-7951722D02*
X1465301Y-8056484D01*
X1465301Y-7951722D02*
X1474824Y-7932674D01*
X1474824Y-7932674D02*
X1493872Y-7923150D01*
X1493872Y-7923150D02*
X1522443Y-7923150D01*
X1522443Y-7923150D02*
X1541491Y-7932674D01*
X1541491Y-7932674D02*
X1551015Y-7951722D01*
X1551015Y-7951722D02*
X1551015Y-8056484D01*
X1941491Y-7846960D02*
X1770063Y-8104103D01*
X2198634Y-7856484D02*
X2217682Y-7856484D01*
X2217682Y-7856484D02*
X2236729Y-7866008D01*
X2236729Y-7866008D02*
X2246253Y-7875531D01*
X2246253Y-7875531D02*
X2255777Y-7894579D01*
X2255777Y-7894579D02*
X2265301Y-7932674D01*
X2265301Y-7932674D02*
X2265301Y-7980293D01*
X2265301Y-7980293D02*
X2255777Y-8018388D01*
X2255777Y-8018388D02*
X2246253Y-8037436D01*
X2246253Y-8037436D02*
X2236729Y-8046960D01*
X2236729Y-8046960D02*
X2217682Y-8056484D01*
X2217682Y-8056484D02*
X2198634Y-8056484D01*
X2198634Y-8056484D02*
X2179587Y-8046960D01*
X2179587Y-8046960D02*
X2170063Y-8037436D01*
X2170063Y-8037436D02*
X2160539Y-8018388D01*
X2160539Y-8018388D02*
X2151015Y-7980293D01*
X2151015Y-7980293D02*
X2151015Y-7932674D01*
X2151015Y-7932674D02*
X2160539Y-7894579D01*
X2160539Y-7894579D02*
X2170063Y-7875531D01*
X2170063Y-7875531D02*
X2179587Y-7866008D01*
X2179587Y-7866008D02*
X2198634Y-7856484D01*
X2351015Y-8037436D02*
X2360539Y-8046960D01*
X2360539Y-8046960D02*
X2351015Y-8056484D01*
X2351015Y-8056484D02*
X2341491Y-8046960D01*
X2341491Y-8046960D02*
X2351015Y-8037436D01*
X2351015Y-8037436D02*
X2351015Y-8056484D01*
X2484348Y-7856484D02*
X2503396Y-7856484D01*
X2503396Y-7856484D02*
X2522444Y-7866008D01*
X2522444Y-7866008D02*
X2531968Y-7875531D01*
X2531968Y-7875531D02*
X2541491Y-7894579D01*
X2541491Y-7894579D02*
X2551015Y-7932674D01*
X2551015Y-7932674D02*
X2551015Y-7980293D01*
X2551015Y-7980293D02*
X2541491Y-8018388D01*
X2541491Y-8018388D02*
X2531968Y-8037436D01*
X2531968Y-8037436D02*
X2522444Y-8046960D01*
X2522444Y-8046960D02*
X2503396Y-8056484D01*
X2503396Y-8056484D02*
X2484348Y-8056484D01*
X2484348Y-8056484D02*
X2465301Y-8046960D01*
X2465301Y-8046960D02*
X2455777Y-8037436D01*
X2455777Y-8037436D02*
X2446253Y-8018388D01*
X2446253Y-8018388D02*
X2436729Y-7980293D01*
X2436729Y-7980293D02*
X2436729Y-7932674D01*
X2436729Y-7932674D02*
X2446253Y-7894579D01*
X2446253Y-7894579D02*
X2455777Y-7875531D01*
X2455777Y-7875531D02*
X2465301Y-7866008D01*
X2465301Y-7866008D02*
X2484348Y-7856484D01*
X2617682Y-7856484D02*
X2741491Y-7856484D01*
X2741491Y-7856484D02*
X2674825Y-7932674D01*
X2674825Y-7932674D02*
X2703396Y-7932674D01*
X2703396Y-7932674D02*
X2722444Y-7942198D01*
X2722444Y-7942198D02*
X2731968Y-7951722D01*
X2731968Y-7951722D02*
X2741491Y-7970769D01*
X2741491Y-7970769D02*
X2741491Y-8018388D01*
X2741491Y-8018388D02*
X2731968Y-8037436D01*
X2731968Y-8037436D02*
X2722444Y-8046960D01*
X2722444Y-8046960D02*
X2703396Y-8056484D01*
X2703396Y-8056484D02*
X2646253Y-8056484D01*
X2646253Y-8056484D02*
X2627206Y-8046960D01*
X2627206Y-8046960D02*
X2617682Y-8037436D01*
X2836729Y-8056484D02*
X2874825Y-8056484D01*
X2874825Y-8056484D02*
X2893872Y-8046960D01*
X2893872Y-8046960D02*
X2903396Y-8037436D01*
X2903396Y-8037436D02*
X2922444Y-8008865D01*
X2922444Y-8008865D02*
X2931967Y-7970769D01*
X2931967Y-7970769D02*
X2931967Y-7894579D01*
X2931967Y-7894579D02*
X2922444Y-7875531D01*
X2922444Y-7875531D02*
X2912920Y-7866008D01*
X2912920Y-7866008D02*
X2893872Y-7856484D01*
X2893872Y-7856484D02*
X2855777Y-7856484D01*
X2855777Y-7856484D02*
X2836729Y-7866008D01*
X2836729Y-7866008D02*
X2827206Y-7875531D01*
X2827206Y-7875531D02*
X2817682Y-7894579D01*
X2817682Y-7894579D02*
X2817682Y-7942198D01*
X2817682Y-7942198D02*
X2827206Y-7961246D01*
X2827206Y-7961246D02*
X2836729Y-7970769D01*
X2836729Y-7970769D02*
X2855777Y-7980293D01*
X2855777Y-7980293D02*
X2893872Y-7980293D01*
X2893872Y-7980293D02*
X2912920Y-7970769D01*
X2912920Y-7970769D02*
X2922444Y-7961246D01*
X2922444Y-7961246D02*
X2931967Y-7942198D01*
X3103396Y-7923150D02*
X3103396Y-8056484D01*
X3055777Y-7846960D02*
X3008158Y-7989817D01*
X3008158Y-7989817D02*
X3131967Y-7989817D01*
X3198634Y-7856484D02*
X3198634Y-7894579D01*
X3274825Y-7856484D02*
X3274825Y-7894579D01*
X3570063Y-8132674D02*
X3560539Y-8123150D01*
X3560539Y-8123150D02*
X3541491Y-8094579D01*
X3541491Y-8094579D02*
X3531968Y-8075531D01*
X3531968Y-8075531D02*
X3522444Y-8046960D01*
X3522444Y-8046960D02*
X3512920Y-7999341D01*
X3512920Y-7999341D02*
X3512920Y-7961246D01*
X3512920Y-7961246D02*
X3522444Y-7913627D01*
X3522444Y-7913627D02*
X3531968Y-7885055D01*
X3531968Y-7885055D02*
X3541491Y-7866008D01*
X3541491Y-7866008D02*
X3560539Y-7837436D01*
X3560539Y-7837436D02*
X3570063Y-7827912D01*
X3627206Y-7856484D02*
X3751015Y-7856484D01*
X3751015Y-7856484D02*
X3684348Y-7932674D01*
X3684348Y-7932674D02*
X3712920Y-7932674D01*
X3712920Y-7932674D02*
X3731968Y-7942198D01*
X3731968Y-7942198D02*
X3741491Y-7951722D01*
X3741491Y-7951722D02*
X3751015Y-7970769D01*
X3751015Y-7970769D02*
X3751015Y-8018388D01*
X3751015Y-8018388D02*
X3741491Y-8037436D01*
X3741491Y-8037436D02*
X3731968Y-8046960D01*
X3731968Y-8046960D02*
X3712920Y-8056484D01*
X3712920Y-8056484D02*
X3655777Y-8056484D01*
X3655777Y-8056484D02*
X3636729Y-8046960D01*
X3636729Y-8046960D02*
X3627206Y-8037436D01*
X3846253Y-8056484D02*
X3884348Y-8056484D01*
X3884348Y-8056484D02*
X3903396Y-8046960D01*
X3903396Y-8046960D02*
X3912920Y-8037436D01*
X3912920Y-8037436D02*
X3931968Y-8008865D01*
X3931968Y-8008865D02*
X3941491Y-7970769D01*
X3941491Y-7970769D02*
X3941491Y-7894579D01*
X3941491Y-7894579D02*
X3931968Y-7875531D01*
X3931968Y-7875531D02*
X3922444Y-7866008D01*
X3922444Y-7866008D02*
X3903396Y-7856484D01*
X3903396Y-7856484D02*
X3865301Y-7856484D01*
X3865301Y-7856484D02*
X3846253Y-7866008D01*
X3846253Y-7866008D02*
X3836729Y-7875531D01*
X3836729Y-7875531D02*
X3827206Y-7894579D01*
X3827206Y-7894579D02*
X3827206Y-7942198D01*
X3827206Y-7942198D02*
X3836729Y-7961246D01*
X3836729Y-7961246D02*
X3846253Y-7970769D01*
X3846253Y-7970769D02*
X3865301Y-7980293D01*
X3865301Y-7980293D02*
X3903396Y-7980293D01*
X3903396Y-7980293D02*
X3922444Y-7970769D01*
X3922444Y-7970769D02*
X3931968Y-7961246D01*
X3931968Y-7961246D02*
X3941491Y-7942198D01*
X4179587Y-8056484D02*
X4179587Y-7856484D01*
X4265301Y-8056484D02*
X4265301Y-7951722D01*
X4265301Y-7951722D02*
X4255777Y-7932674D01*
X4255777Y-7932674D02*
X4236730Y-7923150D01*
X4236730Y-7923150D02*
X4208158Y-7923150D01*
X4208158Y-7923150D02*
X4189110Y-7932674D01*
X4189110Y-7932674D02*
X4179587Y-7942198D01*
X4389111Y-8056484D02*
X4370063Y-8046960D01*
X4370063Y-8046960D02*
X4360539Y-8037436D01*
X4360539Y-8037436D02*
X4351015Y-8018388D01*
X4351015Y-8018388D02*
X4351015Y-7961246D01*
X4351015Y-7961246D02*
X4360539Y-7942198D01*
X4360539Y-7942198D02*
X4370063Y-7932674D01*
X4370063Y-7932674D02*
X4389111Y-7923150D01*
X4389111Y-7923150D02*
X4417682Y-7923150D01*
X4417682Y-7923150D02*
X4436730Y-7932674D01*
X4436730Y-7932674D02*
X4446253Y-7942198D01*
X4446253Y-7942198D02*
X4455777Y-7961246D01*
X4455777Y-7961246D02*
X4455777Y-8018388D01*
X4455777Y-8018388D02*
X4446253Y-8037436D01*
X4446253Y-8037436D02*
X4436730Y-8046960D01*
X4436730Y-8046960D02*
X4417682Y-8056484D01*
X4417682Y-8056484D02*
X4389111Y-8056484D01*
X4570063Y-8056484D02*
X4551015Y-8046960D01*
X4551015Y-8046960D02*
X4541492Y-8027912D01*
X4541492Y-8027912D02*
X4541492Y-7856484D01*
X4722444Y-8046960D02*
X4703396Y-8056484D01*
X4703396Y-8056484D02*
X4665301Y-8056484D01*
X4665301Y-8056484D02*
X4646253Y-8046960D01*
X4646253Y-8046960D02*
X4636730Y-8027912D01*
X4636730Y-8027912D02*
X4636730Y-7951722D01*
X4636730Y-7951722D02*
X4646253Y-7932674D01*
X4646253Y-7932674D02*
X4665301Y-7923150D01*
X4665301Y-7923150D02*
X4703396Y-7923150D01*
X4703396Y-7923150D02*
X4722444Y-7932674D01*
X4722444Y-7932674D02*
X4731968Y-7951722D01*
X4731968Y-7951722D02*
X4731968Y-7970769D01*
X4731968Y-7970769D02*
X4636730Y-7989817D01*
X4808158Y-8046960D02*
X4827206Y-8056484D01*
X4827206Y-8056484D02*
X4865301Y-8056484D01*
X4865301Y-8056484D02*
X4884349Y-8046960D01*
X4884349Y-8046960D02*
X4893873Y-8027912D01*
X4893873Y-8027912D02*
X4893873Y-8018388D01*
X4893873Y-8018388D02*
X4884349Y-7999341D01*
X4884349Y-7999341D02*
X4865301Y-7989817D01*
X4865301Y-7989817D02*
X4836730Y-7989817D01*
X4836730Y-7989817D02*
X4817682Y-7980293D01*
X4817682Y-7980293D02*
X4808158Y-7961246D01*
X4808158Y-7961246D02*
X4808158Y-7951722D01*
X4808158Y-7951722D02*
X4817682Y-7932674D01*
X4817682Y-7932674D02*
X4836730Y-7923150D01*
X4836730Y-7923150D02*
X4865301Y-7923150D01*
X4865301Y-7923150D02*
X4884349Y-7932674D01*
X4960539Y-8132674D02*
X4970063Y-8123150D01*
X4970063Y-8123150D02*
X4989111Y-8094579D01*
X4989111Y-8094579D02*
X4998634Y-8075531D01*
X4998634Y-8075531D02*
X5008158Y-8046960D01*
X5008158Y-8046960D02*
X5017682Y-7999341D01*
X5017682Y-7999341D02*
X5017682Y-7961246D01*
X5017682Y-7961246D02*
X5008158Y-7913627D01*
X5008158Y-7913627D02*
X4998634Y-7885055D01*
X4998634Y-7885055D02*
X4989111Y-7866008D01*
X4989111Y-7866008D02*
X4970063Y-7837436D01*
X4970063Y-7837436D02*
X4960539Y-7827912D01*
M02*
