%TF.GenerationSoftware,KiCad,Pcbnew,10.0.5*%
%TF.CreationDate,2026-08-18T16:33:31-04:00*%
%TF.ProjectId,bench_board,62656e63-685f-4626-9f61-72642e6b6963,rev?*%
%TF.SameCoordinates,Original*%
%TF.FileFunction,Copper,L3,Inr*%
%TF.FilePolarity,Positive*%
%FSLAX46Y46*%
G04 Gerber Fmt 4.6, Leading zero omitted, Abs format (unit mm)*
G04 Created by KiCad (PCBNEW 10.0.5) date 2026-08-18 16:33:31*
%MOMM*%
%LPD*%
G01*
G04 APERTURE LIST*
%TA.AperFunction,ComponentPad*%
%ADD10R,1.700000X1.700000*%
%TD*%
%TA.AperFunction,ComponentPad*%
%ADD11C,1.700000*%
%TD*%
%TA.AperFunction,ComponentPad*%
%ADD12C,0.650000*%
%TD*%
%TA.AperFunction,ComponentPad*%
%ADD13O,1.400000X0.800000*%
%TD*%
%TA.AperFunction,ViaPad*%
%ADD14C,0.800000*%
%TD*%
%TA.AperFunction,ViaPad*%
%ADD15C,0.600000*%
%TD*%
%TA.AperFunction,ViaPad*%
%ADD16C,0.300000*%
%TD*%
%TA.AperFunction,ViaPad*%
%ADD17C,0.500000*%
%TD*%
%TA.AperFunction,Conductor*%
%ADD18C,0.600000*%
%TD*%
%TA.AperFunction,Conductor*%
%ADD19C,0.200000*%
%TD*%
G04 APERTURE END LIST*
D10*
%TO.N,/3V3*%
%TO.C,J9*%
X43000000Y-7000000D03*
D11*
%TO.N,/GND*%
X45540000Y-7000000D03*
%TO.N,/EXP_I2C_SCL*%
X48080000Y-7000000D03*
%TO.N,/EXP_I2C_SDA*%
X50620000Y-7000000D03*
%TO.N,/EXP_SPI_SCK*%
X53160000Y-7000000D03*
%TO.N,/EXP_SPI_MOSI*%
X55700000Y-7000000D03*
%TO.N,/EXP_SPI_MISO*%
X58240000Y-7000000D03*
%TO.N,/EXP_SPI_CS1*%
X60780000Y-7000000D03*
%TO.N,/EXP_SPI_CS2*%
X63320000Y-7000000D03*
%TO.N,/EXP_UART_RX*%
X65860000Y-7000000D03*
%TO.N,/EXP_IRQ1*%
X68400000Y-7000000D03*
%TO.N,/EXP_IRQ2*%
X70940000Y-7000000D03*
%TO.N,/5V_RX*%
X73480000Y-7000000D03*
%TO.N,/GND*%
X76020000Y-7000000D03*
%TD*%
D10*
%TO.N,/VBAT_4S*%
%TO.C,J1*%
X6000000Y-30000000D03*
D11*
%TO.N,/GND*%
X8540000Y-30000000D03*
%TD*%
D10*
%TO.N,/5V_RX*%
%TO.C,J10*%
X55000000Y-58000000D03*
D11*
%TO.N,/BUZZER_SW*%
X57540000Y-58000000D03*
%TD*%
D12*
%TO.N,/GND*%
%TO.C,J3*%
X70290000Y-27200000D03*
%TO.N,N/C*%
X70990000Y-27600000D03*
X70990000Y-28400000D03*
%TO.N,/USB_VBUS*%
X70290000Y-28800000D03*
%TO.N,/CC2*%
X70990000Y-29200000D03*
%TO.N,/USB_DP*%
X70290000Y-29600000D03*
%TO.N,/USB_DM*%
X70290000Y-30400000D03*
%TO.N,N/C*%
X70990000Y-30800000D03*
%TO.N,/USB_VBUS*%
X70290000Y-31200000D03*
%TO.N,N/C*%
X70990000Y-31600000D03*
X70990000Y-32400000D03*
%TO.N,/GND*%
X70290000Y-32800000D03*
D13*
X76840000Y-34490000D03*
X70890000Y-34130000D03*
X70890000Y-25870000D03*
X76840000Y-25510000D03*
%TD*%
D10*
%TO.N,/M1*%
%TO.C,J5*%
X40000000Y-47000000D03*
D11*
%TO.N,/M2*%
X40000000Y-49540000D03*
%TO.N,/M3*%
X40000000Y-52080000D03*
%TO.N,/M4*%
X40000000Y-54620000D03*
%TO.N,/GND*%
X40000000Y-57160000D03*
%TD*%
D10*
%TO.N,/3V3*%
%TO.C,J4*%
X30000000Y-47000000D03*
D11*
%TO.N,/GND*%
X30000000Y-49540000D03*
%TO.N,/CRSF_TX*%
X30000000Y-52080000D03*
%TO.N,/CRSF_RX*%
X30000000Y-54620000D03*
%TD*%
D10*
%TO.N,/TELEM_TX*%
%TO.C,J8*%
X71500000Y-56000000D03*
D11*
%TO.N,/GND*%
X74040000Y-56000000D03*
%TO.N,/3V3*%
X76580000Y-56000000D03*
%TD*%
D10*
%TO.N,/BOOT0*%
%TO.C,J2*%
X30000000Y-12000000D03*
D11*
%TO.N,/3V3*%
X30000000Y-14540000D03*
%TD*%
D10*
%TO.N,/3V3*%
%TO.C,J6*%
X62000000Y-47000000D03*
D11*
%TO.N,/SWDIO*%
X62000000Y-49540000D03*
%TO.N,/SWCLK*%
X62000000Y-52080000D03*
%TO.N,/NRST*%
X62000000Y-54620000D03*
%TO.N,/GND*%
X62000000Y-57160000D03*
%TD*%
D10*
%TO.N,/5V_RX*%
%TO.C,J7*%
X71000000Y-48000000D03*
D11*
%TO.N,/GND*%
X73540000Y-48000000D03*
%TD*%
D14*
%TO.N,/5V_RX*%
X5024100Y-15025900D03*
X18175000Y-15172800D03*
%TO.N,/VBAT_4S*%
X9944600Y-43895800D03*
X17796800Y-30213200D03*
D15*
%TO.N,/EN_UVLO*%
X21760000Y-42100000D03*
X18150000Y-44150000D03*
%TO.N,/USB_DM*%
X63763600Y-29849500D03*
X54591700Y-30081700D03*
X66911200Y-22276300D03*
%TO.N,/USB_DM_MCU*%
X41902600Y-28521100D03*
X52406600Y-30083400D03*
D16*
%TO.N,/3V3*%
X50825000Y-22950000D03*
D17*
X51630000Y-24650000D03*
X30530000Y-32250000D03*
D15*
X44370200Y-42280500D03*
D17*
X25800000Y-24280000D03*
X31750000Y-33580000D03*
D15*
X22200000Y-46100000D03*
X13273800Y-6103300D03*
D16*
X32250000Y-35975000D03*
D15*
X23600000Y-49136000D03*
X42392700Y-36757000D03*
D16*
X29025000Y-32250000D03*
X27900000Y-26375000D03*
D14*
X17205800Y-9176200D03*
D17*
%TO.N,/GND*%
X27430000Y-33350000D03*
X30450000Y-22730000D03*
D16*
X48750000Y-24450000D03*
D15*
X47800000Y-57400000D03*
D14*
X20916300Y-8966300D03*
X34589500Y-41466400D03*
X7914200Y-12612000D03*
D15*
X50826700Y-20384000D03*
D14*
X22178000Y-30423000D03*
D15*
X50062500Y-53600000D03*
D16*
X31750000Y-24025000D03*
D14*
X15554600Y-47986900D03*
X19825000Y-19641000D03*
X53806500Y-37553800D03*
X62527000Y-24149200D03*
D16*
X29025000Y-31750000D03*
D14*
X45752800Y-29452000D03*
X24943100Y-40861000D03*
X40740800Y-43592700D03*
D16*
X31750000Y-35825000D03*
D15*
%TO.N,/EXP_I2C_SCL*%
X37250000Y-34437000D03*
%TO.N,/EXP_I2C_SDA*%
X38173500Y-34445900D03*
%TO.N,/EXP_SPI_SCK*%
X43356800Y-33150500D03*
%TO.N,/EXP_SPI_MOSI*%
X43210300Y-31833300D03*
%TO.N,/EXP_SPI_MISO*%
X44453500Y-30720200D03*
%TO.N,/EXP_SPI_CS1*%
X28032500Y-32064100D03*
%TO.N,/EXP_SPI_CS2*%
X31757900Y-30163300D03*
%TO.N,/EXP_UART_RX*%
X37250000Y-23069400D03*
%TO.N,/EXP_IRQ1*%
X30571000Y-30671000D03*
%TO.N,/EXP_IRQ2*%
X34417800Y-30981000D03*
D14*
%TO.N,/BOOST_SW*%
X12831600Y-12168400D03*
X5862500Y-6042100D03*
D15*
%TO.N,/BOOT0*%
X33708600Y-25862500D03*
X26642000Y-26571700D03*
%TO.N,/NRST*%
X39094000Y-30383500D03*
X46399100Y-37474800D03*
%TO.N,/COMP_NODE*%
X17812100Y-44965800D03*
X10282500Y-50207500D03*
%TO.N,/VFB*%
X19207600Y-47542000D03*
X25899200Y-39409200D03*
%TO.N,/VBAT_SENSE*%
X19325000Y-29282100D03*
X28118800Y-34066000D03*
X18500000Y-33734300D03*
%TO.N,/BUZZER_GPIO*%
X42175000Y-29600000D03*
X45500000Y-51000000D03*
%TO.N,/CC1*%
X68169400Y-30849500D03*
X57084800Y-34405200D03*
%TO.N,/USB_VBUS*%
X68605100Y-25129300D03*
%TO.N,/USB_DP*%
X66910600Y-25723100D03*
%TO.N,/CC2*%
X57290500Y-31991100D03*
%TO.N,/M1*%
X34251100Y-23086100D03*
X35934200Y-26063100D03*
%TO.N,/M2*%
X37545400Y-26315400D03*
%TO.N,/M3*%
X32751100Y-23097000D03*
%TO.N,/M4*%
X32938200Y-26002300D03*
%TO.N,/VCAP2*%
X25471800Y-26506000D03*
X37023200Y-26856300D03*
%TO.N,/VFB_5V*%
X6617100Y-9704600D03*
X19110200Y-13285200D03*
%TO.N,/SW_NODE*%
X14356500Y-40790800D03*
D14*
X9905600Y-45635000D03*
D15*
X20300000Y-43102500D03*
%TO.N,/SS_NODE*%
X15446100Y-51573900D03*
X14567600Y-41964200D03*
%TO.N,/CRSF_TX*%
X37199500Y-29673100D03*
%TO.N,/CRSF_RX*%
X37240300Y-28921300D03*
%TO.N,/VCAP1*%
X37681800Y-37784600D03*
X29530400Y-34373300D03*
X26898500Y-31396600D03*
%TO.N,/HSE_IN*%
X23115300Y-35335100D03*
X31053300Y-38820700D03*
X26758300Y-29383400D03*
%TO.N,/SPI1_CS*%
X32750000Y-34428400D03*
X46769000Y-24841600D03*
%TO.N,/SPI1_MISO*%
X46803100Y-25605400D03*
X33750000Y-34441600D03*
%TO.N,/MPU_INT*%
X49249900Y-24883400D03*
X34748400Y-34443600D03*
%TO.N,/MPU_CPOUT*%
X48750000Y-19169600D03*
X45681800Y-30640200D03*
%TO.N,/SPI1_SCK*%
X33250000Y-36919300D03*
X47249900Y-19161300D03*
%TO.N,/SPI1_MOSI*%
X34250000Y-36910300D03*
X42812200Y-25011700D03*
X46157300Y-19457300D03*
%TO.N,/TELEM_TX*%
X44839100Y-24406100D03*
%TO.N,/SWDIO*%
X42410300Y-27174700D03*
%TO.N,/SWCLK*%
X39379400Y-24386000D03*
%TO.N,/USB_DP_MCU*%
X41908000Y-27750000D03*
X52260100Y-27176000D03*
%TD*%
%TO.N,/5V_RX*%
D18*
X18440400Y-15172800D02*
X28022900Y-5590300D01*
X18175000Y-15172800D02*
X18440400Y-15172800D01*
X28022900Y-5590300D02*
X72070300Y-5590300D01*
X72070300Y-5590300D02*
X73480000Y-7000000D01*
X18175000Y-15172800D02*
X5171000Y-15172800D01*
X5171000Y-15172800D02*
X5024100Y-15025900D01*
%TO.N,/VBAT_4S*%
X17796800Y-30213200D02*
X16658300Y-31351700D01*
X7351700Y-31351700D02*
X6000000Y-30000000D01*
X16658300Y-31351700D02*
X7351700Y-31351700D01*
%TO.N,/USB_DM*%
D19*
X63763600Y-29849500D02*
X54823900Y-29849500D01*
X54823900Y-29849500D02*
X54591700Y-30081700D01*
%TO.N,/USB_DM_MCU*%
X41902600Y-28521100D02*
X50844300Y-28521100D01*
X50844300Y-28521100D02*
X52406600Y-30083400D01*
%TO.N,/EXP_SPI_CS2*%
X31713900Y-30119300D02*
X31757900Y-30163300D01*
X24893000Y-26249300D02*
X24893000Y-26733400D01*
X28278900Y-30119300D02*
X31713900Y-30119300D01*
X24893000Y-26733400D02*
X28278900Y-30119300D01*
X61703600Y-8616400D02*
X42525900Y-8616400D01*
X42525900Y-8616400D02*
X24893000Y-26249300D01*
X63320000Y-7000000D02*
X61703600Y-8616400D01*
%TO.N,/EXP_UART_RX*%
X49790600Y-23069400D02*
X37250000Y-23069400D01*
X65860000Y-7000000D02*
X49790600Y-23069400D01*
%TO.N,/EXP_IRQ1*%
X30622600Y-30722600D02*
X30571000Y-30671000D01*
X68400000Y-7000000D02*
X51898900Y-23501100D01*
X33522800Y-30429300D02*
X33229500Y-30722600D01*
X51898900Y-23501100D02*
X41217800Y-23501100D01*
X34289600Y-30429300D02*
X33522800Y-30429300D01*
X33229500Y-30722600D02*
X30622600Y-30722600D01*
X41217800Y-23501100D02*
X34289600Y-30429300D01*
%TO.N,/EXP_IRQ2*%
X54087200Y-23852800D02*
X41473700Y-23852800D01*
X70940000Y-7000000D02*
X54087200Y-23852800D01*
X34417800Y-30908700D02*
X34417800Y-30981000D01*
X41473700Y-23852800D02*
X34417800Y-30908700D01*
%TO.N,/BOOT0*%
X26642000Y-26571700D02*
X27763400Y-25450300D01*
X27763400Y-25450300D02*
X33296400Y-25450300D01*
X33296400Y-25450300D02*
X33708600Y-25862500D01*
%TO.N,/COMP_NODE*%
X17812100Y-44965800D02*
X15524200Y-44965800D01*
X15524200Y-44965800D02*
X10282500Y-50207500D01*
%TO.N,/VBAT_SENSE*%
X27579100Y-34605700D02*
X19371400Y-34605700D01*
X19371400Y-34605700D02*
X18500000Y-33734300D01*
X28118800Y-34066000D02*
X27579100Y-34605700D01*
%TO.N,/CC1*%
X56696100Y-31773300D02*
X56696100Y-34016500D01*
X56696100Y-34016500D02*
X57084800Y-34405200D01*
X68169400Y-30849500D02*
X57619900Y-30849500D01*
X57619900Y-30849500D02*
X56696100Y-31773300D01*
%TO.N,/USB_VBUS*%
X70290000Y-31200000D02*
X70217300Y-31200000D01*
X70217300Y-31200000D02*
X69706300Y-30689000D01*
X69706300Y-30689000D02*
X69706300Y-29253000D01*
X69706300Y-29253000D02*
X70159300Y-28800000D01*
X70159300Y-28800000D02*
X70290000Y-28800000D01*
%TO.N,/CC2*%
X70990000Y-29200000D02*
X71906300Y-30116300D01*
X71906300Y-30116300D02*
X71906300Y-34447700D01*
X71906300Y-34447700D02*
X71518300Y-34835700D01*
X60135100Y-34835700D02*
X57290500Y-31991100D01*
X71518300Y-34835700D02*
X60135100Y-34835700D01*
%TO.N,/VCAP2*%
X36746300Y-27133200D02*
X37023200Y-26856300D01*
X25471800Y-26506000D02*
X26099000Y-27133200D01*
X26099000Y-27133200D02*
X36746300Y-27133200D01*
%TO.N,/VFB_5V*%
X15529600Y-9704600D02*
X19110200Y-13285200D01*
X6617100Y-9704600D02*
X15529600Y-9704600D01*
%TO.N,/SW_NODE*%
D18*
X17988300Y-40790800D02*
X20300000Y-43102500D01*
X14356500Y-40790800D02*
X17988300Y-40790800D01*
%TO.N,/VCAP1*%
D19*
X32941700Y-37784600D02*
X29530400Y-34373300D01*
X37681800Y-37784600D02*
X32941700Y-37784600D01*
%TO.N,/HSE_IN*%
X23115300Y-35335100D02*
X26600900Y-38820700D01*
X26600900Y-38820700D02*
X31053300Y-38820700D01*
%TO.N,/SPI1_CS*%
X46047200Y-25563400D02*
X46769000Y-24841600D01*
X32750000Y-34428400D02*
X34129700Y-33048700D01*
X42628200Y-25563400D02*
X46047200Y-25563400D01*
X35142900Y-33048700D02*
X42628200Y-25563400D01*
X34129700Y-33048700D02*
X35142900Y-33048700D01*
%TO.N,/SPI1_MISO*%
X46493400Y-25915100D02*
X42782300Y-25915100D01*
X34716700Y-33474900D02*
X33750000Y-34441600D01*
X42782300Y-25915100D02*
X35222500Y-33474900D01*
X35222500Y-33474900D02*
X34716700Y-33474900D01*
X46803100Y-25605400D02*
X46493400Y-25915100D01*
%TO.N,/MPU_INT*%
X50799200Y-24883400D02*
X52968800Y-27053000D01*
X52968800Y-30355800D02*
X49439400Y-33885200D01*
X35306800Y-33885200D02*
X34748400Y-34443600D01*
X49249900Y-24883400D02*
X50799200Y-24883400D01*
X52968800Y-27053000D02*
X52968800Y-30355800D01*
X49439400Y-33885200D02*
X35306800Y-33885200D01*
%TO.N,/SPI1_MOSI*%
X35250600Y-32402200D02*
X42641100Y-25011700D01*
X34250000Y-36910300D02*
X32171600Y-34831900D01*
X33994700Y-32402200D02*
X35250600Y-32402200D01*
X32171600Y-34225300D02*
X33994700Y-32402200D01*
X42641100Y-25011700D02*
X42812200Y-25011700D01*
X32171600Y-34831900D02*
X32171600Y-34225300D01*
%TO.N,/USB_DP_MCU*%
X51686100Y-27750000D02*
X52260100Y-27176000D01*
X41908000Y-27750000D02*
X51686100Y-27750000D01*
%TD*%
%TA.AperFunction,Conductor*%
%TO.N,/3V3*%
G36*
X32330157Y-35557616D02*
G01*
X32337847Y-35564540D01*
X32708907Y-35935600D01*
X32999774Y-36226467D01*
X33027551Y-36280984D01*
X33017980Y-36341416D01*
X32979270Y-36382207D01*
X32881286Y-36438778D01*
X32769480Y-36550584D01*
X32690423Y-36687516D01*
X32675757Y-36742252D01*
X32642433Y-36793566D01*
X32585311Y-36815493D01*
X32526211Y-36799657D01*
X32510127Y-36786633D01*
X32037801Y-36314308D01*
X32010023Y-36259791D01*
X32019594Y-36199359D01*
X32037798Y-36174303D01*
X32110489Y-36101613D01*
X32169799Y-35998886D01*
X32200500Y-35884309D01*
X32200500Y-35765691D01*
X32172227Y-35660175D01*
X32175430Y-35599076D01*
X32213935Y-35551526D01*
X32273035Y-35535690D01*
X32330157Y-35557616D01*
G37*
%TD.AperFunction*%
%TA.AperFunction,Conductor*%
G36*
X32296891Y-25869707D02*
G01*
X32332855Y-25919207D01*
X32337700Y-25949800D01*
X32337700Y-26081357D01*
X32378623Y-26234084D01*
X32457680Y-26371016D01*
X32569484Y-26482820D01*
X32682318Y-26547964D01*
X32723258Y-26593433D01*
X32729654Y-26654283D01*
X32699061Y-26707271D01*
X32643166Y-26732158D01*
X32632817Y-26732700D01*
X27341500Y-26732700D01*
X27283309Y-26713793D01*
X27247345Y-26664293D01*
X27242500Y-26633700D01*
X27242500Y-26578601D01*
X27261407Y-26520410D01*
X27271496Y-26508597D01*
X27900297Y-25879796D01*
X27954814Y-25852019D01*
X27970301Y-25850800D01*
X32238700Y-25850800D01*
X32296891Y-25869707D01*
G37*
%TD.AperFunction*%
%TA.AperFunction,Conductor*%
G36*
X67429714Y-6209707D02*
G01*
X67465678Y-6259207D01*
X67465678Y-6320393D01*
X67451617Y-6347987D01*
X67432787Y-6373906D01*
X67416002Y-6397008D01*
X67333788Y-6558362D01*
X67277828Y-6730593D01*
X67249500Y-6909450D01*
X67249500Y-7090549D01*
X67277828Y-7269406D01*
X67329309Y-7427851D01*
X67329308Y-7489036D01*
X67305158Y-7528447D01*
X51762003Y-23071604D01*
X51707486Y-23099381D01*
X51691999Y-23100600D01*
X50564801Y-23100600D01*
X50506610Y-23081693D01*
X50470646Y-23032193D01*
X50470646Y-22971007D01*
X50494797Y-22931596D01*
X54200877Y-19225516D01*
X65331552Y-8094839D01*
X65386067Y-8067064D01*
X65432146Y-8070690D01*
X65444627Y-8074745D01*
X65590591Y-8122171D01*
X65655093Y-8132387D01*
X65769451Y-8150500D01*
X65769454Y-8150500D01*
X65950549Y-8150500D01*
X66064907Y-8132387D01*
X66129409Y-8122171D01*
X66301639Y-8066211D01*
X66462994Y-7983996D01*
X66609501Y-7877553D01*
X66737553Y-7749501D01*
X66843996Y-7602994D01*
X66926211Y-7441639D01*
X66982171Y-7269409D01*
X67010500Y-7090546D01*
X67010500Y-6909454D01*
X67010500Y-6909450D01*
X66984073Y-6742599D01*
X66982171Y-6730591D01*
X66926211Y-6558361D01*
X66843996Y-6397006D01*
X66808383Y-6347989D01*
X66789477Y-6289800D01*
X66808384Y-6231609D01*
X66857884Y-6195645D01*
X66888477Y-6190800D01*
X67371523Y-6190800D01*
X67429714Y-6209707D01*
G37*
%TD.AperFunction*%
%TA.AperFunction,Conductor*%
G36*
X77959191Y-2018907D02*
G01*
X77995155Y-2068407D01*
X78000000Y-2099000D01*
X78000000Y-25258023D01*
X77981093Y-25316214D01*
X77931593Y-25352178D01*
X77870407Y-25352178D01*
X77820907Y-25316214D01*
X77809536Y-25295908D01*
X77760777Y-25178193D01*
X77760771Y-25178182D01*
X77684114Y-25063458D01*
X77586541Y-24965885D01*
X77471817Y-24889228D01*
X77471806Y-24889222D01*
X77344328Y-24836420D01*
X77208995Y-24809500D01*
X77208993Y-24809500D01*
X76471007Y-24809500D01*
X76471004Y-24809500D01*
X76335672Y-24836420D01*
X76335670Y-24836420D01*
X76208193Y-24889222D01*
X76208182Y-24889228D01*
X76093458Y-24965885D01*
X75995885Y-25063458D01*
X75919228Y-25178182D01*
X75919222Y-25178193D01*
X75866420Y-25305670D01*
X75866420Y-25305672D01*
X75839500Y-25441004D01*
X75839500Y-25578995D01*
X75854357Y-25653684D01*
X75862712Y-25695689D01*
X75866420Y-25714327D01*
X75866420Y-25714329D01*
X75919222Y-25841806D01*
X75919228Y-25841817D01*
X75995885Y-25956541D01*
X76093458Y-26054114D01*
X76208182Y-26130771D01*
X76208193Y-26130777D01*
X76255283Y-26150282D01*
X76335672Y-26183580D01*
X76471007Y-26210500D01*
X76471008Y-26210500D01*
X77208992Y-26210500D01*
X77208993Y-26210500D01*
X77344328Y-26183580D01*
X77471811Y-26130775D01*
X77586542Y-26054114D01*
X77684114Y-25956542D01*
X77760775Y-25841811D01*
X77809536Y-25724090D01*
X77849272Y-25677565D01*
X77908767Y-25663281D01*
X77965295Y-25686695D01*
X77997265Y-25738864D01*
X78000000Y-25761976D01*
X78000000Y-34238023D01*
X77981093Y-34296214D01*
X77931593Y-34332178D01*
X77870407Y-34332178D01*
X77820907Y-34296214D01*
X77809536Y-34275908D01*
X77760777Y-34158193D01*
X77760771Y-34158182D01*
X77684114Y-34043458D01*
X77586541Y-33945885D01*
X77471817Y-33869228D01*
X77471806Y-33869222D01*
X77344328Y-33816420D01*
X77208995Y-33789500D01*
X77208993Y-33789500D01*
X76471007Y-33789500D01*
X76471004Y-33789500D01*
X76335672Y-33816420D01*
X76335670Y-33816420D01*
X76208193Y-33869222D01*
X76208182Y-33869228D01*
X76093458Y-33945885D01*
X75995885Y-34043458D01*
X75919228Y-34158182D01*
X75919222Y-34158193D01*
X75866420Y-34285670D01*
X75866420Y-34285672D01*
X75839500Y-34421004D01*
X75839500Y-34558995D01*
X75866420Y-34694327D01*
X75866420Y-34694329D01*
X75919222Y-34821806D01*
X75919228Y-34821817D01*
X75995885Y-34936541D01*
X76093458Y-35034114D01*
X76208182Y-35110771D01*
X76208193Y-35110777D01*
X76255283Y-35130282D01*
X76335672Y-35163580D01*
X76471007Y-35190500D01*
X76471008Y-35190500D01*
X77208992Y-35190500D01*
X77208993Y-35190500D01*
X77344328Y-35163580D01*
X77471811Y-35110775D01*
X77586542Y-35034114D01*
X77684114Y-34936542D01*
X77760775Y-34821811D01*
X77809536Y-34704090D01*
X77849272Y-34657565D01*
X77908767Y-34643281D01*
X77965295Y-34666695D01*
X77997265Y-34718864D01*
X78000000Y-34741976D01*
X78000000Y-55400913D01*
X77981093Y-55459104D01*
X77931593Y-55495068D01*
X77870407Y-55495068D01*
X77820907Y-55459104D01*
X77812790Y-55445858D01*
X77734623Y-55292446D01*
X77734619Y-55292440D01*
X77695270Y-55238282D01*
X77695269Y-55238282D01*
X77062962Y-55870589D01*
X77045925Y-55807007D01*
X76980099Y-55692993D01*
X76887007Y-55599901D01*
X76772993Y-55534075D01*
X76709407Y-55517037D01*
X77341716Y-54884729D01*
X77341716Y-54884728D01*
X77287559Y-54845380D01*
X77287553Y-54845376D01*
X77098215Y-54748904D01*
X76896121Y-54683240D01*
X76686250Y-54650000D01*
X76473750Y-54650000D01*
X76263878Y-54683240D01*
X76061784Y-54748904D01*
X75872446Y-54845376D01*
X75872442Y-54845378D01*
X75818282Y-54884728D01*
X76450591Y-55517037D01*
X76387007Y-55534075D01*
X76272993Y-55599901D01*
X76179901Y-55692993D01*
X76114075Y-55807007D01*
X76097037Y-55870591D01*
X75464728Y-55238282D01*
X75425378Y-55292442D01*
X75425376Y-55292446D01*
X75328904Y-55481784D01*
X75299272Y-55572984D01*
X75263308Y-55622484D01*
X75205117Y-55641391D01*
X75146926Y-55622484D01*
X75110962Y-55572984D01*
X75110962Y-55572983D01*
X75106211Y-55558362D01*
X75106211Y-55558361D01*
X75023996Y-55397006D01*
X74917553Y-55250499D01*
X74789501Y-55122447D01*
X74642994Y-55016004D01*
X74642990Y-55016001D01*
X74642988Y-55016000D01*
X74632527Y-55010670D01*
X74632526Y-55010670D01*
X74481637Y-54933788D01*
X74309406Y-54877828D01*
X74130549Y-54849500D01*
X74130546Y-54849500D01*
X73949454Y-54849500D01*
X73949451Y-54849500D01*
X73770593Y-54877828D01*
X73598362Y-54933788D01*
X73437008Y-55016002D01*
X73374197Y-55061637D01*
X73290499Y-55122447D01*
X73162447Y-55250499D01*
X73131975Y-55292440D01*
X73056002Y-55397008D01*
X72973788Y-55558362D01*
X72917828Y-55730593D01*
X72889500Y-55909450D01*
X72889500Y-56090549D01*
X72917828Y-56269406D01*
X72973788Y-56441637D01*
X73054012Y-56599086D01*
X73056004Y-56602994D01*
X73162447Y-56749501D01*
X73290499Y-56877553D01*
X73437006Y-56983996D01*
X73598361Y-57066211D01*
X73770591Y-57122171D01*
X73842136Y-57133502D01*
X73949451Y-57150500D01*
X73949454Y-57150500D01*
X74130549Y-57150500D01*
X74219977Y-57136335D01*
X74309409Y-57122171D01*
X74481639Y-57066211D01*
X74481642Y-57066209D01*
X74481646Y-57066208D01*
X74585608Y-57013235D01*
X74632527Y-56989329D01*
X74632530Y-56989328D01*
X74636166Y-56987474D01*
X74642994Y-56983996D01*
X74789501Y-56877553D01*
X74917553Y-56749501D01*
X75023996Y-56602994D01*
X75106211Y-56441639D01*
X75110962Y-56427018D01*
X75146924Y-56377517D01*
X75205115Y-56358608D01*
X75263306Y-56377514D01*
X75299271Y-56427013D01*
X75299272Y-56427015D01*
X75328904Y-56518215D01*
X75425376Y-56707553D01*
X75425380Y-56707559D01*
X75464728Y-56761716D01*
X75464729Y-56761716D01*
X76097037Y-56129407D01*
X76114075Y-56192993D01*
X76179901Y-56307007D01*
X76272993Y-56400099D01*
X76387007Y-56465925D01*
X76450589Y-56482962D01*
X75818282Y-57115269D01*
X75818282Y-57115270D01*
X75872440Y-57154619D01*
X75872446Y-57154623D01*
X76061784Y-57251095D01*
X76263878Y-57316759D01*
X76473750Y-57350000D01*
X76686250Y-57350000D01*
X76896121Y-57316759D01*
X77098215Y-57251095D01*
X77287556Y-57154620D01*
X77341716Y-57115270D01*
X76709408Y-56482962D01*
X76772993Y-56465925D01*
X76887007Y-56400099D01*
X76980099Y-56307007D01*
X77045925Y-56192993D01*
X77062962Y-56129408D01*
X77695270Y-56761716D01*
X77734620Y-56707556D01*
X77812790Y-56554141D01*
X77856055Y-56510876D01*
X77916487Y-56501305D01*
X77971004Y-56529082D01*
X77998781Y-56583599D01*
X78000000Y-56599086D01*
X78000000Y-57901000D01*
X77981093Y-57959191D01*
X77931593Y-57995155D01*
X77901000Y-58000000D01*
X63006099Y-58000000D01*
X62947908Y-57981093D01*
X62911944Y-57931593D01*
X62911944Y-57870407D01*
X62926007Y-57842809D01*
X62934590Y-57830996D01*
X62983996Y-57762994D01*
X63066211Y-57601639D01*
X63122171Y-57429409D01*
X63142311Y-57302248D01*
X63150500Y-57250549D01*
X63150500Y-57069450D01*
X63126827Y-56919988D01*
X63122171Y-56890591D01*
X63066211Y-56718361D01*
X62983996Y-56557006D01*
X62877553Y-56410499D01*
X62749501Y-56282447D01*
X62602994Y-56176004D01*
X62602993Y-56176003D01*
X62602991Y-56176002D01*
X62441637Y-56093788D01*
X62269406Y-56037828D01*
X62090549Y-56009500D01*
X62090546Y-56009500D01*
X61909454Y-56009500D01*
X61909451Y-56009500D01*
X61730593Y-56037828D01*
X61558362Y-56093788D01*
X61397008Y-56176002D01*
X61323752Y-56229225D01*
X61250499Y-56282447D01*
X61122447Y-56410499D01*
X61099824Y-56441637D01*
X61016002Y-56557008D01*
X60933788Y-56718362D01*
X60877828Y-56890593D01*
X60849500Y-57069450D01*
X60849500Y-57250549D01*
X60877828Y-57429406D01*
X60933788Y-57601637D01*
X61016003Y-57762993D01*
X61016007Y-57762999D01*
X61073993Y-57842809D01*
X61092901Y-57901000D01*
X61073994Y-57959190D01*
X61024494Y-57995154D01*
X60993901Y-58000000D01*
X58789141Y-58000000D01*
X58730950Y-57981093D01*
X58694986Y-57931593D01*
X58691340Y-57913259D01*
X58691109Y-57913296D01*
X58662171Y-57730593D01*
X58662171Y-57730591D01*
X58606211Y-57558361D01*
X58523996Y-57397006D01*
X58417553Y-57250499D01*
X58289501Y-57122447D01*
X58142994Y-57016004D01*
X58142993Y-57016003D01*
X58142991Y-57016002D01*
X57981637Y-56933788D01*
X57809406Y-56877828D01*
X57630549Y-56849500D01*
X57630546Y-56849500D01*
X57449454Y-56849500D01*
X57449451Y-56849500D01*
X57270593Y-56877828D01*
X57098362Y-56933788D01*
X56937008Y-57016002D01*
X56867906Y-57066208D01*
X56790499Y-57122447D01*
X56662447Y-57250499D01*
X56614307Y-57316759D01*
X56556002Y-57397008D01*
X56473788Y-57558362D01*
X56417828Y-57730593D01*
X56388891Y-57913296D01*
X56387751Y-57913115D01*
X56366142Y-57965292D01*
X56313974Y-57997264D01*
X56290859Y-58000000D01*
X56249499Y-58000000D01*
X56191308Y-57981093D01*
X56155344Y-57931593D01*
X56150499Y-57901000D01*
X56150499Y-57105139D01*
X56150499Y-57105136D01*
X56147585Y-57080009D01*
X56102206Y-56977235D01*
X56022765Y-56897794D01*
X55919991Y-56852415D01*
X55919990Y-56852414D01*
X55919988Y-56852414D01*
X55894868Y-56849500D01*
X54105139Y-56849500D01*
X54105136Y-56849501D01*
X54080009Y-56852414D01*
X53977235Y-56897794D01*
X53897794Y-56977235D01*
X53852414Y-57080011D01*
X53849500Y-57105130D01*
X53849500Y-57105132D01*
X53849500Y-57105135D01*
X53849500Y-57901001D01*
X53830594Y-57959191D01*
X53781094Y-57995155D01*
X53750501Y-58000000D01*
X48288243Y-58000000D01*
X48230052Y-57981093D01*
X48194088Y-57931593D01*
X48194088Y-57870407D01*
X48218237Y-57830998D01*
X48280520Y-57768716D01*
X48359577Y-57631784D01*
X48400500Y-57479057D01*
X48400500Y-57320943D01*
X48359577Y-57168216D01*
X48280520Y-57031284D01*
X48168716Y-56919480D01*
X48031784Y-56840423D01*
X47879057Y-56799500D01*
X47720943Y-56799500D01*
X47568216Y-56840423D01*
X47431284Y-56919480D01*
X47319480Y-57031284D01*
X47240423Y-57168216D01*
X47199500Y-57320943D01*
X47199500Y-57479057D01*
X47240423Y-57631784D01*
X47319480Y-57768716D01*
X47381762Y-57830998D01*
X47409538Y-57885513D01*
X47399967Y-57945945D01*
X47356702Y-57989210D01*
X47311757Y-58000000D01*
X41006099Y-58000000D01*
X40947908Y-57981093D01*
X40911944Y-57931593D01*
X40911944Y-57870407D01*
X40926007Y-57842809D01*
X40934590Y-57830996D01*
X40983996Y-57762994D01*
X41066211Y-57601639D01*
X41122171Y-57429409D01*
X41142311Y-57302248D01*
X41150500Y-57250549D01*
X41150500Y-57069450D01*
X41126827Y-56919988D01*
X41122171Y-56890591D01*
X41066211Y-56718361D01*
X40983996Y-56557006D01*
X40877553Y-56410499D01*
X40749501Y-56282447D01*
X40602994Y-56176004D01*
X40602993Y-56176003D01*
X40602991Y-56176002D01*
X40441637Y-56093788D01*
X40269406Y-56037828D01*
X40090549Y-56009500D01*
X40090546Y-56009500D01*
X39909454Y-56009500D01*
X39909451Y-56009500D01*
X39730593Y-56037828D01*
X39558362Y-56093788D01*
X39397008Y-56176002D01*
X39323752Y-56229225D01*
X39250499Y-56282447D01*
X39122447Y-56410499D01*
X39099824Y-56441637D01*
X39016002Y-56557008D01*
X38933788Y-56718362D01*
X38877828Y-56890593D01*
X38849500Y-57069450D01*
X38849500Y-57250549D01*
X38877828Y-57429406D01*
X38933788Y-57601637D01*
X39016003Y-57762993D01*
X39016007Y-57762999D01*
X39073993Y-57842809D01*
X39092901Y-57901000D01*
X39073994Y-57959190D01*
X39024494Y-57995154D01*
X38993901Y-58000000D01*
X2099000Y-58000000D01*
X2040809Y-57981093D01*
X2004845Y-57931593D01*
X2000000Y-57901000D01*
X2000000Y-54529450D01*
X28849500Y-54529450D01*
X28849500Y-54710549D01*
X28877828Y-54889406D01*
X28918961Y-55016004D01*
X28933789Y-55061639D01*
X29016004Y-55222994D01*
X29122447Y-55369501D01*
X29250499Y-55497553D01*
X29397006Y-55603996D01*
X29558361Y-55686211D01*
X29730591Y-55742171D01*
X29802136Y-55753502D01*
X29909451Y-55770500D01*
X29909454Y-55770500D01*
X30090549Y-55770500D01*
X30179977Y-55756335D01*
X30269409Y-55742171D01*
X30441639Y-55686211D01*
X30602994Y-55603996D01*
X30749501Y-55497553D01*
X30877553Y-55369501D01*
X30983996Y-55222994D01*
X31066211Y-55061639D01*
X31122171Y-54889409D01*
X31150500Y-54710546D01*
X31150500Y-54529454D01*
X31150500Y-54529450D01*
X38849500Y-54529450D01*
X38849500Y-54710549D01*
X38877828Y-54889406D01*
X38918961Y-55016004D01*
X38933789Y-55061639D01*
X39016004Y-55222994D01*
X39122447Y-55369501D01*
X39250499Y-55497553D01*
X39397006Y-55603996D01*
X39558361Y-55686211D01*
X39730591Y-55742171D01*
X39802136Y-55753502D01*
X39909451Y-55770500D01*
X39909454Y-55770500D01*
X40090549Y-55770500D01*
X40179977Y-55756335D01*
X40269409Y-55742171D01*
X40441639Y-55686211D01*
X40602994Y-55603996D01*
X40749501Y-55497553D01*
X40877553Y-55369501D01*
X40983996Y-55222994D01*
X41066211Y-55061639D01*
X41122171Y-54889409D01*
X41150500Y-54710546D01*
X41150500Y-54529454D01*
X41150500Y-54529450D01*
X60849500Y-54529450D01*
X60849500Y-54710549D01*
X60877828Y-54889406D01*
X60918961Y-55016004D01*
X60933789Y-55061639D01*
X61016004Y-55222994D01*
X61122447Y-55369501D01*
X61250499Y-55497553D01*
X61397006Y-55603996D01*
X61558361Y-55686211D01*
X61730591Y-55742171D01*
X61802136Y-55753502D01*
X61909451Y-55770500D01*
X61909454Y-55770500D01*
X62090549Y-55770500D01*
X62179977Y-55756335D01*
X62269409Y-55742171D01*
X62441639Y-55686211D01*
X62602994Y-55603996D01*
X62749501Y-55497553D01*
X62877553Y-55369501D01*
X62983996Y-55222994D01*
X63044051Y-55105130D01*
X70349500Y-55105130D01*
X70349500Y-56894860D01*
X70349501Y-56894863D01*
X70352414Y-56919990D01*
X70377691Y-56977235D01*
X70397794Y-57022765D01*
X70477235Y-57102206D01*
X70580009Y-57147585D01*
X70605135Y-57150500D01*
X72394864Y-57150499D01*
X72419991Y-57147585D01*
X72522765Y-57102206D01*
X72602206Y-57022765D01*
X72647585Y-56919991D01*
X72650500Y-56894865D01*
X72650499Y-55105136D01*
X72647585Y-55080009D01*
X72602206Y-54977235D01*
X72522765Y-54897794D01*
X72419991Y-54852415D01*
X72419990Y-54852414D01*
X72419988Y-54852414D01*
X72394868Y-54849500D01*
X70605139Y-54849500D01*
X70605136Y-54849501D01*
X70580009Y-54852414D01*
X70477235Y-54897794D01*
X70397794Y-54977235D01*
X70352414Y-55080011D01*
X70349500Y-55105130D01*
X63044051Y-55105130D01*
X63066211Y-55061639D01*
X63122171Y-54889409D01*
X63150500Y-54710546D01*
X63150500Y-54529454D01*
X63150500Y-54529450D01*
X63122171Y-54350593D01*
X63122171Y-54350591D01*
X63066211Y-54178361D01*
X62983996Y-54017006D01*
X62877553Y-53870499D01*
X62749501Y-53742447D01*
X62602994Y-53636004D01*
X62602993Y-53636003D01*
X62602991Y-53636002D01*
X62441637Y-53553788D01*
X62269406Y-53497828D01*
X62090549Y-53469500D01*
X62090546Y-53469500D01*
X61909454Y-53469500D01*
X61909451Y-53469500D01*
X61730593Y-53497828D01*
X61558362Y-53553788D01*
X61397008Y-53636002D01*
X61337751Y-53679055D01*
X61250499Y-53742447D01*
X61122447Y-53870499D01*
X61069225Y-53943752D01*
X61016002Y-54017008D01*
X60933788Y-54178362D01*
X60877828Y-54350593D01*
X60849500Y-54529450D01*
X41150500Y-54529450D01*
X41122171Y-54350593D01*
X41122171Y-54350591D01*
X41066211Y-54178361D01*
X40983996Y-54017006D01*
X40877553Y-53870499D01*
X40749501Y-53742447D01*
X40602994Y-53636004D01*
X40602993Y-53636003D01*
X40602991Y-53636002D01*
X40537561Y-53602664D01*
X40441637Y-53553788D01*
X40340548Y-53520943D01*
X49462000Y-53520943D01*
X49462000Y-53679057D01*
X49502923Y-53831784D01*
X49581980Y-53968716D01*
X49693784Y-54080520D01*
X49830716Y-54159577D01*
X49983443Y-54200500D01*
X49983445Y-54200500D01*
X50141555Y-54200500D01*
X50141557Y-54200500D01*
X50294284Y-54159577D01*
X50431216Y-54080520D01*
X50543020Y-53968716D01*
X50622077Y-53831784D01*
X50663000Y-53679057D01*
X50663000Y-53520943D01*
X50622077Y-53368216D01*
X50543020Y-53231284D01*
X50431216Y-53119480D01*
X50294284Y-53040423D01*
X50141557Y-52999500D01*
X49983443Y-52999500D01*
X49830716Y-53040423D01*
X49693784Y-53119480D01*
X49581980Y-53231284D01*
X49502923Y-53368216D01*
X49462000Y-53520943D01*
X40340548Y-53520943D01*
X40269406Y-53497828D01*
X40090549Y-53469500D01*
X40090546Y-53469500D01*
X39909454Y-53469500D01*
X39909451Y-53469500D01*
X39730593Y-53497828D01*
X39558362Y-53553788D01*
X39397008Y-53636002D01*
X39337751Y-53679055D01*
X39250499Y-53742447D01*
X39122447Y-53870499D01*
X39069225Y-53943752D01*
X39016002Y-54017008D01*
X38933788Y-54178362D01*
X38877828Y-54350593D01*
X38849500Y-54529450D01*
X31150500Y-54529450D01*
X31122171Y-54350593D01*
X31122171Y-54350591D01*
X31066211Y-54178361D01*
X30983996Y-54017006D01*
X30877553Y-53870499D01*
X30749501Y-53742447D01*
X30602994Y-53636004D01*
X30602993Y-53636003D01*
X30602991Y-53636002D01*
X30441637Y-53553788D01*
X30269406Y-53497828D01*
X30090549Y-53469500D01*
X30090546Y-53469500D01*
X29909454Y-53469500D01*
X29909451Y-53469500D01*
X29730593Y-53497828D01*
X29558362Y-53553788D01*
X29397008Y-53636002D01*
X29337751Y-53679055D01*
X29250499Y-53742447D01*
X29122447Y-53870499D01*
X29069225Y-53943752D01*
X29016002Y-54017008D01*
X28933788Y-54178362D01*
X28877828Y-54350593D01*
X28849500Y-54529450D01*
X2000000Y-54529450D01*
X2000000Y-51494843D01*
X14845600Y-51494843D01*
X14845600Y-51652957D01*
X14886523Y-51805684D01*
X14965580Y-51942616D01*
X15077384Y-52054420D01*
X15214316Y-52133477D01*
X15367043Y-52174400D01*
X15367045Y-52174400D01*
X15525155Y-52174400D01*
X15525157Y-52174400D01*
X15677884Y-52133477D01*
X15814816Y-52054420D01*
X15879786Y-51989450D01*
X28849500Y-51989450D01*
X28849500Y-52170549D01*
X28877828Y-52349406D01*
X28877829Y-52349409D01*
X28933789Y-52521639D01*
X29016004Y-52682994D01*
X29122447Y-52829501D01*
X29250499Y-52957553D01*
X29397006Y-53063996D01*
X29558361Y-53146211D01*
X29730591Y-53202171D01*
X29802136Y-53213502D01*
X29909451Y-53230500D01*
X29909454Y-53230500D01*
X30090549Y-53230500D01*
X30179977Y-53216335D01*
X30269409Y-53202171D01*
X30441639Y-53146211D01*
X30602994Y-53063996D01*
X30749501Y-52957553D01*
X30877553Y-52829501D01*
X30983996Y-52682994D01*
X31066211Y-52521639D01*
X31122171Y-52349409D01*
X31150500Y-52170546D01*
X31150500Y-51989454D01*
X31150500Y-51989450D01*
X38849500Y-51989450D01*
X38849500Y-52170549D01*
X38877828Y-52349406D01*
X38877829Y-52349409D01*
X38933789Y-52521639D01*
X39016004Y-52682994D01*
X39122447Y-52829501D01*
X39250499Y-52957553D01*
X39397006Y-53063996D01*
X39558361Y-53146211D01*
X39730591Y-53202171D01*
X39802136Y-53213502D01*
X39909451Y-53230500D01*
X39909454Y-53230500D01*
X40090549Y-53230500D01*
X40179977Y-53216335D01*
X40269409Y-53202171D01*
X40441639Y-53146211D01*
X40602994Y-53063996D01*
X40749501Y-52957553D01*
X40877553Y-52829501D01*
X40983996Y-52682994D01*
X41066211Y-52521639D01*
X41122171Y-52349409D01*
X41150500Y-52170546D01*
X41150500Y-51989454D01*
X41150500Y-51989450D01*
X60849500Y-51989450D01*
X60849500Y-52170549D01*
X60877828Y-52349406D01*
X60877829Y-52349409D01*
X60933789Y-52521639D01*
X61016004Y-52682994D01*
X61122447Y-52829501D01*
X61250499Y-52957553D01*
X61397006Y-53063996D01*
X61558361Y-53146211D01*
X61730591Y-53202171D01*
X61802136Y-53213502D01*
X61909451Y-53230500D01*
X61909454Y-53230500D01*
X62090549Y-53230500D01*
X62179977Y-53216335D01*
X62269409Y-53202171D01*
X62441639Y-53146211D01*
X62602994Y-53063996D01*
X62749501Y-52957553D01*
X62877553Y-52829501D01*
X62983996Y-52682994D01*
X63066211Y-52521639D01*
X63122171Y-52349409D01*
X63150500Y-52170546D01*
X63150500Y-51989454D01*
X63150500Y-51989450D01*
X63122171Y-51810593D01*
X63122171Y-51810591D01*
X63066211Y-51638361D01*
X62983996Y-51477006D01*
X62877553Y-51330499D01*
X62749501Y-51202447D01*
X62602994Y-51096004D01*
X62602993Y-51096003D01*
X62602991Y-51096002D01*
X62441637Y-51013788D01*
X62269406Y-50957828D01*
X62090549Y-50929500D01*
X62090546Y-50929500D01*
X61909454Y-50929500D01*
X61909451Y-50929500D01*
X61730593Y-50957828D01*
X61558362Y-51013788D01*
X61397008Y-51096002D01*
X61323752Y-51149225D01*
X61250499Y-51202447D01*
X61122447Y-51330499D01*
X61114007Y-51342116D01*
X61016002Y-51477008D01*
X60933788Y-51638362D01*
X60877828Y-51810593D01*
X60849500Y-51989450D01*
X41150500Y-51989450D01*
X41122171Y-51810593D01*
X41122171Y-51810591D01*
X41066211Y-51638361D01*
X40983996Y-51477006D01*
X40877553Y-51330499D01*
X40749501Y-51202447D01*
X40602994Y-51096004D01*
X40602993Y-51096003D01*
X40602991Y-51096002D01*
X40441637Y-51013788D01*
X40425697Y-51008609D01*
X40269406Y-50957828D01*
X40090549Y-50929500D01*
X40090546Y-50929500D01*
X39909454Y-50929500D01*
X39909451Y-50929500D01*
X39730593Y-50957828D01*
X39558362Y-51013788D01*
X39397008Y-51096002D01*
X39323752Y-51149225D01*
X39250499Y-51202447D01*
X39122447Y-51330499D01*
X39114007Y-51342116D01*
X39016002Y-51477008D01*
X38933788Y-51638362D01*
X38877828Y-51810593D01*
X38849500Y-51989450D01*
X31150500Y-51989450D01*
X31122171Y-51810593D01*
X31122171Y-51810591D01*
X31066211Y-51638361D01*
X30983996Y-51477006D01*
X30877553Y-51330499D01*
X30749501Y-51202447D01*
X30602994Y-51096004D01*
X30602993Y-51096003D01*
X30602991Y-51096002D01*
X30441637Y-51013788D01*
X30269406Y-50957828D01*
X30090549Y-50929500D01*
X30090546Y-50929500D01*
X29909454Y-50929500D01*
X29909451Y-50929500D01*
X29730593Y-50957828D01*
X29558362Y-51013788D01*
X29397008Y-51096002D01*
X29323752Y-51149225D01*
X29250499Y-51202447D01*
X29122447Y-51330499D01*
X29114007Y-51342116D01*
X29016002Y-51477008D01*
X28933788Y-51638362D01*
X28877828Y-51810593D01*
X28849500Y-51989450D01*
X15879786Y-51989450D01*
X15926620Y-51942616D01*
X16005677Y-51805684D01*
X16046600Y-51652957D01*
X16046600Y-51494843D01*
X16005677Y-51342116D01*
X15926620Y-51205184D01*
X15814816Y-51093380D01*
X15677884Y-51014323D01*
X15525157Y-50973400D01*
X15367043Y-50973400D01*
X15214316Y-51014323D01*
X15077384Y-51093380D01*
X14965580Y-51205184D01*
X14886523Y-51342116D01*
X14845600Y-51494843D01*
X2000000Y-51494843D01*
X2000000Y-50920943D01*
X44899500Y-50920943D01*
X44899500Y-51079057D01*
X44940423Y-51231784D01*
X45019480Y-51368716D01*
X45131284Y-51480520D01*
X45268216Y-51559577D01*
X45420943Y-51600500D01*
X45420945Y-51600500D01*
X45579055Y-51600500D01*
X45579057Y-51600500D01*
X45731784Y-51559577D01*
X45868716Y-51480520D01*
X45980520Y-51368716D01*
X46059577Y-51231784D01*
X46100500Y-51079057D01*
X46100500Y-50920943D01*
X46059577Y-50768216D01*
X45980520Y-50631284D01*
X45868716Y-50519480D01*
X45731784Y-50440423D01*
X45579057Y-50399500D01*
X45420943Y-50399500D01*
X45268216Y-50440423D01*
X45131284Y-50519480D01*
X45019480Y-50631284D01*
X44940423Y-50768216D01*
X44899500Y-50920943D01*
X2000000Y-50920943D01*
X2000000Y-50128443D01*
X9682000Y-50128443D01*
X9682000Y-50286557D01*
X9722923Y-50439284D01*
X9801980Y-50576216D01*
X9913784Y-50688020D01*
X10050716Y-50767077D01*
X10203443Y-50808000D01*
X10203445Y-50808000D01*
X10361555Y-50808000D01*
X10361557Y-50808000D01*
X10514284Y-50767077D01*
X10651216Y-50688020D01*
X10763020Y-50576216D01*
X10842077Y-50439284D01*
X10883000Y-50286557D01*
X10883000Y-50214401D01*
X10901907Y-50156210D01*
X10911996Y-50144397D01*
X13138489Y-47917904D01*
X14854100Y-47917904D01*
X14854100Y-48055895D01*
X14881020Y-48191227D01*
X14881020Y-48191229D01*
X14933822Y-48318706D01*
X14933828Y-48318717D01*
X15010485Y-48433441D01*
X15108058Y-48531014D01*
X15222782Y-48607671D01*
X15222793Y-48607677D01*
X15269883Y-48627182D01*
X15350272Y-48660480D01*
X15485607Y-48687400D01*
X15485608Y-48687400D01*
X15623592Y-48687400D01*
X15623593Y-48687400D01*
X15758928Y-48660480D01*
X15886411Y-48607675D01*
X16001142Y-48531014D01*
X16098714Y-48433442D01*
X16175375Y-48318711D01*
X16228180Y-48191228D01*
X16255100Y-48055893D01*
X16255100Y-47917907D01*
X16228180Y-47782572D01*
X16175375Y-47655089D01*
X16175374Y-47655087D01*
X16175371Y-47655082D01*
X16098714Y-47540358D01*
X16021299Y-47462943D01*
X18607100Y-47462943D01*
X18607100Y-47621057D01*
X18648023Y-47773784D01*
X18727080Y-47910716D01*
X18838884Y-48022520D01*
X18975816Y-48101577D01*
X19128543Y-48142500D01*
X19128545Y-48142500D01*
X19286655Y-48142500D01*
X19286657Y-48142500D01*
X19439384Y-48101577D01*
X19576316Y-48022520D01*
X19688120Y-47910716D01*
X19695563Y-47897824D01*
X28649999Y-47897824D01*
X28656401Y-47957370D01*
X28656403Y-47957381D01*
X28706646Y-48092088D01*
X28706647Y-48092090D01*
X28792807Y-48207184D01*
X28792815Y-48207192D01*
X28907909Y-48293352D01*
X28907911Y-48293353D01*
X29042618Y-48343596D01*
X29042629Y-48343598D01*
X29102176Y-48350000D01*
X29388946Y-48350000D01*
X29447137Y-48368907D01*
X29483101Y-48418407D01*
X29483101Y-48479593D01*
X29447137Y-48529093D01*
X29433891Y-48537210D01*
X29397008Y-48556002D01*
X29332334Y-48602991D01*
X29250499Y-48662447D01*
X29122447Y-48790499D01*
X29069225Y-48863752D01*
X29016002Y-48937008D01*
X28933788Y-49098362D01*
X28877828Y-49270593D01*
X28849500Y-49449450D01*
X28849500Y-49630549D01*
X28877828Y-49809406D01*
X28933788Y-49981637D01*
X29008589Y-50128443D01*
X29016004Y-50142994D01*
X29122447Y-50289501D01*
X29250499Y-50417553D01*
X29397006Y-50523996D01*
X29558361Y-50606211D01*
X29730591Y-50662171D01*
X29802136Y-50673502D01*
X29909451Y-50690500D01*
X29909454Y-50690500D01*
X30090549Y-50690500D01*
X30179977Y-50676335D01*
X30269409Y-50662171D01*
X30441639Y-50606211D01*
X30602994Y-50523996D01*
X30749501Y-50417553D01*
X30877553Y-50289501D01*
X30983996Y-50142994D01*
X31066211Y-49981639D01*
X31122171Y-49809409D01*
X31150500Y-49630546D01*
X31150500Y-49449454D01*
X31150500Y-49449450D01*
X38849500Y-49449450D01*
X38849500Y-49630549D01*
X38877828Y-49809406D01*
X38933788Y-49981637D01*
X39008589Y-50128443D01*
X39016004Y-50142994D01*
X39122447Y-50289501D01*
X39250499Y-50417553D01*
X39397006Y-50523996D01*
X39558361Y-50606211D01*
X39730591Y-50662171D01*
X39802136Y-50673502D01*
X39909451Y-50690500D01*
X39909454Y-50690500D01*
X40090549Y-50690500D01*
X40179977Y-50676335D01*
X40269409Y-50662171D01*
X40441639Y-50606211D01*
X40602994Y-50523996D01*
X40749501Y-50417553D01*
X40877553Y-50289501D01*
X40983996Y-50142994D01*
X41066211Y-49981639D01*
X41122171Y-49809409D01*
X41150500Y-49630546D01*
X41150500Y-49449454D01*
X41150500Y-49449450D01*
X41122171Y-49270593D01*
X41122171Y-49270591D01*
X41066211Y-49098361D01*
X40983996Y-48937006D01*
X40877553Y-48790499D01*
X40749501Y-48662447D01*
X40602994Y-48556004D01*
X40602993Y-48556003D01*
X40602991Y-48556002D01*
X40441637Y-48473788D01*
X40269406Y-48417828D01*
X40090549Y-48389500D01*
X40090546Y-48389500D01*
X39909454Y-48389500D01*
X39909451Y-48389500D01*
X39730593Y-48417828D01*
X39558362Y-48473788D01*
X39397008Y-48556002D01*
X39332334Y-48602991D01*
X39250499Y-48662447D01*
X39122447Y-48790499D01*
X39069225Y-48863752D01*
X39016002Y-48937008D01*
X38933788Y-49098362D01*
X38877828Y-49270593D01*
X38849500Y-49449450D01*
X31150500Y-49449450D01*
X31122171Y-49270593D01*
X31122171Y-49270591D01*
X31066211Y-49098361D01*
X30983996Y-48937006D01*
X30877553Y-48790499D01*
X30749501Y-48662447D01*
X30602994Y-48556004D01*
X30602993Y-48556003D01*
X30602991Y-48556002D01*
X30566109Y-48537210D01*
X30522844Y-48493945D01*
X30513273Y-48433513D01*
X30541051Y-48378996D01*
X30595567Y-48351219D01*
X30611054Y-48350000D01*
X30897824Y-48350000D01*
X30957370Y-48343598D01*
X30957381Y-48343596D01*
X31092088Y-48293353D01*
X31092090Y-48293352D01*
X31207184Y-48207192D01*
X31207192Y-48207184D01*
X31293352Y-48092090D01*
X31293353Y-48092088D01*
X31343596Y-47957381D01*
X31343598Y-47957370D01*
X31350000Y-47897824D01*
X31350000Y-47250001D01*
X31349999Y-47250000D01*
X30433012Y-47250000D01*
X30465925Y-47192993D01*
X30500000Y-47065826D01*
X30500000Y-46934174D01*
X30465925Y-46807007D01*
X30433012Y-46750000D01*
X31349999Y-46750000D01*
X31350000Y-46749999D01*
X31350000Y-46105130D01*
X38849500Y-46105130D01*
X38849500Y-47894860D01*
X38849501Y-47894863D01*
X38852414Y-47919990D01*
X38868919Y-47957370D01*
X38897794Y-48022765D01*
X38977235Y-48102206D01*
X39080009Y-48147585D01*
X39105135Y-48150500D01*
X40894864Y-48150499D01*
X40919991Y-48147585D01*
X41022765Y-48102206D01*
X41102206Y-48022765D01*
X41147585Y-47919991D01*
X41150157Y-47897824D01*
X60649999Y-47897824D01*
X60656401Y-47957370D01*
X60656403Y-47957381D01*
X60706646Y-48092088D01*
X60706647Y-48092090D01*
X60792807Y-48207184D01*
X60792815Y-48207192D01*
X60907909Y-48293352D01*
X60907911Y-48293353D01*
X61042618Y-48343596D01*
X61042629Y-48343598D01*
X61102176Y-48350000D01*
X61388946Y-48350000D01*
X61447137Y-48368907D01*
X61483101Y-48418407D01*
X61483101Y-48479593D01*
X61447137Y-48529093D01*
X61433891Y-48537210D01*
X61397008Y-48556002D01*
X61332334Y-48602991D01*
X61250499Y-48662447D01*
X61122447Y-48790499D01*
X61069225Y-48863752D01*
X61016002Y-48937008D01*
X60933788Y-49098362D01*
X60877828Y-49270593D01*
X60849500Y-49449450D01*
X60849500Y-49630549D01*
X60877828Y-49809406D01*
X60933788Y-49981637D01*
X61008589Y-50128443D01*
X61016004Y-50142994D01*
X61122447Y-50289501D01*
X61250499Y-50417553D01*
X61397006Y-50523996D01*
X61558361Y-50606211D01*
X61730591Y-50662171D01*
X61802136Y-50673502D01*
X61909451Y-50690500D01*
X61909454Y-50690500D01*
X62090549Y-50690500D01*
X62179977Y-50676335D01*
X62269409Y-50662171D01*
X62441639Y-50606211D01*
X62602994Y-50523996D01*
X62749501Y-50417553D01*
X62877553Y-50289501D01*
X62983996Y-50142994D01*
X63066211Y-49981639D01*
X63122171Y-49809409D01*
X63150500Y-49630546D01*
X63150500Y-49449454D01*
X63150500Y-49449450D01*
X63122171Y-49270593D01*
X63122171Y-49270591D01*
X63066211Y-49098361D01*
X62983996Y-48937006D01*
X62877553Y-48790499D01*
X62749501Y-48662447D01*
X62602994Y-48556004D01*
X62602993Y-48556003D01*
X62602991Y-48556002D01*
X62566109Y-48537210D01*
X62522844Y-48493945D01*
X62513273Y-48433513D01*
X62541051Y-48378996D01*
X62595567Y-48351219D01*
X62611054Y-48350000D01*
X62897824Y-48350000D01*
X62957370Y-48343598D01*
X62957381Y-48343596D01*
X63092088Y-48293353D01*
X63092090Y-48293352D01*
X63207184Y-48207192D01*
X63207192Y-48207184D01*
X63293352Y-48092090D01*
X63293353Y-48092088D01*
X63343596Y-47957381D01*
X63343598Y-47957370D01*
X63350000Y-47897824D01*
X63350000Y-47250001D01*
X63349999Y-47250000D01*
X62433012Y-47250000D01*
X62465925Y-47192993D01*
X62489468Y-47105130D01*
X69849500Y-47105130D01*
X69849500Y-48894860D01*
X69849501Y-48894863D01*
X69852414Y-48919990D01*
X69877756Y-48977385D01*
X69897794Y-49022765D01*
X69977235Y-49102206D01*
X70080009Y-49147585D01*
X70105135Y-49150500D01*
X71894864Y-49150499D01*
X71919991Y-49147585D01*
X72022765Y-49102206D01*
X72102206Y-49022765D01*
X72147585Y-48919991D01*
X72150500Y-48894865D01*
X72150499Y-47909450D01*
X72389500Y-47909450D01*
X72389500Y-48090549D01*
X72417828Y-48269406D01*
X72471148Y-48433513D01*
X72473789Y-48441639D01*
X72556004Y-48602994D01*
X72662447Y-48749501D01*
X72790499Y-48877553D01*
X72937006Y-48983996D01*
X73098361Y-49066211D01*
X73270591Y-49122171D01*
X73342136Y-49133502D01*
X73449451Y-49150500D01*
X73449454Y-49150500D01*
X73630549Y-49150500D01*
X73719977Y-49136335D01*
X73809409Y-49122171D01*
X73981639Y-49066211D01*
X74142994Y-48983996D01*
X74289501Y-48877553D01*
X74417553Y-48749501D01*
X74523996Y-48602994D01*
X74606211Y-48441639D01*
X74662171Y-48269409D01*
X74681004Y-48150500D01*
X74690500Y-48090549D01*
X74690500Y-47909450D01*
X74662171Y-47730593D01*
X74662171Y-47730591D01*
X74606211Y-47558361D01*
X74523996Y-47397006D01*
X74417553Y-47250499D01*
X74289501Y-47122447D01*
X74142994Y-47016004D01*
X74142993Y-47016003D01*
X74142991Y-47016002D01*
X73981637Y-46933788D01*
X73809406Y-46877828D01*
X73630549Y-46849500D01*
X73630546Y-46849500D01*
X73449454Y-46849500D01*
X73449451Y-46849500D01*
X73270593Y-46877828D01*
X73098362Y-46933788D01*
X72937008Y-47016002D01*
X72864286Y-47068838D01*
X72790499Y-47122447D01*
X72662447Y-47250499D01*
X72636364Y-47286400D01*
X72556002Y-47397008D01*
X72473788Y-47558362D01*
X72417828Y-47730593D01*
X72389500Y-47909450D01*
X72150499Y-47909450D01*
X72150499Y-47105136D01*
X72147585Y-47080009D01*
X72102206Y-46977235D01*
X72022765Y-46897794D01*
X71919991Y-46852415D01*
X71919990Y-46852414D01*
X71919988Y-46852414D01*
X71894868Y-46849500D01*
X70105139Y-46849500D01*
X70105136Y-46849501D01*
X70080009Y-46852414D01*
X69977235Y-46897794D01*
X69897794Y-46977235D01*
X69852414Y-47080011D01*
X69849500Y-47105130D01*
X62489468Y-47105130D01*
X62500000Y-47065826D01*
X62500000Y-46934174D01*
X62465925Y-46807007D01*
X62433012Y-46750000D01*
X63349999Y-46750000D01*
X63350000Y-46749999D01*
X63350000Y-46102175D01*
X63343598Y-46042629D01*
X63343596Y-46042618D01*
X63293353Y-45907911D01*
X63293352Y-45907909D01*
X63207192Y-45792815D01*
X63207184Y-45792807D01*
X63092090Y-45706647D01*
X63092088Y-45706646D01*
X62957381Y-45656403D01*
X62957370Y-45656401D01*
X62897824Y-45650000D01*
X62250001Y-45650000D01*
X62250000Y-45650001D01*
X62250000Y-46566988D01*
X62192993Y-46534075D01*
X62065826Y-46500000D01*
X61934174Y-46500000D01*
X61807007Y-46534075D01*
X61750000Y-46566988D01*
X61750000Y-45650001D01*
X61749999Y-45650000D01*
X61102176Y-45650000D01*
X61042629Y-45656401D01*
X61042618Y-45656403D01*
X60907911Y-45706646D01*
X60907909Y-45706647D01*
X60792815Y-45792807D01*
X60792807Y-45792815D01*
X60706647Y-45907909D01*
X60706646Y-45907911D01*
X60656403Y-46042618D01*
X60656401Y-46042629D01*
X60650000Y-46102175D01*
X60650000Y-46749999D01*
X60650001Y-46750000D01*
X61566988Y-46750000D01*
X61534075Y-46807007D01*
X61500000Y-46934174D01*
X61500000Y-47065826D01*
X61534075Y-47192993D01*
X61566988Y-47250000D01*
X60650001Y-47250000D01*
X60650000Y-47250001D01*
X60650000Y-47897824D01*
X60649999Y-47897824D01*
X41150157Y-47897824D01*
X41150500Y-47894865D01*
X41150499Y-46982423D01*
X41150499Y-46105139D01*
X41150499Y-46105136D01*
X41147585Y-46080009D01*
X41102206Y-45977235D01*
X41022765Y-45897794D01*
X40919991Y-45852415D01*
X40919990Y-45852414D01*
X40919988Y-45852414D01*
X40894868Y-45849500D01*
X39105139Y-45849500D01*
X39105136Y-45849501D01*
X39080009Y-45852414D01*
X38977235Y-45897794D01*
X38897794Y-45977235D01*
X38852414Y-46080011D01*
X38849500Y-46105130D01*
X31350000Y-46105130D01*
X31350000Y-46102175D01*
X31343598Y-46042629D01*
X31343596Y-46042618D01*
X31293353Y-45907911D01*
X31293352Y-45907909D01*
X31207192Y-45792815D01*
X31207184Y-45792807D01*
X31092090Y-45706647D01*
X31092088Y-45706646D01*
X30957381Y-45656403D01*
X30957370Y-45656401D01*
X30897824Y-45650000D01*
X30250001Y-45650000D01*
X30250000Y-45650001D01*
X30250000Y-46566988D01*
X30192993Y-46534075D01*
X30065826Y-46500000D01*
X29934174Y-46500000D01*
X29807007Y-46534075D01*
X29750000Y-46566988D01*
X29750000Y-45650001D01*
X29749999Y-45650000D01*
X29102176Y-45650000D01*
X29042629Y-45656401D01*
X29042618Y-45656403D01*
X28907911Y-45706646D01*
X28907909Y-45706647D01*
X28792815Y-45792807D01*
X28792807Y-45792815D01*
X28706647Y-45907909D01*
X28706646Y-45907911D01*
X28656403Y-46042618D01*
X28656401Y-46042629D01*
X28650000Y-46102175D01*
X28650000Y-46749999D01*
X28650001Y-46750000D01*
X29566988Y-46750000D01*
X29534075Y-46807007D01*
X29500000Y-46934174D01*
X29500000Y-47065826D01*
X29534075Y-47192993D01*
X29566988Y-47250000D01*
X28650001Y-47250000D01*
X28650000Y-47250001D01*
X28650000Y-47897824D01*
X28649999Y-47897824D01*
X19695563Y-47897824D01*
X19767177Y-47773784D01*
X19808100Y-47621057D01*
X19808100Y-47462943D01*
X19767177Y-47310216D01*
X19688120Y-47173284D01*
X19576316Y-47061480D01*
X19439384Y-46982423D01*
X19286657Y-46941500D01*
X19128543Y-46941500D01*
X18975816Y-46982423D01*
X18838884Y-47061480D01*
X18727080Y-47173284D01*
X18648023Y-47310216D01*
X18607100Y-47462943D01*
X16021299Y-47462943D01*
X16001141Y-47442785D01*
X15886417Y-47366128D01*
X15886406Y-47366122D01*
X15758928Y-47313320D01*
X15623595Y-47286400D01*
X15623593Y-47286400D01*
X15485607Y-47286400D01*
X15485604Y-47286400D01*
X15350272Y-47313320D01*
X15350270Y-47313320D01*
X15222793Y-47366122D01*
X15222782Y-47366128D01*
X15108058Y-47442785D01*
X15010485Y-47540358D01*
X14933828Y-47655082D01*
X14933822Y-47655093D01*
X14881020Y-47782570D01*
X14881020Y-47782572D01*
X14854100Y-47917904D01*
X13138489Y-47917904D01*
X15661097Y-45395296D01*
X15715614Y-45367519D01*
X15731101Y-45366300D01*
X17322356Y-45366300D01*
X17380547Y-45385207D01*
X17392359Y-45395296D01*
X17427734Y-45430670D01*
X17443384Y-45446320D01*
X17580316Y-45525377D01*
X17733043Y-45566300D01*
X17733045Y-45566300D01*
X17891155Y-45566300D01*
X17891157Y-45566300D01*
X18043884Y-45525377D01*
X18180816Y-45446320D01*
X18292620Y-45334516D01*
X18371677Y-45197584D01*
X18390132Y-45128710D01*
X22899500Y-45128710D01*
X22899500Y-45371289D01*
X22931161Y-45611781D01*
X22931161Y-45611786D01*
X22931162Y-45611789D01*
X22992131Y-45839328D01*
X22993944Y-45846092D01*
X22993948Y-45846105D01*
X23086772Y-46070204D01*
X23086774Y-46070208D01*
X23086776Y-46070212D01*
X23149651Y-46179114D01*
X23208066Y-46280292D01*
X23355729Y-46472731D01*
X23355731Y-46472733D01*
X23355735Y-46472738D01*
X23527262Y-46644265D01*
X23527266Y-46644268D01*
X23527268Y-46644270D01*
X23665059Y-46750000D01*
X23719711Y-46791936D01*
X23929788Y-46913224D01*
X24153900Y-47006054D01*
X24388211Y-47068838D01*
X24628712Y-47100500D01*
X24628713Y-47100500D01*
X24871287Y-47100500D01*
X24871288Y-47100500D01*
X25111789Y-47068838D01*
X25346100Y-47006054D01*
X25570212Y-46913224D01*
X25780289Y-46791936D01*
X25972738Y-46644265D01*
X26144265Y-46472738D01*
X26291936Y-46280289D01*
X26413224Y-46070212D01*
X26506054Y-45846100D01*
X26568838Y-45611789D01*
X26600500Y-45371288D01*
X26600500Y-45128712D01*
X26600500Y-45128710D01*
X53399500Y-45128710D01*
X53399500Y-45371289D01*
X53431161Y-45611781D01*
X53431161Y-45611786D01*
X53431162Y-45611789D01*
X53492131Y-45839328D01*
X53493944Y-45846092D01*
X53493948Y-45846105D01*
X53586772Y-46070204D01*
X53586774Y-46070208D01*
X53586776Y-46070212D01*
X53649651Y-46179114D01*
X53708066Y-46280292D01*
X53855729Y-46472731D01*
X53855731Y-46472733D01*
X53855735Y-46472738D01*
X54027262Y-46644265D01*
X54027266Y-46644268D01*
X54027268Y-46644270D01*
X54165059Y-46750000D01*
X54219711Y-46791936D01*
X54429788Y-46913224D01*
X54653900Y-47006054D01*
X54888211Y-47068838D01*
X55128712Y-47100500D01*
X55128713Y-47100500D01*
X55371287Y-47100500D01*
X55371288Y-47100500D01*
X55611789Y-47068838D01*
X55846100Y-47006054D01*
X56070212Y-46913224D01*
X56280289Y-46791936D01*
X56472738Y-46644265D01*
X56644265Y-46472738D01*
X56791936Y-46280289D01*
X56913224Y-46070212D01*
X57006054Y-45846100D01*
X57068838Y-45611789D01*
X57100500Y-45371288D01*
X57100500Y-45128712D01*
X57068838Y-44888211D01*
X57006054Y-44653900D01*
X56915746Y-44435877D01*
X56913227Y-44429795D01*
X56913226Y-44429794D01*
X56913224Y-44429788D01*
X56791936Y-44219711D01*
X56791933Y-44219707D01*
X56644270Y-44027268D01*
X56644268Y-44027266D01*
X56644265Y-44027262D01*
X56472738Y-43855735D01*
X56472733Y-43855731D01*
X56472731Y-43855729D01*
X56280292Y-43708066D01*
X56280289Y-43708064D01*
X56070212Y-43586776D01*
X56070208Y-43586774D01*
X56070204Y-43586772D01*
X55846105Y-43493948D01*
X55846104Y-43493947D01*
X55846100Y-43493946D01*
X55611789Y-43431162D01*
X55611786Y-43431161D01*
X55611784Y-43431161D01*
X55371289Y-43399500D01*
X55371288Y-43399500D01*
X55128712Y-43399500D01*
X55128710Y-43399500D01*
X54888218Y-43431161D01*
X54888213Y-43431161D01*
X54653907Y-43493944D01*
X54653894Y-43493948D01*
X54429795Y-43586772D01*
X54219707Y-43708066D01*
X54027268Y-43855729D01*
X53855729Y-44027268D01*
X53708066Y-44219707D01*
X53586772Y-44429795D01*
X53493948Y-44653894D01*
X53493944Y-44653907D01*
X53431161Y-44888213D01*
X53431161Y-44888218D01*
X53399500Y-45128710D01*
X26600500Y-45128710D01*
X26568838Y-44888211D01*
X26506054Y-44653900D01*
X26415746Y-44435877D01*
X26413227Y-44429795D01*
X26413226Y-44429794D01*
X26413224Y-44429788D01*
X26291936Y-44219711D01*
X26291933Y-44219707D01*
X26144270Y-44027268D01*
X26144268Y-44027266D01*
X26144265Y-44027262D01*
X25972738Y-43855735D01*
X25972733Y-43855731D01*
X25972731Y-43855729D01*
X25780292Y-43708066D01*
X25780289Y-43708064D01*
X25601047Y-43604578D01*
X25601046Y-43604577D01*
X25570212Y-43586776D01*
X25570208Y-43586773D01*
X25417944Y-43523704D01*
X40040300Y-43523704D01*
X40040300Y-43661695D01*
X40067220Y-43797027D01*
X40067220Y-43797029D01*
X40120022Y-43924506D01*
X40120028Y-43924517D01*
X40196685Y-44039241D01*
X40294258Y-44136814D01*
X40408982Y-44213471D01*
X40408993Y-44213477D01*
X40446607Y-44229057D01*
X40536472Y-44266280D01*
X40671807Y-44293200D01*
X40671808Y-44293200D01*
X40809792Y-44293200D01*
X40809793Y-44293200D01*
X40945128Y-44266280D01*
X41072611Y-44213475D01*
X41187342Y-44136814D01*
X41284914Y-44039242D01*
X41361575Y-43924511D01*
X41414380Y-43797028D01*
X41441300Y-43661693D01*
X41441300Y-43523707D01*
X41414380Y-43388372D01*
X41367432Y-43275028D01*
X41361577Y-43260893D01*
X41361571Y-43260882D01*
X41284914Y-43146158D01*
X41187341Y-43048585D01*
X41072617Y-42971928D01*
X41072606Y-42971922D01*
X40945128Y-42919120D01*
X40809795Y-42892200D01*
X40809793Y-42892200D01*
X40671807Y-42892200D01*
X40671804Y-42892200D01*
X40536472Y-42919120D01*
X40536470Y-42919120D01*
X40408993Y-42971922D01*
X40408982Y-42971928D01*
X40294258Y-43048585D01*
X40196685Y-43146158D01*
X40120028Y-43260882D01*
X40120022Y-43260893D01*
X40067220Y-43388370D01*
X40067220Y-43388372D01*
X40040300Y-43523704D01*
X25417944Y-43523704D01*
X25346105Y-43493948D01*
X25346104Y-43493947D01*
X25346100Y-43493946D01*
X25111789Y-43431162D01*
X25111786Y-43431161D01*
X25111784Y-43431161D01*
X24871289Y-43399500D01*
X24871288Y-43399500D01*
X24628712Y-43399500D01*
X24628710Y-43399500D01*
X24388218Y-43431161D01*
X24388213Y-43431161D01*
X24153907Y-43493944D01*
X24153894Y-43493948D01*
X23929795Y-43586772D01*
X23719707Y-43708066D01*
X23527268Y-43855729D01*
X23355729Y-44027268D01*
X23208066Y-44219707D01*
X23086772Y-44429795D01*
X22993948Y-44653894D01*
X22993944Y-44653907D01*
X22931161Y-44888213D01*
X22931161Y-44888218D01*
X22899500Y-45128710D01*
X18390132Y-45128710D01*
X18412600Y-45044857D01*
X18412600Y-44886743D01*
X18387020Y-44791277D01*
X18390222Y-44730180D01*
X18428727Y-44682630D01*
X18433112Y-44679942D01*
X18518716Y-44630520D01*
X18630520Y-44518716D01*
X18709577Y-44381784D01*
X18750500Y-44229057D01*
X18750500Y-44070943D01*
X18709577Y-43918216D01*
X18630520Y-43781284D01*
X18518716Y-43669480D01*
X18381784Y-43590423D01*
X18229057Y-43549500D01*
X18070943Y-43549500D01*
X17918216Y-43590423D01*
X17781284Y-43669480D01*
X17669480Y-43781284D01*
X17590423Y-43918216D01*
X17549500Y-44070943D01*
X17549500Y-44229057D01*
X17559474Y-44266279D01*
X17575079Y-44324518D01*
X17571876Y-44385620D01*
X17533371Y-44433169D01*
X17528952Y-44435877D01*
X17443384Y-44485279D01*
X17392359Y-44536304D01*
X17337842Y-44564081D01*
X17322356Y-44565300D01*
X15576927Y-44565300D01*
X15471473Y-44565300D01*
X15409129Y-44582004D01*
X15369607Y-44592594D01*
X15278291Y-44645316D01*
X10345603Y-49578004D01*
X10291086Y-49605781D01*
X10275599Y-49607000D01*
X10203443Y-49607000D01*
X10050716Y-49647923D01*
X9913784Y-49726980D01*
X9801980Y-49838784D01*
X9722923Y-49975716D01*
X9682000Y-50128443D01*
X2000000Y-50128443D01*
X2000000Y-45566004D01*
X9205100Y-45566004D01*
X9205100Y-45703995D01*
X9232020Y-45839327D01*
X9232020Y-45839329D01*
X9284822Y-45966806D01*
X9284828Y-45966817D01*
X9361485Y-46081541D01*
X9459058Y-46179114D01*
X9573782Y-46255771D01*
X9573793Y-46255777D01*
X9620883Y-46275282D01*
X9701272Y-46308580D01*
X9836607Y-46335500D01*
X9836608Y-46335500D01*
X9974592Y-46335500D01*
X9974593Y-46335500D01*
X10109928Y-46308580D01*
X10237411Y-46255775D01*
X10352142Y-46179114D01*
X10449714Y-46081542D01*
X10526375Y-45966811D01*
X10579180Y-45839328D01*
X10606100Y-45703993D01*
X10606100Y-45566007D01*
X10579180Y-45430672D01*
X10526375Y-45303189D01*
X10526374Y-45303187D01*
X10526371Y-45303182D01*
X10449714Y-45188458D01*
X10352141Y-45090885D01*
X10237417Y-45014228D01*
X10237406Y-45014222D01*
X10109928Y-44961420D01*
X9974595Y-44934500D01*
X9974593Y-44934500D01*
X9836607Y-44934500D01*
X9836604Y-44934500D01*
X9701272Y-44961420D01*
X9701270Y-44961420D01*
X9573793Y-45014222D01*
X9573782Y-45014228D01*
X9459058Y-45090885D01*
X9361485Y-45188458D01*
X9284828Y-45303182D01*
X9284822Y-45303193D01*
X9232020Y-45430670D01*
X9232020Y-45430672D01*
X9205100Y-45566004D01*
X2000000Y-45566004D01*
X2000000Y-43826804D01*
X9244100Y-43826804D01*
X9244100Y-43964795D01*
X9271020Y-44100127D01*
X9271020Y-44100129D01*
X9323822Y-44227606D01*
X9323828Y-44227617D01*
X9400485Y-44342341D01*
X9498058Y-44439914D01*
X9612782Y-44516571D01*
X9612793Y-44516577D01*
X9659883Y-44536082D01*
X9740272Y-44569380D01*
X9875607Y-44596300D01*
X9875608Y-44596300D01*
X10013592Y-44596300D01*
X10013593Y-44596300D01*
X10148928Y-44569380D01*
X10276411Y-44516575D01*
X10391142Y-44439914D01*
X10488714Y-44342342D01*
X10565375Y-44227611D01*
X10618180Y-44100128D01*
X10645100Y-43964793D01*
X10645100Y-43826807D01*
X10618180Y-43691472D01*
X10582187Y-43604577D01*
X10565377Y-43563993D01*
X10565371Y-43563982D01*
X10488714Y-43449258D01*
X10391141Y-43351685D01*
X10276417Y-43275028D01*
X10276406Y-43275022D01*
X10148928Y-43222220D01*
X10013595Y-43195300D01*
X10013593Y-43195300D01*
X9875607Y-43195300D01*
X9875604Y-43195300D01*
X9740272Y-43222220D01*
X9740270Y-43222220D01*
X9612793Y-43275022D01*
X9612782Y-43275028D01*
X9498058Y-43351685D01*
X9400485Y-43449258D01*
X9323828Y-43563982D01*
X9323822Y-43563993D01*
X9271020Y-43691470D01*
X9271020Y-43691472D01*
X9244100Y-43826804D01*
X2000000Y-43826804D01*
X2000000Y-40711743D01*
X13756000Y-40711743D01*
X13756000Y-40869857D01*
X13796923Y-41022584D01*
X13875980Y-41159516D01*
X13987784Y-41271320D01*
X14124716Y-41350377D01*
X14124718Y-41350378D01*
X14130711Y-41352860D01*
X14130000Y-41354576D01*
X14174016Y-41383150D01*
X14195953Y-41440267D01*
X14180128Y-41499371D01*
X14167094Y-41515469D01*
X14087082Y-41595481D01*
X14087080Y-41595483D01*
X14087080Y-41595484D01*
X14008023Y-41732416D01*
X13967100Y-41885143D01*
X13967100Y-42043257D01*
X14008023Y-42195984D01*
X14087080Y-42332916D01*
X14198884Y-42444720D01*
X14335816Y-42523777D01*
X14488543Y-42564700D01*
X14488545Y-42564700D01*
X14646655Y-42564700D01*
X14646657Y-42564700D01*
X14799384Y-42523777D01*
X14936316Y-42444720D01*
X15048120Y-42332916D01*
X15127177Y-42195984D01*
X15168100Y-42043257D01*
X15168100Y-41885143D01*
X15127177Y-41732416D01*
X15048120Y-41595484D01*
X15012937Y-41560301D01*
X14985162Y-41505787D01*
X14994733Y-41445355D01*
X15037998Y-41402090D01*
X15082943Y-41391300D01*
X17698557Y-41391300D01*
X17756748Y-41410207D01*
X17768561Y-41420296D01*
X19819478Y-43471213D01*
X19819480Y-43471216D01*
X19931284Y-43583020D01*
X20068216Y-43662077D01*
X20177920Y-43691472D01*
X20220942Y-43703000D01*
X20379055Y-43703000D01*
X20379057Y-43703000D01*
X20531784Y-43662077D01*
X20668716Y-43583020D01*
X20780520Y-43471216D01*
X20859577Y-43334284D01*
X20900500Y-43181557D01*
X20900500Y-43023443D01*
X20859577Y-42870716D01*
X20780520Y-42733784D01*
X20668716Y-42621980D01*
X20668713Y-42621978D01*
X20067678Y-42020943D01*
X21159500Y-42020943D01*
X21159500Y-42179057D01*
X21200423Y-42331784D01*
X21279480Y-42468716D01*
X21391284Y-42580520D01*
X21528216Y-42659577D01*
X21680943Y-42700500D01*
X21680945Y-42700500D01*
X21839055Y-42700500D01*
X21839057Y-42700500D01*
X21991784Y-42659577D01*
X22128716Y-42580520D01*
X22240520Y-42468716D01*
X22319577Y-42331784D01*
X22360500Y-42179057D01*
X22360500Y-42020943D01*
X22319577Y-41868216D01*
X22240520Y-41731284D01*
X22128716Y-41619480D01*
X21991784Y-41540423D01*
X21839057Y-41499500D01*
X21680943Y-41499500D01*
X21528216Y-41540423D01*
X21391284Y-41619480D01*
X21279480Y-41731284D01*
X21200423Y-41868216D01*
X21159500Y-42020943D01*
X20067678Y-42020943D01*
X18838739Y-40792004D01*
X24242600Y-40792004D01*
X24242600Y-40929995D01*
X24269520Y-41065327D01*
X24269520Y-41065329D01*
X24322322Y-41192806D01*
X24322328Y-41192817D01*
X24398985Y-41307541D01*
X24496558Y-41405114D01*
X24611282Y-41481771D01*
X24611293Y-41481777D01*
X24653770Y-41499371D01*
X24738772Y-41534580D01*
X24874107Y-41561500D01*
X24874108Y-41561500D01*
X25012092Y-41561500D01*
X25012093Y-41561500D01*
X25147428Y-41534580D01*
X25274911Y-41481775D01*
X25389642Y-41405114D01*
X25397352Y-41397404D01*
X33889000Y-41397404D01*
X33889000Y-41535395D01*
X33915920Y-41670727D01*
X33915920Y-41670729D01*
X33968722Y-41798206D01*
X33968728Y-41798217D01*
X34045385Y-41912941D01*
X34142958Y-42010514D01*
X34257682Y-42087171D01*
X34257693Y-42087177D01*
X34304783Y-42106682D01*
X34385172Y-42139980D01*
X34520507Y-42166900D01*
X34520508Y-42166900D01*
X34658492Y-42166900D01*
X34658493Y-42166900D01*
X34793828Y-42139980D01*
X34921311Y-42087175D01*
X35036042Y-42010514D01*
X35133614Y-41912942D01*
X35210275Y-41798211D01*
X35263080Y-41670728D01*
X35290000Y-41535393D01*
X35290000Y-41397407D01*
X35263080Y-41262072D01*
X35210275Y-41134589D01*
X35210274Y-41134587D01*
X35210271Y-41134582D01*
X35133614Y-41019858D01*
X35036041Y-40922285D01*
X34921317Y-40845628D01*
X34921306Y-40845622D01*
X34793828Y-40792820D01*
X34658495Y-40765900D01*
X34658493Y-40765900D01*
X34520507Y-40765900D01*
X34520504Y-40765900D01*
X34385172Y-40792820D01*
X34385170Y-40792820D01*
X34257693Y-40845622D01*
X34257682Y-40845628D01*
X34142958Y-40922285D01*
X34045385Y-41019858D01*
X33968728Y-41134582D01*
X33968722Y-41134593D01*
X33915920Y-41262070D01*
X33915920Y-41262072D01*
X33889000Y-41397404D01*
X25397352Y-41397404D01*
X25487214Y-41307542D01*
X25563875Y-41192811D01*
X25616680Y-41065328D01*
X25643600Y-40929993D01*
X25643600Y-40792007D01*
X25616680Y-40656672D01*
X25563875Y-40529189D01*
X25563874Y-40529187D01*
X25563871Y-40529182D01*
X25487214Y-40414458D01*
X25389641Y-40316885D01*
X25274917Y-40240228D01*
X25274906Y-40240222D01*
X25147428Y-40187420D01*
X25012095Y-40160500D01*
X25012093Y-40160500D01*
X24874107Y-40160500D01*
X24874104Y-40160500D01*
X24738772Y-40187420D01*
X24738770Y-40187420D01*
X24611293Y-40240222D01*
X24611282Y-40240228D01*
X24496558Y-40316885D01*
X24398985Y-40414458D01*
X24322328Y-40529182D01*
X24322322Y-40529193D01*
X24269520Y-40656670D01*
X24269520Y-40656672D01*
X24242600Y-40792004D01*
X18838739Y-40792004D01*
X18468821Y-40422086D01*
X18468820Y-40422084D01*
X18357016Y-40310280D01*
X18270204Y-40260160D01*
X18270203Y-40260159D01*
X18235682Y-40240228D01*
X18220085Y-40231223D01*
X18067357Y-40190299D01*
X17909243Y-40190299D01*
X17903180Y-40190299D01*
X17903164Y-40190300D01*
X14277443Y-40190300D01*
X14124716Y-40231223D01*
X13987784Y-40310280D01*
X13875980Y-40422084D01*
X13796923Y-40559016D01*
X13756000Y-40711743D01*
X2000000Y-40711743D01*
X2000000Y-33655243D01*
X17899500Y-33655243D01*
X17899500Y-33813357D01*
X17940423Y-33966084D01*
X18019480Y-34103016D01*
X18131284Y-34214820D01*
X18268216Y-34293877D01*
X18420943Y-34334800D01*
X18493099Y-34334800D01*
X18551290Y-34353707D01*
X18563102Y-34363796D01*
X19050917Y-34851610D01*
X19050918Y-34851610D01*
X19050920Y-34851613D01*
X19125487Y-34926180D01*
X19207967Y-34973800D01*
X19216813Y-34978907D01*
X19216815Y-34978907D01*
X19216816Y-34978908D01*
X19245105Y-34986488D01*
X19318670Y-35006200D01*
X19318672Y-35006201D01*
X19318673Y-35006201D01*
X19430190Y-35006201D01*
X19430206Y-35006200D01*
X22452726Y-35006200D01*
X22510917Y-35025107D01*
X22546881Y-35074607D01*
X22548352Y-35130821D01*
X22514800Y-35256043D01*
X22514800Y-35414157D01*
X22555723Y-35566884D01*
X22634780Y-35703816D01*
X22746584Y-35815620D01*
X22883516Y-35894677D01*
X23036243Y-35935600D01*
X23108399Y-35935600D01*
X23166590Y-35954507D01*
X23178403Y-35964596D01*
X25858492Y-38644685D01*
X25886269Y-38699202D01*
X25876698Y-38759634D01*
X25833433Y-38802899D01*
X25814111Y-38810316D01*
X25667416Y-38849623D01*
X25530484Y-38928680D01*
X25418680Y-39040484D01*
X25339623Y-39177416D01*
X25298700Y-39330143D01*
X25298700Y-39488257D01*
X25339623Y-39640984D01*
X25418680Y-39777916D01*
X25530484Y-39889720D01*
X25667416Y-39968777D01*
X25820143Y-40009700D01*
X25820145Y-40009700D01*
X25978255Y-40009700D01*
X25978257Y-40009700D01*
X26130984Y-39968777D01*
X26267916Y-39889720D01*
X26379720Y-39777916D01*
X26458777Y-39640984D01*
X26499700Y-39488257D01*
X26499700Y-39330143D01*
X26499700Y-39323654D01*
X26501848Y-39323654D01*
X26511238Y-39272968D01*
X26555617Y-39230847D01*
X26598245Y-39221200D01*
X30563556Y-39221200D01*
X30621747Y-39240107D01*
X30633559Y-39250196D01*
X30684581Y-39301217D01*
X30684584Y-39301220D01*
X30821516Y-39380277D01*
X30974243Y-39421200D01*
X30974245Y-39421200D01*
X31132355Y-39421200D01*
X31132357Y-39421200D01*
X31285084Y-39380277D01*
X31422016Y-39301220D01*
X31533820Y-39189416D01*
X31612877Y-39052484D01*
X31653800Y-38899757D01*
X31653800Y-38741643D01*
X31612877Y-38588916D01*
X31533820Y-38451984D01*
X31422016Y-38340180D01*
X31285084Y-38261123D01*
X31132357Y-38220200D01*
X30974243Y-38220200D01*
X30846984Y-38254299D01*
X30821516Y-38261123D01*
X30684581Y-38340182D01*
X30633559Y-38391204D01*
X30579042Y-38418981D01*
X30563556Y-38420200D01*
X26807801Y-38420200D01*
X26749610Y-38401293D01*
X26737797Y-38391204D01*
X23744796Y-35398203D01*
X23717019Y-35343686D01*
X23715800Y-35328199D01*
X23715800Y-35256044D01*
X23715800Y-35256043D01*
X23682247Y-35130821D01*
X23685450Y-35069722D01*
X23723955Y-35022172D01*
X23777874Y-35006200D01*
X27631825Y-35006200D01*
X27631827Y-35006200D01*
X27733688Y-34978907D01*
X27733690Y-34978905D01*
X27733692Y-34978905D01*
X27825008Y-34926183D01*
X27825008Y-34926182D01*
X27825013Y-34926180D01*
X27981218Y-34769975D01*
X28055698Y-34695496D01*
X28110214Y-34667719D01*
X28125701Y-34666500D01*
X28197855Y-34666500D01*
X28197857Y-34666500D01*
X28350584Y-34625577D01*
X28487516Y-34546520D01*
X28599320Y-34434716D01*
X28678377Y-34297784D01*
X28719300Y-34145057D01*
X28719300Y-33986943D01*
X28678377Y-33834216D01*
X28599320Y-33697284D01*
X28487516Y-33585480D01*
X28350584Y-33506423D01*
X28197857Y-33465500D01*
X28079500Y-33465500D01*
X28021309Y-33446593D01*
X27985345Y-33397093D01*
X27980500Y-33366500D01*
X27980500Y-33277525D01*
X27959388Y-33198736D01*
X27942984Y-33137515D01*
X27942982Y-33137512D01*
X27942982Y-33137510D01*
X27870512Y-33011989D01*
X27870510Y-33011987D01*
X27870509Y-33011985D01*
X27768015Y-32909491D01*
X27768012Y-32909489D01*
X27768010Y-32909487D01*
X27642488Y-32837017D01*
X27642489Y-32837017D01*
X27612896Y-32829087D01*
X27502475Y-32799500D01*
X27357525Y-32799500D01*
X27295790Y-32816041D01*
X27217510Y-32837017D01*
X27091989Y-32909487D01*
X26989487Y-33011989D01*
X26917017Y-33137510D01*
X26884063Y-33260496D01*
X26879500Y-33277525D01*
X26879500Y-33422475D01*
X26888231Y-33455059D01*
X26917017Y-33562489D01*
X26989487Y-33688010D01*
X26989489Y-33688012D01*
X26989491Y-33688015D01*
X27091985Y-33790509D01*
X27091987Y-33790510D01*
X27091989Y-33790512D01*
X27217511Y-33862982D01*
X27217512Y-33862982D01*
X27217515Y-33862984D01*
X27357525Y-33900500D01*
X27357526Y-33900500D01*
X27419300Y-33900500D01*
X27477491Y-33919407D01*
X27513455Y-33968907D01*
X27518300Y-33999500D01*
X27518300Y-34059099D01*
X27499393Y-34117290D01*
X27489304Y-34129103D01*
X27442203Y-34176204D01*
X27387686Y-34203981D01*
X27372199Y-34205200D01*
X19578299Y-34205200D01*
X19520108Y-34186293D01*
X19508295Y-34176203D01*
X19129496Y-33797403D01*
X19101719Y-33742887D01*
X19100500Y-33727400D01*
X19100500Y-33655244D01*
X19100500Y-33655243D01*
X19059577Y-33502516D01*
X18980520Y-33365584D01*
X18868716Y-33253780D01*
X18731784Y-33174723D01*
X18579057Y-33133800D01*
X18420943Y-33133800D01*
X18268216Y-33174723D01*
X18131284Y-33253780D01*
X18019480Y-33365584D01*
X17940423Y-33502516D01*
X17899500Y-33655243D01*
X2000000Y-33655243D01*
X2000000Y-29105130D01*
X4849500Y-29105130D01*
X4849500Y-30894860D01*
X4849501Y-30894863D01*
X4852414Y-30919990D01*
X4866541Y-30951983D01*
X4897794Y-31022765D01*
X4977235Y-31102206D01*
X5080009Y-31147585D01*
X5105135Y-31150500D01*
X6260256Y-31150499D01*
X6318447Y-31169406D01*
X6330260Y-31179495D01*
X6871178Y-31720413D01*
X6871180Y-31720416D01*
X6982984Y-31832220D01*
X7119916Y-31911277D01*
X7203257Y-31933608D01*
X7272642Y-31952200D01*
X7272643Y-31952200D01*
X16573164Y-31952200D01*
X16573180Y-31952201D01*
X16579243Y-31952201D01*
X16737355Y-31952201D01*
X16737357Y-31952201D01*
X16890085Y-31911277D01*
X16890087Y-31911275D01*
X16890089Y-31911275D01*
X16916055Y-31896283D01*
X16949246Y-31877120D01*
X17027016Y-31832220D01*
X17138820Y-31720416D01*
X17138821Y-31720413D01*
X17541690Y-31317543D01*
X26298000Y-31317543D01*
X26298000Y-31475657D01*
X26338923Y-31628384D01*
X26417980Y-31765316D01*
X26529784Y-31877120D01*
X26666716Y-31956177D01*
X26819443Y-31997100D01*
X26819445Y-31997100D01*
X26977555Y-31997100D01*
X26977557Y-31997100D01*
X27130284Y-31956177D01*
X27267216Y-31877120D01*
X27270558Y-31873777D01*
X27325071Y-31845998D01*
X27385504Y-31855566D01*
X27428771Y-31898827D01*
X27438346Y-31959259D01*
X27436191Y-31969398D01*
X27432000Y-31985038D01*
X27432000Y-31985043D01*
X27432000Y-32143157D01*
X27472923Y-32295884D01*
X27551980Y-32432816D01*
X27663784Y-32544620D01*
X27800716Y-32623677D01*
X27953443Y-32664600D01*
X27953445Y-32664600D01*
X28111555Y-32664600D01*
X28111557Y-32664600D01*
X28264284Y-32623677D01*
X28401216Y-32544620D01*
X28513020Y-32432816D01*
X28592077Y-32295884D01*
X28622647Y-32181792D01*
X28655970Y-32130481D01*
X28713091Y-32108554D01*
X28767773Y-32121681D01*
X28851114Y-32169799D01*
X28965691Y-32200500D01*
X28965693Y-32200500D01*
X29084307Y-32200500D01*
X29084309Y-32200500D01*
X29198886Y-32169799D01*
X29198888Y-32169797D01*
X29198890Y-32169797D01*
X29301608Y-32110492D01*
X29301608Y-32110491D01*
X29301613Y-32110489D01*
X29385489Y-32026613D01*
X29400123Y-32001267D01*
X29444797Y-31923890D01*
X29444797Y-31923888D01*
X29444799Y-31923886D01*
X29475500Y-31809309D01*
X29475500Y-31690691D01*
X29444799Y-31576114D01*
X29444797Y-31576110D01*
X29444797Y-31576109D01*
X29385492Y-31473391D01*
X29385490Y-31473389D01*
X29385489Y-31473387D01*
X29301613Y-31389511D01*
X29301610Y-31389509D01*
X29301608Y-31389507D01*
X29198889Y-31330202D01*
X29198890Y-31330202D01*
X29163428Y-31320700D01*
X29084309Y-31299500D01*
X28965691Y-31299500D01*
X28898354Y-31317543D01*
X28851109Y-31330202D01*
X28748391Y-31389507D01*
X28664507Y-31473391D01*
X28605202Y-31576110D01*
X28605200Y-31576114D01*
X28604896Y-31577251D01*
X28604437Y-31577957D01*
X28602719Y-31582106D01*
X28601949Y-31581787D01*
X28571572Y-31628565D01*
X28514450Y-31650491D01*
X28455350Y-31634655D01*
X28439271Y-31621635D01*
X28401216Y-31583580D01*
X28264284Y-31504523D01*
X28111557Y-31463600D01*
X27953443Y-31463600D01*
X27831461Y-31496285D01*
X27800716Y-31504523D01*
X27663780Y-31583582D01*
X27660434Y-31586929D01*
X27605916Y-31614703D01*
X27545484Y-31605128D01*
X27502223Y-31561861D01*
X27492655Y-31501428D01*
X27494806Y-31491305D01*
X27499000Y-31475657D01*
X27499000Y-31317543D01*
X27458077Y-31164816D01*
X27379020Y-31027884D01*
X27267216Y-30916080D01*
X27130284Y-30837023D01*
X26977557Y-30796100D01*
X26819443Y-30796100D01*
X26666716Y-30837023D01*
X26529784Y-30916080D01*
X26417980Y-31027884D01*
X26338923Y-31164816D01*
X26298000Y-31317543D01*
X17541690Y-31317543D01*
X17944101Y-30915132D01*
X17994790Y-30888040D01*
X18001128Y-30886780D01*
X18128611Y-30833975D01*
X18243342Y-30757314D01*
X18340914Y-30659742D01*
X18417575Y-30545011D01*
X18470380Y-30417528D01*
X18483016Y-30354004D01*
X21477500Y-30354004D01*
X21477500Y-30491995D01*
X21481159Y-30510387D01*
X21503194Y-30621167D01*
X21504420Y-30627327D01*
X21504420Y-30627329D01*
X21557222Y-30754806D01*
X21557228Y-30754817D01*
X21633885Y-30869541D01*
X21731458Y-30967114D01*
X21846182Y-31043771D01*
X21846193Y-31043777D01*
X21885497Y-31060057D01*
X21973672Y-31096580D01*
X22109007Y-31123500D01*
X22109008Y-31123500D01*
X22246992Y-31123500D01*
X22246993Y-31123500D01*
X22382328Y-31096580D01*
X22509811Y-31043775D01*
X22624542Y-30967114D01*
X22722114Y-30869542D01*
X22798775Y-30754811D01*
X22851580Y-30627328D01*
X22878500Y-30491993D01*
X22878500Y-30354007D01*
X22851580Y-30218672D01*
X22820736Y-30144207D01*
X22798777Y-30091193D01*
X22798771Y-30091182D01*
X22722114Y-29976458D01*
X22624541Y-29878885D01*
X22509817Y-29802228D01*
X22509806Y-29802222D01*
X22382328Y-29749420D01*
X22246995Y-29722500D01*
X22246993Y-29722500D01*
X22109007Y-29722500D01*
X22109004Y-29722500D01*
X21973672Y-29749420D01*
X21973670Y-29749420D01*
X21846193Y-29802222D01*
X21846182Y-29802228D01*
X21731458Y-29878885D01*
X21633885Y-29976458D01*
X21557228Y-30091182D01*
X21557222Y-30091193D01*
X21504420Y-30218670D01*
X21504420Y-30218672D01*
X21477500Y-30354004D01*
X18483016Y-30354004D01*
X18497300Y-30282193D01*
X18497300Y-30144207D01*
X18470380Y-30008872D01*
X18443922Y-29944997D01*
X18417577Y-29881393D01*
X18417571Y-29881382D01*
X18340914Y-29766658D01*
X18243341Y-29669085D01*
X18128617Y-29592428D01*
X18128606Y-29592422D01*
X18001128Y-29539620D01*
X17865795Y-29512700D01*
X17865793Y-29512700D01*
X17727807Y-29512700D01*
X17727804Y-29512700D01*
X17592472Y-29539620D01*
X17592470Y-29539620D01*
X17464993Y-29592422D01*
X17464982Y-29592428D01*
X17350258Y-29669085D01*
X17252685Y-29766658D01*
X17176028Y-29881382D01*
X17176022Y-29881393D01*
X17123220Y-30008869D01*
X17123219Y-30008872D01*
X17121958Y-30015214D01*
X17094865Y-30065897D01*
X16438561Y-30722203D01*
X16384044Y-30749981D01*
X16368557Y-30751200D01*
X9609953Y-30751200D01*
X9551762Y-30732293D01*
X9515798Y-30682793D01*
X9515798Y-30621607D01*
X9522674Y-30606686D01*
X9522230Y-30606460D01*
X9540982Y-30569657D01*
X9606211Y-30441639D01*
X9662171Y-30269409D01*
X9678956Y-30163434D01*
X9690500Y-30090549D01*
X9690500Y-29909450D01*
X9662171Y-29730593D01*
X9662171Y-29730591D01*
X9606211Y-29558361D01*
X9523996Y-29397006D01*
X9417553Y-29250499D01*
X9370097Y-29203043D01*
X18724500Y-29203043D01*
X18724500Y-29361157D01*
X18765423Y-29513884D01*
X18844480Y-29650816D01*
X18956284Y-29762620D01*
X19093216Y-29841677D01*
X19245943Y-29882600D01*
X19245945Y-29882600D01*
X19404055Y-29882600D01*
X19404057Y-29882600D01*
X19556784Y-29841677D01*
X19693716Y-29762620D01*
X19805520Y-29650816D01*
X19884577Y-29513884D01*
X19925500Y-29361157D01*
X19925500Y-29203043D01*
X19884577Y-29050316D01*
X19805520Y-28913384D01*
X19693716Y-28801580D01*
X19556784Y-28722523D01*
X19404057Y-28681600D01*
X19245943Y-28681600D01*
X19093216Y-28722523D01*
X18956284Y-28801580D01*
X18844480Y-28913384D01*
X18765423Y-29050316D01*
X18724500Y-29203043D01*
X9370097Y-29203043D01*
X9289501Y-29122447D01*
X9142994Y-29016004D01*
X9142993Y-29016003D01*
X9142991Y-29016002D01*
X8981637Y-28933788D01*
X8809406Y-28877828D01*
X8630549Y-28849500D01*
X8630546Y-28849500D01*
X8449454Y-28849500D01*
X8449451Y-28849500D01*
X8270593Y-28877828D01*
X8098362Y-28933788D01*
X7937008Y-29016002D01*
X7875257Y-29060867D01*
X7790499Y-29122447D01*
X7662447Y-29250499D01*
X7611123Y-29321141D01*
X7556002Y-29397008D01*
X7473788Y-29558362D01*
X7417828Y-29730593D01*
X7389500Y-29909450D01*
X7389500Y-30090549D01*
X7417828Y-30269408D01*
X7434399Y-30320410D01*
X7434398Y-30381595D01*
X7398434Y-30431094D01*
X7340243Y-30450001D01*
X7282052Y-30431093D01*
X7270240Y-30421005D01*
X7179495Y-30330260D01*
X7151718Y-30275743D01*
X7150499Y-30260256D01*
X7150499Y-29105139D01*
X7150499Y-29105136D01*
X7147585Y-29080009D01*
X7102206Y-28977235D01*
X7022765Y-28897794D01*
X6919991Y-28852415D01*
X6919990Y-28852414D01*
X6919988Y-28852414D01*
X6894868Y-28849500D01*
X5105139Y-28849500D01*
X5105136Y-28849501D01*
X5080009Y-28852414D01*
X4977235Y-28897794D01*
X4897794Y-28977235D01*
X4852414Y-29080011D01*
X4849500Y-29105130D01*
X2000000Y-29105130D01*
X2000000Y-19572004D01*
X19124500Y-19572004D01*
X19124500Y-19709995D01*
X19151420Y-19845327D01*
X19151420Y-19845329D01*
X19204222Y-19972806D01*
X19204228Y-19972817D01*
X19280885Y-20087541D01*
X19378458Y-20185114D01*
X19493182Y-20261771D01*
X19493193Y-20261777D01*
X19540283Y-20281282D01*
X19620672Y-20314580D01*
X19756007Y-20341500D01*
X19756008Y-20341500D01*
X19893992Y-20341500D01*
X19893993Y-20341500D01*
X20029328Y-20314580D01*
X20156811Y-20261775D01*
X20271542Y-20185114D01*
X20369114Y-20087542D01*
X20445775Y-19972811D01*
X20498580Y-19845328D01*
X20525500Y-19709993D01*
X20525500Y-19572007D01*
X20498580Y-19436672D01*
X20445775Y-19309189D01*
X20445774Y-19309187D01*
X20445771Y-19309182D01*
X20369114Y-19194458D01*
X20271541Y-19096885D01*
X20156817Y-19020228D01*
X20156806Y-19020222D01*
X20029328Y-18967420D01*
X19893995Y-18940500D01*
X19893993Y-18940500D01*
X19756007Y-18940500D01*
X19756004Y-18940500D01*
X19620672Y-18967420D01*
X19620670Y-18967420D01*
X19493193Y-19020222D01*
X19493182Y-19020228D01*
X19378458Y-19096885D01*
X19280885Y-19194458D01*
X19204228Y-19309182D01*
X19204222Y-19309193D01*
X19151420Y-19436670D01*
X19151420Y-19436672D01*
X19124500Y-19572004D01*
X2000000Y-19572004D01*
X2000000Y-14956904D01*
X4323600Y-14956904D01*
X4323600Y-15094895D01*
X4350520Y-15230227D01*
X4350520Y-15230229D01*
X4403322Y-15357706D01*
X4403328Y-15357717D01*
X4479985Y-15472441D01*
X4577558Y-15570014D01*
X4692282Y-15646671D01*
X4692293Y-15646677D01*
X4713039Y-15655270D01*
X4819772Y-15699480D01*
X4899036Y-15715246D01*
X4929225Y-15726609D01*
X4939215Y-15732377D01*
X5091943Y-15773301D01*
X5091944Y-15773301D01*
X5256120Y-15773301D01*
X5256136Y-15773300D01*
X17782814Y-15773300D01*
X17837816Y-15789985D01*
X17843189Y-15793575D01*
X17970672Y-15846380D01*
X18106007Y-15873300D01*
X18106008Y-15873300D01*
X18243992Y-15873300D01*
X18243993Y-15873300D01*
X18379328Y-15846380D01*
X18506811Y-15793575D01*
X18535408Y-15774466D01*
X18564781Y-15761155D01*
X18672185Y-15732377D01*
X18729164Y-15699480D01*
X18729166Y-15699478D01*
X18729168Y-15699478D01*
X18752917Y-15685765D01*
X18809116Y-15653320D01*
X18920920Y-15541516D01*
X18920921Y-15541513D01*
X19833724Y-14628710D01*
X22899500Y-14628710D01*
X22899500Y-14871289D01*
X22931161Y-15111781D01*
X22931161Y-15111786D01*
X22993944Y-15346092D01*
X22993948Y-15346105D01*
X23086772Y-15570204D01*
X23086774Y-15570208D01*
X23086776Y-15570212D01*
X23208064Y-15780289D01*
X23208066Y-15780292D01*
X23355729Y-15972731D01*
X23355731Y-15972733D01*
X23355735Y-15972738D01*
X23527262Y-16144265D01*
X23527266Y-16144268D01*
X23527268Y-16144270D01*
X23719707Y-16291933D01*
X23719711Y-16291936D01*
X23929788Y-16413224D01*
X24153900Y-16506054D01*
X24388211Y-16568838D01*
X24628712Y-16600500D01*
X24628713Y-16600500D01*
X24871287Y-16600500D01*
X24871288Y-16600500D01*
X25111789Y-16568838D01*
X25346100Y-16506054D01*
X25570212Y-16413224D01*
X25780289Y-16291936D01*
X25972738Y-16144265D01*
X26144265Y-15972738D01*
X26291936Y-15780289D01*
X26413224Y-15570212D01*
X26413228Y-15570204D01*
X26438265Y-15509755D01*
X26506054Y-15346100D01*
X26568838Y-15111789D01*
X26600500Y-14871288D01*
X26600500Y-14628712D01*
X26579769Y-14471242D01*
X26576023Y-14442785D01*
X26574833Y-14433749D01*
X28650000Y-14433749D01*
X28650000Y-14646250D01*
X28683240Y-14856121D01*
X28748904Y-15058215D01*
X28845376Y-15247553D01*
X28845380Y-15247559D01*
X28884728Y-15301716D01*
X28884729Y-15301716D01*
X29517037Y-14669407D01*
X29534075Y-14732993D01*
X29599901Y-14847007D01*
X29692993Y-14940099D01*
X29807007Y-15005925D01*
X29870589Y-15022962D01*
X29238282Y-15655269D01*
X29238282Y-15655270D01*
X29292440Y-15694619D01*
X29292446Y-15694623D01*
X29481784Y-15791095D01*
X29683878Y-15856759D01*
X29893750Y-15890000D01*
X30106250Y-15890000D01*
X30316121Y-15856759D01*
X30518215Y-15791095D01*
X30707556Y-15694620D01*
X30761716Y-15655270D01*
X30129408Y-15022962D01*
X30192993Y-15005925D01*
X30307007Y-14940099D01*
X30400099Y-14847007D01*
X30465925Y-14732993D01*
X30482962Y-14669408D01*
X31115270Y-15301716D01*
X31154620Y-15247556D01*
X31251095Y-15058215D01*
X31316759Y-14856121D01*
X31350000Y-14646250D01*
X31350000Y-14433749D01*
X31316759Y-14223878D01*
X31251095Y-14021784D01*
X31154623Y-13832446D01*
X31154619Y-13832440D01*
X31115270Y-13778282D01*
X31115269Y-13778282D01*
X30482962Y-14410589D01*
X30465925Y-14347007D01*
X30400099Y-14232993D01*
X30307007Y-14139901D01*
X30192993Y-14074075D01*
X30129407Y-14057037D01*
X30761716Y-13424729D01*
X30761716Y-13424728D01*
X30707559Y-13385380D01*
X30707553Y-13385376D01*
X30614000Y-13337709D01*
X30570735Y-13294444D01*
X30561164Y-13234012D01*
X30588941Y-13179496D01*
X30643458Y-13151718D01*
X30658943Y-13150499D01*
X30894864Y-13150499D01*
X30919991Y-13147585D01*
X31022765Y-13102206D01*
X31102206Y-13022765D01*
X31147585Y-12919991D01*
X31150500Y-12894865D01*
X31150499Y-11105136D01*
X31147585Y-11080009D01*
X31102206Y-10977235D01*
X31022765Y-10897794D01*
X30919991Y-10852415D01*
X30919990Y-10852414D01*
X30919988Y-10852414D01*
X30894868Y-10849500D01*
X29105139Y-10849500D01*
X29105136Y-10849501D01*
X29080009Y-10852414D01*
X28977235Y-10897794D01*
X28897794Y-10977235D01*
X28852414Y-11080011D01*
X28849500Y-11105130D01*
X28849500Y-12894860D01*
X28849501Y-12894863D01*
X28852414Y-12919990D01*
X28877756Y-12977385D01*
X28897794Y-13022765D01*
X28977235Y-13102206D01*
X29080009Y-13147585D01*
X29105135Y-13150500D01*
X29341055Y-13150499D01*
X29399243Y-13169406D01*
X29435207Y-13218906D01*
X29435208Y-13280091D01*
X29399244Y-13329591D01*
X29385999Y-13337708D01*
X29292451Y-13385373D01*
X29292442Y-13385378D01*
X29238282Y-13424728D01*
X29870591Y-14057037D01*
X29807007Y-14074075D01*
X29692993Y-14139901D01*
X29599901Y-14232993D01*
X29534075Y-14347007D01*
X29517037Y-14410591D01*
X28884728Y-13778282D01*
X28845378Y-13832442D01*
X28845376Y-13832446D01*
X28748904Y-14021784D01*
X28683240Y-14223878D01*
X28650000Y-14433749D01*
X26574833Y-14433749D01*
X26571065Y-14405128D01*
X26568838Y-14388211D01*
X26506054Y-14153900D01*
X26413224Y-13929788D01*
X26291936Y-13719711D01*
X26144265Y-13527262D01*
X25972738Y-13355735D01*
X25972733Y-13355731D01*
X25972731Y-13355729D01*
X25780292Y-13208066D01*
X25780289Y-13208064D01*
X25570212Y-13086776D01*
X25570208Y-13086774D01*
X25570204Y-13086772D01*
X25346105Y-12993948D01*
X25346104Y-12993947D01*
X25346100Y-12993946D01*
X25111789Y-12931162D01*
X25111786Y-12931161D01*
X25111784Y-12931161D01*
X24871289Y-12899500D01*
X24871288Y-12899500D01*
X24628712Y-12899500D01*
X24628710Y-12899500D01*
X24388218Y-12931161D01*
X24388213Y-12931161D01*
X24153907Y-12993944D01*
X24153894Y-12993948D01*
X23929795Y-13086772D01*
X23719707Y-13208066D01*
X23527268Y-13355729D01*
X23355729Y-13527268D01*
X23208066Y-13719707D01*
X23086772Y-13929795D01*
X22993948Y-14153894D01*
X22993944Y-14153907D01*
X22931161Y-14388213D01*
X22931161Y-14388218D01*
X22899500Y-14628710D01*
X19833724Y-14628710D01*
X28242639Y-6219796D01*
X28297156Y-6192019D01*
X28312643Y-6190800D01*
X41551000Y-6190800D01*
X41609191Y-6209707D01*
X41645155Y-6259207D01*
X41650000Y-6289800D01*
X41650000Y-6749999D01*
X41650001Y-6750000D01*
X42566988Y-6750000D01*
X42534075Y-6807007D01*
X42500000Y-6934174D01*
X42500000Y-7065826D01*
X42534075Y-7192993D01*
X42566988Y-7250000D01*
X41650001Y-7250000D01*
X41650000Y-7250001D01*
X41650000Y-7897824D01*
X41649999Y-7897824D01*
X41656401Y-7957370D01*
X41656403Y-7957381D01*
X41706646Y-8092088D01*
X41706647Y-8092090D01*
X41792807Y-8207184D01*
X41792815Y-8207192D01*
X41907909Y-8293352D01*
X42036444Y-8341293D01*
X42084358Y-8379343D01*
X42100756Y-8438290D01*
X42079374Y-8495618D01*
X42071851Y-8504055D01*
X24572517Y-26003390D01*
X24572516Y-26003391D01*
X24519794Y-26094707D01*
X24519793Y-26094712D01*
X24497963Y-26176186D01*
X24492500Y-26196573D01*
X24492500Y-26680673D01*
X24492500Y-26786127D01*
X24509163Y-26848314D01*
X24519794Y-26887992D01*
X24572516Y-26979308D01*
X24572518Y-26979310D01*
X24572520Y-26979313D01*
X26372833Y-28779626D01*
X26400609Y-28834141D01*
X26391038Y-28894573D01*
X26372832Y-28919631D01*
X26277782Y-29014681D01*
X26277780Y-29014683D01*
X26277780Y-29014684D01*
X26198723Y-29151616D01*
X26157800Y-29304343D01*
X26157800Y-29462457D01*
X26198723Y-29615184D01*
X26277780Y-29752116D01*
X26389584Y-29863920D01*
X26526516Y-29942977D01*
X26679243Y-29983900D01*
X26679245Y-29983900D01*
X26837355Y-29983900D01*
X26837357Y-29983900D01*
X26990084Y-29942977D01*
X27127016Y-29863920D01*
X27222069Y-29768866D01*
X27276583Y-29741090D01*
X27337016Y-29750661D01*
X27362071Y-29768864D01*
X27958418Y-30365210D01*
X27958420Y-30365213D01*
X28032987Y-30439780D01*
X28072438Y-30462557D01*
X28109406Y-30483901D01*
X28109405Y-30483901D01*
X28121159Y-30490686D01*
X28124313Y-30492507D01*
X28124315Y-30492507D01*
X28124316Y-30492508D01*
X28175243Y-30506154D01*
X28226170Y-30519800D01*
X28226172Y-30519801D01*
X28226173Y-30519801D01*
X28337690Y-30519801D01*
X28337706Y-30519800D01*
X29871500Y-30519800D01*
X29929691Y-30538707D01*
X29965655Y-30588207D01*
X29970500Y-30618800D01*
X29970500Y-30750057D01*
X30011423Y-30902784D01*
X30090480Y-31039716D01*
X30202284Y-31151520D01*
X30339216Y-31230577D01*
X30491943Y-31271500D01*
X30491945Y-31271500D01*
X30650055Y-31271500D01*
X30650057Y-31271500D01*
X30802784Y-31230577D01*
X30939716Y-31151520D01*
X30939720Y-31151515D01*
X30939723Y-31151514D01*
X30944866Y-31147569D01*
X30945753Y-31148725D01*
X30993656Y-31124319D01*
X31009143Y-31123100D01*
X33282225Y-31123100D01*
X33282227Y-31123100D01*
X33384088Y-31095807D01*
X33384090Y-31095805D01*
X33384092Y-31095805D01*
X33475408Y-31043083D01*
X33475408Y-31043082D01*
X33475413Y-31043080D01*
X33648298Y-30870194D01*
X33702813Y-30842419D01*
X33763245Y-30851990D01*
X33806510Y-30895255D01*
X33817300Y-30940200D01*
X33817300Y-31060057D01*
X33858223Y-31212784D01*
X33937280Y-31349716D01*
X34049084Y-31461520D01*
X34186016Y-31540577D01*
X34338743Y-31581500D01*
X34338745Y-31581500D01*
X34496855Y-31581500D01*
X34496857Y-31581500D01*
X34649584Y-31540577D01*
X34786516Y-31461520D01*
X34898320Y-31349716D01*
X34977377Y-31212784D01*
X35018300Y-31060057D01*
X35018300Y-30915600D01*
X35037207Y-30857409D01*
X35047296Y-30845596D01*
X35744219Y-30148673D01*
X36447607Y-29445284D01*
X36502122Y-29417509D01*
X36562554Y-29427080D01*
X36605819Y-29470345D01*
X36615390Y-29530777D01*
X36613236Y-29540912D01*
X36599434Y-29592422D01*
X36599000Y-29594043D01*
X36599000Y-29752157D01*
X36639923Y-29904884D01*
X36718980Y-30041816D01*
X36811782Y-30134618D01*
X36839558Y-30189133D01*
X36829987Y-30249565D01*
X36811781Y-30274624D01*
X35113703Y-31972704D01*
X35059186Y-32000481D01*
X35043699Y-32001700D01*
X34053506Y-32001700D01*
X34053490Y-32001699D01*
X34047427Y-32001699D01*
X33941973Y-32001699D01*
X33854241Y-32025207D01*
X33840108Y-32028994D01*
X33810520Y-32046078D01*
X33803019Y-32050409D01*
X33780097Y-32063643D01*
X33748786Y-32081720D01*
X33674219Y-32156286D01*
X33674220Y-32156287D01*
X31851116Y-33979391D01*
X31798394Y-34070707D01*
X31776616Y-34151982D01*
X31776616Y-34151985D01*
X31771100Y-34172573D01*
X31771100Y-34779173D01*
X31771100Y-34884627D01*
X31790109Y-34955572D01*
X31798394Y-34986492D01*
X31851116Y-35077808D01*
X31851120Y-35077813D01*
X32010449Y-35237143D01*
X32038226Y-35291659D01*
X32028655Y-35352091D01*
X31985390Y-35395356D01*
X31924958Y-35404927D01*
X31914834Y-35402775D01*
X31809309Y-35374500D01*
X31690691Y-35374500D01*
X31620567Y-35393289D01*
X31576109Y-35405202D01*
X31473391Y-35464507D01*
X31473386Y-35464511D01*
X31400698Y-35537199D01*
X31346181Y-35564976D01*
X31285749Y-35555404D01*
X31260691Y-35537199D01*
X30730005Y-35006513D01*
X30159896Y-34436403D01*
X30132119Y-34381886D01*
X30130900Y-34366399D01*
X30130900Y-34294244D01*
X30130802Y-34293877D01*
X30089977Y-34141516D01*
X30010920Y-34004584D01*
X29899116Y-33892780D01*
X29762184Y-33813723D01*
X29609457Y-33772800D01*
X29451343Y-33772800D01*
X29298616Y-33813723D01*
X29161684Y-33892780D01*
X29049880Y-34004584D01*
X28970823Y-34141516D01*
X28929900Y-34294243D01*
X28929900Y-34452357D01*
X28970823Y-34605084D01*
X29049880Y-34742016D01*
X29161684Y-34853820D01*
X29298616Y-34932877D01*
X29451343Y-34973800D01*
X29523499Y-34973800D01*
X29581690Y-34992707D01*
X29593503Y-35002796D01*
X32621218Y-38030510D01*
X32621220Y-38030513D01*
X32695787Y-38105080D01*
X32726341Y-38122720D01*
X32765082Y-38145088D01*
X32765085Y-38145089D01*
X32787113Y-38157807D01*
X32888970Y-38185100D01*
X32888972Y-38185101D01*
X32888973Y-38185101D01*
X33000490Y-38185101D01*
X33000506Y-38185100D01*
X37192056Y-38185100D01*
X37250247Y-38204007D01*
X37262059Y-38214096D01*
X37302263Y-38254299D01*
X37313084Y-38265120D01*
X37450016Y-38344177D01*
X37602743Y-38385100D01*
X37602745Y-38385100D01*
X37760855Y-38385100D01*
X37760857Y-38385100D01*
X37913584Y-38344177D01*
X38050516Y-38265120D01*
X38162320Y-38153316D01*
X38241377Y-38016384D01*
X38282300Y-37863657D01*
X38282300Y-37705543D01*
X38241377Y-37552816D01*
X38162320Y-37415884D01*
X38142179Y-37395743D01*
X45798600Y-37395743D01*
X45798600Y-37553857D01*
X45839523Y-37706584D01*
X45918580Y-37843516D01*
X46030384Y-37955320D01*
X46167316Y-38034377D01*
X46320043Y-38075300D01*
X46320045Y-38075300D01*
X46478155Y-38075300D01*
X46478157Y-38075300D01*
X46630884Y-38034377D01*
X46767816Y-37955320D01*
X46879620Y-37843516D01*
X46958677Y-37706584D01*
X46999600Y-37553857D01*
X46999600Y-37484804D01*
X53106000Y-37484804D01*
X53106000Y-37622795D01*
X53132920Y-37758127D01*
X53132920Y-37758129D01*
X53185722Y-37885606D01*
X53185728Y-37885617D01*
X53262385Y-38000341D01*
X53359958Y-38097914D01*
X53474682Y-38174571D01*
X53474693Y-38174577D01*
X53500101Y-38185101D01*
X53602172Y-38227380D01*
X53737507Y-38254300D01*
X53737508Y-38254300D01*
X53875492Y-38254300D01*
X53875493Y-38254300D01*
X54010828Y-38227380D01*
X54138311Y-38174575D01*
X54253042Y-38097914D01*
X54350614Y-38000342D01*
X54427275Y-37885611D01*
X54480080Y-37758128D01*
X54507000Y-37622793D01*
X54507000Y-37484807D01*
X54480080Y-37349472D01*
X54450896Y-37279016D01*
X54427277Y-37221993D01*
X54427271Y-37221982D01*
X54350614Y-37107258D01*
X54253041Y-37009685D01*
X54138317Y-36933028D01*
X54138306Y-36933022D01*
X54010828Y-36880220D01*
X53875495Y-36853300D01*
X53875493Y-36853300D01*
X53737507Y-36853300D01*
X53737504Y-36853300D01*
X53602172Y-36880220D01*
X53602170Y-36880220D01*
X53474693Y-36933022D01*
X53474682Y-36933028D01*
X53359958Y-37009685D01*
X53262385Y-37107258D01*
X53185728Y-37221982D01*
X53185722Y-37221993D01*
X53132920Y-37349470D01*
X53132920Y-37349472D01*
X53106000Y-37484804D01*
X46999600Y-37484804D01*
X46999600Y-37395743D01*
X46958677Y-37243016D01*
X46879620Y-37106084D01*
X46767816Y-36994280D01*
X46630884Y-36915223D01*
X46478157Y-36874300D01*
X46320043Y-36874300D01*
X46167316Y-36915223D01*
X46030384Y-36994280D01*
X45918580Y-37106084D01*
X45839523Y-37243016D01*
X45798600Y-37395743D01*
X38142179Y-37395743D01*
X38050516Y-37304080D01*
X37913584Y-37225023D01*
X37760857Y-37184100D01*
X37602743Y-37184100D01*
X37461365Y-37221982D01*
X37450016Y-37225023D01*
X37313081Y-37304082D01*
X37262059Y-37355104D01*
X37207542Y-37382881D01*
X37192056Y-37384100D01*
X34841322Y-37384100D01*
X34783131Y-37365193D01*
X34747167Y-37315693D01*
X34747167Y-37254507D01*
X34755581Y-37235607D01*
X34809577Y-37142084D01*
X34850500Y-36989357D01*
X34850500Y-36831243D01*
X34809577Y-36678516D01*
X34730520Y-36541584D01*
X34618716Y-36429780D01*
X34481784Y-36350723D01*
X34329057Y-36309800D01*
X34329055Y-36309800D01*
X34256901Y-36309800D01*
X34198710Y-36290893D01*
X34186897Y-36280804D01*
X33017406Y-35111313D01*
X32989629Y-35056796D01*
X32999200Y-34996364D01*
X33037908Y-34955574D01*
X33118716Y-34908920D01*
X33173398Y-34854237D01*
X33227913Y-34826462D01*
X33288345Y-34836033D01*
X33313400Y-34854236D01*
X33381284Y-34922120D01*
X33518216Y-35001177D01*
X33670943Y-35042100D01*
X33670945Y-35042100D01*
X33829055Y-35042100D01*
X33829057Y-35042100D01*
X33981784Y-35001177D01*
X34118716Y-34922120D01*
X34178198Y-34862637D01*
X34232713Y-34834862D01*
X34293145Y-34844433D01*
X34318200Y-34862636D01*
X34379684Y-34924120D01*
X34516616Y-35003177D01*
X34669343Y-35044100D01*
X34669345Y-35044100D01*
X34827455Y-35044100D01*
X34827457Y-35044100D01*
X34980184Y-35003177D01*
X35117116Y-34924120D01*
X35228920Y-34812316D01*
X35307977Y-34675384D01*
X35348900Y-34522657D01*
X35348900Y-34450501D01*
X35367807Y-34392310D01*
X35377896Y-34380497D01*
X35443697Y-34314696D01*
X35498214Y-34286919D01*
X35513701Y-34285700D01*
X36550500Y-34285700D01*
X36608691Y-34304607D01*
X36644655Y-34354107D01*
X36649500Y-34384700D01*
X36649500Y-34516057D01*
X36690423Y-34668784D01*
X36769480Y-34805716D01*
X36881284Y-34917520D01*
X37018216Y-34996577D01*
X37170943Y-35037500D01*
X37170945Y-35037500D01*
X37329055Y-35037500D01*
X37329057Y-35037500D01*
X37481784Y-34996577D01*
X37618716Y-34917520D01*
X37637296Y-34898939D01*
X37691810Y-34871162D01*
X37752242Y-34880732D01*
X37777301Y-34898938D01*
X37795882Y-34917518D01*
X37804784Y-34926420D01*
X37941716Y-35005477D01*
X38094443Y-35046400D01*
X38094445Y-35046400D01*
X38252555Y-35046400D01*
X38252557Y-35046400D01*
X38405284Y-35005477D01*
X38542216Y-34926420D01*
X38654020Y-34814616D01*
X38733077Y-34677684D01*
X38774000Y-34524957D01*
X38774000Y-34384700D01*
X38792907Y-34326509D01*
X38842407Y-34290545D01*
X38873000Y-34285700D01*
X49492125Y-34285700D01*
X49492127Y-34285700D01*
X49593988Y-34258407D01*
X49593990Y-34258405D01*
X49593992Y-34258405D01*
X49685308Y-34205683D01*
X49685308Y-34205682D01*
X49685313Y-34205680D01*
X53289280Y-30601713D01*
X53300710Y-30581916D01*
X53342007Y-30510387D01*
X53369300Y-30408527D01*
X53369300Y-30002643D01*
X53991200Y-30002643D01*
X53991200Y-30160757D01*
X54032123Y-30313484D01*
X54111180Y-30450416D01*
X54222984Y-30562220D01*
X54359916Y-30641277D01*
X54512643Y-30682200D01*
X54512645Y-30682200D01*
X54670755Y-30682200D01*
X54670757Y-30682200D01*
X54823484Y-30641277D01*
X54960416Y-30562220D01*
X55072220Y-30450416D01*
X55151277Y-30313484D01*
X55151278Y-30313478D01*
X55152256Y-30311119D01*
X55153446Y-30309724D01*
X55154521Y-30307864D01*
X55154865Y-30308063D01*
X55191990Y-30264591D01*
X55243722Y-30250000D01*
X63273856Y-30250000D01*
X63332047Y-30268907D01*
X63343860Y-30278996D01*
X63344860Y-30279996D01*
X63372637Y-30334513D01*
X63363066Y-30394945D01*
X63319801Y-30438210D01*
X63274856Y-30449000D01*
X57567173Y-30449000D01*
X57516584Y-30462555D01*
X57465311Y-30476293D01*
X57406259Y-30510388D01*
X57406258Y-30510387D01*
X57373988Y-30529019D01*
X56375616Y-31527391D01*
X56322895Y-31618706D01*
X56322891Y-31618715D01*
X56314378Y-31650491D01*
X56308985Y-31670620D01*
X56295600Y-31720573D01*
X56295600Y-33963773D01*
X56295600Y-34069227D01*
X56319435Y-34158182D01*
X56322894Y-34171092D01*
X56375616Y-34262408D01*
X56375618Y-34262410D01*
X56375620Y-34262413D01*
X56455305Y-34342098D01*
X56483081Y-34396613D01*
X56484300Y-34412100D01*
X56484300Y-34484257D01*
X56525223Y-34636984D01*
X56604280Y-34773916D01*
X56716084Y-34885720D01*
X56853016Y-34964777D01*
X57005743Y-35005700D01*
X57005745Y-35005700D01*
X57163855Y-35005700D01*
X57163857Y-35005700D01*
X57316584Y-34964777D01*
X57453516Y-34885720D01*
X57565320Y-34773916D01*
X57644377Y-34636984D01*
X57685300Y-34484257D01*
X57685300Y-34326143D01*
X57644377Y-34173416D01*
X57565320Y-34036484D01*
X57453516Y-33924680D01*
X57316584Y-33845623D01*
X57169976Y-33806339D01*
X57118662Y-33773016D01*
X57096736Y-33715894D01*
X57096600Y-33710713D01*
X57096600Y-32689368D01*
X57115507Y-32631177D01*
X57165007Y-32595213D01*
X57208527Y-32591216D01*
X57211443Y-32591600D01*
X57283599Y-32591600D01*
X57341790Y-32610507D01*
X57353603Y-32620596D01*
X59889187Y-35156180D01*
X59889189Y-35156181D01*
X59889190Y-35156182D01*
X59889191Y-35156183D01*
X59980508Y-35208905D01*
X59980506Y-35208905D01*
X59980510Y-35208906D01*
X59980512Y-35208907D01*
X60082373Y-35236200D01*
X60082375Y-35236200D01*
X71571025Y-35236200D01*
X71571027Y-35236200D01*
X71672888Y-35208907D01*
X71672890Y-35208905D01*
X71672892Y-35208905D01*
X71764208Y-35156183D01*
X71764208Y-35156182D01*
X71764213Y-35156180D01*
X72226780Y-34693613D01*
X72247593Y-34657565D01*
X72279505Y-34602292D01*
X72279505Y-34602290D01*
X72279507Y-34602288D01*
X72306800Y-34500427D01*
X72306800Y-34394973D01*
X72306800Y-30063573D01*
X72295795Y-30022500D01*
X72279507Y-29961712D01*
X72279505Y-29961709D01*
X72279505Y-29961707D01*
X72226783Y-29870391D01*
X72226782Y-29870390D01*
X72226781Y-29870389D01*
X72226780Y-29870387D01*
X71644496Y-29288103D01*
X71616719Y-29233586D01*
X71615500Y-29218099D01*
X71615500Y-29138393D01*
X71615499Y-29138391D01*
X71611879Y-29120193D01*
X71591463Y-29017548D01*
X71544311Y-28903714D01*
X71511761Y-28855000D01*
X71495153Y-28796114D01*
X71511761Y-28744999D01*
X71544311Y-28696286D01*
X71591463Y-28582452D01*
X71615500Y-28461606D01*
X71615500Y-28338394D01*
X71591463Y-28217548D01*
X71544311Y-28103714D01*
X71511761Y-28055000D01*
X71495153Y-27996114D01*
X71511761Y-27944999D01*
X71544311Y-27896286D01*
X71591463Y-27782452D01*
X71615500Y-27661606D01*
X71615500Y-27538394D01*
X71591463Y-27417548D01*
X71544311Y-27303714D01*
X71475858Y-27201267D01*
X71388733Y-27114142D01*
X71286286Y-27045689D01*
X71286287Y-27045689D01*
X71286285Y-27045688D01*
X71172450Y-26998536D01*
X71051608Y-26974500D01*
X71051606Y-26974500D01*
X70939781Y-26974500D01*
X70881590Y-26955593D01*
X70848316Y-26913384D01*
X70844311Y-26903714D01*
X70775858Y-26801267D01*
X70714095Y-26739504D01*
X70686318Y-26684987D01*
X70695889Y-26624555D01*
X70739154Y-26581290D01*
X70784099Y-26570500D01*
X71258992Y-26570500D01*
X71258993Y-26570500D01*
X71394328Y-26543580D01*
X71521811Y-26490775D01*
X71636542Y-26414114D01*
X71734114Y-26316542D01*
X71810775Y-26201811D01*
X71863580Y-26074328D01*
X71890500Y-25938993D01*
X71890500Y-25801007D01*
X71863580Y-25665672D01*
X71829162Y-25582580D01*
X71810777Y-25538193D01*
X71810771Y-25538182D01*
X71734114Y-25423458D01*
X71636541Y-25325885D01*
X71521817Y-25249228D01*
X71521806Y-25249222D01*
X71394328Y-25196420D01*
X71258995Y-25169500D01*
X71258993Y-25169500D01*
X70521007Y-25169500D01*
X70521004Y-25169500D01*
X70385672Y-25196420D01*
X70385670Y-25196420D01*
X70258193Y-25249222D01*
X70258182Y-25249228D01*
X70143458Y-25325885D01*
X70045885Y-25423458D01*
X69969228Y-25538182D01*
X69969224Y-25538190D01*
X69946573Y-25592875D01*
X69906836Y-25639401D01*
X69847341Y-25653684D01*
X69826367Y-25649725D01*
X69822454Y-25648538D01*
X69822452Y-25648537D01*
X69776521Y-25639401D01*
X69701608Y-25624500D01*
X69701606Y-25624500D01*
X69578394Y-25624500D01*
X69578391Y-25624500D01*
X69457549Y-25648536D01*
X69343714Y-25695688D01*
X69241267Y-25764142D01*
X69241263Y-25764145D01*
X69154145Y-25851263D01*
X69154142Y-25851267D01*
X69085688Y-25953714D01*
X69038536Y-26067549D01*
X69014500Y-26188391D01*
X69014500Y-26611608D01*
X69038536Y-26732450D01*
X69085688Y-26846285D01*
X69087043Y-26848313D01*
X69154142Y-26948733D01*
X69241267Y-27035858D01*
X69343714Y-27104311D01*
X69457548Y-27151463D01*
X69578394Y-27175500D01*
X69583165Y-27176449D01*
X69582803Y-27178268D01*
X69631973Y-27199770D01*
X69662917Y-27252554D01*
X69663772Y-27257949D01*
X69688536Y-27382450D01*
X69735688Y-27496285D01*
X69735689Y-27496286D01*
X69804142Y-27598733D01*
X69891267Y-27685858D01*
X69993714Y-27754311D01*
X70107548Y-27801463D01*
X70228394Y-27825500D01*
X70228396Y-27825500D01*
X70340218Y-27825500D01*
X70398409Y-27844407D01*
X70431682Y-27886613D01*
X70435687Y-27896283D01*
X70468238Y-27944999D01*
X70484846Y-28003887D01*
X70468237Y-28055001D01*
X70435689Y-28103714D01*
X70431681Y-28113388D01*
X70391945Y-28159912D01*
X70340219Y-28174500D01*
X70228391Y-28174500D01*
X70107549Y-28198536D01*
X69993714Y-28245688D01*
X69891267Y-28314142D01*
X69891263Y-28314145D01*
X69804145Y-28401263D01*
X69804142Y-28401267D01*
X69735688Y-28503714D01*
X69688538Y-28617544D01*
X69688537Y-28617549D01*
X69672837Y-28696474D01*
X69645743Y-28747162D01*
X69385820Y-29007086D01*
X69385816Y-29007091D01*
X69333094Y-29098408D01*
X69333092Y-29098412D01*
X69322379Y-29138392D01*
X69322380Y-29138393D01*
X69322380Y-29138394D01*
X69305800Y-29200273D01*
X69305800Y-30636273D01*
X69305800Y-30741727D01*
X69313495Y-30770444D01*
X69333094Y-30843592D01*
X69385816Y-30934908D01*
X69385818Y-30934910D01*
X69385820Y-30934913D01*
X69635505Y-31184598D01*
X69663281Y-31239113D01*
X69664500Y-31254600D01*
X69664500Y-31261608D01*
X69688536Y-31382450D01*
X69735688Y-31496285D01*
X69741193Y-31504523D01*
X69804142Y-31598733D01*
X69891267Y-31685858D01*
X69993714Y-31754311D01*
X70107548Y-31801463D01*
X70228394Y-31825500D01*
X70228396Y-31825500D01*
X70340218Y-31825500D01*
X70398409Y-31844407D01*
X70431682Y-31886613D01*
X70435687Y-31896283D01*
X70468238Y-31944999D01*
X70484846Y-32003887D01*
X70468237Y-32055001D01*
X70435689Y-32103714D01*
X70431681Y-32113388D01*
X70391945Y-32159912D01*
X70340219Y-32174500D01*
X70228391Y-32174500D01*
X70107549Y-32198536D01*
X69993714Y-32245688D01*
X69891267Y-32314142D01*
X69891263Y-32314145D01*
X69804145Y-32401263D01*
X69804142Y-32401267D01*
X69735688Y-32503714D01*
X69688536Y-32617549D01*
X69664500Y-32738391D01*
X69664500Y-32861610D01*
X69673367Y-32906187D01*
X69666175Y-32966948D01*
X69624642Y-33011878D01*
X69576269Y-33024500D01*
X69564234Y-33024500D01*
X69506051Y-33040090D01*
X69417860Y-33063720D01*
X69286639Y-33139481D01*
X69179481Y-33246639D01*
X69103720Y-33377860D01*
X69085304Y-33446593D01*
X69064500Y-33524234D01*
X69064500Y-33675766D01*
X69078335Y-33727400D01*
X69103720Y-33822139D01*
X69179481Y-33953360D01*
X69179483Y-33953362D01*
X69179485Y-33953365D01*
X69286635Y-34060515D01*
X69286637Y-34060516D01*
X69286639Y-34060518D01*
X69417861Y-34136279D01*
X69417859Y-34136279D01*
X69417863Y-34136280D01*
X69417865Y-34136281D01*
X69564234Y-34175500D01*
X69564236Y-34175500D01*
X69715765Y-34175500D01*
X69715766Y-34175500D01*
X69774172Y-34159850D01*
X69835273Y-34163051D01*
X69882823Y-34201556D01*
X69896893Y-34236161D01*
X69901051Y-34257064D01*
X69912950Y-34316887D01*
X69905760Y-34377646D01*
X69864228Y-34422577D01*
X69815853Y-34435200D01*
X60342001Y-34435200D01*
X60283810Y-34416293D01*
X60271997Y-34406204D01*
X57919996Y-32054203D01*
X57892219Y-31999686D01*
X57891000Y-31984199D01*
X57891000Y-31912044D01*
X57891000Y-31912043D01*
X57850077Y-31759316D01*
X57771020Y-31622384D01*
X57662215Y-31513579D01*
X57634440Y-31459065D01*
X57644011Y-31398633D01*
X57662218Y-31373574D01*
X57683013Y-31352780D01*
X57756797Y-31278996D01*
X57811314Y-31251219D01*
X57826800Y-31250000D01*
X67679656Y-31250000D01*
X67737847Y-31268907D01*
X67749659Y-31278996D01*
X67788207Y-31317543D01*
X67800684Y-31330020D01*
X67937616Y-31409077D01*
X68090343Y-31450000D01*
X68090345Y-31450000D01*
X68248455Y-31450000D01*
X68248457Y-31450000D01*
X68401184Y-31409077D01*
X68538116Y-31330020D01*
X68649920Y-31218216D01*
X68728977Y-31081284D01*
X68769900Y-30928557D01*
X68769900Y-30770443D01*
X68728977Y-30617716D01*
X68649920Y-30480784D01*
X68538116Y-30368980D01*
X68401184Y-30289923D01*
X68248457Y-30249000D01*
X68090343Y-30249000D01*
X67937616Y-30289923D01*
X67826619Y-30354007D01*
X67800681Y-30368982D01*
X67749659Y-30420004D01*
X67695142Y-30447781D01*
X67679656Y-30449000D01*
X64252343Y-30449000D01*
X64194152Y-30430093D01*
X64158188Y-30380593D01*
X64158188Y-30319407D01*
X64182337Y-30279998D01*
X64244120Y-30218216D01*
X64323177Y-30081284D01*
X64364100Y-29928557D01*
X64364100Y-29770443D01*
X64323177Y-29617716D01*
X64244120Y-29480784D01*
X64132316Y-29368980D01*
X63995384Y-29289923D01*
X63842657Y-29249000D01*
X63684543Y-29249000D01*
X63531816Y-29289923D01*
X63396208Y-29368216D01*
X63394881Y-29368982D01*
X63343859Y-29420004D01*
X63289342Y-29447781D01*
X63273856Y-29449000D01*
X54771173Y-29449000D01*
X54669313Y-29476293D01*
X54669311Y-29476294D01*
X54663590Y-29477827D01*
X54637967Y-29481200D01*
X54512643Y-29481200D01*
X54359916Y-29522123D01*
X54222984Y-29601180D01*
X54111180Y-29712984D01*
X54032123Y-29849916D01*
X53991200Y-30002643D01*
X53369300Y-30002643D01*
X53369300Y-27113714D01*
X53369301Y-27113701D01*
X53369301Y-27000275D01*
X53369301Y-27000273D01*
X53342007Y-26898412D01*
X53313082Y-26848313D01*
X53289280Y-26807087D01*
X53214713Y-26732520D01*
X53214710Y-26732518D01*
X52126236Y-25644043D01*
X66310100Y-25644043D01*
X66310100Y-25802157D01*
X66351023Y-25954884D01*
X66430080Y-26091816D01*
X66541884Y-26203620D01*
X66678816Y-26282677D01*
X66831543Y-26323600D01*
X66831545Y-26323600D01*
X66989655Y-26323600D01*
X66989657Y-26323600D01*
X67142384Y-26282677D01*
X67279316Y-26203620D01*
X67391120Y-26091816D01*
X67470177Y-25954884D01*
X67511100Y-25802157D01*
X67511100Y-25644043D01*
X67470177Y-25491316D01*
X67391120Y-25354384D01*
X67279316Y-25242580D01*
X67142384Y-25163523D01*
X66989657Y-25122600D01*
X66831543Y-25122600D01*
X66678816Y-25163523D01*
X66541884Y-25242580D01*
X66430080Y-25354384D01*
X66351023Y-25491316D01*
X66310100Y-25644043D01*
X52126236Y-25644043D01*
X51532436Y-25050243D01*
X68004600Y-25050243D01*
X68004600Y-25208357D01*
X68045523Y-25361084D01*
X68124580Y-25498016D01*
X68236384Y-25609820D01*
X68373316Y-25688877D01*
X68526043Y-25729800D01*
X68526045Y-25729800D01*
X68684155Y-25729800D01*
X68684157Y-25729800D01*
X68836884Y-25688877D01*
X68973816Y-25609820D01*
X69085620Y-25498016D01*
X69164677Y-25361084D01*
X69205600Y-25208357D01*
X69205600Y-25050243D01*
X69164677Y-24897516D01*
X69085620Y-24760584D01*
X68973816Y-24648780D01*
X68836884Y-24569723D01*
X68684157Y-24528800D01*
X68526043Y-24528800D01*
X68373316Y-24569723D01*
X68236384Y-24648780D01*
X68124580Y-24760584D01*
X68045523Y-24897516D01*
X68004600Y-25050243D01*
X51532436Y-25050243D01*
X51045113Y-24562920D01*
X51045110Y-24562918D01*
X51045108Y-24562916D01*
X50953791Y-24510194D01*
X50953793Y-24510194D01*
X50914270Y-24499604D01*
X50851927Y-24482900D01*
X50851925Y-24482900D01*
X49739644Y-24482900D01*
X49681453Y-24463993D01*
X49669642Y-24453905D01*
X49638041Y-24422305D01*
X49610262Y-24367789D01*
X49619833Y-24307356D01*
X49663097Y-24264091D01*
X49708043Y-24253300D01*
X54139925Y-24253300D01*
X54139927Y-24253300D01*
X54241788Y-24226007D01*
X54241790Y-24226005D01*
X54241792Y-24226005D01*
X54333108Y-24173283D01*
X54333108Y-24173282D01*
X54333113Y-24173280D01*
X54426189Y-24080204D01*
X61826500Y-24080204D01*
X61826500Y-24218195D01*
X61853420Y-24353527D01*
X61853420Y-24353529D01*
X61906222Y-24481006D01*
X61906228Y-24481017D01*
X61982885Y-24595741D01*
X62080458Y-24693314D01*
X62195182Y-24769971D01*
X62195193Y-24769977D01*
X62242283Y-24789482D01*
X62322672Y-24822780D01*
X62458007Y-24849700D01*
X62458008Y-24849700D01*
X62595992Y-24849700D01*
X62595993Y-24849700D01*
X62731328Y-24822780D01*
X62858811Y-24769975D01*
X62973542Y-24693314D01*
X63071114Y-24595742D01*
X63147775Y-24481011D01*
X63200580Y-24353528D01*
X63227500Y-24218193D01*
X63227500Y-24080207D01*
X63200580Y-23944872D01*
X63182978Y-23902377D01*
X63147777Y-23817393D01*
X63147771Y-23817382D01*
X63071114Y-23702658D01*
X62973541Y-23605085D01*
X62858817Y-23528428D01*
X62858806Y-23528422D01*
X62731328Y-23475620D01*
X62595995Y-23448700D01*
X62595993Y-23448700D01*
X62458007Y-23448700D01*
X62458004Y-23448700D01*
X62322672Y-23475620D01*
X62322670Y-23475620D01*
X62195193Y-23528422D01*
X62195182Y-23528428D01*
X62080458Y-23605085D01*
X61982885Y-23702658D01*
X61906228Y-23817382D01*
X61906222Y-23817393D01*
X61853420Y-23944870D01*
X61853420Y-23944872D01*
X61826500Y-24080204D01*
X54426189Y-24080204D01*
X56309150Y-22197243D01*
X66310700Y-22197243D01*
X66310700Y-22355357D01*
X66351623Y-22508084D01*
X66430680Y-22645016D01*
X66542484Y-22756820D01*
X66679416Y-22835877D01*
X66832143Y-22876800D01*
X66832145Y-22876800D01*
X66990255Y-22876800D01*
X66990257Y-22876800D01*
X67142984Y-22835877D01*
X67279916Y-22756820D01*
X67391720Y-22645016D01*
X67470777Y-22508084D01*
X67511700Y-22355357D01*
X67511700Y-22197243D01*
X67470777Y-22044516D01*
X67391720Y-21907584D01*
X67279916Y-21795780D01*
X67142984Y-21716723D01*
X66990257Y-21675800D01*
X66832143Y-21675800D01*
X66679416Y-21716723D01*
X66542484Y-21795780D01*
X66430680Y-21907584D01*
X66351623Y-22044516D01*
X66310700Y-22197243D01*
X56309150Y-22197243D01*
X70411552Y-8094839D01*
X70466067Y-8067064D01*
X70512146Y-8070690D01*
X70524627Y-8074745D01*
X70670591Y-8122171D01*
X70735093Y-8132387D01*
X70849451Y-8150500D01*
X70849454Y-8150500D01*
X71030549Y-8150500D01*
X71144907Y-8132387D01*
X71209409Y-8122171D01*
X71381639Y-8066211D01*
X71542994Y-7983996D01*
X71689501Y-7877553D01*
X71817553Y-7749501D01*
X71923996Y-7602994D01*
X72006211Y-7441639D01*
X72062171Y-7269409D01*
X72090500Y-7090546D01*
X72090500Y-6909454D01*
X72090500Y-6909450D01*
X72062172Y-6730595D01*
X72062171Y-6730591D01*
X72045600Y-6679589D01*
X72045600Y-6618405D01*
X72081564Y-6568905D01*
X72139755Y-6549998D01*
X72197946Y-6568905D01*
X72209759Y-6578994D01*
X72322643Y-6691878D01*
X72350420Y-6746395D01*
X72350420Y-6777369D01*
X72329500Y-6909450D01*
X72329500Y-7090549D01*
X72357828Y-7269406D01*
X72413788Y-7441637D01*
X72496001Y-7602990D01*
X72496004Y-7602994D01*
X72602447Y-7749501D01*
X72730499Y-7877553D01*
X72877006Y-7983996D01*
X73038361Y-8066211D01*
X73210591Y-8122171D01*
X73275093Y-8132387D01*
X73389451Y-8150500D01*
X73389454Y-8150500D01*
X73570549Y-8150500D01*
X73684907Y-8132387D01*
X73749409Y-8122171D01*
X73921639Y-8066211D01*
X74082994Y-7983996D01*
X74229501Y-7877553D01*
X74357553Y-7749501D01*
X74463996Y-7602994D01*
X74546211Y-7441639D01*
X74602171Y-7269409D01*
X74630500Y-7090546D01*
X74630500Y-6909454D01*
X74630500Y-6909450D01*
X74869500Y-6909450D01*
X74869500Y-7090549D01*
X74897828Y-7269406D01*
X74953788Y-7441637D01*
X75036001Y-7602990D01*
X75036004Y-7602994D01*
X75142447Y-7749501D01*
X75270499Y-7877553D01*
X75417006Y-7983996D01*
X75578361Y-8066211D01*
X75750591Y-8122171D01*
X75815093Y-8132387D01*
X75929451Y-8150500D01*
X75929454Y-8150500D01*
X76110549Y-8150500D01*
X76224907Y-8132387D01*
X76289409Y-8122171D01*
X76461639Y-8066211D01*
X76622994Y-7983996D01*
X76769501Y-7877553D01*
X76897553Y-7749501D01*
X77003996Y-7602994D01*
X77086211Y-7441639D01*
X77142171Y-7269409D01*
X77170500Y-7090546D01*
X77170500Y-6909454D01*
X77170500Y-6909450D01*
X77144073Y-6742599D01*
X77142171Y-6730591D01*
X77086211Y-6558361D01*
X77003996Y-6397006D01*
X76897553Y-6250499D01*
X76769501Y-6122447D01*
X76622994Y-6016004D01*
X76622993Y-6016003D01*
X76622991Y-6016002D01*
X76461637Y-5933788D01*
X76289406Y-5877828D01*
X76110549Y-5849500D01*
X76110546Y-5849500D01*
X75929454Y-5849500D01*
X75929451Y-5849500D01*
X75750593Y-5877828D01*
X75578362Y-5933788D01*
X75417008Y-6016002D01*
X75343752Y-6069225D01*
X75270499Y-6122447D01*
X75142447Y-6250499D01*
X75091666Y-6320393D01*
X75036002Y-6397008D01*
X74953788Y-6558362D01*
X74897828Y-6730593D01*
X74869500Y-6909450D01*
X74630500Y-6909450D01*
X74604073Y-6742599D01*
X74602171Y-6730591D01*
X74546211Y-6558361D01*
X74463996Y-6397006D01*
X74357553Y-6250499D01*
X74229501Y-6122447D01*
X74082994Y-6016004D01*
X74082993Y-6016003D01*
X74082991Y-6016002D01*
X73921637Y-5933788D01*
X73749406Y-5877828D01*
X73570549Y-5849500D01*
X73570546Y-5849500D01*
X73389454Y-5849500D01*
X73389451Y-5849500D01*
X73257369Y-5870420D01*
X73196937Y-5860849D01*
X73171878Y-5842643D01*
X72550821Y-5221586D01*
X72550820Y-5221584D01*
X72439016Y-5109780D01*
X72352204Y-5059660D01*
X72352203Y-5059659D01*
X72302088Y-5030725D01*
X72302085Y-5030723D01*
X72149357Y-4989799D01*
X71991243Y-4989799D01*
X71985180Y-4989799D01*
X71985164Y-4989800D01*
X27943842Y-4989800D01*
X27902918Y-5000765D01*
X27902917Y-5000764D01*
X27791119Y-5030721D01*
X27791118Y-5030721D01*
X27654181Y-5109782D01*
X27542379Y-5221583D01*
X27542380Y-5221584D01*
X27542378Y-5221586D01*
X19775930Y-12988033D01*
X19721413Y-13015810D01*
X19660981Y-13006239D01*
X19620191Y-12967530D01*
X19590720Y-12916484D01*
X19478916Y-12804680D01*
X19341984Y-12725623D01*
X19189257Y-12684700D01*
X19189255Y-12684700D01*
X19117101Y-12684700D01*
X19058910Y-12665793D01*
X19047097Y-12655704D01*
X17423665Y-11032272D01*
X15775513Y-9384120D01*
X15775510Y-9384118D01*
X15775509Y-9384117D01*
X15775508Y-9384116D01*
X15684191Y-9331394D01*
X15684193Y-9331394D01*
X15644670Y-9320804D01*
X15582327Y-9304100D01*
X15582325Y-9304100D01*
X7106844Y-9304100D01*
X7048653Y-9285193D01*
X7036841Y-9275104D01*
X6985818Y-9224082D01*
X6985816Y-9224080D01*
X6848884Y-9145023D01*
X6696157Y-9104100D01*
X6538043Y-9104100D01*
X6385316Y-9145023D01*
X6248384Y-9224080D01*
X6136580Y-9335884D01*
X6057523Y-9472816D01*
X6016600Y-9625543D01*
X6016600Y-9783657D01*
X6057523Y-9936384D01*
X6136580Y-10073316D01*
X6248384Y-10185120D01*
X6385316Y-10264177D01*
X6538043Y-10305100D01*
X6538045Y-10305100D01*
X6696155Y-10305100D01*
X6696157Y-10305100D01*
X6848884Y-10264177D01*
X6985816Y-10185120D01*
X7011329Y-10159606D01*
X7036841Y-10134096D01*
X7091358Y-10106319D01*
X7106844Y-10105100D01*
X15322699Y-10105100D01*
X15380890Y-10124007D01*
X15392703Y-10134096D01*
X18480704Y-13222097D01*
X18508481Y-13276614D01*
X18509700Y-13292101D01*
X18509700Y-13364257D01*
X18550623Y-13516984D01*
X18629680Y-13653916D01*
X18741484Y-13765720D01*
X18792529Y-13795191D01*
X18833469Y-13840658D01*
X18839866Y-13901508D01*
X18813033Y-13950930D01*
X18320498Y-14443465D01*
X18265981Y-14471242D01*
X18248856Y-14471748D01*
X18248856Y-14472300D01*
X18106004Y-14472300D01*
X17970672Y-14499220D01*
X17970670Y-14499220D01*
X17843190Y-14552024D01*
X17837816Y-14555615D01*
X17782814Y-14572300D01*
X5602164Y-14572300D01*
X5543973Y-14553393D01*
X5532160Y-14543304D01*
X5470641Y-14481785D01*
X5355917Y-14405128D01*
X5355906Y-14405122D01*
X5228428Y-14352320D01*
X5093095Y-14325400D01*
X5093093Y-14325400D01*
X4955107Y-14325400D01*
X4955104Y-14325400D01*
X4819772Y-14352320D01*
X4819770Y-14352320D01*
X4692293Y-14405122D01*
X4692282Y-14405128D01*
X4577558Y-14481785D01*
X4479985Y-14579358D01*
X4403328Y-14694082D01*
X4403322Y-14694093D01*
X4350520Y-14821570D01*
X4350520Y-14821572D01*
X4323600Y-14956904D01*
X2000000Y-14956904D01*
X2000000Y-12543004D01*
X7213700Y-12543004D01*
X7213700Y-12680995D01*
X7240620Y-12816327D01*
X7240620Y-12816329D01*
X7293422Y-12943806D01*
X7293428Y-12943817D01*
X7370085Y-13058541D01*
X7467658Y-13156114D01*
X7582382Y-13232771D01*
X7582393Y-13232777D01*
X7585375Y-13234012D01*
X7709872Y-13285580D01*
X7845207Y-13312500D01*
X7845208Y-13312500D01*
X7983192Y-13312500D01*
X7983193Y-13312500D01*
X8118528Y-13285580D01*
X8246011Y-13232775D01*
X8360742Y-13156114D01*
X8458314Y-13058542D01*
X8534975Y-12943811D01*
X8587780Y-12816328D01*
X8614700Y-12680993D01*
X8614700Y-12543007D01*
X8587780Y-12407672D01*
X8534975Y-12280189D01*
X8534974Y-12280187D01*
X8534971Y-12280182D01*
X8458314Y-12165458D01*
X8392260Y-12099404D01*
X12131100Y-12099404D01*
X12131100Y-12237395D01*
X12158020Y-12372727D01*
X12158020Y-12372729D01*
X12210822Y-12500206D01*
X12210828Y-12500217D01*
X12287485Y-12614941D01*
X12385058Y-12712514D01*
X12499782Y-12789171D01*
X12499793Y-12789177D01*
X12546883Y-12808682D01*
X12627272Y-12841980D01*
X12762607Y-12868900D01*
X12762608Y-12868900D01*
X12900592Y-12868900D01*
X12900593Y-12868900D01*
X13035928Y-12841980D01*
X13163411Y-12789175D01*
X13278142Y-12712514D01*
X13375714Y-12614942D01*
X13452375Y-12500211D01*
X13505180Y-12372728D01*
X13532100Y-12237393D01*
X13532100Y-12099407D01*
X13505180Y-11964072D01*
X13452375Y-11836589D01*
X13452374Y-11836587D01*
X13452371Y-11836582D01*
X13375714Y-11721858D01*
X13278141Y-11624285D01*
X13163417Y-11547628D01*
X13163406Y-11547622D01*
X13035928Y-11494820D01*
X12900595Y-11467900D01*
X12900593Y-11467900D01*
X12762607Y-11467900D01*
X12762604Y-11467900D01*
X12627272Y-11494820D01*
X12627270Y-11494820D01*
X12499793Y-11547622D01*
X12499782Y-11547628D01*
X12385058Y-11624285D01*
X12287485Y-11721858D01*
X12210828Y-11836582D01*
X12210822Y-11836593D01*
X12158020Y-11964070D01*
X12158020Y-11964072D01*
X12131100Y-12099404D01*
X8392260Y-12099404D01*
X8360741Y-12067885D01*
X8246017Y-11991228D01*
X8246006Y-11991222D01*
X8118528Y-11938420D01*
X7983195Y-11911500D01*
X7983193Y-11911500D01*
X7845207Y-11911500D01*
X7845204Y-11911500D01*
X7709872Y-11938420D01*
X7709870Y-11938420D01*
X7582393Y-11991222D01*
X7582382Y-11991228D01*
X7467658Y-12067885D01*
X7370085Y-12165458D01*
X7293428Y-12280182D01*
X7293422Y-12280193D01*
X7240620Y-12407670D01*
X7240620Y-12407672D01*
X7213700Y-12543004D01*
X2000000Y-12543004D01*
X2000000Y-8897304D01*
X20215800Y-8897304D01*
X20215800Y-9035295D01*
X20242720Y-9170627D01*
X20242720Y-9170629D01*
X20295522Y-9298106D01*
X20295528Y-9298117D01*
X20372185Y-9412841D01*
X20469758Y-9510414D01*
X20584482Y-9587071D01*
X20584493Y-9587077D01*
X20631583Y-9606582D01*
X20711972Y-9639880D01*
X20847307Y-9666800D01*
X20847308Y-9666800D01*
X20985292Y-9666800D01*
X20985293Y-9666800D01*
X21120628Y-9639880D01*
X21248111Y-9587075D01*
X21362842Y-9510414D01*
X21460414Y-9412842D01*
X21537075Y-9298111D01*
X21589880Y-9170628D01*
X21616800Y-9035293D01*
X21616800Y-8897307D01*
X21589880Y-8761972D01*
X21537075Y-8634489D01*
X21537074Y-8634487D01*
X21537071Y-8634482D01*
X21460414Y-8519758D01*
X21362841Y-8422185D01*
X21248117Y-8345528D01*
X21248106Y-8345522D01*
X21120628Y-8292720D01*
X20985295Y-8265800D01*
X20985293Y-8265800D01*
X20847307Y-8265800D01*
X20847304Y-8265800D01*
X20711972Y-8292720D01*
X20711970Y-8292720D01*
X20584493Y-8345522D01*
X20584482Y-8345528D01*
X20469758Y-8422185D01*
X20372185Y-8519758D01*
X20295528Y-8634482D01*
X20295522Y-8634493D01*
X20242720Y-8761970D01*
X20242720Y-8761972D01*
X20215800Y-8897304D01*
X2000000Y-8897304D01*
X2000000Y-5973104D01*
X5162000Y-5973104D01*
X5162000Y-6111095D01*
X5188920Y-6246427D01*
X5188920Y-6246429D01*
X5241722Y-6373906D01*
X5241728Y-6373917D01*
X5318385Y-6488641D01*
X5415958Y-6586214D01*
X5530682Y-6662871D01*
X5530693Y-6662877D01*
X5571045Y-6679591D01*
X5658172Y-6715680D01*
X5793507Y-6742600D01*
X5793508Y-6742600D01*
X5931492Y-6742600D01*
X5931493Y-6742600D01*
X6066828Y-6715680D01*
X6194311Y-6662875D01*
X6309042Y-6586214D01*
X6406614Y-6488642D01*
X6483275Y-6373911D01*
X6536080Y-6246428D01*
X6563000Y-6111093D01*
X6563000Y-5973107D01*
X6536080Y-5837772D01*
X6483275Y-5710289D01*
X6483274Y-5710287D01*
X6483271Y-5710282D01*
X6406614Y-5595558D01*
X6309041Y-5497985D01*
X6194317Y-5421328D01*
X6194306Y-5421322D01*
X6066828Y-5368520D01*
X5931495Y-5341600D01*
X5931493Y-5341600D01*
X5793507Y-5341600D01*
X5793504Y-5341600D01*
X5658172Y-5368520D01*
X5658170Y-5368520D01*
X5530693Y-5421322D01*
X5530682Y-5421328D01*
X5415958Y-5497985D01*
X5318385Y-5595558D01*
X5241728Y-5710282D01*
X5241722Y-5710293D01*
X5188920Y-5837770D01*
X5188920Y-5837772D01*
X5162000Y-5973104D01*
X2000000Y-5973104D01*
X2000000Y-2099000D01*
X2018907Y-2040809D01*
X2068407Y-2004845D01*
X2099000Y-2000000D01*
X77901000Y-2000000D01*
X77959191Y-2018907D01*
G37*
%TD.AperFunction*%
%TD*%
M02*
