%TF.GenerationSoftware,KiCad,Pcbnew,10.0.5*%
%TF.CreationDate,2026-08-18T16:33:31-04:00*%
%TF.ProjectId,bench_board,62656e63-685f-4626-9f61-72642e6b6963,rev?*%
%TF.SameCoordinates,Original*%
%TF.FileFunction,Legend,Top*%
%TF.FilePolarity,Positive*%
%FSLAX46Y46*%
G04 Gerber Fmt 4.6, Leading zero omitted, Abs format (unit mm)*
G04 Created by KiCad (PCBNEW 10.0.5) date 2026-08-18 16:33:31*
%MOMM*%
%LPD*%
G01*
G04 APERTURE LIST*
G04 Aperture macros list*
%AMRoundRect*
0 Rectangle with rounded corners*
0 $1 Rounding radius*
0 $2 $3 $4 $5 $6 $7 $8 $9 X,Y pos of 4 corners*
0 Add a 4 corners polygon primitive as box body*
4,1,4,$2,$3,$4,$5,$6,$7,$8,$9,$2,$3,0*
0 Add four circle primitives for the rounded corners*
1,1,$1+$1,$2,$3*
1,1,$1+$1,$4,$5*
1,1,$1+$1,$6,$7*
1,1,$1+$1,$8,$9*
0 Add four rect primitives between the rounded corners*
20,1,$1+$1,$2,$3,$4,$5,0*
20,1,$1+$1,$4,$5,$6,$7,0*
20,1,$1+$1,$6,$7,$8,$9,0*
20,1,$1+$1,$8,$9,$2,$3,0*%
G04 Aperture macros list end*
%ADD10C,0.150000*%
%ADD11C,0.120000*%
%ADD12RoundRect,0.225000X-0.225000X-0.375000X0.225000X-0.375000X0.225000X0.375000X-0.225000X0.375000X0*%
%ADD13RoundRect,0.135000X-0.135000X-0.185000X0.135000X-0.185000X0.135000X0.185000X-0.135000X0.185000X0*%
%ADD14RoundRect,0.135000X0.135000X0.185000X-0.135000X0.185000X-0.135000X-0.185000X0.135000X-0.185000X0*%
%ADD15R,1.700000X1.700000*%
%ADD16C,1.700000*%
%ADD17C,6.000000*%
%ADD18RoundRect,0.250000X-0.375000X-1.075000X0.375000X-1.075000X0.375000X1.075000X-0.375000X1.075000X0*%
%ADD19RoundRect,0.135000X-0.185000X0.135000X-0.185000X-0.135000X0.185000X-0.135000X0.185000X0.135000X0*%
%ADD20RoundRect,0.250000X-0.250000X-0.475000X0.250000X-0.475000X0.250000X0.475000X-0.250000X0.475000X0*%
%ADD21RoundRect,0.135000X0.185000X-0.135000X0.185000X0.135000X-0.185000X0.135000X-0.185000X-0.135000X0*%
%ADD22RoundRect,0.140000X-0.140000X-0.170000X0.140000X-0.170000X0.140000X0.170000X-0.140000X0.170000X0*%
%ADD23C,0.650000*%
%ADD24O,0.650000X0.950000*%
%ADD25RoundRect,0.075000X0.275000X-0.075000X0.275000X0.075000X-0.275000X0.075000X-0.275000X-0.075000X0*%
%ADD26O,1.400000X0.800000*%
%ADD27RoundRect,0.225000X-0.250000X0.225000X-0.250000X-0.225000X0.250000X-0.225000X0.250000X0.225000X0*%
%ADD28RoundRect,0.200000X-0.200000X-0.275000X0.200000X-0.275000X0.200000X0.275000X-0.200000X0.275000X0*%
%ADD29RoundRect,0.140000X-0.170000X0.140000X-0.170000X-0.140000X0.170000X-0.140000X0.170000X0.140000X0*%
%ADD30RoundRect,0.150000X-0.825000X-0.150000X0.825000X-0.150000X0.825000X0.150000X-0.825000X0.150000X0*%
%ADD31R,2.410000X3.810000*%
%ADD32RoundRect,0.150000X-0.512500X-0.150000X0.512500X-0.150000X0.512500X0.150000X-0.512500X0.150000X0*%
%ADD33RoundRect,0.225000X0.225000X0.250000X-0.225000X0.250000X-0.225000X-0.250000X0.225000X-0.250000X0*%
%ADD34RoundRect,0.075000X-0.350000X-0.075000X0.350000X-0.075000X0.350000X0.075000X-0.350000X0.075000X0*%
%ADD35RoundRect,0.075000X0.075000X-0.350000X0.075000X0.350000X-0.075000X0.350000X-0.075000X-0.350000X0*%
%ADD36RoundRect,0.250000X-1.075000X0.375000X-1.075000X-0.375000X1.075000X-0.375000X1.075000X0.375000X0*%
%ADD37RoundRect,0.250000X-1.000000X-0.650000X1.000000X-0.650000X1.000000X0.650000X-1.000000X0.650000X0*%
%ADD38RoundRect,0.250000X-0.750000X-0.950000X0.750000X-0.950000X0.750000X0.950000X-0.750000X0.950000X0*%
%ADD39RoundRect,0.250000X-0.325000X-1.100000X0.325000X-1.100000X0.325000X1.100000X-0.325000X1.100000X0*%
%ADD40RoundRect,0.225000X-0.225000X-0.250000X0.225000X-0.250000X0.225000X0.250000X-0.225000X0.250000X0*%
%ADD41RoundRect,0.075000X-0.700000X-0.075000X0.700000X-0.075000X0.700000X0.075000X-0.700000X0.075000X0*%
%ADD42RoundRect,0.075000X-0.075000X-0.700000X0.075000X-0.700000X0.075000X0.700000X-0.075000X0.700000X0*%
%ADD43RoundRect,0.250000X0.250000X0.475000X-0.250000X0.475000X-0.250000X-0.475000X0.250000X-0.475000X0*%
%ADD44RoundRect,0.150000X-0.587500X-0.150000X0.587500X-0.150000X0.587500X0.150000X-0.587500X0.150000X0*%
%ADD45RoundRect,0.140000X0.140000X0.170000X-0.140000X0.170000X-0.140000X-0.170000X0.140000X-0.170000X0*%
G04 APERTURE END LIST*
D10*
X50261905Y-53254819D02*
X50261905Y-52254819D01*
X50261905Y-52254819D02*
X50500000Y-52254819D01*
X50500000Y-52254819D02*
X50642857Y-52302438D01*
X50642857Y-52302438D02*
X50738095Y-52397676D01*
X50738095Y-52397676D02*
X50785714Y-52492914D01*
X50785714Y-52492914D02*
X50833333Y-52683390D01*
X50833333Y-52683390D02*
X50833333Y-52826247D01*
X50833333Y-52826247D02*
X50785714Y-53016723D01*
X50785714Y-53016723D02*
X50738095Y-53111961D01*
X50738095Y-53111961D02*
X50642857Y-53207200D01*
X50642857Y-53207200D02*
X50500000Y-53254819D01*
X50500000Y-53254819D02*
X50261905Y-53254819D01*
X51214286Y-52350057D02*
X51261905Y-52302438D01*
X51261905Y-52302438D02*
X51357143Y-52254819D01*
X51357143Y-52254819D02*
X51595238Y-52254819D01*
X51595238Y-52254819D02*
X51690476Y-52302438D01*
X51690476Y-52302438D02*
X51738095Y-52350057D01*
X51738095Y-52350057D02*
X51785714Y-52445295D01*
X51785714Y-52445295D02*
X51785714Y-52540533D01*
X51785714Y-52540533D02*
X51738095Y-52683390D01*
X51738095Y-52683390D02*
X51166667Y-53254819D01*
X51166667Y-53254819D02*
X51785714Y-53254819D01*
X20607142Y-41134819D02*
X20273809Y-40658628D01*
X20035714Y-41134819D02*
X20035714Y-40134819D01*
X20035714Y-40134819D02*
X20416666Y-40134819D01*
X20416666Y-40134819D02*
X20511904Y-40182438D01*
X20511904Y-40182438D02*
X20559523Y-40230057D01*
X20559523Y-40230057D02*
X20607142Y-40325295D01*
X20607142Y-40325295D02*
X20607142Y-40468152D01*
X20607142Y-40468152D02*
X20559523Y-40563390D01*
X20559523Y-40563390D02*
X20511904Y-40611009D01*
X20511904Y-40611009D02*
X20416666Y-40658628D01*
X20416666Y-40658628D02*
X20035714Y-40658628D01*
X21559523Y-41134819D02*
X20988095Y-41134819D01*
X21273809Y-41134819D02*
X21273809Y-40134819D01*
X21273809Y-40134819D02*
X21178571Y-40277676D01*
X21178571Y-40277676D02*
X21083333Y-40372914D01*
X21083333Y-40372914D02*
X20988095Y-40420533D01*
X22416666Y-40134819D02*
X22226190Y-40134819D01*
X22226190Y-40134819D02*
X22130952Y-40182438D01*
X22130952Y-40182438D02*
X22083333Y-40230057D01*
X22083333Y-40230057D02*
X21988095Y-40372914D01*
X21988095Y-40372914D02*
X21940476Y-40563390D01*
X21940476Y-40563390D02*
X21940476Y-40944342D01*
X21940476Y-40944342D02*
X21988095Y-41039580D01*
X21988095Y-41039580D02*
X22035714Y-41087200D01*
X22035714Y-41087200D02*
X22130952Y-41134819D01*
X22130952Y-41134819D02*
X22321428Y-41134819D01*
X22321428Y-41134819D02*
X22416666Y-41087200D01*
X22416666Y-41087200D02*
X22464285Y-41039580D01*
X22464285Y-41039580D02*
X22511904Y-40944342D01*
X22511904Y-40944342D02*
X22511904Y-40706247D01*
X22511904Y-40706247D02*
X22464285Y-40611009D01*
X22464285Y-40611009D02*
X22416666Y-40563390D01*
X22416666Y-40563390D02*
X22321428Y-40515771D01*
X22321428Y-40515771D02*
X22130952Y-40515771D01*
X22130952Y-40515771D02*
X22035714Y-40563390D01*
X22035714Y-40563390D02*
X21988095Y-40611009D01*
X21988095Y-40611009D02*
X21940476Y-40706247D01*
X53333333Y-31124819D02*
X53000000Y-30648628D01*
X52761905Y-31124819D02*
X52761905Y-30124819D01*
X52761905Y-30124819D02*
X53142857Y-30124819D01*
X53142857Y-30124819D02*
X53238095Y-30172438D01*
X53238095Y-30172438D02*
X53285714Y-30220057D01*
X53285714Y-30220057D02*
X53333333Y-30315295D01*
X53333333Y-30315295D02*
X53333333Y-30458152D01*
X53333333Y-30458152D02*
X53285714Y-30553390D01*
X53285714Y-30553390D02*
X53238095Y-30601009D01*
X53238095Y-30601009D02*
X53142857Y-30648628D01*
X53142857Y-30648628D02*
X52761905Y-30648628D01*
X54238095Y-30124819D02*
X53761905Y-30124819D01*
X53761905Y-30124819D02*
X53714286Y-30601009D01*
X53714286Y-30601009D02*
X53761905Y-30553390D01*
X53761905Y-30553390D02*
X53857143Y-30505771D01*
X53857143Y-30505771D02*
X54095238Y-30505771D01*
X54095238Y-30505771D02*
X54190476Y-30553390D01*
X54190476Y-30553390D02*
X54238095Y-30601009D01*
X54238095Y-30601009D02*
X54285714Y-30696247D01*
X54285714Y-30696247D02*
X54285714Y-30934342D01*
X54285714Y-30934342D02*
X54238095Y-31029580D01*
X54238095Y-31029580D02*
X54190476Y-31077200D01*
X54190476Y-31077200D02*
X54095238Y-31124819D01*
X54095238Y-31124819D02*
X53857143Y-31124819D01*
X53857143Y-31124819D02*
X53761905Y-31077200D01*
X53761905Y-31077200D02*
X53714286Y-31029580D01*
X40074819Y-7333333D02*
X40789104Y-7333333D01*
X40789104Y-7333333D02*
X40931961Y-7380952D01*
X40931961Y-7380952D02*
X41027200Y-7476190D01*
X41027200Y-7476190D02*
X41074819Y-7619047D01*
X41074819Y-7619047D02*
X41074819Y-7714285D01*
X41074819Y-6809523D02*
X41074819Y-6619047D01*
X41074819Y-6619047D02*
X41027200Y-6523809D01*
X41027200Y-6523809D02*
X40979580Y-6476190D01*
X40979580Y-6476190D02*
X40836723Y-6380952D01*
X40836723Y-6380952D02*
X40646247Y-6333333D01*
X40646247Y-6333333D02*
X40265295Y-6333333D01*
X40265295Y-6333333D02*
X40170057Y-6380952D01*
X40170057Y-6380952D02*
X40122438Y-6428571D01*
X40122438Y-6428571D02*
X40074819Y-6523809D01*
X40074819Y-6523809D02*
X40074819Y-6714285D01*
X40074819Y-6714285D02*
X40122438Y-6809523D01*
X40122438Y-6809523D02*
X40170057Y-6857142D01*
X40170057Y-6857142D02*
X40265295Y-6904761D01*
X40265295Y-6904761D02*
X40503390Y-6904761D01*
X40503390Y-6904761D02*
X40598628Y-6857142D01*
X40598628Y-6857142D02*
X40646247Y-6809523D01*
X40646247Y-6809523D02*
X40693866Y-6714285D01*
X40693866Y-6714285D02*
X40693866Y-6523809D01*
X40693866Y-6523809D02*
X40646247Y-6428571D01*
X40646247Y-6428571D02*
X40598628Y-6380952D01*
X40598628Y-6380952D02*
X40503390Y-6333333D01*
X12833333Y-6174819D02*
X12357143Y-6174819D01*
X12357143Y-6174819D02*
X12357143Y-5174819D01*
X13119048Y-5270057D02*
X13166667Y-5222438D01*
X13166667Y-5222438D02*
X13261905Y-5174819D01*
X13261905Y-5174819D02*
X13500000Y-5174819D01*
X13500000Y-5174819D02*
X13595238Y-5222438D01*
X13595238Y-5222438D02*
X13642857Y-5270057D01*
X13642857Y-5270057D02*
X13690476Y-5365295D01*
X13690476Y-5365295D02*
X13690476Y-5460533D01*
X13690476Y-5460533D02*
X13642857Y-5603390D01*
X13642857Y-5603390D02*
X13071429Y-6174819D01*
X13071429Y-6174819D02*
X13690476Y-6174819D01*
X28266819Y-27979666D02*
X27790628Y-28312999D01*
X28266819Y-28551094D02*
X27266819Y-28551094D01*
X27266819Y-28551094D02*
X27266819Y-28170142D01*
X27266819Y-28170142D02*
X27314438Y-28074904D01*
X27314438Y-28074904D02*
X27362057Y-28027285D01*
X27362057Y-28027285D02*
X27457295Y-27979666D01*
X27457295Y-27979666D02*
X27600152Y-27979666D01*
X27600152Y-27979666D02*
X27695390Y-28027285D01*
X27695390Y-28027285D02*
X27743009Y-28074904D01*
X27743009Y-28074904D02*
X27790628Y-28170142D01*
X27790628Y-28170142D02*
X27790628Y-28551094D01*
X27600152Y-27122523D02*
X28266819Y-27122523D01*
X27219200Y-27360618D02*
X27933485Y-27598713D01*
X27933485Y-27598713D02*
X27933485Y-26979666D01*
X6357142Y-12679580D02*
X6309523Y-12727200D01*
X6309523Y-12727200D02*
X6166666Y-12774819D01*
X6166666Y-12774819D02*
X6071428Y-12774819D01*
X6071428Y-12774819D02*
X5928571Y-12727200D01*
X5928571Y-12727200D02*
X5833333Y-12631961D01*
X5833333Y-12631961D02*
X5785714Y-12536723D01*
X5785714Y-12536723D02*
X5738095Y-12346247D01*
X5738095Y-12346247D02*
X5738095Y-12203390D01*
X5738095Y-12203390D02*
X5785714Y-12012914D01*
X5785714Y-12012914D02*
X5833333Y-11917676D01*
X5833333Y-11917676D02*
X5928571Y-11822438D01*
X5928571Y-11822438D02*
X6071428Y-11774819D01*
X6071428Y-11774819D02*
X6166666Y-11774819D01*
X6166666Y-11774819D02*
X6309523Y-11822438D01*
X6309523Y-11822438D02*
X6357142Y-11870057D01*
X6738095Y-11870057D02*
X6785714Y-11822438D01*
X6785714Y-11822438D02*
X6880952Y-11774819D01*
X6880952Y-11774819D02*
X7119047Y-11774819D01*
X7119047Y-11774819D02*
X7214285Y-11822438D01*
X7214285Y-11822438D02*
X7261904Y-11870057D01*
X7261904Y-11870057D02*
X7309523Y-11965295D01*
X7309523Y-11965295D02*
X7309523Y-12060533D01*
X7309523Y-12060533D02*
X7261904Y-12203390D01*
X7261904Y-12203390D02*
X6690476Y-12774819D01*
X6690476Y-12774819D02*
X7309523Y-12774819D01*
X8166666Y-11774819D02*
X7976190Y-11774819D01*
X7976190Y-11774819D02*
X7880952Y-11822438D01*
X7880952Y-11822438D02*
X7833333Y-11870057D01*
X7833333Y-11870057D02*
X7738095Y-12012914D01*
X7738095Y-12012914D02*
X7690476Y-12203390D01*
X7690476Y-12203390D02*
X7690476Y-12584342D01*
X7690476Y-12584342D02*
X7738095Y-12679580D01*
X7738095Y-12679580D02*
X7785714Y-12727200D01*
X7785714Y-12727200D02*
X7880952Y-12774819D01*
X7880952Y-12774819D02*
X8071428Y-12774819D01*
X8071428Y-12774819D02*
X8166666Y-12727200D01*
X8166666Y-12727200D02*
X8214285Y-12679580D01*
X8214285Y-12679580D02*
X8261904Y-12584342D01*
X8261904Y-12584342D02*
X8261904Y-12346247D01*
X8261904Y-12346247D02*
X8214285Y-12251009D01*
X8214285Y-12251009D02*
X8166666Y-12203390D01*
X8166666Y-12203390D02*
X8071428Y-12155771D01*
X8071428Y-12155771D02*
X7880952Y-12155771D01*
X7880952Y-12155771D02*
X7785714Y-12203390D01*
X7785714Y-12203390D02*
X7738095Y-12251009D01*
X7738095Y-12251009D02*
X7690476Y-12346247D01*
X48256333Y-42811819D02*
X47923000Y-42335628D01*
X47684905Y-42811819D02*
X47684905Y-41811819D01*
X47684905Y-41811819D02*
X48065857Y-41811819D01*
X48065857Y-41811819D02*
X48161095Y-41859438D01*
X48161095Y-41859438D02*
X48208714Y-41907057D01*
X48208714Y-41907057D02*
X48256333Y-42002295D01*
X48256333Y-42002295D02*
X48256333Y-42145152D01*
X48256333Y-42145152D02*
X48208714Y-42240390D01*
X48208714Y-42240390D02*
X48161095Y-42288009D01*
X48161095Y-42288009D02*
X48065857Y-42335628D01*
X48065857Y-42335628D02*
X47684905Y-42335628D01*
X48589667Y-41811819D02*
X49208714Y-41811819D01*
X49208714Y-41811819D02*
X48875381Y-42192771D01*
X48875381Y-42192771D02*
X49018238Y-42192771D01*
X49018238Y-42192771D02*
X49113476Y-42240390D01*
X49113476Y-42240390D02*
X49161095Y-42288009D01*
X49161095Y-42288009D02*
X49208714Y-42383247D01*
X49208714Y-42383247D02*
X49208714Y-42621342D01*
X49208714Y-42621342D02*
X49161095Y-42716580D01*
X49161095Y-42716580D02*
X49113476Y-42764200D01*
X49113476Y-42764200D02*
X49018238Y-42811819D01*
X49018238Y-42811819D02*
X48732524Y-42811819D01*
X48732524Y-42811819D02*
X48637286Y-42764200D01*
X48637286Y-42764200D02*
X48589667Y-42716580D01*
X9357142Y-50284819D02*
X9023809Y-49808628D01*
X8785714Y-50284819D02*
X8785714Y-49284819D01*
X8785714Y-49284819D02*
X9166666Y-49284819D01*
X9166666Y-49284819D02*
X9261904Y-49332438D01*
X9261904Y-49332438D02*
X9309523Y-49380057D01*
X9309523Y-49380057D02*
X9357142Y-49475295D01*
X9357142Y-49475295D02*
X9357142Y-49618152D01*
X9357142Y-49618152D02*
X9309523Y-49713390D01*
X9309523Y-49713390D02*
X9261904Y-49761009D01*
X9261904Y-49761009D02*
X9166666Y-49808628D01*
X9166666Y-49808628D02*
X8785714Y-49808628D01*
X10309523Y-50284819D02*
X9738095Y-50284819D01*
X10023809Y-50284819D02*
X10023809Y-49284819D01*
X10023809Y-49284819D02*
X9928571Y-49427676D01*
X9928571Y-49427676D02*
X9833333Y-49522914D01*
X9833333Y-49522914D02*
X9738095Y-49570533D01*
X11261904Y-50284819D02*
X10690476Y-50284819D01*
X10976190Y-50284819D02*
X10976190Y-49284819D01*
X10976190Y-49284819D02*
X10880952Y-49427676D01*
X10880952Y-49427676D02*
X10785714Y-49522914D01*
X10785714Y-49522914D02*
X10690476Y-49570533D01*
X23257142Y-40984819D02*
X22923809Y-40508628D01*
X22685714Y-40984819D02*
X22685714Y-39984819D01*
X22685714Y-39984819D02*
X23066666Y-39984819D01*
X23066666Y-39984819D02*
X23161904Y-40032438D01*
X23161904Y-40032438D02*
X23209523Y-40080057D01*
X23209523Y-40080057D02*
X23257142Y-40175295D01*
X23257142Y-40175295D02*
X23257142Y-40318152D01*
X23257142Y-40318152D02*
X23209523Y-40413390D01*
X23209523Y-40413390D02*
X23161904Y-40461009D01*
X23161904Y-40461009D02*
X23066666Y-40508628D01*
X23066666Y-40508628D02*
X22685714Y-40508628D01*
X24209523Y-40984819D02*
X23638095Y-40984819D01*
X23923809Y-40984819D02*
X23923809Y-39984819D01*
X23923809Y-39984819D02*
X23828571Y-40127676D01*
X23828571Y-40127676D02*
X23733333Y-40222914D01*
X23733333Y-40222914D02*
X23638095Y-40270533D01*
X24542857Y-39984819D02*
X25209523Y-39984819D01*
X25209523Y-39984819D02*
X24780952Y-40984819D01*
X47860142Y-38922580D02*
X47812523Y-38970200D01*
X47812523Y-38970200D02*
X47669666Y-39017819D01*
X47669666Y-39017819D02*
X47574428Y-39017819D01*
X47574428Y-39017819D02*
X47431571Y-38970200D01*
X47431571Y-38970200D02*
X47336333Y-38874961D01*
X47336333Y-38874961D02*
X47288714Y-38779723D01*
X47288714Y-38779723D02*
X47241095Y-38589247D01*
X47241095Y-38589247D02*
X47241095Y-38446390D01*
X47241095Y-38446390D02*
X47288714Y-38255914D01*
X47288714Y-38255914D02*
X47336333Y-38160676D01*
X47336333Y-38160676D02*
X47431571Y-38065438D01*
X47431571Y-38065438D02*
X47574428Y-38017819D01*
X47574428Y-38017819D02*
X47669666Y-38017819D01*
X47669666Y-38017819D02*
X47812523Y-38065438D01*
X47812523Y-38065438D02*
X47860142Y-38113057D01*
X48812523Y-39017819D02*
X48241095Y-39017819D01*
X48526809Y-39017819D02*
X48526809Y-38017819D01*
X48526809Y-38017819D02*
X48431571Y-38160676D01*
X48431571Y-38160676D02*
X48336333Y-38255914D01*
X48336333Y-38255914D02*
X48241095Y-38303533D01*
X49717285Y-38017819D02*
X49241095Y-38017819D01*
X49241095Y-38017819D02*
X49193476Y-38494009D01*
X49193476Y-38494009D02*
X49241095Y-38446390D01*
X49241095Y-38446390D02*
X49336333Y-38398771D01*
X49336333Y-38398771D02*
X49574428Y-38398771D01*
X49574428Y-38398771D02*
X49669666Y-38446390D01*
X49669666Y-38446390D02*
X49717285Y-38494009D01*
X49717285Y-38494009D02*
X49764904Y-38589247D01*
X49764904Y-38589247D02*
X49764904Y-38827342D01*
X49764904Y-38827342D02*
X49717285Y-38922580D01*
X49717285Y-38922580D02*
X49669666Y-38970200D01*
X49669666Y-38970200D02*
X49574428Y-39017819D01*
X49574428Y-39017819D02*
X49336333Y-39017819D01*
X49336333Y-39017819D02*
X49241095Y-38970200D01*
X49241095Y-38970200D02*
X49193476Y-38922580D01*
X21561819Y-48792666D02*
X21085628Y-49125999D01*
X21561819Y-49364094D02*
X20561819Y-49364094D01*
X20561819Y-49364094D02*
X20561819Y-48983142D01*
X20561819Y-48983142D02*
X20609438Y-48887904D01*
X20609438Y-48887904D02*
X20657057Y-48840285D01*
X20657057Y-48840285D02*
X20752295Y-48792666D01*
X20752295Y-48792666D02*
X20895152Y-48792666D01*
X20895152Y-48792666D02*
X20990390Y-48840285D01*
X20990390Y-48840285D02*
X21038009Y-48887904D01*
X21038009Y-48887904D02*
X21085628Y-48983142D01*
X21085628Y-48983142D02*
X21085628Y-49364094D01*
X21561819Y-47840285D02*
X21561819Y-48411713D01*
X21561819Y-48125999D02*
X20561819Y-48125999D01*
X20561819Y-48125999D02*
X20704676Y-48221237D01*
X20704676Y-48221237D02*
X20799914Y-48316475D01*
X20799914Y-48316475D02*
X20847533Y-48411713D01*
X44692333Y-40645580D02*
X44644714Y-40693200D01*
X44644714Y-40693200D02*
X44501857Y-40740819D01*
X44501857Y-40740819D02*
X44406619Y-40740819D01*
X44406619Y-40740819D02*
X44263762Y-40693200D01*
X44263762Y-40693200D02*
X44168524Y-40597961D01*
X44168524Y-40597961D02*
X44120905Y-40502723D01*
X44120905Y-40502723D02*
X44073286Y-40312247D01*
X44073286Y-40312247D02*
X44073286Y-40169390D01*
X44073286Y-40169390D02*
X44120905Y-39978914D01*
X44120905Y-39978914D02*
X44168524Y-39883676D01*
X44168524Y-39883676D02*
X44263762Y-39788438D01*
X44263762Y-39788438D02*
X44406619Y-39740819D01*
X44406619Y-39740819D02*
X44501857Y-39740819D01*
X44501857Y-39740819D02*
X44644714Y-39788438D01*
X44644714Y-39788438D02*
X44692333Y-39836057D01*
X45263762Y-40169390D02*
X45168524Y-40121771D01*
X45168524Y-40121771D02*
X45120905Y-40074152D01*
X45120905Y-40074152D02*
X45073286Y-39978914D01*
X45073286Y-39978914D02*
X45073286Y-39931295D01*
X45073286Y-39931295D02*
X45120905Y-39836057D01*
X45120905Y-39836057D02*
X45168524Y-39788438D01*
X45168524Y-39788438D02*
X45263762Y-39740819D01*
X45263762Y-39740819D02*
X45454238Y-39740819D01*
X45454238Y-39740819D02*
X45549476Y-39788438D01*
X45549476Y-39788438D02*
X45597095Y-39836057D01*
X45597095Y-39836057D02*
X45644714Y-39931295D01*
X45644714Y-39931295D02*
X45644714Y-39978914D01*
X45644714Y-39978914D02*
X45597095Y-40074152D01*
X45597095Y-40074152D02*
X45549476Y-40121771D01*
X45549476Y-40121771D02*
X45454238Y-40169390D01*
X45454238Y-40169390D02*
X45263762Y-40169390D01*
X45263762Y-40169390D02*
X45168524Y-40217009D01*
X45168524Y-40217009D02*
X45120905Y-40264628D01*
X45120905Y-40264628D02*
X45073286Y-40359866D01*
X45073286Y-40359866D02*
X45073286Y-40550342D01*
X45073286Y-40550342D02*
X45120905Y-40645580D01*
X45120905Y-40645580D02*
X45168524Y-40693200D01*
X45168524Y-40693200D02*
X45263762Y-40740819D01*
X45263762Y-40740819D02*
X45454238Y-40740819D01*
X45454238Y-40740819D02*
X45549476Y-40693200D01*
X45549476Y-40693200D02*
X45597095Y-40645580D01*
X45597095Y-40645580D02*
X45644714Y-40550342D01*
X45644714Y-40550342D02*
X45644714Y-40359866D01*
X45644714Y-40359866D02*
X45597095Y-40264628D01*
X45597095Y-40264628D02*
X45549476Y-40217009D01*
X45549476Y-40217009D02*
X45454238Y-40169390D01*
X47019142Y-37018580D02*
X46971523Y-37066200D01*
X46971523Y-37066200D02*
X46828666Y-37113819D01*
X46828666Y-37113819D02*
X46733428Y-37113819D01*
X46733428Y-37113819D02*
X46590571Y-37066200D01*
X46590571Y-37066200D02*
X46495333Y-36970961D01*
X46495333Y-36970961D02*
X46447714Y-36875723D01*
X46447714Y-36875723D02*
X46400095Y-36685247D01*
X46400095Y-36685247D02*
X46400095Y-36542390D01*
X46400095Y-36542390D02*
X46447714Y-36351914D01*
X46447714Y-36351914D02*
X46495333Y-36256676D01*
X46495333Y-36256676D02*
X46590571Y-36161438D01*
X46590571Y-36161438D02*
X46733428Y-36113819D01*
X46733428Y-36113819D02*
X46828666Y-36113819D01*
X46828666Y-36113819D02*
X46971523Y-36161438D01*
X46971523Y-36161438D02*
X47019142Y-36209057D01*
X47971523Y-37113819D02*
X47400095Y-37113819D01*
X47685809Y-37113819D02*
X47685809Y-36113819D01*
X47685809Y-36113819D02*
X47590571Y-36256676D01*
X47590571Y-36256676D02*
X47495333Y-36351914D01*
X47495333Y-36351914D02*
X47400095Y-36399533D01*
X48828666Y-36113819D02*
X48638190Y-36113819D01*
X48638190Y-36113819D02*
X48542952Y-36161438D01*
X48542952Y-36161438D02*
X48495333Y-36209057D01*
X48495333Y-36209057D02*
X48400095Y-36351914D01*
X48400095Y-36351914D02*
X48352476Y-36542390D01*
X48352476Y-36542390D02*
X48352476Y-36923342D01*
X48352476Y-36923342D02*
X48400095Y-37018580D01*
X48400095Y-37018580D02*
X48447714Y-37066200D01*
X48447714Y-37066200D02*
X48542952Y-37113819D01*
X48542952Y-37113819D02*
X48733428Y-37113819D01*
X48733428Y-37113819D02*
X48828666Y-37066200D01*
X48828666Y-37066200D02*
X48876285Y-37018580D01*
X48876285Y-37018580D02*
X48923904Y-36923342D01*
X48923904Y-36923342D02*
X48923904Y-36685247D01*
X48923904Y-36685247D02*
X48876285Y-36590009D01*
X48876285Y-36590009D02*
X48828666Y-36542390D01*
X48828666Y-36542390D02*
X48733428Y-36494771D01*
X48733428Y-36494771D02*
X48542952Y-36494771D01*
X48542952Y-36494771D02*
X48447714Y-36542390D01*
X48447714Y-36542390D02*
X48400095Y-36590009D01*
X48400095Y-36590009D02*
X48352476Y-36685247D01*
X17857142Y-25199580D02*
X17809523Y-25247200D01*
X17809523Y-25247200D02*
X17666666Y-25294819D01*
X17666666Y-25294819D02*
X17571428Y-25294819D01*
X17571428Y-25294819D02*
X17428571Y-25247200D01*
X17428571Y-25247200D02*
X17333333Y-25151961D01*
X17333333Y-25151961D02*
X17285714Y-25056723D01*
X17285714Y-25056723D02*
X17238095Y-24866247D01*
X17238095Y-24866247D02*
X17238095Y-24723390D01*
X17238095Y-24723390D02*
X17285714Y-24532914D01*
X17285714Y-24532914D02*
X17333333Y-24437676D01*
X17333333Y-24437676D02*
X17428571Y-24342438D01*
X17428571Y-24342438D02*
X17571428Y-24294819D01*
X17571428Y-24294819D02*
X17666666Y-24294819D01*
X17666666Y-24294819D02*
X17809523Y-24342438D01*
X17809523Y-24342438D02*
X17857142Y-24390057D01*
X18238095Y-24390057D02*
X18285714Y-24342438D01*
X18285714Y-24342438D02*
X18380952Y-24294819D01*
X18380952Y-24294819D02*
X18619047Y-24294819D01*
X18619047Y-24294819D02*
X18714285Y-24342438D01*
X18714285Y-24342438D02*
X18761904Y-24390057D01*
X18761904Y-24390057D02*
X18809523Y-24485295D01*
X18809523Y-24485295D02*
X18809523Y-24580533D01*
X18809523Y-24580533D02*
X18761904Y-24723390D01*
X18761904Y-24723390D02*
X18190476Y-25294819D01*
X18190476Y-25294819D02*
X18809523Y-25294819D01*
X19190476Y-24390057D02*
X19238095Y-24342438D01*
X19238095Y-24342438D02*
X19333333Y-24294819D01*
X19333333Y-24294819D02*
X19571428Y-24294819D01*
X19571428Y-24294819D02*
X19666666Y-24342438D01*
X19666666Y-24342438D02*
X19714285Y-24390057D01*
X19714285Y-24390057D02*
X19761904Y-24485295D01*
X19761904Y-24485295D02*
X19761904Y-24580533D01*
X19761904Y-24580533D02*
X19714285Y-24723390D01*
X19714285Y-24723390D02*
X19142857Y-25294819D01*
X19142857Y-25294819D02*
X19761904Y-25294819D01*
X44804333Y-42459580D02*
X44756714Y-42507200D01*
X44756714Y-42507200D02*
X44613857Y-42554819D01*
X44613857Y-42554819D02*
X44518619Y-42554819D01*
X44518619Y-42554819D02*
X44375762Y-42507200D01*
X44375762Y-42507200D02*
X44280524Y-42411961D01*
X44280524Y-42411961D02*
X44232905Y-42316723D01*
X44232905Y-42316723D02*
X44185286Y-42126247D01*
X44185286Y-42126247D02*
X44185286Y-41983390D01*
X44185286Y-41983390D02*
X44232905Y-41792914D01*
X44232905Y-41792914D02*
X44280524Y-41697676D01*
X44280524Y-41697676D02*
X44375762Y-41602438D01*
X44375762Y-41602438D02*
X44518619Y-41554819D01*
X44518619Y-41554819D02*
X44613857Y-41554819D01*
X44613857Y-41554819D02*
X44756714Y-41602438D01*
X44756714Y-41602438D02*
X44804333Y-41650057D01*
X45661476Y-41554819D02*
X45471000Y-41554819D01*
X45471000Y-41554819D02*
X45375762Y-41602438D01*
X45375762Y-41602438D02*
X45328143Y-41650057D01*
X45328143Y-41650057D02*
X45232905Y-41792914D01*
X45232905Y-41792914D02*
X45185286Y-41983390D01*
X45185286Y-41983390D02*
X45185286Y-42364342D01*
X45185286Y-42364342D02*
X45232905Y-42459580D01*
X45232905Y-42459580D02*
X45280524Y-42507200D01*
X45280524Y-42507200D02*
X45375762Y-42554819D01*
X45375762Y-42554819D02*
X45566238Y-42554819D01*
X45566238Y-42554819D02*
X45661476Y-42507200D01*
X45661476Y-42507200D02*
X45709095Y-42459580D01*
X45709095Y-42459580D02*
X45756714Y-42364342D01*
X45756714Y-42364342D02*
X45756714Y-42126247D01*
X45756714Y-42126247D02*
X45709095Y-42031009D01*
X45709095Y-42031009D02*
X45661476Y-41983390D01*
X45661476Y-41983390D02*
X45566238Y-41935771D01*
X45566238Y-41935771D02*
X45375762Y-41935771D01*
X45375762Y-41935771D02*
X45280524Y-41983390D01*
X45280524Y-41983390D02*
X45232905Y-42031009D01*
X45232905Y-42031009D02*
X45185286Y-42126247D01*
X3074819Y-30333333D02*
X3789104Y-30333333D01*
X3789104Y-30333333D02*
X3931961Y-30380952D01*
X3931961Y-30380952D02*
X4027200Y-30476190D01*
X4027200Y-30476190D02*
X4074819Y-30619047D01*
X4074819Y-30619047D02*
X4074819Y-30714285D01*
X4074819Y-29333333D02*
X4074819Y-29904761D01*
X4074819Y-29619047D02*
X3074819Y-29619047D01*
X3074819Y-29619047D02*
X3217676Y-29714285D01*
X3217676Y-29714285D02*
X3312914Y-29809523D01*
X3312914Y-29809523D02*
X3360533Y-29904761D01*
X52074819Y-58809523D02*
X52789104Y-58809523D01*
X52789104Y-58809523D02*
X52931961Y-58857142D01*
X52931961Y-58857142D02*
X53027200Y-58952380D01*
X53027200Y-58952380D02*
X53074819Y-59095237D01*
X53074819Y-59095237D02*
X53074819Y-59190475D01*
X53074819Y-57809523D02*
X53074819Y-58380951D01*
X53074819Y-58095237D02*
X52074819Y-58095237D01*
X52074819Y-58095237D02*
X52217676Y-58190475D01*
X52217676Y-58190475D02*
X52312914Y-58285713D01*
X52312914Y-58285713D02*
X52360533Y-58380951D01*
X52074819Y-57190475D02*
X52074819Y-57095237D01*
X52074819Y-57095237D02*
X52122438Y-56999999D01*
X52122438Y-56999999D02*
X52170057Y-56952380D01*
X52170057Y-56952380D02*
X52265295Y-56904761D01*
X52265295Y-56904761D02*
X52455771Y-56857142D01*
X52455771Y-56857142D02*
X52693866Y-56857142D01*
X52693866Y-56857142D02*
X52884342Y-56904761D01*
X52884342Y-56904761D02*
X52979580Y-56952380D01*
X52979580Y-56952380D02*
X53027200Y-56999999D01*
X53027200Y-56999999D02*
X53074819Y-57095237D01*
X53074819Y-57095237D02*
X53074819Y-57190475D01*
X53074819Y-57190475D02*
X53027200Y-57285713D01*
X53027200Y-57285713D02*
X52979580Y-57333332D01*
X52979580Y-57333332D02*
X52884342Y-57380951D01*
X52884342Y-57380951D02*
X52693866Y-57428570D01*
X52693866Y-57428570D02*
X52455771Y-57428570D01*
X52455771Y-57428570D02*
X52265295Y-57380951D01*
X52265295Y-57380951D02*
X52170057Y-57333332D01*
X52170057Y-57333332D02*
X52122438Y-57285713D01*
X52122438Y-57285713D02*
X52074819Y-57190475D01*
X45021333Y-35050580D02*
X44973714Y-35098200D01*
X44973714Y-35098200D02*
X44830857Y-35145819D01*
X44830857Y-35145819D02*
X44735619Y-35145819D01*
X44735619Y-35145819D02*
X44592762Y-35098200D01*
X44592762Y-35098200D02*
X44497524Y-35002961D01*
X44497524Y-35002961D02*
X44449905Y-34907723D01*
X44449905Y-34907723D02*
X44402286Y-34717247D01*
X44402286Y-34717247D02*
X44402286Y-34574390D01*
X44402286Y-34574390D02*
X44449905Y-34383914D01*
X44449905Y-34383914D02*
X44497524Y-34288676D01*
X44497524Y-34288676D02*
X44592762Y-34193438D01*
X44592762Y-34193438D02*
X44735619Y-34145819D01*
X44735619Y-34145819D02*
X44830857Y-34145819D01*
X44830857Y-34145819D02*
X44973714Y-34193438D01*
X44973714Y-34193438D02*
X45021333Y-34241057D01*
X45354667Y-34145819D02*
X46021333Y-34145819D01*
X46021333Y-34145819D02*
X45592762Y-35145819D01*
X46357142Y-50284819D02*
X46023809Y-49808628D01*
X45785714Y-50284819D02*
X45785714Y-49284819D01*
X45785714Y-49284819D02*
X46166666Y-49284819D01*
X46166666Y-49284819D02*
X46261904Y-49332438D01*
X46261904Y-49332438D02*
X46309523Y-49380057D01*
X46309523Y-49380057D02*
X46357142Y-49475295D01*
X46357142Y-49475295D02*
X46357142Y-49618152D01*
X46357142Y-49618152D02*
X46309523Y-49713390D01*
X46309523Y-49713390D02*
X46261904Y-49761009D01*
X46261904Y-49761009D02*
X46166666Y-49808628D01*
X46166666Y-49808628D02*
X45785714Y-49808628D01*
X47309523Y-50284819D02*
X46738095Y-50284819D01*
X47023809Y-50284819D02*
X47023809Y-49284819D01*
X47023809Y-49284819D02*
X46928571Y-49427676D01*
X46928571Y-49427676D02*
X46833333Y-49522914D01*
X46833333Y-49522914D02*
X46738095Y-49570533D01*
X48166666Y-49618152D02*
X48166666Y-50284819D01*
X47928571Y-49237200D02*
X47690476Y-49951485D01*
X47690476Y-49951485D02*
X48309523Y-49951485D01*
X58124819Y-35666666D02*
X57648628Y-35999999D01*
X58124819Y-36238094D02*
X57124819Y-36238094D01*
X57124819Y-36238094D02*
X57124819Y-35857142D01*
X57124819Y-35857142D02*
X57172438Y-35761904D01*
X57172438Y-35761904D02*
X57220057Y-35714285D01*
X57220057Y-35714285D02*
X57315295Y-35666666D01*
X57315295Y-35666666D02*
X57458152Y-35666666D01*
X57458152Y-35666666D02*
X57553390Y-35714285D01*
X57553390Y-35714285D02*
X57601009Y-35761904D01*
X57601009Y-35761904D02*
X57648628Y-35857142D01*
X57648628Y-35857142D02*
X57648628Y-36238094D01*
X57124819Y-35333332D02*
X57124819Y-34666666D01*
X57124819Y-34666666D02*
X58124819Y-35095237D01*
X67094819Y-30333333D02*
X67809104Y-30333333D01*
X67809104Y-30333333D02*
X67951961Y-30380952D01*
X67951961Y-30380952D02*
X68047200Y-30476190D01*
X68047200Y-30476190D02*
X68094819Y-30619047D01*
X68094819Y-30619047D02*
X68094819Y-30714285D01*
X67094819Y-29952380D02*
X67094819Y-29333333D01*
X67094819Y-29333333D02*
X67475771Y-29666666D01*
X67475771Y-29666666D02*
X67475771Y-29523809D01*
X67475771Y-29523809D02*
X67523390Y-29428571D01*
X67523390Y-29428571D02*
X67571009Y-29380952D01*
X67571009Y-29380952D02*
X67666247Y-29333333D01*
X67666247Y-29333333D02*
X67904342Y-29333333D01*
X67904342Y-29333333D02*
X67999580Y-29380952D01*
X67999580Y-29380952D02*
X68047200Y-29428571D01*
X68047200Y-29428571D02*
X68094819Y-29523809D01*
X68094819Y-29523809D02*
X68094819Y-29809523D01*
X68094819Y-29809523D02*
X68047200Y-29904761D01*
X68047200Y-29904761D02*
X67999580Y-29952380D01*
X18357142Y-6679580D02*
X18309523Y-6727200D01*
X18309523Y-6727200D02*
X18166666Y-6774819D01*
X18166666Y-6774819D02*
X18071428Y-6774819D01*
X18071428Y-6774819D02*
X17928571Y-6727200D01*
X17928571Y-6727200D02*
X17833333Y-6631961D01*
X17833333Y-6631961D02*
X17785714Y-6536723D01*
X17785714Y-6536723D02*
X17738095Y-6346247D01*
X17738095Y-6346247D02*
X17738095Y-6203390D01*
X17738095Y-6203390D02*
X17785714Y-6012914D01*
X17785714Y-6012914D02*
X17833333Y-5917676D01*
X17833333Y-5917676D02*
X17928571Y-5822438D01*
X17928571Y-5822438D02*
X18071428Y-5774819D01*
X18071428Y-5774819D02*
X18166666Y-5774819D01*
X18166666Y-5774819D02*
X18309523Y-5822438D01*
X18309523Y-5822438D02*
X18357142Y-5870057D01*
X18738095Y-5870057D02*
X18785714Y-5822438D01*
X18785714Y-5822438D02*
X18880952Y-5774819D01*
X18880952Y-5774819D02*
X19119047Y-5774819D01*
X19119047Y-5774819D02*
X19214285Y-5822438D01*
X19214285Y-5822438D02*
X19261904Y-5870057D01*
X19261904Y-5870057D02*
X19309523Y-5965295D01*
X19309523Y-5965295D02*
X19309523Y-6060533D01*
X19309523Y-6060533D02*
X19261904Y-6203390D01*
X19261904Y-6203390D02*
X18690476Y-6774819D01*
X18690476Y-6774819D02*
X19309523Y-6774819D01*
X20214285Y-5774819D02*
X19738095Y-5774819D01*
X19738095Y-5774819D02*
X19690476Y-6251009D01*
X19690476Y-6251009D02*
X19738095Y-6203390D01*
X19738095Y-6203390D02*
X19833333Y-6155771D01*
X19833333Y-6155771D02*
X20071428Y-6155771D01*
X20071428Y-6155771D02*
X20166666Y-6203390D01*
X20166666Y-6203390D02*
X20214285Y-6251009D01*
X20214285Y-6251009D02*
X20261904Y-6346247D01*
X20261904Y-6346247D02*
X20261904Y-6584342D01*
X20261904Y-6584342D02*
X20214285Y-6679580D01*
X20214285Y-6679580D02*
X20166666Y-6727200D01*
X20166666Y-6727200D02*
X20071428Y-6774819D01*
X20071428Y-6774819D02*
X19833333Y-6774819D01*
X19833333Y-6774819D02*
X19738095Y-6727200D01*
X19738095Y-6727200D02*
X19690476Y-6679580D01*
X38400333Y-41098580D02*
X38352714Y-41146200D01*
X38352714Y-41146200D02*
X38209857Y-41193819D01*
X38209857Y-41193819D02*
X38114619Y-41193819D01*
X38114619Y-41193819D02*
X37971762Y-41146200D01*
X37971762Y-41146200D02*
X37876524Y-41050961D01*
X37876524Y-41050961D02*
X37828905Y-40955723D01*
X37828905Y-40955723D02*
X37781286Y-40765247D01*
X37781286Y-40765247D02*
X37781286Y-40622390D01*
X37781286Y-40622390D02*
X37828905Y-40431914D01*
X37828905Y-40431914D02*
X37876524Y-40336676D01*
X37876524Y-40336676D02*
X37971762Y-40241438D01*
X37971762Y-40241438D02*
X38114619Y-40193819D01*
X38114619Y-40193819D02*
X38209857Y-40193819D01*
X38209857Y-40193819D02*
X38352714Y-40241438D01*
X38352714Y-40241438D02*
X38400333Y-40289057D01*
X38876524Y-41193819D02*
X39067000Y-41193819D01*
X39067000Y-41193819D02*
X39162238Y-41146200D01*
X39162238Y-41146200D02*
X39209857Y-41098580D01*
X39209857Y-41098580D02*
X39305095Y-40955723D01*
X39305095Y-40955723D02*
X39352714Y-40765247D01*
X39352714Y-40765247D02*
X39352714Y-40384295D01*
X39352714Y-40384295D02*
X39305095Y-40289057D01*
X39305095Y-40289057D02*
X39257476Y-40241438D01*
X39257476Y-40241438D02*
X39162238Y-40193819D01*
X39162238Y-40193819D02*
X38971762Y-40193819D01*
X38971762Y-40193819D02*
X38876524Y-40241438D01*
X38876524Y-40241438D02*
X38828905Y-40289057D01*
X38828905Y-40289057D02*
X38781286Y-40384295D01*
X38781286Y-40384295D02*
X38781286Y-40622390D01*
X38781286Y-40622390D02*
X38828905Y-40717628D01*
X38828905Y-40717628D02*
X38876524Y-40765247D01*
X38876524Y-40765247D02*
X38971762Y-40812866D01*
X38971762Y-40812866D02*
X39162238Y-40812866D01*
X39162238Y-40812866D02*
X39257476Y-40765247D01*
X39257476Y-40765247D02*
X39305095Y-40717628D01*
X39305095Y-40717628D02*
X39352714Y-40622390D01*
X39666666Y-44074819D02*
X39666666Y-44789104D01*
X39666666Y-44789104D02*
X39619047Y-44931961D01*
X39619047Y-44931961D02*
X39523809Y-45027200D01*
X39523809Y-45027200D02*
X39380952Y-45074819D01*
X39380952Y-45074819D02*
X39285714Y-45074819D01*
X40619047Y-44074819D02*
X40142857Y-44074819D01*
X40142857Y-44074819D02*
X40095238Y-44551009D01*
X40095238Y-44551009D02*
X40142857Y-44503390D01*
X40142857Y-44503390D02*
X40238095Y-44455771D01*
X40238095Y-44455771D02*
X40476190Y-44455771D01*
X40476190Y-44455771D02*
X40571428Y-44503390D01*
X40571428Y-44503390D02*
X40619047Y-44551009D01*
X40619047Y-44551009D02*
X40666666Y-44646247D01*
X40666666Y-44646247D02*
X40666666Y-44884342D01*
X40666666Y-44884342D02*
X40619047Y-44979580D01*
X40619047Y-44979580D02*
X40571428Y-45027200D01*
X40571428Y-45027200D02*
X40476190Y-45074819D01*
X40476190Y-45074819D02*
X40238095Y-45074819D01*
X40238095Y-45074819D02*
X40142857Y-45027200D01*
X40142857Y-45027200D02*
X40095238Y-44979580D01*
X26326580Y-27923857D02*
X26374200Y-27971476D01*
X26374200Y-27971476D02*
X26421819Y-28114333D01*
X26421819Y-28114333D02*
X26421819Y-28209571D01*
X26421819Y-28209571D02*
X26374200Y-28352428D01*
X26374200Y-28352428D02*
X26278961Y-28447666D01*
X26278961Y-28447666D02*
X26183723Y-28495285D01*
X26183723Y-28495285D02*
X25993247Y-28542904D01*
X25993247Y-28542904D02*
X25850390Y-28542904D01*
X25850390Y-28542904D02*
X25659914Y-28495285D01*
X25659914Y-28495285D02*
X25564676Y-28447666D01*
X25564676Y-28447666D02*
X25469438Y-28352428D01*
X25469438Y-28352428D02*
X25421819Y-28209571D01*
X25421819Y-28209571D02*
X25421819Y-28114333D01*
X25421819Y-28114333D02*
X25469438Y-27971476D01*
X25469438Y-27971476D02*
X25517057Y-27923857D01*
X26421819Y-26971476D02*
X26421819Y-27542904D01*
X26421819Y-27257190D02*
X25421819Y-27257190D01*
X25421819Y-27257190D02*
X25564676Y-27352428D01*
X25564676Y-27352428D02*
X25659914Y-27447666D01*
X25659914Y-27447666D02*
X25707533Y-27542904D01*
X25517057Y-26590523D02*
X25469438Y-26542904D01*
X25469438Y-26542904D02*
X25421819Y-26447666D01*
X25421819Y-26447666D02*
X25421819Y-26209571D01*
X25421819Y-26209571D02*
X25469438Y-26114333D01*
X25469438Y-26114333D02*
X25517057Y-26066714D01*
X25517057Y-26066714D02*
X25612295Y-26019095D01*
X25612295Y-26019095D02*
X25707533Y-26019095D01*
X25707533Y-26019095D02*
X25850390Y-26066714D01*
X25850390Y-26066714D02*
X26421819Y-26638142D01*
X26421819Y-26638142D02*
X26421819Y-26019095D01*
X27233333Y-51359580D02*
X27185714Y-51407200D01*
X27185714Y-51407200D02*
X27042857Y-51454819D01*
X27042857Y-51454819D02*
X26947619Y-51454819D01*
X26947619Y-51454819D02*
X26804762Y-51407200D01*
X26804762Y-51407200D02*
X26709524Y-51311961D01*
X26709524Y-51311961D02*
X26661905Y-51216723D01*
X26661905Y-51216723D02*
X26614286Y-51026247D01*
X26614286Y-51026247D02*
X26614286Y-50883390D01*
X26614286Y-50883390D02*
X26661905Y-50692914D01*
X26661905Y-50692914D02*
X26709524Y-50597676D01*
X26709524Y-50597676D02*
X26804762Y-50502438D01*
X26804762Y-50502438D02*
X26947619Y-50454819D01*
X26947619Y-50454819D02*
X27042857Y-50454819D01*
X27042857Y-50454819D02*
X27185714Y-50502438D01*
X27185714Y-50502438D02*
X27233333Y-50550057D01*
X27614286Y-50550057D02*
X27661905Y-50502438D01*
X27661905Y-50502438D02*
X27757143Y-50454819D01*
X27757143Y-50454819D02*
X27995238Y-50454819D01*
X27995238Y-50454819D02*
X28090476Y-50502438D01*
X28090476Y-50502438D02*
X28138095Y-50550057D01*
X28138095Y-50550057D02*
X28185714Y-50645295D01*
X28185714Y-50645295D02*
X28185714Y-50740533D01*
X28185714Y-50740533D02*
X28138095Y-50883390D01*
X28138095Y-50883390D02*
X27566667Y-51454819D01*
X27566667Y-51454819D02*
X28185714Y-51454819D01*
X18357142Y-17524819D02*
X18023809Y-17048628D01*
X17785714Y-17524819D02*
X17785714Y-16524819D01*
X17785714Y-16524819D02*
X18166666Y-16524819D01*
X18166666Y-16524819D02*
X18261904Y-16572438D01*
X18261904Y-16572438D02*
X18309523Y-16620057D01*
X18309523Y-16620057D02*
X18357142Y-16715295D01*
X18357142Y-16715295D02*
X18357142Y-16858152D01*
X18357142Y-16858152D02*
X18309523Y-16953390D01*
X18309523Y-16953390D02*
X18261904Y-17001009D01*
X18261904Y-17001009D02*
X18166666Y-17048628D01*
X18166666Y-17048628D02*
X17785714Y-17048628D01*
X19309523Y-17524819D02*
X18738095Y-17524819D01*
X19023809Y-17524819D02*
X19023809Y-16524819D01*
X19023809Y-16524819D02*
X18928571Y-16667676D01*
X18928571Y-16667676D02*
X18833333Y-16762914D01*
X18833333Y-16762914D02*
X18738095Y-16810533D01*
X19642857Y-16524819D02*
X20261904Y-16524819D01*
X20261904Y-16524819D02*
X19928571Y-16905771D01*
X19928571Y-16905771D02*
X20071428Y-16905771D01*
X20071428Y-16905771D02*
X20166666Y-16953390D01*
X20166666Y-16953390D02*
X20214285Y-17001009D01*
X20214285Y-17001009D02*
X20261904Y-17096247D01*
X20261904Y-17096247D02*
X20261904Y-17334342D01*
X20261904Y-17334342D02*
X20214285Y-17429580D01*
X20214285Y-17429580D02*
X20166666Y-17477200D01*
X20166666Y-17477200D02*
X20071428Y-17524819D01*
X20071428Y-17524819D02*
X19785714Y-17524819D01*
X19785714Y-17524819D02*
X19690476Y-17477200D01*
X19690476Y-17477200D02*
X19642857Y-17429580D01*
X46250580Y-29614857D02*
X46298200Y-29662476D01*
X46298200Y-29662476D02*
X46345819Y-29805333D01*
X46345819Y-29805333D02*
X46345819Y-29900571D01*
X46345819Y-29900571D02*
X46298200Y-30043428D01*
X46298200Y-30043428D02*
X46202961Y-30138666D01*
X46202961Y-30138666D02*
X46107723Y-30186285D01*
X46107723Y-30186285D02*
X45917247Y-30233904D01*
X45917247Y-30233904D02*
X45774390Y-30233904D01*
X45774390Y-30233904D02*
X45583914Y-30186285D01*
X45583914Y-30186285D02*
X45488676Y-30138666D01*
X45488676Y-30138666D02*
X45393438Y-30043428D01*
X45393438Y-30043428D02*
X45345819Y-29900571D01*
X45345819Y-29900571D02*
X45345819Y-29805333D01*
X45345819Y-29805333D02*
X45393438Y-29662476D01*
X45393438Y-29662476D02*
X45441057Y-29614857D01*
X46345819Y-28662476D02*
X46345819Y-29233904D01*
X46345819Y-28948190D02*
X45345819Y-28948190D01*
X45345819Y-28948190D02*
X45488676Y-29043428D01*
X45488676Y-29043428D02*
X45583914Y-29138666D01*
X45583914Y-29138666D02*
X45631533Y-29233904D01*
X46345819Y-28186285D02*
X46345819Y-27995809D01*
X46345819Y-27995809D02*
X46298200Y-27900571D01*
X46298200Y-27900571D02*
X46250580Y-27852952D01*
X46250580Y-27852952D02*
X46107723Y-27757714D01*
X46107723Y-27757714D02*
X45917247Y-27710095D01*
X45917247Y-27710095D02*
X45536295Y-27710095D01*
X45536295Y-27710095D02*
X45441057Y-27757714D01*
X45441057Y-27757714D02*
X45393438Y-27805333D01*
X45393438Y-27805333D02*
X45345819Y-27900571D01*
X45345819Y-27900571D02*
X45345819Y-28091047D01*
X45345819Y-28091047D02*
X45393438Y-28186285D01*
X45393438Y-28186285D02*
X45441057Y-28233904D01*
X45441057Y-28233904D02*
X45536295Y-28281523D01*
X45536295Y-28281523D02*
X45774390Y-28281523D01*
X45774390Y-28281523D02*
X45869628Y-28233904D01*
X45869628Y-28233904D02*
X45917247Y-28186285D01*
X45917247Y-28186285D02*
X45964866Y-28091047D01*
X45964866Y-28091047D02*
X45964866Y-27900571D01*
X45964866Y-27900571D02*
X45917247Y-27805333D01*
X45917247Y-27805333D02*
X45869628Y-27757714D01*
X45869628Y-27757714D02*
X45774390Y-27710095D01*
X13238095Y-41054819D02*
X13238095Y-41864342D01*
X13238095Y-41864342D02*
X13285714Y-41959580D01*
X13285714Y-41959580D02*
X13333333Y-42007200D01*
X13333333Y-42007200D02*
X13428571Y-42054819D01*
X13428571Y-42054819D02*
X13619047Y-42054819D01*
X13619047Y-42054819D02*
X13714285Y-42007200D01*
X13714285Y-42007200D02*
X13761904Y-41959580D01*
X13761904Y-41959580D02*
X13809523Y-41864342D01*
X13809523Y-41864342D02*
X13809523Y-41054819D01*
X14238095Y-41150057D02*
X14285714Y-41102438D01*
X14285714Y-41102438D02*
X14380952Y-41054819D01*
X14380952Y-41054819D02*
X14619047Y-41054819D01*
X14619047Y-41054819D02*
X14714285Y-41102438D01*
X14714285Y-41102438D02*
X14761904Y-41150057D01*
X14761904Y-41150057D02*
X14809523Y-41245295D01*
X14809523Y-41245295D02*
X14809523Y-41340533D01*
X14809523Y-41340533D02*
X14761904Y-41483390D01*
X14761904Y-41483390D02*
X14190476Y-42054819D01*
X14190476Y-42054819D02*
X14809523Y-42054819D01*
X64238095Y-21054819D02*
X64238095Y-21864342D01*
X64238095Y-21864342D02*
X64285714Y-21959580D01*
X64285714Y-21959580D02*
X64333333Y-22007200D01*
X64333333Y-22007200D02*
X64428571Y-22054819D01*
X64428571Y-22054819D02*
X64619047Y-22054819D01*
X64619047Y-22054819D02*
X64714285Y-22007200D01*
X64714285Y-22007200D02*
X64761904Y-21959580D01*
X64761904Y-21959580D02*
X64809523Y-21864342D01*
X64809523Y-21864342D02*
X64809523Y-21054819D01*
X65761904Y-21054819D02*
X65285714Y-21054819D01*
X65285714Y-21054819D02*
X65238095Y-21531009D01*
X65238095Y-21531009D02*
X65285714Y-21483390D01*
X65285714Y-21483390D02*
X65380952Y-21435771D01*
X65380952Y-21435771D02*
X65619047Y-21435771D01*
X65619047Y-21435771D02*
X65714285Y-21483390D01*
X65714285Y-21483390D02*
X65761904Y-21531009D01*
X65761904Y-21531009D02*
X65809523Y-21626247D01*
X65809523Y-21626247D02*
X65809523Y-21864342D01*
X65809523Y-21864342D02*
X65761904Y-21959580D01*
X65761904Y-21959580D02*
X65714285Y-22007200D01*
X65714285Y-22007200D02*
X65619047Y-22054819D01*
X65619047Y-22054819D02*
X65380952Y-22054819D01*
X65380952Y-22054819D02*
X65285714Y-22007200D01*
X65285714Y-22007200D02*
X65238095Y-21959580D01*
X26833333Y-39284819D02*
X26500000Y-38808628D01*
X26261905Y-39284819D02*
X26261905Y-38284819D01*
X26261905Y-38284819D02*
X26642857Y-38284819D01*
X26642857Y-38284819D02*
X26738095Y-38332438D01*
X26738095Y-38332438D02*
X26785714Y-38380057D01*
X26785714Y-38380057D02*
X26833333Y-38475295D01*
X26833333Y-38475295D02*
X26833333Y-38618152D01*
X26833333Y-38618152D02*
X26785714Y-38713390D01*
X26785714Y-38713390D02*
X26738095Y-38761009D01*
X26738095Y-38761009D02*
X26642857Y-38808628D01*
X26642857Y-38808628D02*
X26261905Y-38808628D01*
X27214286Y-38380057D02*
X27261905Y-38332438D01*
X27261905Y-38332438D02*
X27357143Y-38284819D01*
X27357143Y-38284819D02*
X27595238Y-38284819D01*
X27595238Y-38284819D02*
X27690476Y-38332438D01*
X27690476Y-38332438D02*
X27738095Y-38380057D01*
X27738095Y-38380057D02*
X27785714Y-38475295D01*
X27785714Y-38475295D02*
X27785714Y-38570533D01*
X27785714Y-38570533D02*
X27738095Y-38713390D01*
X27738095Y-38713390D02*
X27166667Y-39284819D01*
X27166667Y-39284819D02*
X27785714Y-39284819D01*
X29666666Y-44074819D02*
X29666666Y-44789104D01*
X29666666Y-44789104D02*
X29619047Y-44931961D01*
X29619047Y-44931961D02*
X29523809Y-45027200D01*
X29523809Y-45027200D02*
X29380952Y-45074819D01*
X29380952Y-45074819D02*
X29285714Y-45074819D01*
X30571428Y-44408152D02*
X30571428Y-45074819D01*
X30333333Y-44027200D02*
X30095238Y-44741485D01*
X30095238Y-44741485D02*
X30714285Y-44741485D01*
X44292142Y-38772580D02*
X44244523Y-38820200D01*
X44244523Y-38820200D02*
X44101666Y-38867819D01*
X44101666Y-38867819D02*
X44006428Y-38867819D01*
X44006428Y-38867819D02*
X43863571Y-38820200D01*
X43863571Y-38820200D02*
X43768333Y-38724961D01*
X43768333Y-38724961D02*
X43720714Y-38629723D01*
X43720714Y-38629723D02*
X43673095Y-38439247D01*
X43673095Y-38439247D02*
X43673095Y-38296390D01*
X43673095Y-38296390D02*
X43720714Y-38105914D01*
X43720714Y-38105914D02*
X43768333Y-38010676D01*
X43768333Y-38010676D02*
X43863571Y-37915438D01*
X43863571Y-37915438D02*
X44006428Y-37867819D01*
X44006428Y-37867819D02*
X44101666Y-37867819D01*
X44101666Y-37867819D02*
X44244523Y-37915438D01*
X44244523Y-37915438D02*
X44292142Y-37963057D01*
X45244523Y-38867819D02*
X44673095Y-38867819D01*
X44958809Y-38867819D02*
X44958809Y-37867819D01*
X44958809Y-37867819D02*
X44863571Y-38010676D01*
X44863571Y-38010676D02*
X44768333Y-38105914D01*
X44768333Y-38105914D02*
X44673095Y-38153533D01*
X45863571Y-37867819D02*
X45958809Y-37867819D01*
X45958809Y-37867819D02*
X46054047Y-37915438D01*
X46054047Y-37915438D02*
X46101666Y-37963057D01*
X46101666Y-37963057D02*
X46149285Y-38058295D01*
X46149285Y-38058295D02*
X46196904Y-38248771D01*
X46196904Y-38248771D02*
X46196904Y-38486866D01*
X46196904Y-38486866D02*
X46149285Y-38677342D01*
X46149285Y-38677342D02*
X46101666Y-38772580D01*
X46101666Y-38772580D02*
X46054047Y-38820200D01*
X46054047Y-38820200D02*
X45958809Y-38867819D01*
X45958809Y-38867819D02*
X45863571Y-38867819D01*
X45863571Y-38867819D02*
X45768333Y-38820200D01*
X45768333Y-38820200D02*
X45720714Y-38772580D01*
X45720714Y-38772580D02*
X45673095Y-38677342D01*
X45673095Y-38677342D02*
X45625476Y-38486866D01*
X45625476Y-38486866D02*
X45625476Y-38248771D01*
X45625476Y-38248771D02*
X45673095Y-38058295D01*
X45673095Y-38058295D02*
X45720714Y-37963057D01*
X45720714Y-37963057D02*
X45768333Y-37915438D01*
X45768333Y-37915438D02*
X45863571Y-37867819D01*
X24945142Y-32212580D02*
X24897523Y-32260200D01*
X24897523Y-32260200D02*
X24754666Y-32307819D01*
X24754666Y-32307819D02*
X24659428Y-32307819D01*
X24659428Y-32307819D02*
X24516571Y-32260200D01*
X24516571Y-32260200D02*
X24421333Y-32164961D01*
X24421333Y-32164961D02*
X24373714Y-32069723D01*
X24373714Y-32069723D02*
X24326095Y-31879247D01*
X24326095Y-31879247D02*
X24326095Y-31736390D01*
X24326095Y-31736390D02*
X24373714Y-31545914D01*
X24373714Y-31545914D02*
X24421333Y-31450676D01*
X24421333Y-31450676D02*
X24516571Y-31355438D01*
X24516571Y-31355438D02*
X24659428Y-31307819D01*
X24659428Y-31307819D02*
X24754666Y-31307819D01*
X24754666Y-31307819D02*
X24897523Y-31355438D01*
X24897523Y-31355438D02*
X24945142Y-31403057D01*
X25897523Y-32307819D02*
X25326095Y-32307819D01*
X25611809Y-32307819D02*
X25611809Y-31307819D01*
X25611809Y-31307819D02*
X25516571Y-31450676D01*
X25516571Y-31450676D02*
X25421333Y-31545914D01*
X25421333Y-31545914D02*
X25326095Y-31593533D01*
X26849904Y-32307819D02*
X26278476Y-32307819D01*
X26564190Y-32307819D02*
X26564190Y-31307819D01*
X26564190Y-31307819D02*
X26468952Y-31450676D01*
X26468952Y-31450676D02*
X26373714Y-31545914D01*
X26373714Y-31545914D02*
X26278476Y-31593533D01*
X32476142Y-38415580D02*
X32428523Y-38463200D01*
X32428523Y-38463200D02*
X32285666Y-38510819D01*
X32285666Y-38510819D02*
X32190428Y-38510819D01*
X32190428Y-38510819D02*
X32047571Y-38463200D01*
X32047571Y-38463200D02*
X31952333Y-38367961D01*
X31952333Y-38367961D02*
X31904714Y-38272723D01*
X31904714Y-38272723D02*
X31857095Y-38082247D01*
X31857095Y-38082247D02*
X31857095Y-37939390D01*
X31857095Y-37939390D02*
X31904714Y-37748914D01*
X31904714Y-37748914D02*
X31952333Y-37653676D01*
X31952333Y-37653676D02*
X32047571Y-37558438D01*
X32047571Y-37558438D02*
X32190428Y-37510819D01*
X32190428Y-37510819D02*
X32285666Y-37510819D01*
X32285666Y-37510819D02*
X32428523Y-37558438D01*
X32428523Y-37558438D02*
X32476142Y-37606057D01*
X33428523Y-38510819D02*
X32857095Y-38510819D01*
X33142809Y-38510819D02*
X33142809Y-37510819D01*
X33142809Y-37510819D02*
X33047571Y-37653676D01*
X33047571Y-37653676D02*
X32952333Y-37748914D01*
X32952333Y-37748914D02*
X32857095Y-37796533D01*
X33761857Y-37510819D02*
X34428523Y-37510819D01*
X34428523Y-37510819D02*
X33999952Y-38510819D01*
X12857142Y-50199580D02*
X12809523Y-50247200D01*
X12809523Y-50247200D02*
X12666666Y-50294819D01*
X12666666Y-50294819D02*
X12571428Y-50294819D01*
X12571428Y-50294819D02*
X12428571Y-50247200D01*
X12428571Y-50247200D02*
X12333333Y-50151961D01*
X12333333Y-50151961D02*
X12285714Y-50056723D01*
X12285714Y-50056723D02*
X12238095Y-49866247D01*
X12238095Y-49866247D02*
X12238095Y-49723390D01*
X12238095Y-49723390D02*
X12285714Y-49532914D01*
X12285714Y-49532914D02*
X12333333Y-49437676D01*
X12333333Y-49437676D02*
X12428571Y-49342438D01*
X12428571Y-49342438D02*
X12571428Y-49294819D01*
X12571428Y-49294819D02*
X12666666Y-49294819D01*
X12666666Y-49294819D02*
X12809523Y-49342438D01*
X12809523Y-49342438D02*
X12857142Y-49390057D01*
X13238095Y-49390057D02*
X13285714Y-49342438D01*
X13285714Y-49342438D02*
X13380952Y-49294819D01*
X13380952Y-49294819D02*
X13619047Y-49294819D01*
X13619047Y-49294819D02*
X13714285Y-49342438D01*
X13714285Y-49342438D02*
X13761904Y-49390057D01*
X13761904Y-49390057D02*
X13809523Y-49485295D01*
X13809523Y-49485295D02*
X13809523Y-49580533D01*
X13809523Y-49580533D02*
X13761904Y-49723390D01*
X13761904Y-49723390D02*
X13190476Y-50294819D01*
X13190476Y-50294819D02*
X13809523Y-50294819D01*
X14142857Y-49294819D02*
X14761904Y-49294819D01*
X14761904Y-49294819D02*
X14428571Y-49675771D01*
X14428571Y-49675771D02*
X14571428Y-49675771D01*
X14571428Y-49675771D02*
X14666666Y-49723390D01*
X14666666Y-49723390D02*
X14714285Y-49771009D01*
X14714285Y-49771009D02*
X14761904Y-49866247D01*
X14761904Y-49866247D02*
X14761904Y-50104342D01*
X14761904Y-50104342D02*
X14714285Y-50199580D01*
X14714285Y-50199580D02*
X14666666Y-50247200D01*
X14666666Y-50247200D02*
X14571428Y-50294819D01*
X14571428Y-50294819D02*
X14285714Y-50294819D01*
X14285714Y-50294819D02*
X14190476Y-50247200D01*
X14190476Y-50247200D02*
X14142857Y-50199580D01*
X47238095Y-18079819D02*
X47238095Y-18889342D01*
X47238095Y-18889342D02*
X47285714Y-18984580D01*
X47285714Y-18984580D02*
X47333333Y-19032200D01*
X47333333Y-19032200D02*
X47428571Y-19079819D01*
X47428571Y-19079819D02*
X47619047Y-19079819D01*
X47619047Y-19079819D02*
X47714285Y-19032200D01*
X47714285Y-19032200D02*
X47761904Y-18984580D01*
X47761904Y-18984580D02*
X47809523Y-18889342D01*
X47809523Y-18889342D02*
X47809523Y-18079819D01*
X48714285Y-18413152D02*
X48714285Y-19079819D01*
X48476190Y-18032200D02*
X48238095Y-18746485D01*
X48238095Y-18746485D02*
X48857142Y-18746485D01*
X68574819Y-56333333D02*
X69289104Y-56333333D01*
X69289104Y-56333333D02*
X69431961Y-56380952D01*
X69431961Y-56380952D02*
X69527200Y-56476190D01*
X69527200Y-56476190D02*
X69574819Y-56619047D01*
X69574819Y-56619047D02*
X69574819Y-56714285D01*
X69003390Y-55714285D02*
X68955771Y-55809523D01*
X68955771Y-55809523D02*
X68908152Y-55857142D01*
X68908152Y-55857142D02*
X68812914Y-55904761D01*
X68812914Y-55904761D02*
X68765295Y-55904761D01*
X68765295Y-55904761D02*
X68670057Y-55857142D01*
X68670057Y-55857142D02*
X68622438Y-55809523D01*
X68622438Y-55809523D02*
X68574819Y-55714285D01*
X68574819Y-55714285D02*
X68574819Y-55523809D01*
X68574819Y-55523809D02*
X68622438Y-55428571D01*
X68622438Y-55428571D02*
X68670057Y-55380952D01*
X68670057Y-55380952D02*
X68765295Y-55333333D01*
X68765295Y-55333333D02*
X68812914Y-55333333D01*
X68812914Y-55333333D02*
X68908152Y-55380952D01*
X68908152Y-55380952D02*
X68955771Y-55428571D01*
X68955771Y-55428571D02*
X69003390Y-55523809D01*
X69003390Y-55523809D02*
X69003390Y-55714285D01*
X69003390Y-55714285D02*
X69051009Y-55809523D01*
X69051009Y-55809523D02*
X69098628Y-55857142D01*
X69098628Y-55857142D02*
X69193866Y-55904761D01*
X69193866Y-55904761D02*
X69384342Y-55904761D01*
X69384342Y-55904761D02*
X69479580Y-55857142D01*
X69479580Y-55857142D02*
X69527200Y-55809523D01*
X69527200Y-55809523D02*
X69574819Y-55714285D01*
X69574819Y-55714285D02*
X69574819Y-55523809D01*
X69574819Y-55523809D02*
X69527200Y-55428571D01*
X69527200Y-55428571D02*
X69479580Y-55380952D01*
X69479580Y-55380952D02*
X69384342Y-55333333D01*
X69384342Y-55333333D02*
X69193866Y-55333333D01*
X69193866Y-55333333D02*
X69098628Y-55380952D01*
X69098628Y-55380952D02*
X69051009Y-55428571D01*
X69051009Y-55428571D02*
X69003390Y-55523809D01*
X44295142Y-36935580D02*
X44247523Y-36983200D01*
X44247523Y-36983200D02*
X44104666Y-37030819D01*
X44104666Y-37030819D02*
X44009428Y-37030819D01*
X44009428Y-37030819D02*
X43866571Y-36983200D01*
X43866571Y-36983200D02*
X43771333Y-36887961D01*
X43771333Y-36887961D02*
X43723714Y-36792723D01*
X43723714Y-36792723D02*
X43676095Y-36602247D01*
X43676095Y-36602247D02*
X43676095Y-36459390D01*
X43676095Y-36459390D02*
X43723714Y-36268914D01*
X43723714Y-36268914D02*
X43771333Y-36173676D01*
X43771333Y-36173676D02*
X43866571Y-36078438D01*
X43866571Y-36078438D02*
X44009428Y-36030819D01*
X44009428Y-36030819D02*
X44104666Y-36030819D01*
X44104666Y-36030819D02*
X44247523Y-36078438D01*
X44247523Y-36078438D02*
X44295142Y-36126057D01*
X45247523Y-37030819D02*
X44676095Y-37030819D01*
X44961809Y-37030819D02*
X44961809Y-36030819D01*
X44961809Y-36030819D02*
X44866571Y-36173676D01*
X44866571Y-36173676D02*
X44771333Y-36268914D01*
X44771333Y-36268914D02*
X44676095Y-36316533D01*
X46104666Y-36364152D02*
X46104666Y-37030819D01*
X45866571Y-35983200D02*
X45628476Y-36697485D01*
X45628476Y-36697485D02*
X46247523Y-36697485D01*
X6238095Y-5054819D02*
X6238095Y-5864342D01*
X6238095Y-5864342D02*
X6285714Y-5959580D01*
X6285714Y-5959580D02*
X6333333Y-6007200D01*
X6333333Y-6007200D02*
X6428571Y-6054819D01*
X6428571Y-6054819D02*
X6619047Y-6054819D01*
X6619047Y-6054819D02*
X6714285Y-6007200D01*
X6714285Y-6007200D02*
X6761904Y-5959580D01*
X6761904Y-5959580D02*
X6809523Y-5864342D01*
X6809523Y-5864342D02*
X6809523Y-5054819D01*
X7714285Y-5054819D02*
X7523809Y-5054819D01*
X7523809Y-5054819D02*
X7428571Y-5102438D01*
X7428571Y-5102438D02*
X7380952Y-5150057D01*
X7380952Y-5150057D02*
X7285714Y-5292914D01*
X7285714Y-5292914D02*
X7238095Y-5483390D01*
X7238095Y-5483390D02*
X7238095Y-5864342D01*
X7238095Y-5864342D02*
X7285714Y-5959580D01*
X7285714Y-5959580D02*
X7333333Y-6007200D01*
X7333333Y-6007200D02*
X7428571Y-6054819D01*
X7428571Y-6054819D02*
X7619047Y-6054819D01*
X7619047Y-6054819D02*
X7714285Y-6007200D01*
X7714285Y-6007200D02*
X7761904Y-5959580D01*
X7761904Y-5959580D02*
X7809523Y-5864342D01*
X7809523Y-5864342D02*
X7809523Y-5626247D01*
X7809523Y-5626247D02*
X7761904Y-5531009D01*
X7761904Y-5531009D02*
X7714285Y-5483390D01*
X7714285Y-5483390D02*
X7619047Y-5435771D01*
X7619047Y-5435771D02*
X7428571Y-5435771D01*
X7428571Y-5435771D02*
X7333333Y-5483390D01*
X7333333Y-5483390D02*
X7285714Y-5531009D01*
X7285714Y-5531009D02*
X7238095Y-5626247D01*
X18354819Y-42066666D02*
X18354819Y-42542856D01*
X18354819Y-42542856D02*
X17354819Y-42542856D01*
X18354819Y-41209523D02*
X18354819Y-41780951D01*
X18354819Y-41495237D02*
X17354819Y-41495237D01*
X17354819Y-41495237D02*
X17497676Y-41590475D01*
X17497676Y-41590475D02*
X17592914Y-41685713D01*
X17592914Y-41685713D02*
X17640533Y-41780951D01*
X46357142Y-53784819D02*
X46023809Y-53308628D01*
X45785714Y-53784819D02*
X45785714Y-52784819D01*
X45785714Y-52784819D02*
X46166666Y-52784819D01*
X46166666Y-52784819D02*
X46261904Y-52832438D01*
X46261904Y-52832438D02*
X46309523Y-52880057D01*
X46309523Y-52880057D02*
X46357142Y-52975295D01*
X46357142Y-52975295D02*
X46357142Y-53118152D01*
X46357142Y-53118152D02*
X46309523Y-53213390D01*
X46309523Y-53213390D02*
X46261904Y-53261009D01*
X46261904Y-53261009D02*
X46166666Y-53308628D01*
X46166666Y-53308628D02*
X45785714Y-53308628D01*
X47309523Y-53784819D02*
X46738095Y-53784819D01*
X47023809Y-53784819D02*
X47023809Y-52784819D01*
X47023809Y-52784819D02*
X46928571Y-52927676D01*
X46928571Y-52927676D02*
X46833333Y-53022914D01*
X46833333Y-53022914D02*
X46738095Y-53070533D01*
X48214285Y-52784819D02*
X47738095Y-52784819D01*
X47738095Y-52784819D02*
X47690476Y-53261009D01*
X47690476Y-53261009D02*
X47738095Y-53213390D01*
X47738095Y-53213390D02*
X47833333Y-53165771D01*
X47833333Y-53165771D02*
X48071428Y-53165771D01*
X48071428Y-53165771D02*
X48166666Y-53213390D01*
X48166666Y-53213390D02*
X48214285Y-53261009D01*
X48214285Y-53261009D02*
X48261904Y-53356247D01*
X48261904Y-53356247D02*
X48261904Y-53594342D01*
X48261904Y-53594342D02*
X48214285Y-53689580D01*
X48214285Y-53689580D02*
X48166666Y-53737200D01*
X48166666Y-53737200D02*
X48071428Y-53784819D01*
X48071428Y-53784819D02*
X47833333Y-53784819D01*
X47833333Y-53784819D02*
X47738095Y-53737200D01*
X47738095Y-53737200D02*
X47690476Y-53689580D01*
X12261905Y-11954819D02*
X12261905Y-10954819D01*
X12261905Y-10954819D02*
X12500000Y-10954819D01*
X12500000Y-10954819D02*
X12642857Y-11002438D01*
X12642857Y-11002438D02*
X12738095Y-11097676D01*
X12738095Y-11097676D02*
X12785714Y-11192914D01*
X12785714Y-11192914D02*
X12833333Y-11383390D01*
X12833333Y-11383390D02*
X12833333Y-11526247D01*
X12833333Y-11526247D02*
X12785714Y-11716723D01*
X12785714Y-11716723D02*
X12738095Y-11811961D01*
X12738095Y-11811961D02*
X12642857Y-11907200D01*
X12642857Y-11907200D02*
X12500000Y-11954819D01*
X12500000Y-11954819D02*
X12261905Y-11954819D01*
X13785714Y-11954819D02*
X13214286Y-11954819D01*
X13500000Y-11954819D02*
X13500000Y-10954819D01*
X13500000Y-10954819D02*
X13404762Y-11097676D01*
X13404762Y-11097676D02*
X13309524Y-11192914D01*
X13309524Y-11192914D02*
X13214286Y-11240533D01*
X15857142Y-50199580D02*
X15809523Y-50247200D01*
X15809523Y-50247200D02*
X15666666Y-50294819D01*
X15666666Y-50294819D02*
X15571428Y-50294819D01*
X15571428Y-50294819D02*
X15428571Y-50247200D01*
X15428571Y-50247200D02*
X15333333Y-50151961D01*
X15333333Y-50151961D02*
X15285714Y-50056723D01*
X15285714Y-50056723D02*
X15238095Y-49866247D01*
X15238095Y-49866247D02*
X15238095Y-49723390D01*
X15238095Y-49723390D02*
X15285714Y-49532914D01*
X15285714Y-49532914D02*
X15333333Y-49437676D01*
X15333333Y-49437676D02*
X15428571Y-49342438D01*
X15428571Y-49342438D02*
X15571428Y-49294819D01*
X15571428Y-49294819D02*
X15666666Y-49294819D01*
X15666666Y-49294819D02*
X15809523Y-49342438D01*
X15809523Y-49342438D02*
X15857142Y-49390057D01*
X16238095Y-49390057D02*
X16285714Y-49342438D01*
X16285714Y-49342438D02*
X16380952Y-49294819D01*
X16380952Y-49294819D02*
X16619047Y-49294819D01*
X16619047Y-49294819D02*
X16714285Y-49342438D01*
X16714285Y-49342438D02*
X16761904Y-49390057D01*
X16761904Y-49390057D02*
X16809523Y-49485295D01*
X16809523Y-49485295D02*
X16809523Y-49580533D01*
X16809523Y-49580533D02*
X16761904Y-49723390D01*
X16761904Y-49723390D02*
X16190476Y-50294819D01*
X16190476Y-50294819D02*
X16809523Y-50294819D01*
X17666666Y-49628152D02*
X17666666Y-50294819D01*
X17428571Y-49247200D02*
X17190476Y-49961485D01*
X17190476Y-49961485D02*
X17809523Y-49961485D01*
X29666666Y-9074819D02*
X29666666Y-9789104D01*
X29666666Y-9789104D02*
X29619047Y-9931961D01*
X29619047Y-9931961D02*
X29523809Y-10027200D01*
X29523809Y-10027200D02*
X29380952Y-10074819D01*
X29380952Y-10074819D02*
X29285714Y-10074819D01*
X30095238Y-9170057D02*
X30142857Y-9122438D01*
X30142857Y-9122438D02*
X30238095Y-9074819D01*
X30238095Y-9074819D02*
X30476190Y-9074819D01*
X30476190Y-9074819D02*
X30571428Y-9122438D01*
X30571428Y-9122438D02*
X30619047Y-9170057D01*
X30619047Y-9170057D02*
X30666666Y-9265295D01*
X30666666Y-9265295D02*
X30666666Y-9360533D01*
X30666666Y-9360533D02*
X30619047Y-9503390D01*
X30619047Y-9503390D02*
X30047619Y-10074819D01*
X30047619Y-10074819D02*
X30666666Y-10074819D01*
X23123809Y-31178628D02*
X23123809Y-31654819D01*
X22790476Y-30654819D02*
X23123809Y-31178628D01*
X23123809Y-31178628D02*
X23457142Y-30654819D01*
X24314285Y-31654819D02*
X23742857Y-31654819D01*
X24028571Y-31654819D02*
X24028571Y-30654819D01*
X24028571Y-30654819D02*
X23933333Y-30797676D01*
X23933333Y-30797676D02*
X23838095Y-30892914D01*
X23838095Y-30892914D02*
X23742857Y-30940533D01*
X17784819Y-33142857D02*
X17308628Y-33476190D01*
X17784819Y-33714285D02*
X16784819Y-33714285D01*
X16784819Y-33714285D02*
X16784819Y-33333333D01*
X16784819Y-33333333D02*
X16832438Y-33238095D01*
X16832438Y-33238095D02*
X16880057Y-33190476D01*
X16880057Y-33190476D02*
X16975295Y-33142857D01*
X16975295Y-33142857D02*
X17118152Y-33142857D01*
X17118152Y-33142857D02*
X17213390Y-33190476D01*
X17213390Y-33190476D02*
X17261009Y-33238095D01*
X17261009Y-33238095D02*
X17308628Y-33333333D01*
X17308628Y-33333333D02*
X17308628Y-33714285D01*
X17784819Y-32190476D02*
X17784819Y-32761904D01*
X17784819Y-32476190D02*
X16784819Y-32476190D01*
X16784819Y-32476190D02*
X16927676Y-32571428D01*
X16927676Y-32571428D02*
X17022914Y-32666666D01*
X17022914Y-32666666D02*
X17070533Y-32761904D01*
X16784819Y-31571428D02*
X16784819Y-31476190D01*
X16784819Y-31476190D02*
X16832438Y-31380952D01*
X16832438Y-31380952D02*
X16880057Y-31333333D01*
X16880057Y-31333333D02*
X16975295Y-31285714D01*
X16975295Y-31285714D02*
X17165771Y-31238095D01*
X17165771Y-31238095D02*
X17403866Y-31238095D01*
X17403866Y-31238095D02*
X17594342Y-31285714D01*
X17594342Y-31285714D02*
X17689580Y-31333333D01*
X17689580Y-31333333D02*
X17737200Y-31380952D01*
X17737200Y-31380952D02*
X17784819Y-31476190D01*
X17784819Y-31476190D02*
X17784819Y-31571428D01*
X17784819Y-31571428D02*
X17737200Y-31666666D01*
X17737200Y-31666666D02*
X17689580Y-31714285D01*
X17689580Y-31714285D02*
X17594342Y-31761904D01*
X17594342Y-31761904D02*
X17403866Y-31809523D01*
X17403866Y-31809523D02*
X17165771Y-31809523D01*
X17165771Y-31809523D02*
X16975295Y-31761904D01*
X16975295Y-31761904D02*
X16880057Y-31714285D01*
X16880057Y-31714285D02*
X16832438Y-31666666D01*
X16832438Y-31666666D02*
X16784819Y-31571428D01*
X61666666Y-44074819D02*
X61666666Y-44789104D01*
X61666666Y-44789104D02*
X61619047Y-44931961D01*
X61619047Y-44931961D02*
X61523809Y-45027200D01*
X61523809Y-45027200D02*
X61380952Y-45074819D01*
X61380952Y-45074819D02*
X61285714Y-45074819D01*
X62571428Y-44074819D02*
X62380952Y-44074819D01*
X62380952Y-44074819D02*
X62285714Y-44122438D01*
X62285714Y-44122438D02*
X62238095Y-44170057D01*
X62238095Y-44170057D02*
X62142857Y-44312914D01*
X62142857Y-44312914D02*
X62095238Y-44503390D01*
X62095238Y-44503390D02*
X62095238Y-44884342D01*
X62095238Y-44884342D02*
X62142857Y-44979580D01*
X62142857Y-44979580D02*
X62190476Y-45027200D01*
X62190476Y-45027200D02*
X62285714Y-45074819D01*
X62285714Y-45074819D02*
X62476190Y-45074819D01*
X62476190Y-45074819D02*
X62571428Y-45027200D01*
X62571428Y-45027200D02*
X62619047Y-44979580D01*
X62619047Y-44979580D02*
X62666666Y-44884342D01*
X62666666Y-44884342D02*
X62666666Y-44646247D01*
X62666666Y-44646247D02*
X62619047Y-44551009D01*
X62619047Y-44551009D02*
X62571428Y-44503390D01*
X62571428Y-44503390D02*
X62476190Y-44455771D01*
X62476190Y-44455771D02*
X62285714Y-44455771D01*
X62285714Y-44455771D02*
X62190476Y-44503390D01*
X62190476Y-44503390D02*
X62142857Y-44551009D01*
X62142857Y-44551009D02*
X62095238Y-44646247D01*
X18357142Y-13024819D02*
X18023809Y-12548628D01*
X17785714Y-13024819D02*
X17785714Y-12024819D01*
X17785714Y-12024819D02*
X18166666Y-12024819D01*
X18166666Y-12024819D02*
X18261904Y-12072438D01*
X18261904Y-12072438D02*
X18309523Y-12120057D01*
X18309523Y-12120057D02*
X18357142Y-12215295D01*
X18357142Y-12215295D02*
X18357142Y-12358152D01*
X18357142Y-12358152D02*
X18309523Y-12453390D01*
X18309523Y-12453390D02*
X18261904Y-12501009D01*
X18261904Y-12501009D02*
X18166666Y-12548628D01*
X18166666Y-12548628D02*
X17785714Y-12548628D01*
X19309523Y-13024819D02*
X18738095Y-13024819D01*
X19023809Y-13024819D02*
X19023809Y-12024819D01*
X19023809Y-12024819D02*
X18928571Y-12167676D01*
X18928571Y-12167676D02*
X18833333Y-12262914D01*
X18833333Y-12262914D02*
X18738095Y-12310533D01*
X19690476Y-12120057D02*
X19738095Y-12072438D01*
X19738095Y-12072438D02*
X19833333Y-12024819D01*
X19833333Y-12024819D02*
X20071428Y-12024819D01*
X20071428Y-12024819D02*
X20166666Y-12072438D01*
X20166666Y-12072438D02*
X20214285Y-12120057D01*
X20214285Y-12120057D02*
X20261904Y-12215295D01*
X20261904Y-12215295D02*
X20261904Y-12310533D01*
X20261904Y-12310533D02*
X20214285Y-12453390D01*
X20214285Y-12453390D02*
X19642857Y-13024819D01*
X19642857Y-13024819D02*
X20261904Y-13024819D01*
X17686333Y-38105580D02*
X17638714Y-38153200D01*
X17638714Y-38153200D02*
X17495857Y-38200819D01*
X17495857Y-38200819D02*
X17400619Y-38200819D01*
X17400619Y-38200819D02*
X17257762Y-38153200D01*
X17257762Y-38153200D02*
X17162524Y-38057961D01*
X17162524Y-38057961D02*
X17114905Y-37962723D01*
X17114905Y-37962723D02*
X17067286Y-37772247D01*
X17067286Y-37772247D02*
X17067286Y-37629390D01*
X17067286Y-37629390D02*
X17114905Y-37438914D01*
X17114905Y-37438914D02*
X17162524Y-37343676D01*
X17162524Y-37343676D02*
X17257762Y-37248438D01*
X17257762Y-37248438D02*
X17400619Y-37200819D01*
X17400619Y-37200819D02*
X17495857Y-37200819D01*
X17495857Y-37200819D02*
X17638714Y-37248438D01*
X17638714Y-37248438D02*
X17686333Y-37296057D01*
X18638714Y-38200819D02*
X18067286Y-38200819D01*
X18353000Y-38200819D02*
X18353000Y-37200819D01*
X18353000Y-37200819D02*
X18257762Y-37343676D01*
X18257762Y-37343676D02*
X18162524Y-37438914D01*
X18162524Y-37438914D02*
X18067286Y-37486533D01*
X37117142Y-38748580D02*
X37069523Y-38796200D01*
X37069523Y-38796200D02*
X36926666Y-38843819D01*
X36926666Y-38843819D02*
X36831428Y-38843819D01*
X36831428Y-38843819D02*
X36688571Y-38796200D01*
X36688571Y-38796200D02*
X36593333Y-38700961D01*
X36593333Y-38700961D02*
X36545714Y-38605723D01*
X36545714Y-38605723D02*
X36498095Y-38415247D01*
X36498095Y-38415247D02*
X36498095Y-38272390D01*
X36498095Y-38272390D02*
X36545714Y-38081914D01*
X36545714Y-38081914D02*
X36593333Y-37986676D01*
X36593333Y-37986676D02*
X36688571Y-37891438D01*
X36688571Y-37891438D02*
X36831428Y-37843819D01*
X36831428Y-37843819D02*
X36926666Y-37843819D01*
X36926666Y-37843819D02*
X37069523Y-37891438D01*
X37069523Y-37891438D02*
X37117142Y-37939057D01*
X38069523Y-38843819D02*
X37498095Y-38843819D01*
X37783809Y-38843819D02*
X37783809Y-37843819D01*
X37783809Y-37843819D02*
X37688571Y-37986676D01*
X37688571Y-37986676D02*
X37593333Y-38081914D01*
X37593333Y-38081914D02*
X37498095Y-38129533D01*
X38402857Y-37843819D02*
X39021904Y-37843819D01*
X39021904Y-37843819D02*
X38688571Y-38224771D01*
X38688571Y-38224771D02*
X38831428Y-38224771D01*
X38831428Y-38224771D02*
X38926666Y-38272390D01*
X38926666Y-38272390D02*
X38974285Y-38320009D01*
X38974285Y-38320009D02*
X39021904Y-38415247D01*
X39021904Y-38415247D02*
X39021904Y-38653342D01*
X39021904Y-38653342D02*
X38974285Y-38748580D01*
X38974285Y-38748580D02*
X38926666Y-38796200D01*
X38926666Y-38796200D02*
X38831428Y-38843819D01*
X38831428Y-38843819D02*
X38545714Y-38843819D01*
X38545714Y-38843819D02*
X38450476Y-38796200D01*
X38450476Y-38796200D02*
X38402857Y-38748580D01*
X34238095Y-22054819D02*
X34238095Y-22864342D01*
X34238095Y-22864342D02*
X34285714Y-22959580D01*
X34285714Y-22959580D02*
X34333333Y-23007200D01*
X34333333Y-23007200D02*
X34428571Y-23054819D01*
X34428571Y-23054819D02*
X34619047Y-23054819D01*
X34619047Y-23054819D02*
X34714285Y-23007200D01*
X34714285Y-23007200D02*
X34761904Y-22959580D01*
X34761904Y-22959580D02*
X34809523Y-22864342D01*
X34809523Y-22864342D02*
X34809523Y-22054819D01*
X35809523Y-23054819D02*
X35238095Y-23054819D01*
X35523809Y-23054819D02*
X35523809Y-22054819D01*
X35523809Y-22054819D02*
X35428571Y-22197676D01*
X35428571Y-22197676D02*
X35333333Y-22292914D01*
X35333333Y-22292914D02*
X35238095Y-22340533D01*
X68074819Y-48333333D02*
X68789104Y-48333333D01*
X68789104Y-48333333D02*
X68931961Y-48380952D01*
X68931961Y-48380952D02*
X69027200Y-48476190D01*
X69027200Y-48476190D02*
X69074819Y-48619047D01*
X69074819Y-48619047D02*
X69074819Y-48714285D01*
X68074819Y-47952380D02*
X68074819Y-47285714D01*
X68074819Y-47285714D02*
X69074819Y-47714285D01*
X45436142Y-33240580D02*
X45388523Y-33288200D01*
X45388523Y-33288200D02*
X45245666Y-33335819D01*
X45245666Y-33335819D02*
X45150428Y-33335819D01*
X45150428Y-33335819D02*
X45007571Y-33288200D01*
X45007571Y-33288200D02*
X44912333Y-33192961D01*
X44912333Y-33192961D02*
X44864714Y-33097723D01*
X44864714Y-33097723D02*
X44817095Y-32907247D01*
X44817095Y-32907247D02*
X44817095Y-32764390D01*
X44817095Y-32764390D02*
X44864714Y-32573914D01*
X44864714Y-32573914D02*
X44912333Y-32478676D01*
X44912333Y-32478676D02*
X45007571Y-32383438D01*
X45007571Y-32383438D02*
X45150428Y-32335819D01*
X45150428Y-32335819D02*
X45245666Y-32335819D01*
X45245666Y-32335819D02*
X45388523Y-32383438D01*
X45388523Y-32383438D02*
X45436142Y-32431057D01*
X45817095Y-32431057D02*
X45864714Y-32383438D01*
X45864714Y-32383438D02*
X45959952Y-32335819D01*
X45959952Y-32335819D02*
X46198047Y-32335819D01*
X46198047Y-32335819D02*
X46293285Y-32383438D01*
X46293285Y-32383438D02*
X46340904Y-32431057D01*
X46340904Y-32431057D02*
X46388523Y-32526295D01*
X46388523Y-32526295D02*
X46388523Y-32621533D01*
X46388523Y-32621533D02*
X46340904Y-32764390D01*
X46340904Y-32764390D02*
X45769476Y-33335819D01*
X45769476Y-33335819D02*
X46388523Y-33335819D01*
X47340904Y-33335819D02*
X46769476Y-33335819D01*
X47055190Y-33335819D02*
X47055190Y-32335819D01*
X47055190Y-32335819D02*
X46959952Y-32478676D01*
X46959952Y-32478676D02*
X46864714Y-32573914D01*
X46864714Y-32573914D02*
X46769476Y-32621533D01*
X48707142Y-60039580D02*
X48659523Y-60087200D01*
X48659523Y-60087200D02*
X48516666Y-60134819D01*
X48516666Y-60134819D02*
X48421428Y-60134819D01*
X48421428Y-60134819D02*
X48278571Y-60087200D01*
X48278571Y-60087200D02*
X48183333Y-59991961D01*
X48183333Y-59991961D02*
X48135714Y-59896723D01*
X48135714Y-59896723D02*
X48088095Y-59706247D01*
X48088095Y-59706247D02*
X48088095Y-59563390D01*
X48088095Y-59563390D02*
X48135714Y-59372914D01*
X48135714Y-59372914D02*
X48183333Y-59277676D01*
X48183333Y-59277676D02*
X48278571Y-59182438D01*
X48278571Y-59182438D02*
X48421428Y-59134819D01*
X48421428Y-59134819D02*
X48516666Y-59134819D01*
X48516666Y-59134819D02*
X48659523Y-59182438D01*
X48659523Y-59182438D02*
X48707142Y-59230057D01*
X49088095Y-59230057D02*
X49135714Y-59182438D01*
X49135714Y-59182438D02*
X49230952Y-59134819D01*
X49230952Y-59134819D02*
X49469047Y-59134819D01*
X49469047Y-59134819D02*
X49564285Y-59182438D01*
X49564285Y-59182438D02*
X49611904Y-59230057D01*
X49611904Y-59230057D02*
X49659523Y-59325295D01*
X49659523Y-59325295D02*
X49659523Y-59420533D01*
X49659523Y-59420533D02*
X49611904Y-59563390D01*
X49611904Y-59563390D02*
X49040476Y-60134819D01*
X49040476Y-60134819D02*
X49659523Y-60134819D01*
X49992857Y-59134819D02*
X50659523Y-59134819D01*
X50659523Y-59134819D02*
X50230952Y-60134819D01*
X17784819Y-29166666D02*
X17308628Y-29499999D01*
X17784819Y-29738094D02*
X16784819Y-29738094D01*
X16784819Y-29738094D02*
X16784819Y-29357142D01*
X16784819Y-29357142D02*
X16832438Y-29261904D01*
X16832438Y-29261904D02*
X16880057Y-29214285D01*
X16880057Y-29214285D02*
X16975295Y-29166666D01*
X16975295Y-29166666D02*
X17118152Y-29166666D01*
X17118152Y-29166666D02*
X17213390Y-29214285D01*
X17213390Y-29214285D02*
X17261009Y-29261904D01*
X17261009Y-29261904D02*
X17308628Y-29357142D01*
X17308628Y-29357142D02*
X17308628Y-29738094D01*
X17784819Y-28690475D02*
X17784819Y-28499999D01*
X17784819Y-28499999D02*
X17737200Y-28404761D01*
X17737200Y-28404761D02*
X17689580Y-28357142D01*
X17689580Y-28357142D02*
X17546723Y-28261904D01*
X17546723Y-28261904D02*
X17356247Y-28214285D01*
X17356247Y-28214285D02*
X16975295Y-28214285D01*
X16975295Y-28214285D02*
X16880057Y-28261904D01*
X16880057Y-28261904D02*
X16832438Y-28309523D01*
X16832438Y-28309523D02*
X16784819Y-28404761D01*
X16784819Y-28404761D02*
X16784819Y-28595237D01*
X16784819Y-28595237D02*
X16832438Y-28690475D01*
X16832438Y-28690475D02*
X16880057Y-28738094D01*
X16880057Y-28738094D02*
X16975295Y-28785713D01*
X16975295Y-28785713D02*
X17213390Y-28785713D01*
X17213390Y-28785713D02*
X17308628Y-28738094D01*
X17308628Y-28738094D02*
X17356247Y-28690475D01*
X17356247Y-28690475D02*
X17403866Y-28595237D01*
X17403866Y-28595237D02*
X17403866Y-28404761D01*
X17403866Y-28404761D02*
X17356247Y-28309523D01*
X17356247Y-28309523D02*
X17308628Y-28261904D01*
X17308628Y-28261904D02*
X17213390Y-28214285D01*
X46614580Y-32349857D02*
X46662200Y-32397476D01*
X46662200Y-32397476D02*
X46709819Y-32540333D01*
X46709819Y-32540333D02*
X46709819Y-32635571D01*
X46709819Y-32635571D02*
X46662200Y-32778428D01*
X46662200Y-32778428D02*
X46566961Y-32873666D01*
X46566961Y-32873666D02*
X46471723Y-32921285D01*
X46471723Y-32921285D02*
X46281247Y-32968904D01*
X46281247Y-32968904D02*
X46138390Y-32968904D01*
X46138390Y-32968904D02*
X45947914Y-32921285D01*
X45947914Y-32921285D02*
X45852676Y-32873666D01*
X45852676Y-32873666D02*
X45757438Y-32778428D01*
X45757438Y-32778428D02*
X45709819Y-32635571D01*
X45709819Y-32635571D02*
X45709819Y-32540333D01*
X45709819Y-32540333D02*
X45757438Y-32397476D01*
X45757438Y-32397476D02*
X45805057Y-32349857D01*
X45805057Y-31968904D02*
X45757438Y-31921285D01*
X45757438Y-31921285D02*
X45709819Y-31826047D01*
X45709819Y-31826047D02*
X45709819Y-31587952D01*
X45709819Y-31587952D02*
X45757438Y-31492714D01*
X45757438Y-31492714D02*
X45805057Y-31445095D01*
X45805057Y-31445095D02*
X45900295Y-31397476D01*
X45900295Y-31397476D02*
X45995533Y-31397476D01*
X45995533Y-31397476D02*
X46138390Y-31445095D01*
X46138390Y-31445095D02*
X46709819Y-32016523D01*
X46709819Y-32016523D02*
X46709819Y-31397476D01*
X45709819Y-30778428D02*
X45709819Y-30683190D01*
X45709819Y-30683190D02*
X45757438Y-30587952D01*
X45757438Y-30587952D02*
X45805057Y-30540333D01*
X45805057Y-30540333D02*
X45900295Y-30492714D01*
X45900295Y-30492714D02*
X46090771Y-30445095D01*
X46090771Y-30445095D02*
X46328866Y-30445095D01*
X46328866Y-30445095D02*
X46519342Y-30492714D01*
X46519342Y-30492714D02*
X46614580Y-30540333D01*
X46614580Y-30540333D02*
X46662200Y-30587952D01*
X46662200Y-30587952D02*
X46709819Y-30683190D01*
X46709819Y-30683190D02*
X46709819Y-30778428D01*
X46709819Y-30778428D02*
X46662200Y-30873666D01*
X46662200Y-30873666D02*
X46614580Y-30921285D01*
X46614580Y-30921285D02*
X46519342Y-30968904D01*
X46519342Y-30968904D02*
X46328866Y-31016523D01*
X46328866Y-31016523D02*
X46090771Y-31016523D01*
X46090771Y-31016523D02*
X45900295Y-30968904D01*
X45900295Y-30968904D02*
X45805057Y-30921285D01*
X45805057Y-30921285D02*
X45757438Y-30873666D01*
X45757438Y-30873666D02*
X45709819Y-30778428D01*
X32536142Y-40343580D02*
X32488523Y-40391200D01*
X32488523Y-40391200D02*
X32345666Y-40438819D01*
X32345666Y-40438819D02*
X32250428Y-40438819D01*
X32250428Y-40438819D02*
X32107571Y-40391200D01*
X32107571Y-40391200D02*
X32012333Y-40295961D01*
X32012333Y-40295961D02*
X31964714Y-40200723D01*
X31964714Y-40200723D02*
X31917095Y-40010247D01*
X31917095Y-40010247D02*
X31917095Y-39867390D01*
X31917095Y-39867390D02*
X31964714Y-39676914D01*
X31964714Y-39676914D02*
X32012333Y-39581676D01*
X32012333Y-39581676D02*
X32107571Y-39486438D01*
X32107571Y-39486438D02*
X32250428Y-39438819D01*
X32250428Y-39438819D02*
X32345666Y-39438819D01*
X32345666Y-39438819D02*
X32488523Y-39486438D01*
X32488523Y-39486438D02*
X32536142Y-39534057D01*
X33488523Y-40438819D02*
X32917095Y-40438819D01*
X33202809Y-40438819D02*
X33202809Y-39438819D01*
X33202809Y-39438819D02*
X33107571Y-39581676D01*
X33107571Y-39581676D02*
X33012333Y-39676914D01*
X33012333Y-39676914D02*
X32917095Y-39724533D01*
X34059952Y-39867390D02*
X33964714Y-39819771D01*
X33964714Y-39819771D02*
X33917095Y-39772152D01*
X33917095Y-39772152D02*
X33869476Y-39676914D01*
X33869476Y-39676914D02*
X33869476Y-39629295D01*
X33869476Y-39629295D02*
X33917095Y-39534057D01*
X33917095Y-39534057D02*
X33964714Y-39486438D01*
X33964714Y-39486438D02*
X34059952Y-39438819D01*
X34059952Y-39438819D02*
X34250428Y-39438819D01*
X34250428Y-39438819D02*
X34345666Y-39486438D01*
X34345666Y-39486438D02*
X34393285Y-39534057D01*
X34393285Y-39534057D02*
X34440904Y-39629295D01*
X34440904Y-39629295D02*
X34440904Y-39676914D01*
X34440904Y-39676914D02*
X34393285Y-39772152D01*
X34393285Y-39772152D02*
X34345666Y-39819771D01*
X34345666Y-39819771D02*
X34250428Y-39867390D01*
X34250428Y-39867390D02*
X34059952Y-39867390D01*
X34059952Y-39867390D02*
X33964714Y-39915009D01*
X33964714Y-39915009D02*
X33917095Y-39962628D01*
X33917095Y-39962628D02*
X33869476Y-40057866D01*
X33869476Y-40057866D02*
X33869476Y-40248342D01*
X33869476Y-40248342D02*
X33917095Y-40343580D01*
X33917095Y-40343580D02*
X33964714Y-40391200D01*
X33964714Y-40391200D02*
X34059952Y-40438819D01*
X34059952Y-40438819D02*
X34250428Y-40438819D01*
X34250428Y-40438819D02*
X34345666Y-40391200D01*
X34345666Y-40391200D02*
X34393285Y-40343580D01*
X34393285Y-40343580D02*
X34440904Y-40248342D01*
X34440904Y-40248342D02*
X34440904Y-40057866D01*
X34440904Y-40057866D02*
X34393285Y-39962628D01*
X34393285Y-39962628D02*
X34345666Y-39915009D01*
X34345666Y-39915009D02*
X34250428Y-39867390D01*
X50904761Y-49650057D02*
X50809523Y-49602438D01*
X50809523Y-49602438D02*
X50714285Y-49507200D01*
X50714285Y-49507200D02*
X50571428Y-49364342D01*
X50571428Y-49364342D02*
X50476190Y-49316723D01*
X50476190Y-49316723D02*
X50380952Y-49316723D01*
X50428571Y-49554819D02*
X50333333Y-49507200D01*
X50333333Y-49507200D02*
X50238095Y-49411961D01*
X50238095Y-49411961D02*
X50190476Y-49221485D01*
X50190476Y-49221485D02*
X50190476Y-48888152D01*
X50190476Y-48888152D02*
X50238095Y-48697676D01*
X50238095Y-48697676D02*
X50333333Y-48602438D01*
X50333333Y-48602438D02*
X50428571Y-48554819D01*
X50428571Y-48554819D02*
X50619047Y-48554819D01*
X50619047Y-48554819D02*
X50714285Y-48602438D01*
X50714285Y-48602438D02*
X50809523Y-48697676D01*
X50809523Y-48697676D02*
X50857142Y-48888152D01*
X50857142Y-48888152D02*
X50857142Y-49221485D01*
X50857142Y-49221485D02*
X50809523Y-49411961D01*
X50809523Y-49411961D02*
X50714285Y-49507200D01*
X50714285Y-49507200D02*
X50619047Y-49554819D01*
X50619047Y-49554819D02*
X50428571Y-49554819D01*
X51809523Y-49554819D02*
X51238095Y-49554819D01*
X51523809Y-49554819D02*
X51523809Y-48554819D01*
X51523809Y-48554819D02*
X51428571Y-48697676D01*
X51428571Y-48697676D02*
X51333333Y-48792914D01*
X51333333Y-48792914D02*
X51238095Y-48840533D01*
X58124819Y-32666666D02*
X57648628Y-32999999D01*
X58124819Y-33238094D02*
X57124819Y-33238094D01*
X57124819Y-33238094D02*
X57124819Y-32857142D01*
X57124819Y-32857142D02*
X57172438Y-32761904D01*
X57172438Y-32761904D02*
X57220057Y-32714285D01*
X57220057Y-32714285D02*
X57315295Y-32666666D01*
X57315295Y-32666666D02*
X57458152Y-32666666D01*
X57458152Y-32666666D02*
X57553390Y-32714285D01*
X57553390Y-32714285D02*
X57601009Y-32761904D01*
X57601009Y-32761904D02*
X57648628Y-32857142D01*
X57648628Y-32857142D02*
X57648628Y-33238094D01*
X57553390Y-32095237D02*
X57505771Y-32190475D01*
X57505771Y-32190475D02*
X57458152Y-32238094D01*
X57458152Y-32238094D02*
X57362914Y-32285713D01*
X57362914Y-32285713D02*
X57315295Y-32285713D01*
X57315295Y-32285713D02*
X57220057Y-32238094D01*
X57220057Y-32238094D02*
X57172438Y-32190475D01*
X57172438Y-32190475D02*
X57124819Y-32095237D01*
X57124819Y-32095237D02*
X57124819Y-31904761D01*
X57124819Y-31904761D02*
X57172438Y-31809523D01*
X57172438Y-31809523D02*
X57220057Y-31761904D01*
X57220057Y-31761904D02*
X57315295Y-31714285D01*
X57315295Y-31714285D02*
X57362914Y-31714285D01*
X57362914Y-31714285D02*
X57458152Y-31761904D01*
X57458152Y-31761904D02*
X57505771Y-31809523D01*
X57505771Y-31809523D02*
X57553390Y-31904761D01*
X57553390Y-31904761D02*
X57553390Y-32095237D01*
X57553390Y-32095237D02*
X57601009Y-32190475D01*
X57601009Y-32190475D02*
X57648628Y-32238094D01*
X57648628Y-32238094D02*
X57743866Y-32285713D01*
X57743866Y-32285713D02*
X57934342Y-32285713D01*
X57934342Y-32285713D02*
X58029580Y-32238094D01*
X58029580Y-32238094D02*
X58077200Y-32190475D01*
X58077200Y-32190475D02*
X58124819Y-32095237D01*
X58124819Y-32095237D02*
X58124819Y-31904761D01*
X58124819Y-31904761D02*
X58077200Y-31809523D01*
X58077200Y-31809523D02*
X58029580Y-31761904D01*
X58029580Y-31761904D02*
X57934342Y-31714285D01*
X57934342Y-31714285D02*
X57743866Y-31714285D01*
X57743866Y-31714285D02*
X57648628Y-31761904D01*
X57648628Y-31761904D02*
X57601009Y-31809523D01*
X57601009Y-31809523D02*
X57553390Y-31904761D01*
X53333333Y-29124819D02*
X53000000Y-28648628D01*
X52761905Y-29124819D02*
X52761905Y-28124819D01*
X52761905Y-28124819D02*
X53142857Y-28124819D01*
X53142857Y-28124819D02*
X53238095Y-28172438D01*
X53238095Y-28172438D02*
X53285714Y-28220057D01*
X53285714Y-28220057D02*
X53333333Y-28315295D01*
X53333333Y-28315295D02*
X53333333Y-28458152D01*
X53333333Y-28458152D02*
X53285714Y-28553390D01*
X53285714Y-28553390D02*
X53238095Y-28601009D01*
X53238095Y-28601009D02*
X53142857Y-28648628D01*
X53142857Y-28648628D02*
X52761905Y-28648628D01*
X54190476Y-28124819D02*
X54000000Y-28124819D01*
X54000000Y-28124819D02*
X53904762Y-28172438D01*
X53904762Y-28172438D02*
X53857143Y-28220057D01*
X53857143Y-28220057D02*
X53761905Y-28362914D01*
X53761905Y-28362914D02*
X53714286Y-28553390D01*
X53714286Y-28553390D02*
X53714286Y-28934342D01*
X53714286Y-28934342D02*
X53761905Y-29029580D01*
X53761905Y-29029580D02*
X53809524Y-29077200D01*
X53809524Y-29077200D02*
X53904762Y-29124819D01*
X53904762Y-29124819D02*
X54095238Y-29124819D01*
X54095238Y-29124819D02*
X54190476Y-29077200D01*
X54190476Y-29077200D02*
X54238095Y-29029580D01*
X54238095Y-29029580D02*
X54285714Y-28934342D01*
X54285714Y-28934342D02*
X54285714Y-28696247D01*
X54285714Y-28696247D02*
X54238095Y-28601009D01*
X54238095Y-28601009D02*
X54190476Y-28553390D01*
X54190476Y-28553390D02*
X54095238Y-28505771D01*
X54095238Y-28505771D02*
X53904762Y-28505771D01*
X53904762Y-28505771D02*
X53809524Y-28553390D01*
X53809524Y-28553390D02*
X53761905Y-28601009D01*
X53761905Y-28601009D02*
X53714286Y-28696247D01*
X14185333Y-41558580D02*
X14137714Y-41606200D01*
X14137714Y-41606200D02*
X13994857Y-41653819D01*
X13994857Y-41653819D02*
X13899619Y-41653819D01*
X13899619Y-41653819D02*
X13756762Y-41606200D01*
X13756762Y-41606200D02*
X13661524Y-41510961D01*
X13661524Y-41510961D02*
X13613905Y-41415723D01*
X13613905Y-41415723D02*
X13566286Y-41225247D01*
X13566286Y-41225247D02*
X13566286Y-41082390D01*
X13566286Y-41082390D02*
X13613905Y-40891914D01*
X13613905Y-40891914D02*
X13661524Y-40796676D01*
X13661524Y-40796676D02*
X13756762Y-40701438D01*
X13756762Y-40701438D02*
X13899619Y-40653819D01*
X13899619Y-40653819D02*
X13994857Y-40653819D01*
X13994857Y-40653819D02*
X14137714Y-40701438D01*
X14137714Y-40701438D02*
X14185333Y-40749057D01*
X14518667Y-40653819D02*
X15137714Y-40653819D01*
X15137714Y-40653819D02*
X14804381Y-41034771D01*
X14804381Y-41034771D02*
X14947238Y-41034771D01*
X14947238Y-41034771D02*
X15042476Y-41082390D01*
X15042476Y-41082390D02*
X15090095Y-41130009D01*
X15090095Y-41130009D02*
X15137714Y-41225247D01*
X15137714Y-41225247D02*
X15137714Y-41463342D01*
X15137714Y-41463342D02*
X15090095Y-41558580D01*
X15090095Y-41558580D02*
X15042476Y-41606200D01*
X15042476Y-41606200D02*
X14947238Y-41653819D01*
X14947238Y-41653819D02*
X14661524Y-41653819D01*
X14661524Y-41653819D02*
X14566286Y-41606200D01*
X14566286Y-41606200D02*
X14518667Y-41558580D01*
%TO.C,D2*%
D11*
X48640000Y-53800000D02*
X48640000Y-55800000D01*
X48640000Y-53800000D02*
X52650000Y-53800000D01*
X48640000Y-55800000D02*
X52650000Y-55800000D01*
%TO.C,R16*%
X21096359Y-41470000D02*
X21403641Y-41470000D01*
X21096359Y-42230000D02*
X21403641Y-42230000D01*
%TO.C,R5*%
X53653641Y-29120000D02*
X53346359Y-29120000D01*
X53653641Y-29880000D02*
X53346359Y-29880000D01*
%TO.C,J9*%
X41620000Y-8380000D02*
X41620000Y-7000000D01*
X43000000Y-8380000D02*
X41620000Y-8380000D01*
X44270000Y-5620000D02*
X77400000Y-5620000D01*
X44270000Y-8380000D02*
X44270000Y-5620000D01*
X44270000Y-8380000D02*
X77400000Y-8380000D01*
X77400000Y-8380000D02*
X77400000Y-5620000D01*
%TO.C,L2*%
X12397936Y-6640000D02*
X13602064Y-6640000D01*
X12397936Y-9360000D02*
X13602064Y-9360000D01*
%TO.C,R4*%
X26262000Y-27659359D02*
X26262000Y-27966641D01*
X27022000Y-27659359D02*
X27022000Y-27966641D01*
%TO.C,C26*%
X6738748Y-13265000D02*
X7261252Y-13265000D01*
X6738748Y-14735000D02*
X7261252Y-14735000D01*
%TO.C,R3*%
X48269359Y-43147000D02*
X48576641Y-43147000D01*
X48269359Y-43907000D02*
X48576641Y-43907000D01*
%TO.C,R11*%
X9846359Y-50620000D02*
X10153641Y-50620000D01*
X9846359Y-51380000D02*
X10153641Y-51380000D01*
%TO.C,R17*%
X22996359Y-41320000D02*
X23303641Y-41320000D01*
X22996359Y-42080000D02*
X23303641Y-42080000D01*
%TO.C,C15*%
X48241748Y-39508000D02*
X48764252Y-39508000D01*
X48241748Y-40978000D02*
X48764252Y-40978000D01*
%TO.C,R1*%
X21897000Y-48779641D02*
X21897000Y-48472359D01*
X22657000Y-48779641D02*
X22657000Y-48472359D01*
%TO.C,C8*%
X44751164Y-41086000D02*
X44966836Y-41086000D01*
X44751164Y-41806000D02*
X44966836Y-41806000D01*
%TO.C,C16*%
X47554164Y-37459000D02*
X47769836Y-37459000D01*
X47554164Y-38179000D02*
X47769836Y-38179000D01*
%TO.C,C22*%
X18392164Y-25640000D02*
X18607836Y-25640000D01*
X18392164Y-26360000D02*
X18607836Y-26360000D01*
%TO.C,C6*%
X44863164Y-42900000D02*
X45078836Y-42900000D01*
X44863164Y-43620000D02*
X45078836Y-43620000D01*
%TO.C,J1*%
X4620000Y-31380000D02*
X4620000Y-30000000D01*
X6000000Y-31380000D02*
X4620000Y-31380000D01*
X7270000Y-28620000D02*
X9920000Y-28620000D01*
X7270000Y-31380000D02*
X7270000Y-28620000D01*
X7270000Y-31380000D02*
X9920000Y-31380000D01*
X9920000Y-31380000D02*
X9920000Y-28620000D01*
%TO.C,J10*%
X53620000Y-59380000D02*
X53620000Y-58000000D01*
X55000000Y-59380000D02*
X53620000Y-59380000D01*
X56270000Y-56620000D02*
X58920000Y-56620000D01*
X56270000Y-59380000D02*
X56270000Y-56620000D01*
X56270000Y-59380000D02*
X58920000Y-59380000D01*
X58920000Y-59380000D02*
X58920000Y-56620000D01*
%TO.C,C7*%
X45080164Y-35491000D02*
X45295836Y-35491000D01*
X45080164Y-36211000D02*
X45295836Y-36211000D01*
%TO.C,R14*%
X46846359Y-50620000D02*
X47153641Y-50620000D01*
X46846359Y-51380000D02*
X47153641Y-51380000D01*
%TO.C,R7*%
X56120000Y-35346359D02*
X56120000Y-35653641D01*
X56880000Y-35346359D02*
X56880000Y-35653641D01*
%TO.C,J3*%
X68630000Y-25250000D02*
X75890000Y-25250000D01*
X68630000Y-26750000D02*
X68630000Y-25250000D01*
X68630000Y-34750000D02*
X68630000Y-33250000D01*
X68630000Y-34750000D02*
X75890000Y-34750000D01*
%TO.C,C25*%
X18738748Y-7265000D02*
X19261252Y-7265000D01*
X18738748Y-8735000D02*
X19261252Y-8735000D01*
%TO.C,C9*%
X38459164Y-41539000D02*
X38674836Y-41539000D01*
X38459164Y-42259000D02*
X38674836Y-42259000D01*
%TO.C,J5*%
X38620000Y-45620000D02*
X40000000Y-45620000D01*
X38620000Y-47000000D02*
X38620000Y-45620000D01*
X38620000Y-48270000D02*
X38620000Y-58540000D01*
X38620000Y-48270000D02*
X41380000Y-48270000D01*
X38620000Y-58540000D02*
X41380000Y-58540000D01*
X41380000Y-48270000D02*
X41380000Y-58540000D01*
%TO.C,C12*%
X24027000Y-27140420D02*
X24027000Y-27421580D01*
X25047000Y-27140420D02*
X25047000Y-27421580D01*
%TO.C,C2*%
X25102748Y-48088000D02*
X25625252Y-48088000D01*
X25102748Y-49558000D02*
X25625252Y-49558000D01*
%TO.C,R13*%
X18762742Y-17977500D02*
X19237258Y-17977500D01*
X18762742Y-19022500D02*
X19237258Y-19022500D01*
%TO.C,C19*%
X44371000Y-28864164D02*
X44371000Y-29079836D01*
X45091000Y-28864164D02*
X45091000Y-29079836D01*
%TO.C,U2*%
X11940000Y-42440000D02*
X16060000Y-42440000D01*
X11940000Y-42535000D02*
X11940000Y-42440000D01*
X11940000Y-47560000D02*
X11940000Y-47465000D01*
X16060000Y-42440000D02*
X16060000Y-42535000D01*
X16060000Y-47465000D02*
X16060000Y-47560000D01*
X16060000Y-47560000D02*
X11940000Y-47560000D01*
X11400000Y-42530000D02*
X11160000Y-42200000D01*
X11640000Y-42200000D01*
X11400000Y-42530000D01*
G36*
X11400000Y-42530000D02*
G01*
X11160000Y-42200000D01*
X11640000Y-42200000D01*
X11400000Y-42530000D01*
G37*
%TO.C,U5*%
X64090000Y-22440000D02*
X65910000Y-22440000D01*
X64090000Y-22490000D02*
X64090000Y-22440000D01*
X64090000Y-25560000D02*
X64090000Y-25510000D01*
X65910000Y-22440000D02*
X65910000Y-22490000D01*
X65910000Y-25510000D02*
X65910000Y-25560000D01*
X65910000Y-25560000D02*
X64090000Y-25560000D01*
X63550000Y-22490000D02*
X63310000Y-22160000D01*
X63790000Y-22160000D01*
X63550000Y-22490000D01*
G36*
X63550000Y-22490000D02*
G01*
X63310000Y-22160000D01*
X63790000Y-22160000D01*
X63550000Y-22490000D01*
G37*
%TO.C,R2*%
X26846359Y-39620000D02*
X27153641Y-39620000D01*
X26846359Y-40380000D02*
X27153641Y-40380000D01*
%TO.C,J4*%
X28620000Y-45620000D02*
X30000000Y-45620000D01*
X28620000Y-47000000D02*
X28620000Y-45620000D01*
X28620000Y-48270000D02*
X28620000Y-56000000D01*
X28620000Y-48270000D02*
X31380000Y-48270000D01*
X28620000Y-56000000D02*
X31380000Y-56000000D01*
X31380000Y-48270000D02*
X31380000Y-56000000D01*
%TO.C,C10*%
X44827164Y-39213000D02*
X45042836Y-39213000D01*
X44827164Y-39933000D02*
X45042836Y-39933000D01*
%TO.C,C11*%
X25728580Y-29913000D02*
X25447420Y-29913000D01*
X25728580Y-30933000D02*
X25447420Y-30933000D01*
%TO.C,C17*%
X33011164Y-38856000D02*
X33226836Y-38856000D01*
X33011164Y-39576000D02*
X33226836Y-39576000D01*
%TO.C,C23*%
X13392164Y-50640000D02*
X13607836Y-50640000D01*
X13392164Y-51360000D02*
X13607836Y-51360000D01*
%TO.C,U4*%
X45850000Y-20315000D02*
X45850000Y-20090000D01*
X45850000Y-24150000D02*
X45850000Y-23625000D01*
X45850000Y-24150000D02*
X46375000Y-24150000D01*
X46375000Y-19850000D02*
X46150000Y-19850000D01*
X50150000Y-19850000D02*
X49625000Y-19850000D01*
X50150000Y-19850000D02*
X50150000Y-20375000D01*
X50150000Y-24150000D02*
X49625000Y-24150000D01*
X50150000Y-24150000D02*
X50150000Y-23625000D01*
X45850000Y-19850000D02*
X45610000Y-19520000D01*
X46090000Y-19520000D01*
X45850000Y-19850000D01*
G36*
X45850000Y-19850000D02*
G01*
X45610000Y-19520000D01*
X46090000Y-19520000D01*
X45850000Y-19850000D01*
G37*
%TO.C,J8*%
X70120000Y-57380000D02*
X70120000Y-56000000D01*
X71500000Y-57380000D02*
X70120000Y-57380000D01*
X72770000Y-54620000D02*
X77960000Y-54620000D01*
X72770000Y-57380000D02*
X72770000Y-54620000D01*
X72770000Y-57380000D02*
X77960000Y-57380000D01*
X77960000Y-57380000D02*
X77960000Y-54620000D01*
%TO.C,C14*%
X44830164Y-37376000D02*
X45045836Y-37376000D01*
X44830164Y-38096000D02*
X45045836Y-38096000D01*
%TO.C,U6*%
X6090000Y-6440000D02*
X7910000Y-6440000D01*
X6090000Y-6490000D02*
X6090000Y-6440000D01*
X6090000Y-9560000D02*
X6090000Y-9510000D01*
X7910000Y-6440000D02*
X7910000Y-6490000D01*
X7910000Y-9510000D02*
X7910000Y-9560000D01*
X7910000Y-9560000D02*
X6090000Y-9560000D01*
X5550000Y-6490000D02*
X5310000Y-6160000D01*
X5790000Y-6160000D01*
X5550000Y-6490000D01*
G36*
X5550000Y-6490000D02*
G01*
X5310000Y-6160000D01*
X5790000Y-6160000D01*
X5550000Y-6490000D01*
G37*
%TO.C,L1*%
X18740000Y-44097936D02*
X18740000Y-45302064D01*
X21460000Y-44097936D02*
X21460000Y-45302064D01*
%TO.C,R15*%
X46846359Y-54120000D02*
X47153641Y-54120000D01*
X46846359Y-54880000D02*
X47153641Y-54880000D01*
%TO.C,D1*%
X9490000Y-12350000D02*
X9490000Y-15650000D01*
X9490000Y-12350000D02*
X15000000Y-12350000D01*
X9490000Y-15650000D02*
X15000000Y-15650000D01*
%TO.C,C24*%
X16392164Y-50640000D02*
X16607836Y-50640000D01*
X16392164Y-51360000D02*
X16607836Y-51360000D01*
%TO.C,J2*%
X28620000Y-10620000D02*
X30000000Y-10620000D01*
X28620000Y-12000000D02*
X28620000Y-10620000D01*
X28620000Y-13270000D02*
X28620000Y-15920000D01*
X28620000Y-13270000D02*
X31380000Y-13270000D01*
X28620000Y-15920000D02*
X31380000Y-15920000D01*
X31380000Y-13270000D02*
X31380000Y-15920000D01*
%TO.C,Y1*%
X20490000Y-32140000D02*
X20490000Y-35860000D01*
X20490000Y-35860000D02*
X26360000Y-35860000D01*
X26360000Y-32140000D02*
X20490000Y-32140000D01*
%TO.C,R10*%
X18120000Y-32653641D02*
X18120000Y-32346359D01*
X18880000Y-32653641D02*
X18880000Y-32346359D01*
%TO.C,J6*%
X60620000Y-45620000D02*
X62000000Y-45620000D01*
X60620000Y-47000000D02*
X60620000Y-45620000D01*
X60620000Y-48270000D02*
X60620000Y-58540000D01*
X60620000Y-48270000D02*
X63380000Y-48270000D01*
X60620000Y-58540000D02*
X63380000Y-58540000D01*
X63380000Y-48270000D02*
X63380000Y-58540000D01*
%TO.C,R12*%
X18762742Y-13477500D02*
X19237258Y-13477500D01*
X18762742Y-14522500D02*
X19237258Y-14522500D01*
%TO.C,C1*%
X17141748Y-38686000D02*
X18564252Y-38686000D01*
X17141748Y-41406000D02*
X18564252Y-41406000D01*
%TO.C,C13*%
X37619420Y-39309000D02*
X37900580Y-39309000D01*
X37619420Y-40329000D02*
X37900580Y-40329000D01*
%TO.C,U1*%
X29890000Y-24890000D02*
X30840000Y-24890000D01*
X29890000Y-25840000D02*
X29890000Y-24890000D01*
X29890000Y-35110000D02*
X29890000Y-34160000D01*
X30840000Y-35110000D02*
X29890000Y-35110000D01*
X39160000Y-24890000D02*
X40110000Y-24890000D01*
X40110000Y-24890000D02*
X40110000Y-25840000D01*
X40110000Y-34160000D02*
X40110000Y-35110000D01*
X40110000Y-35110000D02*
X39160000Y-35110000D01*
X29250000Y-25840000D02*
X28910000Y-25370000D01*
X29590000Y-25370000D01*
X29250000Y-25840000D01*
G36*
X29250000Y-25840000D02*
G01*
X28910000Y-25370000D01*
X29590000Y-25370000D01*
X29250000Y-25840000D01*
G37*
%TO.C,J7*%
X69620000Y-49380000D02*
X69620000Y-48000000D01*
X71000000Y-49380000D02*
X69620000Y-49380000D01*
X72270000Y-46620000D02*
X74920000Y-46620000D01*
X72270000Y-49380000D02*
X72270000Y-46620000D01*
X72270000Y-49380000D02*
X74920000Y-49380000D01*
X74920000Y-49380000D02*
X74920000Y-46620000D01*
%TO.C,C21*%
X45971164Y-33681000D02*
X46186836Y-33681000D01*
X45971164Y-34401000D02*
X46186836Y-34401000D01*
%TO.C,C27*%
X49611252Y-57265000D02*
X49088748Y-57265000D01*
X49611252Y-58735000D02*
X49088748Y-58735000D01*
%TO.C,R9*%
X18120000Y-29153641D02*
X18120000Y-28846359D01*
X18880000Y-29153641D02*
X18880000Y-28846359D01*
%TO.C,C20*%
X44735000Y-31599164D02*
X44735000Y-31814836D01*
X45455000Y-31599164D02*
X45455000Y-31814836D01*
%TO.C,C18*%
X33071164Y-40784000D02*
X33286836Y-40784000D01*
X33071164Y-41504000D02*
X33286836Y-41504000D01*
%TO.C,Q1*%
X50240000Y-49940000D02*
X51760000Y-49940000D01*
X50240000Y-49990000D02*
X50240000Y-49940000D01*
X50240000Y-51890000D02*
X50240000Y-51110000D01*
X50240000Y-53060000D02*
X50240000Y-53010000D01*
X51760000Y-49940000D02*
X51760000Y-50940000D01*
X51760000Y-52060000D02*
X51760000Y-53060000D01*
X51760000Y-53060000D02*
X50240000Y-53060000D01*
X49700000Y-51120000D02*
X49940000Y-51450000D01*
X49460000Y-51450000D01*
X49700000Y-51120000D01*
G36*
X49940000Y-51450000D02*
G01*
X49460000Y-51450000D01*
X49700000Y-51120000D01*
X49940000Y-51450000D01*
G37*
%TO.C,R8*%
X56120000Y-32346359D02*
X56120000Y-32653641D01*
X56880000Y-32346359D02*
X56880000Y-32653641D01*
%TO.C,R6*%
X53653641Y-27120000D02*
X53346359Y-27120000D01*
X53653641Y-27880000D02*
X53346359Y-27880000D01*
%TO.C,C3*%
X14459836Y-39679000D02*
X14244164Y-39679000D01*
X14459836Y-40399000D02*
X14244164Y-40399000D01*
%TD*%
%LPC*%
D12*
%TO.C,D2*%
X49350000Y-54800000D03*
X52650000Y-54800000D03*
%TD*%
D13*
%TO.C,R16*%
X20740000Y-41850000D03*
X21760000Y-41850000D03*
%TD*%
D14*
%TO.C,R5*%
X54010000Y-29500000D03*
X52990000Y-29500000D03*
%TD*%
D15*
%TO.C,J9*%
X43000000Y-7000000D03*
D16*
X45540000Y-7000000D03*
X48080000Y-7000000D03*
X50620000Y-7000000D03*
X53160000Y-7000000D03*
X55700000Y-7000000D03*
X58240000Y-7000000D03*
X60780000Y-7000000D03*
X63320000Y-7000000D03*
X65860000Y-7000000D03*
X68400000Y-7000000D03*
X70940000Y-7000000D03*
X73480000Y-7000000D03*
X76020000Y-7000000D03*
%TD*%
D17*
%TO.C,MH1*%
X24750000Y-14750000D03*
%TD*%
D18*
%TO.C,L2*%
X11600000Y-8000000D03*
X14400000Y-8000000D03*
%TD*%
D19*
%TO.C,R4*%
X26642000Y-27303000D03*
X26642000Y-28323000D03*
%TD*%
D20*
%TO.C,C26*%
X6050000Y-14000000D03*
X7950000Y-14000000D03*
%TD*%
D13*
%TO.C,R3*%
X47913000Y-43527000D03*
X48933000Y-43527000D03*
%TD*%
%TO.C,R11*%
X9490000Y-51000000D03*
X10510000Y-51000000D03*
%TD*%
%TO.C,R17*%
X22640000Y-41700000D03*
X23660000Y-41700000D03*
%TD*%
D20*
%TO.C,C15*%
X47553000Y-40243000D03*
X49453000Y-40243000D03*
%TD*%
D21*
%TO.C,R1*%
X22277000Y-49136000D03*
X22277000Y-48116000D03*
%TD*%
D22*
%TO.C,C8*%
X44379000Y-41446000D03*
X45339000Y-41446000D03*
%TD*%
%TO.C,C16*%
X47182000Y-37819000D03*
X48142000Y-37819000D03*
%TD*%
%TO.C,C22*%
X18020000Y-26000000D03*
X18980000Y-26000000D03*
%TD*%
%TO.C,C6*%
X44491000Y-43260000D03*
X45451000Y-43260000D03*
%TD*%
D15*
%TO.C,J1*%
X6000000Y-30000000D03*
D16*
X8540000Y-30000000D03*
%TD*%
D15*
%TO.C,J10*%
X55000000Y-58000000D03*
D16*
X57540000Y-58000000D03*
%TD*%
D22*
%TO.C,C7*%
X44708000Y-35851000D03*
X45668000Y-35851000D03*
%TD*%
D13*
%TO.C,R14*%
X46490000Y-51000000D03*
X47510000Y-51000000D03*
%TD*%
D19*
%TO.C,R7*%
X56500000Y-34990000D03*
X56500000Y-36010000D03*
%TD*%
D23*
%TO.C,J3*%
X69640000Y-33600000D03*
D24*
X69640000Y-26400000D03*
D25*
X68980000Y-32750000D03*
X68980000Y-32250000D03*
X68980000Y-31750000D03*
X68980000Y-31250000D03*
X68980000Y-30750000D03*
X68980000Y-30250000D03*
X68980000Y-29750000D03*
X68980000Y-29250000D03*
X68980000Y-28750000D03*
X68980000Y-28250000D03*
X68980000Y-27750000D03*
X68980000Y-27250000D03*
D23*
X70290000Y-27200000D03*
X70990000Y-27600000D03*
X70990000Y-28400000D03*
X70290000Y-28800000D03*
X70990000Y-29200000D03*
X70290000Y-29600000D03*
X70290000Y-30400000D03*
X70990000Y-30800000D03*
X70290000Y-31200000D03*
X70990000Y-31600000D03*
X70990000Y-32400000D03*
X70290000Y-32800000D03*
D26*
X76840000Y-34490000D03*
X70890000Y-34130000D03*
X70890000Y-25870000D03*
X76840000Y-25510000D03*
%TD*%
D20*
%TO.C,C25*%
X18050000Y-8000000D03*
X19950000Y-8000000D03*
%TD*%
D22*
%TO.C,C9*%
X38087000Y-41899000D03*
X39047000Y-41899000D03*
%TD*%
D15*
%TO.C,J5*%
X40000000Y-47000000D03*
D16*
X40000000Y-49540000D03*
X40000000Y-52080000D03*
X40000000Y-54620000D03*
X40000000Y-57160000D03*
%TD*%
D27*
%TO.C,C12*%
X24537000Y-26506000D03*
X24537000Y-28056000D03*
%TD*%
D20*
%TO.C,C2*%
X24414000Y-48823000D03*
X26314000Y-48823000D03*
%TD*%
D28*
%TO.C,R13*%
X18175000Y-18500000D03*
X19825000Y-18500000D03*
%TD*%
D17*
%TO.C,MH3*%
X24750000Y-45250000D03*
%TD*%
D29*
%TO.C,C19*%
X44731000Y-28492000D03*
X44731000Y-29452000D03*
%TD*%
D30*
%TO.C,U2*%
X11525000Y-43095000D03*
X11525000Y-44365000D03*
X11525000Y-45635000D03*
X11525000Y-46905000D03*
X16475000Y-46905000D03*
X16475000Y-45635000D03*
X16475000Y-44365000D03*
X16475000Y-43095000D03*
D31*
X14000000Y-45000000D03*
%TD*%
D32*
%TO.C,U5*%
X63862500Y-23050000D03*
X63862500Y-24000000D03*
X63862500Y-24950000D03*
X66137500Y-24950000D03*
X66137500Y-24000000D03*
X66137500Y-23050000D03*
%TD*%
D13*
%TO.C,R2*%
X26490000Y-40000000D03*
X27510000Y-40000000D03*
%TD*%
D15*
%TO.C,J4*%
X30000000Y-47000000D03*
D16*
X30000000Y-49540000D03*
X30000000Y-52080000D03*
X30000000Y-54620000D03*
%TD*%
D22*
%TO.C,C10*%
X44455000Y-39573000D03*
X45415000Y-39573000D03*
%TD*%
D33*
%TO.C,C11*%
X26363000Y-30423000D03*
X24813000Y-30423000D03*
%TD*%
D22*
%TO.C,C17*%
X32639000Y-39216000D03*
X33599000Y-39216000D03*
%TD*%
%TO.C,C23*%
X13020000Y-51000000D03*
X13980000Y-51000000D03*
%TD*%
D34*
%TO.C,U4*%
X46050000Y-20750000D03*
X46050000Y-21250000D03*
X46050000Y-21750000D03*
X46050000Y-22250000D03*
X46050000Y-22750000D03*
X46050000Y-23250000D03*
D35*
X46750000Y-23950000D03*
X47250000Y-23950000D03*
X47750000Y-23950000D03*
X48250000Y-23950000D03*
X48750000Y-23950000D03*
X49250000Y-23950000D03*
D34*
X49950000Y-23250000D03*
X49950000Y-22750000D03*
X49950000Y-22250000D03*
X49950000Y-21750000D03*
X49950000Y-21250000D03*
X49950000Y-20750000D03*
D35*
X49250000Y-20050000D03*
X48750000Y-20050000D03*
X48250000Y-20050000D03*
X47750000Y-20050000D03*
X47250000Y-20050000D03*
X46750000Y-20050000D03*
%TD*%
D15*
%TO.C,J8*%
X71500000Y-56000000D03*
D16*
X74040000Y-56000000D03*
X76580000Y-56000000D03*
%TD*%
D22*
%TO.C,C14*%
X44458000Y-37736000D03*
X45418000Y-37736000D03*
%TD*%
D32*
%TO.C,U6*%
X5862500Y-7050000D03*
X5862500Y-8000000D03*
X5862500Y-8950000D03*
X8137500Y-8950000D03*
X8137500Y-8000000D03*
X8137500Y-7050000D03*
%TD*%
D36*
%TO.C,L1*%
X20100000Y-43300000D03*
X20100000Y-46100000D03*
%TD*%
D13*
%TO.C,R15*%
X46490000Y-54500000D03*
X47510000Y-54500000D03*
%TD*%
D37*
%TO.C,D1*%
X11000000Y-14000000D03*
X15000000Y-14000000D03*
%TD*%
D22*
%TO.C,C24*%
X16020000Y-51000000D03*
X16980000Y-51000000D03*
%TD*%
D15*
%TO.C,J2*%
X30000000Y-12000000D03*
D16*
X30000000Y-14540000D03*
%TD*%
D38*
%TO.C,Y1*%
X21750000Y-34000000D03*
X25450000Y-34000000D03*
%TD*%
D21*
%TO.C,R10*%
X18500000Y-33010000D03*
X18500000Y-31990000D03*
%TD*%
D15*
%TO.C,J6*%
X62000000Y-47000000D03*
D16*
X62000000Y-49540000D03*
X62000000Y-52080000D03*
X62000000Y-54620000D03*
X62000000Y-57160000D03*
%TD*%
D28*
%TO.C,R12*%
X18175000Y-14000000D03*
X19825000Y-14000000D03*
%TD*%
D39*
%TO.C,C1*%
X16378000Y-40046000D03*
X19328000Y-40046000D03*
%TD*%
D40*
%TO.C,C13*%
X36985000Y-39819000D03*
X38535000Y-39819000D03*
%TD*%
D41*
%TO.C,U1*%
X29325000Y-26250000D03*
X29325000Y-26750000D03*
X29325000Y-27250000D03*
X29325000Y-27750000D03*
X29325000Y-28250000D03*
X29325000Y-28750000D03*
X29325000Y-29250000D03*
X29325000Y-29750000D03*
X29325000Y-30250000D03*
X29325000Y-30750000D03*
X29325000Y-31250000D03*
X29325000Y-31750000D03*
X29325000Y-32250000D03*
X29325000Y-32750000D03*
X29325000Y-33250000D03*
X29325000Y-33750000D03*
D42*
X31250000Y-35675000D03*
X31750000Y-35675000D03*
X32250000Y-35675000D03*
X32750000Y-35675000D03*
X33250000Y-35675000D03*
X33750000Y-35675000D03*
X34250000Y-35675000D03*
X34750000Y-35675000D03*
X35250000Y-35675000D03*
X35750000Y-35675000D03*
X36250000Y-35675000D03*
X36750000Y-35675000D03*
X37250000Y-35675000D03*
X37750000Y-35675000D03*
X38250000Y-35675000D03*
X38750000Y-35675000D03*
D41*
X40675000Y-33750000D03*
X40675000Y-33250000D03*
X40675000Y-32750000D03*
X40675000Y-32250000D03*
X40675000Y-31750000D03*
X40675000Y-31250000D03*
X40675000Y-30750000D03*
X40675000Y-30250000D03*
X40675000Y-29750000D03*
X40675000Y-29250000D03*
X40675000Y-28750000D03*
X40675000Y-28250000D03*
X40675000Y-27750000D03*
X40675000Y-27250000D03*
X40675000Y-26750000D03*
X40675000Y-26250000D03*
D42*
X38750000Y-24325000D03*
X38250000Y-24325000D03*
X37750000Y-24325000D03*
X37250000Y-24325000D03*
X36750000Y-24325000D03*
X36250000Y-24325000D03*
X35750000Y-24325000D03*
X35250000Y-24325000D03*
X34750000Y-24325000D03*
X34250000Y-24325000D03*
X33750000Y-24325000D03*
X33250000Y-24325000D03*
X32750000Y-24325000D03*
X32250000Y-24325000D03*
X31750000Y-24325000D03*
X31250000Y-24325000D03*
%TD*%
D15*
%TO.C,J7*%
X71000000Y-48000000D03*
D16*
X73540000Y-48000000D03*
%TD*%
D22*
%TO.C,C21*%
X45599000Y-34041000D03*
X46559000Y-34041000D03*
%TD*%
D43*
%TO.C,C27*%
X50300000Y-58000000D03*
X48400000Y-58000000D03*
%TD*%
D21*
%TO.C,R9*%
X18500000Y-29510000D03*
X18500000Y-28490000D03*
%TD*%
D17*
%TO.C,MH2*%
X55250000Y-14750000D03*
%TD*%
D29*
%TO.C,C20*%
X45095000Y-31227000D03*
X45095000Y-32187000D03*
%TD*%
D22*
%TO.C,C18*%
X32699000Y-41144000D03*
X33659000Y-41144000D03*
%TD*%
D44*
%TO.C,Q1*%
X50062500Y-50550000D03*
X50062500Y-52450000D03*
X51937500Y-51500000D03*
%TD*%
D19*
%TO.C,R8*%
X56500000Y-31990000D03*
X56500000Y-33010000D03*
%TD*%
D14*
%TO.C,R6*%
X54010000Y-27500000D03*
X52990000Y-27500000D03*
%TD*%
D17*
%TO.C,MH4*%
X55250000Y-45250000D03*
%TD*%
D45*
%TO.C,C3*%
X14832000Y-40039000D03*
X13872000Y-40039000D03*
%TD*%
%LPD*%
M02*
