%TF.GenerationSoftware,KiCad,Pcbnew,10.0.5*%
%TF.CreationDate,2026-08-18T16:33:31-04:00*%
%TF.ProjectId,bench_board,62656e63-685f-4626-9f61-72642e6b6963,rev?*%
%TF.SameCoordinates,Original*%
%TF.FileFunction,Copper,L2,Inr*%
%TF.FilePolarity,Positive*%
%FSLAX46Y46*%
G04 Gerber Fmt 4.6, Leading zero omitted, Abs format (unit mm)*
G04 Created by KiCad (PCBNEW 10.0.5) date 2026-08-18 16:33:31*
%MOMM*%
%LPD*%
G01*
G04 APERTURE LIST*
%TA.AperFunction,ComponentPad*%
%ADD10R,1.700000X1.700000*%
%TD*%
%TA.AperFunction,ComponentPad*%
%ADD11C,1.700000*%
%TD*%
%TA.AperFunction,ComponentPad*%
%ADD12C,0.650000*%
%TD*%
%TA.AperFunction,ComponentPad*%
%ADD13O,1.400000X0.800000*%
%TD*%
%TA.AperFunction,ViaPad*%
%ADD14C,0.800000*%
%TD*%
%TA.AperFunction,ViaPad*%
%ADD15C,0.600000*%
%TD*%
%TA.AperFunction,ViaPad*%
%ADD16C,0.300000*%
%TD*%
%TA.AperFunction,ViaPad*%
%ADD17C,0.500000*%
%TD*%
%TA.AperFunction,Conductor*%
%ADD18C,0.600000*%
%TD*%
%TA.AperFunction,Conductor*%
%ADD19C,0.200000*%
%TD*%
G04 APERTURE END LIST*
D10*
%TO.N,/3V3*%
%TO.C,J9*%
X43000000Y-7000000D03*
D11*
%TO.N,/GND*%
X45540000Y-7000000D03*
%TO.N,/EXP_I2C_SCL*%
X48080000Y-7000000D03*
%TO.N,/EXP_I2C_SDA*%
X50620000Y-7000000D03*
%TO.N,/EXP_SPI_SCK*%
X53160000Y-7000000D03*
%TO.N,/EXP_SPI_MOSI*%
X55700000Y-7000000D03*
%TO.N,/EXP_SPI_MISO*%
X58240000Y-7000000D03*
%TO.N,/EXP_SPI_CS1*%
X60780000Y-7000000D03*
%TO.N,/EXP_SPI_CS2*%
X63320000Y-7000000D03*
%TO.N,/EXP_UART_RX*%
X65860000Y-7000000D03*
%TO.N,/EXP_IRQ1*%
X68400000Y-7000000D03*
%TO.N,/EXP_IRQ2*%
X70940000Y-7000000D03*
%TO.N,/5V_RX*%
X73480000Y-7000000D03*
%TO.N,/GND*%
X76020000Y-7000000D03*
%TD*%
D10*
%TO.N,/VBAT_4S*%
%TO.C,J1*%
X6000000Y-30000000D03*
D11*
%TO.N,/GND*%
X8540000Y-30000000D03*
%TD*%
D10*
%TO.N,/5V_RX*%
%TO.C,J10*%
X55000000Y-58000000D03*
D11*
%TO.N,/BUZZER_SW*%
X57540000Y-58000000D03*
%TD*%
D12*
%TO.N,/GND*%
%TO.C,J3*%
X70290000Y-27200000D03*
%TO.N,N/C*%
X70990000Y-27600000D03*
X70990000Y-28400000D03*
%TO.N,/USB_VBUS*%
X70290000Y-28800000D03*
%TO.N,/CC2*%
X70990000Y-29200000D03*
%TO.N,/USB_DP*%
X70290000Y-29600000D03*
%TO.N,/USB_DM*%
X70290000Y-30400000D03*
%TO.N,N/C*%
X70990000Y-30800000D03*
%TO.N,/USB_VBUS*%
X70290000Y-31200000D03*
%TO.N,N/C*%
X70990000Y-31600000D03*
X70990000Y-32400000D03*
%TO.N,/GND*%
X70290000Y-32800000D03*
D13*
X76840000Y-34490000D03*
X70890000Y-34130000D03*
X70890000Y-25870000D03*
X76840000Y-25510000D03*
%TD*%
D10*
%TO.N,/M1*%
%TO.C,J5*%
X40000000Y-47000000D03*
D11*
%TO.N,/M2*%
X40000000Y-49540000D03*
%TO.N,/M3*%
X40000000Y-52080000D03*
%TO.N,/M4*%
X40000000Y-54620000D03*
%TO.N,/GND*%
X40000000Y-57160000D03*
%TD*%
D10*
%TO.N,/3V3*%
%TO.C,J4*%
X30000000Y-47000000D03*
D11*
%TO.N,/GND*%
X30000000Y-49540000D03*
%TO.N,/CRSF_TX*%
X30000000Y-52080000D03*
%TO.N,/CRSF_RX*%
X30000000Y-54620000D03*
%TD*%
D10*
%TO.N,/TELEM_TX*%
%TO.C,J8*%
X71500000Y-56000000D03*
D11*
%TO.N,/GND*%
X74040000Y-56000000D03*
%TO.N,/3V3*%
X76580000Y-56000000D03*
%TD*%
D10*
%TO.N,/BOOT0*%
%TO.C,J2*%
X30000000Y-12000000D03*
D11*
%TO.N,/3V3*%
X30000000Y-14540000D03*
%TD*%
D10*
%TO.N,/3V3*%
%TO.C,J6*%
X62000000Y-47000000D03*
D11*
%TO.N,/SWDIO*%
X62000000Y-49540000D03*
%TO.N,/SWCLK*%
X62000000Y-52080000D03*
%TO.N,/NRST*%
X62000000Y-54620000D03*
%TO.N,/GND*%
X62000000Y-57160000D03*
%TD*%
D10*
%TO.N,/5V_RX*%
%TO.C,J7*%
X71000000Y-48000000D03*
D11*
%TO.N,/GND*%
X73540000Y-48000000D03*
%TD*%
D14*
%TO.N,/5V_RX*%
X5024100Y-15025900D03*
X18175000Y-15172800D03*
%TO.N,/VBAT_4S*%
X9944600Y-43895800D03*
X17796800Y-30213200D03*
D15*
%TO.N,/EN_UVLO*%
X21760000Y-42100000D03*
X18150000Y-44150000D03*
%TO.N,/USB_DM*%
X63763600Y-29849500D03*
X54591700Y-30081700D03*
X66911200Y-22276300D03*
%TO.N,/USB_DM_MCU*%
X41902600Y-28521100D03*
X52406600Y-30083400D03*
D16*
%TO.N,/3V3*%
X50825000Y-22950000D03*
D17*
X51630000Y-24650000D03*
X30530000Y-32250000D03*
D15*
X44370200Y-42280500D03*
D17*
X25800000Y-24280000D03*
X31750000Y-33580000D03*
D15*
X22200000Y-46100000D03*
X13273800Y-6103300D03*
D16*
X32250000Y-35975000D03*
D15*
X23600000Y-49136000D03*
X42392700Y-36757000D03*
D16*
X29025000Y-32250000D03*
X27900000Y-26375000D03*
D14*
X17205800Y-9176200D03*
D17*
%TO.N,/GND*%
X27430000Y-33350000D03*
X30450000Y-22730000D03*
D16*
X48750000Y-24450000D03*
D15*
X47800000Y-57400000D03*
D14*
X20916300Y-8966300D03*
X34589500Y-41466400D03*
X7914200Y-12612000D03*
D15*
X50826700Y-20384000D03*
D14*
X22178000Y-30423000D03*
D15*
X50062500Y-53600000D03*
D16*
X31750000Y-24025000D03*
D14*
X15554600Y-47986900D03*
X19825000Y-19641000D03*
X53806500Y-37553800D03*
X62527000Y-24149200D03*
D16*
X29025000Y-31750000D03*
D14*
X45752800Y-29452000D03*
X24943100Y-40861000D03*
X40740800Y-43592700D03*
D16*
X31750000Y-35825000D03*
D15*
%TO.N,/EXP_I2C_SCL*%
X37250000Y-34437000D03*
%TO.N,/EXP_I2C_SDA*%
X38173500Y-34445900D03*
%TO.N,/EXP_SPI_SCK*%
X43356800Y-33150500D03*
%TO.N,/EXP_SPI_MOSI*%
X43210300Y-31833300D03*
%TO.N,/EXP_SPI_MISO*%
X44453500Y-30720200D03*
%TO.N,/EXP_SPI_CS1*%
X28032500Y-32064100D03*
%TO.N,/EXP_SPI_CS2*%
X31757900Y-30163300D03*
%TO.N,/EXP_UART_RX*%
X37250000Y-23069400D03*
%TO.N,/EXP_IRQ1*%
X30571000Y-30671000D03*
%TO.N,/EXP_IRQ2*%
X34417800Y-30981000D03*
D14*
%TO.N,/BOOST_SW*%
X12831600Y-12168400D03*
X5862500Y-6042100D03*
D15*
%TO.N,/BOOT0*%
X33708600Y-25862500D03*
X26642000Y-26571700D03*
%TO.N,/NRST*%
X39094000Y-30383500D03*
X46399100Y-37474800D03*
%TO.N,/COMP_NODE*%
X17812100Y-44965800D03*
X10282500Y-50207500D03*
%TO.N,/VFB*%
X19207600Y-47542000D03*
X25899200Y-39409200D03*
%TO.N,/VBAT_SENSE*%
X19325000Y-29282100D03*
X28118800Y-34066000D03*
X18500000Y-33734300D03*
%TO.N,/BUZZER_GPIO*%
X42175000Y-29600000D03*
X45500000Y-51000000D03*
%TO.N,/CC1*%
X68169400Y-30849500D03*
X57084800Y-34405200D03*
%TO.N,/USB_VBUS*%
X68605100Y-25129300D03*
%TO.N,/USB_DP*%
X66910600Y-25723100D03*
%TO.N,/CC2*%
X57290500Y-31991100D03*
%TO.N,/M1*%
X34251100Y-23086100D03*
X35934200Y-26063100D03*
%TO.N,/M2*%
X37545400Y-26315400D03*
%TO.N,/M3*%
X32751100Y-23097000D03*
%TO.N,/M4*%
X32938200Y-26002300D03*
%TO.N,/VCAP2*%
X25471800Y-26506000D03*
X37023200Y-26856300D03*
%TO.N,/VFB_5V*%
X6617100Y-9704600D03*
X19110200Y-13285200D03*
%TO.N,/SW_NODE*%
X14356500Y-40790800D03*
D14*
X9905600Y-45635000D03*
D15*
X20300000Y-43102500D03*
%TO.N,/SS_NODE*%
X15446100Y-51573900D03*
X14567600Y-41964200D03*
%TO.N,/CRSF_TX*%
X37199500Y-29673100D03*
%TO.N,/CRSF_RX*%
X37240300Y-28921300D03*
%TO.N,/VCAP1*%
X37681800Y-37784600D03*
X29530400Y-34373300D03*
X26898500Y-31396600D03*
%TO.N,/HSE_IN*%
X23115300Y-35335100D03*
X31053300Y-38820700D03*
X26758300Y-29383400D03*
%TO.N,/SPI1_CS*%
X32750000Y-34428400D03*
X46769000Y-24841600D03*
%TO.N,/SPI1_MISO*%
X46803100Y-25605400D03*
X33750000Y-34441600D03*
%TO.N,/MPU_INT*%
X49249900Y-24883400D03*
X34748400Y-34443600D03*
%TO.N,/MPU_CPOUT*%
X48750000Y-19169600D03*
X45681800Y-30640200D03*
%TO.N,/SPI1_SCK*%
X33250000Y-36919300D03*
X47249900Y-19161300D03*
%TO.N,/SPI1_MOSI*%
X34250000Y-36910300D03*
X42812200Y-25011700D03*
X46157300Y-19457300D03*
%TO.N,/TELEM_TX*%
X44839100Y-24406100D03*
%TO.N,/SWDIO*%
X42410300Y-27174700D03*
%TO.N,/SWCLK*%
X39379400Y-24386000D03*
%TO.N,/USB_DP_MCU*%
X41908000Y-27750000D03*
X52260100Y-27176000D03*
%TD*%
%TO.N,/5V_RX*%
D18*
X71000000Y-46648300D02*
X72290200Y-45358100D01*
X72290200Y-8189800D02*
X73480000Y-7000000D01*
X71000000Y-48000000D02*
X71000000Y-46648300D01*
X72290200Y-45358100D02*
X72290200Y-8189800D01*
%TO.N,/VBAT_4S*%
X9944600Y-43895800D02*
X6000000Y-39951200D01*
X6000000Y-39951200D02*
X6000000Y-30000000D01*
%TO.N,/USB_DM*%
D19*
X67959900Y-29849500D02*
X63763600Y-29849500D01*
X68510400Y-30400000D02*
X67959900Y-29849500D01*
X66911200Y-22276300D02*
X63763600Y-25423900D01*
X63763600Y-25423900D02*
X63763600Y-29849500D01*
X70290000Y-30400000D02*
X68510400Y-30400000D01*
%TO.N,/EXP_I2C_SCL*%
X38525100Y-33161900D02*
X37250000Y-34437000D01*
X48080000Y-7000000D02*
X38525100Y-16554900D01*
X38525100Y-16554900D02*
X38525100Y-33161900D01*
%TO.N,/EXP_SPI_SCK*%
X40942200Y-30735900D02*
X40942200Y-19217800D01*
X40942200Y-19217800D02*
X53160000Y-7000000D01*
X43356800Y-33150500D02*
X40942200Y-30735900D01*
%TO.N,/EXP_SPI_MOSI*%
X41341200Y-29964200D02*
X41341200Y-21358800D01*
X43210300Y-31833300D02*
X41341200Y-29964200D01*
X41341200Y-21358800D02*
X55700000Y-7000000D01*
%TO.N,/EXP_SPI_MISO*%
X58240000Y-7000000D02*
X58240000Y-10521300D01*
X44908500Y-23852800D02*
X44610700Y-23852800D01*
X44287400Y-24176100D02*
X44287400Y-30554100D01*
X51000000Y-17761300D02*
X44908500Y-23852800D01*
X54000000Y-10000000D02*
X51000000Y-17761300D01*
X58240000Y-10521300D02*
X58000000Y-10781300D01*
X44287400Y-30554100D02*
X44453500Y-30720200D01*
X58000000Y-10781300D02*
X54000000Y-10000000D01*
X44610700Y-23852800D02*
X44287400Y-24176100D01*
%TO.N,/EXP_SPI_CS1*%
X28663800Y-31432800D02*
X28032500Y-32064100D01*
X46842800Y-7355600D02*
X28663800Y-25534600D01*
X46842800Y-6628700D02*
X46842800Y-7355600D01*
X47591900Y-5879600D02*
X46842800Y-6628700D01*
X59659600Y-5879600D02*
X47591900Y-5879600D01*
X60780000Y-7000000D02*
X59659600Y-5879600D01*
X28663800Y-25534600D02*
X28663800Y-31432800D01*
%TO.N,/BOOST_SW*%
D18*
X6705300Y-6042100D02*
X5862500Y-6042100D01*
X12831600Y-12168400D02*
X6705300Y-6042100D01*
%TO.N,/BOOT0*%
D19*
X30000000Y-13101700D02*
X29724600Y-13101700D01*
X29724600Y-13101700D02*
X26642000Y-16184300D01*
X30000000Y-12000000D02*
X30000000Y-13101700D01*
X26642000Y-16184300D02*
X26642000Y-26571700D01*
%TO.N,/NRST*%
X39307900Y-30383600D02*
X39094000Y-30383600D01*
X46399100Y-37474800D02*
X39307900Y-30383600D01*
X39094000Y-30383600D02*
X39094000Y-30383500D01*
%TO.N,/VFB*%
X19207600Y-47542000D02*
X19207600Y-45541200D01*
X19207600Y-45541200D02*
X25339600Y-39409200D01*
X25339600Y-39409200D02*
X25899200Y-39409200D01*
%TO.N,/VBAT_SENSE*%
X19325000Y-32909300D02*
X18500000Y-33734300D01*
X19325000Y-29282100D02*
X19325000Y-32909300D01*
%TO.N,/USB_VBUS*%
X68605100Y-27115100D02*
X68605100Y-25129300D01*
X70290000Y-28800000D02*
X68605100Y-27115100D01*
%TO.N,/USB_DP*%
X66910600Y-26341200D02*
X70169400Y-29600000D01*
X66910600Y-25723100D02*
X66910600Y-26341200D01*
X70169400Y-29600000D02*
X70290000Y-29600000D01*
%TO.N,/M1*%
X35934200Y-47073800D02*
X39515700Y-50655300D01*
X40505600Y-50655300D02*
X41101700Y-50059200D01*
X35934200Y-26063100D02*
X35934200Y-47073800D01*
X40137800Y-48101700D02*
X40000000Y-48101700D01*
X39515700Y-50655300D02*
X40505600Y-50655300D01*
X40000000Y-47000000D02*
X40000000Y-48101700D01*
X41101700Y-49065600D02*
X40137800Y-48101700D01*
X41101700Y-50059200D02*
X41101700Y-49065600D01*
%TO.N,/M2*%
X40000000Y-49540000D02*
X36673400Y-46213400D01*
X36673400Y-32891900D02*
X37798700Y-31766600D01*
X37798700Y-31766600D02*
X37798700Y-26568700D01*
X37798700Y-26568700D02*
X37545400Y-26315400D01*
X36673400Y-46213400D02*
X36673400Y-32891900D01*
%TO.N,/M3*%
X35543700Y-47623700D02*
X40000000Y-52080000D01*
X32751100Y-23097000D02*
X32751100Y-23660100D01*
X35543700Y-26452700D02*
X35543700Y-47623700D01*
X32751100Y-23660100D02*
X35543700Y-26452700D01*
%TO.N,/M4*%
X32938200Y-26002300D02*
X31190100Y-27750400D01*
X33403100Y-39468600D02*
X33403100Y-48023100D01*
X31190100Y-37255600D02*
X33403100Y-39468600D01*
X31190100Y-27750400D02*
X31190100Y-37255600D01*
X33403100Y-48023100D02*
X40000000Y-54620000D01*
%TO.N,/SW_NODE*%
D18*
X9905600Y-45635000D02*
X9905600Y-45241700D01*
X9905600Y-45241700D02*
X14356500Y-40790800D01*
%TO.N,/SS_NODE*%
D19*
X14567600Y-50695400D02*
X15446100Y-51573900D01*
X14567600Y-41964200D02*
X14567600Y-50695400D01*
%TO.N,/CRSF_RX*%
X33623900Y-23239200D02*
X33623900Y-23163600D01*
X36485900Y-26291600D02*
X36485900Y-25834600D01*
X32464600Y-22496000D02*
X29957600Y-25003000D01*
X35896100Y-25511400D02*
X33623900Y-23239200D01*
X29957600Y-34020300D02*
X30082100Y-34144800D01*
X36162700Y-25511400D02*
X35896100Y-25511400D01*
X33623900Y-23163600D02*
X32956300Y-22496000D01*
X30082100Y-34144800D02*
X30082100Y-36753500D01*
X32484400Y-39155800D02*
X32484400Y-39716300D01*
X32484400Y-39716300D02*
X31439800Y-40760900D01*
X29957600Y-25003000D02*
X29957600Y-34020300D01*
X31439800Y-53180200D02*
X30000000Y-54620000D01*
X30082100Y-36753500D02*
X32484400Y-39155800D01*
X36404500Y-26373000D02*
X36485900Y-26291600D01*
X36404500Y-28085500D02*
X36404500Y-26373000D01*
X32956300Y-22496000D02*
X32464600Y-22496000D01*
X37240300Y-28921300D02*
X36404500Y-28085500D01*
X31439800Y-40760900D02*
X31439800Y-53180200D01*
X36485900Y-25834600D02*
X36162700Y-25511400D01*
%TO.N,/VCAP1*%
X26898500Y-31741400D02*
X26898500Y-31396600D01*
X29530400Y-34373300D02*
X26898500Y-31741400D01*
%TO.N,/HSE_IN*%
X23115300Y-33026400D02*
X23115300Y-35335100D01*
X26758300Y-29383400D02*
X23115300Y-33026400D01*
%TO.N,/SPI1_MOSI*%
X42812200Y-25011700D02*
X46157300Y-21666600D01*
X46157300Y-21666600D02*
X46157300Y-19457300D01*
%TO.N,/TELEM_TX*%
X44839100Y-24406100D02*
X44839100Y-24536100D01*
X71500000Y-51197000D02*
X71500000Y-56000000D01*
X44839100Y-24536100D02*
X71500000Y-51197000D01*
%TO.N,/SWDIO*%
X60000000Y-47540000D02*
X62000000Y-49540000D01*
X51000000Y-37400000D02*
X59000000Y-45400000D01*
X43885200Y-31425200D02*
X50000000Y-37540000D01*
X42410300Y-27174700D02*
X43885200Y-28649600D01*
X59000000Y-45400000D02*
X60000000Y-47540000D01*
X43885200Y-28649600D02*
X43885200Y-31425200D01*
X50000000Y-37540000D02*
X51000000Y-37400000D01*
%TO.N,/SWCLK*%
X62000000Y-52080000D02*
X60000000Y-50080000D01*
X39647000Y-30224300D02*
X39647000Y-24653600D01*
X59000000Y-52280000D02*
X50000000Y-43280000D01*
X50000000Y-43280000D02*
X49000000Y-39080000D01*
X39647000Y-24653600D02*
X39379400Y-24386000D01*
X46345800Y-36923100D02*
X39647000Y-30224300D01*
X46843100Y-36923100D02*
X46345800Y-36923100D01*
X60000000Y-50080000D02*
X59000000Y-52280000D01*
X49000000Y-39080000D02*
X46843100Y-36923100D01*
%TD*%
%TA.AperFunction,Conductor*%
%TO.N,/GND*%
G36*
X77959191Y-2018907D02*
G01*
X77995155Y-2068407D01*
X78000000Y-2099000D01*
X78000000Y-24858200D01*
X77981093Y-24916391D01*
X77931593Y-24952355D01*
X77870407Y-24952355D01*
X77830996Y-24928204D01*
X77713715Y-24810923D01*
X77566308Y-24712429D01*
X77402520Y-24644586D01*
X77228644Y-24610000D01*
X77090001Y-24610000D01*
X77090000Y-24610001D01*
X77090000Y-25260000D01*
X76589999Y-25260000D01*
X76590000Y-25259999D01*
X76590000Y-24610001D01*
X76589999Y-24610000D01*
X76451355Y-24610000D01*
X76277480Y-24644586D01*
X76277478Y-24644586D01*
X76113691Y-24712429D01*
X75966284Y-24810923D01*
X75840923Y-24936284D01*
X75742430Y-25083689D01*
X75674586Y-25247476D01*
X75672095Y-25260000D01*
X76490272Y-25260000D01*
X76398386Y-25298060D01*
X76328060Y-25368386D01*
X76290000Y-25460272D01*
X76290000Y-25559728D01*
X76328060Y-25651614D01*
X76398386Y-25721940D01*
X76490272Y-25760000D01*
X75672096Y-25760000D01*
X75674586Y-25772523D01*
X75742430Y-25936310D01*
X75840923Y-26083715D01*
X75966284Y-26209076D01*
X76113691Y-26307570D01*
X76277479Y-26375413D01*
X76451355Y-26409999D01*
X76451359Y-26410000D01*
X76589999Y-26410000D01*
X76590000Y-26409999D01*
X76590000Y-25760001D01*
X76589999Y-25760000D01*
X77090000Y-25760000D01*
X77090000Y-26409999D01*
X77090001Y-26410000D01*
X77228641Y-26410000D01*
X77228644Y-26409999D01*
X77402519Y-26375413D01*
X77402521Y-26375413D01*
X77566308Y-26307570D01*
X77713715Y-26209076D01*
X77830996Y-26091796D01*
X77885513Y-26064019D01*
X77945945Y-26073590D01*
X77989210Y-26116855D01*
X78000000Y-26161800D01*
X78000000Y-33838200D01*
X77981093Y-33896391D01*
X77931593Y-33932355D01*
X77870407Y-33932355D01*
X77830996Y-33908204D01*
X77713715Y-33790923D01*
X77566308Y-33692429D01*
X77402520Y-33624586D01*
X77228644Y-33590000D01*
X77090001Y-33590000D01*
X77090000Y-33590001D01*
X77090000Y-34240000D01*
X76589999Y-34240000D01*
X76590000Y-34239999D01*
X76590000Y-33590001D01*
X76589999Y-33590000D01*
X76451355Y-33590000D01*
X76277480Y-33624586D01*
X76277478Y-33624586D01*
X76113691Y-33692429D01*
X75966284Y-33790923D01*
X75840923Y-33916284D01*
X75742430Y-34063689D01*
X75674586Y-34227476D01*
X75672095Y-34240000D01*
X76490272Y-34240000D01*
X76398386Y-34278060D01*
X76328060Y-34348386D01*
X76290000Y-34440272D01*
X76290000Y-34539728D01*
X76328060Y-34631614D01*
X76398386Y-34701940D01*
X76490272Y-34740000D01*
X75672096Y-34740000D01*
X75674586Y-34752523D01*
X75742430Y-34916310D01*
X75840923Y-35063715D01*
X75966284Y-35189076D01*
X76113691Y-35287570D01*
X76277479Y-35355413D01*
X76451355Y-35389999D01*
X76451359Y-35390000D01*
X76589999Y-35390000D01*
X76590000Y-35389999D01*
X76590000Y-34740001D01*
X76589999Y-34740000D01*
X77090000Y-34740000D01*
X77090000Y-35389999D01*
X77090001Y-35390000D01*
X77228641Y-35390000D01*
X77228644Y-35389999D01*
X77402519Y-35355413D01*
X77402521Y-35355413D01*
X77566308Y-35287570D01*
X77713715Y-35189076D01*
X77830996Y-35071796D01*
X77885513Y-35044019D01*
X77945945Y-35053590D01*
X77989210Y-35096855D01*
X78000000Y-35141800D01*
X78000000Y-57901000D01*
X77981093Y-57959191D01*
X77931593Y-57995155D01*
X77901000Y-58000000D01*
X63248692Y-58000000D01*
X63190501Y-57981093D01*
X63154537Y-57931593D01*
X63154537Y-57870407D01*
X63160482Y-57856055D01*
X63251095Y-57678215D01*
X63316759Y-57476121D01*
X63350000Y-57266250D01*
X63350000Y-57053749D01*
X63316759Y-56843878D01*
X63251095Y-56641784D01*
X63154623Y-56452446D01*
X63154619Y-56452440D01*
X63115270Y-56398282D01*
X63115269Y-56398282D01*
X62482962Y-57030590D01*
X62465925Y-56967007D01*
X62400099Y-56852993D01*
X62307007Y-56759901D01*
X62192993Y-56694075D01*
X62129407Y-56677037D01*
X62761716Y-56044729D01*
X62761716Y-56044728D01*
X62707559Y-56005380D01*
X62707553Y-56005376D01*
X62518215Y-55908904D01*
X62427015Y-55879272D01*
X62377515Y-55843308D01*
X62358608Y-55785117D01*
X62377515Y-55726926D01*
X62427013Y-55690962D01*
X62427017Y-55690962D01*
X62427018Y-55690962D01*
X62441633Y-55686213D01*
X62441633Y-55686212D01*
X62441639Y-55686211D01*
X62602994Y-55603996D01*
X62749501Y-55497553D01*
X62877553Y-55369501D01*
X62983996Y-55222994D01*
X63066211Y-55061639D01*
X63122171Y-54889409D01*
X63136335Y-54799977D01*
X63150500Y-54710549D01*
X63150500Y-54529450D01*
X63122171Y-54350593D01*
X63122171Y-54350591D01*
X63066211Y-54178361D01*
X62983996Y-54017006D01*
X62877553Y-53870499D01*
X62749501Y-53742447D01*
X62602994Y-53636004D01*
X62602993Y-53636003D01*
X62602991Y-53636002D01*
X62441637Y-53553788D01*
X62269406Y-53497828D01*
X62090549Y-53469500D01*
X62090546Y-53469500D01*
X61909454Y-53469500D01*
X61909451Y-53469500D01*
X61730593Y-53497828D01*
X61558362Y-53553788D01*
X61397008Y-53636002D01*
X61323752Y-53689225D01*
X61250499Y-53742447D01*
X61122447Y-53870499D01*
X61069225Y-53943752D01*
X61016002Y-54017008D01*
X60933788Y-54178362D01*
X60877828Y-54350593D01*
X60849500Y-54529450D01*
X60849500Y-54710549D01*
X60877828Y-54889406D01*
X60918961Y-55016004D01*
X60933789Y-55061639D01*
X61016004Y-55222994D01*
X61122447Y-55369501D01*
X61250499Y-55497553D01*
X61397006Y-55603996D01*
X61558361Y-55686211D01*
X61569483Y-55689824D01*
X61572983Y-55690962D01*
X61622483Y-55726926D01*
X61641391Y-55785116D01*
X61622484Y-55843307D01*
X61572985Y-55879271D01*
X61572984Y-55879272D01*
X61481784Y-55908904D01*
X61292446Y-56005376D01*
X61292442Y-56005378D01*
X61238282Y-56044728D01*
X61870591Y-56677037D01*
X61807007Y-56694075D01*
X61692993Y-56759901D01*
X61599901Y-56852993D01*
X61534075Y-56967007D01*
X61517037Y-57030591D01*
X60884728Y-56398282D01*
X60845378Y-56452442D01*
X60845376Y-56452446D01*
X60748904Y-56641784D01*
X60683240Y-56843878D01*
X60650000Y-57053749D01*
X60650000Y-57266250D01*
X60683240Y-57476121D01*
X60748904Y-57678215D01*
X60839518Y-57856055D01*
X60849089Y-57916487D01*
X60821311Y-57971004D01*
X60766795Y-57998781D01*
X60751308Y-58000000D01*
X58789141Y-58000000D01*
X58730950Y-57981093D01*
X58694986Y-57931593D01*
X58691340Y-57913259D01*
X58691109Y-57913296D01*
X58662171Y-57730593D01*
X58662171Y-57730591D01*
X58606211Y-57558361D01*
X58523996Y-57397006D01*
X58417553Y-57250499D01*
X58289501Y-57122447D01*
X58142994Y-57016004D01*
X58142993Y-57016003D01*
X58142991Y-57016002D01*
X57981637Y-56933788D01*
X57809406Y-56877828D01*
X57630549Y-56849500D01*
X57630546Y-56849500D01*
X57449454Y-56849500D01*
X57449451Y-56849500D01*
X57270593Y-56877828D01*
X57098362Y-56933788D01*
X56937008Y-57016002D01*
X56927700Y-57022765D01*
X56790499Y-57122447D01*
X56662447Y-57250499D01*
X56614307Y-57316759D01*
X56556002Y-57397008D01*
X56473788Y-57558362D01*
X56417828Y-57730593D01*
X56388891Y-57913296D01*
X56387751Y-57913115D01*
X56366142Y-57965292D01*
X56313974Y-57997264D01*
X56290859Y-58000000D01*
X56249499Y-58000000D01*
X56191308Y-57981093D01*
X56155344Y-57931593D01*
X56150499Y-57901000D01*
X56150499Y-57105139D01*
X56150499Y-57105136D01*
X56147585Y-57080009D01*
X56102206Y-56977235D01*
X56022765Y-56897794D01*
X55919991Y-56852415D01*
X55919990Y-56852414D01*
X55919988Y-56852414D01*
X55894868Y-56849500D01*
X54105139Y-56849500D01*
X54105136Y-56849501D01*
X54080009Y-56852414D01*
X53977235Y-56897794D01*
X53897794Y-56977235D01*
X53852414Y-57080011D01*
X53849500Y-57105130D01*
X53849500Y-57105132D01*
X53849500Y-57105135D01*
X53849500Y-57901001D01*
X53830594Y-57959191D01*
X53781094Y-57995155D01*
X53750501Y-58000000D01*
X41248692Y-58000000D01*
X41190501Y-57981093D01*
X41154537Y-57931593D01*
X41154537Y-57870407D01*
X41160482Y-57856055D01*
X41251095Y-57678215D01*
X41316759Y-57476121D01*
X41350000Y-57266250D01*
X41350000Y-57053749D01*
X41316759Y-56843878D01*
X41251095Y-56641784D01*
X41154623Y-56452446D01*
X41154619Y-56452440D01*
X41115270Y-56398282D01*
X41115269Y-56398282D01*
X40482962Y-57030590D01*
X40465925Y-56967007D01*
X40400099Y-56852993D01*
X40307007Y-56759901D01*
X40192993Y-56694075D01*
X40129407Y-56677037D01*
X40761716Y-56044729D01*
X40761716Y-56044728D01*
X40707559Y-56005380D01*
X40707553Y-56005376D01*
X40518215Y-55908904D01*
X40427015Y-55879272D01*
X40377515Y-55843308D01*
X40358608Y-55785117D01*
X40377515Y-55726926D01*
X40427013Y-55690962D01*
X40427017Y-55690962D01*
X40427018Y-55690962D01*
X40441633Y-55686213D01*
X40441633Y-55686212D01*
X40441639Y-55686211D01*
X40602994Y-55603996D01*
X40749501Y-55497553D01*
X40877553Y-55369501D01*
X40983996Y-55222994D01*
X41066211Y-55061639D01*
X41122171Y-54889409D01*
X41136335Y-54799977D01*
X41150500Y-54710549D01*
X41150500Y-54529450D01*
X41122171Y-54350593D01*
X41122171Y-54350591D01*
X41066211Y-54178361D01*
X40983996Y-54017006D01*
X40877553Y-53870499D01*
X40749501Y-53742447D01*
X40602994Y-53636004D01*
X40602993Y-53636003D01*
X40602991Y-53636002D01*
X40441637Y-53553788D01*
X40269406Y-53497828D01*
X40090549Y-53469500D01*
X40090546Y-53469500D01*
X39909454Y-53469500D01*
X39909451Y-53469500D01*
X39730593Y-53497828D01*
X39572147Y-53549309D01*
X39510962Y-53549308D01*
X39471551Y-53525158D01*
X33832596Y-47886203D01*
X33804819Y-47831686D01*
X33803600Y-47816199D01*
X33803600Y-39529314D01*
X33803601Y-39529301D01*
X33803601Y-39415872D01*
X33803600Y-39415870D01*
X33794063Y-39380277D01*
X33776307Y-39314013D01*
X33742012Y-39254612D01*
X33742012Y-39254611D01*
X33723581Y-39222689D01*
X33723580Y-39222687D01*
X33649013Y-39148120D01*
X33649010Y-39148118D01*
X31619596Y-37118703D01*
X31591819Y-37064186D01*
X31590600Y-37048699D01*
X31590600Y-36840243D01*
X32649500Y-36840243D01*
X32649500Y-36998357D01*
X32690423Y-37151084D01*
X32769480Y-37288016D01*
X32881284Y-37399820D01*
X33018216Y-37478877D01*
X33170943Y-37519800D01*
X33170945Y-37519800D01*
X33329055Y-37519800D01*
X33329057Y-37519800D01*
X33481784Y-37478877D01*
X33618716Y-37399820D01*
X33684498Y-37334037D01*
X33739013Y-37306262D01*
X33799445Y-37315833D01*
X33824500Y-37334036D01*
X33881284Y-37390820D01*
X34018216Y-37469877D01*
X34170943Y-37510800D01*
X34170945Y-37510800D01*
X34329055Y-37510800D01*
X34329057Y-37510800D01*
X34481784Y-37469877D01*
X34618716Y-37390820D01*
X34730520Y-37279016D01*
X34809577Y-37142084D01*
X34850500Y-36989357D01*
X34850500Y-36831243D01*
X34809577Y-36678516D01*
X34730520Y-36541584D01*
X34618716Y-36429780D01*
X34481784Y-36350723D01*
X34329057Y-36309800D01*
X34170943Y-36309800D01*
X34018216Y-36350723D01*
X33881284Y-36429780D01*
X33815501Y-36495562D01*
X33760987Y-36523338D01*
X33700555Y-36513767D01*
X33675499Y-36495563D01*
X33618716Y-36438780D01*
X33481784Y-36359723D01*
X33329057Y-36318800D01*
X33170943Y-36318800D01*
X33018216Y-36359723D01*
X32881284Y-36438780D01*
X32769480Y-36550584D01*
X32690423Y-36687516D01*
X32649500Y-36840243D01*
X31590600Y-36840243D01*
X31590600Y-35915691D01*
X31799500Y-35915691D01*
X31799500Y-36034309D01*
X31826574Y-36135351D01*
X31830202Y-36148890D01*
X31889507Y-36251608D01*
X31889509Y-36251610D01*
X31889511Y-36251613D01*
X31973387Y-36335489D01*
X31973389Y-36335490D01*
X31973391Y-36335492D01*
X32076110Y-36394797D01*
X32076111Y-36394797D01*
X32076114Y-36394799D01*
X32190691Y-36425500D01*
X32190693Y-36425500D01*
X32309307Y-36425500D01*
X32309309Y-36425500D01*
X32423886Y-36394799D01*
X32423888Y-36394797D01*
X32423890Y-36394797D01*
X32526608Y-36335492D01*
X32526608Y-36335491D01*
X32526613Y-36335489D01*
X32610489Y-36251613D01*
X32669799Y-36148886D01*
X32700500Y-36034309D01*
X32700500Y-35915691D01*
X32669799Y-35801114D01*
X32669797Y-35801111D01*
X32669797Y-35801109D01*
X32610492Y-35698391D01*
X32610490Y-35698389D01*
X32610489Y-35698387D01*
X32526613Y-35614511D01*
X32526610Y-35614509D01*
X32526608Y-35614507D01*
X32423889Y-35555202D01*
X32423890Y-35555202D01*
X32410351Y-35551574D01*
X32309309Y-35524500D01*
X32190691Y-35524500D01*
X32120567Y-35543289D01*
X32076109Y-35555202D01*
X31973391Y-35614507D01*
X31889507Y-35698391D01*
X31830202Y-35801109D01*
X31830201Y-35801114D01*
X31799500Y-35915691D01*
X31590600Y-35915691D01*
X31590600Y-34229500D01*
X31609507Y-34171309D01*
X31659007Y-34135345D01*
X31689600Y-34130500D01*
X31822474Y-34130500D01*
X31822475Y-34130500D01*
X31962485Y-34092984D01*
X32074168Y-34028503D01*
X32134015Y-34015782D01*
X32189910Y-34040668D01*
X32220503Y-34093656D01*
X32214108Y-34154506D01*
X32209404Y-34163739D01*
X32190423Y-34196614D01*
X32164801Y-34292239D01*
X32149500Y-34349343D01*
X32149500Y-34507457D01*
X32190423Y-34660184D01*
X32269480Y-34797116D01*
X32381284Y-34908920D01*
X32518216Y-34987977D01*
X32670943Y-35028900D01*
X32670945Y-35028900D01*
X32829055Y-35028900D01*
X32829057Y-35028900D01*
X32981784Y-34987977D01*
X33118716Y-34908920D01*
X33173398Y-34854237D01*
X33227913Y-34826462D01*
X33288345Y-34836033D01*
X33313400Y-34854236D01*
X33381284Y-34922120D01*
X33518216Y-35001177D01*
X33670943Y-35042100D01*
X33670945Y-35042100D01*
X33829055Y-35042100D01*
X33829057Y-35042100D01*
X33981784Y-35001177D01*
X34118716Y-34922120D01*
X34178198Y-34862637D01*
X34232713Y-34834862D01*
X34293145Y-34844433D01*
X34318200Y-34862636D01*
X34379684Y-34924120D01*
X34516616Y-35003177D01*
X34669343Y-35044100D01*
X34669345Y-35044100D01*
X34827455Y-35044100D01*
X34827457Y-35044100D01*
X34980184Y-35003177D01*
X34994701Y-34994795D01*
X35054547Y-34982074D01*
X35110443Y-35006959D01*
X35141036Y-35059947D01*
X35143200Y-35080532D01*
X35143200Y-47570973D01*
X35143200Y-47676427D01*
X35155288Y-47721541D01*
X35170494Y-47778292D01*
X35223216Y-47869608D01*
X35223217Y-47869609D01*
X35223218Y-47869610D01*
X35223220Y-47869613D01*
X37066137Y-49712530D01*
X38905158Y-51551551D01*
X38932935Y-51606068D01*
X38929309Y-51652147D01*
X38877828Y-51810593D01*
X38849500Y-51989450D01*
X38849500Y-52170549D01*
X38877828Y-52349406D01*
X38933788Y-52521637D01*
X39012142Y-52675416D01*
X39016004Y-52682994D01*
X39122447Y-52829501D01*
X39250499Y-52957553D01*
X39397006Y-53063996D01*
X39558361Y-53146211D01*
X39730591Y-53202171D01*
X39802136Y-53213502D01*
X39909451Y-53230500D01*
X39909454Y-53230500D01*
X40090549Y-53230500D01*
X40179977Y-53216335D01*
X40269409Y-53202171D01*
X40441639Y-53146211D01*
X40602994Y-53063996D01*
X40749501Y-52957553D01*
X40877553Y-52829501D01*
X40983996Y-52682994D01*
X41066211Y-52521639D01*
X41122171Y-52349409D01*
X41150500Y-52170546D01*
X41150500Y-51989454D01*
X41150500Y-51989450D01*
X41122171Y-51810593D01*
X41122171Y-51810591D01*
X41066211Y-51638361D01*
X40983996Y-51477006D01*
X40877553Y-51330499D01*
X40749501Y-51202447D01*
X40699884Y-51166398D01*
X40663920Y-51116898D01*
X40663921Y-51055713D01*
X40699885Y-51006213D01*
X40708563Y-51000577D01*
X40751513Y-50975780D01*
X40806350Y-50920943D01*
X44899500Y-50920943D01*
X44899500Y-51079057D01*
X44940423Y-51231784D01*
X45019480Y-51368716D01*
X45131284Y-51480520D01*
X45268216Y-51559577D01*
X45420943Y-51600500D01*
X45420945Y-51600500D01*
X45579055Y-51600500D01*
X45579057Y-51600500D01*
X45731784Y-51559577D01*
X45868716Y-51480520D01*
X45980520Y-51368716D01*
X46059577Y-51231784D01*
X46100500Y-51079057D01*
X46100500Y-50920943D01*
X46059577Y-50768216D01*
X45980520Y-50631284D01*
X45868716Y-50519480D01*
X45731784Y-50440423D01*
X45579057Y-50399500D01*
X45420943Y-50399500D01*
X45268216Y-50440423D01*
X45131284Y-50519480D01*
X45019480Y-50631284D01*
X44940423Y-50768216D01*
X44899500Y-50920943D01*
X40806350Y-50920943D01*
X41347610Y-50379681D01*
X41347613Y-50379680D01*
X41422180Y-50305113D01*
X41474907Y-50213787D01*
X41488840Y-50161789D01*
X41502201Y-50111927D01*
X41502201Y-50006473D01*
X41502201Y-50000411D01*
X41502200Y-50000393D01*
X41502200Y-49012874D01*
X41502200Y-49012873D01*
X41474907Y-48911013D01*
X41465586Y-48894869D01*
X41422180Y-48819687D01*
X41347613Y-48745119D01*
X41347613Y-48745120D01*
X40904315Y-48301822D01*
X40876538Y-48247305D01*
X40886109Y-48186873D01*
X40929374Y-48143608D01*
X40934322Y-48141257D01*
X41022765Y-48102206D01*
X41102206Y-48022765D01*
X41147585Y-47919991D01*
X41150500Y-47894865D01*
X41150499Y-46105136D01*
X41147585Y-46080009D01*
X41102206Y-45977235D01*
X41022765Y-45897794D01*
X40919991Y-45852415D01*
X40919990Y-45852414D01*
X40919988Y-45852414D01*
X40894868Y-45849500D01*
X39105139Y-45849500D01*
X39105136Y-45849501D01*
X39080009Y-45852414D01*
X38977235Y-45897794D01*
X38897794Y-45977235D01*
X38852414Y-46080011D01*
X38849500Y-46105130D01*
X38849500Y-47584099D01*
X38830593Y-47642290D01*
X38781093Y-47678254D01*
X38719907Y-47678254D01*
X38680496Y-47654103D01*
X37102896Y-46076503D01*
X37075119Y-46021986D01*
X37073900Y-46006499D01*
X37073900Y-42201443D01*
X43769700Y-42201443D01*
X43769700Y-42359557D01*
X43810623Y-42512284D01*
X43889680Y-42649216D01*
X44001484Y-42761020D01*
X44138416Y-42840077D01*
X44291143Y-42881000D01*
X44291145Y-42881000D01*
X44449255Y-42881000D01*
X44449257Y-42881000D01*
X44601984Y-42840077D01*
X44738916Y-42761020D01*
X44850720Y-42649216D01*
X44929777Y-42512284D01*
X44970700Y-42359557D01*
X44970700Y-42201443D01*
X44929777Y-42048716D01*
X44850720Y-41911784D01*
X44738916Y-41799980D01*
X44601984Y-41720923D01*
X44449257Y-41680000D01*
X44291143Y-41680000D01*
X44138416Y-41720923D01*
X44001484Y-41799980D01*
X43889680Y-41911784D01*
X43810623Y-42048716D01*
X43769700Y-42201443D01*
X37073900Y-42201443D01*
X37073900Y-38264943D01*
X37092807Y-38206752D01*
X37142307Y-38170788D01*
X37203493Y-38170788D01*
X37242901Y-38194937D01*
X37313084Y-38265120D01*
X37450016Y-38344177D01*
X37602743Y-38385100D01*
X37602745Y-38385100D01*
X37760855Y-38385100D01*
X37760857Y-38385100D01*
X37913584Y-38344177D01*
X38050516Y-38265120D01*
X38162320Y-38153316D01*
X38241377Y-38016384D01*
X38282300Y-37863657D01*
X38282300Y-37705543D01*
X38241377Y-37552816D01*
X38162320Y-37415884D01*
X38050516Y-37304080D01*
X37913584Y-37225023D01*
X37760857Y-37184100D01*
X37602743Y-37184100D01*
X37450016Y-37225023D01*
X37313084Y-37304080D01*
X37242901Y-37374262D01*
X37188387Y-37402038D01*
X37127955Y-37392467D01*
X37084690Y-37349202D01*
X37073900Y-37304257D01*
X37073900Y-36677943D01*
X41792200Y-36677943D01*
X41792200Y-36836057D01*
X41833123Y-36988784D01*
X41912180Y-37125716D01*
X42023984Y-37237520D01*
X42160916Y-37316577D01*
X42313643Y-37357500D01*
X42313645Y-37357500D01*
X42471755Y-37357500D01*
X42471757Y-37357500D01*
X42624484Y-37316577D01*
X42761416Y-37237520D01*
X42873220Y-37125716D01*
X42952277Y-36988784D01*
X42993200Y-36836057D01*
X42993200Y-36677943D01*
X42952277Y-36525216D01*
X42873220Y-36388284D01*
X42761416Y-36276480D01*
X42624484Y-36197423D01*
X42471757Y-36156500D01*
X42313643Y-36156500D01*
X42160916Y-36197423D01*
X42023984Y-36276480D01*
X41912180Y-36388284D01*
X41833123Y-36525216D01*
X41792200Y-36677943D01*
X37073900Y-36677943D01*
X37073900Y-35136500D01*
X37092807Y-35078309D01*
X37142307Y-35042345D01*
X37172900Y-35037500D01*
X37329055Y-35037500D01*
X37329057Y-35037500D01*
X37481784Y-34996577D01*
X37618716Y-34917520D01*
X37637296Y-34898939D01*
X37691810Y-34871162D01*
X37752242Y-34880732D01*
X37777301Y-34898938D01*
X37793723Y-34915359D01*
X37804784Y-34926420D01*
X37941716Y-35005477D01*
X38094443Y-35046400D01*
X38094445Y-35046400D01*
X38252555Y-35046400D01*
X38252557Y-35046400D01*
X38405284Y-35005477D01*
X38542216Y-34926420D01*
X38654020Y-34814616D01*
X38733077Y-34677684D01*
X38774000Y-34524957D01*
X38774000Y-34366843D01*
X38733077Y-34214116D01*
X38654020Y-34077184D01*
X38542216Y-33965380D01*
X38492788Y-33936843D01*
X38451849Y-33891375D01*
X38445453Y-33830525D01*
X38472285Y-33781106D01*
X38771010Y-33482381D01*
X38771013Y-33482380D01*
X38845580Y-33407813D01*
X38898307Y-33316487D01*
X38904761Y-33292400D01*
X38925601Y-33214627D01*
X38925601Y-33109173D01*
X38925601Y-33103111D01*
X38925600Y-33103093D01*
X38925600Y-31083000D01*
X38944507Y-31024809D01*
X38994007Y-30988845D01*
X39024600Y-30984000D01*
X39173057Y-30984000D01*
X39251013Y-30963111D01*
X39312113Y-30966312D01*
X39346640Y-30988733D01*
X45769604Y-37411697D01*
X45797381Y-37466214D01*
X45798600Y-37481701D01*
X45798600Y-37553857D01*
X45839523Y-37706584D01*
X45918580Y-37843516D01*
X46030384Y-37955320D01*
X46167316Y-38034377D01*
X46320043Y-38075300D01*
X46320045Y-38075300D01*
X46478155Y-38075300D01*
X46478157Y-38075300D01*
X46630884Y-38034377D01*
X46767816Y-37955320D01*
X46879620Y-37843516D01*
X46931325Y-37753958D01*
X46976793Y-37713020D01*
X47037643Y-37706624D01*
X47087064Y-37733457D01*
X48616832Y-39263225D01*
X48643136Y-39310299D01*
X49295141Y-42048716D01*
X49527219Y-43023443D01*
X49596808Y-43315714D01*
X49598059Y-43326371D01*
X49598653Y-43326293D01*
X49599500Y-43332729D01*
X49611333Y-43376892D01*
X49612013Y-43379581D01*
X49622602Y-43424055D01*
X49624636Y-43429383D01*
X49626793Y-43434590D01*
X49649667Y-43474210D01*
X49651021Y-43476632D01*
X49672747Y-43516825D01*
X49676075Y-43521424D01*
X49679515Y-43525907D01*
X49679518Y-43525910D01*
X49679520Y-43525913D01*
X49703107Y-43549500D01*
X49711865Y-43558258D01*
X49713800Y-43560249D01*
X49745192Y-43593454D01*
X49750227Y-43597547D01*
X49749847Y-43598013D01*
X49758270Y-43604663D01*
X58687629Y-52534022D01*
X58698166Y-52546458D01*
X58704831Y-52555783D01*
X58704833Y-52555785D01*
X58704835Y-52555787D01*
X58726840Y-52573890D01*
X58733935Y-52580329D01*
X58754086Y-52600480D01*
X58764023Y-52606217D01*
X58777414Y-52615496D01*
X58786271Y-52622783D01*
X58812211Y-52634574D01*
X58820710Y-52638945D01*
X58845412Y-52653207D01*
X58850018Y-52654440D01*
X58856489Y-52656175D01*
X58871839Y-52661677D01*
X58882268Y-52666418D01*
X58882273Y-52666420D01*
X58910398Y-52671098D01*
X58919732Y-52673120D01*
X58947273Y-52680500D01*
X58958738Y-52680500D01*
X58974982Y-52681841D01*
X58986297Y-52683724D01*
X59014659Y-52680965D01*
X59024244Y-52680500D01*
X59052727Y-52680500D01*
X59063799Y-52677532D01*
X59079841Y-52674624D01*
X59091255Y-52673514D01*
X59117951Y-52663502D01*
X59127059Y-52660582D01*
X59154588Y-52653207D01*
X59164522Y-52647471D01*
X59179250Y-52640515D01*
X59189995Y-52636487D01*
X59213173Y-52619920D01*
X59221235Y-52614727D01*
X59245913Y-52600480D01*
X59254021Y-52592370D01*
X59266456Y-52581833D01*
X59275787Y-52575165D01*
X59293897Y-52553150D01*
X59300326Y-52546065D01*
X59320480Y-52525913D01*
X59326216Y-52515976D01*
X59335496Y-52502585D01*
X59342783Y-52493729D01*
X59354578Y-52467777D01*
X59358948Y-52459283D01*
X59373207Y-52434588D01*
X59376177Y-52423499D01*
X59381674Y-52408164D01*
X60066340Y-50901898D01*
X60107632Y-50856750D01*
X60167577Y-50844492D01*
X60223278Y-50869811D01*
X60226470Y-50872863D01*
X60905158Y-51551551D01*
X60932935Y-51606068D01*
X60929309Y-51652147D01*
X60877828Y-51810593D01*
X60849500Y-51989450D01*
X60849500Y-52170549D01*
X60877828Y-52349406D01*
X60933788Y-52521637D01*
X61012142Y-52675416D01*
X61016004Y-52682994D01*
X61122447Y-52829501D01*
X61250499Y-52957553D01*
X61397006Y-53063996D01*
X61558361Y-53146211D01*
X61730591Y-53202171D01*
X61802136Y-53213502D01*
X61909451Y-53230500D01*
X61909454Y-53230500D01*
X62090549Y-53230500D01*
X62179977Y-53216335D01*
X62269409Y-53202171D01*
X62441639Y-53146211D01*
X62602994Y-53063996D01*
X62749501Y-52957553D01*
X62877553Y-52829501D01*
X62983996Y-52682994D01*
X63066211Y-52521639D01*
X63122171Y-52349409D01*
X63150500Y-52170546D01*
X63150500Y-51989454D01*
X63150500Y-51989450D01*
X63122171Y-51810593D01*
X63122171Y-51810591D01*
X63066211Y-51638361D01*
X62983996Y-51477006D01*
X62877553Y-51330499D01*
X62749501Y-51202447D01*
X62602994Y-51096004D01*
X62602993Y-51096003D01*
X62602991Y-51096002D01*
X62441637Y-51013788D01*
X62269406Y-50957828D01*
X62090549Y-50929500D01*
X62090546Y-50929500D01*
X61909454Y-50929500D01*
X61909451Y-50929500D01*
X61730593Y-50957828D01*
X61572147Y-51009309D01*
X61510962Y-51009308D01*
X61471551Y-50985158D01*
X60312365Y-49825972D01*
X60301827Y-49813535D01*
X60298876Y-49809406D01*
X60295165Y-49804214D01*
X60273172Y-49786120D01*
X60266067Y-49779673D01*
X60245914Y-49759520D01*
X60245910Y-49759518D01*
X60235973Y-49753780D01*
X60222584Y-49744501D01*
X60213730Y-49737218D01*
X60213731Y-49737218D01*
X60213729Y-49737217D01*
X60187796Y-49725429D01*
X60179272Y-49721044D01*
X60154586Y-49706792D01*
X60154582Y-49706790D01*
X60143505Y-49703823D01*
X60128159Y-49698322D01*
X60117727Y-49693580D01*
X60117721Y-49693578D01*
X60089621Y-49688903D01*
X60080251Y-49686874D01*
X60061285Y-49681793D01*
X60052727Y-49679500D01*
X60052726Y-49679500D01*
X60041262Y-49679500D01*
X60025017Y-49678158D01*
X60013703Y-49676276D01*
X59985341Y-49679035D01*
X59975756Y-49679500D01*
X59947268Y-49679500D01*
X59936187Y-49682469D01*
X59920165Y-49685374D01*
X59908749Y-49686485D01*
X59908739Y-49686487D01*
X59882070Y-49696488D01*
X59872936Y-49699417D01*
X59845413Y-49706792D01*
X59845409Y-49706793D01*
X59835473Y-49712530D01*
X59820745Y-49719485D01*
X59810012Y-49723510D01*
X59810000Y-49723516D01*
X59786819Y-49740084D01*
X59778760Y-49745273D01*
X59754086Y-49759519D01*
X59745971Y-49767634D01*
X59733548Y-49778161D01*
X59724213Y-49784834D01*
X59724212Y-49784835D01*
X59706107Y-49806841D01*
X59699663Y-49813942D01*
X59679522Y-49834084D01*
X59679515Y-49834092D01*
X59673781Y-49844024D01*
X59664508Y-49857406D01*
X59657219Y-49866267D01*
X59657215Y-49866274D01*
X59645431Y-49892198D01*
X59641044Y-49900726D01*
X59626794Y-49925408D01*
X59626791Y-49925415D01*
X59623821Y-49936500D01*
X59618322Y-49951838D01*
X58933658Y-51458098D01*
X58892366Y-51503248D01*
X58832421Y-51515506D01*
X58776720Y-51490187D01*
X58773528Y-51487135D01*
X54388794Y-47102401D01*
X54361017Y-47047884D01*
X54370588Y-46987452D01*
X54413853Y-46944187D01*
X54474285Y-46934616D01*
X54496683Y-46940933D01*
X54504539Y-46944187D01*
X54653900Y-47006054D01*
X54888211Y-47068838D01*
X55128712Y-47100500D01*
X55128713Y-47100500D01*
X55371287Y-47100500D01*
X55371288Y-47100500D01*
X55611789Y-47068838D01*
X55846100Y-47006054D01*
X56070212Y-46913224D01*
X56280289Y-46791936D01*
X56472738Y-46644265D01*
X56644265Y-46472738D01*
X56791936Y-46280289D01*
X56913224Y-46070212D01*
X57006054Y-45846100D01*
X57068838Y-45611789D01*
X57100500Y-45371288D01*
X57100500Y-45128712D01*
X57068838Y-44888211D01*
X57006054Y-44653900D01*
X56915746Y-44435877D01*
X56913227Y-44429795D01*
X56913226Y-44429794D01*
X56913224Y-44429788D01*
X56791936Y-44219711D01*
X56695312Y-44093788D01*
X56644270Y-44027268D01*
X56644268Y-44027266D01*
X56644265Y-44027262D01*
X56472738Y-43855735D01*
X56472733Y-43855731D01*
X56472731Y-43855729D01*
X56280292Y-43708066D01*
X56280289Y-43708064D01*
X56070212Y-43586776D01*
X56070208Y-43586774D01*
X56070204Y-43586772D01*
X55846105Y-43493948D01*
X55846104Y-43493947D01*
X55846100Y-43493946D01*
X55611789Y-43431162D01*
X55611786Y-43431161D01*
X55611784Y-43431161D01*
X55371289Y-43399500D01*
X55371288Y-43399500D01*
X55128712Y-43399500D01*
X55128710Y-43399500D01*
X54888218Y-43431161D01*
X54888213Y-43431161D01*
X54653907Y-43493944D01*
X54653894Y-43493948D01*
X54429795Y-43586772D01*
X54219707Y-43708066D01*
X54027268Y-43855729D01*
X53855729Y-44027268D01*
X53708066Y-44219707D01*
X53586772Y-44429795D01*
X53493948Y-44653894D01*
X53493944Y-44653907D01*
X53431161Y-44888213D01*
X53431161Y-44888218D01*
X53399500Y-45128710D01*
X53399500Y-45371289D01*
X53431161Y-45611781D01*
X53431161Y-45611786D01*
X53448929Y-45678096D01*
X53492131Y-45839328D01*
X53493944Y-45846092D01*
X53493948Y-45846105D01*
X53559066Y-46003316D01*
X53563866Y-46064313D01*
X53531897Y-46116482D01*
X53475369Y-46139896D01*
X53415874Y-46125612D01*
X53397598Y-46111205D01*
X50383166Y-43096773D01*
X50356862Y-43049699D01*
X50285227Y-42748834D01*
X49566805Y-39731461D01*
X49403192Y-39044285D01*
X49401940Y-39033627D01*
X49401347Y-39033706D01*
X49400500Y-39027275D01*
X49400500Y-39027273D01*
X49388641Y-38983018D01*
X49387990Y-38980441D01*
X49377396Y-38935943D01*
X49377392Y-38935935D01*
X49375367Y-38930630D01*
X49373205Y-38925408D01*
X49350343Y-38885809D01*
X49348989Y-38883386D01*
X49337582Y-38862284D01*
X49327253Y-38843174D01*
X49327249Y-38843170D01*
X49323928Y-38838581D01*
X49320483Y-38834090D01*
X49288130Y-38801737D01*
X49286195Y-38799746D01*
X49254809Y-38766547D01*
X49249775Y-38762456D01*
X49250151Y-38761992D01*
X49241732Y-38755339D01*
X48191936Y-37705543D01*
X47089013Y-36602620D01*
X47089010Y-36602618D01*
X47089009Y-36602617D01*
X47089008Y-36602616D01*
X46997691Y-36549894D01*
X46997693Y-36549894D01*
X46958170Y-36539304D01*
X46895827Y-36522600D01*
X46895825Y-36522600D01*
X46552701Y-36522600D01*
X46494510Y-36503693D01*
X46482697Y-36493604D01*
X43742818Y-33753725D01*
X43715041Y-33699208D01*
X43724612Y-33638776D01*
X43742815Y-33613720D01*
X43837320Y-33519216D01*
X43916377Y-33382284D01*
X43957300Y-33229557D01*
X43957300Y-33071443D01*
X43916377Y-32918716D01*
X43837320Y-32781784D01*
X43725516Y-32669980D01*
X43588584Y-32590923D01*
X43485093Y-32563192D01*
X43433779Y-32529868D01*
X43411853Y-32472747D01*
X43427689Y-32413646D01*
X43461215Y-32381831D01*
X43579016Y-32313820D01*
X43690820Y-32202016D01*
X43769877Y-32065084D01*
X43769877Y-32065081D01*
X43773121Y-32059464D01*
X43775158Y-32060640D01*
X43808209Y-32021937D01*
X43867703Y-32007649D01*
X43924232Y-32031059D01*
X43929947Y-32036340D01*
X49695112Y-37801505D01*
X49703154Y-37810601D01*
X49716709Y-37827971D01*
X49731022Y-37838768D01*
X49741404Y-37847797D01*
X49754087Y-37860480D01*
X49759590Y-37863657D01*
X49773177Y-37871502D01*
X49783297Y-37878204D01*
X49800896Y-37891480D01*
X49817519Y-37898207D01*
X49829881Y-37904240D01*
X49845412Y-37913207D01*
X49866701Y-37918910D01*
X49878210Y-37922765D01*
X49889655Y-37927396D01*
X49898650Y-37931036D01*
X49916458Y-37933231D01*
X49929954Y-37935859D01*
X49939246Y-37938349D01*
X49947272Y-37940500D01*
X49947273Y-37940500D01*
X49969316Y-37940500D01*
X49981430Y-37941243D01*
X50003311Y-37943942D01*
X50019074Y-37941735D01*
X50021069Y-37941456D01*
X50034793Y-37940500D01*
X50052728Y-37940500D01*
X50065383Y-37937108D01*
X50074021Y-37934793D01*
X50085910Y-37932377D01*
X50809054Y-37831137D01*
X50869304Y-37841794D01*
X50892784Y-37859177D01*
X58654671Y-45621064D01*
X58674358Y-45649156D01*
X59618573Y-47669776D01*
X59624508Y-47686062D01*
X59626792Y-47694585D01*
X59626793Y-47694588D01*
X59642363Y-47721557D01*
X59646308Y-47729129D01*
X59659481Y-47757318D01*
X59659482Y-47757321D01*
X59665158Y-47764074D01*
X59675103Y-47778264D01*
X59679519Y-47785913D01*
X59701529Y-47807923D01*
X59707302Y-47814217D01*
X59727331Y-47838048D01*
X59734559Y-47843100D01*
X59747846Y-47854239D01*
X60905158Y-49011551D01*
X60932935Y-49066068D01*
X60929309Y-49112147D01*
X60877828Y-49270593D01*
X60849500Y-49449450D01*
X60849500Y-49630549D01*
X60877828Y-49809406D01*
X60933788Y-49981637D01*
X61008589Y-50128443D01*
X61016004Y-50142994D01*
X61122447Y-50289501D01*
X61250499Y-50417553D01*
X61397006Y-50523996D01*
X61558361Y-50606211D01*
X61730591Y-50662171D01*
X61802136Y-50673502D01*
X61909451Y-50690500D01*
X61909454Y-50690500D01*
X62090549Y-50690500D01*
X62179977Y-50676335D01*
X62269409Y-50662171D01*
X62441639Y-50606211D01*
X62602994Y-50523996D01*
X62749501Y-50417553D01*
X62877553Y-50289501D01*
X62983996Y-50142994D01*
X63066211Y-49981639D01*
X63122171Y-49809409D01*
X63140200Y-49695576D01*
X63150500Y-49630549D01*
X63150500Y-49449450D01*
X63129483Y-49316759D01*
X63122171Y-49270591D01*
X63066211Y-49098361D01*
X62983996Y-48937006D01*
X62877553Y-48790499D01*
X62749501Y-48662447D01*
X62602994Y-48556004D01*
X62602993Y-48556003D01*
X62602991Y-48556002D01*
X62441637Y-48473788D01*
X62269406Y-48417828D01*
X62090549Y-48389500D01*
X62090546Y-48389500D01*
X61909454Y-48389500D01*
X61909451Y-48389500D01*
X61730593Y-48417828D01*
X61572147Y-48469309D01*
X61510962Y-48469308D01*
X61471551Y-48445158D01*
X61345896Y-48319503D01*
X61318119Y-48264986D01*
X61327690Y-48204554D01*
X61370955Y-48161289D01*
X61415900Y-48150499D01*
X62894861Y-48150499D01*
X62894864Y-48150499D01*
X62919991Y-48147585D01*
X63022765Y-48102206D01*
X63102206Y-48022765D01*
X63147585Y-47919991D01*
X63150500Y-47894865D01*
X63150499Y-46105136D01*
X63147585Y-46080009D01*
X63102206Y-45977235D01*
X63022765Y-45897794D01*
X62919991Y-45852415D01*
X62919990Y-45852414D01*
X62919988Y-45852414D01*
X62894868Y-45849500D01*
X61105139Y-45849500D01*
X61105136Y-45849501D01*
X61080009Y-45852414D01*
X60977235Y-45897794D01*
X60897794Y-45977235D01*
X60852414Y-46080011D01*
X60849500Y-46105130D01*
X60849500Y-47584099D01*
X60830593Y-47642290D01*
X60781093Y-47678254D01*
X60719907Y-47678254D01*
X60680496Y-47654103D01*
X60345327Y-47318934D01*
X60325640Y-47290842D01*
X60237583Y-47102401D01*
X60013055Y-46621909D01*
X59381424Y-45270219D01*
X59375488Y-45253928D01*
X59373208Y-45245418D01*
X59373207Y-45245416D01*
X59373206Y-45245412D01*
X59357642Y-45218455D01*
X59353696Y-45210880D01*
X59340519Y-45182682D01*
X59340518Y-45182681D01*
X59340518Y-45182680D01*
X59334837Y-45175921D01*
X59324892Y-45161729D01*
X59320480Y-45154087D01*
X59320475Y-45154082D01*
X59298466Y-45132072D01*
X59292694Y-45125779D01*
X59272669Y-45101953D01*
X59265442Y-45096901D01*
X59252157Y-45085764D01*
X51304889Y-37138496D01*
X51296849Y-37129402D01*
X51283290Y-37112029D01*
X51283288Y-37112027D01*
X51268976Y-37101230D01*
X51258597Y-37092204D01*
X51256100Y-37089707D01*
X51245913Y-37079520D01*
X51245911Y-37079519D01*
X51245912Y-37079519D01*
X51239010Y-37075534D01*
X51226815Y-37068493D01*
X51216705Y-37061797D01*
X51199107Y-37048522D01*
X51199105Y-37048521D01*
X51199104Y-37048520D01*
X51199101Y-37048519D01*
X51199098Y-37048517D01*
X51182481Y-37041793D01*
X51170114Y-37035757D01*
X51154589Y-37026793D01*
X51146680Y-37024674D01*
X51133289Y-37021085D01*
X51121783Y-37017232D01*
X51101351Y-37008964D01*
X51083546Y-37006768D01*
X51070045Y-37004140D01*
X51052728Y-36999500D01*
X51052727Y-36999500D01*
X51030684Y-36999500D01*
X51018569Y-36998756D01*
X51015317Y-36998355D01*
X50996692Y-36996058D01*
X50996686Y-36996058D01*
X50978931Y-36998544D01*
X50965207Y-36999500D01*
X50947269Y-36999500D01*
X50925972Y-37005206D01*
X50914081Y-37007622D01*
X50190944Y-37108861D01*
X50130694Y-37098204D01*
X50107214Y-37080821D01*
X44507536Y-31481143D01*
X44479759Y-31426626D01*
X44489330Y-31366194D01*
X44532595Y-31322929D01*
X44551912Y-31315513D01*
X44685284Y-31279777D01*
X44822216Y-31200720D01*
X44934020Y-31088916D01*
X45005009Y-30965958D01*
X45050475Y-30925019D01*
X45111325Y-30918623D01*
X45164314Y-30949215D01*
X45176479Y-30965960D01*
X45189627Y-30988733D01*
X45201280Y-31008916D01*
X45313084Y-31120720D01*
X45450016Y-31199777D01*
X45602743Y-31240700D01*
X45602745Y-31240700D01*
X45760855Y-31240700D01*
X45760857Y-31240700D01*
X45913584Y-31199777D01*
X46050516Y-31120720D01*
X46162320Y-31008916D01*
X46241377Y-30871984D01*
X46282300Y-30719257D01*
X46282300Y-30561143D01*
X46241377Y-30408416D01*
X46162320Y-30271484D01*
X46050516Y-30159680D01*
X45913584Y-30080623D01*
X45760857Y-30039700D01*
X45602743Y-30039700D01*
X45450016Y-30080623D01*
X45313084Y-30159680D01*
X45201280Y-30271484D01*
X45138341Y-30380500D01*
X45130293Y-30394439D01*
X45084823Y-30435380D01*
X45023973Y-30441776D01*
X44970985Y-30411183D01*
X44958823Y-30394444D01*
X44934020Y-30351484D01*
X44822216Y-30239680D01*
X44822213Y-30239678D01*
X44737400Y-30190711D01*
X44696459Y-30145242D01*
X44687900Y-30104975D01*
X44687900Y-25190301D01*
X44706807Y-25132110D01*
X44756307Y-25096146D01*
X44817493Y-25096146D01*
X44856904Y-25120297D01*
X71070504Y-51333897D01*
X71098281Y-51388414D01*
X71099500Y-51403901D01*
X71099500Y-54750500D01*
X71080593Y-54808691D01*
X71031093Y-54844655D01*
X71000500Y-54849500D01*
X70605139Y-54849500D01*
X70605136Y-54849501D01*
X70580009Y-54852414D01*
X70477235Y-54897794D01*
X70397794Y-54977235D01*
X70352414Y-55080011D01*
X70349500Y-55105130D01*
X70349500Y-56894860D01*
X70349501Y-56894863D01*
X70352414Y-56919990D01*
X70377691Y-56977235D01*
X70397794Y-57022765D01*
X70477235Y-57102206D01*
X70580009Y-57147585D01*
X70605135Y-57150500D01*
X72394864Y-57150499D01*
X72419991Y-57147585D01*
X72522765Y-57102206D01*
X72602206Y-57022765D01*
X72647585Y-56919991D01*
X72650500Y-56894865D01*
X72650499Y-56658943D01*
X72669406Y-56600756D01*
X72718906Y-56564792D01*
X72780091Y-56564791D01*
X72829591Y-56600755D01*
X72837709Y-56614001D01*
X72885376Y-56707553D01*
X72885380Y-56707559D01*
X72924728Y-56761716D01*
X72924729Y-56761716D01*
X73557037Y-56129407D01*
X73574075Y-56192993D01*
X73639901Y-56307007D01*
X73732993Y-56400099D01*
X73847007Y-56465925D01*
X73910589Y-56482962D01*
X73278282Y-57115269D01*
X73278282Y-57115270D01*
X73332440Y-57154619D01*
X73332446Y-57154623D01*
X73521784Y-57251095D01*
X73723878Y-57316759D01*
X73933750Y-57350000D01*
X74146250Y-57350000D01*
X74356121Y-57316759D01*
X74558215Y-57251095D01*
X74747556Y-57154620D01*
X74801716Y-57115270D01*
X74169408Y-56482962D01*
X74232993Y-56465925D01*
X74347007Y-56400099D01*
X74440099Y-56307007D01*
X74505925Y-56192993D01*
X74522962Y-56129408D01*
X75155270Y-56761716D01*
X75194620Y-56707556D01*
X75291096Y-56518213D01*
X75320727Y-56427016D01*
X75356690Y-56377516D01*
X75414881Y-56358608D01*
X75473072Y-56377515D01*
X75509036Y-56427013D01*
X75513788Y-56441637D01*
X75594863Y-56600756D01*
X75596004Y-56602994D01*
X75702447Y-56749501D01*
X75830499Y-56877553D01*
X75977006Y-56983996D01*
X76138361Y-57066211D01*
X76310591Y-57122171D01*
X76382136Y-57133502D01*
X76489451Y-57150500D01*
X76489454Y-57150500D01*
X76670549Y-57150500D01*
X76759977Y-57136335D01*
X76849409Y-57122171D01*
X77021639Y-57066211D01*
X77182994Y-56983996D01*
X77329501Y-56877553D01*
X77457553Y-56749501D01*
X77563996Y-56602994D01*
X77646211Y-56441639D01*
X77702171Y-56269409D01*
X77730500Y-56090546D01*
X77730500Y-55909454D01*
X77730500Y-55909450D01*
X77702171Y-55730593D01*
X77702171Y-55730591D01*
X77646211Y-55558361D01*
X77563996Y-55397006D01*
X77457553Y-55250499D01*
X77329501Y-55122447D01*
X77182994Y-55016004D01*
X77182993Y-55016003D01*
X77182991Y-55016002D01*
X77021637Y-54933788D01*
X76849406Y-54877828D01*
X76670549Y-54849500D01*
X76670546Y-54849500D01*
X76489454Y-54849500D01*
X76489451Y-54849500D01*
X76310593Y-54877828D01*
X76138362Y-54933788D01*
X75977008Y-55016002D01*
X75914197Y-55061637D01*
X75830499Y-55122447D01*
X75702447Y-55250499D01*
X75671975Y-55292440D01*
X75596002Y-55397008D01*
X75513787Y-55558364D01*
X75513786Y-55558366D01*
X75509035Y-55572988D01*
X75473069Y-55622486D01*
X75414878Y-55641391D01*
X75356688Y-55622481D01*
X75320727Y-55572983D01*
X75291096Y-55481786D01*
X75194623Y-55292446D01*
X75194619Y-55292440D01*
X75155270Y-55238282D01*
X75155269Y-55238282D01*
X74522962Y-55870589D01*
X74505925Y-55807007D01*
X74440099Y-55692993D01*
X74347007Y-55599901D01*
X74232993Y-55534075D01*
X74169407Y-55517037D01*
X74801716Y-54884729D01*
X74801716Y-54884728D01*
X74747559Y-54845380D01*
X74747553Y-54845376D01*
X74558215Y-54748904D01*
X74356121Y-54683240D01*
X74146250Y-54650000D01*
X73933750Y-54650000D01*
X73723878Y-54683240D01*
X73521784Y-54748904D01*
X73332446Y-54845376D01*
X73332442Y-54845378D01*
X73278282Y-54884728D01*
X73910591Y-55517037D01*
X73847007Y-55534075D01*
X73732993Y-55599901D01*
X73639901Y-55692993D01*
X73574075Y-55807007D01*
X73557037Y-55870591D01*
X72924728Y-55238282D01*
X72885378Y-55292442D01*
X72885376Y-55292446D01*
X72837709Y-55385999D01*
X72794444Y-55429264D01*
X72734012Y-55438835D01*
X72679495Y-55411057D01*
X72651718Y-55356541D01*
X72650499Y-55341054D01*
X72650499Y-55105139D01*
X72650499Y-55105136D01*
X72647585Y-55080009D01*
X72602206Y-54977235D01*
X72522765Y-54897794D01*
X72419991Y-54852415D01*
X72419990Y-54852414D01*
X72419988Y-54852414D01*
X72394869Y-54849500D01*
X72394865Y-54849500D01*
X71999500Y-54849500D01*
X71941309Y-54830593D01*
X71905345Y-54781093D01*
X71900500Y-54750500D01*
X71900500Y-51144274D01*
X71900500Y-51144273D01*
X71873207Y-51042413D01*
X71868018Y-51033426D01*
X71820480Y-50951087D01*
X71745913Y-50876519D01*
X71745913Y-50876520D01*
X70188896Y-49319503D01*
X70161119Y-49264986D01*
X70170690Y-49204554D01*
X70213955Y-49161289D01*
X70258896Y-49150499D01*
X71894864Y-49150499D01*
X71919991Y-49147585D01*
X72022765Y-49102206D01*
X72102206Y-49022765D01*
X72147585Y-48919991D01*
X72150500Y-48894865D01*
X72150499Y-48658943D01*
X72169406Y-48600756D01*
X72218906Y-48564792D01*
X72280091Y-48564791D01*
X72329591Y-48600755D01*
X72337709Y-48614001D01*
X72385376Y-48707553D01*
X72385380Y-48707559D01*
X72424728Y-48761716D01*
X72424729Y-48761716D01*
X73057037Y-48129407D01*
X73074075Y-48192993D01*
X73139901Y-48307007D01*
X73232993Y-48400099D01*
X73347007Y-48465925D01*
X73410589Y-48482962D01*
X72778282Y-49115269D01*
X72778282Y-49115270D01*
X72832440Y-49154619D01*
X72832446Y-49154623D01*
X73021784Y-49251095D01*
X73223878Y-49316759D01*
X73433750Y-49350000D01*
X73646250Y-49350000D01*
X73856121Y-49316759D01*
X74058215Y-49251095D01*
X74247556Y-49154620D01*
X74301716Y-49115270D01*
X73669408Y-48482962D01*
X73732993Y-48465925D01*
X73847007Y-48400099D01*
X73940099Y-48307007D01*
X74005925Y-48192993D01*
X74022962Y-48129408D01*
X74655270Y-48761716D01*
X74694620Y-48707556D01*
X74791095Y-48518215D01*
X74856759Y-48316121D01*
X74890000Y-48106250D01*
X74890000Y-47893749D01*
X74856759Y-47683878D01*
X74791095Y-47481784D01*
X74694623Y-47292446D01*
X74694619Y-47292440D01*
X74655270Y-47238282D01*
X74655269Y-47238282D01*
X74022962Y-47870589D01*
X74005925Y-47807007D01*
X73940099Y-47692993D01*
X73847007Y-47599901D01*
X73732993Y-47534075D01*
X73669407Y-47517037D01*
X74301716Y-46884729D01*
X74301716Y-46884728D01*
X74247559Y-46845380D01*
X74247553Y-46845376D01*
X74058215Y-46748904D01*
X73856121Y-46683240D01*
X73646250Y-46650000D01*
X73433750Y-46650000D01*
X73223878Y-46683240D01*
X73021784Y-46748904D01*
X72832446Y-46845376D01*
X72832442Y-46845378D01*
X72778282Y-46884728D01*
X73410591Y-47517037D01*
X73347007Y-47534075D01*
X73232993Y-47599901D01*
X73139901Y-47692993D01*
X73074075Y-47807007D01*
X73057037Y-47870591D01*
X72424728Y-47238282D01*
X72385378Y-47292442D01*
X72385376Y-47292446D01*
X72337709Y-47385999D01*
X72294444Y-47429264D01*
X72234012Y-47438835D01*
X72179495Y-47411057D01*
X72151718Y-47356541D01*
X72150499Y-47341054D01*
X72150499Y-47105139D01*
X72150499Y-47105136D01*
X72147585Y-47080009D01*
X72102206Y-46977235D01*
X72022765Y-46897794D01*
X71919991Y-46852415D01*
X71919990Y-46852414D01*
X71919988Y-46852414D01*
X71894869Y-46849500D01*
X71894865Y-46849500D01*
X71887042Y-46849500D01*
X71828851Y-46830593D01*
X71792887Y-46781093D01*
X71792887Y-46719907D01*
X71817038Y-46680496D01*
X72217950Y-46279584D01*
X72658913Y-45838621D01*
X72658916Y-45838620D01*
X72770720Y-45726816D01*
X72849777Y-45589884D01*
X72890700Y-45437157D01*
X72890700Y-8479541D01*
X72909607Y-8421350D01*
X72919690Y-8409544D01*
X73171878Y-8157355D01*
X73226393Y-8129579D01*
X73257363Y-8129579D01*
X73349040Y-8144099D01*
X73389452Y-8150500D01*
X73389454Y-8150500D01*
X73570549Y-8150500D01*
X73659977Y-8136335D01*
X73749409Y-8122171D01*
X73921639Y-8066211D01*
X73921642Y-8066209D01*
X73921646Y-8066208D01*
X74025608Y-8013235D01*
X74072527Y-7989329D01*
X74072530Y-7989328D01*
X74076166Y-7987474D01*
X74082994Y-7983996D01*
X74229501Y-7877553D01*
X74357553Y-7749501D01*
X74463996Y-7602994D01*
X74546211Y-7441639D01*
X74550962Y-7427018D01*
X74586924Y-7377517D01*
X74645115Y-7358608D01*
X74703306Y-7377514D01*
X74739271Y-7427013D01*
X74739272Y-7427015D01*
X74768904Y-7518215D01*
X74865376Y-7707553D01*
X74865380Y-7707559D01*
X74904728Y-7761716D01*
X74904729Y-7761716D01*
X75537037Y-7129407D01*
X75554075Y-7192993D01*
X75619901Y-7307007D01*
X75712993Y-7400099D01*
X75827007Y-7465925D01*
X75890589Y-7482962D01*
X75258282Y-8115269D01*
X75258282Y-8115270D01*
X75312440Y-8154619D01*
X75312446Y-8154623D01*
X75501784Y-8251095D01*
X75703878Y-8316759D01*
X75913750Y-8350000D01*
X76126250Y-8350000D01*
X76336121Y-8316759D01*
X76538215Y-8251095D01*
X76727556Y-8154620D01*
X76781716Y-8115270D01*
X76149408Y-7482962D01*
X76212993Y-7465925D01*
X76327007Y-7400099D01*
X76420099Y-7307007D01*
X76485925Y-7192993D01*
X76502962Y-7129408D01*
X77135270Y-7761716D01*
X77174620Y-7707556D01*
X77271095Y-7518215D01*
X77336759Y-7316121D01*
X77370000Y-7106250D01*
X77370000Y-6893749D01*
X77336759Y-6683878D01*
X77271095Y-6481784D01*
X77174623Y-6292446D01*
X77174619Y-6292440D01*
X77135270Y-6238282D01*
X77135269Y-6238282D01*
X76502962Y-6870589D01*
X76485925Y-6807007D01*
X76420099Y-6692993D01*
X76327007Y-6599901D01*
X76212993Y-6534075D01*
X76149407Y-6517037D01*
X76781716Y-5884729D01*
X76781716Y-5884728D01*
X76727559Y-5845380D01*
X76727553Y-5845376D01*
X76538215Y-5748904D01*
X76336121Y-5683240D01*
X76126250Y-5650000D01*
X75913750Y-5650000D01*
X75703878Y-5683240D01*
X75501784Y-5748904D01*
X75312446Y-5845376D01*
X75312442Y-5845378D01*
X75258282Y-5884728D01*
X75890591Y-6517037D01*
X75827007Y-6534075D01*
X75712993Y-6599901D01*
X75619901Y-6692993D01*
X75554075Y-6807007D01*
X75537037Y-6870591D01*
X74904728Y-6238282D01*
X74865378Y-6292442D01*
X74865376Y-6292446D01*
X74768904Y-6481784D01*
X74739272Y-6572984D01*
X74703308Y-6622484D01*
X74645117Y-6641391D01*
X74586926Y-6622484D01*
X74550962Y-6572984D01*
X74550962Y-6572983D01*
X74546211Y-6558362D01*
X74546211Y-6558361D01*
X74463996Y-6397006D01*
X74357553Y-6250499D01*
X74229501Y-6122447D01*
X74082994Y-6016004D01*
X74082990Y-6016001D01*
X74082988Y-6016000D01*
X74072527Y-6010670D01*
X74072526Y-6010670D01*
X73921637Y-5933788D01*
X73749406Y-5877828D01*
X73570549Y-5849500D01*
X73570546Y-5849500D01*
X73389454Y-5849500D01*
X73389451Y-5849500D01*
X73210593Y-5877828D01*
X73038362Y-5933788D01*
X72877008Y-6016002D01*
X72803752Y-6069225D01*
X72730499Y-6122447D01*
X72602447Y-6250499D01*
X72580941Y-6280100D01*
X72496002Y-6397008D01*
X72413788Y-6558362D01*
X72357828Y-6730593D01*
X72329500Y-6909450D01*
X72329500Y-7090549D01*
X72350419Y-7222630D01*
X72340847Y-7283062D01*
X72322642Y-7308121D01*
X72209759Y-7421004D01*
X72155242Y-7448781D01*
X72094810Y-7439210D01*
X72051545Y-7395945D01*
X72041974Y-7335513D01*
X72045601Y-7320406D01*
X72046994Y-7316121D01*
X72062171Y-7269409D01*
X72074795Y-7189707D01*
X72090500Y-7090549D01*
X72090500Y-6909450D01*
X72062171Y-6730593D01*
X72062171Y-6730591D01*
X72006211Y-6558361D01*
X71923996Y-6397006D01*
X71817553Y-6250499D01*
X71689501Y-6122447D01*
X71542994Y-6016004D01*
X71542993Y-6016003D01*
X71542991Y-6016002D01*
X71381637Y-5933788D01*
X71209406Y-5877828D01*
X71030549Y-5849500D01*
X71030546Y-5849500D01*
X70849454Y-5849500D01*
X70849451Y-5849500D01*
X70670593Y-5877828D01*
X70498362Y-5933788D01*
X70337008Y-6016002D01*
X70263752Y-6069225D01*
X70190499Y-6122447D01*
X70062447Y-6250499D01*
X70040941Y-6280100D01*
X69956002Y-6397008D01*
X69873788Y-6558362D01*
X69817828Y-6730593D01*
X69789500Y-6909450D01*
X69789500Y-7090549D01*
X69817828Y-7269406D01*
X69873788Y-7441637D01*
X69954863Y-7600756D01*
X69956004Y-7602994D01*
X70062447Y-7749501D01*
X70190499Y-7877553D01*
X70337006Y-7983996D01*
X70498361Y-8066211D01*
X70670591Y-8122171D01*
X70742136Y-8133502D01*
X70849451Y-8150500D01*
X70849454Y-8150500D01*
X71030549Y-8150500D01*
X71119977Y-8136335D01*
X71209409Y-8122171D01*
X71381639Y-8066211D01*
X71542994Y-7983996D01*
X71542999Y-7983992D01*
X71546308Y-7981965D01*
X71547176Y-7983382D01*
X71599312Y-7966421D01*
X71657510Y-7985306D01*
X71693493Y-8034792D01*
X71694977Y-8091042D01*
X71689699Y-8110740D01*
X71689699Y-8276831D01*
X71689700Y-8276844D01*
X71689700Y-24954665D01*
X71670793Y-25012856D01*
X71621293Y-25048820D01*
X71560107Y-25048820D01*
X71552815Y-25046129D01*
X71452520Y-25004586D01*
X71278644Y-24970000D01*
X71140001Y-24970000D01*
X71140000Y-24970001D01*
X71140000Y-25620000D01*
X70640000Y-25620000D01*
X70640000Y-24970001D01*
X70639999Y-24970000D01*
X70501355Y-24970000D01*
X70327480Y-25004586D01*
X70327478Y-25004586D01*
X70163691Y-25072429D01*
X70016284Y-25170923D01*
X69890923Y-25296284D01*
X69792430Y-25443689D01*
X69742850Y-25563386D01*
X69703113Y-25609911D01*
X69651386Y-25624500D01*
X69578391Y-25624500D01*
X69457549Y-25648536D01*
X69343714Y-25695688D01*
X69241267Y-25764142D01*
X69241263Y-25764145D01*
X69174604Y-25830805D01*
X69120087Y-25858582D01*
X69059655Y-25849011D01*
X69016390Y-25805746D01*
X69005600Y-25760801D01*
X69005600Y-25619043D01*
X69024507Y-25560852D01*
X69034590Y-25549045D01*
X69085620Y-25498016D01*
X69164677Y-25361084D01*
X69205600Y-25208357D01*
X69205600Y-25050243D01*
X69164677Y-24897516D01*
X69085620Y-24760584D01*
X68973816Y-24648780D01*
X68836884Y-24569723D01*
X68684157Y-24528800D01*
X68526043Y-24528800D01*
X68373316Y-24569723D01*
X68236384Y-24648780D01*
X68124580Y-24760584D01*
X68045523Y-24897516D01*
X68004600Y-25050243D01*
X68004600Y-25208357D01*
X68045523Y-25361084D01*
X68124580Y-25498016D01*
X68175605Y-25549041D01*
X68203381Y-25603556D01*
X68204600Y-25619043D01*
X68204600Y-26829799D01*
X68185693Y-26887990D01*
X68136193Y-26923954D01*
X68075007Y-26923954D01*
X68035596Y-26899803D01*
X67379368Y-26243575D01*
X67351591Y-26189058D01*
X67361162Y-26128626D01*
X67379365Y-26103570D01*
X67391120Y-26091816D01*
X67470177Y-25954884D01*
X67511100Y-25802157D01*
X67511100Y-25644043D01*
X67470177Y-25491316D01*
X67391120Y-25354384D01*
X67279316Y-25242580D01*
X67142384Y-25163523D01*
X66989657Y-25122600D01*
X66831543Y-25122600D01*
X66678816Y-25163523D01*
X66541884Y-25242580D01*
X66430080Y-25354384D01*
X66351023Y-25491316D01*
X66310100Y-25644043D01*
X66310100Y-25802157D01*
X66351023Y-25954884D01*
X66430080Y-26091816D01*
X66481105Y-26142841D01*
X66508881Y-26197356D01*
X66510100Y-26212843D01*
X66510100Y-26288473D01*
X66510100Y-26393927D01*
X66528608Y-26463000D01*
X66537394Y-26495792D01*
X66590116Y-26587108D01*
X66590117Y-26587109D01*
X66590118Y-26587110D01*
X66590120Y-26587113D01*
X68121723Y-28118716D01*
X69643236Y-29640229D01*
X69670330Y-29690919D01*
X69688536Y-29782450D01*
X69688537Y-29782452D01*
X69721742Y-29862615D01*
X69726543Y-29923611D01*
X69694574Y-29975780D01*
X69638046Y-29999195D01*
X69630278Y-29999500D01*
X68717299Y-29999500D01*
X68659108Y-29980593D01*
X68647295Y-29970503D01*
X68440885Y-29764093D01*
X68205813Y-29529020D01*
X68205808Y-29529016D01*
X68114491Y-29476294D01*
X68114493Y-29476294D01*
X68074970Y-29465704D01*
X68012627Y-29449000D01*
X68012625Y-29449000D01*
X64263100Y-29449000D01*
X64204909Y-29430093D01*
X64168945Y-29380593D01*
X64164100Y-29350000D01*
X64164100Y-25630800D01*
X64183007Y-25572609D01*
X64193096Y-25560796D01*
X66848096Y-22905796D01*
X66902613Y-22878019D01*
X66918100Y-22876800D01*
X66990255Y-22876800D01*
X66990257Y-22876800D01*
X67142984Y-22835877D01*
X67279916Y-22756820D01*
X67391720Y-22645016D01*
X67470777Y-22508084D01*
X67511700Y-22355357D01*
X67511700Y-22197243D01*
X67470777Y-22044516D01*
X67391720Y-21907584D01*
X67279916Y-21795780D01*
X67142984Y-21716723D01*
X66990257Y-21675800D01*
X66832143Y-21675800D01*
X66679416Y-21716723D01*
X66542484Y-21795780D01*
X66430680Y-21907584D01*
X66351623Y-22044516D01*
X66310700Y-22197244D01*
X66310700Y-22269399D01*
X66291793Y-22327590D01*
X66281704Y-22339403D01*
X63443116Y-25177991D01*
X63390395Y-25269306D01*
X63390393Y-25269310D01*
X63390393Y-25269312D01*
X63376115Y-25322600D01*
X63376115Y-25322601D01*
X63376114Y-25322600D01*
X63363100Y-25371173D01*
X63363100Y-29359756D01*
X63344193Y-29417947D01*
X63334104Y-29429759D01*
X63283082Y-29480781D01*
X63283080Y-29480783D01*
X63283080Y-29480784D01*
X63204023Y-29617716D01*
X63163100Y-29770443D01*
X63163100Y-29928557D01*
X63204023Y-30081284D01*
X63283080Y-30218216D01*
X63394884Y-30330020D01*
X63531816Y-30409077D01*
X63684543Y-30450000D01*
X63684545Y-30450000D01*
X63842655Y-30450000D01*
X63842657Y-30450000D01*
X63995384Y-30409077D01*
X64132316Y-30330020D01*
X64157829Y-30304506D01*
X64183341Y-30278996D01*
X64237858Y-30251219D01*
X64253344Y-30250000D01*
X67680657Y-30250000D01*
X67738848Y-30268907D01*
X67774812Y-30318407D01*
X67774812Y-30379593D01*
X67750662Y-30419001D01*
X67688880Y-30480784D01*
X67609823Y-30617716D01*
X67568900Y-30770443D01*
X67568900Y-30928557D01*
X67609823Y-31081284D01*
X67688880Y-31218216D01*
X67800684Y-31330020D01*
X67937616Y-31409077D01*
X68090343Y-31450000D01*
X68090345Y-31450000D01*
X68248455Y-31450000D01*
X68248457Y-31450000D01*
X68401184Y-31409077D01*
X68538116Y-31330020D01*
X68649920Y-31218216D01*
X68728977Y-31081284D01*
X68769900Y-30928557D01*
X68769900Y-30899500D01*
X68788807Y-30841309D01*
X68838307Y-30805345D01*
X68868900Y-30800500D01*
X69630278Y-30800500D01*
X69688469Y-30819407D01*
X69724433Y-30868907D01*
X69724433Y-30930093D01*
X69721746Y-30937374D01*
X69717214Y-30948317D01*
X69688536Y-31017549D01*
X69664500Y-31138391D01*
X69664500Y-31261608D01*
X69688536Y-31382450D01*
X69735688Y-31496285D01*
X69741193Y-31504523D01*
X69804142Y-31598733D01*
X69891267Y-31685858D01*
X69993714Y-31754311D01*
X70107548Y-31801463D01*
X70107553Y-31801464D01*
X70112206Y-31802876D01*
X70111769Y-31804314D01*
X70159584Y-31831076D01*
X70185213Y-31886635D01*
X70173291Y-31946648D01*
X70128371Y-31988191D01*
X70106218Y-31995392D01*
X70049362Y-32006702D01*
X70049354Y-32006704D01*
X69908571Y-32065017D01*
X69908571Y-32065018D01*
X70357997Y-32514443D01*
X70385092Y-32565132D01*
X70388537Y-32582453D01*
X70412041Y-32639198D01*
X70403291Y-32630448D01*
X70329782Y-32600000D01*
X70250218Y-32600000D01*
X70176709Y-32630448D01*
X70120448Y-32686709D01*
X70090000Y-32760218D01*
X70090000Y-32839782D01*
X70120448Y-32913291D01*
X70176709Y-32969552D01*
X70250218Y-33000000D01*
X70329782Y-33000000D01*
X70403291Y-32969552D01*
X70459552Y-32913291D01*
X70490000Y-32839782D01*
X70490000Y-32777568D01*
X70504142Y-32798733D01*
X70591267Y-32885858D01*
X70693714Y-32954311D01*
X70807548Y-33001463D01*
X70824863Y-33004907D01*
X70875553Y-33032001D01*
X70968552Y-33124999D01*
X70968553Y-33125000D01*
X71005262Y-33125000D01*
X71070938Y-33070478D01*
X71072726Y-33066163D01*
X71112461Y-33019635D01*
X71144876Y-33006947D01*
X71172452Y-33001463D01*
X71286286Y-32954311D01*
X71388733Y-32885858D01*
X71475858Y-32798733D01*
X71508386Y-32750051D01*
X71556434Y-32712173D01*
X71617573Y-32709771D01*
X71668446Y-32743764D01*
X71689624Y-32801167D01*
X71689700Y-32805054D01*
X71689700Y-33214665D01*
X71670793Y-33272856D01*
X71621293Y-33308820D01*
X71560107Y-33308820D01*
X71552815Y-33306129D01*
X71452520Y-33264586D01*
X71278644Y-33230000D01*
X71188765Y-33230000D01*
X71140000Y-33270482D01*
X71140000Y-33880000D01*
X70640000Y-33880000D01*
X70640000Y-33503554D01*
X69555017Y-32418571D01*
X69496704Y-32559354D01*
X69496704Y-32559356D01*
X69465000Y-32718742D01*
X69465000Y-32881260D01*
X69479092Y-32952107D01*
X69471900Y-33012868D01*
X69430366Y-33057798D01*
X69419881Y-33062883D01*
X69417865Y-33063717D01*
X69286639Y-33139481D01*
X69179481Y-33246639D01*
X69103720Y-33377860D01*
X69082858Y-33455719D01*
X69064500Y-33524234D01*
X69064500Y-33675766D01*
X69082033Y-33741200D01*
X69103720Y-33822139D01*
X69179481Y-33953360D01*
X69179483Y-33953362D01*
X69179485Y-33953365D01*
X69286635Y-34060515D01*
X69286637Y-34060516D01*
X69286639Y-34060518D01*
X69417861Y-34136279D01*
X69417859Y-34136279D01*
X69417863Y-34136280D01*
X69417865Y-34136281D01*
X69564234Y-34175500D01*
X69564236Y-34175500D01*
X69600171Y-34175500D01*
X69658362Y-34194407D01*
X69694326Y-34243907D01*
X69697269Y-34255186D01*
X69724586Y-34392519D01*
X69724586Y-34392521D01*
X69792429Y-34556308D01*
X69890923Y-34703715D01*
X70016284Y-34829076D01*
X70163691Y-34927570D01*
X70327479Y-34995413D01*
X70501355Y-35029999D01*
X70501359Y-35030000D01*
X70639999Y-35030000D01*
X70640000Y-35029999D01*
X70640000Y-34380000D01*
X71140000Y-34380000D01*
X71140000Y-35029999D01*
X71140001Y-35030000D01*
X71278641Y-35030000D01*
X71278644Y-35029999D01*
X71452518Y-34995414D01*
X71552814Y-34953870D01*
X71613811Y-34949069D01*
X71665980Y-34981038D01*
X71689395Y-35037566D01*
X71689700Y-35045334D01*
X71689700Y-45068356D01*
X71670793Y-45126547D01*
X71660704Y-45138360D01*
X70631284Y-46167780D01*
X70631283Y-46167779D01*
X70519479Y-46279584D01*
X70469359Y-46366395D01*
X70440425Y-46416509D01*
X70440423Y-46416513D01*
X70440423Y-46416515D01*
X70399499Y-46569243D01*
X70399499Y-46569245D01*
X70399499Y-46735331D01*
X70399500Y-46735344D01*
X70399500Y-46750500D01*
X70380593Y-46808691D01*
X70331093Y-46844655D01*
X70300500Y-46849500D01*
X70105140Y-46849500D01*
X70105135Y-46849501D01*
X70080009Y-46852414D01*
X69977235Y-46897794D01*
X69897794Y-46977235D01*
X69852414Y-47080011D01*
X69849500Y-47105130D01*
X69849500Y-48741099D01*
X69830593Y-48799290D01*
X69781093Y-48835254D01*
X69719907Y-48835254D01*
X69680496Y-48811103D01*
X55195536Y-34326143D01*
X56484300Y-34326143D01*
X56484300Y-34484257D01*
X56525223Y-34636984D01*
X56604280Y-34773916D01*
X56716084Y-34885720D01*
X56853016Y-34964777D01*
X57005743Y-35005700D01*
X57005745Y-35005700D01*
X57163855Y-35005700D01*
X57163857Y-35005700D01*
X57316584Y-34964777D01*
X57453516Y-34885720D01*
X57565320Y-34773916D01*
X57644377Y-34636984D01*
X57685300Y-34484257D01*
X57685300Y-34326143D01*
X57644377Y-34173416D01*
X57565320Y-34036484D01*
X57453516Y-33924680D01*
X57316584Y-33845623D01*
X57163857Y-33804700D01*
X57005743Y-33804700D01*
X56853016Y-33845623D01*
X56716084Y-33924680D01*
X56604280Y-34036484D01*
X56525223Y-34173416D01*
X56484300Y-34326143D01*
X55195536Y-34326143D01*
X52781436Y-31912043D01*
X56690000Y-31912043D01*
X56690000Y-32070157D01*
X56730923Y-32222884D01*
X56809980Y-32359816D01*
X56921784Y-32471620D01*
X57058716Y-32550677D01*
X57211443Y-32591600D01*
X57211445Y-32591600D01*
X57369555Y-32591600D01*
X57369557Y-32591600D01*
X57522284Y-32550677D01*
X57659216Y-32471620D01*
X57771020Y-32359816D01*
X57850077Y-32222884D01*
X57891000Y-32070157D01*
X57891000Y-31912043D01*
X57850077Y-31759316D01*
X57771020Y-31622384D01*
X57659216Y-31510580D01*
X57522284Y-31431523D01*
X57369557Y-31390600D01*
X57211443Y-31390600D01*
X57058716Y-31431523D01*
X56921784Y-31510580D01*
X56809980Y-31622384D01*
X56730923Y-31759316D01*
X56690000Y-31912043D01*
X52781436Y-31912043D01*
X50873736Y-30004343D01*
X51806100Y-30004343D01*
X51806100Y-30162457D01*
X51847023Y-30315184D01*
X51926080Y-30452116D01*
X52037884Y-30563920D01*
X52174816Y-30642977D01*
X52327543Y-30683900D01*
X52327545Y-30683900D01*
X52485655Y-30683900D01*
X52485657Y-30683900D01*
X52638384Y-30642977D01*
X52775316Y-30563920D01*
X52887120Y-30452116D01*
X52966177Y-30315184D01*
X53007100Y-30162457D01*
X53007100Y-30004343D01*
X53006644Y-30002643D01*
X53991200Y-30002643D01*
X53991200Y-30160757D01*
X54032123Y-30313484D01*
X54111180Y-30450416D01*
X54222984Y-30562220D01*
X54359916Y-30641277D01*
X54512643Y-30682200D01*
X54512645Y-30682200D01*
X54670755Y-30682200D01*
X54670757Y-30682200D01*
X54823484Y-30641277D01*
X54960416Y-30562220D01*
X55072220Y-30450416D01*
X55151277Y-30313484D01*
X55192200Y-30160757D01*
X55192200Y-30002643D01*
X55151277Y-29849916D01*
X55072220Y-29712984D01*
X54960416Y-29601180D01*
X54823484Y-29522123D01*
X54670757Y-29481200D01*
X54512643Y-29481200D01*
X54359916Y-29522123D01*
X54222984Y-29601180D01*
X54111180Y-29712984D01*
X54032123Y-29849916D01*
X53991200Y-30002643D01*
X53006644Y-30002643D01*
X52966177Y-29851616D01*
X52887120Y-29714684D01*
X52775316Y-29602880D01*
X52638384Y-29523823D01*
X52485657Y-29482900D01*
X52327543Y-29482900D01*
X52174816Y-29523823D01*
X52037884Y-29602880D01*
X51926080Y-29714684D01*
X51847023Y-29851616D01*
X51806100Y-30004343D01*
X50873736Y-30004343D01*
X47966336Y-27096943D01*
X51659600Y-27096943D01*
X51659600Y-27255057D01*
X51700523Y-27407784D01*
X51779580Y-27544716D01*
X51891384Y-27656520D01*
X52028316Y-27735577D01*
X52181043Y-27776500D01*
X52181045Y-27776500D01*
X52339155Y-27776500D01*
X52339157Y-27776500D01*
X52491884Y-27735577D01*
X52628816Y-27656520D01*
X52740620Y-27544716D01*
X52819677Y-27407784D01*
X52860600Y-27255057D01*
X52860600Y-27096943D01*
X52819677Y-26944216D01*
X52740620Y-26807284D01*
X52628816Y-26695480D01*
X52491884Y-26616423D01*
X52339157Y-26575500D01*
X52181043Y-26575500D01*
X52028316Y-26616423D01*
X51891384Y-26695480D01*
X51779580Y-26807284D01*
X51700523Y-26944216D01*
X51659600Y-27096943D01*
X47966336Y-27096943D01*
X47125788Y-26256395D01*
X47098011Y-26201878D01*
X47107582Y-26141446D01*
X47146292Y-26100656D01*
X47171816Y-26085920D01*
X47283620Y-25974116D01*
X47362677Y-25837184D01*
X47403600Y-25684457D01*
X47403600Y-25526343D01*
X47362677Y-25373616D01*
X47287535Y-25243466D01*
X47274815Y-25183619D01*
X47287534Y-25144471D01*
X47328577Y-25073384D01*
X47369500Y-24920657D01*
X47369500Y-24804343D01*
X48649400Y-24804343D01*
X48649400Y-24962457D01*
X48690323Y-25115184D01*
X48769380Y-25252116D01*
X48881184Y-25363920D01*
X49018116Y-25442977D01*
X49170843Y-25483900D01*
X49170845Y-25483900D01*
X49328955Y-25483900D01*
X49328957Y-25483900D01*
X49481684Y-25442977D01*
X49618616Y-25363920D01*
X49730420Y-25252116D01*
X49809477Y-25115184D01*
X49850400Y-24962457D01*
X49850400Y-24804343D01*
X49809477Y-24651616D01*
X49766701Y-24577525D01*
X51079500Y-24577525D01*
X51079500Y-24722475D01*
X51095299Y-24781436D01*
X51117017Y-24862489D01*
X51189487Y-24988010D01*
X51189489Y-24988012D01*
X51189491Y-24988015D01*
X51291985Y-25090509D01*
X51291987Y-25090510D01*
X51291989Y-25090512D01*
X51417511Y-25162982D01*
X51417512Y-25162982D01*
X51417515Y-25162984D01*
X51557525Y-25200500D01*
X51557526Y-25200500D01*
X51702474Y-25200500D01*
X51702475Y-25200500D01*
X51842485Y-25162984D01*
X51842487Y-25162982D01*
X51842489Y-25162982D01*
X51968010Y-25090512D01*
X51968010Y-25090511D01*
X51968015Y-25090509D01*
X52070509Y-24988015D01*
X52079714Y-24972072D01*
X52142982Y-24862489D01*
X52142982Y-24862487D01*
X52142984Y-24862485D01*
X52180500Y-24722475D01*
X52180500Y-24577525D01*
X52142984Y-24437515D01*
X52142982Y-24437512D01*
X52142982Y-24437510D01*
X52070512Y-24311989D01*
X52070510Y-24311987D01*
X52070509Y-24311985D01*
X51968015Y-24209491D01*
X51968012Y-24209489D01*
X51968010Y-24209487D01*
X51842488Y-24137017D01*
X51842489Y-24137017D01*
X51812896Y-24129087D01*
X51702475Y-24099500D01*
X51557525Y-24099500D01*
X51495790Y-24116041D01*
X51417510Y-24137017D01*
X51291989Y-24209487D01*
X51189487Y-24311989D01*
X51117017Y-24437510D01*
X51099364Y-24503392D01*
X51079500Y-24577525D01*
X49766701Y-24577525D01*
X49730420Y-24514684D01*
X49618616Y-24402880D01*
X49481684Y-24323823D01*
X49328957Y-24282900D01*
X49170843Y-24282900D01*
X49018116Y-24323823D01*
X48881184Y-24402880D01*
X48769380Y-24514684D01*
X48690323Y-24651616D01*
X48649400Y-24804343D01*
X47369500Y-24804343D01*
X47369500Y-24762543D01*
X47328577Y-24609816D01*
X47249520Y-24472884D01*
X47137716Y-24361080D01*
X47000784Y-24282023D01*
X46848057Y-24241100D01*
X46689943Y-24241100D01*
X46537216Y-24282023D01*
X46400284Y-24361080D01*
X46288480Y-24472884D01*
X46209423Y-24609816D01*
X46168500Y-24762543D01*
X46168500Y-24920657D01*
X46209423Y-25073383D01*
X46211103Y-25079652D01*
X46208424Y-25080369D01*
X46212300Y-25129775D01*
X46180317Y-25181936D01*
X46123784Y-25205337D01*
X46064292Y-25191038D01*
X46046037Y-25176644D01*
X45462042Y-24592649D01*
X45434265Y-24538132D01*
X45436420Y-24497022D01*
X45439600Y-24485157D01*
X45439600Y-24327043D01*
X45398677Y-24174316D01*
X45346872Y-24084587D01*
X45334152Y-24024740D01*
X45359039Y-23968845D01*
X45362587Y-23965104D01*
X46437000Y-22890691D01*
X50374500Y-22890691D01*
X50374500Y-23009309D01*
X50401574Y-23110351D01*
X50405202Y-23123890D01*
X50464507Y-23226608D01*
X50464509Y-23226610D01*
X50464511Y-23226613D01*
X50548387Y-23310489D01*
X50548389Y-23310490D01*
X50548391Y-23310492D01*
X50651110Y-23369797D01*
X50651111Y-23369797D01*
X50651114Y-23369799D01*
X50765691Y-23400500D01*
X50765693Y-23400500D01*
X50884307Y-23400500D01*
X50884309Y-23400500D01*
X50998886Y-23369799D01*
X50998888Y-23369797D01*
X50998890Y-23369797D01*
X51101608Y-23310492D01*
X51101608Y-23310491D01*
X51101613Y-23310489D01*
X51185489Y-23226613D01*
X51244799Y-23123886D01*
X51275500Y-23009309D01*
X51275500Y-22890691D01*
X51244799Y-22776114D01*
X51244797Y-22776111D01*
X51244797Y-22776109D01*
X51185492Y-22673391D01*
X51185490Y-22673389D01*
X51185489Y-22673387D01*
X51101613Y-22589511D01*
X51101610Y-22589509D01*
X51101608Y-22589507D01*
X50998889Y-22530202D01*
X50998890Y-22530202D01*
X50985160Y-22526523D01*
X50884309Y-22499500D01*
X50765691Y-22499500D01*
X50695567Y-22518289D01*
X50651109Y-22530202D01*
X50548391Y-22589507D01*
X50464507Y-22673391D01*
X50405202Y-22776109D01*
X50405201Y-22776114D01*
X50374500Y-22890691D01*
X46437000Y-22890691D01*
X51264284Y-18063407D01*
X51272158Y-18056336D01*
X51292373Y-18040045D01*
X51300628Y-18028736D01*
X51310586Y-18017106D01*
X51320480Y-18007213D01*
X51333473Y-17984707D01*
X51339228Y-17975866D01*
X51354554Y-17954876D01*
X51359596Y-17941829D01*
X51366208Y-17928010D01*
X51373205Y-17915892D01*
X51373206Y-17915890D01*
X51379928Y-17890802D01*
X51383213Y-17880730D01*
X52640227Y-14628710D01*
X53399500Y-14628710D01*
X53399500Y-14871289D01*
X53431161Y-15111781D01*
X53431161Y-15111786D01*
X53439523Y-15142994D01*
X53478780Y-15289502D01*
X53493944Y-15346092D01*
X53493948Y-15346105D01*
X53586772Y-15570204D01*
X53586774Y-15570208D01*
X53586776Y-15570212D01*
X53708064Y-15780289D01*
X53708066Y-15780292D01*
X53855729Y-15972731D01*
X53855731Y-15972733D01*
X53855735Y-15972738D01*
X54027262Y-16144265D01*
X54027265Y-16144267D01*
X54027268Y-16144270D01*
X54219707Y-16291933D01*
X54219711Y-16291936D01*
X54429788Y-16413224D01*
X54653900Y-16506054D01*
X54888211Y-16568838D01*
X55128712Y-16600500D01*
X55128713Y-16600500D01*
X55371287Y-16600500D01*
X55371288Y-16600500D01*
X55611789Y-16568838D01*
X55846100Y-16506054D01*
X56070212Y-16413224D01*
X56280289Y-16291936D01*
X56472738Y-16144265D01*
X56644265Y-15972738D01*
X56791936Y-15780289D01*
X56913224Y-15570212D01*
X57006054Y-15346100D01*
X57068838Y-15111789D01*
X57100500Y-14871288D01*
X57100500Y-14628712D01*
X57068838Y-14388211D01*
X57006054Y-14153900D01*
X56913224Y-13929788D01*
X56791936Y-13719711D01*
X56791933Y-13719707D01*
X56644270Y-13527268D01*
X56644268Y-13527266D01*
X56644265Y-13527262D01*
X56472738Y-13355735D01*
X56472733Y-13355731D01*
X56472731Y-13355729D01*
X56280292Y-13208066D01*
X56276963Y-13206144D01*
X56070212Y-13086776D01*
X56070208Y-13086774D01*
X56070204Y-13086772D01*
X55846105Y-12993948D01*
X55846104Y-12993947D01*
X55846100Y-12993946D01*
X55611789Y-12931162D01*
X55611786Y-12931161D01*
X55611784Y-12931161D01*
X55371289Y-12899500D01*
X55371288Y-12899500D01*
X55128712Y-12899500D01*
X55128710Y-12899500D01*
X54888218Y-12931161D01*
X54888213Y-12931161D01*
X54653907Y-12993944D01*
X54653894Y-12993948D01*
X54429795Y-13086772D01*
X54219707Y-13208066D01*
X54027268Y-13355729D01*
X53855729Y-13527268D01*
X53708066Y-13719707D01*
X53586772Y-13929795D01*
X53493948Y-14153894D01*
X53493944Y-14153907D01*
X53431161Y-14388213D01*
X53431161Y-14388218D01*
X53399500Y-14628710D01*
X52640227Y-14628710D01*
X54222669Y-10534773D01*
X54261284Y-10487315D01*
X54320421Y-10471616D01*
X54333988Y-10473303D01*
X57916174Y-11172994D01*
X57918884Y-11173565D01*
X57963323Y-11183588D01*
X57969121Y-11184116D01*
X57974964Y-11184478D01*
X57974972Y-11184480D01*
X58020427Y-11181342D01*
X58023150Y-11181194D01*
X58068692Y-11179373D01*
X58068695Y-11179372D01*
X58068696Y-11179372D01*
X58074427Y-11178383D01*
X58080166Y-11177220D01*
X58080175Y-11177220D01*
X58123232Y-11162437D01*
X58125876Y-11161571D01*
X58169381Y-11148030D01*
X58169381Y-11148029D01*
X58169384Y-11148029D01*
X58174629Y-11145606D01*
X58179908Y-11142980D01*
X58179915Y-11142978D01*
X58217697Y-11117543D01*
X58220008Y-11116035D01*
X58258525Y-11091695D01*
X58258526Y-11091692D01*
X58258530Y-11091691D01*
X58263015Y-11087954D01*
X58267390Y-11084092D01*
X58267390Y-11084091D01*
X58267394Y-11084089D01*
X58297329Y-11049714D01*
X58299136Y-11047698D01*
X58527536Y-10800264D01*
X58530204Y-10797487D01*
X58560480Y-10767213D01*
X58560483Y-10767208D01*
X58564432Y-10762062D01*
X58564585Y-10762179D01*
X58566467Y-10759622D01*
X58566309Y-10759510D01*
X58570046Y-10754213D01*
X58570052Y-10754207D01*
X58589960Y-10716302D01*
X58591797Y-10712968D01*
X58613207Y-10675887D01*
X58613207Y-10675884D01*
X58613209Y-10675882D01*
X58615692Y-10669889D01*
X58615870Y-10669962D01*
X58617026Y-10667006D01*
X58616844Y-10666939D01*
X58619082Y-10660857D01*
X58619087Y-10660848D01*
X58625045Y-10634427D01*
X58628497Y-10619125D01*
X58629439Y-10615304D01*
X58640500Y-10574027D01*
X58640500Y-10574026D01*
X58641347Y-10567594D01*
X58641537Y-10567619D01*
X58641889Y-10564463D01*
X58641699Y-10564446D01*
X58642287Y-10557983D01*
X58642286Y-10557982D01*
X58642288Y-10557978D01*
X58640579Y-10515254D01*
X58640500Y-10511298D01*
X58640500Y-8147839D01*
X58659407Y-8089648D01*
X58694552Y-8059631D01*
X58842994Y-7983996D01*
X58989501Y-7877553D01*
X59117553Y-7749501D01*
X59223996Y-7602994D01*
X59306211Y-7441639D01*
X59362171Y-7269409D01*
X59390500Y-7090546D01*
X59390500Y-6909454D01*
X59390500Y-6909450D01*
X59362171Y-6730593D01*
X59362171Y-6730591D01*
X59306211Y-6558361D01*
X59306210Y-6558359D01*
X59306208Y-6558353D01*
X59237774Y-6424045D01*
X59228202Y-6363613D01*
X59255979Y-6309097D01*
X59310496Y-6281319D01*
X59325983Y-6280100D01*
X59452699Y-6280100D01*
X59510890Y-6299007D01*
X59522703Y-6309096D01*
X59685158Y-6471551D01*
X59712935Y-6526068D01*
X59709309Y-6572147D01*
X59657828Y-6730593D01*
X59629500Y-6909450D01*
X59629500Y-7090549D01*
X59657828Y-7269406D01*
X59713788Y-7441637D01*
X59794863Y-7600756D01*
X59796004Y-7602994D01*
X59902447Y-7749501D01*
X60030499Y-7877553D01*
X60177006Y-7983996D01*
X60338361Y-8066211D01*
X60510591Y-8122171D01*
X60582136Y-8133502D01*
X60689451Y-8150500D01*
X60689454Y-8150500D01*
X60870549Y-8150500D01*
X60959977Y-8136335D01*
X61049409Y-8122171D01*
X61221639Y-8066211D01*
X61382994Y-7983996D01*
X61529501Y-7877553D01*
X61657553Y-7749501D01*
X61763996Y-7602994D01*
X61846211Y-7441639D01*
X61902171Y-7269409D01*
X61930500Y-7090546D01*
X61930500Y-6909454D01*
X61930500Y-6909450D01*
X62169500Y-6909450D01*
X62169500Y-7090549D01*
X62197828Y-7269406D01*
X62253788Y-7441637D01*
X62334863Y-7600756D01*
X62336004Y-7602994D01*
X62442447Y-7749501D01*
X62570499Y-7877553D01*
X62717006Y-7983996D01*
X62878361Y-8066211D01*
X63050591Y-8122171D01*
X63122136Y-8133502D01*
X63229451Y-8150500D01*
X63229454Y-8150500D01*
X63410549Y-8150500D01*
X63499977Y-8136335D01*
X63589409Y-8122171D01*
X63761639Y-8066211D01*
X63922994Y-7983996D01*
X64069501Y-7877553D01*
X64197553Y-7749501D01*
X64303996Y-7602994D01*
X64386211Y-7441639D01*
X64442171Y-7269409D01*
X64470500Y-7090546D01*
X64470500Y-6909454D01*
X64470500Y-6909450D01*
X64709500Y-6909450D01*
X64709500Y-7090549D01*
X64737828Y-7269406D01*
X64793788Y-7441637D01*
X64874863Y-7600756D01*
X64876004Y-7602994D01*
X64982447Y-7749501D01*
X65110499Y-7877553D01*
X65257006Y-7983996D01*
X65418361Y-8066211D01*
X65590591Y-8122171D01*
X65662136Y-8133502D01*
X65769451Y-8150500D01*
X65769454Y-8150500D01*
X65950549Y-8150500D01*
X66039977Y-8136335D01*
X66129409Y-8122171D01*
X66301639Y-8066211D01*
X66462994Y-7983996D01*
X66609501Y-7877553D01*
X66737553Y-7749501D01*
X66843996Y-7602994D01*
X66926211Y-7441639D01*
X66982171Y-7269409D01*
X67010500Y-7090546D01*
X67010500Y-6909454D01*
X67010500Y-6909450D01*
X67249500Y-6909450D01*
X67249500Y-7090549D01*
X67277828Y-7269406D01*
X67333788Y-7441637D01*
X67414863Y-7600756D01*
X67416004Y-7602994D01*
X67522447Y-7749501D01*
X67650499Y-7877553D01*
X67797006Y-7983996D01*
X67958361Y-8066211D01*
X68130591Y-8122171D01*
X68202136Y-8133502D01*
X68309451Y-8150500D01*
X68309454Y-8150500D01*
X68490549Y-8150500D01*
X68579977Y-8136335D01*
X68669409Y-8122171D01*
X68841639Y-8066211D01*
X69002994Y-7983996D01*
X69149501Y-7877553D01*
X69277553Y-7749501D01*
X69383996Y-7602994D01*
X69466211Y-7441639D01*
X69522171Y-7269409D01*
X69550500Y-7090546D01*
X69550500Y-6909454D01*
X69550500Y-6909450D01*
X69522171Y-6730593D01*
X69522171Y-6730591D01*
X69466211Y-6558361D01*
X69383996Y-6397006D01*
X69277553Y-6250499D01*
X69149501Y-6122447D01*
X69002994Y-6016004D01*
X69002993Y-6016003D01*
X69002991Y-6016002D01*
X68841637Y-5933788D01*
X68669406Y-5877828D01*
X68490549Y-5849500D01*
X68490546Y-5849500D01*
X68309454Y-5849500D01*
X68309451Y-5849500D01*
X68130593Y-5877828D01*
X67958362Y-5933788D01*
X67797008Y-6016002D01*
X67723752Y-6069225D01*
X67650499Y-6122447D01*
X67522447Y-6250499D01*
X67500941Y-6280100D01*
X67416002Y-6397008D01*
X67333788Y-6558362D01*
X67277828Y-6730593D01*
X67249500Y-6909450D01*
X67010500Y-6909450D01*
X66982171Y-6730593D01*
X66982171Y-6730591D01*
X66926211Y-6558361D01*
X66843996Y-6397006D01*
X66737553Y-6250499D01*
X66609501Y-6122447D01*
X66462994Y-6016004D01*
X66462993Y-6016003D01*
X66462991Y-6016002D01*
X66301637Y-5933788D01*
X66129406Y-5877828D01*
X65950549Y-5849500D01*
X65950546Y-5849500D01*
X65769454Y-5849500D01*
X65769451Y-5849500D01*
X65590593Y-5877828D01*
X65418362Y-5933788D01*
X65257008Y-6016002D01*
X65183752Y-6069225D01*
X65110499Y-6122447D01*
X64982447Y-6250499D01*
X64960941Y-6280100D01*
X64876002Y-6397008D01*
X64793788Y-6558362D01*
X64737828Y-6730593D01*
X64709500Y-6909450D01*
X64470500Y-6909450D01*
X64442171Y-6730593D01*
X64442171Y-6730591D01*
X64386211Y-6558361D01*
X64303996Y-6397006D01*
X64197553Y-6250499D01*
X64069501Y-6122447D01*
X63922994Y-6016004D01*
X63922993Y-6016003D01*
X63922991Y-6016002D01*
X63761637Y-5933788D01*
X63589406Y-5877828D01*
X63410549Y-5849500D01*
X63410546Y-5849500D01*
X63229454Y-5849500D01*
X63229451Y-5849500D01*
X63050593Y-5877828D01*
X62878362Y-5933788D01*
X62717008Y-6016002D01*
X62643752Y-6069225D01*
X62570499Y-6122447D01*
X62442447Y-6250499D01*
X62420941Y-6280100D01*
X62336002Y-6397008D01*
X62253788Y-6558362D01*
X62197828Y-6730593D01*
X62169500Y-6909450D01*
X61930500Y-6909450D01*
X61902171Y-6730593D01*
X61902171Y-6730591D01*
X61846211Y-6558361D01*
X61763996Y-6397006D01*
X61657553Y-6250499D01*
X61529501Y-6122447D01*
X61382994Y-6016004D01*
X61382993Y-6016003D01*
X61382991Y-6016002D01*
X61221637Y-5933788D01*
X61049406Y-5877828D01*
X60870549Y-5849500D01*
X60870546Y-5849500D01*
X60689454Y-5849500D01*
X60689451Y-5849500D01*
X60510593Y-5877828D01*
X60352147Y-5929309D01*
X60290962Y-5929308D01*
X60251552Y-5905158D01*
X59905513Y-5559120D01*
X59905508Y-5559116D01*
X59814192Y-5506394D01*
X59782808Y-5497985D01*
X59712327Y-5479100D01*
X47539173Y-5479100D01*
X47437313Y-5506393D01*
X47437312Y-5506393D01*
X47437310Y-5506394D01*
X47345987Y-5559119D01*
X46698252Y-6206853D01*
X46674695Y-6218855D01*
X46022962Y-6870590D01*
X46005925Y-6807007D01*
X45940099Y-6692993D01*
X45847007Y-6599901D01*
X45732993Y-6534075D01*
X45669407Y-6517037D01*
X46301716Y-5884729D01*
X46301716Y-5884728D01*
X46247559Y-5845380D01*
X46247553Y-5845376D01*
X46058215Y-5748904D01*
X45856121Y-5683240D01*
X45646250Y-5650000D01*
X45433750Y-5650000D01*
X45223878Y-5683240D01*
X45021784Y-5748904D01*
X44832446Y-5845376D01*
X44832442Y-5845378D01*
X44778282Y-5884728D01*
X45410591Y-6517037D01*
X45347007Y-6534075D01*
X45232993Y-6599901D01*
X45139901Y-6692993D01*
X45074075Y-6807007D01*
X45057037Y-6870591D01*
X44424728Y-6238282D01*
X44385378Y-6292442D01*
X44385376Y-6292446D01*
X44337709Y-6385999D01*
X44294444Y-6429264D01*
X44234012Y-6438835D01*
X44179495Y-6411057D01*
X44151718Y-6356541D01*
X44150499Y-6341054D01*
X44150499Y-6105139D01*
X44150499Y-6105136D01*
X44147585Y-6080009D01*
X44102206Y-5977235D01*
X44022765Y-5897794D01*
X43919991Y-5852415D01*
X43919990Y-5852414D01*
X43919988Y-5852414D01*
X43894868Y-5849500D01*
X42105139Y-5849500D01*
X42105136Y-5849501D01*
X42080009Y-5852414D01*
X41977235Y-5897794D01*
X41897794Y-5977235D01*
X41852414Y-6080011D01*
X41849500Y-6105130D01*
X41849500Y-7894860D01*
X41849501Y-7894863D01*
X41852414Y-7919990D01*
X41869204Y-7958015D01*
X41897794Y-8022765D01*
X41977235Y-8102206D01*
X42080009Y-8147585D01*
X42105135Y-8150500D01*
X43894864Y-8150499D01*
X43919991Y-8147585D01*
X44022765Y-8102206D01*
X44102206Y-8022765D01*
X44147585Y-7919991D01*
X44150500Y-7894865D01*
X44150499Y-7658943D01*
X44169406Y-7600756D01*
X44218906Y-7564792D01*
X44280091Y-7564791D01*
X44329591Y-7600755D01*
X44337709Y-7614001D01*
X44385376Y-7707553D01*
X44385380Y-7707559D01*
X44424728Y-7761716D01*
X44424729Y-7761716D01*
X45057037Y-7129407D01*
X45074075Y-7192993D01*
X45139901Y-7307007D01*
X45232993Y-7400099D01*
X45347007Y-7465925D01*
X45410590Y-7482962D01*
X44778282Y-8115269D01*
X44778282Y-8115270D01*
X44832440Y-8154619D01*
X44832446Y-8154623D01*
X45021786Y-8251096D01*
X45139191Y-8289243D01*
X45188692Y-8325207D01*
X45207599Y-8383398D01*
X45188692Y-8441589D01*
X45178603Y-8453402D01*
X28343317Y-25288690D01*
X28343316Y-25288691D01*
X28290594Y-25380007D01*
X28290065Y-25381982D01*
X28268571Y-25462200D01*
X28268571Y-25462201D01*
X28268570Y-25462200D01*
X28263300Y-25481869D01*
X28263300Y-25893086D01*
X28244393Y-25951277D01*
X28194893Y-25987241D01*
X28133707Y-25987241D01*
X28114800Y-25978822D01*
X28073889Y-25955202D01*
X28073890Y-25955202D01*
X28060351Y-25951574D01*
X27959309Y-25924500D01*
X27840691Y-25924500D01*
X27796616Y-25936310D01*
X27726109Y-25955202D01*
X27623391Y-26014507D01*
X27539507Y-26098391D01*
X27480202Y-26201109D01*
X27468785Y-26243720D01*
X27449500Y-26315691D01*
X27449500Y-26434309D01*
X27476574Y-26535351D01*
X27480202Y-26548890D01*
X27539507Y-26651608D01*
X27539509Y-26651610D01*
X27539511Y-26651613D01*
X27623387Y-26735489D01*
X27623389Y-26735490D01*
X27623391Y-26735492D01*
X27726110Y-26794797D01*
X27726111Y-26794797D01*
X27726114Y-26794799D01*
X27840691Y-26825500D01*
X27840693Y-26825500D01*
X27959307Y-26825500D01*
X27959309Y-26825500D01*
X28073886Y-26794799D01*
X28114801Y-26771176D01*
X28174646Y-26758455D01*
X28230543Y-26783340D01*
X28261136Y-26836328D01*
X28263300Y-26856913D01*
X28263300Y-31225899D01*
X28244393Y-31284090D01*
X28234304Y-31295903D01*
X28095603Y-31434604D01*
X28041086Y-31462381D01*
X28025599Y-31463600D01*
X27953443Y-31463600D01*
X27831461Y-31496285D01*
X27800716Y-31504523D01*
X27663780Y-31583582D01*
X27660434Y-31586929D01*
X27605916Y-31614703D01*
X27545484Y-31605128D01*
X27502223Y-31561861D01*
X27492655Y-31501428D01*
X27494806Y-31491305D01*
X27499000Y-31475657D01*
X27499000Y-31317543D01*
X27458077Y-31164816D01*
X27379020Y-31027884D01*
X27267216Y-30916080D01*
X27130284Y-30837023D01*
X26977557Y-30796100D01*
X26819443Y-30796100D01*
X26666716Y-30837023D01*
X26529784Y-30916080D01*
X26417980Y-31027884D01*
X26338923Y-31164816D01*
X26298000Y-31317543D01*
X26298000Y-31475657D01*
X26338923Y-31628384D01*
X26417980Y-31765316D01*
X26417982Y-31765318D01*
X26497986Y-31845323D01*
X26523608Y-31889700D01*
X26525293Y-31895990D01*
X26525294Y-31895991D01*
X26578016Y-31987308D01*
X26578018Y-31987310D01*
X26578020Y-31987313D01*
X27326490Y-32735782D01*
X27931478Y-33340770D01*
X27959255Y-33395287D01*
X27949684Y-33455719D01*
X27906419Y-33498984D01*
X27887108Y-33506398D01*
X27887019Y-33506421D01*
X27887018Y-33506421D01*
X27750084Y-33585480D01*
X27638280Y-33697284D01*
X27559223Y-33834216D01*
X27518300Y-33986943D01*
X27518300Y-34145057D01*
X27559223Y-34297784D01*
X27638280Y-34434716D01*
X27750084Y-34546520D01*
X27887016Y-34625577D01*
X28039743Y-34666500D01*
X28039745Y-34666500D01*
X28197855Y-34666500D01*
X28197857Y-34666500D01*
X28350584Y-34625577D01*
X28487516Y-34546520D01*
X28599320Y-34434716D01*
X28678377Y-34297784D01*
X28678397Y-34297708D01*
X28678426Y-34297662D01*
X28680860Y-34291789D01*
X28681948Y-34292239D01*
X28711717Y-34246392D01*
X28768837Y-34224461D01*
X28827938Y-34240293D01*
X28844029Y-34253321D01*
X28900904Y-34310196D01*
X28928681Y-34364713D01*
X28929900Y-34380200D01*
X28929900Y-34452357D01*
X28970823Y-34605084D01*
X29049880Y-34742016D01*
X29161684Y-34853820D01*
X29298616Y-34932877D01*
X29451343Y-34973800D01*
X29451345Y-34973800D01*
X29582600Y-34973800D01*
X29640791Y-34992707D01*
X29676755Y-35042207D01*
X29681600Y-35072800D01*
X29681600Y-36700773D01*
X29681600Y-36806227D01*
X29690715Y-36840244D01*
X29708894Y-36908092D01*
X29761616Y-36999408D01*
X29761617Y-36999409D01*
X29761618Y-36999410D01*
X29761620Y-36999413D01*
X30315023Y-37552816D01*
X30859452Y-38097245D01*
X30887229Y-38151762D01*
X30877658Y-38212194D01*
X30834393Y-38255459D01*
X30827336Y-38258712D01*
X30821520Y-38261120D01*
X30684584Y-38340180D01*
X30572780Y-38451984D01*
X30493723Y-38588916D01*
X30452800Y-38741643D01*
X30452800Y-38899757D01*
X30493723Y-39052484D01*
X30572780Y-39189416D01*
X30684584Y-39301220D01*
X30821516Y-39380277D01*
X30974243Y-39421200D01*
X30974245Y-39421200D01*
X31132355Y-39421200D01*
X31132357Y-39421200D01*
X31285084Y-39380277D01*
X31422016Y-39301220D01*
X31533820Y-39189416D01*
X31612877Y-39052484D01*
X31612878Y-39052478D01*
X31615283Y-39046673D01*
X31655016Y-39000144D01*
X31714510Y-38985856D01*
X31771039Y-39009266D01*
X31776754Y-39014547D01*
X32054904Y-39292697D01*
X32082681Y-39347214D01*
X32083900Y-39362701D01*
X32083900Y-39509399D01*
X32064993Y-39567590D01*
X32054904Y-39579403D01*
X31119316Y-40514991D01*
X31066593Y-40606311D01*
X31066592Y-40606311D01*
X31066593Y-40606312D01*
X31039300Y-40708173D01*
X31039300Y-45755341D01*
X31020393Y-45813532D01*
X30970893Y-45849496D01*
X30927702Y-45850555D01*
X30927387Y-45853273D01*
X30894868Y-45849500D01*
X29105139Y-45849500D01*
X29105136Y-45849501D01*
X29080009Y-45852414D01*
X28977235Y-45897794D01*
X28897794Y-45977235D01*
X28852414Y-46080011D01*
X28849500Y-46105130D01*
X28849500Y-47894860D01*
X28849501Y-47894863D01*
X28852414Y-47919990D01*
X28858677Y-47934174D01*
X28897794Y-48022765D01*
X28977235Y-48102206D01*
X29080009Y-48147585D01*
X29105135Y-48150500D01*
X29341055Y-48150499D01*
X29399243Y-48169406D01*
X29435207Y-48218906D01*
X29435208Y-48280091D01*
X29399244Y-48329591D01*
X29385999Y-48337708D01*
X29292451Y-48385373D01*
X29292442Y-48385378D01*
X29238282Y-48424728D01*
X29870591Y-49057037D01*
X29807007Y-49074075D01*
X29692993Y-49139901D01*
X29599901Y-49232993D01*
X29534075Y-49347007D01*
X29517037Y-49410591D01*
X28884728Y-48778282D01*
X28845378Y-48832442D01*
X28845376Y-48832446D01*
X28748904Y-49021784D01*
X28683240Y-49223878D01*
X28650000Y-49433749D01*
X28650000Y-49646250D01*
X28683240Y-49856121D01*
X28748904Y-50058215D01*
X28845376Y-50247553D01*
X28845380Y-50247559D01*
X28884728Y-50301716D01*
X28884729Y-50301716D01*
X29517037Y-49669407D01*
X29534075Y-49732993D01*
X29599901Y-49847007D01*
X29692993Y-49940099D01*
X29807007Y-50005925D01*
X29870590Y-50022962D01*
X29238282Y-50655269D01*
X29238282Y-50655270D01*
X29292440Y-50694619D01*
X29292446Y-50694623D01*
X29481786Y-50791096D01*
X29572983Y-50820727D01*
X29622483Y-50856691D01*
X29641391Y-50914881D01*
X29622484Y-50973072D01*
X29572988Y-51009035D01*
X29558366Y-51013786D01*
X29558364Y-51013787D01*
X29397008Y-51096002D01*
X29330569Y-51144273D01*
X29250499Y-51202447D01*
X29122447Y-51330499D01*
X29098912Y-51362893D01*
X29016002Y-51477008D01*
X28933788Y-51638362D01*
X28877828Y-51810593D01*
X28849500Y-51989450D01*
X28849500Y-52170549D01*
X28877828Y-52349406D01*
X28933788Y-52521637D01*
X29012142Y-52675416D01*
X29016004Y-52682994D01*
X29122447Y-52829501D01*
X29250499Y-52957553D01*
X29397006Y-53063996D01*
X29558361Y-53146211D01*
X29730591Y-53202171D01*
X29802136Y-53213502D01*
X29909451Y-53230500D01*
X29909454Y-53230500D01*
X30090549Y-53230500D01*
X30179977Y-53216335D01*
X30269409Y-53202171D01*
X30441639Y-53146211D01*
X30602994Y-53063996D01*
X30749501Y-52957553D01*
X30870298Y-52836755D01*
X30924813Y-52808980D01*
X30985245Y-52818551D01*
X31028510Y-52861816D01*
X31039300Y-52906761D01*
X31039300Y-52973299D01*
X31020393Y-53031490D01*
X31010303Y-53043303D01*
X30528447Y-53525158D01*
X30473931Y-53552935D01*
X30427852Y-53549309D01*
X30269406Y-53497828D01*
X30090549Y-53469500D01*
X30090546Y-53469500D01*
X29909454Y-53469500D01*
X29909451Y-53469500D01*
X29730593Y-53497828D01*
X29558362Y-53553788D01*
X29397008Y-53636002D01*
X29323752Y-53689225D01*
X29250499Y-53742447D01*
X29122447Y-53870499D01*
X29069225Y-53943752D01*
X29016002Y-54017008D01*
X28933788Y-54178362D01*
X28877828Y-54350593D01*
X28849500Y-54529450D01*
X28849500Y-54710549D01*
X28877828Y-54889406D01*
X28918961Y-55016004D01*
X28933789Y-55061639D01*
X29016004Y-55222994D01*
X29122447Y-55369501D01*
X29250499Y-55497553D01*
X29397006Y-55603996D01*
X29558361Y-55686211D01*
X29730591Y-55742171D01*
X29802136Y-55753502D01*
X29909451Y-55770500D01*
X29909454Y-55770500D01*
X30090549Y-55770500D01*
X30179977Y-55756335D01*
X30269409Y-55742171D01*
X30441639Y-55686211D01*
X30602994Y-55603996D01*
X30749501Y-55497553D01*
X30877553Y-55369501D01*
X30983996Y-55222994D01*
X31066211Y-55061639D01*
X31122171Y-54889409D01*
X31136335Y-54799977D01*
X31150500Y-54710549D01*
X31150500Y-54529450D01*
X31122171Y-54350593D01*
X31122171Y-54350591D01*
X31089701Y-54250657D01*
X31070690Y-54192145D01*
X31070691Y-54130960D01*
X31094839Y-54091551D01*
X31685710Y-53500681D01*
X31685713Y-53500680D01*
X31760280Y-53426113D01*
X31813007Y-53334787D01*
X31840301Y-53232927D01*
X31840301Y-53127473D01*
X31840301Y-53121411D01*
X31840300Y-53121393D01*
X31840300Y-40967800D01*
X31859207Y-40909609D01*
X31869290Y-40897802D01*
X32804880Y-39962213D01*
X32817865Y-39939722D01*
X32863333Y-39898783D01*
X32924183Y-39892387D01*
X32977171Y-39922980D01*
X33002058Y-39978875D01*
X33002600Y-39989224D01*
X33002600Y-47970373D01*
X33002600Y-48075827D01*
X33021597Y-48146727D01*
X33029894Y-48177692D01*
X33082616Y-48269008D01*
X33082617Y-48269009D01*
X33082618Y-48269010D01*
X33082620Y-48269013D01*
X36016051Y-51202444D01*
X38905158Y-54091551D01*
X38932935Y-54146068D01*
X38929309Y-54192147D01*
X38877828Y-54350593D01*
X38849500Y-54529450D01*
X38849500Y-54710549D01*
X38877828Y-54889406D01*
X38918961Y-55016004D01*
X38933789Y-55061639D01*
X39016004Y-55222994D01*
X39122447Y-55369501D01*
X39250499Y-55497553D01*
X39397006Y-55603996D01*
X39558361Y-55686211D01*
X39569483Y-55689824D01*
X39572983Y-55690962D01*
X39622483Y-55726926D01*
X39641391Y-55785116D01*
X39622484Y-55843307D01*
X39572985Y-55879271D01*
X39572984Y-55879272D01*
X39481784Y-55908904D01*
X39292446Y-56005376D01*
X39292442Y-56005378D01*
X39238282Y-56044728D01*
X39870591Y-56677037D01*
X39807007Y-56694075D01*
X39692993Y-56759901D01*
X39599901Y-56852993D01*
X39534075Y-56967007D01*
X39517037Y-57030591D01*
X38884728Y-56398282D01*
X38845378Y-56452442D01*
X38845376Y-56452446D01*
X38748904Y-56641784D01*
X38683240Y-56843878D01*
X38650000Y-57053749D01*
X38650000Y-57266250D01*
X38683240Y-57476121D01*
X38748904Y-57678215D01*
X38839518Y-57856055D01*
X38849089Y-57916487D01*
X38821311Y-57971004D01*
X38766795Y-57998781D01*
X38751308Y-58000000D01*
X2099000Y-58000000D01*
X2040809Y-57981093D01*
X2004845Y-57931593D01*
X2000000Y-57901000D01*
X2000000Y-50128443D01*
X9682000Y-50128443D01*
X9682000Y-50286557D01*
X9722923Y-50439284D01*
X9801980Y-50576216D01*
X9913784Y-50688020D01*
X10050716Y-50767077D01*
X10203443Y-50808000D01*
X10203445Y-50808000D01*
X10361555Y-50808000D01*
X10361557Y-50808000D01*
X10514284Y-50767077D01*
X10651216Y-50688020D01*
X10763020Y-50576216D01*
X10842077Y-50439284D01*
X10883000Y-50286557D01*
X10883000Y-50128443D01*
X10842077Y-49975716D01*
X10763020Y-49838784D01*
X10651216Y-49726980D01*
X10514284Y-49647923D01*
X10361557Y-49607000D01*
X10203443Y-49607000D01*
X10050716Y-49647923D01*
X9913784Y-49726980D01*
X9801980Y-49838784D01*
X9722923Y-49975716D01*
X9682000Y-50128443D01*
X2000000Y-50128443D01*
X2000000Y-29105130D01*
X4849500Y-29105130D01*
X4849500Y-30894860D01*
X4849501Y-30894863D01*
X4852414Y-30919990D01*
X4866541Y-30951984D01*
X4897794Y-31022765D01*
X4977235Y-31102206D01*
X5080009Y-31147585D01*
X5105135Y-31150500D01*
X5300501Y-31150499D01*
X5358690Y-31169406D01*
X5394654Y-31218906D01*
X5399500Y-31249499D01*
X5399500Y-39866063D01*
X5399499Y-39866081D01*
X5399499Y-39872143D01*
X5399499Y-40030257D01*
X5440423Y-40182985D01*
X5449251Y-40198276D01*
X5468274Y-40231224D01*
X5468275Y-40231224D01*
X5519480Y-40319916D01*
X5631284Y-40431720D01*
X5631286Y-40431721D01*
X9242665Y-44043100D01*
X9269758Y-44093788D01*
X9271017Y-44100121D01*
X9271019Y-44100127D01*
X9323822Y-44227606D01*
X9323828Y-44227617D01*
X9388576Y-44324518D01*
X9400486Y-44342342D01*
X9498058Y-44439914D01*
X9565950Y-44485278D01*
X9613615Y-44517127D01*
X9651494Y-44565177D01*
X9653896Y-44626315D01*
X9628617Y-44669445D01*
X9536886Y-44761177D01*
X9536886Y-44761178D01*
X9536884Y-44761180D01*
X9536883Y-44761179D01*
X9425080Y-44872982D01*
X9389563Y-44934499D01*
X9389564Y-44934500D01*
X9346023Y-45009915D01*
X9305099Y-45162643D01*
X9305099Y-45162645D01*
X9305099Y-45242815D01*
X9288415Y-45297815D01*
X9284825Y-45303187D01*
X9284824Y-45303188D01*
X9232020Y-45430670D01*
X9232020Y-45430672D01*
X9205100Y-45566004D01*
X9205100Y-45703995D01*
X9213873Y-45748100D01*
X9231879Y-45838621D01*
X9232020Y-45839327D01*
X9232020Y-45839329D01*
X9284822Y-45966806D01*
X9284828Y-45966817D01*
X9361485Y-46081541D01*
X9459058Y-46179114D01*
X9573782Y-46255771D01*
X9573793Y-46255777D01*
X9620883Y-46275282D01*
X9701272Y-46308580D01*
X9836607Y-46335500D01*
X9836608Y-46335500D01*
X9974592Y-46335500D01*
X9974593Y-46335500D01*
X10109928Y-46308580D01*
X10237411Y-46255775D01*
X10352142Y-46179114D01*
X10449714Y-46081542D01*
X10526375Y-45966811D01*
X10579180Y-45839328D01*
X10606100Y-45703993D01*
X10606100Y-45566007D01*
X10587294Y-45471463D01*
X10594486Y-45410702D01*
X10614385Y-45382148D01*
X13842930Y-42153603D01*
X13897446Y-42125828D01*
X13957878Y-42135399D01*
X14001143Y-42178664D01*
X14005496Y-42190006D01*
X14005540Y-42189989D01*
X14008021Y-42195981D01*
X14011175Y-42201444D01*
X14087080Y-42332916D01*
X14138105Y-42383941D01*
X14165881Y-42438456D01*
X14167100Y-42453943D01*
X14167100Y-50642673D01*
X14167100Y-50748127D01*
X14183143Y-50808000D01*
X14194394Y-50849992D01*
X14247116Y-50941308D01*
X14247118Y-50941310D01*
X14247120Y-50941313D01*
X14559047Y-51253239D01*
X14816604Y-51510796D01*
X14844381Y-51565313D01*
X14845600Y-51580800D01*
X14845600Y-51652957D01*
X14886523Y-51805684D01*
X14965580Y-51942616D01*
X15077384Y-52054420D01*
X15214316Y-52133477D01*
X15367043Y-52174400D01*
X15367045Y-52174400D01*
X15525155Y-52174400D01*
X15525157Y-52174400D01*
X15677884Y-52133477D01*
X15814816Y-52054420D01*
X15926620Y-51942616D01*
X16005677Y-51805684D01*
X16046600Y-51652957D01*
X16046600Y-51494843D01*
X16005677Y-51342116D01*
X15926620Y-51205184D01*
X15814816Y-51093380D01*
X15677884Y-51014323D01*
X15525157Y-50973400D01*
X15525155Y-50973400D01*
X15452999Y-50973400D01*
X15394808Y-50954493D01*
X15382995Y-50944403D01*
X14997096Y-50558503D01*
X14969319Y-50503987D01*
X14968100Y-50488500D01*
X14968100Y-49056943D01*
X22999500Y-49056943D01*
X22999500Y-49215057D01*
X23040423Y-49367784D01*
X23119480Y-49504716D01*
X23231284Y-49616520D01*
X23368216Y-49695577D01*
X23520943Y-49736500D01*
X23520945Y-49736500D01*
X23679055Y-49736500D01*
X23679057Y-49736500D01*
X23831784Y-49695577D01*
X23968716Y-49616520D01*
X24080520Y-49504716D01*
X24159577Y-49367784D01*
X24200500Y-49215057D01*
X24200500Y-49056943D01*
X24159577Y-48904216D01*
X24080520Y-48767284D01*
X23968716Y-48655480D01*
X23831784Y-48576423D01*
X23679057Y-48535500D01*
X23520943Y-48535500D01*
X23368216Y-48576423D01*
X23231284Y-48655480D01*
X23119480Y-48767284D01*
X23040423Y-48904216D01*
X22999500Y-49056943D01*
X14968100Y-49056943D01*
X14968100Y-47462943D01*
X18607100Y-47462943D01*
X18607100Y-47621057D01*
X18648023Y-47773784D01*
X18727080Y-47910716D01*
X18838884Y-48022520D01*
X18975816Y-48101577D01*
X19128543Y-48142500D01*
X19128545Y-48142500D01*
X19286655Y-48142500D01*
X19286657Y-48142500D01*
X19439384Y-48101577D01*
X19576316Y-48022520D01*
X19688120Y-47910716D01*
X19767177Y-47773784D01*
X19808100Y-47621057D01*
X19808100Y-47462943D01*
X19767177Y-47310216D01*
X19688120Y-47173284D01*
X19688117Y-47173281D01*
X19637096Y-47122259D01*
X19609319Y-47067742D01*
X19608100Y-47052256D01*
X19608100Y-46020943D01*
X21599500Y-46020943D01*
X21599500Y-46179057D01*
X21640423Y-46331784D01*
X21719480Y-46468716D01*
X21831284Y-46580520D01*
X21968216Y-46659577D01*
X22120943Y-46700500D01*
X22120945Y-46700500D01*
X22279055Y-46700500D01*
X22279057Y-46700500D01*
X22431784Y-46659577D01*
X22568716Y-46580520D01*
X22680520Y-46468716D01*
X22759577Y-46331784D01*
X22800500Y-46179057D01*
X22800500Y-46020943D01*
X22759577Y-45868216D01*
X22680520Y-45731284D01*
X22568716Y-45619480D01*
X22431784Y-45540423D01*
X22279057Y-45499500D01*
X22120943Y-45499500D01*
X21968216Y-45540423D01*
X21831284Y-45619480D01*
X21719480Y-45731284D01*
X21640423Y-45868216D01*
X21599500Y-46020943D01*
X19608100Y-46020943D01*
X19608100Y-45748100D01*
X19627007Y-45689909D01*
X19637096Y-45678096D01*
X20186482Y-45128710D01*
X22899500Y-45128710D01*
X22899500Y-45371289D01*
X22931161Y-45611781D01*
X22931161Y-45611786D01*
X22948929Y-45678096D01*
X22992131Y-45839328D01*
X22993944Y-45846092D01*
X22993948Y-45846105D01*
X23086772Y-46070204D01*
X23086774Y-46070208D01*
X23086776Y-46070212D01*
X23143107Y-46167780D01*
X23208066Y-46280292D01*
X23355729Y-46472731D01*
X23355731Y-46472733D01*
X23355735Y-46472738D01*
X23527262Y-46644265D01*
X23527266Y-46644268D01*
X23527268Y-46644270D01*
X23663630Y-46748904D01*
X23719711Y-46791936D01*
X23929788Y-46913224D01*
X24153900Y-47006054D01*
X24388211Y-47068838D01*
X24628712Y-47100500D01*
X24628713Y-47100500D01*
X24871287Y-47100500D01*
X24871288Y-47100500D01*
X25111789Y-47068838D01*
X25346100Y-47006054D01*
X25570212Y-46913224D01*
X25780289Y-46791936D01*
X25972738Y-46644265D01*
X26144265Y-46472738D01*
X26291936Y-46280289D01*
X26413224Y-46070212D01*
X26506054Y-45846100D01*
X26568838Y-45611789D01*
X26600500Y-45371288D01*
X26600500Y-45128712D01*
X26568838Y-44888211D01*
X26506054Y-44653900D01*
X26415746Y-44435877D01*
X26413227Y-44429795D01*
X26413226Y-44429794D01*
X26413224Y-44429788D01*
X26291936Y-44219711D01*
X26195312Y-44093788D01*
X26144270Y-44027268D01*
X26144268Y-44027266D01*
X26144265Y-44027262D01*
X25972738Y-43855735D01*
X25972733Y-43855731D01*
X25972731Y-43855729D01*
X25780292Y-43708066D01*
X25780289Y-43708064D01*
X25570212Y-43586776D01*
X25570208Y-43586774D01*
X25570204Y-43586772D01*
X25346105Y-43493948D01*
X25346104Y-43493947D01*
X25346100Y-43493946D01*
X25111789Y-43431162D01*
X25111786Y-43431161D01*
X25111784Y-43431161D01*
X24871289Y-43399500D01*
X24871288Y-43399500D01*
X24628712Y-43399500D01*
X24628710Y-43399500D01*
X24388218Y-43431161D01*
X24388213Y-43431161D01*
X24153907Y-43493944D01*
X24153894Y-43493948D01*
X23929795Y-43586772D01*
X23719707Y-43708066D01*
X23527268Y-43855729D01*
X23355729Y-44027268D01*
X23208066Y-44219707D01*
X23086772Y-44429795D01*
X22993948Y-44653894D01*
X22993944Y-44653907D01*
X22931161Y-44888213D01*
X22931161Y-44888218D01*
X22899500Y-45128710D01*
X20186482Y-45128710D01*
X20259725Y-45055467D01*
X22813192Y-42502000D01*
X25410195Y-39904996D01*
X25464710Y-39877221D01*
X25525142Y-39886792D01*
X25529697Y-39889265D01*
X25530482Y-39889718D01*
X25530484Y-39889720D01*
X25667416Y-39968777D01*
X25820143Y-40009700D01*
X25820145Y-40009700D01*
X25978255Y-40009700D01*
X25978257Y-40009700D01*
X26130984Y-39968777D01*
X26267916Y-39889720D01*
X26379720Y-39777916D01*
X26458777Y-39640984D01*
X26499700Y-39488257D01*
X26499700Y-39330143D01*
X26458777Y-39177416D01*
X26379720Y-39040484D01*
X26267916Y-38928680D01*
X26130984Y-38849623D01*
X25978257Y-38808700D01*
X25820143Y-38808700D01*
X25667416Y-38849623D01*
X25536145Y-38925412D01*
X25530481Y-38928682D01*
X25479459Y-38979704D01*
X25424942Y-39007481D01*
X25409456Y-39008700D01*
X25398406Y-39008700D01*
X25398390Y-39008699D01*
X25392327Y-39008699D01*
X25286873Y-39008699D01*
X25286870Y-39008699D01*
X25185013Y-39035992D01*
X25185009Y-39035994D01*
X25093687Y-39088719D01*
X25019119Y-39163286D01*
X25019120Y-39163287D01*
X25019118Y-39163289D01*
X22408835Y-41773570D01*
X22354318Y-41801347D01*
X22293886Y-41791776D01*
X22253096Y-41753067D01*
X22240520Y-41731284D01*
X22128716Y-41619480D01*
X21991784Y-41540423D01*
X21839057Y-41499500D01*
X21680943Y-41499500D01*
X21528216Y-41540423D01*
X21391284Y-41619480D01*
X21279480Y-41731284D01*
X21200423Y-41868216D01*
X21159500Y-42020943D01*
X21159500Y-42179057D01*
X21200423Y-42331784D01*
X21279480Y-42468716D01*
X21391284Y-42580520D01*
X21413066Y-42593096D01*
X21454006Y-42638562D01*
X21460403Y-42699412D01*
X21433570Y-42748834D01*
X21069504Y-43112901D01*
X21014987Y-43140679D01*
X20954555Y-43131108D01*
X20911290Y-43087843D01*
X20900500Y-43042898D01*
X20900500Y-43023444D01*
X20900500Y-43023443D01*
X20859577Y-42870716D01*
X20780520Y-42733784D01*
X20668716Y-42621980D01*
X20531784Y-42542923D01*
X20379057Y-42502000D01*
X20220943Y-42502000D01*
X20068216Y-42542923D01*
X19931284Y-42621980D01*
X19819480Y-42733784D01*
X19740423Y-42870716D01*
X19699500Y-43023443D01*
X19699500Y-43181557D01*
X19740423Y-43334284D01*
X19819480Y-43471216D01*
X19931284Y-43583020D01*
X20068216Y-43662077D01*
X20220943Y-43703000D01*
X20220945Y-43703000D01*
X20240398Y-43703000D01*
X20298589Y-43721907D01*
X20334553Y-43771407D01*
X20334553Y-43832593D01*
X20310402Y-43872004D01*
X18887117Y-45295290D01*
X18887116Y-45295291D01*
X18834395Y-45386606D01*
X18834393Y-45386610D01*
X18834393Y-45386612D01*
X18820850Y-45437157D01*
X18820850Y-45437158D01*
X18820849Y-45437157D01*
X18807100Y-45488473D01*
X18807100Y-47052256D01*
X18788193Y-47110447D01*
X18778104Y-47122259D01*
X18727082Y-47173281D01*
X18727080Y-47173283D01*
X18727080Y-47173284D01*
X18648023Y-47310216D01*
X18607100Y-47462943D01*
X14968100Y-47462943D01*
X14968100Y-44886743D01*
X17211600Y-44886743D01*
X17211600Y-45044857D01*
X17252523Y-45197584D01*
X17331580Y-45334516D01*
X17443384Y-45446320D01*
X17580316Y-45525377D01*
X17733043Y-45566300D01*
X17733045Y-45566300D01*
X17891155Y-45566300D01*
X17891157Y-45566300D01*
X18043884Y-45525377D01*
X18180816Y-45446320D01*
X18292620Y-45334516D01*
X18371677Y-45197584D01*
X18412600Y-45044857D01*
X18412600Y-44886743D01*
X18387020Y-44791277D01*
X18390222Y-44730180D01*
X18428727Y-44682630D01*
X18433112Y-44679942D01*
X18518716Y-44630520D01*
X18630520Y-44518716D01*
X18709577Y-44381784D01*
X18750500Y-44229057D01*
X18750500Y-44070943D01*
X18709577Y-43918216D01*
X18630520Y-43781284D01*
X18518716Y-43669480D01*
X18381784Y-43590423D01*
X18229057Y-43549500D01*
X18070943Y-43549500D01*
X17918216Y-43590423D01*
X17781284Y-43669480D01*
X17669480Y-43781284D01*
X17590423Y-43918216D01*
X17549500Y-44070943D01*
X17549500Y-44229057D01*
X17575079Y-44324518D01*
X17571876Y-44385620D01*
X17533371Y-44433169D01*
X17528952Y-44435877D01*
X17443386Y-44485278D01*
X17443384Y-44485280D01*
X17331580Y-44597084D01*
X17252523Y-44734016D01*
X17211600Y-44886743D01*
X14968100Y-44886743D01*
X14968100Y-42453943D01*
X14987007Y-42395752D01*
X14997090Y-42383945D01*
X15048120Y-42332916D01*
X15127177Y-42195984D01*
X15168100Y-42043257D01*
X15168100Y-41885143D01*
X15127177Y-41732416D01*
X15048120Y-41595484D01*
X14936316Y-41483680D01*
X14799384Y-41404623D01*
X14799381Y-41404621D01*
X14793389Y-41402140D01*
X14794098Y-41400426D01*
X14750073Y-41371837D01*
X14728145Y-41314716D01*
X14743980Y-41255615D01*
X14757001Y-41239534D01*
X14837020Y-41159516D01*
X14887139Y-41072704D01*
X14916077Y-41022585D01*
X14957000Y-40869857D01*
X14957000Y-40711743D01*
X14916077Y-40559015D01*
X14872470Y-40483486D01*
X14872469Y-40483485D01*
X14872469Y-40483482D01*
X14837021Y-40422086D01*
X14837020Y-40422084D01*
X14725216Y-40310280D01*
X14638404Y-40260160D01*
X14588285Y-40231223D01*
X14435557Y-40190300D01*
X14277443Y-40190300D01*
X14183969Y-40215345D01*
X14124710Y-40231224D01*
X14074595Y-40260159D01*
X13987784Y-40310279D01*
X13875979Y-40422083D01*
X13875980Y-40422084D01*
X13875978Y-40422086D01*
X10718246Y-43579817D01*
X10663729Y-43607594D01*
X10603297Y-43598023D01*
X10565927Y-43564815D01*
X10536631Y-43520971D01*
X10488714Y-43449258D01*
X10391142Y-43351686D01*
X10391141Y-43351685D01*
X10276417Y-43275028D01*
X10276406Y-43275022D01*
X10148927Y-43222219D01*
X10148921Y-43222217D01*
X10142588Y-43220958D01*
X10091900Y-43193865D01*
X6629496Y-39731461D01*
X6601719Y-39676944D01*
X6600500Y-39661457D01*
X6600500Y-35256043D01*
X22514800Y-35256043D01*
X22514800Y-35414157D01*
X22555723Y-35566884D01*
X22634780Y-35703816D01*
X22746584Y-35815620D01*
X22883516Y-35894677D01*
X23036243Y-35935600D01*
X23036245Y-35935600D01*
X23194355Y-35935600D01*
X23194357Y-35935600D01*
X23347084Y-35894677D01*
X23484016Y-35815620D01*
X23595820Y-35703816D01*
X23674877Y-35566884D01*
X23715800Y-35414157D01*
X23715800Y-35256043D01*
X23674877Y-35103316D01*
X23595820Y-34966384D01*
X23578505Y-34949069D01*
X23544796Y-34915359D01*
X23517019Y-34860842D01*
X23515800Y-34845356D01*
X23515800Y-33233301D01*
X23534707Y-33175110D01*
X23544796Y-33163297D01*
X26695197Y-30012896D01*
X26749714Y-29985119D01*
X26765201Y-29983900D01*
X26837355Y-29983900D01*
X26837357Y-29983900D01*
X26990084Y-29942977D01*
X27127016Y-29863920D01*
X27238820Y-29752116D01*
X27317877Y-29615184D01*
X27358800Y-29462457D01*
X27358800Y-29304343D01*
X27317877Y-29151616D01*
X27238820Y-29014684D01*
X27127016Y-28902880D01*
X26990084Y-28823823D01*
X26837357Y-28782900D01*
X26679243Y-28782900D01*
X26526516Y-28823823D01*
X26389584Y-28902880D01*
X26277780Y-29014684D01*
X26198723Y-29151616D01*
X26160990Y-29292440D01*
X26157800Y-29304344D01*
X26157800Y-29376499D01*
X26138893Y-29434690D01*
X26128804Y-29446503D01*
X22794816Y-32780491D01*
X22742094Y-32871807D01*
X22738329Y-32885858D01*
X22717921Y-32962027D01*
X22714800Y-32973674D01*
X22714800Y-34845356D01*
X22695893Y-34903547D01*
X22685804Y-34915359D01*
X22634782Y-34966381D01*
X22634780Y-34966383D01*
X22634780Y-34966384D01*
X22555723Y-35103316D01*
X22514800Y-35256043D01*
X6600500Y-35256043D01*
X6600500Y-33655243D01*
X17899500Y-33655243D01*
X17899500Y-33813357D01*
X17940423Y-33966084D01*
X18019480Y-34103016D01*
X18131284Y-34214820D01*
X18268216Y-34293877D01*
X18420943Y-34334800D01*
X18420945Y-34334800D01*
X18579055Y-34334800D01*
X18579057Y-34334800D01*
X18731784Y-34293877D01*
X18868716Y-34214820D01*
X18980520Y-34103016D01*
X19059577Y-33966084D01*
X19100500Y-33813357D01*
X19100500Y-33741200D01*
X19119407Y-33683009D01*
X19129490Y-33671202D01*
X19645480Y-33155213D01*
X19654557Y-33139491D01*
X19698205Y-33063892D01*
X19698205Y-33063890D01*
X19698207Y-33063888D01*
X19725500Y-32962027D01*
X19725500Y-32856573D01*
X19725500Y-29771843D01*
X19744407Y-29713652D01*
X19754490Y-29701845D01*
X19805520Y-29650816D01*
X19884577Y-29513884D01*
X19925500Y-29361157D01*
X19925500Y-29203043D01*
X19884577Y-29050316D01*
X19805520Y-28913384D01*
X19693716Y-28801580D01*
X19556784Y-28722523D01*
X19404057Y-28681600D01*
X19245943Y-28681600D01*
X19093216Y-28722523D01*
X18956284Y-28801580D01*
X18844480Y-28913384D01*
X18765423Y-29050316D01*
X18724500Y-29203043D01*
X18724500Y-29361157D01*
X18765423Y-29513884D01*
X18844480Y-29650816D01*
X18895505Y-29701841D01*
X18923281Y-29756356D01*
X18924500Y-29771843D01*
X18924500Y-32702399D01*
X18905593Y-32760590D01*
X18895504Y-32772403D01*
X18563103Y-33104804D01*
X18508586Y-33132581D01*
X18493099Y-33133800D01*
X18420943Y-33133800D01*
X18268216Y-33174723D01*
X18131284Y-33253780D01*
X18019480Y-33365584D01*
X17940423Y-33502516D01*
X17899500Y-33655243D01*
X6600500Y-33655243D01*
X6600500Y-31249499D01*
X6619407Y-31191308D01*
X6668907Y-31155344D01*
X6699500Y-31150499D01*
X6894861Y-31150499D01*
X6894864Y-31150499D01*
X6919991Y-31147585D01*
X7022765Y-31102206D01*
X7102206Y-31022765D01*
X7147585Y-30919991D01*
X7150500Y-30894865D01*
X7150499Y-30658943D01*
X7169406Y-30600756D01*
X7218906Y-30564792D01*
X7280091Y-30564791D01*
X7329591Y-30600755D01*
X7337709Y-30614001D01*
X7385376Y-30707553D01*
X7385380Y-30707559D01*
X7424728Y-30761716D01*
X7424729Y-30761716D01*
X8057037Y-30129407D01*
X8074075Y-30192993D01*
X8139901Y-30307007D01*
X8232993Y-30400099D01*
X8347007Y-30465925D01*
X8410589Y-30482962D01*
X7778282Y-31115269D01*
X7778282Y-31115270D01*
X7832440Y-31154619D01*
X7832446Y-31154623D01*
X8021784Y-31251095D01*
X8223878Y-31316759D01*
X8433750Y-31350000D01*
X8646250Y-31350000D01*
X8856121Y-31316759D01*
X9058215Y-31251095D01*
X9247556Y-31154620D01*
X9301716Y-31115270D01*
X8669408Y-30482962D01*
X8732993Y-30465925D01*
X8847007Y-30400099D01*
X8940099Y-30307007D01*
X9005925Y-30192993D01*
X9022962Y-30129408D01*
X9655270Y-30761716D01*
X9694620Y-30707556D01*
X9791095Y-30518215D01*
X9856759Y-30316121D01*
X9883988Y-30144204D01*
X17096300Y-30144204D01*
X17096300Y-30282195D01*
X17105813Y-30330017D01*
X17121407Y-30408416D01*
X17123220Y-30417527D01*
X17123220Y-30417529D01*
X17176022Y-30545006D01*
X17176028Y-30545017D01*
X17252685Y-30659741D01*
X17350258Y-30757314D01*
X17464982Y-30833971D01*
X17464993Y-30833977D01*
X17512083Y-30853482D01*
X17592472Y-30886780D01*
X17727807Y-30913700D01*
X17727808Y-30913700D01*
X17865792Y-30913700D01*
X17865793Y-30913700D01*
X18001128Y-30886780D01*
X18128611Y-30833975D01*
X18243342Y-30757314D01*
X18340914Y-30659742D01*
X18417575Y-30545011D01*
X18470380Y-30417528D01*
X18497300Y-30282193D01*
X18497300Y-30144207D01*
X18470380Y-30008872D01*
X18443922Y-29944997D01*
X18417577Y-29881393D01*
X18417571Y-29881382D01*
X18340914Y-29766658D01*
X18243341Y-29669085D01*
X18128617Y-29592428D01*
X18128606Y-29592422D01*
X18001128Y-29539620D01*
X17865795Y-29512700D01*
X17865793Y-29512700D01*
X17727807Y-29512700D01*
X17727804Y-29512700D01*
X17592472Y-29539620D01*
X17592470Y-29539620D01*
X17464993Y-29592422D01*
X17464982Y-29592428D01*
X17350258Y-29669085D01*
X17252685Y-29766658D01*
X17176028Y-29881382D01*
X17176022Y-29881393D01*
X17123220Y-30008870D01*
X17123220Y-30008872D01*
X17096300Y-30144204D01*
X9883988Y-30144204D01*
X9887211Y-30123856D01*
X9887211Y-30123854D01*
X9890000Y-30106247D01*
X9890000Y-29893749D01*
X9856759Y-29683878D01*
X9791095Y-29481784D01*
X9694623Y-29292446D01*
X9694619Y-29292440D01*
X9655270Y-29238282D01*
X9655269Y-29238282D01*
X9022962Y-29870589D01*
X9005925Y-29807007D01*
X8940099Y-29692993D01*
X8847007Y-29599901D01*
X8732993Y-29534075D01*
X8669407Y-29517037D01*
X9301716Y-28884729D01*
X9301716Y-28884728D01*
X9247559Y-28845380D01*
X9247553Y-28845376D01*
X9058215Y-28748904D01*
X8856121Y-28683240D01*
X8646250Y-28650000D01*
X8433750Y-28650000D01*
X8223878Y-28683240D01*
X8021784Y-28748904D01*
X7832446Y-28845376D01*
X7832442Y-28845378D01*
X7778282Y-28884728D01*
X8410591Y-29517037D01*
X8347007Y-29534075D01*
X8232993Y-29599901D01*
X8139901Y-29692993D01*
X8074075Y-29807007D01*
X8057037Y-29870591D01*
X7424728Y-29238282D01*
X7385378Y-29292442D01*
X7385376Y-29292446D01*
X7337709Y-29385999D01*
X7294444Y-29429264D01*
X7234012Y-29438835D01*
X7179495Y-29411057D01*
X7151718Y-29356541D01*
X7150499Y-29341054D01*
X7150499Y-29105139D01*
X7150499Y-29105136D01*
X7147585Y-29080009D01*
X7102206Y-28977235D01*
X7022765Y-28897794D01*
X6919991Y-28852415D01*
X6919990Y-28852414D01*
X6919988Y-28852414D01*
X6894868Y-28849500D01*
X5105139Y-28849500D01*
X5105136Y-28849501D01*
X5080009Y-28852414D01*
X4977235Y-28897794D01*
X4897794Y-28977235D01*
X4852414Y-29080011D01*
X4849500Y-29105130D01*
X2000000Y-29105130D01*
X2000000Y-14956904D01*
X4323600Y-14956904D01*
X4323600Y-15094895D01*
X4350520Y-15230227D01*
X4350520Y-15230229D01*
X4403322Y-15357706D01*
X4403328Y-15357717D01*
X4479985Y-15472441D01*
X4577558Y-15570014D01*
X4692282Y-15646671D01*
X4692293Y-15646677D01*
X4729700Y-15662171D01*
X4819772Y-15699480D01*
X4955107Y-15726400D01*
X4955108Y-15726400D01*
X5093092Y-15726400D01*
X5093093Y-15726400D01*
X5228428Y-15699480D01*
X5355911Y-15646675D01*
X5470642Y-15570014D01*
X5568214Y-15472442D01*
X5644875Y-15357711D01*
X5697680Y-15230228D01*
X5722827Y-15103804D01*
X17474500Y-15103804D01*
X17474500Y-15241795D01*
X17501420Y-15377127D01*
X17501420Y-15377129D01*
X17554222Y-15504606D01*
X17554228Y-15504617D01*
X17630885Y-15619341D01*
X17728458Y-15716914D01*
X17843182Y-15793571D01*
X17843193Y-15793577D01*
X17890283Y-15813082D01*
X17970672Y-15846380D01*
X18106007Y-15873300D01*
X18106008Y-15873300D01*
X18243992Y-15873300D01*
X18243993Y-15873300D01*
X18379328Y-15846380D01*
X18506811Y-15793575D01*
X18621542Y-15716914D01*
X18719114Y-15619342D01*
X18795775Y-15504611D01*
X18848580Y-15377128D01*
X18875500Y-15241793D01*
X18875500Y-15103807D01*
X18848580Y-14968472D01*
X18795775Y-14840989D01*
X18795774Y-14840987D01*
X18795771Y-14840982D01*
X18719114Y-14726258D01*
X18621566Y-14628710D01*
X22899500Y-14628710D01*
X22899500Y-14871289D01*
X22931161Y-15111781D01*
X22931161Y-15111786D01*
X22939523Y-15142994D01*
X22978780Y-15289502D01*
X22993944Y-15346092D01*
X22993948Y-15346105D01*
X23086772Y-15570204D01*
X23086774Y-15570208D01*
X23086776Y-15570212D01*
X23208064Y-15780289D01*
X23208066Y-15780292D01*
X23355729Y-15972731D01*
X23355731Y-15972733D01*
X23355735Y-15972738D01*
X23527262Y-16144265D01*
X23527265Y-16144267D01*
X23527268Y-16144270D01*
X23719707Y-16291933D01*
X23719711Y-16291936D01*
X23929788Y-16413224D01*
X24153900Y-16506054D01*
X24388211Y-16568838D01*
X24628712Y-16600500D01*
X24628713Y-16600500D01*
X24871287Y-16600500D01*
X24871288Y-16600500D01*
X25111789Y-16568838D01*
X25346100Y-16506054D01*
X25570212Y-16413224D01*
X25780289Y-16291936D01*
X25972738Y-16144265D01*
X26074101Y-16042901D01*
X26128616Y-16015125D01*
X26189048Y-16024696D01*
X26232312Y-16067961D01*
X26242256Y-16125826D01*
X26241500Y-16131569D01*
X26241500Y-23727764D01*
X26222593Y-23785955D01*
X26173093Y-23821919D01*
X26111907Y-23821919D01*
X26093000Y-23813501D01*
X26012486Y-23767016D01*
X25942480Y-23748258D01*
X25872475Y-23729500D01*
X25727525Y-23729500D01*
X25665790Y-23746041D01*
X25587510Y-23767017D01*
X25461989Y-23839487D01*
X25359487Y-23941989D01*
X25287017Y-24067510D01*
X25268393Y-24137016D01*
X25249500Y-24207525D01*
X25249500Y-24352475D01*
X25270058Y-24429199D01*
X25287017Y-24492489D01*
X25359487Y-24618010D01*
X25359489Y-24618012D01*
X25359491Y-24618015D01*
X25461985Y-24720509D01*
X25461987Y-24720510D01*
X25461989Y-24720512D01*
X25587511Y-24792982D01*
X25587512Y-24792982D01*
X25587515Y-24792984D01*
X25727525Y-24830500D01*
X25727526Y-24830500D01*
X25872474Y-24830500D01*
X25872475Y-24830500D01*
X26012485Y-24792984D01*
X26012487Y-24792982D01*
X26012489Y-24792982D01*
X26093000Y-24746499D01*
X26152848Y-24733777D01*
X26208744Y-24758663D01*
X26239337Y-24811651D01*
X26241500Y-24832235D01*
X26241500Y-26081956D01*
X26222593Y-26140147D01*
X26212504Y-26151959D01*
X26161477Y-26202985D01*
X26157531Y-26208130D01*
X26156519Y-26207353D01*
X26116116Y-26243720D01*
X26055265Y-26250105D01*
X26002282Y-26219503D01*
X25990130Y-26202774D01*
X25952320Y-26137284D01*
X25840516Y-26025480D01*
X25703584Y-25946423D01*
X25550857Y-25905500D01*
X25392743Y-25905500D01*
X25240016Y-25946423D01*
X25103084Y-26025480D01*
X24991280Y-26137284D01*
X24912223Y-26274216D01*
X24871300Y-26426943D01*
X24871300Y-26585057D01*
X24912223Y-26737784D01*
X24991280Y-26874716D01*
X25103084Y-26986520D01*
X25240016Y-27065577D01*
X25392743Y-27106500D01*
X25392745Y-27106500D01*
X25550855Y-27106500D01*
X25550857Y-27106500D01*
X25703584Y-27065577D01*
X25840516Y-26986520D01*
X25952320Y-26874716D01*
X25952322Y-26874711D01*
X25952325Y-26874709D01*
X25956269Y-26869570D01*
X25957283Y-26870348D01*
X25997663Y-26833988D01*
X26058513Y-26827590D01*
X26111502Y-26858180D01*
X26123667Y-26874922D01*
X26161480Y-26940416D01*
X26273284Y-27052220D01*
X26410216Y-27131277D01*
X26562943Y-27172200D01*
X26562945Y-27172200D01*
X26721055Y-27172200D01*
X26721057Y-27172200D01*
X26873784Y-27131277D01*
X27010716Y-27052220D01*
X27122520Y-26940416D01*
X27201577Y-26803484D01*
X27242500Y-26650757D01*
X27242500Y-26492643D01*
X27201577Y-26339916D01*
X27122520Y-26202984D01*
X27107930Y-26188394D01*
X27071496Y-26151959D01*
X27043719Y-26097442D01*
X27042500Y-26081956D01*
X27042500Y-16391200D01*
X27061407Y-16333009D01*
X27071496Y-16321196D01*
X27868696Y-15523996D01*
X28700167Y-14692524D01*
X28754682Y-14664749D01*
X28815114Y-14674320D01*
X28858379Y-14717585D01*
X28867950Y-14747042D01*
X28877828Y-14809407D01*
X28933788Y-14981637D01*
X29000102Y-15111786D01*
X29016004Y-15142994D01*
X29122447Y-15289501D01*
X29250499Y-15417553D01*
X29397006Y-15523996D01*
X29558361Y-15606211D01*
X29730591Y-15662171D01*
X29802136Y-15673502D01*
X29909451Y-15690500D01*
X29909454Y-15690500D01*
X30090549Y-15690500D01*
X30179977Y-15676335D01*
X30269409Y-15662171D01*
X30441639Y-15606211D01*
X30602994Y-15523996D01*
X30749501Y-15417553D01*
X30877553Y-15289501D01*
X30983996Y-15142994D01*
X31066211Y-14981639D01*
X31122171Y-14809409D01*
X31140437Y-14694082D01*
X31150500Y-14630549D01*
X31150500Y-14449450D01*
X31122171Y-14270593D01*
X31122171Y-14270591D01*
X31066211Y-14098361D01*
X30983996Y-13937006D01*
X30877553Y-13790499D01*
X30749501Y-13662447D01*
X30602994Y-13556004D01*
X30602993Y-13556003D01*
X30602991Y-13556002D01*
X30441635Y-13473787D01*
X30441632Y-13473785D01*
X30394548Y-13458487D01*
X30345048Y-13422523D01*
X30326141Y-13364332D01*
X30339404Y-13314835D01*
X30373207Y-13256287D01*
X30381891Y-13223874D01*
X30415215Y-13172562D01*
X30472337Y-13150635D01*
X30477518Y-13150499D01*
X30894861Y-13150499D01*
X30894864Y-13150499D01*
X30919991Y-13147585D01*
X31022765Y-13102206D01*
X31102206Y-13022765D01*
X31147585Y-12919991D01*
X31150500Y-12894865D01*
X31150499Y-11105136D01*
X31147585Y-11080009D01*
X31102206Y-10977235D01*
X31022765Y-10897794D01*
X30919991Y-10852415D01*
X30919990Y-10852414D01*
X30919988Y-10852414D01*
X30894868Y-10849500D01*
X29105139Y-10849500D01*
X29105136Y-10849501D01*
X29080009Y-10852414D01*
X28977235Y-10897794D01*
X28897794Y-10977235D01*
X28852414Y-11080011D01*
X28849500Y-11105130D01*
X28849500Y-12894860D01*
X28849501Y-12894863D01*
X28852414Y-12919990D01*
X28857347Y-12931161D01*
X28897794Y-13022765D01*
X28977235Y-13102206D01*
X28977236Y-13102206D01*
X28977237Y-13102207D01*
X28984803Y-13107390D01*
X28982773Y-13110352D01*
X29015786Y-13139865D01*
X29028721Y-13199667D01*
X29004034Y-13255651D01*
X29000231Y-13259674D01*
X26567287Y-15692620D01*
X26512770Y-15720397D01*
X26452338Y-15710826D01*
X26409073Y-15667561D01*
X26399502Y-15607129D01*
X26411549Y-15573112D01*
X26413224Y-15570212D01*
X26506054Y-15346100D01*
X26568838Y-15111789D01*
X26600500Y-14871288D01*
X26600500Y-14628712D01*
X26568838Y-14388211D01*
X26506054Y-14153900D01*
X26413224Y-13929788D01*
X26291936Y-13719711D01*
X26291933Y-13719707D01*
X26144270Y-13527268D01*
X26144268Y-13527266D01*
X26144265Y-13527262D01*
X25972738Y-13355735D01*
X25972733Y-13355731D01*
X25972731Y-13355729D01*
X25780292Y-13208066D01*
X25776963Y-13206144D01*
X25570212Y-13086776D01*
X25570208Y-13086774D01*
X25570204Y-13086772D01*
X25346105Y-12993948D01*
X25346104Y-12993947D01*
X25346100Y-12993946D01*
X25111789Y-12931162D01*
X25111786Y-12931161D01*
X25111784Y-12931161D01*
X24871289Y-12899500D01*
X24871288Y-12899500D01*
X24628712Y-12899500D01*
X24628710Y-12899500D01*
X24388218Y-12931161D01*
X24388213Y-12931161D01*
X24153907Y-12993944D01*
X24153894Y-12993948D01*
X23929795Y-13086772D01*
X23719707Y-13208066D01*
X23527268Y-13355729D01*
X23355729Y-13527268D01*
X23208066Y-13719707D01*
X23086772Y-13929795D01*
X22993948Y-14153894D01*
X22993944Y-14153907D01*
X22931161Y-14388213D01*
X22931161Y-14388218D01*
X22899500Y-14628710D01*
X18621566Y-14628710D01*
X18621541Y-14628685D01*
X18506817Y-14552028D01*
X18506806Y-14552022D01*
X18379328Y-14499220D01*
X18243995Y-14472300D01*
X18243993Y-14472300D01*
X18106007Y-14472300D01*
X18106004Y-14472300D01*
X17970672Y-14499220D01*
X17970670Y-14499220D01*
X17843193Y-14552022D01*
X17843182Y-14552028D01*
X17728458Y-14628685D01*
X17630885Y-14726258D01*
X17554228Y-14840982D01*
X17554222Y-14840993D01*
X17501420Y-14968470D01*
X17501420Y-14968472D01*
X17474500Y-15103804D01*
X5722827Y-15103804D01*
X5724600Y-15094893D01*
X5724600Y-14956907D01*
X5697680Y-14821572D01*
X5658200Y-14726258D01*
X5644877Y-14694093D01*
X5644871Y-14694082D01*
X5568214Y-14579358D01*
X5470641Y-14481785D01*
X5355917Y-14405128D01*
X5355906Y-14405122D01*
X5228428Y-14352320D01*
X5093095Y-14325400D01*
X5093093Y-14325400D01*
X4955107Y-14325400D01*
X4955104Y-14325400D01*
X4819772Y-14352320D01*
X4819770Y-14352320D01*
X4692293Y-14405122D01*
X4692282Y-14405128D01*
X4577558Y-14481785D01*
X4479985Y-14579358D01*
X4403328Y-14694082D01*
X4403322Y-14694093D01*
X4350520Y-14821570D01*
X4350520Y-14821572D01*
X4323600Y-14956904D01*
X2000000Y-14956904D01*
X2000000Y-13206143D01*
X18509700Y-13206143D01*
X18509700Y-13364257D01*
X18550623Y-13516984D01*
X18629680Y-13653916D01*
X18741484Y-13765720D01*
X18878416Y-13844777D01*
X19031143Y-13885700D01*
X19031145Y-13885700D01*
X19189255Y-13885700D01*
X19189257Y-13885700D01*
X19341984Y-13844777D01*
X19478916Y-13765720D01*
X19590720Y-13653916D01*
X19669777Y-13516984D01*
X19710700Y-13364257D01*
X19710700Y-13206143D01*
X19669777Y-13053416D01*
X19590720Y-12916484D01*
X19478916Y-12804680D01*
X19341984Y-12725623D01*
X19189257Y-12684700D01*
X19031143Y-12684700D01*
X18878416Y-12725623D01*
X18741484Y-12804680D01*
X18629680Y-12916484D01*
X18550623Y-13053416D01*
X18509700Y-13206143D01*
X2000000Y-13206143D01*
X2000000Y-9625543D01*
X6016600Y-9625543D01*
X6016600Y-9783657D01*
X6057523Y-9936384D01*
X6136580Y-10073316D01*
X6248384Y-10185120D01*
X6385316Y-10264177D01*
X6538043Y-10305100D01*
X6538045Y-10305100D01*
X6696155Y-10305100D01*
X6696157Y-10305100D01*
X6848884Y-10264177D01*
X6985816Y-10185120D01*
X7097620Y-10073316D01*
X7176677Y-9936384D01*
X7217600Y-9783657D01*
X7217600Y-9625543D01*
X7176677Y-9472816D01*
X7097620Y-9335884D01*
X6985816Y-9224080D01*
X6848884Y-9145023D01*
X6696157Y-9104100D01*
X6538043Y-9104100D01*
X6385316Y-9145023D01*
X6248384Y-9224080D01*
X6136580Y-9335884D01*
X6057523Y-9472816D01*
X6016600Y-9625543D01*
X2000000Y-9625543D01*
X2000000Y-5973104D01*
X5162000Y-5973104D01*
X5162000Y-6111095D01*
X5188920Y-6246427D01*
X5188920Y-6246429D01*
X5241722Y-6373906D01*
X5241728Y-6373917D01*
X5318385Y-6488641D01*
X5415958Y-6586214D01*
X5530682Y-6662871D01*
X5530693Y-6662877D01*
X5551743Y-6671596D01*
X5658172Y-6715680D01*
X5793507Y-6742600D01*
X5793508Y-6742600D01*
X5931492Y-6742600D01*
X5931493Y-6742600D01*
X6066828Y-6715680D01*
X6194311Y-6662875D01*
X6199684Y-6659285D01*
X6254686Y-6642600D01*
X6415557Y-6642600D01*
X6473748Y-6661507D01*
X6485561Y-6671596D01*
X12129665Y-12315701D01*
X12156758Y-12366387D01*
X12158018Y-12372724D01*
X12158020Y-12372730D01*
X12210822Y-12500206D01*
X12210828Y-12500217D01*
X12287485Y-12614941D01*
X12385058Y-12712514D01*
X12499782Y-12789171D01*
X12499793Y-12789177D01*
X12546883Y-12808682D01*
X12627272Y-12841980D01*
X12762607Y-12868900D01*
X12762608Y-12868900D01*
X12900592Y-12868900D01*
X12900593Y-12868900D01*
X13035928Y-12841980D01*
X13163411Y-12789175D01*
X13278142Y-12712514D01*
X13375714Y-12614942D01*
X13452375Y-12500211D01*
X13505180Y-12372728D01*
X13532100Y-12237393D01*
X13532100Y-12099407D01*
X13505180Y-11964072D01*
X13452375Y-11836589D01*
X13452374Y-11836587D01*
X13452371Y-11836582D01*
X13375714Y-11721858D01*
X13278141Y-11624285D01*
X13163417Y-11547628D01*
X13163406Y-11547622D01*
X13035930Y-11494820D01*
X13035924Y-11494818D01*
X13029587Y-11493558D01*
X12978901Y-11466465D01*
X10684783Y-9172347D01*
X10619640Y-9107204D01*
X16505300Y-9107204D01*
X16505300Y-9245195D01*
X16532220Y-9380527D01*
X16532220Y-9380529D01*
X16585022Y-9508006D01*
X16585028Y-9508017D01*
X16661685Y-9622741D01*
X16759258Y-9720314D01*
X16873982Y-9796971D01*
X16873993Y-9796977D01*
X16896801Y-9806424D01*
X17001472Y-9849780D01*
X17136807Y-9876700D01*
X17136808Y-9876700D01*
X17274792Y-9876700D01*
X17274793Y-9876700D01*
X17410128Y-9849780D01*
X17537611Y-9796975D01*
X17652342Y-9720314D01*
X17749914Y-9622742D01*
X17826575Y-9508011D01*
X17879380Y-9380528D01*
X17906300Y-9245193D01*
X17906300Y-9107207D01*
X17879380Y-8971872D01*
X17826575Y-8844389D01*
X17826574Y-8844387D01*
X17826571Y-8844382D01*
X17749914Y-8729658D01*
X17652341Y-8632085D01*
X17537617Y-8555428D01*
X17537606Y-8555422D01*
X17410128Y-8502620D01*
X17274795Y-8475700D01*
X17274793Y-8475700D01*
X17136807Y-8475700D01*
X17136804Y-8475700D01*
X17001472Y-8502620D01*
X17001470Y-8502620D01*
X16873993Y-8555422D01*
X16873982Y-8555428D01*
X16759258Y-8632085D01*
X16661685Y-8729658D01*
X16585028Y-8844382D01*
X16585022Y-8844393D01*
X16532220Y-8971870D01*
X16532220Y-8971872D01*
X16505300Y-9107204D01*
X10619640Y-9107204D01*
X7600193Y-6087758D01*
X7536678Y-6024243D01*
X12673300Y-6024243D01*
X12673300Y-6182357D01*
X12714223Y-6335084D01*
X12793280Y-6472016D01*
X12905084Y-6583820D01*
X13042016Y-6662877D01*
X13194743Y-6703800D01*
X13194745Y-6703800D01*
X13352855Y-6703800D01*
X13352857Y-6703800D01*
X13505584Y-6662877D01*
X13642516Y-6583820D01*
X13754320Y-6472016D01*
X13833377Y-6335084D01*
X13874300Y-6182357D01*
X13874300Y-6024243D01*
X13833377Y-5871516D01*
X13754320Y-5734584D01*
X13642516Y-5622780D01*
X13505584Y-5543723D01*
X13352857Y-5502800D01*
X13194743Y-5502800D01*
X13042016Y-5543723D01*
X12905084Y-5622780D01*
X12793280Y-5734584D01*
X12714223Y-5871516D01*
X12673300Y-6024243D01*
X7536678Y-6024243D01*
X7185821Y-5673386D01*
X7185820Y-5673384D01*
X7074016Y-5561580D01*
X7074013Y-5561578D01*
X6978431Y-5506394D01*
X6978428Y-5506393D01*
X6937087Y-5482524D01*
X6937086Y-5482523D01*
X6937085Y-5482523D01*
X6784357Y-5441599D01*
X6626243Y-5441599D01*
X6620180Y-5441599D01*
X6620164Y-5441600D01*
X6254686Y-5441600D01*
X6199684Y-5424915D01*
X6194315Y-5421328D01*
X6194311Y-5421325D01*
X6066828Y-5368520D01*
X5931495Y-5341600D01*
X5931493Y-5341600D01*
X5793507Y-5341600D01*
X5793504Y-5341600D01*
X5658172Y-5368520D01*
X5658170Y-5368520D01*
X5530693Y-5421322D01*
X5530682Y-5421328D01*
X5415958Y-5497985D01*
X5318385Y-5595558D01*
X5241728Y-5710282D01*
X5241722Y-5710293D01*
X5188920Y-5837770D01*
X5188920Y-5837772D01*
X5162000Y-5973104D01*
X2000000Y-5973104D01*
X2000000Y-2099000D01*
X2018907Y-2040809D01*
X2068407Y-2004845D01*
X2099000Y-2000000D01*
X77901000Y-2000000D01*
X77959191Y-2018907D01*
G37*
%TD.AperFunction*%
%TA.AperFunction,Conductor*%
G36*
X29503045Y-25358491D02*
G01*
X29546310Y-25401756D01*
X29557100Y-25446701D01*
X29557100Y-31905991D01*
X29538193Y-31964182D01*
X29488693Y-32000146D01*
X29427507Y-32000146D01*
X29388096Y-31975995D01*
X29385490Y-31973389D01*
X29385489Y-31973387D01*
X29301613Y-31889511D01*
X29301610Y-31889509D01*
X29301608Y-31889507D01*
X29198889Y-31830202D01*
X29198890Y-31830202D01*
X29084306Y-31799499D01*
X29077875Y-31798653D01*
X29078102Y-31796928D01*
X29027826Y-31780593D01*
X28991862Y-31731093D01*
X28991862Y-31669907D01*
X29000281Y-31651000D01*
X29037005Y-31587392D01*
X29037005Y-31587390D01*
X29037007Y-31587388D01*
X29064300Y-31485527D01*
X29064300Y-31380073D01*
X29064300Y-25741501D01*
X29083207Y-25683310D01*
X29093296Y-25671497D01*
X29388096Y-25376697D01*
X29442613Y-25348920D01*
X29503045Y-25358491D01*
G37*
%TD.AperFunction*%
%TA.AperFunction,Conductor*%
G36*
X32217688Y-23406046D02*
G01*
X32258478Y-23444755D01*
X32270580Y-23465716D01*
X32321605Y-23516741D01*
X32349381Y-23571256D01*
X32350600Y-23586743D01*
X32350600Y-23607373D01*
X32350600Y-23712827D01*
X32365120Y-23767016D01*
X32377894Y-23814692D01*
X32430616Y-23906008D01*
X32430617Y-23906009D01*
X32430618Y-23906010D01*
X32430620Y-23906013D01*
X33039291Y-24514684D01*
X33632165Y-25107558D01*
X33659942Y-25162075D01*
X33650371Y-25222507D01*
X33607106Y-25265772D01*
X33587785Y-25273189D01*
X33476815Y-25302923D01*
X33442732Y-25322601D01*
X33343302Y-25380007D01*
X33339881Y-25381982D01*
X33292900Y-25428962D01*
X33238383Y-25456738D01*
X33177951Y-25447166D01*
X33173399Y-25444694D01*
X33169987Y-25442724D01*
X33169984Y-25442723D01*
X33017257Y-25401800D01*
X32859143Y-25401800D01*
X32706416Y-25442723D01*
X32569484Y-25521780D01*
X32457680Y-25633584D01*
X32378623Y-25770516D01*
X32357591Y-25849011D01*
X32337700Y-25923244D01*
X32337700Y-25995399D01*
X32318793Y-26053590D01*
X32308704Y-26065403D01*
X30869616Y-27504491D01*
X30816894Y-27595807D01*
X30800975Y-27655220D01*
X30789600Y-27697673D01*
X30789600Y-29978871D01*
X30770693Y-30037062D01*
X30721193Y-30073026D01*
X30664978Y-30074498D01*
X30650057Y-30070500D01*
X30491943Y-30070500D01*
X30491938Y-30070500D01*
X30482717Y-30072971D01*
X30421616Y-30069765D01*
X30374068Y-30031257D01*
X30358100Y-29977343D01*
X30358100Y-25209900D01*
X30377007Y-25151709D01*
X30387090Y-25139902D01*
X32102741Y-23424250D01*
X32157256Y-23396475D01*
X32217688Y-23406046D01*
G37*
%TD.AperFunction*%
%TA.AperFunction,Conductor*%
G36*
X71140000Y-26734219D02*
G01*
X71176746Y-26770000D01*
X71278641Y-26770000D01*
X71278644Y-26769999D01*
X71452518Y-26735414D01*
X71552814Y-26693870D01*
X71613811Y-26689069D01*
X71665980Y-26721038D01*
X71689395Y-26777566D01*
X71689700Y-26785334D01*
X71689700Y-27194945D01*
X71670793Y-27253136D01*
X71621293Y-27289100D01*
X71560107Y-27289100D01*
X71510607Y-27253136D01*
X71508385Y-27249947D01*
X71501593Y-27239782D01*
X71475858Y-27201267D01*
X71388733Y-27114142D01*
X71320279Y-27068402D01*
X71286285Y-27045688D01*
X71172455Y-26998538D01*
X71172449Y-26998536D01*
X71144877Y-26993052D01*
X71095126Y-26966883D01*
X71000764Y-26875000D01*
X70968552Y-26875000D01*
X70875553Y-26967998D01*
X70824867Y-26995091D01*
X70807552Y-26998535D01*
X70807549Y-26998536D01*
X70693714Y-27045688D01*
X70591267Y-27114142D01*
X70591263Y-27114145D01*
X70504142Y-27201266D01*
X70490000Y-27222430D01*
X70490000Y-27160218D01*
X70459552Y-27086709D01*
X70403291Y-27030448D01*
X70329782Y-27000000D01*
X70250218Y-27000000D01*
X70176709Y-27030448D01*
X70159836Y-27047320D01*
X70155449Y-27038709D01*
X70165020Y-26978277D01*
X70183227Y-26953218D01*
X70640000Y-26496445D01*
X70640000Y-26120000D01*
X71140000Y-26120000D01*
X71140000Y-26734219D01*
G37*
%TD.AperFunction*%
%TD*%
M02*
