%TF.GenerationSoftware,KiCad,Pcbnew,10.0.5*%
%TF.CreationDate,2026-08-18T07:39:54-04:00*%
%TF.ProjectId,bench_board,62656e63-685f-4626-9f61-72642e6b6963,rev?*%
%TF.SameCoordinates,Original*%
%TF.FileFunction,Soldermask,Bot*%
%TF.FilePolarity,Negative*%
%FSLAX46Y46*%
G04 Gerber Fmt 4.6, Leading zero omitted, Abs format (unit mm)*
G04 Created by KiCad (PCBNEW 10.0.5) date 2026-08-18 07:39:54*
%MOMM*%
%LPD*%
G01*
G04 APERTURE LIST*
%ADD10R,1.700000X1.700000*%
%ADD11C,1.700000*%
%ADD12C,6.000000*%
%ADD13C,0.650000*%
%ADD14O,0.650000X0.950000*%
%ADD15O,1.400000X0.800000*%
G04 APERTURE END LIST*
D10*
%TO.C,J9*%
X43000000Y-7000000D03*
D11*
X45540000Y-7000000D03*
X48080000Y-7000000D03*
X50620000Y-7000000D03*
X53160000Y-7000000D03*
X55700000Y-7000000D03*
X58240000Y-7000000D03*
X60780000Y-7000000D03*
X63320000Y-7000000D03*
X65860000Y-7000000D03*
X68400000Y-7000000D03*
X70940000Y-7000000D03*
X73480000Y-7000000D03*
X76020000Y-7000000D03*
%TD*%
D12*
%TO.C,MH1*%
X24750000Y-14750000D03*
%TD*%
D10*
%TO.C,J1*%
X6000000Y-30000000D03*
D11*
X8540000Y-30000000D03*
%TD*%
D10*
%TO.C,J10*%
X55000000Y-58000000D03*
D11*
X57540000Y-58000000D03*
%TD*%
D13*
%TO.C,J3*%
X69640000Y-33600000D03*
D14*
X69640000Y-26400000D03*
D13*
X70290000Y-27200000D03*
X70990000Y-27600000D03*
X70990000Y-28400000D03*
X70290000Y-28800000D03*
X70990000Y-29200000D03*
X70290000Y-29600000D03*
X70290000Y-30400000D03*
X70990000Y-30800000D03*
X70290000Y-31200000D03*
X70990000Y-31600000D03*
X70990000Y-32400000D03*
X70290000Y-32800000D03*
D15*
X76840000Y-34490000D03*
X70890000Y-34130000D03*
X70890000Y-25870000D03*
X76840000Y-25510000D03*
%TD*%
D10*
%TO.C,J5*%
X40000000Y-47000000D03*
D11*
X40000000Y-49540000D03*
X40000000Y-52080000D03*
X40000000Y-54620000D03*
X40000000Y-57160000D03*
%TD*%
D12*
%TO.C,MH3*%
X24750000Y-45250000D03*
%TD*%
D10*
%TO.C,J4*%
X30000000Y-47000000D03*
D11*
X30000000Y-49540000D03*
X30000000Y-52080000D03*
X30000000Y-54620000D03*
%TD*%
D10*
%TO.C,J8*%
X71500000Y-56000000D03*
D11*
X74040000Y-56000000D03*
X76580000Y-56000000D03*
%TD*%
D10*
%TO.C,J2*%
X30000000Y-12000000D03*
D11*
X30000000Y-14540000D03*
%TD*%
D10*
%TO.C,J6*%
X62000000Y-47000000D03*
D11*
X62000000Y-49540000D03*
X62000000Y-52080000D03*
X62000000Y-54620000D03*
X62000000Y-57160000D03*
%TD*%
D10*
%TO.C,J7*%
X71000000Y-48000000D03*
D11*
X73540000Y-48000000D03*
%TD*%
D12*
%TO.C,MH2*%
X55250000Y-14750000D03*
%TD*%
%TO.C,MH4*%
X55250000Y-45250000D03*
%TD*%
M02*
