%TF.GenerationSoftware,KiCad,Pcbnew,10.0.5*%
%TF.CreationDate,2026-08-17T16:57:37-04:00*%
%TF.ProjectId,bench_board,62656e63-685f-4626-9f61-72642e6b6963,rev?*%
%TF.SameCoordinates,Original*%
%TF.FileFunction,Copper,L1,Top*%
%TF.FilePolarity,Positive*%
%FSLAX46Y46*%
G04 Gerber Fmt 4.6, Leading zero omitted, Abs format (unit mm)*
G04 Created by KiCad (PCBNEW 10.0.5) date 2026-08-17 16:57:37*
%MOMM*%
%LPD*%
G01*
G04 APERTURE LIST*
G04 Aperture macros list*
%AMRoundRect*
0 Rectangle with rounded corners*
0 $1 Rounding radius*
0 $2 $3 $4 $5 $6 $7 $8 $9 X,Y pos of 4 corners*
0 Add a 4 corners polygon primitive as box body*
4,1,4,$2,$3,$4,$5,$6,$7,$8,$9,$2,$3,0*
0 Add four circle primitives for the rounded corners*
1,1,$1+$1,$2,$3*
1,1,$1+$1,$4,$5*
1,1,$1+$1,$6,$7*
1,1,$1+$1,$8,$9*
0 Add four rect primitives between the rounded corners*
20,1,$1+$1,$2,$3,$4,$5,0*
20,1,$1+$1,$4,$5,$6,$7,0*
20,1,$1+$1,$6,$7,$8,$9,0*
20,1,$1+$1,$8,$9,$2,$3,0*%
G04 Aperture macros list end*
%TA.AperFunction,SMDPad,CuDef*%
%ADD10RoundRect,0.225000X-0.225000X-0.375000X0.225000X-0.375000X0.225000X0.375000X-0.225000X0.375000X0*%
%TD*%
%TA.AperFunction,SMDPad,CuDef*%
%ADD11RoundRect,0.135000X0.135000X0.185000X-0.135000X0.185000X-0.135000X-0.185000X0.135000X-0.185000X0*%
%TD*%
%TA.AperFunction,ComponentPad*%
%ADD12R,1.700000X1.700000*%
%TD*%
%TA.AperFunction,ComponentPad*%
%ADD13C,1.700000*%
%TD*%
%TA.AperFunction,SMDPad,CuDef*%
%ADD14RoundRect,0.250000X-0.375000X-1.075000X0.375000X-1.075000X0.375000X1.075000X-0.375000X1.075000X0*%
%TD*%
%TA.AperFunction,SMDPad,CuDef*%
%ADD15RoundRect,0.135000X-0.185000X0.135000X-0.185000X-0.135000X0.185000X-0.135000X0.185000X0.135000X0*%
%TD*%
%TA.AperFunction,SMDPad,CuDef*%
%ADD16RoundRect,0.250000X-0.250000X-0.475000X0.250000X-0.475000X0.250000X0.475000X-0.250000X0.475000X0*%
%TD*%
%TA.AperFunction,SMDPad,CuDef*%
%ADD17RoundRect,0.135000X-0.135000X-0.185000X0.135000X-0.185000X0.135000X0.185000X-0.135000X0.185000X0*%
%TD*%
%TA.AperFunction,SMDPad,CuDef*%
%ADD18RoundRect,0.135000X0.185000X-0.135000X0.185000X0.135000X-0.185000X0.135000X-0.185000X-0.135000X0*%
%TD*%
%TA.AperFunction,SMDPad,CuDef*%
%ADD19RoundRect,0.140000X-0.140000X-0.170000X0.140000X-0.170000X0.140000X0.170000X-0.140000X0.170000X0*%
%TD*%
%TA.AperFunction,SMDPad,CuDef*%
%ADD20RoundRect,0.075000X0.275000X-0.075000X0.275000X0.075000X-0.275000X0.075000X-0.275000X-0.075000X0*%
%TD*%
%TA.AperFunction,ComponentPad*%
%ADD21C,0.650000*%
%TD*%
%TA.AperFunction,ComponentPad*%
%ADD22O,1.400000X0.800000*%
%TD*%
%TA.AperFunction,SMDPad,CuDef*%
%ADD23RoundRect,0.225000X-0.250000X0.225000X-0.250000X-0.225000X0.250000X-0.225000X0.250000X0.225000X0*%
%TD*%
%TA.AperFunction,SMDPad,CuDef*%
%ADD24RoundRect,0.200000X-0.200000X-0.275000X0.200000X-0.275000X0.200000X0.275000X-0.200000X0.275000X0*%
%TD*%
%TA.AperFunction,SMDPad,CuDef*%
%ADD25RoundRect,0.140000X-0.170000X0.140000X-0.170000X-0.140000X0.170000X-0.140000X0.170000X0.140000X0*%
%TD*%
%TA.AperFunction,SMDPad,CuDef*%
%ADD26RoundRect,0.150000X-0.825000X-0.150000X0.825000X-0.150000X0.825000X0.150000X-0.825000X0.150000X0*%
%TD*%
%TA.AperFunction,HeatsinkPad*%
%ADD27R,2.410000X3.810000*%
%TD*%
%TA.AperFunction,SMDPad,CuDef*%
%ADD28RoundRect,0.150000X-0.512500X-0.150000X0.512500X-0.150000X0.512500X0.150000X-0.512500X0.150000X0*%
%TD*%
%TA.AperFunction,SMDPad,CuDef*%
%ADD29RoundRect,0.225000X0.225000X0.250000X-0.225000X0.250000X-0.225000X-0.250000X0.225000X-0.250000X0*%
%TD*%
%TA.AperFunction,SMDPad,CuDef*%
%ADD30RoundRect,0.075000X-0.350000X-0.075000X0.350000X-0.075000X0.350000X0.075000X-0.350000X0.075000X0*%
%TD*%
%TA.AperFunction,SMDPad,CuDef*%
%ADD31RoundRect,0.075000X0.075000X-0.350000X0.075000X0.350000X-0.075000X0.350000X-0.075000X-0.350000X0*%
%TD*%
%TA.AperFunction,SMDPad,CuDef*%
%ADD32RoundRect,0.250000X-1.075000X0.375000X-1.075000X-0.375000X1.075000X-0.375000X1.075000X0.375000X0*%
%TD*%
%TA.AperFunction,SMDPad,CuDef*%
%ADD33RoundRect,0.250000X-1.000000X-0.650000X1.000000X-0.650000X1.000000X0.650000X-1.000000X0.650000X0*%
%TD*%
%TA.AperFunction,SMDPad,CuDef*%
%ADD34RoundRect,0.250000X-0.750000X-0.950000X0.750000X-0.950000X0.750000X0.950000X-0.750000X0.950000X0*%
%TD*%
%TA.AperFunction,SMDPad,CuDef*%
%ADD35RoundRect,0.250000X-0.325000X-1.100000X0.325000X-1.100000X0.325000X1.100000X-0.325000X1.100000X0*%
%TD*%
%TA.AperFunction,SMDPad,CuDef*%
%ADD36RoundRect,0.225000X-0.225000X-0.250000X0.225000X-0.250000X0.225000X0.250000X-0.225000X0.250000X0*%
%TD*%
%TA.AperFunction,SMDPad,CuDef*%
%ADD37RoundRect,0.075000X-0.700000X-0.075000X0.700000X-0.075000X0.700000X0.075000X-0.700000X0.075000X0*%
%TD*%
%TA.AperFunction,SMDPad,CuDef*%
%ADD38RoundRect,0.075000X-0.075000X-0.700000X0.075000X-0.700000X0.075000X0.700000X-0.075000X0.700000X0*%
%TD*%
%TA.AperFunction,SMDPad,CuDef*%
%ADD39RoundRect,0.250000X0.250000X0.475000X-0.250000X0.475000X-0.250000X-0.475000X0.250000X-0.475000X0*%
%TD*%
%TA.AperFunction,SMDPad,CuDef*%
%ADD40RoundRect,0.150000X-0.587500X-0.150000X0.587500X-0.150000X0.587500X0.150000X-0.587500X0.150000X0*%
%TD*%
%TA.AperFunction,SMDPad,CuDef*%
%ADD41RoundRect,0.140000X0.140000X0.170000X-0.140000X0.170000X-0.140000X-0.170000X0.140000X-0.170000X0*%
%TD*%
%TA.AperFunction,ViaPad*%
%ADD42C,0.800000*%
%TD*%
%TA.AperFunction,ViaPad*%
%ADD43C,0.600000*%
%TD*%
%TA.AperFunction,Conductor*%
%ADD44C,0.400000*%
%TD*%
%TA.AperFunction,Conductor*%
%ADD45C,0.600000*%
%TD*%
%TA.AperFunction,Conductor*%
%ADD46C,0.200000*%
%TD*%
%TA.AperFunction,Conductor*%
%ADD47C,0.150000*%
%TD*%
%TA.AperFunction,Conductor*%
%ADD48C,0.450000*%
%TD*%
%TA.AperFunction,Conductor*%
%ADD49C,0.250000*%
%TD*%
%TA.AperFunction,Conductor*%
%ADD50C,0.540800*%
%TD*%
%TA.AperFunction,Conductor*%
%ADD51C,0.560800*%
%TD*%
G04 APERTURE END LIST*
D10*
%TO.P,D2,1*%
%TO.N,/5V_RX*%
X49350000Y-54800000D03*
%TO.P,D2,2*%
%TO.N,/BUZZER_SW*%
X52650000Y-54800000D03*
%TD*%
D11*
%TO.P,R5,1*%
%TO.N,/USB_DM*%
X54010000Y-29500000D03*
%TO.P,R5,2*%
%TO.N,/USB_DM_MCU*%
X52990000Y-29500000D03*
%TD*%
D12*
%TO.P,J9,1*%
%TO.N,/3V3*%
X43000000Y-7000000D03*
D13*
%TO.P,J9,2*%
%TO.N,/GND*%
X45540000Y-7000000D03*
%TO.P,J9,3*%
%TO.N,/EXP_I2C_SCL*%
X48080000Y-7000000D03*
%TO.P,J9,4*%
%TO.N,/EXP_I2C_SDA*%
X50620000Y-7000000D03*
%TO.P,J9,5*%
%TO.N,/EXP_SPI_SCK*%
X53160000Y-7000000D03*
%TO.P,J9,6*%
%TO.N,/EXP_SPI_MOSI*%
X55700000Y-7000000D03*
%TO.P,J9,7*%
%TO.N,/EXP_SPI_MISO*%
X58240000Y-7000000D03*
%TO.P,J9,8*%
%TO.N,/EXP_SPI_CS1*%
X60780000Y-7000000D03*
%TO.P,J9,9*%
%TO.N,/EXP_SPI_CS2*%
X63320000Y-7000000D03*
%TO.P,J9,10*%
%TO.N,/EXP_UART_RX*%
X65860000Y-7000000D03*
%TO.P,J9,11*%
%TO.N,/EXP_IRQ1*%
X68400000Y-7000000D03*
%TO.P,J9,12*%
%TO.N,/EXP_IRQ2*%
X70940000Y-7000000D03*
%TO.P,J9,13*%
%TO.N,/5V_RX*%
X73480000Y-7000000D03*
%TO.P,J9,14*%
%TO.N,/GND*%
X76020000Y-7000000D03*
%TD*%
D14*
%TO.P,L2,1*%
%TO.N,/3V3*%
X11600000Y-8000000D03*
%TO.P,L2,2*%
%TO.N,/BOOST_SW*%
X14400000Y-8000000D03*
%TD*%
D15*
%TO.P,R4,1*%
%TO.N,/BOOT0*%
X26642000Y-27303000D03*
%TO.P,R4,2*%
%TO.N,/GND*%
X26642000Y-28323000D03*
%TD*%
D16*
%TO.P,C26,1*%
%TO.N,/5V_RX*%
X6050000Y-14000000D03*
%TO.P,C26,2*%
%TO.N,/GND*%
X7950000Y-14000000D03*
%TD*%
D17*
%TO.P,R3,1*%
%TO.N,/3V3*%
X47913000Y-43527000D03*
%TO.P,R3,2*%
%TO.N,/NRST*%
X48933000Y-43527000D03*
%TD*%
%TO.P,R11,1*%
%TO.N,/COMP_NODE*%
X9490000Y-51000000D03*
%TO.P,R11,2*%
%TO.N,/COMP_RC*%
X10510000Y-51000000D03*
%TD*%
D16*
%TO.P,C15,1*%
%TO.N,/3V3*%
X47553000Y-40243000D03*
%TO.P,C15,2*%
%TO.N,/GND*%
X49453000Y-40243000D03*
%TD*%
D18*
%TO.P,R1,1*%
%TO.N,/3V3*%
X22277000Y-49136000D03*
%TO.P,R1,2*%
%TO.N,/VFB*%
X22277000Y-48116000D03*
%TD*%
D19*
%TO.P,C8,1*%
%TO.N,/3V3*%
X44379000Y-41446000D03*
%TO.P,C8,2*%
%TO.N,/GND*%
X45339000Y-41446000D03*
%TD*%
%TO.P,C16,1*%
%TO.N,/NRST*%
X47182000Y-37819000D03*
%TO.P,C16,2*%
%TO.N,/GND*%
X48142000Y-37819000D03*
%TD*%
%TO.P,C22,1*%
%TO.N,/VBAT_SENSE*%
X18020000Y-26000000D03*
%TO.P,C22,2*%
%TO.N,/GND*%
X18980000Y-26000000D03*
%TD*%
%TO.P,C6,1*%
%TO.N,/3V3*%
X44491000Y-43260000D03*
%TO.P,C6,2*%
%TO.N,/GND*%
X45451000Y-43260000D03*
%TD*%
D12*
%TO.P,J1,1*%
%TO.N,/VBAT_4S*%
X6000000Y-30000000D03*
D13*
%TO.P,J1,2*%
%TO.N,/GND*%
X8540000Y-30000000D03*
%TD*%
D12*
%TO.P,J10,1*%
%TO.N,/5V_RX*%
X55000000Y-58000000D03*
D13*
%TO.P,J10,2*%
%TO.N,/BUZZER_SW*%
X57540000Y-58000000D03*
%TD*%
D19*
%TO.P,C7,1*%
%TO.N,/3V3*%
X44708000Y-35851000D03*
%TO.P,C7,2*%
%TO.N,/GND*%
X45668000Y-35851000D03*
%TD*%
D17*
%TO.P,R14,1*%
%TO.N,/BUZZER_GPIO*%
X46490000Y-51000000D03*
%TO.P,R14,2*%
%TO.N,/BUZZER_GATE*%
X47510000Y-51000000D03*
%TD*%
D15*
%TO.P,R7,1*%
%TO.N,/CC1*%
X56500000Y-34990000D03*
%TO.P,R7,2*%
%TO.N,/GND*%
X56500000Y-36010000D03*
%TD*%
D20*
%TO.P,J3,A1*%
%TO.N,/GND*%
X68980000Y-32750000D03*
%TO.P,J3,A2*%
%TO.N,N/C*%
X68980000Y-32250000D03*
%TO.P,J3,A3*%
X68980000Y-31750000D03*
%TO.P,J3,A4*%
%TO.N,/USB_VBUS*%
X68980000Y-31250000D03*
%TO.P,J3,A5*%
%TO.N,/CC1*%
X68980000Y-30750000D03*
%TO.P,J3,A6*%
%TO.N,/USB_DP*%
X68980000Y-30250000D03*
%TO.P,J3,A7*%
%TO.N,/USB_DM*%
X68980000Y-29750000D03*
%TO.P,J3,A8*%
%TO.N,N/C*%
X68980000Y-29250000D03*
%TO.P,J3,A9*%
%TO.N,/USB_VBUS*%
X68980000Y-28750000D03*
%TO.P,J3,A10*%
%TO.N,N/C*%
X68980000Y-28250000D03*
%TO.P,J3,A11*%
X68980000Y-27750000D03*
%TO.P,J3,A12*%
%TO.N,/GND*%
X68980000Y-27250000D03*
D21*
%TO.P,J3,B1*%
X70290000Y-27200000D03*
%TO.P,J3,B2*%
%TO.N,N/C*%
X70990000Y-27600000D03*
%TO.P,J3,B3*%
X70990000Y-28400000D03*
%TO.P,J3,B4*%
%TO.N,/USB_VBUS*%
X70290000Y-28800000D03*
%TO.P,J3,B5*%
%TO.N,/CC2*%
X70990000Y-29200000D03*
%TO.P,J3,B6*%
%TO.N,/USB_DP*%
X70290000Y-29600000D03*
%TO.P,J3,B7*%
%TO.N,/USB_DM*%
X70290000Y-30400000D03*
%TO.P,J3,B8*%
%TO.N,N/C*%
X70990000Y-30800000D03*
%TO.P,J3,B9*%
%TO.N,/USB_VBUS*%
X70290000Y-31200000D03*
%TO.P,J3,B10*%
%TO.N,N/C*%
X70990000Y-31600000D03*
%TO.P,J3,B11*%
X70990000Y-32400000D03*
%TO.P,J3,B12*%
%TO.N,/GND*%
X70290000Y-32800000D03*
D22*
%TO.P,J3,SH*%
X76840000Y-34490000D03*
X70890000Y-34130000D03*
X70890000Y-25870000D03*
X76840000Y-25510000D03*
%TD*%
D16*
%TO.P,C25,1*%
%TO.N,/3V3*%
X18050000Y-8000000D03*
%TO.P,C25,2*%
%TO.N,/GND*%
X19950000Y-8000000D03*
%TD*%
D19*
%TO.P,C9,1*%
%TO.N,/3V3*%
X38087000Y-41899000D03*
%TO.P,C9,2*%
%TO.N,/GND*%
X39047000Y-41899000D03*
%TD*%
D12*
%TO.P,J5,1*%
%TO.N,/M1*%
X40000000Y-47000000D03*
D13*
%TO.P,J5,2*%
%TO.N,/M2*%
X40000000Y-49540000D03*
%TO.P,J5,3*%
%TO.N,/M3*%
X40000000Y-52080000D03*
%TO.P,J5,4*%
%TO.N,/M4*%
X40000000Y-54620000D03*
%TO.P,J5,5*%
%TO.N,/GND*%
X40000000Y-57160000D03*
%TD*%
D23*
%TO.P,C12,1*%
%TO.N,/VCAP2*%
X24537000Y-26506000D03*
%TO.P,C12,2*%
%TO.N,/GND*%
X24537000Y-28056000D03*
%TD*%
D16*
%TO.P,C2,1*%
%TO.N,/3V3*%
X24414000Y-48823000D03*
%TO.P,C2,2*%
%TO.N,/GND*%
X26314000Y-48823000D03*
%TD*%
D24*
%TO.P,R13,1*%
%TO.N,/VFB_5V*%
X18175000Y-18500000D03*
%TO.P,R13,2*%
%TO.N,/GND*%
X19825000Y-18500000D03*
%TD*%
D25*
%TO.P,C19,1*%
%TO.N,/MPU_REGOUT*%
X44731000Y-28492000D03*
%TO.P,C19,2*%
%TO.N,/GND*%
X44731000Y-29452000D03*
%TD*%
D26*
%TO.P,U2,1*%
%TO.N,/VBST_NODE*%
X11525000Y-43095000D03*
%TO.P,U2,2*%
%TO.N,/VBAT_4S*%
X11525000Y-44365000D03*
%TO.P,U2,3*%
%TO.N,/SW_NODE*%
X11525000Y-45635000D03*
%TO.P,U2,4*%
%TO.N,/GND*%
X11525000Y-46905000D03*
%TO.P,U2,5*%
%TO.N,/VFB*%
X16475000Y-46905000D03*
%TO.P,U2,6*%
%TO.N,/COMP_NODE*%
X16475000Y-45635000D03*
%TO.P,U2,7*%
%TO.N,/VBAT_4S*%
X16475000Y-44365000D03*
%TO.P,U2,8*%
%TO.N,/SS_NODE*%
X16475000Y-43095000D03*
D27*
%TO.P,U2,9*%
%TO.N,/GND*%
X14000000Y-45000000D03*
%TD*%
D28*
%TO.P,U5,1*%
%TO.N,/USB_DM*%
X63862500Y-23050000D03*
%TO.P,U5,2*%
%TO.N,/GND*%
X63862500Y-24000000D03*
%TO.P,U5,3*%
%TO.N,/USB_DP*%
X63862500Y-24950000D03*
%TO.P,U5,4*%
X66137500Y-24950000D03*
%TO.P,U5,5*%
%TO.N,/USB_VBUS*%
X66137500Y-24000000D03*
%TO.P,U5,6*%
%TO.N,/USB_DM*%
X66137500Y-23050000D03*
%TD*%
D17*
%TO.P,R2,1*%
%TO.N,/VFB*%
X26490000Y-40000000D03*
%TO.P,R2,2*%
%TO.N,/GND*%
X27510000Y-40000000D03*
%TD*%
D12*
%TO.P,J4,1*%
%TO.N,/3V3*%
X30000000Y-47000000D03*
D13*
%TO.P,J4,2*%
%TO.N,/GND*%
X30000000Y-49540000D03*
%TO.P,J4,3*%
%TO.N,/CRSF_TX*%
X30000000Y-52080000D03*
%TO.P,J4,4*%
%TO.N,/CRSF_RX*%
X30000000Y-54620000D03*
%TD*%
D19*
%TO.P,C10,1*%
%TO.N,/3V3*%
X44455000Y-39573000D03*
%TO.P,C10,2*%
%TO.N,/GND*%
X45415000Y-39573000D03*
%TD*%
D29*
%TO.P,C11,1*%
%TO.N,/VCAP1*%
X26363000Y-30423000D03*
%TO.P,C11,2*%
%TO.N,/GND*%
X24813000Y-30423000D03*
%TD*%
D19*
%TO.P,C17,1*%
%TO.N,/HSE_IN*%
X32639000Y-39216000D03*
%TO.P,C17,2*%
%TO.N,/GND*%
X33599000Y-39216000D03*
%TD*%
%TO.P,C23,1*%
%TO.N,/COMP_RC*%
X13020000Y-51000000D03*
%TO.P,C23,2*%
%TO.N,/GND*%
X13980000Y-51000000D03*
%TD*%
D30*
%TO.P,U4,1*%
%TO.N,/GND*%
X46050000Y-20750000D03*
%TO.P,U4,2*%
%TO.N,N/C*%
X46050000Y-21250000D03*
%TO.P,U4,3*%
X46050000Y-21750000D03*
%TO.P,U4,4*%
X46050000Y-22250000D03*
%TO.P,U4,5*%
X46050000Y-22750000D03*
%TO.P,U4,6*%
X46050000Y-23250000D03*
D31*
%TO.P,U4,7*%
X46750000Y-23950000D03*
%TO.P,U4,8*%
%TO.N,/SPI1_CS*%
X47250000Y-23950000D03*
%TO.P,U4,9*%
%TO.N,/SPI1_MISO*%
X47750000Y-23950000D03*
%TO.P,U4,10*%
%TO.N,/MPU_REGOUT*%
X48250000Y-23950000D03*
%TO.P,U4,11*%
%TO.N,/GND*%
X48750000Y-23950000D03*
%TO.P,U4,12*%
%TO.N,/MPU_INT*%
X49250000Y-23950000D03*
D30*
%TO.P,U4,13*%
%TO.N,/3V3*%
X49950000Y-23250000D03*
%TO.P,U4,14*%
%TO.N,N/C*%
X49950000Y-22750000D03*
%TO.P,U4,15*%
X49950000Y-22250000D03*
%TO.P,U4,16*%
X49950000Y-21750000D03*
%TO.P,U4,17*%
X49950000Y-21250000D03*
%TO.P,U4,18*%
%TO.N,/GND*%
X49950000Y-20750000D03*
D31*
%TO.P,U4,19*%
%TO.N,N/C*%
X49250000Y-20050000D03*
%TO.P,U4,20*%
%TO.N,/MPU_CPOUT*%
X48750000Y-20050000D03*
%TO.P,U4,21*%
%TO.N,N/C*%
X48250000Y-20050000D03*
%TO.P,U4,22*%
X47750000Y-20050000D03*
%TO.P,U4,23*%
%TO.N,/SPI1_SCK*%
X47250000Y-20050000D03*
%TO.P,U4,24*%
%TO.N,/SPI1_MOSI*%
X46750000Y-20050000D03*
%TD*%
D12*
%TO.P,J8,1*%
%TO.N,/TELEM_TX*%
X71500000Y-56000000D03*
D13*
%TO.P,J8,2*%
%TO.N,/GND*%
X74040000Y-56000000D03*
%TO.P,J8,3*%
%TO.N,/3V3*%
X76580000Y-56000000D03*
%TD*%
D19*
%TO.P,C14,1*%
%TO.N,/3V3*%
X44458000Y-37736000D03*
%TO.P,C14,2*%
%TO.N,/GND*%
X45418000Y-37736000D03*
%TD*%
D28*
%TO.P,U6,1*%
%TO.N,/BOOST_SW*%
X5862500Y-7050000D03*
%TO.P,U6,2*%
%TO.N,/GND*%
X5862500Y-8000000D03*
%TO.P,U6,3*%
%TO.N,/VFB_5V*%
X5862500Y-8950000D03*
%TO.P,U6,4*%
%TO.N,/3V3*%
X8137500Y-8950000D03*
%TO.P,U6,5*%
X8137500Y-8000000D03*
%TO.P,U6,6*%
%TO.N,N/C*%
X8137500Y-7050000D03*
%TD*%
D32*
%TO.P,L1,1*%
%TO.N,/SW_NODE*%
X20100000Y-43300000D03*
%TO.P,L1,2*%
%TO.N,/3V3*%
X20100000Y-46100000D03*
%TD*%
D17*
%TO.P,R15,1*%
%TO.N,/BUZZER_GATE*%
X46490000Y-54500000D03*
%TO.P,R15,2*%
%TO.N,/GND*%
X47510000Y-54500000D03*
%TD*%
D33*
%TO.P,D1,1*%
%TO.N,/BOOST_SW*%
X11000000Y-14000000D03*
%TO.P,D1,2*%
%TO.N,/5V_RX*%
X15000000Y-14000000D03*
%TD*%
D19*
%TO.P,C24,1*%
%TO.N,/SS_NODE*%
X16020000Y-51000000D03*
%TO.P,C24,2*%
%TO.N,/GND*%
X16980000Y-51000000D03*
%TD*%
D12*
%TO.P,J2,1*%
%TO.N,/BOOT0*%
X30000000Y-12000000D03*
D13*
%TO.P,J2,2*%
%TO.N,/3V3*%
X30000000Y-14540000D03*
%TD*%
D34*
%TO.P,Y1,1*%
%TO.N,/HSE_IN*%
X21750000Y-34000000D03*
%TO.P,Y1,2*%
%TO.N,/HSE_OUT*%
X25450000Y-34000000D03*
%TD*%
D18*
%TO.P,R10,1*%
%TO.N,/VBAT_SENSE*%
X18500000Y-33010000D03*
%TO.P,R10,2*%
%TO.N,/GND*%
X18500000Y-31990000D03*
%TD*%
D12*
%TO.P,J6,1*%
%TO.N,/3V3*%
X62000000Y-47000000D03*
D13*
%TO.P,J6,2*%
%TO.N,/SWDIO*%
X62000000Y-49540000D03*
%TO.P,J6,3*%
%TO.N,/SWCLK*%
X62000000Y-52080000D03*
%TO.P,J6,4*%
%TO.N,/NRST*%
X62000000Y-54620000D03*
%TO.P,J6,5*%
%TO.N,/GND*%
X62000000Y-57160000D03*
%TD*%
D24*
%TO.P,R12,1*%
%TO.N,/5V_RX*%
X18175000Y-14000000D03*
%TO.P,R12,2*%
%TO.N,/VFB_5V*%
X19825000Y-14000000D03*
%TD*%
D35*
%TO.P,C1,1*%
%TO.N,/VBAT_4S*%
X16378000Y-40046000D03*
%TO.P,C1,2*%
%TO.N,/GND*%
X19328000Y-40046000D03*
%TD*%
D36*
%TO.P,C13,1*%
%TO.N,/3V3*%
X36985000Y-39819000D03*
%TO.P,C13,2*%
%TO.N,/GND*%
X38535000Y-39819000D03*
%TD*%
D37*
%TO.P,U1,1*%
%TO.N,/3V3*%
X29325000Y-26250000D03*
%TO.P,U1,2*%
%TO.N,N/C*%
X29325000Y-26750000D03*
%TO.P,U1,3*%
X29325000Y-27250000D03*
%TO.P,U1,4*%
X29325000Y-27750000D03*
%TO.P,U1,5*%
%TO.N,/HSE_IN*%
X29325000Y-28250000D03*
%TO.P,U1,6*%
%TO.N,/HSE_OUT*%
X29325000Y-28750000D03*
%TO.P,U1,7*%
%TO.N,/NRST*%
X29325000Y-29250000D03*
%TO.P,U1,8*%
%TO.N,/EXP_SPI_CS1*%
X29325000Y-29750000D03*
%TO.P,U1,9*%
%TO.N,/EXP_SPI_CS2*%
X29325000Y-30250000D03*
%TO.P,U1,10*%
%TO.N,/EXP_IRQ1*%
X29325000Y-30750000D03*
%TO.P,U1,11*%
%TO.N,/EXP_IRQ2*%
X29325000Y-31250000D03*
%TO.P,U1,12*%
%TO.N,/GND*%
X29325000Y-31750000D03*
%TO.P,U1,13*%
%TO.N,/3V3*%
X29325000Y-32250000D03*
%TO.P,U1,14*%
%TO.N,/VBAT_SENSE*%
X29325000Y-32750000D03*
%TO.P,U1,15*%
%TO.N,N/C*%
X29325000Y-33250000D03*
%TO.P,U1,16*%
X29325000Y-33750000D03*
D38*
%TO.P,U1,17*%
X31250000Y-35675000D03*
%TO.P,U1,18*%
%TO.N,/GND*%
X31750000Y-35675000D03*
%TO.P,U1,19*%
%TO.N,/3V3*%
X32250000Y-35675000D03*
%TO.P,U1,20*%
%TO.N,/SPI1_CS*%
X32750000Y-35675000D03*
%TO.P,U1,21*%
%TO.N,/SPI1_SCK*%
X33250000Y-35675000D03*
%TO.P,U1,22*%
%TO.N,/SPI1_MISO*%
X33750000Y-35675000D03*
%TO.P,U1,23*%
%TO.N,/SPI1_MOSI*%
X34250000Y-35675000D03*
%TO.P,U1,24*%
%TO.N,/MPU_INT*%
X34750000Y-35675000D03*
%TO.P,U1,25*%
%TO.N,N/C*%
X35250000Y-35675000D03*
%TO.P,U1,26*%
X35750000Y-35675000D03*
%TO.P,U1,27*%
X36250000Y-35675000D03*
%TO.P,U1,28*%
X36750000Y-35675000D03*
%TO.P,U1,29*%
%TO.N,/EXP_I2C_SCL*%
X37250000Y-35675000D03*
%TO.P,U1,30*%
%TO.N,/EXP_I2C_SDA*%
X37750000Y-35675000D03*
%TO.P,U1,31*%
%TO.N,/VCAP1*%
X38250000Y-35675000D03*
%TO.P,U1,32*%
%TO.N,/3V3*%
X38750000Y-35675000D03*
D37*
%TO.P,U1,33*%
%TO.N,N/C*%
X40675000Y-33750000D03*
%TO.P,U1,34*%
%TO.N,/EXP_SPI_SCK*%
X40675000Y-33250000D03*
%TO.P,U1,35*%
%TO.N,/EXP_SPI_MISO*%
X40675000Y-32750000D03*
%TO.P,U1,36*%
%TO.N,/EXP_SPI_MOSI*%
X40675000Y-32250000D03*
%TO.P,U1,37*%
%TO.N,N/C*%
X40675000Y-31750000D03*
%TO.P,U1,38*%
X40675000Y-31250000D03*
%TO.P,U1,39*%
X40675000Y-30750000D03*
%TO.P,U1,40*%
X40675000Y-30250000D03*
%TO.P,U1,41*%
%TO.N,/BUZZER_GPIO*%
X40675000Y-29750000D03*
%TO.P,U1,42*%
%TO.N,/CRSF_TX*%
X40675000Y-29250000D03*
%TO.P,U1,43*%
%TO.N,/CRSF_RX*%
X40675000Y-28750000D03*
%TO.P,U1,44*%
%TO.N,/USB_DM_MCU*%
X40675000Y-28250000D03*
%TO.P,U1,45*%
%TO.N,/USB_DP_MCU*%
X40675000Y-27750000D03*
%TO.P,U1,46*%
%TO.N,/SWDIO*%
X40675000Y-27250000D03*
%TO.P,U1,47*%
%TO.N,/VCAP2*%
X40675000Y-26750000D03*
%TO.P,U1,48*%
%TO.N,/3V3*%
X40675000Y-26250000D03*
D38*
%TO.P,U1,49*%
%TO.N,/SWCLK*%
X38750000Y-24325000D03*
%TO.P,U1,50*%
%TO.N,N/C*%
X38250000Y-24325000D03*
%TO.P,U1,51*%
%TO.N,/TELEM_TX*%
X37750000Y-24325000D03*
%TO.P,U1,52*%
%TO.N,/EXP_UART_RX*%
X37250000Y-24325000D03*
%TO.P,U1,53*%
%TO.N,N/C*%
X36750000Y-24325000D03*
%TO.P,U1,54*%
X36250000Y-24325000D03*
%TO.P,U1,55*%
X35750000Y-24325000D03*
%TO.P,U1,56*%
X35250000Y-24325000D03*
%TO.P,U1,57*%
X34750000Y-24325000D03*
%TO.P,U1,58*%
%TO.N,/M1*%
X34250000Y-24325000D03*
%TO.P,U1,59*%
%TO.N,/M2*%
X33750000Y-24325000D03*
%TO.P,U1,60*%
%TO.N,/BOOT0*%
X33250000Y-24325000D03*
%TO.P,U1,61*%
%TO.N,/M3*%
X32750000Y-24325000D03*
%TO.P,U1,62*%
%TO.N,/M4*%
X32250000Y-24325000D03*
%TO.P,U1,63*%
%TO.N,/GND*%
X31750000Y-24325000D03*
%TO.P,U1,64*%
%TO.N,/3V3*%
X31250000Y-24325000D03*
%TD*%
D12*
%TO.P,J7,1*%
%TO.N,/5V_RX*%
X71000000Y-48000000D03*
D13*
%TO.P,J7,2*%
%TO.N,/GND*%
X73540000Y-48000000D03*
%TD*%
D19*
%TO.P,C21,1*%
%TO.N,/3V3*%
X45599000Y-34041000D03*
%TO.P,C21,2*%
%TO.N,/GND*%
X46559000Y-34041000D03*
%TD*%
D39*
%TO.P,C27,1*%
%TO.N,/5V_RX*%
X50300000Y-58000000D03*
%TO.P,C27,2*%
%TO.N,/GND*%
X48400000Y-58000000D03*
%TD*%
D18*
%TO.P,R9,1*%
%TO.N,/VBAT_4S*%
X18500000Y-29510000D03*
%TO.P,R9,2*%
%TO.N,/VBAT_SENSE*%
X18500000Y-28490000D03*
%TD*%
D25*
%TO.P,C20,1*%
%TO.N,/MPU_CPOUT*%
X45095000Y-31227000D03*
%TO.P,C20,2*%
%TO.N,/3V3*%
X45095000Y-32187000D03*
%TD*%
D19*
%TO.P,C18,1*%
%TO.N,/HSE_OUT*%
X32699000Y-41144000D03*
%TO.P,C18,2*%
%TO.N,/GND*%
X33659000Y-41144000D03*
%TD*%
D40*
%TO.P,Q1,1*%
%TO.N,/BUZZER_GATE*%
X50062500Y-50550000D03*
%TO.P,Q1,2*%
%TO.N,/GND*%
X50062500Y-52450000D03*
%TO.P,Q1,3*%
%TO.N,/BUZZER_SW*%
X51937500Y-51500000D03*
%TD*%
D15*
%TO.P,R8,1*%
%TO.N,/CC2*%
X56500000Y-31990000D03*
%TO.P,R8,2*%
%TO.N,/GND*%
X56500000Y-33010000D03*
%TD*%
D11*
%TO.P,R6,1*%
%TO.N,/USB_DP*%
X54010000Y-27500000D03*
%TO.P,R6,2*%
%TO.N,/USB_DP_MCU*%
X52990000Y-27500000D03*
%TD*%
D41*
%TO.P,C3,1*%
%TO.N,/SW_NODE*%
X14832000Y-40039000D03*
%TO.P,C3,2*%
%TO.N,/VBST_NODE*%
X13872000Y-40039000D03*
%TD*%
D42*
%TO.N,/5V_RX*%
X5024100Y-15025900D03*
X18175000Y-15172800D03*
D43*
%TO.N,/USB_DM*%
X63763600Y-29849500D03*
X54591700Y-30081700D03*
X66911200Y-22276300D03*
%TO.N,/USB_DM_MCU*%
X41902600Y-28521100D03*
X52406600Y-30083400D03*
%TO.N,/3V3*%
X44370200Y-42280500D03*
X22200000Y-46100000D03*
X13273800Y-6103300D03*
X23600000Y-49136000D03*
X42392700Y-36757000D03*
D42*
X17205800Y-9176200D03*
D43*
%TO.N,/GND*%
X47800000Y-57400000D03*
D42*
X20916300Y-8966300D03*
X34589500Y-41466400D03*
X7914200Y-12612000D03*
D43*
X50826700Y-20384000D03*
D42*
X22178000Y-30423000D03*
D43*
X50062500Y-53600000D03*
D42*
X15554600Y-47986900D03*
X19825000Y-19641000D03*
X53806500Y-37553800D03*
X62527000Y-24149200D03*
X45752800Y-29452000D03*
X24943100Y-40861000D03*
X40740800Y-43592700D03*
D43*
%TO.N,/EXP_I2C_SCL*%
X37250000Y-34437000D03*
%TO.N,/EXP_I2C_SDA*%
X38173500Y-34445900D03*
%TO.N,/EXP_SPI_SCK*%
X43356800Y-33150500D03*
%TO.N,/EXP_SPI_MOSI*%
X43210300Y-31833300D03*
%TO.N,/EXP_SPI_MISO*%
X44453500Y-30720200D03*
%TO.N,/EXP_SPI_CS1*%
X28032500Y-32064100D03*
%TO.N,/EXP_SPI_CS2*%
X31757900Y-30163300D03*
%TO.N,/EXP_UART_RX*%
X37250000Y-23069400D03*
%TO.N,/EXP_IRQ1*%
X30571000Y-30671000D03*
%TO.N,/EXP_IRQ2*%
X34417800Y-30981000D03*
D42*
%TO.N,/BOOST_SW*%
X12831600Y-12168400D03*
X5862500Y-6042100D03*
D43*
%TO.N,/BOOT0*%
X33708600Y-25862500D03*
X26642000Y-26571700D03*
%TO.N,/NRST*%
X39094000Y-30383500D03*
X46399100Y-37474800D03*
%TO.N,/COMP_NODE*%
X17812100Y-44965800D03*
X10282500Y-50207500D03*
%TO.N,/VFB*%
X19207600Y-47542000D03*
X25899200Y-39409200D03*
%TO.N,/VBAT_SENSE*%
X19325000Y-29282100D03*
X28118800Y-34066000D03*
X18500000Y-33734300D03*
D42*
%TO.N,/VBAT_4S*%
X9944600Y-43895800D03*
X17796800Y-30213200D03*
D43*
%TO.N,/BUZZER_GPIO*%
X42175000Y-29600000D03*
X45500000Y-51000000D03*
%TO.N,/CC1*%
X68169400Y-30849500D03*
X57084800Y-34405200D03*
%TO.N,/USB_VBUS*%
X68605100Y-25129300D03*
%TO.N,/USB_DP*%
X66910600Y-25723100D03*
%TO.N,/CC2*%
X57290500Y-31991100D03*
%TO.N,/M1*%
X34251100Y-23086100D03*
X35934200Y-26063100D03*
%TO.N,/M2*%
X37545400Y-26315400D03*
%TO.N,/M3*%
X32751100Y-23097000D03*
%TO.N,/M4*%
X32938200Y-26002300D03*
%TO.N,/VCAP2*%
X25471800Y-26506000D03*
X37023200Y-26856300D03*
%TO.N,/VFB_5V*%
X6617100Y-9704600D03*
X19110200Y-13285200D03*
%TO.N,/SW_NODE*%
X14356500Y-40790800D03*
D42*
X9905600Y-45635000D03*
D43*
X20300000Y-43102500D03*
%TO.N,/SS_NODE*%
X15446100Y-51573900D03*
X14567600Y-41964200D03*
%TO.N,/CRSF_TX*%
X37199500Y-29673100D03*
%TO.N,/CRSF_RX*%
X37240300Y-28921300D03*
%TO.N,/VCAP1*%
X37681800Y-37784600D03*
X29530400Y-34373300D03*
X26898500Y-31396600D03*
%TO.N,/HSE_IN*%
X23115300Y-35335100D03*
X31053300Y-38820700D03*
X26758300Y-29383400D03*
%TO.N,/SPI1_CS*%
X32750000Y-34428400D03*
X46769000Y-24841600D03*
%TO.N,/SPI1_MISO*%
X46803100Y-25605400D03*
X33750000Y-34441600D03*
%TO.N,/MPU_INT*%
X49249900Y-24883400D03*
X34748400Y-34443600D03*
%TO.N,/MPU_CPOUT*%
X48750000Y-19169600D03*
X45681800Y-30640200D03*
%TO.N,/SPI1_SCK*%
X33250000Y-36919300D03*
X47249900Y-19161300D03*
%TO.N,/SPI1_MOSI*%
X34250000Y-36910300D03*
X42812200Y-25011700D03*
X46157300Y-19457300D03*
%TO.N,/TELEM_TX*%
X44839100Y-24406100D03*
%TO.N,/SWDIO*%
X42410300Y-27174700D03*
%TO.N,/SWCLK*%
X39379400Y-24386000D03*
%TO.N,/USB_DP_MCU*%
X41908000Y-27750000D03*
X52260100Y-27176000D03*
%TD*%
%TO.N,/5V_RX*%
D44*
X49350000Y-54800000D02*
X50300000Y-58000000D01*
D45*
X5024100Y-15025900D02*
X6050000Y-14000000D01*
D44*
X50300000Y-58000000D02*
X55000000Y-58000000D01*
D45*
X15000000Y-14000000D02*
X18175000Y-14000000D01*
X18175000Y-15172800D02*
X18175000Y-14000000D01*
%TO.N,/BUZZER_SW*%
D44*
X52650000Y-54800000D02*
X57540000Y-54800000D01*
X51937500Y-51500000D02*
X52650000Y-54800000D01*
X57540000Y-54800000D02*
X57540000Y-58000000D01*
%TO.N,/USB_DM*%
D46*
X54010000Y-29500000D02*
X54591700Y-30081700D01*
D47*
X63763600Y-29849500D02*
X68880500Y-29849500D01*
D46*
X66911200Y-22276300D02*
X66137500Y-23050000D01*
X66137500Y-23050000D02*
X63862500Y-23050000D01*
D47*
X68880500Y-29849500D02*
X68980000Y-29750000D01*
%TO.N,/USB_DM_MCU*%
X40774500Y-28349500D02*
X40675000Y-28250000D01*
X41731000Y-28349500D02*
X40774500Y-28349500D01*
D46*
X41902600Y-28521100D02*
X41731000Y-28349500D01*
X52990000Y-29500000D02*
X52406600Y-30083400D01*
%TO.N,/3V3*%
D45*
X44458000Y-36101000D02*
X44458000Y-37736000D01*
X36985000Y-39819000D02*
X36985000Y-40797000D01*
X44379000Y-39649000D02*
X44379000Y-41446000D01*
X44458000Y-37736000D02*
X44455000Y-37739000D01*
X20100000Y-46100000D02*
X22200000Y-46100000D01*
X11749200Y-7850800D02*
X11600000Y-8000000D01*
X45599000Y-34041000D02*
X44708000Y-34932000D01*
X44455000Y-38827900D02*
X44455000Y-39573000D01*
X45095000Y-32187000D02*
X45599000Y-32691000D01*
X36985000Y-39819000D02*
X37976100Y-38827900D01*
X44370200Y-42280500D02*
X44587800Y-42062900D01*
X22277000Y-49136000D02*
X24101000Y-49136000D01*
X44455000Y-37739000D02*
X44455000Y-38827900D01*
X44708000Y-34932000D02*
X44708000Y-35851000D01*
X47913000Y-43527000D02*
X47553000Y-43167000D01*
X18050000Y-8000000D02*
X18050000Y-8332000D01*
X44587800Y-42062900D02*
X44379000Y-41854100D01*
X44491000Y-42919700D02*
X44967800Y-42442900D01*
X44967800Y-42442900D02*
X47553000Y-42442900D01*
X8137500Y-8000000D02*
X8137500Y-8950000D01*
X18050000Y-8332000D02*
X17205800Y-9176200D01*
X36985000Y-40797000D02*
X38087000Y-41899000D01*
X24101000Y-49136000D02*
X24414000Y-48823000D01*
X47553000Y-43167000D02*
X47553000Y-42442900D01*
X47553000Y-42442900D02*
X47553000Y-40243000D01*
D48*
X13273800Y-6103300D02*
X13273800Y-6326200D01*
D45*
X11600000Y-8000000D02*
X8137500Y-8000000D01*
X44491000Y-43260000D02*
X44491000Y-42919700D01*
X44708000Y-35851000D02*
X44458000Y-36101000D01*
X44967800Y-42442900D02*
X44587800Y-42062900D01*
D48*
X13273800Y-6326200D02*
X11749200Y-7850800D01*
D45*
X44455000Y-39573000D02*
X44379000Y-39649000D01*
X45599000Y-32691000D02*
X45599000Y-34041000D01*
D49*
X38750000Y-35675000D02*
X42392700Y-36757000D01*
D45*
X44379000Y-41854100D02*
X44379000Y-41446000D01*
X37976100Y-38827900D02*
X44455000Y-38827900D01*
%TO.N,/GND*%
X53806500Y-37553800D02*
X55677600Y-35682700D01*
D48*
X14003500Y-46435800D02*
X14000000Y-46435800D01*
D45*
X49453000Y-39130000D02*
X49453000Y-40243000D01*
D49*
X49950000Y-20750000D02*
X50826700Y-20384000D01*
D45*
X15628900Y-49351100D02*
X13980000Y-51000000D01*
D48*
X11994200Y-46435800D02*
X11525000Y-46905000D01*
D45*
X27031000Y-49540000D02*
X26314000Y-48823000D01*
X48142000Y-37483600D02*
X48142000Y-37819000D01*
X22178000Y-30423000D02*
X20067000Y-30423000D01*
D44*
X50062500Y-52450000D02*
X50062500Y-53600000D01*
D50*
X56250700Y-35760700D02*
X56500000Y-36010000D01*
D45*
X45451000Y-43546400D02*
X45451000Y-43260000D01*
X49453000Y-40243000D02*
X51117300Y-40243000D01*
X45668000Y-35851000D02*
X45597400Y-35921600D01*
X20141400Y-40859400D02*
X24943100Y-40859400D01*
X33659000Y-39276000D02*
X33599000Y-39216000D01*
D48*
X14000000Y-46435800D02*
X11994200Y-46435800D01*
D45*
X7914200Y-13964200D02*
X7950000Y-14000000D01*
X15628900Y-48061200D02*
X15628900Y-49351100D01*
X18980000Y-27161200D02*
X18980000Y-26000000D01*
D44*
X47510000Y-54500000D02*
X50062500Y-52450000D01*
D50*
X55755600Y-35760700D02*
X56250700Y-35760700D01*
D48*
X62527000Y-24149200D02*
X63713300Y-24149200D01*
D45*
X55677600Y-33109500D02*
X55677600Y-35682700D01*
X48142000Y-37819000D02*
X49453000Y-39130000D01*
X56500000Y-33010000D02*
X56400500Y-33109500D01*
X40740700Y-43592700D02*
X40740800Y-43592700D01*
X33981400Y-41466400D02*
X33659000Y-41144000D01*
X19825000Y-19641000D02*
X19825000Y-18500000D01*
X38535000Y-39819000D02*
X39047000Y-40331000D01*
X14003500Y-46435800D02*
X15554600Y-47986900D01*
D50*
X55677600Y-33109500D02*
X56400500Y-33109500D01*
D45*
X51117300Y-40243000D02*
X53806500Y-37553800D01*
D48*
X63713300Y-24149200D02*
X63862500Y-24000000D01*
D45*
X39047000Y-40331000D02*
X39047000Y-41899000D01*
X24537000Y-28056000D02*
X24554700Y-28073700D01*
X20067000Y-30423000D02*
X18500000Y-31990000D01*
X16980000Y-50702300D02*
X15628900Y-49351100D01*
D51*
X17516900Y-27719300D02*
X18421900Y-27719300D01*
D45*
X19950000Y-8000000D02*
X20916300Y-8966300D01*
D44*
X48400000Y-58000000D02*
X47800000Y-57400000D01*
D45*
X45597400Y-37556600D02*
X45418000Y-37736000D01*
X24943100Y-40859400D02*
X26903000Y-40859400D01*
X45415000Y-39573000D02*
X45415000Y-41370000D01*
X24537000Y-30423000D02*
X22178000Y-30423000D01*
X15554600Y-47986900D02*
X15628900Y-48061200D01*
D51*
X18421900Y-27719300D02*
X18800700Y-27340500D01*
D45*
X45668000Y-35851000D02*
X46509400Y-35851000D01*
X26903000Y-40859400D02*
X27510000Y-40252400D01*
X24554700Y-28073700D02*
X25897600Y-28073700D01*
D50*
X25897600Y-28073700D02*
X26392700Y-28073700D01*
D45*
X8540000Y-30000000D02*
X15236200Y-30000000D01*
X33659000Y-41144000D02*
X33659000Y-39276000D01*
X34589500Y-41466400D02*
X33981400Y-41466400D01*
X15236200Y-30000000D02*
X17516900Y-27719300D01*
X46509400Y-35851000D02*
X48142000Y-37483600D01*
X24537000Y-30423000D02*
X24537000Y-28056000D01*
X45752800Y-29452000D02*
X44731000Y-29452000D01*
X45418000Y-37736000D02*
X45418000Y-39570000D01*
D48*
X5713300Y-8149200D02*
X5862500Y-8000000D01*
D45*
X4649500Y-10699500D02*
X4649500Y-8149200D01*
X46509400Y-35851000D02*
X46509400Y-34090600D01*
X46509400Y-34090600D02*
X46559000Y-34041000D01*
X16980000Y-51000000D02*
X16980000Y-50702300D01*
D48*
X4649500Y-8149200D02*
X5713300Y-8149200D01*
D45*
X44890300Y-44107100D02*
X45451000Y-43546400D01*
X55677600Y-35682700D02*
X55755600Y-35760700D01*
X45415000Y-41370000D02*
X45339000Y-41446000D01*
X30000000Y-49540000D02*
X27031000Y-49540000D01*
X7950000Y-14000000D02*
X4649500Y-10699500D01*
X7914200Y-12612000D02*
X7914200Y-13964200D01*
X39047000Y-41899000D02*
X40740700Y-43592700D01*
X40740800Y-43592700D02*
X41255200Y-44107100D01*
X27510000Y-40252400D02*
X27510000Y-40000000D01*
X41255200Y-44107100D02*
X44890300Y-44107100D01*
X24943100Y-40859400D02*
X24943100Y-40861000D01*
X45597400Y-35921600D02*
X45597400Y-37556600D01*
X24813000Y-30423000D02*
X24537000Y-30423000D01*
D50*
X26392700Y-28073700D02*
X26642000Y-28323000D01*
D45*
X19328000Y-40046000D02*
X20141400Y-40859400D01*
X14000000Y-45000000D02*
X14000000Y-46435800D01*
X18800700Y-27340500D02*
X18980000Y-27161200D01*
X45418000Y-39570000D02*
X45415000Y-39573000D01*
%TO.N,/EXP_I2C_SCL*%
D46*
X37250000Y-35675000D02*
X37250000Y-34437000D01*
%TO.N,/EXP_I2C_SDA*%
X37750000Y-34869400D02*
X37750000Y-35675000D01*
X38173500Y-34445900D02*
X37750000Y-34869400D01*
%TO.N,/EXP_SPI_SCK*%
D47*
X43356800Y-33150500D02*
X40774500Y-33150500D01*
X40774500Y-33150500D02*
X40675000Y-33250000D01*
%TO.N,/EXP_SPI_MOSI*%
X40774500Y-32150500D02*
X40675000Y-32250000D01*
D46*
X43210300Y-31833300D02*
X42893100Y-32150500D01*
D47*
X42893100Y-32150500D02*
X40774500Y-32150500D01*
%TO.N,/EXP_SPI_MISO*%
D46*
X43333000Y-32385000D02*
X43446500Y-32385000D01*
D47*
X43067500Y-32650500D02*
X40774500Y-32650500D01*
X40774500Y-32650500D02*
X40675000Y-32750000D01*
D46*
X43446500Y-32385000D02*
X44453500Y-31378000D01*
X44453500Y-31378000D02*
X44453500Y-30720200D01*
X43067500Y-32650500D02*
X43333000Y-32385000D01*
%TO.N,/EXP_SPI_CS1*%
X28521100Y-29750000D02*
X28032500Y-30238600D01*
X28032500Y-30238600D02*
X28032500Y-32064100D01*
X29325000Y-29750000D02*
X28521100Y-29750000D01*
%TO.N,/EXP_SPI_CS2*%
D47*
X29325000Y-30250000D02*
X29430700Y-30144300D01*
X31738900Y-30144300D02*
X31757900Y-30163300D01*
X29430700Y-30144300D02*
X31738900Y-30144300D01*
%TO.N,/EXP_UART_RX*%
D46*
X37250000Y-24325000D02*
X37250000Y-23069400D01*
%TO.N,/EXP_IRQ1*%
X30571000Y-30671000D02*
X29404000Y-30671000D01*
X29404000Y-30671000D02*
X29325000Y-30750000D01*
%TO.N,/EXP_IRQ2*%
X29325000Y-31250000D02*
X34148800Y-31250000D01*
X34148800Y-31250000D02*
X34417800Y-30981000D01*
%TO.N,/BOOST_SW*%
D45*
X14400000Y-10600000D02*
X14400000Y-8000000D01*
X5862500Y-6042100D02*
X5862500Y-7050000D01*
X12831600Y-12168400D02*
X14400000Y-10600000D01*
X11000000Y-14000000D02*
X12831600Y-12168400D01*
%TO.N,/BOOT0*%
D46*
X33250000Y-25403900D02*
X33708600Y-25862500D01*
X33250000Y-24325000D02*
X33250000Y-25403900D01*
X26642000Y-26571700D02*
X26642000Y-27303000D01*
%TO.N,/NRST*%
X54790000Y-48830000D02*
X52000000Y-44620000D01*
X37004700Y-30383500D02*
X39094000Y-30383500D01*
X48933000Y-43527000D02*
X48503000Y-43097000D01*
X62000000Y-54620000D02*
X59000000Y-51620000D01*
X46743300Y-37819000D02*
X46399100Y-37474800D01*
X52000000Y-44620000D02*
X50907000Y-43527000D01*
X47182000Y-37819000D02*
X46743300Y-37819000D01*
X29325000Y-29250000D02*
X35871200Y-29250000D01*
X48503000Y-39140000D02*
X47182000Y-37819000D01*
X35871200Y-29250000D02*
X37004700Y-30383500D01*
X48503000Y-43097000D02*
X48503000Y-39140000D01*
X59000000Y-51620000D02*
X54790000Y-48830000D01*
X50907000Y-43527000D02*
X48933000Y-43527000D01*
%TO.N,/COMP_NODE*%
X10282500Y-50207500D02*
X9490000Y-51000000D01*
D47*
X17812100Y-44965800D02*
X17144200Y-44965800D01*
X17144200Y-44965800D02*
X16475000Y-45635000D01*
%TO.N,/COMP_RC*%
D46*
X13020000Y-51000000D02*
X10510000Y-51000000D01*
%TO.N,/VFB*%
X18570600Y-46905000D02*
X16475000Y-46905000D01*
X19207600Y-47542000D02*
X18570600Y-46905000D01*
X22277000Y-48116000D02*
X21703000Y-47542000D01*
X25899200Y-39409200D02*
X26490000Y-40000000D01*
X21703000Y-47542000D02*
X19207600Y-47542000D01*
%TO.N,/VBAT_SENSE*%
X19604400Y-25619200D02*
X19314100Y-25328900D01*
X19049900Y-27942200D02*
X19581700Y-27410400D01*
X18691100Y-25328900D02*
X18020000Y-26000000D01*
X28118800Y-34066000D02*
X28118800Y-32849500D01*
X19314100Y-25328900D02*
X18691100Y-25328900D01*
X19292100Y-29282100D02*
X18500000Y-28490000D01*
X19325000Y-29282100D02*
X19292100Y-29282100D01*
X19047800Y-27942200D02*
X19049900Y-27942200D01*
X19581700Y-27410400D02*
X19581700Y-27408300D01*
D47*
X28118800Y-32849500D02*
X29225500Y-32849500D01*
D46*
X18500000Y-33734300D02*
X18500000Y-33010000D01*
X19604400Y-27385600D02*
X19604400Y-25619200D01*
D47*
X29225500Y-32849500D02*
X29325000Y-32750000D01*
D46*
X19581700Y-27408300D02*
X19604400Y-27385600D01*
X18500000Y-28490000D02*
X19047800Y-27942200D01*
%TO.N,/VBAT_4S*%
D48*
X18110000Y-43300000D02*
X17200000Y-44365000D01*
X18110000Y-41800000D02*
X18110000Y-43300000D01*
X11055800Y-43895800D02*
X11525000Y-44365000D01*
D45*
X17796800Y-30213200D02*
X18500000Y-29510000D01*
X16378000Y-31632000D02*
X16378000Y-40046000D01*
D48*
X16378000Y-40342800D02*
X18110000Y-41800000D01*
D45*
X16378000Y-40046000D02*
X16378000Y-40342800D01*
X17796800Y-30213200D02*
X16378000Y-31632000D01*
D48*
X9944600Y-43895800D02*
X11055800Y-43895800D01*
X17200000Y-44365000D02*
X16475000Y-44365000D01*
%TO.N,/BUZZER_GPIO*%
D49*
X45500000Y-51000000D02*
X46490000Y-51000000D01*
X40675000Y-29750000D02*
X42175000Y-29600000D01*
%TO.N,/BUZZER_GATE*%
X47510000Y-51000000D02*
X50062500Y-50550000D01*
X46490000Y-54500000D02*
X47510000Y-51000000D01*
%TO.N,/CC1*%
D46*
X57084800Y-34405200D02*
X56500000Y-34990000D01*
D47*
X68880500Y-30849500D02*
X68980000Y-30750000D01*
X68169400Y-30849500D02*
X68880500Y-30849500D01*
%TO.N,/USB_VBUS*%
X68605100Y-25129300D02*
X68605100Y-24399200D01*
D46*
X70290000Y-28800000D02*
X69030000Y-28800000D01*
X68605100Y-24399200D02*
X68477600Y-24399200D01*
D47*
X66536700Y-24399200D02*
X66137500Y-24000000D01*
D46*
X70290000Y-31200000D02*
X69030000Y-31200000D01*
X69030000Y-31200000D02*
X68980000Y-31250000D01*
D47*
X68477600Y-24399200D02*
X66536700Y-24399200D01*
D46*
X69030000Y-28800000D02*
X68980000Y-28750000D01*
%TO.N,/USB_DP*%
X61312500Y-27500000D02*
X54010000Y-27500000D01*
X70290000Y-29600000D02*
X70186200Y-29600000D01*
X66910600Y-25723100D02*
X66137500Y-24950000D01*
X69536200Y-30250000D02*
X68980000Y-30250000D01*
X66137500Y-24950000D02*
X63862500Y-24950000D01*
X63862500Y-24950000D02*
X61312500Y-27500000D01*
X70186200Y-29600000D02*
X69536200Y-30250000D01*
%TO.N,/CC2*%
X56500000Y-31990000D02*
X57289400Y-31990000D01*
X57289400Y-31990000D02*
X57290500Y-31991100D01*
%TO.N,/M1*%
X34250000Y-23087200D02*
X34251100Y-23086100D01*
X34250000Y-24325000D02*
X34250000Y-23087200D01*
%TO.N,/M2*%
X37545400Y-26315400D02*
X36741400Y-25511400D01*
X34140000Y-25511400D02*
X33750000Y-25121400D01*
X33750000Y-25121400D02*
X33750000Y-24325000D01*
X36741400Y-25511400D02*
X34140000Y-25511400D01*
%TO.N,/M3*%
X32750000Y-24325000D02*
X32750000Y-23098100D01*
X32750000Y-23098100D02*
X32751100Y-23097000D01*
%TO.N,/M4*%
X32250000Y-24325000D02*
X32250000Y-25314100D01*
X32250000Y-25314100D02*
X32938200Y-26002300D01*
%TO.N,/VCAP2*%
D47*
X40568700Y-26856300D02*
X40675000Y-26750000D01*
D46*
X25471800Y-26506000D02*
X24537000Y-26506000D01*
D47*
X37023200Y-26856300D02*
X40568700Y-26856300D01*
%TO.N,/VFB_5V*%
D46*
X19825000Y-16850000D02*
X18175000Y-18500000D01*
X19825000Y-14000000D02*
X19825000Y-16850000D01*
X6617100Y-9704600D02*
X5862500Y-8950000D01*
X19110200Y-13285200D02*
X19825000Y-14000000D01*
%TO.N,/MPU_REGOUT*%
X44731000Y-28492000D02*
X48250000Y-24973000D01*
X48250000Y-24973000D02*
X48250000Y-23950000D01*
%TO.N,/VBST_NODE*%
X13872000Y-40039000D02*
X11525000Y-42386000D01*
X11525000Y-42386000D02*
X11525000Y-43095000D01*
%TO.N,/SW_NODE*%
D45*
X14832000Y-40315300D02*
X14832000Y-40039000D01*
X11525000Y-45635000D02*
X9905600Y-45635000D01*
X14356500Y-40790800D02*
X14832000Y-40315300D01*
%TO.N,/SS_NODE*%
D46*
X15446100Y-51573900D02*
X16020000Y-51000000D01*
X15344200Y-41964200D02*
X16475000Y-43095000D01*
X14567600Y-41964200D02*
X15344200Y-41964200D01*
%TO.N,/CRSF_TX*%
X37199500Y-29673100D02*
X37268700Y-29673100D01*
X37268700Y-29673100D02*
X37691800Y-29250000D01*
X37691800Y-29250000D02*
X40675000Y-29250000D01*
%TO.N,/CRSF_RX*%
D47*
X37411600Y-28750000D02*
X37240300Y-28921300D01*
X40675000Y-28750000D02*
X37411600Y-28750000D01*
%TO.N,/VCAP1*%
D46*
X38250000Y-35675000D02*
X38250000Y-37216400D01*
X26363000Y-30861100D02*
X26363000Y-30423000D01*
X38250000Y-37216400D02*
X37681800Y-37784600D01*
X26898500Y-31396600D02*
X26363000Y-30861100D01*
%TO.N,/HSE_IN*%
X31053300Y-38820700D02*
X32243700Y-38820700D01*
X32243700Y-38820700D02*
X32639000Y-39216000D01*
X21750000Y-34000000D02*
X23085100Y-35335100D01*
D47*
X29325000Y-28250000D02*
X28394000Y-28250000D01*
D46*
X23085100Y-35335100D02*
X23115300Y-35335100D01*
X26758300Y-29383400D02*
X27262700Y-29383400D01*
D47*
X28394000Y-28250000D02*
X27262700Y-29381300D01*
X27262700Y-29381300D02*
X27262700Y-29383400D01*
%TO.N,/SPI1_CS*%
D46*
X32750000Y-35675000D02*
X32750000Y-34428400D01*
X47250000Y-23950000D02*
X47250000Y-24360600D01*
X47250000Y-24360600D02*
X46769000Y-24841600D01*
%TO.N,/SPI1_MISO*%
X33750000Y-35675000D02*
X33750000Y-34441600D01*
X46803100Y-25605400D02*
X47750000Y-24658500D01*
X47750000Y-24658500D02*
X47750000Y-23950000D01*
%TO.N,/MPU_INT*%
X49250000Y-23950000D02*
X49249900Y-23950000D01*
X34750000Y-34445200D02*
X34748400Y-34443600D01*
X34750000Y-35675000D02*
X34750000Y-34445200D01*
X49249900Y-23950000D02*
X49249900Y-24883400D01*
%TO.N,/MPU_CPOUT*%
X45681800Y-30640200D02*
X45095000Y-31227000D01*
X48750000Y-20050000D02*
X48750000Y-19169600D01*
%TO.N,/SPI1_SCK*%
X47250000Y-20050000D02*
X47249900Y-20050000D01*
X47249900Y-20050000D02*
X47249900Y-19161300D01*
X33250000Y-35675000D02*
X33250000Y-36919300D01*
%TO.N,/SPI1_MOSI*%
X34250000Y-35675000D02*
X34250000Y-36910300D01*
X46157300Y-19457300D02*
X46750000Y-20050000D01*
%TO.N,/TELEM_TX*%
X37750000Y-24325000D02*
X37750000Y-25105000D01*
X41541600Y-25365000D02*
X42500500Y-24406100D01*
X42500500Y-24406100D02*
X44839100Y-24406100D01*
X38010000Y-25365000D02*
X41541600Y-25365000D01*
X37750000Y-25105000D02*
X38010000Y-25365000D01*
%TO.N,/HSE_OUT*%
D47*
X27355700Y-31717600D02*
X27355700Y-31995500D01*
D46*
X25450000Y-34000000D02*
X25450000Y-34266600D01*
X32327400Y-41144000D02*
X32699000Y-41144000D01*
X28256500Y-29489100D02*
X27482300Y-30263300D01*
D47*
X27482300Y-31591000D02*
X27355700Y-31717600D01*
X28256500Y-28849500D02*
X29225500Y-28849500D01*
X29225500Y-28849500D02*
X29325000Y-28750000D01*
D46*
X27355700Y-31995500D02*
X25450000Y-33901200D01*
X28256500Y-28849500D02*
X28256500Y-29489100D01*
X27482300Y-30263300D02*
X27482300Y-31591000D01*
X25450000Y-33901200D02*
X25450000Y-34000000D01*
X25450000Y-34266600D02*
X32327400Y-41144000D01*
%TO.N,/SWDIO*%
X40750300Y-27174700D02*
X40675000Y-27250000D01*
X42410300Y-27174700D02*
X40750300Y-27174700D01*
%TO.N,/SWCLK*%
X38750000Y-24325000D02*
X39318400Y-24325000D01*
X39318400Y-24325000D02*
X39379400Y-24386000D01*
%TO.N,/USB_DP_MCU*%
X52260100Y-27176000D02*
X52666000Y-27176000D01*
X41908000Y-27750000D02*
X40675000Y-27750000D01*
X52666000Y-27176000D02*
X52990000Y-27500000D01*
%TD*%
M02*
