M48
; DRILL file KiCad 10.0.5 date 2026-08-17T16:57:37
; FORMAT={-:-/ absolute / metric / decimal}
; #@! TF.CreationDate,2026-08-17T16:57:37-04:00
; #@! TF.GenerationSoftware,Kicad,Pcbnew,10.0.5
; #@! TF.FileFunction,Plated,1,4,PTH
FMAT,2
METRIC
; #@! TA.AperFunction,Plated,PTH,ViaDrill
T1C0.300
; #@! TA.AperFunction,Plated,PTH,ViaDrill
T2C0.400
; #@! TA.AperFunction,Plated,PTH,ComponentDrill
T3C0.400
; #@! TA.AperFunction,Plated,PTH,ComponentDrill
T4C0.500
; #@! TA.AperFunction,Plated,PTH,ComponentDrill
T5C1.000
%
G90
G05
T1
X6.617Y-9.705
X10.282Y-50.207
X14.568Y-41.964
X15.446Y-51.574
X17.812Y-44.966
X18.5Y-33.734
X19.11Y-13.285
X19.208Y-47.542
X19.325Y-29.282
X23.115Y-35.335
X25.472Y-26.506
X25.899Y-39.409
X26.642Y-26.572
X26.758Y-29.383
X26.898Y-31.397
X28.032Y-32.064
X28.119Y-34.066
X29.53Y-34.373
X30.571Y-30.671
X31.053Y-38.821
X31.758Y-30.163
X32.75Y-34.428
X32.751Y-23.097
X32.938Y-26.002
X33.25Y-36.919
X33.709Y-25.862
X33.75Y-34.442
X34.25Y-36.91
X34.251Y-23.086
X34.418Y-30.981
X34.748Y-34.444
X35.934Y-26.063
X37.023Y-26.856
X37.2Y-29.673
X37.24Y-28.921
X37.25Y-23.069
X37.25Y-34.437
X37.545Y-26.315
X37.682Y-37.785
X38.173Y-34.446
X39.094Y-30.383
X39.379Y-24.386
X41.903Y-28.521
X41.908Y-27.75
X42.41Y-27.175
X42.812Y-25.012
X43.21Y-31.833
X43.357Y-33.151
X44.453Y-30.72
X44.839Y-24.406
X45.682Y-30.64
X46.157Y-19.457
X46.399Y-37.475
X46.769Y-24.842
X46.803Y-25.605
X47.25Y-19.161
X47.8Y-57.4
X48.75Y-19.17
X49.25Y-24.883
X50.062Y-53.6
X52.26Y-27.176
X52.407Y-30.083
X54.592Y-30.082
X57.085Y-34.405
X57.29Y-31.991
X63.764Y-29.849
X66.911Y-25.723
X66.911Y-22.276
X68.169Y-30.849
X68.605Y-25.129
T2
X5.024Y-15.026
X5.862Y-6.042
X7.914Y-12.612
X9.906Y-45.635
X9.945Y-43.896
X12.832Y-12.168
X13.274Y-6.103
X14.356Y-40.791
X15.555Y-47.987
X17.206Y-9.176
X17.797Y-30.213
X18.175Y-15.173
X19.825Y-19.641
X20.3Y-43.102
X20.916Y-8.966
X22.178Y-30.423
X22.2Y-46.1
X23.6Y-49.136
X24.943Y-40.861
X34.59Y-41.466
X40.741Y-43.593
X42.175Y-29.6
X42.393Y-36.757
X44.37Y-42.28
X45.5Y-51.0
X45.753Y-29.452
X50.827Y-20.384
X53.806Y-37.554
X62.527Y-24.149
T3
X70.29Y-27.2
X70.29Y-28.8
X70.29Y-29.6
X70.29Y-30.4
X70.29Y-31.2
X70.29Y-32.8
X70.99Y-27.6
X70.99Y-28.4
X70.99Y-29.2
X70.99Y-30.8
X70.99Y-31.6
X70.99Y-32.4
T5
X6.0Y-30.0
X8.54Y-30.0
X30.0Y-12.0
X30.0Y-14.54
X30.0Y-47.0
X30.0Y-49.54
X30.0Y-52.08
X30.0Y-54.62
X40.0Y-47.0
X40.0Y-49.54
X40.0Y-52.08
X40.0Y-54.62
X40.0Y-57.16
X43.0Y-7.0
X45.54Y-7.0
X48.08Y-7.0
X50.62Y-7.0
X53.16Y-7.0
X55.0Y-58.0
X55.7Y-7.0
X57.54Y-58.0
X58.24Y-7.0
X60.78Y-7.0
X62.0Y-47.0
X62.0Y-49.54
X62.0Y-52.08
X62.0Y-54.62
X62.0Y-57.16
X63.32Y-7.0
X65.86Y-7.0
X68.4Y-7.0
X70.94Y-7.0
X71.0Y-48.0
X71.5Y-56.0
X73.48Y-7.0
X73.54Y-48.0
X74.04Y-56.0
X76.02Y-7.0
X76.58Y-56.0
T4
X70.59Y-25.87G85X71.19Y-25.87
G05
X70.59Y-34.13G85X71.19Y-34.13
G05
X76.54Y-25.51G85X77.14Y-25.51
G05
X76.54Y-34.49G85X77.14Y-34.49
G05
M30
