%TF.GenerationSoftware,KiCad,Pcbnew,10.0.5*%
%TF.CreationDate,2026-08-17T09:53:18-04:00*%
%TF.ProjectId,bench_board,62656e63-685f-4626-9f61-72642e6b6963,rev?*%
%TF.SameCoordinates,Original*%
%TF.FileFunction,Copper,L1,Top*%
%TF.FilePolarity,Positive*%
%FSLAX46Y46*%
G04 Gerber Fmt 4.6, Leading zero omitted, Abs format (unit mm)*
G04 Created by KiCad (PCBNEW 10.0.5) date 2026-08-17 09:53:18*
%MOMM*%
%LPD*%
G01*
G04 APERTURE LIST*
G04 Aperture macros list*
%AMRoundRect*
0 Rectangle with rounded corners*
0 $1 Rounding radius*
0 $2 $3 $4 $5 $6 $7 $8 $9 X,Y pos of 4 corners*
0 Add a 4 corners polygon primitive as box body*
4,1,4,$2,$3,$4,$5,$6,$7,$8,$9,$2,$3,0*
0 Add four circle primitives for the rounded corners*
1,1,$1+$1,$2,$3*
1,1,$1+$1,$4,$5*
1,1,$1+$1,$6,$7*
1,1,$1+$1,$8,$9*
0 Add four rect primitives between the rounded corners*
20,1,$1+$1,$2,$3,$4,$5,0*
20,1,$1+$1,$4,$5,$6,$7,0*
20,1,$1+$1,$6,$7,$8,$9,0*
20,1,$1+$1,$8,$9,$2,$3,0*%
G04 Aperture macros list end*
%TA.AperFunction,SMDPad,CuDef*%
%ADD10RoundRect,0.135000X0.135000X0.185000X-0.135000X0.185000X-0.135000X-0.185000X0.135000X-0.185000X0*%
%TD*%
%TA.AperFunction,ComponentPad*%
%ADD11R,1.700000X1.700000*%
%TD*%
%TA.AperFunction,ComponentPad*%
%ADD12C,1.700000*%
%TD*%
%TA.AperFunction,SMDPad,CuDef*%
%ADD13RoundRect,0.250000X-0.450000X-0.350000X0.450000X-0.350000X0.450000X0.350000X-0.450000X0.350000X0*%
%TD*%
%TA.AperFunction,SMDPad,CuDef*%
%ADD14RoundRect,0.250000X-0.375000X-1.075000X0.375000X-1.075000X0.375000X1.075000X-0.375000X1.075000X0*%
%TD*%
%TA.AperFunction,SMDPad,CuDef*%
%ADD15RoundRect,0.135000X-0.185000X0.135000X-0.185000X-0.135000X0.185000X-0.135000X0.185000X0.135000X0*%
%TD*%
%TA.AperFunction,SMDPad,CuDef*%
%ADD16RoundRect,0.250000X-0.250000X-0.475000X0.250000X-0.475000X0.250000X0.475000X-0.250000X0.475000X0*%
%TD*%
%TA.AperFunction,SMDPad,CuDef*%
%ADD17RoundRect,0.135000X-0.135000X-0.185000X0.135000X-0.185000X0.135000X0.185000X-0.135000X0.185000X0*%
%TD*%
%TA.AperFunction,SMDPad,CuDef*%
%ADD18RoundRect,0.135000X0.185000X-0.135000X0.185000X0.135000X-0.185000X0.135000X-0.185000X-0.135000X0*%
%TD*%
%TA.AperFunction,SMDPad,CuDef*%
%ADD19RoundRect,0.140000X-0.140000X-0.170000X0.140000X-0.170000X0.140000X0.170000X-0.140000X0.170000X0*%
%TD*%
%TA.AperFunction,SMDPad,CuDef*%
%ADD20RoundRect,0.075000X0.275000X-0.075000X0.275000X0.075000X-0.275000X0.075000X-0.275000X-0.075000X0*%
%TD*%
%TA.AperFunction,ComponentPad*%
%ADD21C,0.650000*%
%TD*%
%TA.AperFunction,ComponentPad*%
%ADD22O,1.400000X0.800000*%
%TD*%
%TA.AperFunction,SMDPad,CuDef*%
%ADD23RoundRect,0.225000X-0.250000X0.225000X-0.250000X-0.225000X0.250000X-0.225000X0.250000X0.225000X0*%
%TD*%
%TA.AperFunction,SMDPad,CuDef*%
%ADD24RoundRect,0.200000X-0.200000X-0.275000X0.200000X-0.275000X0.200000X0.275000X-0.200000X0.275000X0*%
%TD*%
%TA.AperFunction,SMDPad,CuDef*%
%ADD25RoundRect,0.140000X-0.170000X0.140000X-0.170000X-0.140000X0.170000X-0.140000X0.170000X0.140000X0*%
%TD*%
%TA.AperFunction,SMDPad,CuDef*%
%ADD26RoundRect,0.150000X-0.825000X-0.150000X0.825000X-0.150000X0.825000X0.150000X-0.825000X0.150000X0*%
%TD*%
%TA.AperFunction,HeatsinkPad*%
%ADD27R,2.410000X3.810000*%
%TD*%
%TA.AperFunction,SMDPad,CuDef*%
%ADD28RoundRect,0.150000X-0.512500X-0.150000X0.512500X-0.150000X0.512500X0.150000X-0.512500X0.150000X0*%
%TD*%
%TA.AperFunction,SMDPad,CuDef*%
%ADD29RoundRect,0.225000X0.225000X0.250000X-0.225000X0.250000X-0.225000X-0.250000X0.225000X-0.250000X0*%
%TD*%
%TA.AperFunction,SMDPad,CuDef*%
%ADD30RoundRect,0.075000X-0.350000X-0.075000X0.350000X-0.075000X0.350000X0.075000X-0.350000X0.075000X0*%
%TD*%
%TA.AperFunction,SMDPad,CuDef*%
%ADD31RoundRect,0.075000X0.075000X-0.350000X0.075000X0.350000X-0.075000X0.350000X-0.075000X-0.350000X0*%
%TD*%
%TA.AperFunction,SMDPad,CuDef*%
%ADD32RoundRect,0.250000X-1.000000X-0.650000X1.000000X-0.650000X1.000000X0.650000X-1.000000X0.650000X0*%
%TD*%
%TA.AperFunction,SMDPad,CuDef*%
%ADD33RoundRect,0.225000X-0.225000X-0.250000X0.225000X-0.250000X0.225000X0.250000X-0.225000X0.250000X0*%
%TD*%
%TA.AperFunction,SMDPad,CuDef*%
%ADD34RoundRect,0.075000X-0.700000X-0.075000X0.700000X-0.075000X0.700000X0.075000X-0.700000X0.075000X0*%
%TD*%
%TA.AperFunction,SMDPad,CuDef*%
%ADD35RoundRect,0.075000X-0.075000X-0.700000X0.075000X-0.700000X0.075000X0.700000X-0.075000X0.700000X0*%
%TD*%
%TA.AperFunction,SMDPad,CuDef*%
%ADD36RoundRect,0.140000X0.140000X0.170000X-0.140000X0.170000X-0.140000X-0.170000X0.140000X-0.170000X0*%
%TD*%
%TA.AperFunction,ViaPad*%
%ADD37C,0.600000*%
%TD*%
%TA.AperFunction,ViaPad*%
%ADD38C,0.800000*%
%TD*%
%TA.AperFunction,Conductor*%
%ADD39C,0.200000*%
%TD*%
%TA.AperFunction,Conductor*%
%ADD40C,0.150000*%
%TD*%
%TA.AperFunction,Conductor*%
%ADD41C,0.600000*%
%TD*%
%TA.AperFunction,Conductor*%
%ADD42C,0.450000*%
%TD*%
%TA.AperFunction,Conductor*%
%ADD43C,0.540800*%
%TD*%
%TA.AperFunction,Conductor*%
%ADD44C,0.560800*%
%TD*%
G04 APERTURE END LIST*
D10*
%TO.P,R5,1*%
%TO.N,USB_DM*%
X54010000Y-29500000D03*
%TO.P,R5,2*%
%TO.N,USB_DM_MCU*%
X52990000Y-29500000D03*
%TD*%
D11*
%TO.P,J9,1*%
%TO.N,3V3*%
X43000000Y-7000000D03*
D12*
%TO.P,J9,2*%
%TO.N,GND*%
X45540000Y-7000000D03*
%TO.P,J9,3*%
%TO.N,EXP_I2C_SCL*%
X48080000Y-7000000D03*
%TO.P,J9,4*%
%TO.N,EXP_I2C_SDA*%
X50620000Y-7000000D03*
%TO.P,J9,5*%
%TO.N,EXP_SPI_SCK*%
X53160000Y-7000000D03*
%TO.P,J9,6*%
%TO.N,EXP_SPI_MOSI*%
X55700000Y-7000000D03*
%TO.P,J9,7*%
%TO.N,EXP_SPI_MISO*%
X58240000Y-7000000D03*
%TO.P,J9,8*%
%TO.N,EXP_SPI_CS1*%
X60780000Y-7000000D03*
%TO.P,J9,9*%
%TO.N,EXP_SPI_CS2*%
X63320000Y-7000000D03*
%TO.P,J9,10*%
%TO.N,EXP_UART_RX*%
X65860000Y-7000000D03*
%TO.P,J9,11*%
%TO.N,EXP_IRQ1*%
X68400000Y-7000000D03*
%TO.P,J9,12*%
%TO.N,EXP_IRQ2*%
X70940000Y-7000000D03*
%TO.P,J9,13*%
%TO.N,5V_RX*%
X73480000Y-7000000D03*
%TO.P,J9,14*%
%TO.N,GND*%
X76020000Y-7000000D03*
%TD*%
D13*
%TO.P,Y1,1*%
%TO.N,HSE_IN*%
X24300000Y-34850000D03*
%TO.P,Y1,2*%
%TO.N,HSE_OUT*%
X26500000Y-34850000D03*
%TO.P,Y1,3*%
%TO.N,N/C*%
X26500000Y-33150000D03*
%TO.P,Y1,4*%
X24300000Y-33150000D03*
%TD*%
D14*
%TO.P,L2,1*%
%TO.N,3V3*%
X11600000Y-8000000D03*
%TO.P,L2,2*%
%TO.N,BOOST_SW*%
X14400000Y-8000000D03*
%TD*%
D15*
%TO.P,R4,1*%
%TO.N,BOOT0*%
X26642000Y-27303000D03*
%TO.P,R4,2*%
%TO.N,GND*%
X26642000Y-28323000D03*
%TD*%
D16*
%TO.P,C26,1*%
%TO.N,5V_RX*%
X6050000Y-14000000D03*
%TO.P,C26,2*%
%TO.N,GND*%
X7950000Y-14000000D03*
%TD*%
D17*
%TO.P,R3,1*%
%TO.N,3V3*%
X47913000Y-43527000D03*
%TO.P,R3,2*%
%TO.N,NRST*%
X48933000Y-43527000D03*
%TD*%
%TO.P,R11,1*%
%TO.N,COMP_NODE*%
X9490000Y-51000000D03*
%TO.P,R11,2*%
%TO.N,N/C*%
X10510000Y-51000000D03*
%TD*%
D16*
%TO.P,C15,1*%
%TO.N,3V3*%
X47553000Y-40243000D03*
%TO.P,C15,2*%
%TO.N,GND*%
X49453000Y-40243000D03*
%TD*%
D18*
%TO.P,R1,1*%
%TO.N,3V3*%
X22277000Y-49136000D03*
%TO.P,R1,2*%
%TO.N,VFB*%
X22277000Y-48116000D03*
%TD*%
D19*
%TO.P,C8,1*%
%TO.N,3V3*%
X44379000Y-41446000D03*
%TO.P,C8,2*%
%TO.N,GND*%
X45339000Y-41446000D03*
%TD*%
%TO.P,C16,1*%
%TO.N,NRST*%
X47182000Y-37819000D03*
%TO.P,C16,2*%
%TO.N,GND*%
X48142000Y-37819000D03*
%TD*%
%TO.P,C22,1*%
%TO.N,VBAT_SENSE*%
X18020000Y-26000000D03*
%TO.P,C22,2*%
%TO.N,GND*%
X18980000Y-26000000D03*
%TD*%
%TO.P,C6,1*%
%TO.N,3V3*%
X44491000Y-43260000D03*
%TO.P,C6,2*%
%TO.N,GND*%
X45451000Y-43260000D03*
%TD*%
D11*
%TO.P,J1,1*%
%TO.N,VBAT_4S*%
X6000000Y-30000000D03*
D12*
%TO.P,J1,2*%
%TO.N,GND*%
X8540000Y-30000000D03*
%TD*%
D19*
%TO.P,C7,1*%
%TO.N,3V3*%
X44708000Y-35851000D03*
%TO.P,C7,2*%
%TO.N,GND*%
X45668000Y-35851000D03*
%TD*%
D15*
%TO.P,R7,1*%
%TO.N,CC1*%
X56500000Y-34990000D03*
%TO.P,R7,2*%
%TO.N,GND*%
X56500000Y-36010000D03*
%TD*%
D20*
%TO.P,J3,A1*%
%TO.N,GND*%
X68980000Y-32750000D03*
%TO.P,J3,A2*%
%TO.N,N/C*%
X68980000Y-32250000D03*
%TO.P,J3,A3*%
X68980000Y-31750000D03*
%TO.P,J3,A4*%
%TO.N,USB_VBUS*%
X68980000Y-31250000D03*
%TO.P,J3,A5*%
%TO.N,CC1*%
X68980000Y-30750000D03*
%TO.P,J3,A6*%
%TO.N,USB_DP*%
X68980000Y-30250000D03*
%TO.P,J3,A7*%
%TO.N,USB_DM*%
X68980000Y-29750000D03*
%TO.P,J3,A8*%
%TO.N,N/C*%
X68980000Y-29250000D03*
%TO.P,J3,A9*%
%TO.N,USB_VBUS*%
X68980000Y-28750000D03*
%TO.P,J3,A10*%
%TO.N,N/C*%
X68980000Y-28250000D03*
%TO.P,J3,A11*%
X68980000Y-27750000D03*
%TO.P,J3,A12*%
%TO.N,GND*%
X68980000Y-27250000D03*
D21*
%TO.P,J3,B1*%
X70290000Y-27200000D03*
%TO.P,J3,B2*%
%TO.N,N/C*%
X70990000Y-27600000D03*
%TO.P,J3,B3*%
X70990000Y-28400000D03*
%TO.P,J3,B4*%
%TO.N,USB_VBUS*%
X70290000Y-28800000D03*
%TO.P,J3,B5*%
%TO.N,CC2*%
X70990000Y-29200000D03*
%TO.P,J3,B6*%
%TO.N,USB_DP*%
X70290000Y-29600000D03*
%TO.P,J3,B7*%
%TO.N,USB_DM*%
X70290000Y-30400000D03*
%TO.P,J3,B8*%
%TO.N,N/C*%
X70990000Y-30800000D03*
%TO.P,J3,B9*%
%TO.N,USB_VBUS*%
X70290000Y-31200000D03*
%TO.P,J3,B10*%
%TO.N,N/C*%
X70990000Y-31600000D03*
%TO.P,J3,B11*%
X70990000Y-32400000D03*
%TO.P,J3,B12*%
%TO.N,GND*%
X70290000Y-32800000D03*
D22*
%TO.P,J3,SH*%
X76840000Y-34490000D03*
X70890000Y-34130000D03*
X70890000Y-25870000D03*
X76840000Y-25510000D03*
%TD*%
D16*
%TO.P,C25,1*%
%TO.N,3V3*%
X18050000Y-8000000D03*
%TO.P,C25,2*%
%TO.N,GND*%
X19950000Y-8000000D03*
%TD*%
D19*
%TO.P,C9,1*%
%TO.N,3V3*%
X38087000Y-41899000D03*
%TO.P,C9,2*%
%TO.N,GND*%
X39047000Y-41899000D03*
%TD*%
D11*
%TO.P,J5,1*%
%TO.N,M1*%
X40000000Y-47000000D03*
D12*
%TO.P,J5,2*%
%TO.N,M2*%
X40000000Y-49540000D03*
%TO.P,J5,3*%
%TO.N,M3*%
X40000000Y-52080000D03*
%TO.P,J5,4*%
%TO.N,M4*%
X40000000Y-54620000D03*
%TO.P,J5,5*%
%TO.N,GND*%
X40000000Y-57160000D03*
%TD*%
D23*
%TO.P,C12,1*%
%TO.N,VCAP2*%
X24537000Y-26506000D03*
%TO.P,C12,2*%
%TO.N,GND*%
X24537000Y-28056000D03*
%TD*%
D16*
%TO.P,C2,1*%
%TO.N,3V3*%
X24414000Y-48823000D03*
%TO.P,C2,2*%
%TO.N,GND*%
X26314000Y-48823000D03*
%TD*%
D24*
%TO.P,R13,1*%
%TO.N,VFB_5V*%
X18175000Y-18500000D03*
%TO.P,R13,2*%
%TO.N,GND*%
X19825000Y-18500000D03*
%TD*%
D25*
%TO.P,C19,1*%
%TO.N,MPU_REGOUT*%
X44731000Y-28492000D03*
%TO.P,C19,2*%
%TO.N,GND*%
X44731000Y-29452000D03*
%TD*%
D26*
%TO.P,U2,1*%
%TO.N,VBST_NODE*%
X11525000Y-43095000D03*
%TO.P,U2,2*%
%TO.N,VBAT_4S*%
X11525000Y-44365000D03*
%TO.P,U2,3*%
%TO.N,SW_NODE*%
X11525000Y-45635000D03*
%TO.P,U2,4*%
%TO.N,GND*%
X11525000Y-46905000D03*
%TO.P,U2,5*%
%TO.N,VFB*%
X16475000Y-46905000D03*
%TO.P,U2,6*%
%TO.N,COMP_NODE*%
X16475000Y-45635000D03*
%TO.P,U2,7*%
%TO.N,VBAT_4S*%
X16475000Y-44365000D03*
%TO.P,U2,8*%
%TO.N,SS_NODE*%
X16475000Y-43095000D03*
D27*
%TO.P,U2,9*%
%TO.N,GND*%
X14000000Y-45000000D03*
%TD*%
D28*
%TO.P,U5,1*%
%TO.N,USB_DM*%
X63862500Y-23050000D03*
%TO.P,U5,2*%
%TO.N,GND*%
X63862500Y-24000000D03*
%TO.P,U5,3*%
%TO.N,USB_DP*%
X63862500Y-24950000D03*
%TO.P,U5,4*%
X66137500Y-24950000D03*
%TO.P,U5,5*%
%TO.N,USB_VBUS*%
X66137500Y-24000000D03*
%TO.P,U5,6*%
%TO.N,USB_DM*%
X66137500Y-23050000D03*
%TD*%
D17*
%TO.P,R2,1*%
%TO.N,VFB*%
X26490000Y-40000000D03*
%TO.P,R2,2*%
%TO.N,GND*%
X27510000Y-40000000D03*
%TD*%
D11*
%TO.P,J4,1*%
%TO.N,3V3*%
X30000000Y-47000000D03*
D12*
%TO.P,J4,2*%
%TO.N,GND*%
X30000000Y-49540000D03*
%TO.P,J4,3*%
%TO.N,CRSF_TX*%
X30000000Y-52080000D03*
%TO.P,J4,4*%
%TO.N,CRSF_RX*%
X30000000Y-54620000D03*
%TD*%
D19*
%TO.P,C10,1*%
%TO.N,3V3*%
X44455000Y-39573000D03*
%TO.P,C10,2*%
%TO.N,GND*%
X45415000Y-39573000D03*
%TD*%
D29*
%TO.P,C11,1*%
%TO.N,VCAP1*%
X26363000Y-30423000D03*
%TO.P,C11,2*%
%TO.N,GND*%
X24813000Y-30423000D03*
%TD*%
D19*
%TO.P,C17,1*%
%TO.N,HSE_IN*%
X32639000Y-39216000D03*
%TO.P,C17,2*%
%TO.N,GND*%
X33599000Y-39216000D03*
%TD*%
%TO.P,C23,1*%
%TO.N,N/C*%
X13020000Y-51000000D03*
%TO.P,C23,2*%
%TO.N,GND*%
X13980000Y-51000000D03*
%TD*%
D30*
%TO.P,U4,1*%
%TO.N,GND*%
X46050000Y-20750000D03*
%TO.P,U4,2*%
%TO.N,N/C*%
X46050000Y-21250000D03*
%TO.P,U4,3*%
X46050000Y-21750000D03*
%TO.P,U4,4*%
X46050000Y-22250000D03*
%TO.P,U4,5*%
X46050000Y-22750000D03*
%TO.P,U4,6*%
X46050000Y-23250000D03*
D31*
%TO.P,U4,7*%
X46750000Y-23950000D03*
%TO.P,U4,8*%
%TO.N,SPI1_CS*%
X47250000Y-23950000D03*
%TO.P,U4,9*%
%TO.N,SPI1_MISO*%
X47750000Y-23950000D03*
%TO.P,U4,10*%
%TO.N,MPU_REGOUT*%
X48250000Y-23950000D03*
%TO.P,U4,11*%
%TO.N,GND*%
X48750000Y-23950000D03*
%TO.P,U4,12*%
%TO.N,MPU_INT*%
X49250000Y-23950000D03*
D30*
%TO.P,U4,13*%
%TO.N,3V3*%
X49950000Y-23250000D03*
%TO.P,U4,14*%
%TO.N,N/C*%
X49950000Y-22750000D03*
%TO.P,U4,15*%
X49950000Y-22250000D03*
%TO.P,U4,16*%
X49950000Y-21750000D03*
%TO.P,U4,17*%
X49950000Y-21250000D03*
%TO.P,U4,18*%
%TO.N,GND*%
X49950000Y-20750000D03*
D31*
%TO.P,U4,19*%
%TO.N,N/C*%
X49250000Y-20050000D03*
%TO.P,U4,20*%
%TO.N,MPU_CPOUT*%
X48750000Y-20050000D03*
%TO.P,U4,21*%
%TO.N,N/C*%
X48250000Y-20050000D03*
%TO.P,U4,22*%
X47750000Y-20050000D03*
%TO.P,U4,23*%
%TO.N,SPI1_SCK*%
X47250000Y-20050000D03*
%TO.P,U4,24*%
%TO.N,SPI1_MOSI*%
X46750000Y-20050000D03*
%TD*%
D11*
%TO.P,J8,1*%
%TO.N,TELEM_TX*%
X71500000Y-56000000D03*
D12*
%TO.P,J8,2*%
%TO.N,GND*%
X74040000Y-56000000D03*
%TO.P,J8,3*%
%TO.N,3V3*%
X76580000Y-56000000D03*
%TD*%
D19*
%TO.P,C14,1*%
%TO.N,3V3*%
X44458000Y-37736000D03*
%TO.P,C14,2*%
%TO.N,GND*%
X45418000Y-37736000D03*
%TD*%
D28*
%TO.P,U6,1*%
%TO.N,BOOST_SW*%
X5862500Y-7050000D03*
%TO.P,U6,2*%
%TO.N,GND*%
X5862500Y-8000000D03*
%TO.P,U6,3*%
%TO.N,VFB_5V*%
X5862500Y-8950000D03*
%TO.P,U6,4*%
%TO.N,3V3*%
X8137500Y-8950000D03*
%TO.P,U6,5*%
X8137500Y-8000000D03*
%TO.P,U6,6*%
%TO.N,N/C*%
X8137500Y-7050000D03*
%TD*%
D14*
%TO.P,L1,1*%
%TO.N,SW_NODE*%
X18600000Y-45000000D03*
%TO.P,L1,2*%
%TO.N,3V3*%
X21400000Y-45000000D03*
%TD*%
D32*
%TO.P,D1,1*%
%TO.N,BOOST_SW*%
X11000000Y-14000000D03*
%TO.P,D1,2*%
%TO.N,5V_RX*%
X15000000Y-14000000D03*
%TD*%
D19*
%TO.P,C24,1*%
%TO.N,SS_NODE*%
X16020000Y-51000000D03*
%TO.P,C24,2*%
%TO.N,GND*%
X16980000Y-51000000D03*
%TD*%
D11*
%TO.P,J2,1*%
%TO.N,BOOT0*%
X30000000Y-12000000D03*
D12*
%TO.P,J2,2*%
%TO.N,3V3*%
X30000000Y-14540000D03*
%TD*%
D18*
%TO.P,R10,1*%
%TO.N,VBAT_SENSE*%
X18500000Y-33010000D03*
%TO.P,R10,2*%
%TO.N,GND*%
X18500000Y-31990000D03*
%TD*%
D11*
%TO.P,J6,1*%
%TO.N,3V3*%
X62000000Y-47000000D03*
D12*
%TO.P,J6,2*%
%TO.N,SWDIO*%
X62000000Y-49540000D03*
%TO.P,J6,3*%
%TO.N,SWCLK*%
X62000000Y-52080000D03*
%TO.P,J6,4*%
%TO.N,NRST*%
X62000000Y-54620000D03*
%TO.P,J6,5*%
%TO.N,GND*%
X62000000Y-57160000D03*
%TD*%
D24*
%TO.P,R12,1*%
%TO.N,5V_RX*%
X18175000Y-14000000D03*
%TO.P,R12,2*%
%TO.N,VFB_5V*%
X19825000Y-14000000D03*
%TD*%
D33*
%TO.P,C13,1*%
%TO.N,3V3*%
X36985000Y-39819000D03*
%TO.P,C13,2*%
%TO.N,GND*%
X38535000Y-39819000D03*
%TD*%
D34*
%TO.P,U1,1*%
%TO.N,3V3*%
X29325000Y-26250000D03*
%TO.P,U1,2*%
%TO.N,N/C*%
X29325000Y-26750000D03*
%TO.P,U1,3*%
X29325000Y-27250000D03*
%TO.P,U1,4*%
X29325000Y-27750000D03*
%TO.P,U1,5*%
%TO.N,HSE_IN*%
X29325000Y-28250000D03*
%TO.P,U1,6*%
%TO.N,HSE_OUT*%
X29325000Y-28750000D03*
%TO.P,U1,7*%
%TO.N,NRST*%
X29325000Y-29250000D03*
%TO.P,U1,8*%
%TO.N,EXP_SPI_CS1*%
X29325000Y-29750000D03*
%TO.P,U1,9*%
%TO.N,EXP_SPI_CS2*%
X29325000Y-30250000D03*
%TO.P,U1,10*%
%TO.N,EXP_IRQ1*%
X29325000Y-30750000D03*
%TO.P,U1,11*%
%TO.N,EXP_IRQ2*%
X29325000Y-31250000D03*
%TO.P,U1,12*%
%TO.N,GND*%
X29325000Y-31750000D03*
%TO.P,U1,13*%
%TO.N,3V3*%
X29325000Y-32250000D03*
%TO.P,U1,14*%
%TO.N,VBAT_SENSE*%
X29325000Y-32750000D03*
%TO.P,U1,15*%
%TO.N,N/C*%
X29325000Y-33250000D03*
%TO.P,U1,16*%
X29325000Y-33750000D03*
D35*
%TO.P,U1,17*%
X31250000Y-35675000D03*
%TO.P,U1,18*%
%TO.N,GND*%
X31750000Y-35675000D03*
%TO.P,U1,19*%
%TO.N,3V3*%
X32250000Y-35675000D03*
%TO.P,U1,20*%
%TO.N,SPI1_CS*%
X32750000Y-35675000D03*
%TO.P,U1,21*%
%TO.N,SPI1_SCK*%
X33250000Y-35675000D03*
%TO.P,U1,22*%
%TO.N,SPI1_MISO*%
X33750000Y-35675000D03*
%TO.P,U1,23*%
%TO.N,SPI1_MOSI*%
X34250000Y-35675000D03*
%TO.P,U1,24*%
%TO.N,MPU_INT*%
X34750000Y-35675000D03*
%TO.P,U1,25*%
%TO.N,N/C*%
X35250000Y-35675000D03*
%TO.P,U1,26*%
X35750000Y-35675000D03*
%TO.P,U1,27*%
X36250000Y-35675000D03*
%TO.P,U1,28*%
X36750000Y-35675000D03*
%TO.P,U1,29*%
%TO.N,EXP_I2C_SCL*%
X37250000Y-35675000D03*
%TO.P,U1,30*%
%TO.N,EXP_I2C_SDA*%
X37750000Y-35675000D03*
%TO.P,U1,31*%
%TO.N,VCAP1*%
X38250000Y-35675000D03*
%TO.P,U1,32*%
%TO.N,3V3*%
X38750000Y-35675000D03*
D34*
%TO.P,U1,33*%
%TO.N,N/C*%
X40675000Y-33750000D03*
%TO.P,U1,34*%
%TO.N,EXP_SPI_SCK*%
X40675000Y-33250000D03*
%TO.P,U1,35*%
%TO.N,EXP_SPI_MISO*%
X40675000Y-32750000D03*
%TO.P,U1,36*%
%TO.N,EXP_SPI_MOSI*%
X40675000Y-32250000D03*
%TO.P,U1,37*%
%TO.N,N/C*%
X40675000Y-31750000D03*
%TO.P,U1,38*%
X40675000Y-31250000D03*
%TO.P,U1,39*%
X40675000Y-30750000D03*
%TO.P,U1,40*%
X40675000Y-30250000D03*
%TO.P,U1,41*%
X40675000Y-29750000D03*
%TO.P,U1,42*%
%TO.N,CRSF_TX*%
X40675000Y-29250000D03*
%TO.P,U1,43*%
%TO.N,CRSF_RX*%
X40675000Y-28750000D03*
%TO.P,U1,44*%
%TO.N,USB_DM_MCU*%
X40675000Y-28250000D03*
%TO.P,U1,45*%
%TO.N,USB_DP_MCU*%
X40675000Y-27750000D03*
%TO.P,U1,46*%
%TO.N,SWDIO*%
X40675000Y-27250000D03*
%TO.P,U1,47*%
%TO.N,VCAP2*%
X40675000Y-26750000D03*
%TO.P,U1,48*%
%TO.N,3V3*%
X40675000Y-26250000D03*
D35*
%TO.P,U1,49*%
%TO.N,SWCLK*%
X38750000Y-24325000D03*
%TO.P,U1,50*%
%TO.N,N/C*%
X38250000Y-24325000D03*
%TO.P,U1,51*%
%TO.N,TELEM_TX*%
X37750000Y-24325000D03*
%TO.P,U1,52*%
%TO.N,EXP_UART_RX*%
X37250000Y-24325000D03*
%TO.P,U1,53*%
%TO.N,N/C*%
X36750000Y-24325000D03*
%TO.P,U1,54*%
X36250000Y-24325000D03*
%TO.P,U1,55*%
X35750000Y-24325000D03*
%TO.P,U1,56*%
X35250000Y-24325000D03*
%TO.P,U1,57*%
X34750000Y-24325000D03*
%TO.P,U1,58*%
%TO.N,M1*%
X34250000Y-24325000D03*
%TO.P,U1,59*%
%TO.N,M2*%
X33750000Y-24325000D03*
%TO.P,U1,60*%
%TO.N,BOOT0*%
X33250000Y-24325000D03*
%TO.P,U1,61*%
%TO.N,M3*%
X32750000Y-24325000D03*
%TO.P,U1,62*%
%TO.N,M4*%
X32250000Y-24325000D03*
%TO.P,U1,63*%
%TO.N,GND*%
X31750000Y-24325000D03*
%TO.P,U1,64*%
%TO.N,3V3*%
X31250000Y-24325000D03*
%TD*%
D11*
%TO.P,J7,1*%
%TO.N,5V_RX*%
X71000000Y-48000000D03*
D12*
%TO.P,J7,2*%
%TO.N,GND*%
X73540000Y-48000000D03*
%TD*%
D19*
%TO.P,C21,1*%
%TO.N,3V3*%
X45599000Y-34041000D03*
%TO.P,C21,2*%
%TO.N,GND*%
X46559000Y-34041000D03*
%TD*%
D18*
%TO.P,R9,1*%
%TO.N,VBAT_4S*%
X18500000Y-29510000D03*
%TO.P,R9,2*%
%TO.N,VBAT_SENSE*%
X18500000Y-28490000D03*
%TD*%
D25*
%TO.P,C20,1*%
%TO.N,MPU_CPOUT*%
X45095000Y-31227000D03*
%TO.P,C20,2*%
%TO.N,3V3*%
X45095000Y-32187000D03*
%TD*%
D19*
%TO.P,C18,1*%
%TO.N,HSE_OUT*%
X32699000Y-41144000D03*
%TO.P,C18,2*%
%TO.N,GND*%
X33659000Y-41144000D03*
%TD*%
D16*
%TO.P,C1,1*%
%TO.N,VBAT_4S*%
X16903000Y-40046000D03*
%TO.P,C1,2*%
%TO.N,GND*%
X18803000Y-40046000D03*
%TD*%
D15*
%TO.P,R8,1*%
%TO.N,CC2*%
X56500000Y-31990000D03*
%TO.P,R8,2*%
%TO.N,GND*%
X56500000Y-33010000D03*
%TD*%
D10*
%TO.P,R6,1*%
%TO.N,USB_DP*%
X54010000Y-27500000D03*
%TO.P,R6,2*%
%TO.N,USB_DP_MCU*%
X52990000Y-27500000D03*
%TD*%
D36*
%TO.P,C3,1*%
%TO.N,SW_NODE*%
X14832000Y-40039000D03*
%TO.P,C3,2*%
%TO.N,VBST_NODE*%
X13872000Y-40039000D03*
%TD*%
D37*
%TO.N,USB_DM*%
X63763600Y-29849500D03*
X54591700Y-30081700D03*
X67256000Y-23077000D03*
%TO.N,USB_DM_MCU*%
X41902600Y-28521100D03*
X52406600Y-30083400D03*
%TO.N,3V3*%
X13273800Y-6103300D03*
D38*
X17207400Y-9176200D03*
D37*
X44370200Y-42280500D03*
D38*
%TO.N,GND*%
X34539800Y-39400600D03*
X22178000Y-30423000D03*
X14003500Y-47819100D03*
X62527000Y-24149200D03*
X20916300Y-8966300D03*
X45752800Y-29452000D03*
X40740800Y-43592700D03*
X19797300Y-39051700D03*
X49506000Y-38095500D03*
X7914200Y-12612000D03*
D37*
%TO.N,EXP_I2C_SCL*%
X37250000Y-34437000D03*
%TO.N,EXP_I2C_SDA*%
X38171900Y-34445900D03*
%TO.N,EXP_SPI_SCK*%
X43356800Y-33150500D03*
%TO.N,EXP_SPI_MOSI*%
X43629600Y-31733200D03*
%TO.N,EXP_SPI_MISO*%
X44455100Y-30718600D03*
%TO.N,EXP_SPI_CS2*%
X27269400Y-29963600D03*
X31560500Y-16093100D03*
%TO.N,EXP_UART_RX*%
X37250000Y-23067800D03*
%TO.N,EXP_IRQ1*%
X30779100Y-30660100D03*
%TO.N,EXP_IRQ2*%
X30552100Y-25412600D03*
D38*
%TO.N,5V_RX*%
X18175000Y-15172800D03*
X5073800Y-14976200D03*
D37*
%TO.N,HSE_IN*%
X28095000Y-28346300D03*
X25471700Y-32359200D03*
X32061900Y-39793100D03*
%TO.N,HSE_OUT*%
X27675000Y-34560900D03*
X32699000Y-40361500D03*
X30606800Y-28545500D03*
D38*
%TO.N,BOOST_SW*%
X5862500Y-6042100D03*
X12831600Y-12168400D03*
D37*
%TO.N,BOOT0*%
X26642000Y-26571700D03*
X33824400Y-25952400D03*
%TO.N,NRST*%
X35049500Y-33557500D03*
X46296900Y-39185100D03*
X30610500Y-29334100D03*
%TO.N,COMP_NODE*%
X18134200Y-46829800D03*
X10267600Y-50222400D03*
%TO.N,VFB*%
X25894300Y-40595700D03*
X17232700Y-47662700D03*
D38*
%TO.N,VBAT_4S*%
X19442800Y-29244600D03*
X9944600Y-43895800D03*
X18286500Y-41429500D03*
D37*
%TO.N,CC1*%
X57096400Y-34393600D03*
X68169400Y-30849500D03*
%TO.N,USB_VBUS*%
X68605100Y-25129300D03*
%TO.N,USB_DP*%
X66910600Y-25723100D03*
%TO.N,CC2*%
X57286000Y-32010000D03*
%TO.N,M1*%
X34250000Y-23087200D03*
%TO.N,M2*%
X37577000Y-26315400D03*
%TO.N,M3*%
X32805000Y-22903100D03*
%TO.N,M4*%
X33072600Y-25997700D03*
%TO.N,VCAP2*%
X25471800Y-26506000D03*
X37028900Y-26849000D03*
%TO.N,VFB_5V*%
X19110200Y-13285200D03*
X6617100Y-9704600D03*
%TO.N,SW_NODE*%
X14832000Y-40869300D03*
D38*
X9905600Y-45635000D03*
D37*
%TO.N,SS_NODE*%
X15699400Y-42319400D03*
X15446100Y-51573900D03*
%TO.N,CRSF_TX*%
X39440600Y-29682500D03*
%TO.N,CRSF_RX*%
X32716800Y-29781800D03*
%TO.N,VCAP1*%
X36570600Y-38090300D03*
X26363000Y-29494900D03*
%TO.N,SPI1_CS*%
X46769000Y-24841600D03*
X32750000Y-34430100D03*
%TO.N,SPI1_MISO*%
X46803100Y-25605400D03*
X33750000Y-34444200D03*
%TO.N,MPU_INT*%
X34748400Y-34443700D03*
X49249900Y-24883400D03*
%TO.N,MPU_CPOUT*%
X48750000Y-19168000D03*
X45681800Y-30640200D03*
%TO.N,SPI1_SCK*%
X33250000Y-36902600D03*
X47249900Y-19161300D03*
%TO.N,SPI1_MOSI*%
X34250000Y-36925100D03*
X46136600Y-19529800D03*
%TO.N,TELEM_TX*%
X37750000Y-25556400D03*
%TO.N,SWDIO*%
X42410300Y-27174700D03*
%TO.N,SWCLK*%
X39376700Y-24333700D03*
%TO.N,USB_DP_MCU*%
X41908600Y-27751000D03*
X52260100Y-27176000D03*
%TD*%
%TO.N,USB_DM*%
D39*
X66137500Y-23050000D02*
X63862500Y-23050000D01*
X66137500Y-23050000D02*
X67229000Y-23050000D01*
X54010000Y-29500000D02*
X54591700Y-30081700D01*
D40*
X68880500Y-29849500D02*
X68980000Y-29750000D01*
D39*
X67229000Y-23050000D02*
X67256000Y-23077000D01*
D40*
X63763600Y-29849500D02*
X68880500Y-29849500D01*
%TO.N,USB_DM_MCU*%
X40774500Y-28349500D02*
X40675000Y-28250000D01*
X41731000Y-28349500D02*
X40774500Y-28349500D01*
D39*
X52990000Y-29500000D02*
X52406600Y-30083400D01*
X41902600Y-28521100D02*
X41731000Y-28349500D01*
%TO.N,3V3*%
D41*
X44458000Y-36101000D02*
X44458000Y-37736000D01*
X21424700Y-48564200D02*
X21424700Y-47669000D01*
X45599000Y-32691000D02*
X45599000Y-34041000D01*
X44708000Y-34932000D02*
X44708000Y-35851000D01*
X18050000Y-8333600D02*
X18050000Y-8000000D01*
X8137500Y-8000000D02*
X8137500Y-8950000D01*
X44587800Y-42062900D02*
X44379000Y-41854100D01*
X45095000Y-32187000D02*
X45599000Y-32691000D01*
X44379000Y-39649000D02*
X44379000Y-41446000D01*
X44458000Y-37736000D02*
X44455000Y-37739000D01*
X47553000Y-43167000D02*
X47553000Y-42442900D01*
X22342400Y-46751300D02*
X21400000Y-45809000D01*
X37976100Y-38827900D02*
X44455000Y-38827900D01*
X44379000Y-41854100D02*
X44379000Y-41446000D01*
X44967800Y-42442900D02*
X47553000Y-42442900D01*
X44455000Y-39573000D02*
X44379000Y-39649000D01*
X21996500Y-49136000D02*
X21424700Y-48564200D01*
X21400000Y-45809000D02*
X21400000Y-45000000D01*
X44455000Y-37739000D02*
X44455000Y-38827900D01*
X22277000Y-49136000D02*
X21996500Y-49136000D01*
X25091300Y-48145700D02*
X24414000Y-48823000D01*
X44491000Y-43260000D02*
X44491000Y-42919700D01*
X24414000Y-48823000D02*
X22342400Y-46751300D01*
X47553000Y-42442900D02*
X47553000Y-40243000D01*
D42*
X25312800Y-47745500D02*
X25312800Y-47924200D01*
D41*
X30000000Y-47000000D02*
X26058300Y-47000000D01*
X44708000Y-35851000D02*
X44458000Y-36101000D01*
X17207400Y-9176200D02*
X18050000Y-8333600D01*
X36985000Y-39819000D02*
X36985000Y-40797000D01*
X45599000Y-34041000D02*
X44708000Y-34932000D01*
D42*
X25312800Y-47924200D02*
X25091300Y-48145700D01*
D41*
X26058300Y-47000000D02*
X25312800Y-47745500D01*
X47913000Y-43527000D02*
X47553000Y-43167000D01*
X21424700Y-47669000D02*
X22342400Y-46751300D01*
X11600000Y-8000000D02*
X8137500Y-8000000D01*
X36985000Y-40797000D02*
X38087000Y-41899000D01*
D42*
X13273800Y-6103300D02*
X13273800Y-6326200D01*
D41*
X36985000Y-39819000D02*
X37976100Y-38827900D01*
X44370200Y-42280500D02*
X44587800Y-42062900D01*
X44967800Y-42442900D02*
X44587800Y-42062900D01*
D42*
X13273800Y-6326200D02*
X11749200Y-7850800D01*
D41*
X44455000Y-38827900D02*
X44455000Y-39573000D01*
X11749200Y-7850800D02*
X11600000Y-8000000D01*
X44491000Y-42919700D02*
X44967800Y-42442900D01*
%TO.N,GND*%
X34539800Y-39400600D02*
X33783600Y-39400600D01*
D42*
X14000000Y-46435800D02*
X11994200Y-46435800D01*
D41*
X46817800Y-36109800D02*
X46559000Y-35851000D01*
X53686000Y-36010000D02*
X56500000Y-36010000D01*
X24537000Y-28056000D02*
X21036000Y-28056000D01*
D43*
X56749300Y-35760700D02*
X56500000Y-36010000D01*
D41*
X46931000Y-36336200D02*
X46817800Y-36336200D01*
X18980000Y-26000000D02*
X18980000Y-19345000D01*
X19797300Y-39051700D02*
X26798900Y-39051700D01*
X14225900Y-48041500D02*
X14225900Y-50189300D01*
X48142000Y-37819000D02*
X48142000Y-37547200D01*
D43*
X57244400Y-35760700D02*
X56749300Y-35760700D01*
D41*
X46559000Y-34041000D02*
X46559000Y-35851000D01*
D43*
X25897600Y-28073700D02*
X26392700Y-28073700D01*
D42*
X5713300Y-8149200D02*
X5862500Y-8000000D01*
D41*
X19797300Y-39051700D02*
X18803000Y-40046000D01*
X14000000Y-45000000D02*
X14000000Y-46435800D01*
X38535000Y-39819000D02*
X39047000Y-40331000D01*
X46817800Y-36336200D02*
X46817800Y-36109800D01*
X14003500Y-47819100D02*
X14003500Y-46435800D01*
D43*
X26392700Y-28073700D02*
X26642000Y-28323000D01*
D41*
X49453000Y-40243000D02*
X50553300Y-39142700D01*
X44890300Y-44107100D02*
X45451000Y-43546400D01*
X26798900Y-39051700D02*
X27510000Y-39762800D01*
X45415000Y-39573000D02*
X45415000Y-41370000D01*
D42*
X11994200Y-46435800D02*
X11525000Y-46905000D01*
D44*
X14225900Y-50189300D02*
X16800700Y-50189300D01*
D41*
X33659000Y-41144000D02*
X33659000Y-39276000D01*
X4649500Y-10699500D02*
X4649500Y-8149200D01*
X7914200Y-12612000D02*
X7914200Y-13964200D01*
X48418500Y-38095500D02*
X48142000Y-37819000D01*
X14225900Y-50754100D02*
X14225900Y-50189300D01*
X13980000Y-51000000D02*
X14225900Y-50754100D01*
X46559000Y-35851000D02*
X45668000Y-35851000D01*
D42*
X63713300Y-24149200D02*
X63862500Y-24000000D01*
D41*
X16980000Y-50189300D02*
X16800700Y-50189300D01*
X33783600Y-39400600D02*
X33599000Y-39216000D01*
D42*
X62527000Y-24149200D02*
X63713300Y-24149200D01*
D41*
X24537000Y-30423000D02*
X22178000Y-30423000D01*
X24554700Y-28073700D02*
X25897600Y-28073700D01*
X50553300Y-39142700D02*
X49506000Y-38095500D01*
X56862000Y-33010000D02*
X57947600Y-34095600D01*
X16980000Y-51000000D02*
X16980000Y-50189300D01*
X45415000Y-41370000D02*
X45339000Y-41446000D01*
X45418000Y-39570000D02*
X45415000Y-39573000D01*
X48142000Y-37547200D02*
X46931000Y-36336200D01*
X45752800Y-29452000D02*
X44731000Y-29452000D01*
X39047000Y-40331000D02*
X39047000Y-41899000D01*
X50553300Y-39142700D02*
X53686000Y-36010000D01*
X24537000Y-30423000D02*
X24537000Y-28056000D01*
X30000000Y-49540000D02*
X27031000Y-49540000D01*
D42*
X14003500Y-46435800D02*
X14000000Y-46435800D01*
D41*
X45451000Y-43546400D02*
X45451000Y-43260000D01*
X27510000Y-39762800D02*
X27510000Y-40000000D01*
X49506000Y-38095500D02*
X48418500Y-38095500D01*
X24813000Y-30423000D02*
X24537000Y-30423000D01*
X41255200Y-44107100D02*
X44890300Y-44107100D01*
X21036000Y-28056000D02*
X18980000Y-26000000D01*
X24537000Y-28056000D02*
X24554700Y-28073700D01*
D42*
X4649500Y-8149200D02*
X5713300Y-8149200D01*
D41*
X57947600Y-35057500D02*
X57244400Y-35760700D01*
X22178000Y-30423000D02*
X20067000Y-30423000D01*
X39047000Y-41899000D02*
X40740700Y-43592700D01*
X40740700Y-43592700D02*
X40740800Y-43592700D01*
X7914200Y-13964200D02*
X7950000Y-14000000D01*
X18980000Y-19345000D02*
X19825000Y-18500000D01*
X20067000Y-30423000D02*
X18500000Y-31990000D01*
X33659000Y-39276000D02*
X33599000Y-39216000D01*
X19950000Y-8000000D02*
X20916300Y-8966300D01*
X45418000Y-37736000D02*
X45418000Y-39570000D01*
X57947600Y-34095600D02*
X57947600Y-35057500D01*
X46817800Y-36336200D02*
X45418000Y-37736000D01*
X7950000Y-14000000D02*
X4649500Y-10699500D01*
X40740800Y-43592700D02*
X41255200Y-44107100D01*
X27031000Y-49540000D02*
X26314000Y-48823000D01*
X56500000Y-33010000D02*
X56862000Y-33010000D01*
X14003500Y-47819100D02*
X14225900Y-48041500D01*
%TO.N,EXP_I2C_SCL*%
D39*
X37250000Y-35675000D02*
X37250000Y-34437000D01*
%TO.N,EXP_I2C_SDA*%
X37750000Y-35675000D02*
X37750000Y-34867800D01*
X37750000Y-34867800D02*
X38171900Y-34445900D01*
%TO.N,EXP_SPI_SCK*%
D40*
X40774500Y-33150500D02*
X40675000Y-33250000D01*
X43356800Y-33150500D02*
X40774500Y-33150500D01*
%TO.N,EXP_SPI_MOSI*%
D39*
X42366700Y-32250000D02*
X40675000Y-32250000D01*
X43629600Y-31733200D02*
X42883500Y-31733200D01*
X42883500Y-31733200D02*
X42366700Y-32250000D01*
%TO.N,EXP_SPI_MISO*%
X44455100Y-31687900D02*
X44455100Y-30718600D01*
X43433100Y-32284900D02*
X43858100Y-32284900D01*
D40*
X43067500Y-32650500D02*
X40774500Y-32650500D01*
D39*
X43067500Y-32650500D02*
X43433100Y-32284900D01*
X43858100Y-32284900D02*
X44455100Y-31687900D01*
D40*
X40774500Y-32650500D02*
X40675000Y-32750000D01*
%TO.N,EXP_SPI_CS1*%
D39*
X27505600Y-28704600D02*
X28551000Y-29750000D01*
X52704600Y-15075400D02*
X39135700Y-15075400D01*
X28551000Y-29750000D02*
X29325000Y-29750000D01*
X27505600Y-26705500D02*
X27505600Y-28704600D01*
X39135700Y-15075400D02*
X27505600Y-26705500D01*
X60780000Y-7000000D02*
X52704600Y-15075400D01*
%TO.N,EXP_SPI_CS2*%
X29325000Y-30250000D02*
X27555800Y-30250000D01*
X27555800Y-30250000D02*
X27269400Y-29963600D01*
%TO.N,EXP_UART_RX*%
X37250000Y-24325000D02*
X37250000Y-23067800D01*
%TO.N,EXP_IRQ1*%
X29325000Y-30750000D02*
X29414900Y-30660100D01*
X29414900Y-30660100D02*
X30779100Y-30660100D01*
%TO.N,EXP_IRQ2*%
X29325000Y-31250000D02*
X31002200Y-31250000D01*
X31002200Y-31250000D02*
X31349800Y-30902400D01*
X31349800Y-26210300D02*
X30552100Y-25412600D01*
X31349800Y-30902400D02*
X31349800Y-26210300D01*
%TO.N,5V_RX*%
D41*
X5073800Y-14976200D02*
X6050000Y-14000000D01*
X18175000Y-15172800D02*
X18175000Y-14000000D01*
X15000000Y-14000000D02*
X18175000Y-14000000D01*
%TO.N,HSE_IN*%
D40*
X29228700Y-28346300D02*
X28095000Y-28346300D01*
D39*
X25471700Y-33678300D02*
X24300000Y-34850000D01*
D40*
X29325000Y-28250000D02*
X29228700Y-28346300D01*
D39*
X32061900Y-39793100D02*
X32639000Y-39216000D01*
X25471700Y-32359200D02*
X25471700Y-33678300D01*
%TO.N,HSE_OUT*%
X29325000Y-28750000D02*
X30402300Y-28750000D01*
X30402300Y-28750000D02*
X30606800Y-28545500D01*
X26500000Y-34850000D02*
X26789100Y-34560900D01*
X26789100Y-34560900D02*
X27675000Y-34560900D01*
X32699000Y-41144000D02*
X32699000Y-40361500D01*
%TO.N,BOOST_SW*%
D41*
X11000000Y-14000000D02*
X12831600Y-12168400D01*
X12831600Y-12168400D02*
X14400000Y-10600000D01*
X5862500Y-6042100D02*
X5862500Y-7050000D01*
X14400000Y-10600000D02*
X14400000Y-8000000D01*
%TO.N,BOOT0*%
D39*
X26642000Y-26571700D02*
X26642000Y-27303000D01*
X33250000Y-25378000D02*
X33250000Y-24325000D01*
X33824400Y-25952400D02*
X33250000Y-25378000D01*
%TO.N,NRST*%
X47182000Y-37819000D02*
X48503000Y-39140000D01*
X62000000Y-54620000D02*
X50907000Y-43527000D01*
X47182000Y-38300000D02*
X47182000Y-37819000D01*
X46296900Y-39185100D02*
X47182000Y-38300000D01*
X48503000Y-43097000D02*
X48933000Y-43527000D01*
X30526400Y-29250000D02*
X30610500Y-29334100D01*
X48503000Y-39140000D02*
X48503000Y-43097000D01*
X50907000Y-43527000D02*
X48933000Y-43527000D01*
X29325000Y-29250000D02*
X30526400Y-29250000D01*
%TO.N,COMP_NODE*%
D40*
X17658600Y-46354200D02*
X17194200Y-46354200D01*
D39*
X17658600Y-46354200D02*
X18134200Y-46829800D01*
X10267600Y-50222400D02*
X9490000Y-51000000D01*
D40*
X17194200Y-46354200D02*
X16475000Y-45635000D01*
%TO.N,VFB*%
D39*
X16475000Y-46905000D02*
X17232700Y-47662700D01*
X22961700Y-48800700D02*
X22277000Y-48116000D01*
X22632200Y-49744200D02*
X22961700Y-49414700D01*
X17232700Y-47662700D02*
X19314200Y-49744200D01*
X22961700Y-49414700D02*
X22961700Y-48800700D01*
X25894300Y-40595700D02*
X26490000Y-40000000D01*
X19314200Y-49744200D02*
X22632200Y-49744200D01*
%TO.N,VBAT_SENSE*%
X26835500Y-31787200D02*
X27798300Y-32750000D01*
X18500000Y-28490000D02*
X18020000Y-28010000D01*
X17859700Y-32369700D02*
X17859700Y-29130300D01*
X18020000Y-28010000D02*
X18020000Y-26000000D01*
X27798300Y-32750000D02*
X29325000Y-32750000D01*
X19722800Y-31787200D02*
X26835500Y-31787200D01*
X18500000Y-33010000D02*
X19722800Y-31787200D01*
X18500000Y-33010000D02*
X17859700Y-32369700D01*
X17859700Y-29130300D02*
X18500000Y-28490000D01*
%TO.N,VBAT_4S*%
D41*
X18286500Y-41429500D02*
X16903000Y-40046000D01*
D43*
X19244400Y-29260700D02*
X18749300Y-29260700D01*
D42*
X11055800Y-43895800D02*
X11525000Y-44365000D01*
D41*
X19260500Y-29244600D02*
X19244400Y-29260700D01*
D42*
X9944600Y-43895800D02*
X11055800Y-43895800D01*
D41*
X19442800Y-29244600D02*
X19260500Y-29244600D01*
D43*
X18749300Y-29260700D02*
X18500000Y-29510000D01*
%TO.N,CC1*%
D40*
X68169400Y-30849500D02*
X68880500Y-30849500D01*
D39*
X57096400Y-34393600D02*
X56500000Y-34990000D01*
D40*
X68880500Y-30849500D02*
X68980000Y-30750000D01*
%TO.N,USB_VBUS*%
D39*
X69030000Y-31200000D02*
X68980000Y-31250000D01*
D40*
X68605100Y-25129300D02*
X68605100Y-24399200D01*
D39*
X68605100Y-24399200D02*
X68477600Y-24399200D01*
D40*
X66536700Y-24399200D02*
X66137500Y-24000000D01*
X68477600Y-24399200D02*
X66536700Y-24399200D01*
D39*
X70290000Y-31200000D02*
X69030000Y-31200000D01*
X70290000Y-28800000D02*
X69030000Y-28800000D01*
X69030000Y-28800000D02*
X68980000Y-28750000D01*
%TO.N,USB_DP*%
X66910600Y-25723100D02*
X66137500Y-24950000D01*
X70186200Y-29600000D02*
X69536200Y-30250000D01*
X63862500Y-24950000D02*
X61312500Y-27500000D01*
X70290000Y-29600000D02*
X70186200Y-29600000D01*
X66137500Y-24950000D02*
X63862500Y-24950000D01*
X61312500Y-27500000D02*
X54010000Y-27500000D01*
X69536200Y-30250000D02*
X68980000Y-30250000D01*
%TO.N,CC2*%
X56520000Y-32010000D02*
X57286000Y-32010000D01*
X56500000Y-31990000D02*
X56520000Y-32010000D01*
%TO.N,M1*%
X34250000Y-23087200D02*
X34250000Y-24325000D01*
%TO.N,M2*%
X33750000Y-25097900D02*
X33750000Y-24325000D01*
X33750100Y-25097900D02*
X33750000Y-25097900D01*
X34399700Y-25747500D02*
X33750100Y-25097900D01*
X37009100Y-25747500D02*
X34399700Y-25747500D01*
X37577000Y-26315400D02*
X37009100Y-25747500D01*
%TO.N,M3*%
X32750000Y-24325000D02*
X32750000Y-22958100D01*
X32750000Y-22958100D02*
X32805000Y-22903100D01*
%TO.N,M4*%
X32250000Y-25175100D02*
X32250000Y-24325000D01*
X33072600Y-25997700D02*
X32250000Y-25175100D01*
%TO.N,VCAP2*%
D40*
X40675000Y-26750000D02*
X40576000Y-26849000D01*
D39*
X25471800Y-26506000D02*
X24537000Y-26506000D01*
D40*
X40576000Y-26849000D02*
X37028900Y-26849000D01*
%TO.N,VFB_5V*%
D39*
X19110200Y-13285200D02*
X19825000Y-14000000D01*
X6617100Y-9704600D02*
X5862500Y-8950000D01*
X19825000Y-16850000D02*
X18175000Y-18500000D01*
X19825000Y-14000000D02*
X19825000Y-16850000D01*
%TO.N,MPU_REGOUT*%
X48250000Y-24973000D02*
X48250000Y-23950000D01*
X44731000Y-28492000D02*
X48250000Y-24973000D01*
%TO.N,VBST_NODE*%
X11525000Y-42386000D02*
X11525000Y-43095000D01*
X13872000Y-40039000D02*
X11525000Y-42386000D01*
%TO.N,SW_NODE*%
D41*
X18600000Y-43293600D02*
X18600000Y-45000000D01*
X16576200Y-41783200D02*
X17089600Y-41783200D01*
X14832000Y-40039000D02*
X14832000Y-40869300D01*
X14832000Y-40039000D02*
X16576200Y-41783200D01*
X11525000Y-45635000D02*
X9905600Y-45635000D01*
X17089600Y-41783200D02*
X18600000Y-43293600D01*
%TO.N,SS_NODE*%
D39*
X16475000Y-43095000D02*
X15699400Y-42319400D01*
X15446100Y-51573900D02*
X16020000Y-51000000D01*
%TO.N,CRSF_TX*%
X39873100Y-29250000D02*
X39440600Y-29682500D01*
X40675000Y-29250000D02*
X39873100Y-29250000D01*
%TO.N,CRSF_RX*%
D40*
X39432000Y-28849500D02*
X40575500Y-28849500D01*
X40575500Y-28849500D02*
X40675000Y-28750000D01*
D39*
X33649100Y-28849500D02*
X32716800Y-29781800D01*
X39432000Y-28849500D02*
X33649100Y-28849500D01*
%TO.N,VCAP1*%
X36684400Y-38090300D02*
X36570600Y-38090300D01*
X38250000Y-35675000D02*
X38250000Y-36524700D01*
X38250000Y-36524700D02*
X36684400Y-38090300D01*
X26363000Y-30423000D02*
X26363000Y-29494900D01*
%TO.N,SPI1_CS*%
X46769000Y-24841600D02*
X47250000Y-24360600D01*
X47250000Y-24360600D02*
X47250000Y-23950000D01*
X32750000Y-35675000D02*
X32750000Y-34430100D01*
%TO.N,SPI1_MISO*%
X47750000Y-24658500D02*
X47750000Y-23950000D01*
X46803100Y-25605400D02*
X47750000Y-24658500D01*
X33750000Y-35675000D02*
X33750000Y-34444200D01*
%TO.N,MPU_INT*%
X34750000Y-34445300D02*
X34748400Y-34443700D01*
X49250000Y-23950000D02*
X49249900Y-23950000D01*
X49249900Y-23950000D02*
X49249900Y-24883400D01*
X34750000Y-35675000D02*
X34750000Y-34445300D01*
%TO.N,MPU_CPOUT*%
X48750000Y-20050000D02*
X48750000Y-19168000D01*
X45681800Y-30640200D02*
X45095000Y-31227000D01*
%TO.N,SPI1_SCK*%
X47249900Y-20050000D02*
X47249900Y-19161300D01*
X47250000Y-20050000D02*
X47249900Y-20050000D01*
X33250000Y-35675000D02*
X33250000Y-36902600D01*
%TO.N,SPI1_MOSI*%
X46229800Y-19529800D02*
X46136600Y-19529800D01*
X34250000Y-36925100D02*
X34250000Y-35675000D01*
X46750000Y-20050000D02*
X46229800Y-19529800D01*
%TO.N,TELEM_TX*%
X37750000Y-24325000D02*
X37750000Y-25556400D01*
%TO.N,SWDIO*%
X40750300Y-27174700D02*
X40675000Y-27250000D01*
X42410300Y-27174700D02*
X40750300Y-27174700D01*
%TO.N,SWCLK*%
X39368000Y-24325000D02*
X39376700Y-24333700D01*
X38750000Y-24325000D02*
X39368000Y-24325000D01*
%TO.N,USB_DP_MCU*%
X52666000Y-27176000D02*
X52990000Y-27500000D01*
X40675000Y-27750000D02*
X41907600Y-27750000D01*
X41907600Y-27750000D02*
X41908600Y-27751000D01*
X52260100Y-27176000D02*
X52666000Y-27176000D01*
%TD*%
M02*
