%TF.GenerationSoftware,KiCad,Pcbnew,10.0.5*%
%TF.CreationDate,2026-08-17T12:13:30-04:00*%
%TF.ProjectId,bench_board,62656e63-685f-4626-9f61-72642e6b6963,rev?*%
%TF.SameCoordinates,Original*%
%TF.FileFunction,Drillmap*%
%TF.FilePolarity,Positive*%
%FSLAX45Y45*%
G04 Gerber Fmt 4.5, Leading zero omitted, Abs format (unit mm)*
G04 Created by KiCad (PCBNEW 10.0.5) date 2026-08-17 12:13:30*
%MOMM*%
%LPD*%
G01*
G04 APERTURE LIST*
%ADD10C,0.100000*%
%ADD11C,0.200000*%
G04 APERTURE END LIST*
D10*
X0Y-300000D02*
G75*
G02*
X300000Y0I300000J0D01*
G01*
X0Y-5700000D02*
X0Y-300000D01*
X300000Y0D02*
X7700000Y0D01*
X300000Y-6000000D02*
G75*
G02*
X0Y-5700000I0J300000D01*
G01*
X7700000Y0D02*
G75*
G02*
X8000000Y-300000I0J-300000D01*
G01*
X7700000Y-6000000D02*
X300000Y-6000000D01*
X8000000Y-300000D02*
X8000000Y-5700000D01*
X8000000Y-5700000D02*
G75*
G02*
X7700000Y-6000000I-300000J0D01*
G01*
D11*
D10*
X646710Y-955460D02*
X676710Y-985460D01*
X676710Y-955460D02*
X646710Y-985460D01*
X1013250Y-5005750D02*
X1043250Y-5035750D01*
X1043250Y-5005750D02*
X1013250Y-5035750D01*
X1441760Y-4181420D02*
X1471760Y-4211420D01*
X1471760Y-4181420D02*
X1441760Y-4211420D01*
X1529610Y-5142390D02*
X1559610Y-5172390D01*
X1559610Y-5142390D02*
X1529610Y-5172390D01*
X1766210Y-4481580D02*
X1796210Y-4511580D01*
X1796210Y-4481580D02*
X1766210Y-4511580D01*
X1835000Y-3358430D02*
X1865000Y-3388430D01*
X1865000Y-3358430D02*
X1835000Y-3388430D01*
X1896020Y-1313520D02*
X1926020Y-1343520D01*
X1926020Y-1313520D02*
X1896020Y-1343520D01*
X1905760Y-4739200D02*
X1935760Y-4769200D01*
X1935760Y-4739200D02*
X1905760Y-4769200D01*
X1917500Y-2913210D02*
X1947500Y-2943210D01*
X1947500Y-2913210D02*
X1917500Y-2943210D01*
X2305960Y-3385000D02*
X2335960Y-3415000D01*
X2335960Y-3385000D02*
X2305960Y-3415000D01*
X2532180Y-2635600D02*
X2562180Y-2665600D01*
X2562180Y-2635600D02*
X2532180Y-2665600D01*
X2574920Y-3925920D02*
X2604920Y-3955920D01*
X2604920Y-3925920D02*
X2574920Y-3955920D01*
X2649200Y-2642170D02*
X2679200Y-2672170D01*
X2679200Y-2642170D02*
X2649200Y-2672170D01*
X2665630Y-3249370D02*
X2695630Y-3279370D01*
X2695630Y-3249370D02*
X2665630Y-3279370D01*
X2674850Y-3124660D02*
X2704850Y-3154660D01*
X2704850Y-3124660D02*
X2674850Y-3154660D01*
X2788250Y-3191410D02*
X2818250Y-3221410D01*
X2818250Y-3191410D02*
X2788250Y-3221410D01*
X2794430Y-2810000D02*
X2824430Y-2840000D01*
X2824430Y-2810000D02*
X2794430Y-2840000D01*
X2796880Y-3391600D02*
X2826880Y-3421600D01*
X2826880Y-3391600D02*
X2796880Y-3421600D01*
X2938040Y-3422330D02*
X2968040Y-3452330D01*
X2968040Y-3422330D02*
X2938040Y-3452330D01*
X3042100Y-3052100D02*
X3072100Y-3082100D01*
X3072100Y-3052100D02*
X3042100Y-3082100D01*
X3160790Y-3001330D02*
X3190790Y-3031330D01*
X3190790Y-3001330D02*
X3160790Y-3031330D01*
X3173750Y-3929600D02*
X3203750Y-3959600D01*
X3203750Y-3929600D02*
X3173750Y-3959600D01*
X3254900Y-4022040D02*
X3284900Y-4052040D01*
X3284900Y-4022040D02*
X3254900Y-4052040D01*
X3260000Y-3427840D02*
X3290000Y-3457840D01*
X3290000Y-3427840D02*
X3260000Y-3457840D01*
X3260110Y-2294700D02*
X3290110Y-2324700D01*
X3290110Y-2294700D02*
X3260110Y-2324700D01*
X3278820Y-2585230D02*
X3308820Y-2615230D01*
X3308820Y-2585230D02*
X3278820Y-2615230D01*
X3310000Y-3676930D02*
X3340000Y-3706930D01*
X3340000Y-3676930D02*
X3310000Y-3706930D01*
X3355860Y-2571250D02*
X3385860Y-2601250D01*
X3385860Y-2571250D02*
X3355860Y-2601250D01*
X3360000Y-3429160D02*
X3390000Y-3459160D01*
X3390000Y-3429160D02*
X3360000Y-3459160D01*
X3410000Y-3676030D02*
X3440000Y-3706030D01*
X3440000Y-3676030D02*
X3410000Y-3706030D01*
X3410110Y-2293610D02*
X3440110Y-2323610D01*
X3440110Y-2293610D02*
X3410110Y-2323610D01*
X3426780Y-3083100D02*
X3456780Y-3113100D01*
X3456780Y-3083100D02*
X3426780Y-3113100D01*
X3459840Y-3429360D02*
X3489840Y-3459360D01*
X3489840Y-3429360D02*
X3459840Y-3459360D01*
X3578420Y-2591310D02*
X3608420Y-2621310D01*
X3608420Y-2591310D02*
X3578420Y-2621310D01*
X3687320Y-2670630D02*
X3717320Y-2700630D01*
X3717320Y-2670630D02*
X3687320Y-2700630D01*
X3704950Y-2952310D02*
X3734950Y-2982310D01*
X3734950Y-2952310D02*
X3704950Y-2982310D01*
X3709030Y-2877130D02*
X3739030Y-2907130D01*
X3739030Y-2877130D02*
X3709030Y-2907130D01*
X3710000Y-2291940D02*
X3740000Y-2321940D01*
X3740000Y-2291940D02*
X3710000Y-2321940D01*
X3710000Y-3428700D02*
X3740000Y-3458700D01*
X3740000Y-3428700D02*
X3710000Y-3458700D01*
X3739540Y-2616540D02*
X3769540Y-2646540D01*
X3769540Y-2616540D02*
X3739540Y-2646540D01*
X3753180Y-3763460D02*
X3783180Y-3793460D01*
X3783180Y-3763460D02*
X3753180Y-3793460D01*
X3802350Y-3429590D02*
X3832350Y-3459590D01*
X3832350Y-3429590D02*
X3802350Y-3459590D01*
X3894400Y-3023350D02*
X3924400Y-3053350D01*
X3924400Y-3023350D02*
X3894400Y-3053350D01*
X3922940Y-2423600D02*
X3952940Y-2453600D01*
X3952940Y-2423600D02*
X3922940Y-2453600D01*
X4175260Y-2837110D02*
X4205260Y-2867110D01*
X4205260Y-2837110D02*
X4175260Y-2867110D01*
X4175800Y-2760000D02*
X4205800Y-2790000D01*
X4205800Y-2760000D02*
X4175800Y-2790000D01*
X4226030Y-2702470D02*
X4256030Y-2732470D01*
X4256030Y-2702470D02*
X4226030Y-2732470D01*
X4266220Y-2486170D02*
X4296220Y-2516170D01*
X4296220Y-2486170D02*
X4266220Y-2516170D01*
X4306030Y-3168330D02*
X4336030Y-3198330D01*
X4336030Y-3168330D02*
X4306030Y-3198330D01*
X4320680Y-3300050D02*
X4350680Y-3330050D01*
X4350680Y-3300050D02*
X4320680Y-3330050D01*
X4430350Y-3057020D02*
X4460350Y-3087020D01*
X4460350Y-3057020D02*
X4430350Y-3087020D01*
X4468910Y-2425610D02*
X4498910Y-2455610D01*
X4498910Y-2425610D02*
X4468910Y-2455610D01*
X4553180Y-3049020D02*
X4583180Y-3079020D01*
X4583180Y-3049020D02*
X4553180Y-3079020D01*
X4600730Y-1930730D02*
X4630730Y-1960730D01*
X4630730Y-1930730D02*
X4600730Y-1960730D01*
X4624910Y-3732480D02*
X4654910Y-3762480D01*
X4654910Y-3732480D02*
X4624910Y-3762480D01*
X4661900Y-2469160D02*
X4691900Y-2499160D01*
X4691900Y-2469160D02*
X4661900Y-2499160D01*
X4665310Y-2545540D02*
X4695310Y-2575540D01*
X4695310Y-2545540D02*
X4665310Y-2575540D01*
X4709990Y-1901130D02*
X4739990Y-1931130D01*
X4739990Y-1901130D02*
X4709990Y-1931130D01*
X4860000Y-1901960D02*
X4890000Y-1931960D01*
X4890000Y-1901960D02*
X4860000Y-1931960D01*
X4909990Y-2473340D02*
X4939990Y-2503340D01*
X4939990Y-2473340D02*
X4909990Y-2503340D01*
X5211010Y-2702600D02*
X5241010Y-2732600D01*
X5241010Y-2702600D02*
X5211010Y-2732600D01*
X5225660Y-2993340D02*
X5255660Y-3023340D01*
X5255660Y-2993340D02*
X5225660Y-3023340D01*
X5444170Y-2993170D02*
X5474170Y-3023170D01*
X5474170Y-2993170D02*
X5444170Y-3023170D01*
X5693480Y-3425520D02*
X5723480Y-3455520D01*
X5723480Y-3425520D02*
X5693480Y-3455520D01*
X5714050Y-3184110D02*
X5744050Y-3214110D01*
X5744050Y-3184110D02*
X5714050Y-3214110D01*
X6361360Y-2969950D02*
X6391360Y-2999950D01*
X6391360Y-2969950D02*
X6361360Y-2999950D01*
X6676060Y-2557310D02*
X6706060Y-2587310D01*
X6706060Y-2557310D02*
X6676060Y-2587310D01*
X6676120Y-2212630D02*
X6706120Y-2242630D01*
X6706120Y-2212630D02*
X6676120Y-2242630D01*
X6801940Y-3069950D02*
X6831940Y-3099950D01*
X6831940Y-3069950D02*
X6801940Y-3099950D01*
X6845510Y-2497930D02*
X6875510Y-2527930D01*
X6875510Y-2497930D02*
X6845510Y-2527930D01*
X522410Y-1502590D02*
G75*
G02*
X482410Y-1502590I-20000J0D01*
G01*
X482410Y-1502590D02*
G75*
G02*
X522410Y-1502590I20000J0D01*
G01*
X606250Y-604210D02*
G75*
G02*
X566250Y-604210I-20000J0D01*
G01*
X566250Y-604210D02*
G75*
G02*
X606250Y-604210I20000J0D01*
G01*
X811420Y-1261200D02*
G75*
G02*
X771420Y-1261200I-20000J0D01*
G01*
X771420Y-1261200D02*
G75*
G02*
X811420Y-1261200I20000J0D01*
G01*
X1010560Y-4563500D02*
G75*
G02*
X970560Y-4563500I-20000J0D01*
G01*
X970560Y-4563500D02*
G75*
G02*
X1010560Y-4563500I20000J0D01*
G01*
X1014460Y-4389580D02*
G75*
G02*
X974460Y-4389580I-20000J0D01*
G01*
X974460Y-4389580D02*
G75*
G02*
X1014460Y-4389580I20000J0D01*
G01*
X1303160Y-1216840D02*
G75*
G02*
X1263160Y-1216840I-20000J0D01*
G01*
X1263160Y-1216840D02*
G75*
G02*
X1303160Y-1216840I20000J0D01*
G01*
X1347380Y-610330D02*
G75*
G02*
X1307380Y-610330I-20000J0D01*
G01*
X1307380Y-610330D02*
G75*
G02*
X1347380Y-610330I20000J0D01*
G01*
X1536000Y-4126240D02*
G75*
G02*
X1496000Y-4126240I-20000J0D01*
G01*
X1496000Y-4126240D02*
G75*
G02*
X1536000Y-4126240I20000J0D01*
G01*
X1575460Y-4798690D02*
G75*
G02*
X1535460Y-4798690I-20000J0D01*
G01*
X1535460Y-4798690D02*
G75*
G02*
X1575460Y-4798690I20000J0D01*
G01*
X1740580Y-917620D02*
G75*
G02*
X1700580Y-917620I-20000J0D01*
G01*
X1700580Y-917620D02*
G75*
G02*
X1740580Y-917620I20000J0D01*
G01*
X1799290Y-3021710D02*
G75*
G02*
X1759290Y-3021710I-20000J0D01*
G01*
X1759290Y-3021710D02*
G75*
G02*
X1799290Y-3021710I20000J0D01*
G01*
X1837500Y-1517280D02*
G75*
G02*
X1797500Y-1517280I-20000J0D01*
G01*
X1797500Y-1517280D02*
G75*
G02*
X1837500Y-1517280I20000J0D01*
G01*
X1845180Y-4155270D02*
G75*
G02*
X1805180Y-4155270I-20000J0D01*
G01*
X1805180Y-4155270D02*
G75*
G02*
X1845180Y-4155270I20000J0D01*
G01*
X2002500Y-1964100D02*
G75*
G02*
X1962500Y-1964100I-20000J0D01*
G01*
X1962500Y-1964100D02*
G75*
G02*
X2002500Y-1964100I20000J0D01*
G01*
X2111630Y-896630D02*
G75*
G02*
X2071630Y-896630I-20000J0D01*
G01*
X2071630Y-896630D02*
G75*
G02*
X2111630Y-896630I20000J0D01*
G01*
X2237800Y-3042300D02*
G75*
G02*
X2197800Y-3042300I-20000J0D01*
G01*
X2197800Y-3042300D02*
G75*
G02*
X2237800Y-3042300I20000J0D01*
G01*
X2507240Y-4688170D02*
G75*
G02*
X2467240Y-4688170I-20000J0D01*
G01*
X2467240Y-4688170D02*
G75*
G02*
X2507240Y-4688170I20000J0D01*
G01*
X2514310Y-4086100D02*
G75*
G02*
X2474310Y-4086100I-20000J0D01*
G01*
X2474310Y-4086100D02*
G75*
G02*
X2514310Y-4086100I20000J0D01*
G01*
X3478950Y-4146640D02*
G75*
G02*
X3438950Y-4146640I-20000J0D01*
G01*
X3438950Y-4146640D02*
G75*
G02*
X3478950Y-4146640I20000J0D01*
G01*
X4094080Y-4359270D02*
G75*
G02*
X4054080Y-4359270I-20000J0D01*
G01*
X4054080Y-4359270D02*
G75*
G02*
X4094080Y-4359270I20000J0D01*
G01*
X4457020Y-4228050D02*
G75*
G02*
X4417020Y-4228050I-20000J0D01*
G01*
X4417020Y-4228050D02*
G75*
G02*
X4457020Y-4228050I20000J0D01*
G01*
X4595280Y-2945200D02*
G75*
G02*
X4555280Y-2945200I-20000J0D01*
G01*
X4555280Y-2945200D02*
G75*
G02*
X4595280Y-2945200I20000J0D01*
G01*
X5400650Y-3755380D02*
G75*
G02*
X5360650Y-3755380I-20000J0D01*
G01*
X5360650Y-3755380D02*
G75*
G02*
X5400650Y-3755380I20000J0D01*
G01*
X6272700Y-2414920D02*
G75*
G02*
X6232700Y-2414920I-20000J0D01*
G01*
X6232700Y-2414920D02*
G75*
G02*
X6272700Y-2414920I20000J0D01*
G01*
X7029000Y-2700000D02*
X7029000Y-2740000D01*
X7009000Y-2720000D02*
X7049000Y-2720000D01*
X7029000Y-2860000D02*
X7029000Y-2900000D01*
X7009000Y-2880000D02*
X7049000Y-2880000D01*
X7029000Y-2940000D02*
X7029000Y-2980000D01*
X7009000Y-2960000D02*
X7049000Y-2960000D01*
X7029000Y-3020000D02*
X7029000Y-3060000D01*
X7009000Y-3040000D02*
X7049000Y-3040000D01*
X7029000Y-3100000D02*
X7029000Y-3140000D01*
X7009000Y-3120000D02*
X7049000Y-3120000D01*
X7029000Y-3260000D02*
X7029000Y-3300000D01*
X7009000Y-3280000D02*
X7049000Y-3280000D01*
X7099000Y-2740000D02*
X7099000Y-2780000D01*
X7079000Y-2760000D02*
X7119000Y-2760000D01*
X7099000Y-2820000D02*
X7099000Y-2860000D01*
X7079000Y-2840000D02*
X7119000Y-2840000D01*
X7099000Y-2900000D02*
X7099000Y-2940000D01*
X7079000Y-2920000D02*
X7119000Y-2920000D01*
X7099000Y-3060000D02*
X7099000Y-3100000D01*
X7079000Y-3080000D02*
X7119000Y-3080000D01*
X7099000Y-3140000D02*
X7099000Y-3180000D01*
X7079000Y-3160000D02*
X7119000Y-3160000D01*
X7099000Y-3220000D02*
X7099000Y-3260000D01*
X7079000Y-3240000D02*
X7119000Y-3240000D01*
X7106678Y-2604678D02*
X7106678Y-2569322D01*
X7071322Y-2569322D01*
X7071322Y-2604678D01*
X7106678Y-2604678D01*
X7059000Y-2612000D02*
X7119000Y-2612000D01*
X7119000Y-2562000D02*
G75*
G02*
X7119000Y-2612000I0J-25000D01*
G01*
X7119000Y-2562000D02*
X7059000Y-2562000D01*
X7059000Y-2562000D02*
G75*
G03*
X7059000Y-2612000I0J-25000D01*
G01*
X7106678Y-3430678D02*
X7106678Y-3395322D01*
X7071322Y-3395322D01*
X7071322Y-3430678D01*
X7106678Y-3430678D01*
X7059000Y-3438000D02*
X7119000Y-3438000D01*
X7119000Y-3388000D02*
G75*
G02*
X7119000Y-3438000I0J-25000D01*
G01*
X7119000Y-3388000D02*
X7059000Y-3388000D01*
X7059000Y-3388000D02*
G75*
G03*
X7059000Y-3438000I0J-25000D01*
G01*
X7701678Y-2568678D02*
X7701678Y-2533322D01*
X7666322Y-2533322D01*
X7666322Y-2568678D01*
X7701678Y-2568678D01*
X7654000Y-2576000D02*
X7714000Y-2576000D01*
X7714000Y-2526000D02*
G75*
G02*
X7714000Y-2576000I0J-25000D01*
G01*
X7714000Y-2526000D02*
X7654000Y-2526000D01*
X7654000Y-2526000D02*
G75*
G03*
X7654000Y-2576000I0J-25000D01*
G01*
X7701678Y-3466678D02*
X7701678Y-3431322D01*
X7666322Y-3431322D01*
X7666322Y-3466678D01*
X7701678Y-3466678D01*
X7654000Y-3474000D02*
X7714000Y-3474000D01*
X7714000Y-3424000D02*
G75*
G02*
X7714000Y-3474000I0J-25000D01*
G01*
X7714000Y-3424000D02*
X7654000Y-3424000D01*
X7654000Y-3424000D02*
G75*
G03*
X7654000Y-3474000I0J-25000D01*
G01*
X600000Y-3050000D02*
X650000Y-3000000D01*
X600000Y-2950000D01*
X550000Y-3000000D01*
X600000Y-3050000D01*
X854000Y-3050000D02*
X904000Y-3000000D01*
X854000Y-2950000D01*
X804000Y-3000000D01*
X854000Y-3050000D01*
X3000000Y-1250000D02*
X3050000Y-1200000D01*
X3000000Y-1150000D01*
X2950000Y-1200000D01*
X3000000Y-1250000D01*
X3000000Y-1504000D02*
X3050000Y-1454000D01*
X3000000Y-1404000D01*
X2950000Y-1454000D01*
X3000000Y-1504000D01*
X3000000Y-4750000D02*
X3050000Y-4700000D01*
X3000000Y-4650000D01*
X2950000Y-4700000D01*
X3000000Y-4750000D01*
X3000000Y-5004000D02*
X3050000Y-4954000D01*
X3000000Y-4904000D01*
X2950000Y-4954000D01*
X3000000Y-5004000D01*
X3000000Y-5258000D02*
X3050000Y-5208000D01*
X3000000Y-5158000D01*
X2950000Y-5208000D01*
X3000000Y-5258000D01*
X3000000Y-5512000D02*
X3050000Y-5462000D01*
X3000000Y-5412000D01*
X2950000Y-5462000D01*
X3000000Y-5512000D01*
X4000000Y-4750000D02*
X4050000Y-4700000D01*
X4000000Y-4650000D01*
X3950000Y-4700000D01*
X4000000Y-4750000D01*
X4000000Y-5004000D02*
X4050000Y-4954000D01*
X4000000Y-4904000D01*
X3950000Y-4954000D01*
X4000000Y-5004000D01*
X4000000Y-5258000D02*
X4050000Y-5208000D01*
X4000000Y-5158000D01*
X3950000Y-5208000D01*
X4000000Y-5258000D01*
X4000000Y-5512000D02*
X4050000Y-5462000D01*
X4000000Y-5412000D01*
X3950000Y-5462000D01*
X4000000Y-5512000D01*
X4000000Y-5766000D02*
X4050000Y-5716000D01*
X4000000Y-5666000D01*
X3950000Y-5716000D01*
X4000000Y-5766000D01*
X4300000Y-750000D02*
X4350000Y-700000D01*
X4300000Y-650000D01*
X4250000Y-700000D01*
X4300000Y-750000D01*
X4554000Y-750000D02*
X4604000Y-700000D01*
X4554000Y-650000D01*
X4504000Y-700000D01*
X4554000Y-750000D01*
X4808000Y-750000D02*
X4858000Y-700000D01*
X4808000Y-650000D01*
X4758000Y-700000D01*
X4808000Y-750000D01*
X5062000Y-750000D02*
X5112000Y-700000D01*
X5062000Y-650000D01*
X5012000Y-700000D01*
X5062000Y-750000D01*
X5316000Y-750000D02*
X5366000Y-700000D01*
X5316000Y-650000D01*
X5266000Y-700000D01*
X5316000Y-750000D01*
X5570000Y-750000D02*
X5620000Y-700000D01*
X5570000Y-650000D01*
X5520000Y-700000D01*
X5570000Y-750000D01*
X5824000Y-750000D02*
X5874000Y-700000D01*
X5824000Y-650000D01*
X5774000Y-700000D01*
X5824000Y-750000D01*
X6078000Y-750000D02*
X6128000Y-700000D01*
X6078000Y-650000D01*
X6028000Y-700000D01*
X6078000Y-750000D01*
X6200000Y-4750000D02*
X6250000Y-4700000D01*
X6200000Y-4650000D01*
X6150000Y-4700000D01*
X6200000Y-4750000D01*
X6200000Y-5004000D02*
X6250000Y-4954000D01*
X6200000Y-4904000D01*
X6150000Y-4954000D01*
X6200000Y-5004000D01*
X6200000Y-5258000D02*
X6250000Y-5208000D01*
X6200000Y-5158000D01*
X6150000Y-5208000D01*
X6200000Y-5258000D01*
X6200000Y-5512000D02*
X6250000Y-5462000D01*
X6200000Y-5412000D01*
X6150000Y-5462000D01*
X6200000Y-5512000D01*
X6200000Y-5766000D02*
X6250000Y-5716000D01*
X6200000Y-5666000D01*
X6150000Y-5716000D01*
X6200000Y-5766000D01*
X6332000Y-750000D02*
X6382000Y-700000D01*
X6332000Y-650000D01*
X6282000Y-700000D01*
X6332000Y-750000D01*
X6586000Y-750000D02*
X6636000Y-700000D01*
X6586000Y-650000D01*
X6536000Y-700000D01*
X6586000Y-750000D01*
X6840000Y-750000D02*
X6890000Y-700000D01*
X6840000Y-650000D01*
X6790000Y-700000D01*
X6840000Y-750000D01*
X7094000Y-750000D02*
X7144000Y-700000D01*
X7094000Y-650000D01*
X7044000Y-700000D01*
X7094000Y-750000D01*
X7100000Y-4850000D02*
X7150000Y-4800000D01*
X7100000Y-4750000D01*
X7050000Y-4800000D01*
X7100000Y-4850000D01*
X7150000Y-5650000D02*
X7200000Y-5600000D01*
X7150000Y-5550000D01*
X7100000Y-5600000D01*
X7150000Y-5650000D01*
X7348000Y-750000D02*
X7398000Y-700000D01*
X7348000Y-650000D01*
X7298000Y-700000D01*
X7348000Y-750000D01*
X7354000Y-4850000D02*
X7404000Y-4800000D01*
X7354000Y-4750000D01*
X7304000Y-4800000D01*
X7354000Y-4850000D01*
X7404000Y-5650000D02*
X7454000Y-5600000D01*
X7404000Y-5550000D01*
X7354000Y-5600000D01*
X7404000Y-5650000D01*
X7602000Y-750000D02*
X7652000Y-700000D01*
X7602000Y-650000D01*
X7552000Y-700000D01*
X7602000Y-750000D01*
X7658000Y-5650000D02*
X7708000Y-5600000D01*
X7658000Y-5550000D01*
X7608000Y-5600000D01*
X7658000Y-5650000D01*
D11*
X255777Y-6316484D02*
X255777Y-6116484D01*
X255777Y-6116484D02*
X303396Y-6116484D01*
X303396Y-6116484D02*
X331967Y-6126008D01*
X331967Y-6126008D02*
X351015Y-6145055D01*
X351015Y-6145055D02*
X360539Y-6164103D01*
X360539Y-6164103D02*
X370062Y-6202198D01*
X370062Y-6202198D02*
X370062Y-6230769D01*
X370062Y-6230769D02*
X360539Y-6268865D01*
X360539Y-6268865D02*
X351015Y-6287912D01*
X351015Y-6287912D02*
X331967Y-6306960D01*
X331967Y-6306960D02*
X303396Y-6316484D01*
X303396Y-6316484D02*
X255777Y-6316484D01*
X455777Y-6316484D02*
X455777Y-6183150D01*
X455777Y-6221246D02*
X465301Y-6202198D01*
X465301Y-6202198D02*
X474824Y-6192674D01*
X474824Y-6192674D02*
X493872Y-6183150D01*
X493872Y-6183150D02*
X512920Y-6183150D01*
X579586Y-6316484D02*
X579586Y-6183150D01*
X579586Y-6116484D02*
X570063Y-6126008D01*
X570063Y-6126008D02*
X579586Y-6135531D01*
X579586Y-6135531D02*
X589110Y-6126008D01*
X589110Y-6126008D02*
X579586Y-6116484D01*
X579586Y-6116484D02*
X579586Y-6135531D01*
X703396Y-6316484D02*
X684348Y-6306960D01*
X684348Y-6306960D02*
X674824Y-6287912D01*
X674824Y-6287912D02*
X674824Y-6116484D01*
X808158Y-6316484D02*
X789110Y-6306960D01*
X789110Y-6306960D02*
X779586Y-6287912D01*
X779586Y-6287912D02*
X779586Y-6116484D01*
X1036729Y-6316484D02*
X1036729Y-6116484D01*
X1036729Y-6116484D02*
X1103396Y-6259341D01*
X1103396Y-6259341D02*
X1170063Y-6116484D01*
X1170063Y-6116484D02*
X1170063Y-6316484D01*
X1351015Y-6316484D02*
X1351015Y-6211722D01*
X1351015Y-6211722D02*
X1341491Y-6192674D01*
X1341491Y-6192674D02*
X1322444Y-6183150D01*
X1322444Y-6183150D02*
X1284348Y-6183150D01*
X1284348Y-6183150D02*
X1265301Y-6192674D01*
X1351015Y-6306960D02*
X1331967Y-6316484D01*
X1331967Y-6316484D02*
X1284348Y-6316484D01*
X1284348Y-6316484D02*
X1265301Y-6306960D01*
X1265301Y-6306960D02*
X1255777Y-6287912D01*
X1255777Y-6287912D02*
X1255777Y-6268865D01*
X1255777Y-6268865D02*
X1265301Y-6249817D01*
X1265301Y-6249817D02*
X1284348Y-6240293D01*
X1284348Y-6240293D02*
X1331967Y-6240293D01*
X1331967Y-6240293D02*
X1351015Y-6230769D01*
X1446253Y-6183150D02*
X1446253Y-6383150D01*
X1446253Y-6192674D02*
X1465301Y-6183150D01*
X1465301Y-6183150D02*
X1503396Y-6183150D01*
X1503396Y-6183150D02*
X1522443Y-6192674D01*
X1522443Y-6192674D02*
X1531967Y-6202198D01*
X1531967Y-6202198D02*
X1541491Y-6221246D01*
X1541491Y-6221246D02*
X1541491Y-6278388D01*
X1541491Y-6278388D02*
X1531967Y-6297436D01*
X1531967Y-6297436D02*
X1522443Y-6306960D01*
X1522443Y-6306960D02*
X1503396Y-6316484D01*
X1503396Y-6316484D02*
X1465301Y-6316484D01*
X1465301Y-6316484D02*
X1446253Y-6306960D01*
X1627205Y-6297436D02*
X1636729Y-6306960D01*
X1636729Y-6306960D02*
X1627205Y-6316484D01*
X1627205Y-6316484D02*
X1617682Y-6306960D01*
X1617682Y-6306960D02*
X1627205Y-6297436D01*
X1627205Y-6297436D02*
X1627205Y-6316484D01*
X1627205Y-6192674D02*
X1636729Y-6202198D01*
X1636729Y-6202198D02*
X1627205Y-6211722D01*
X1627205Y-6211722D02*
X1617682Y-6202198D01*
X1617682Y-6202198D02*
X1627205Y-6192674D01*
X1627205Y-6192674D02*
X1627205Y-6211722D01*
D10*
X-35000Y-6630000D02*
X-5000Y-6660000D01*
X-5000Y-6630000D02*
X-35000Y-6660000D01*
D11*
X293872Y-6536484D02*
X312920Y-6536484D01*
X312920Y-6536484D02*
X331967Y-6546008D01*
X331967Y-6546008D02*
X341491Y-6555531D01*
X341491Y-6555531D02*
X351015Y-6574579D01*
X351015Y-6574579D02*
X360539Y-6612674D01*
X360539Y-6612674D02*
X360539Y-6660293D01*
X360539Y-6660293D02*
X351015Y-6698388D01*
X351015Y-6698388D02*
X341491Y-6717436D01*
X341491Y-6717436D02*
X331967Y-6726960D01*
X331967Y-6726960D02*
X312920Y-6736484D01*
X312920Y-6736484D02*
X293872Y-6736484D01*
X293872Y-6736484D02*
X274824Y-6726960D01*
X274824Y-6726960D02*
X265301Y-6717436D01*
X265301Y-6717436D02*
X255777Y-6698388D01*
X255777Y-6698388D02*
X246253Y-6660293D01*
X246253Y-6660293D02*
X246253Y-6612674D01*
X246253Y-6612674D02*
X255777Y-6574579D01*
X255777Y-6574579D02*
X265301Y-6555531D01*
X265301Y-6555531D02*
X274824Y-6546008D01*
X274824Y-6546008D02*
X293872Y-6536484D01*
X446253Y-6717436D02*
X455777Y-6726960D01*
X455777Y-6726960D02*
X446253Y-6736484D01*
X446253Y-6736484D02*
X436729Y-6726960D01*
X436729Y-6726960D02*
X446253Y-6717436D01*
X446253Y-6717436D02*
X446253Y-6736484D01*
X522443Y-6536484D02*
X646253Y-6536484D01*
X646253Y-6536484D02*
X579586Y-6612674D01*
X579586Y-6612674D02*
X608158Y-6612674D01*
X608158Y-6612674D02*
X627205Y-6622198D01*
X627205Y-6622198D02*
X636729Y-6631722D01*
X636729Y-6631722D02*
X646253Y-6650769D01*
X646253Y-6650769D02*
X646253Y-6698388D01*
X646253Y-6698388D02*
X636729Y-6717436D01*
X636729Y-6717436D02*
X627205Y-6726960D01*
X627205Y-6726960D02*
X608158Y-6736484D01*
X608158Y-6736484D02*
X551015Y-6736484D01*
X551015Y-6736484D02*
X531967Y-6726960D01*
X531967Y-6726960D02*
X522443Y-6717436D01*
X770062Y-6536484D02*
X789110Y-6536484D01*
X789110Y-6536484D02*
X808158Y-6546008D01*
X808158Y-6546008D02*
X817682Y-6555531D01*
X817682Y-6555531D02*
X827205Y-6574579D01*
X827205Y-6574579D02*
X836729Y-6612674D01*
X836729Y-6612674D02*
X836729Y-6660293D01*
X836729Y-6660293D02*
X827205Y-6698388D01*
X827205Y-6698388D02*
X817682Y-6717436D01*
X817682Y-6717436D02*
X808158Y-6726960D01*
X808158Y-6726960D02*
X789110Y-6736484D01*
X789110Y-6736484D02*
X770062Y-6736484D01*
X770062Y-6736484D02*
X751015Y-6726960D01*
X751015Y-6726960D02*
X741491Y-6717436D01*
X741491Y-6717436D02*
X731967Y-6698388D01*
X731967Y-6698388D02*
X722443Y-6660293D01*
X722443Y-6660293D02*
X722443Y-6612674D01*
X722443Y-6612674D02*
X731967Y-6574579D01*
X731967Y-6574579D02*
X741491Y-6555531D01*
X741491Y-6555531D02*
X751015Y-6546008D01*
X751015Y-6546008D02*
X770062Y-6536484D01*
X960539Y-6536484D02*
X979586Y-6536484D01*
X979586Y-6536484D02*
X998634Y-6546008D01*
X998634Y-6546008D02*
X1008158Y-6555531D01*
X1008158Y-6555531D02*
X1017682Y-6574579D01*
X1017682Y-6574579D02*
X1027205Y-6612674D01*
X1027205Y-6612674D02*
X1027205Y-6660293D01*
X1027205Y-6660293D02*
X1017682Y-6698388D01*
X1017682Y-6698388D02*
X1008158Y-6717436D01*
X1008158Y-6717436D02*
X998634Y-6726960D01*
X998634Y-6726960D02*
X979586Y-6736484D01*
X979586Y-6736484D02*
X960539Y-6736484D01*
X960539Y-6736484D02*
X941491Y-6726960D01*
X941491Y-6726960D02*
X931967Y-6717436D01*
X931967Y-6717436D02*
X922443Y-6698388D01*
X922443Y-6698388D02*
X912920Y-6660293D01*
X912920Y-6660293D02*
X912920Y-6612674D01*
X912920Y-6612674D02*
X922443Y-6574579D01*
X922443Y-6574579D02*
X931967Y-6555531D01*
X931967Y-6555531D02*
X941491Y-6546008D01*
X941491Y-6546008D02*
X960539Y-6536484D01*
X1112920Y-6736484D02*
X1112920Y-6603150D01*
X1112920Y-6622198D02*
X1122444Y-6612674D01*
X1122444Y-6612674D02*
X1141491Y-6603150D01*
X1141491Y-6603150D02*
X1170063Y-6603150D01*
X1170063Y-6603150D02*
X1189110Y-6612674D01*
X1189110Y-6612674D02*
X1198634Y-6631722D01*
X1198634Y-6631722D02*
X1198634Y-6736484D01*
X1198634Y-6631722D02*
X1208158Y-6612674D01*
X1208158Y-6612674D02*
X1227205Y-6603150D01*
X1227205Y-6603150D02*
X1255777Y-6603150D01*
X1255777Y-6603150D02*
X1274825Y-6612674D01*
X1274825Y-6612674D02*
X1284348Y-6631722D01*
X1284348Y-6631722D02*
X1284348Y-6736484D01*
X1379586Y-6736484D02*
X1379586Y-6603150D01*
X1379586Y-6622198D02*
X1389110Y-6612674D01*
X1389110Y-6612674D02*
X1408158Y-6603150D01*
X1408158Y-6603150D02*
X1436729Y-6603150D01*
X1436729Y-6603150D02*
X1455777Y-6612674D01*
X1455777Y-6612674D02*
X1465301Y-6631722D01*
X1465301Y-6631722D02*
X1465301Y-6736484D01*
X1465301Y-6631722D02*
X1474824Y-6612674D01*
X1474824Y-6612674D02*
X1493872Y-6603150D01*
X1493872Y-6603150D02*
X1522443Y-6603150D01*
X1522443Y-6603150D02*
X1541491Y-6612674D01*
X1541491Y-6612674D02*
X1551015Y-6631722D01*
X1551015Y-6631722D02*
X1551015Y-6736484D01*
X1941491Y-6526960D02*
X1770063Y-6784103D01*
X2198634Y-6536484D02*
X2217682Y-6536484D01*
X2217682Y-6536484D02*
X2236729Y-6546008D01*
X2236729Y-6546008D02*
X2246253Y-6555531D01*
X2246253Y-6555531D02*
X2255777Y-6574579D01*
X2255777Y-6574579D02*
X2265301Y-6612674D01*
X2265301Y-6612674D02*
X2265301Y-6660293D01*
X2265301Y-6660293D02*
X2255777Y-6698388D01*
X2255777Y-6698388D02*
X2246253Y-6717436D01*
X2246253Y-6717436D02*
X2236729Y-6726960D01*
X2236729Y-6726960D02*
X2217682Y-6736484D01*
X2217682Y-6736484D02*
X2198634Y-6736484D01*
X2198634Y-6736484D02*
X2179587Y-6726960D01*
X2179587Y-6726960D02*
X2170063Y-6717436D01*
X2170063Y-6717436D02*
X2160539Y-6698388D01*
X2160539Y-6698388D02*
X2151015Y-6660293D01*
X2151015Y-6660293D02*
X2151015Y-6612674D01*
X2151015Y-6612674D02*
X2160539Y-6574579D01*
X2160539Y-6574579D02*
X2170063Y-6555531D01*
X2170063Y-6555531D02*
X2179587Y-6546008D01*
X2179587Y-6546008D02*
X2198634Y-6536484D01*
X2351015Y-6717436D02*
X2360539Y-6726960D01*
X2360539Y-6726960D02*
X2351015Y-6736484D01*
X2351015Y-6736484D02*
X2341491Y-6726960D01*
X2341491Y-6726960D02*
X2351015Y-6717436D01*
X2351015Y-6717436D02*
X2351015Y-6736484D01*
X2484348Y-6536484D02*
X2503396Y-6536484D01*
X2503396Y-6536484D02*
X2522444Y-6546008D01*
X2522444Y-6546008D02*
X2531968Y-6555531D01*
X2531968Y-6555531D02*
X2541491Y-6574579D01*
X2541491Y-6574579D02*
X2551015Y-6612674D01*
X2551015Y-6612674D02*
X2551015Y-6660293D01*
X2551015Y-6660293D02*
X2541491Y-6698388D01*
X2541491Y-6698388D02*
X2531968Y-6717436D01*
X2531968Y-6717436D02*
X2522444Y-6726960D01*
X2522444Y-6726960D02*
X2503396Y-6736484D01*
X2503396Y-6736484D02*
X2484348Y-6736484D01*
X2484348Y-6736484D02*
X2465301Y-6726960D01*
X2465301Y-6726960D02*
X2455777Y-6717436D01*
X2455777Y-6717436D02*
X2446253Y-6698388D01*
X2446253Y-6698388D02*
X2436729Y-6660293D01*
X2436729Y-6660293D02*
X2436729Y-6612674D01*
X2436729Y-6612674D02*
X2446253Y-6574579D01*
X2446253Y-6574579D02*
X2455777Y-6555531D01*
X2455777Y-6555531D02*
X2465301Y-6546008D01*
X2465301Y-6546008D02*
X2484348Y-6536484D01*
X2741491Y-6736484D02*
X2627206Y-6736484D01*
X2684348Y-6736484D02*
X2684348Y-6536484D01*
X2684348Y-6536484D02*
X2665301Y-6565055D01*
X2665301Y-6565055D02*
X2646253Y-6584103D01*
X2646253Y-6584103D02*
X2627206Y-6593627D01*
X2931967Y-6736484D02*
X2817682Y-6736484D01*
X2874825Y-6736484D02*
X2874825Y-6536484D01*
X2874825Y-6536484D02*
X2855777Y-6565055D01*
X2855777Y-6565055D02*
X2836729Y-6584103D01*
X2836729Y-6584103D02*
X2817682Y-6593627D01*
X3046253Y-6622198D02*
X3027206Y-6612674D01*
X3027206Y-6612674D02*
X3017682Y-6603150D01*
X3017682Y-6603150D02*
X3008158Y-6584103D01*
X3008158Y-6584103D02*
X3008158Y-6574579D01*
X3008158Y-6574579D02*
X3017682Y-6555531D01*
X3017682Y-6555531D02*
X3027206Y-6546008D01*
X3027206Y-6546008D02*
X3046253Y-6536484D01*
X3046253Y-6536484D02*
X3084348Y-6536484D01*
X3084348Y-6536484D02*
X3103396Y-6546008D01*
X3103396Y-6546008D02*
X3112920Y-6555531D01*
X3112920Y-6555531D02*
X3122444Y-6574579D01*
X3122444Y-6574579D02*
X3122444Y-6584103D01*
X3122444Y-6584103D02*
X3112920Y-6603150D01*
X3112920Y-6603150D02*
X3103396Y-6612674D01*
X3103396Y-6612674D02*
X3084348Y-6622198D01*
X3084348Y-6622198D02*
X3046253Y-6622198D01*
X3046253Y-6622198D02*
X3027206Y-6631722D01*
X3027206Y-6631722D02*
X3017682Y-6641246D01*
X3017682Y-6641246D02*
X3008158Y-6660293D01*
X3008158Y-6660293D02*
X3008158Y-6698388D01*
X3008158Y-6698388D02*
X3017682Y-6717436D01*
X3017682Y-6717436D02*
X3027206Y-6726960D01*
X3027206Y-6726960D02*
X3046253Y-6736484D01*
X3046253Y-6736484D02*
X3084348Y-6736484D01*
X3084348Y-6736484D02*
X3103396Y-6726960D01*
X3103396Y-6726960D02*
X3112920Y-6717436D01*
X3112920Y-6717436D02*
X3122444Y-6698388D01*
X3122444Y-6698388D02*
X3122444Y-6660293D01*
X3122444Y-6660293D02*
X3112920Y-6641246D01*
X3112920Y-6641246D02*
X3103396Y-6631722D01*
X3103396Y-6631722D02*
X3084348Y-6622198D01*
X3198634Y-6536484D02*
X3198634Y-6574579D01*
X3274825Y-6536484D02*
X3274825Y-6574579D01*
X3570063Y-6812674D02*
X3560539Y-6803150D01*
X3560539Y-6803150D02*
X3541491Y-6774579D01*
X3541491Y-6774579D02*
X3531968Y-6755531D01*
X3531968Y-6755531D02*
X3522444Y-6726960D01*
X3522444Y-6726960D02*
X3512920Y-6679341D01*
X3512920Y-6679341D02*
X3512920Y-6641246D01*
X3512920Y-6641246D02*
X3522444Y-6593627D01*
X3522444Y-6593627D02*
X3531968Y-6565055D01*
X3531968Y-6565055D02*
X3541491Y-6546008D01*
X3541491Y-6546008D02*
X3560539Y-6517436D01*
X3560539Y-6517436D02*
X3570063Y-6507912D01*
X3627206Y-6536484D02*
X3760539Y-6536484D01*
X3760539Y-6536484D02*
X3674825Y-6736484D01*
X3874825Y-6536484D02*
X3893872Y-6536484D01*
X3893872Y-6536484D02*
X3912920Y-6546008D01*
X3912920Y-6546008D02*
X3922444Y-6555531D01*
X3922444Y-6555531D02*
X3931968Y-6574579D01*
X3931968Y-6574579D02*
X3941491Y-6612674D01*
X3941491Y-6612674D02*
X3941491Y-6660293D01*
X3941491Y-6660293D02*
X3931968Y-6698388D01*
X3931968Y-6698388D02*
X3922444Y-6717436D01*
X3922444Y-6717436D02*
X3912920Y-6726960D01*
X3912920Y-6726960D02*
X3893872Y-6736484D01*
X3893872Y-6736484D02*
X3874825Y-6736484D01*
X3874825Y-6736484D02*
X3855777Y-6726960D01*
X3855777Y-6726960D02*
X3846253Y-6717436D01*
X3846253Y-6717436D02*
X3836729Y-6698388D01*
X3836729Y-6698388D02*
X3827206Y-6660293D01*
X3827206Y-6660293D02*
X3827206Y-6612674D01*
X3827206Y-6612674D02*
X3836729Y-6574579D01*
X3836729Y-6574579D02*
X3846253Y-6555531D01*
X3846253Y-6555531D02*
X3855777Y-6546008D01*
X3855777Y-6546008D02*
X3874825Y-6536484D01*
X4179587Y-6736484D02*
X4179587Y-6536484D01*
X4265301Y-6736484D02*
X4265301Y-6631722D01*
X4265301Y-6631722D02*
X4255777Y-6612674D01*
X4255777Y-6612674D02*
X4236730Y-6603150D01*
X4236730Y-6603150D02*
X4208158Y-6603150D01*
X4208158Y-6603150D02*
X4189110Y-6612674D01*
X4189110Y-6612674D02*
X4179587Y-6622198D01*
X4389111Y-6736484D02*
X4370063Y-6726960D01*
X4370063Y-6726960D02*
X4360539Y-6717436D01*
X4360539Y-6717436D02*
X4351015Y-6698388D01*
X4351015Y-6698388D02*
X4351015Y-6641246D01*
X4351015Y-6641246D02*
X4360539Y-6622198D01*
X4360539Y-6622198D02*
X4370063Y-6612674D01*
X4370063Y-6612674D02*
X4389111Y-6603150D01*
X4389111Y-6603150D02*
X4417682Y-6603150D01*
X4417682Y-6603150D02*
X4436730Y-6612674D01*
X4436730Y-6612674D02*
X4446253Y-6622198D01*
X4446253Y-6622198D02*
X4455777Y-6641246D01*
X4455777Y-6641246D02*
X4455777Y-6698388D01*
X4455777Y-6698388D02*
X4446253Y-6717436D01*
X4446253Y-6717436D02*
X4436730Y-6726960D01*
X4436730Y-6726960D02*
X4417682Y-6736484D01*
X4417682Y-6736484D02*
X4389111Y-6736484D01*
X4570063Y-6736484D02*
X4551015Y-6726960D01*
X4551015Y-6726960D02*
X4541492Y-6707912D01*
X4541492Y-6707912D02*
X4541492Y-6536484D01*
X4722444Y-6726960D02*
X4703396Y-6736484D01*
X4703396Y-6736484D02*
X4665301Y-6736484D01*
X4665301Y-6736484D02*
X4646253Y-6726960D01*
X4646253Y-6726960D02*
X4636730Y-6707912D01*
X4636730Y-6707912D02*
X4636730Y-6631722D01*
X4636730Y-6631722D02*
X4646253Y-6612674D01*
X4646253Y-6612674D02*
X4665301Y-6603150D01*
X4665301Y-6603150D02*
X4703396Y-6603150D01*
X4703396Y-6603150D02*
X4722444Y-6612674D01*
X4722444Y-6612674D02*
X4731968Y-6631722D01*
X4731968Y-6631722D02*
X4731968Y-6650769D01*
X4731968Y-6650769D02*
X4636730Y-6669817D01*
X4808158Y-6726960D02*
X4827206Y-6736484D01*
X4827206Y-6736484D02*
X4865301Y-6736484D01*
X4865301Y-6736484D02*
X4884349Y-6726960D01*
X4884349Y-6726960D02*
X4893873Y-6707912D01*
X4893873Y-6707912D02*
X4893873Y-6698388D01*
X4893873Y-6698388D02*
X4884349Y-6679341D01*
X4884349Y-6679341D02*
X4865301Y-6669817D01*
X4865301Y-6669817D02*
X4836730Y-6669817D01*
X4836730Y-6669817D02*
X4817682Y-6660293D01*
X4817682Y-6660293D02*
X4808158Y-6641246D01*
X4808158Y-6641246D02*
X4808158Y-6631722D01*
X4808158Y-6631722D02*
X4817682Y-6612674D01*
X4817682Y-6612674D02*
X4836730Y-6603150D01*
X4836730Y-6603150D02*
X4865301Y-6603150D01*
X4865301Y-6603150D02*
X4884349Y-6612674D01*
X4960539Y-6812674D02*
X4970063Y-6803150D01*
X4970063Y-6803150D02*
X4989111Y-6774579D01*
X4989111Y-6774579D02*
X4998634Y-6755531D01*
X4998634Y-6755531D02*
X5008158Y-6726960D01*
X5008158Y-6726960D02*
X5017682Y-6679341D01*
X5017682Y-6679341D02*
X5017682Y-6641246D01*
X5017682Y-6641246D02*
X5008158Y-6593627D01*
X5008158Y-6593627D02*
X4998634Y-6565055D01*
X4998634Y-6565055D02*
X4989111Y-6546008D01*
X4989111Y-6546008D02*
X4970063Y-6517436D01*
X4970063Y-6517436D02*
X4960539Y-6507912D01*
D10*
X-5000Y-6909000D02*
G75*
G02*
X-45000Y-6909000I-20000J0D01*
G01*
X-45000Y-6909000D02*
G75*
G02*
X-5000Y-6909000I20000J0D01*
G01*
D11*
X293872Y-6800484D02*
X312920Y-6800484D01*
X312920Y-6800484D02*
X331967Y-6810008D01*
X331967Y-6810008D02*
X341491Y-6819531D01*
X341491Y-6819531D02*
X351015Y-6838579D01*
X351015Y-6838579D02*
X360539Y-6876674D01*
X360539Y-6876674D02*
X360539Y-6924293D01*
X360539Y-6924293D02*
X351015Y-6962388D01*
X351015Y-6962388D02*
X341491Y-6981436D01*
X341491Y-6981436D02*
X331967Y-6990960D01*
X331967Y-6990960D02*
X312920Y-7000484D01*
X312920Y-7000484D02*
X293872Y-7000484D01*
X293872Y-7000484D02*
X274824Y-6990960D01*
X274824Y-6990960D02*
X265301Y-6981436D01*
X265301Y-6981436D02*
X255777Y-6962388D01*
X255777Y-6962388D02*
X246253Y-6924293D01*
X246253Y-6924293D02*
X246253Y-6876674D01*
X246253Y-6876674D02*
X255777Y-6838579D01*
X255777Y-6838579D02*
X265301Y-6819531D01*
X265301Y-6819531D02*
X274824Y-6810008D01*
X274824Y-6810008D02*
X293872Y-6800484D01*
X446253Y-6981436D02*
X455777Y-6990960D01*
X455777Y-6990960D02*
X446253Y-7000484D01*
X446253Y-7000484D02*
X436729Y-6990960D01*
X436729Y-6990960D02*
X446253Y-6981436D01*
X446253Y-6981436D02*
X446253Y-7000484D01*
X627205Y-6867150D02*
X627205Y-7000484D01*
X579586Y-6790960D02*
X531967Y-6933817D01*
X531967Y-6933817D02*
X655777Y-6933817D01*
X770062Y-6800484D02*
X789110Y-6800484D01*
X789110Y-6800484D02*
X808158Y-6810008D01*
X808158Y-6810008D02*
X817682Y-6819531D01*
X817682Y-6819531D02*
X827205Y-6838579D01*
X827205Y-6838579D02*
X836729Y-6876674D01*
X836729Y-6876674D02*
X836729Y-6924293D01*
X836729Y-6924293D02*
X827205Y-6962388D01*
X827205Y-6962388D02*
X817682Y-6981436D01*
X817682Y-6981436D02*
X808158Y-6990960D01*
X808158Y-6990960D02*
X789110Y-7000484D01*
X789110Y-7000484D02*
X770062Y-7000484D01*
X770062Y-7000484D02*
X751015Y-6990960D01*
X751015Y-6990960D02*
X741491Y-6981436D01*
X741491Y-6981436D02*
X731967Y-6962388D01*
X731967Y-6962388D02*
X722443Y-6924293D01*
X722443Y-6924293D02*
X722443Y-6876674D01*
X722443Y-6876674D02*
X731967Y-6838579D01*
X731967Y-6838579D02*
X741491Y-6819531D01*
X741491Y-6819531D02*
X751015Y-6810008D01*
X751015Y-6810008D02*
X770062Y-6800484D01*
X960539Y-6800484D02*
X979586Y-6800484D01*
X979586Y-6800484D02*
X998634Y-6810008D01*
X998634Y-6810008D02*
X1008158Y-6819531D01*
X1008158Y-6819531D02*
X1017682Y-6838579D01*
X1017682Y-6838579D02*
X1027205Y-6876674D01*
X1027205Y-6876674D02*
X1027205Y-6924293D01*
X1027205Y-6924293D02*
X1017682Y-6962388D01*
X1017682Y-6962388D02*
X1008158Y-6981436D01*
X1008158Y-6981436D02*
X998634Y-6990960D01*
X998634Y-6990960D02*
X979586Y-7000484D01*
X979586Y-7000484D02*
X960539Y-7000484D01*
X960539Y-7000484D02*
X941491Y-6990960D01*
X941491Y-6990960D02*
X931967Y-6981436D01*
X931967Y-6981436D02*
X922443Y-6962388D01*
X922443Y-6962388D02*
X912920Y-6924293D01*
X912920Y-6924293D02*
X912920Y-6876674D01*
X912920Y-6876674D02*
X922443Y-6838579D01*
X922443Y-6838579D02*
X931967Y-6819531D01*
X931967Y-6819531D02*
X941491Y-6810008D01*
X941491Y-6810008D02*
X960539Y-6800484D01*
X1112920Y-7000484D02*
X1112920Y-6867150D01*
X1112920Y-6886198D02*
X1122444Y-6876674D01*
X1122444Y-6876674D02*
X1141491Y-6867150D01*
X1141491Y-6867150D02*
X1170063Y-6867150D01*
X1170063Y-6867150D02*
X1189110Y-6876674D01*
X1189110Y-6876674D02*
X1198634Y-6895722D01*
X1198634Y-6895722D02*
X1198634Y-7000484D01*
X1198634Y-6895722D02*
X1208158Y-6876674D01*
X1208158Y-6876674D02*
X1227205Y-6867150D01*
X1227205Y-6867150D02*
X1255777Y-6867150D01*
X1255777Y-6867150D02*
X1274825Y-6876674D01*
X1274825Y-6876674D02*
X1284348Y-6895722D01*
X1284348Y-6895722D02*
X1284348Y-7000484D01*
X1379586Y-7000484D02*
X1379586Y-6867150D01*
X1379586Y-6886198D02*
X1389110Y-6876674D01*
X1389110Y-6876674D02*
X1408158Y-6867150D01*
X1408158Y-6867150D02*
X1436729Y-6867150D01*
X1436729Y-6867150D02*
X1455777Y-6876674D01*
X1455777Y-6876674D02*
X1465301Y-6895722D01*
X1465301Y-6895722D02*
X1465301Y-7000484D01*
X1465301Y-6895722D02*
X1474824Y-6876674D01*
X1474824Y-6876674D02*
X1493872Y-6867150D01*
X1493872Y-6867150D02*
X1522443Y-6867150D01*
X1522443Y-6867150D02*
X1541491Y-6876674D01*
X1541491Y-6876674D02*
X1551015Y-6895722D01*
X1551015Y-6895722D02*
X1551015Y-7000484D01*
X1941491Y-6790960D02*
X1770063Y-7048103D01*
X2198634Y-6800484D02*
X2217682Y-6800484D01*
X2217682Y-6800484D02*
X2236729Y-6810008D01*
X2236729Y-6810008D02*
X2246253Y-6819531D01*
X2246253Y-6819531D02*
X2255777Y-6838579D01*
X2255777Y-6838579D02*
X2265301Y-6876674D01*
X2265301Y-6876674D02*
X2265301Y-6924293D01*
X2265301Y-6924293D02*
X2255777Y-6962388D01*
X2255777Y-6962388D02*
X2246253Y-6981436D01*
X2246253Y-6981436D02*
X2236729Y-6990960D01*
X2236729Y-6990960D02*
X2217682Y-7000484D01*
X2217682Y-7000484D02*
X2198634Y-7000484D01*
X2198634Y-7000484D02*
X2179587Y-6990960D01*
X2179587Y-6990960D02*
X2170063Y-6981436D01*
X2170063Y-6981436D02*
X2160539Y-6962388D01*
X2160539Y-6962388D02*
X2151015Y-6924293D01*
X2151015Y-6924293D02*
X2151015Y-6876674D01*
X2151015Y-6876674D02*
X2160539Y-6838579D01*
X2160539Y-6838579D02*
X2170063Y-6819531D01*
X2170063Y-6819531D02*
X2179587Y-6810008D01*
X2179587Y-6810008D02*
X2198634Y-6800484D01*
X2351015Y-6981436D02*
X2360539Y-6990960D01*
X2360539Y-6990960D02*
X2351015Y-7000484D01*
X2351015Y-7000484D02*
X2341491Y-6990960D01*
X2341491Y-6990960D02*
X2351015Y-6981436D01*
X2351015Y-6981436D02*
X2351015Y-7000484D01*
X2484348Y-6800484D02*
X2503396Y-6800484D01*
X2503396Y-6800484D02*
X2522444Y-6810008D01*
X2522444Y-6810008D02*
X2531968Y-6819531D01*
X2531968Y-6819531D02*
X2541491Y-6838579D01*
X2541491Y-6838579D02*
X2551015Y-6876674D01*
X2551015Y-6876674D02*
X2551015Y-6924293D01*
X2551015Y-6924293D02*
X2541491Y-6962388D01*
X2541491Y-6962388D02*
X2531968Y-6981436D01*
X2531968Y-6981436D02*
X2522444Y-6990960D01*
X2522444Y-6990960D02*
X2503396Y-7000484D01*
X2503396Y-7000484D02*
X2484348Y-7000484D01*
X2484348Y-7000484D02*
X2465301Y-6990960D01*
X2465301Y-6990960D02*
X2455777Y-6981436D01*
X2455777Y-6981436D02*
X2446253Y-6962388D01*
X2446253Y-6962388D02*
X2436729Y-6924293D01*
X2436729Y-6924293D02*
X2436729Y-6876674D01*
X2436729Y-6876674D02*
X2446253Y-6838579D01*
X2446253Y-6838579D02*
X2455777Y-6819531D01*
X2455777Y-6819531D02*
X2465301Y-6810008D01*
X2465301Y-6810008D02*
X2484348Y-6800484D01*
X2741491Y-7000484D02*
X2627206Y-7000484D01*
X2684348Y-7000484D02*
X2684348Y-6800484D01*
X2684348Y-6800484D02*
X2665301Y-6829055D01*
X2665301Y-6829055D02*
X2646253Y-6848103D01*
X2646253Y-6848103D02*
X2627206Y-6857627D01*
X2922444Y-6800484D02*
X2827206Y-6800484D01*
X2827206Y-6800484D02*
X2817682Y-6895722D01*
X2817682Y-6895722D02*
X2827206Y-6886198D01*
X2827206Y-6886198D02*
X2846253Y-6876674D01*
X2846253Y-6876674D02*
X2893872Y-6876674D01*
X2893872Y-6876674D02*
X2912920Y-6886198D01*
X2912920Y-6886198D02*
X2922444Y-6895722D01*
X2922444Y-6895722D02*
X2931967Y-6914769D01*
X2931967Y-6914769D02*
X2931967Y-6962388D01*
X2931967Y-6962388D02*
X2922444Y-6981436D01*
X2922444Y-6981436D02*
X2912920Y-6990960D01*
X2912920Y-6990960D02*
X2893872Y-7000484D01*
X2893872Y-7000484D02*
X2846253Y-7000484D01*
X2846253Y-7000484D02*
X2827206Y-6990960D01*
X2827206Y-6990960D02*
X2817682Y-6981436D01*
X2998634Y-6800484D02*
X3131967Y-6800484D01*
X3131967Y-6800484D02*
X3046253Y-7000484D01*
X3198634Y-6800484D02*
X3198634Y-6838579D01*
X3274825Y-6800484D02*
X3274825Y-6838579D01*
X3570063Y-7076674D02*
X3560539Y-7067150D01*
X3560539Y-7067150D02*
X3541491Y-7038579D01*
X3541491Y-7038579D02*
X3531968Y-7019531D01*
X3531968Y-7019531D02*
X3522444Y-6990960D01*
X3522444Y-6990960D02*
X3512920Y-6943341D01*
X3512920Y-6943341D02*
X3512920Y-6905246D01*
X3512920Y-6905246D02*
X3522444Y-6857627D01*
X3522444Y-6857627D02*
X3531968Y-6829055D01*
X3531968Y-6829055D02*
X3541491Y-6810008D01*
X3541491Y-6810008D02*
X3560539Y-6781436D01*
X3560539Y-6781436D02*
X3570063Y-6771912D01*
X3636729Y-6819531D02*
X3646253Y-6810008D01*
X3646253Y-6810008D02*
X3665301Y-6800484D01*
X3665301Y-6800484D02*
X3712920Y-6800484D01*
X3712920Y-6800484D02*
X3731968Y-6810008D01*
X3731968Y-6810008D02*
X3741491Y-6819531D01*
X3741491Y-6819531D02*
X3751015Y-6838579D01*
X3751015Y-6838579D02*
X3751015Y-6857627D01*
X3751015Y-6857627D02*
X3741491Y-6886198D01*
X3741491Y-6886198D02*
X3627206Y-7000484D01*
X3627206Y-7000484D02*
X3751015Y-7000484D01*
X3922444Y-6867150D02*
X3922444Y-7000484D01*
X3874825Y-6790960D02*
X3827206Y-6933817D01*
X3827206Y-6933817D02*
X3951015Y-6933817D01*
X4179587Y-7000484D02*
X4179587Y-6800484D01*
X4265301Y-7000484D02*
X4265301Y-6895722D01*
X4265301Y-6895722D02*
X4255777Y-6876674D01*
X4255777Y-6876674D02*
X4236730Y-6867150D01*
X4236730Y-6867150D02*
X4208158Y-6867150D01*
X4208158Y-6867150D02*
X4189110Y-6876674D01*
X4189110Y-6876674D02*
X4179587Y-6886198D01*
X4389111Y-7000484D02*
X4370063Y-6990960D01*
X4370063Y-6990960D02*
X4360539Y-6981436D01*
X4360539Y-6981436D02*
X4351015Y-6962388D01*
X4351015Y-6962388D02*
X4351015Y-6905246D01*
X4351015Y-6905246D02*
X4360539Y-6886198D01*
X4360539Y-6886198D02*
X4370063Y-6876674D01*
X4370063Y-6876674D02*
X4389111Y-6867150D01*
X4389111Y-6867150D02*
X4417682Y-6867150D01*
X4417682Y-6867150D02*
X4436730Y-6876674D01*
X4436730Y-6876674D02*
X4446253Y-6886198D01*
X4446253Y-6886198D02*
X4455777Y-6905246D01*
X4455777Y-6905246D02*
X4455777Y-6962388D01*
X4455777Y-6962388D02*
X4446253Y-6981436D01*
X4446253Y-6981436D02*
X4436730Y-6990960D01*
X4436730Y-6990960D02*
X4417682Y-7000484D01*
X4417682Y-7000484D02*
X4389111Y-7000484D01*
X4570063Y-7000484D02*
X4551015Y-6990960D01*
X4551015Y-6990960D02*
X4541492Y-6971912D01*
X4541492Y-6971912D02*
X4541492Y-6800484D01*
X4722444Y-6990960D02*
X4703396Y-7000484D01*
X4703396Y-7000484D02*
X4665301Y-7000484D01*
X4665301Y-7000484D02*
X4646253Y-6990960D01*
X4646253Y-6990960D02*
X4636730Y-6971912D01*
X4636730Y-6971912D02*
X4636730Y-6895722D01*
X4636730Y-6895722D02*
X4646253Y-6876674D01*
X4646253Y-6876674D02*
X4665301Y-6867150D01*
X4665301Y-6867150D02*
X4703396Y-6867150D01*
X4703396Y-6867150D02*
X4722444Y-6876674D01*
X4722444Y-6876674D02*
X4731968Y-6895722D01*
X4731968Y-6895722D02*
X4731968Y-6914769D01*
X4731968Y-6914769D02*
X4636730Y-6933817D01*
X4808158Y-6990960D02*
X4827206Y-7000484D01*
X4827206Y-7000484D02*
X4865301Y-7000484D01*
X4865301Y-7000484D02*
X4884349Y-6990960D01*
X4884349Y-6990960D02*
X4893873Y-6971912D01*
X4893873Y-6971912D02*
X4893873Y-6962388D01*
X4893873Y-6962388D02*
X4884349Y-6943341D01*
X4884349Y-6943341D02*
X4865301Y-6933817D01*
X4865301Y-6933817D02*
X4836730Y-6933817D01*
X4836730Y-6933817D02*
X4817682Y-6924293D01*
X4817682Y-6924293D02*
X4808158Y-6905246D01*
X4808158Y-6905246D02*
X4808158Y-6895722D01*
X4808158Y-6895722D02*
X4817682Y-6876674D01*
X4817682Y-6876674D02*
X4836730Y-6867150D01*
X4836730Y-6867150D02*
X4865301Y-6867150D01*
X4865301Y-6867150D02*
X4884349Y-6876674D01*
X4960539Y-7076674D02*
X4970063Y-7067150D01*
X4970063Y-7067150D02*
X4989111Y-7038579D01*
X4989111Y-7038579D02*
X4998634Y-7019531D01*
X4998634Y-7019531D02*
X5008158Y-6990960D01*
X5008158Y-6990960D02*
X5017682Y-6943341D01*
X5017682Y-6943341D02*
X5017682Y-6905246D01*
X5017682Y-6905246D02*
X5008158Y-6857627D01*
X5008158Y-6857627D02*
X4998634Y-6829055D01*
X4998634Y-6829055D02*
X4989111Y-6810008D01*
X4989111Y-6810008D02*
X4970063Y-6781436D01*
X4970063Y-6781436D02*
X4960539Y-6771912D01*
D10*
X-25000Y-7153000D02*
X-25000Y-7193000D01*
X-45000Y-7173000D02*
X-5000Y-7173000D01*
D11*
X293872Y-7064484D02*
X312920Y-7064484D01*
X312920Y-7064484D02*
X331967Y-7074008D01*
X331967Y-7074008D02*
X341491Y-7083531D01*
X341491Y-7083531D02*
X351015Y-7102579D01*
X351015Y-7102579D02*
X360539Y-7140674D01*
X360539Y-7140674D02*
X360539Y-7188293D01*
X360539Y-7188293D02*
X351015Y-7226388D01*
X351015Y-7226388D02*
X341491Y-7245436D01*
X341491Y-7245436D02*
X331967Y-7254960D01*
X331967Y-7254960D02*
X312920Y-7264484D01*
X312920Y-7264484D02*
X293872Y-7264484D01*
X293872Y-7264484D02*
X274824Y-7254960D01*
X274824Y-7254960D02*
X265301Y-7245436D01*
X265301Y-7245436D02*
X255777Y-7226388D01*
X255777Y-7226388D02*
X246253Y-7188293D01*
X246253Y-7188293D02*
X246253Y-7140674D01*
X246253Y-7140674D02*
X255777Y-7102579D01*
X255777Y-7102579D02*
X265301Y-7083531D01*
X265301Y-7083531D02*
X274824Y-7074008D01*
X274824Y-7074008D02*
X293872Y-7064484D01*
X446253Y-7245436D02*
X455777Y-7254960D01*
X455777Y-7254960D02*
X446253Y-7264484D01*
X446253Y-7264484D02*
X436729Y-7254960D01*
X436729Y-7254960D02*
X446253Y-7245436D01*
X446253Y-7245436D02*
X446253Y-7264484D01*
X627205Y-7131150D02*
X627205Y-7264484D01*
X579586Y-7054960D02*
X531967Y-7197817D01*
X531967Y-7197817D02*
X655777Y-7197817D01*
X770062Y-7064484D02*
X789110Y-7064484D01*
X789110Y-7064484D02*
X808158Y-7074008D01*
X808158Y-7074008D02*
X817682Y-7083531D01*
X817682Y-7083531D02*
X827205Y-7102579D01*
X827205Y-7102579D02*
X836729Y-7140674D01*
X836729Y-7140674D02*
X836729Y-7188293D01*
X836729Y-7188293D02*
X827205Y-7226388D01*
X827205Y-7226388D02*
X817682Y-7245436D01*
X817682Y-7245436D02*
X808158Y-7254960D01*
X808158Y-7254960D02*
X789110Y-7264484D01*
X789110Y-7264484D02*
X770062Y-7264484D01*
X770062Y-7264484D02*
X751015Y-7254960D01*
X751015Y-7254960D02*
X741491Y-7245436D01*
X741491Y-7245436D02*
X731967Y-7226388D01*
X731967Y-7226388D02*
X722443Y-7188293D01*
X722443Y-7188293D02*
X722443Y-7140674D01*
X722443Y-7140674D02*
X731967Y-7102579D01*
X731967Y-7102579D02*
X741491Y-7083531D01*
X741491Y-7083531D02*
X751015Y-7074008D01*
X751015Y-7074008D02*
X770062Y-7064484D01*
X960539Y-7064484D02*
X979586Y-7064484D01*
X979586Y-7064484D02*
X998634Y-7074008D01*
X998634Y-7074008D02*
X1008158Y-7083531D01*
X1008158Y-7083531D02*
X1017682Y-7102579D01*
X1017682Y-7102579D02*
X1027205Y-7140674D01*
X1027205Y-7140674D02*
X1027205Y-7188293D01*
X1027205Y-7188293D02*
X1017682Y-7226388D01*
X1017682Y-7226388D02*
X1008158Y-7245436D01*
X1008158Y-7245436D02*
X998634Y-7254960D01*
X998634Y-7254960D02*
X979586Y-7264484D01*
X979586Y-7264484D02*
X960539Y-7264484D01*
X960539Y-7264484D02*
X941491Y-7254960D01*
X941491Y-7254960D02*
X931967Y-7245436D01*
X931967Y-7245436D02*
X922443Y-7226388D01*
X922443Y-7226388D02*
X912920Y-7188293D01*
X912920Y-7188293D02*
X912920Y-7140674D01*
X912920Y-7140674D02*
X922443Y-7102579D01*
X922443Y-7102579D02*
X931967Y-7083531D01*
X931967Y-7083531D02*
X941491Y-7074008D01*
X941491Y-7074008D02*
X960539Y-7064484D01*
X1112920Y-7264484D02*
X1112920Y-7131150D01*
X1112920Y-7150198D02*
X1122444Y-7140674D01*
X1122444Y-7140674D02*
X1141491Y-7131150D01*
X1141491Y-7131150D02*
X1170063Y-7131150D01*
X1170063Y-7131150D02*
X1189110Y-7140674D01*
X1189110Y-7140674D02*
X1198634Y-7159722D01*
X1198634Y-7159722D02*
X1198634Y-7264484D01*
X1198634Y-7159722D02*
X1208158Y-7140674D01*
X1208158Y-7140674D02*
X1227205Y-7131150D01*
X1227205Y-7131150D02*
X1255777Y-7131150D01*
X1255777Y-7131150D02*
X1274825Y-7140674D01*
X1274825Y-7140674D02*
X1284348Y-7159722D01*
X1284348Y-7159722D02*
X1284348Y-7264484D01*
X1379586Y-7264484D02*
X1379586Y-7131150D01*
X1379586Y-7150198D02*
X1389110Y-7140674D01*
X1389110Y-7140674D02*
X1408158Y-7131150D01*
X1408158Y-7131150D02*
X1436729Y-7131150D01*
X1436729Y-7131150D02*
X1455777Y-7140674D01*
X1455777Y-7140674D02*
X1465301Y-7159722D01*
X1465301Y-7159722D02*
X1465301Y-7264484D01*
X1465301Y-7159722D02*
X1474824Y-7140674D01*
X1474824Y-7140674D02*
X1493872Y-7131150D01*
X1493872Y-7131150D02*
X1522443Y-7131150D01*
X1522443Y-7131150D02*
X1541491Y-7140674D01*
X1541491Y-7140674D02*
X1551015Y-7159722D01*
X1551015Y-7159722D02*
X1551015Y-7264484D01*
X1941491Y-7054960D02*
X1770063Y-7312103D01*
X2198634Y-7064484D02*
X2217682Y-7064484D01*
X2217682Y-7064484D02*
X2236729Y-7074008D01*
X2236729Y-7074008D02*
X2246253Y-7083531D01*
X2246253Y-7083531D02*
X2255777Y-7102579D01*
X2255777Y-7102579D02*
X2265301Y-7140674D01*
X2265301Y-7140674D02*
X2265301Y-7188293D01*
X2265301Y-7188293D02*
X2255777Y-7226388D01*
X2255777Y-7226388D02*
X2246253Y-7245436D01*
X2246253Y-7245436D02*
X2236729Y-7254960D01*
X2236729Y-7254960D02*
X2217682Y-7264484D01*
X2217682Y-7264484D02*
X2198634Y-7264484D01*
X2198634Y-7264484D02*
X2179587Y-7254960D01*
X2179587Y-7254960D02*
X2170063Y-7245436D01*
X2170063Y-7245436D02*
X2160539Y-7226388D01*
X2160539Y-7226388D02*
X2151015Y-7188293D01*
X2151015Y-7188293D02*
X2151015Y-7140674D01*
X2151015Y-7140674D02*
X2160539Y-7102579D01*
X2160539Y-7102579D02*
X2170063Y-7083531D01*
X2170063Y-7083531D02*
X2179587Y-7074008D01*
X2179587Y-7074008D02*
X2198634Y-7064484D01*
X2351015Y-7245436D02*
X2360539Y-7254960D01*
X2360539Y-7254960D02*
X2351015Y-7264484D01*
X2351015Y-7264484D02*
X2341491Y-7254960D01*
X2341491Y-7254960D02*
X2351015Y-7245436D01*
X2351015Y-7245436D02*
X2351015Y-7264484D01*
X2484348Y-7064484D02*
X2503396Y-7064484D01*
X2503396Y-7064484D02*
X2522444Y-7074008D01*
X2522444Y-7074008D02*
X2531968Y-7083531D01*
X2531968Y-7083531D02*
X2541491Y-7102579D01*
X2541491Y-7102579D02*
X2551015Y-7140674D01*
X2551015Y-7140674D02*
X2551015Y-7188293D01*
X2551015Y-7188293D02*
X2541491Y-7226388D01*
X2541491Y-7226388D02*
X2531968Y-7245436D01*
X2531968Y-7245436D02*
X2522444Y-7254960D01*
X2522444Y-7254960D02*
X2503396Y-7264484D01*
X2503396Y-7264484D02*
X2484348Y-7264484D01*
X2484348Y-7264484D02*
X2465301Y-7254960D01*
X2465301Y-7254960D02*
X2455777Y-7245436D01*
X2455777Y-7245436D02*
X2446253Y-7226388D01*
X2446253Y-7226388D02*
X2436729Y-7188293D01*
X2436729Y-7188293D02*
X2436729Y-7140674D01*
X2436729Y-7140674D02*
X2446253Y-7102579D01*
X2446253Y-7102579D02*
X2455777Y-7083531D01*
X2455777Y-7083531D02*
X2465301Y-7074008D01*
X2465301Y-7074008D02*
X2484348Y-7064484D01*
X2741491Y-7264484D02*
X2627206Y-7264484D01*
X2684348Y-7264484D02*
X2684348Y-7064484D01*
X2684348Y-7064484D02*
X2665301Y-7093055D01*
X2665301Y-7093055D02*
X2646253Y-7112103D01*
X2646253Y-7112103D02*
X2627206Y-7121627D01*
X2922444Y-7064484D02*
X2827206Y-7064484D01*
X2827206Y-7064484D02*
X2817682Y-7159722D01*
X2817682Y-7159722D02*
X2827206Y-7150198D01*
X2827206Y-7150198D02*
X2846253Y-7140674D01*
X2846253Y-7140674D02*
X2893872Y-7140674D01*
X2893872Y-7140674D02*
X2912920Y-7150198D01*
X2912920Y-7150198D02*
X2922444Y-7159722D01*
X2922444Y-7159722D02*
X2931967Y-7178769D01*
X2931967Y-7178769D02*
X2931967Y-7226388D01*
X2931967Y-7226388D02*
X2922444Y-7245436D01*
X2922444Y-7245436D02*
X2912920Y-7254960D01*
X2912920Y-7254960D02*
X2893872Y-7264484D01*
X2893872Y-7264484D02*
X2846253Y-7264484D01*
X2846253Y-7264484D02*
X2827206Y-7254960D01*
X2827206Y-7254960D02*
X2817682Y-7245436D01*
X2998634Y-7064484D02*
X3131967Y-7064484D01*
X3131967Y-7064484D02*
X3046253Y-7264484D01*
X3198634Y-7064484D02*
X3198634Y-7102579D01*
X3274825Y-7064484D02*
X3274825Y-7102579D01*
X3570063Y-7340674D02*
X3560539Y-7331150D01*
X3560539Y-7331150D02*
X3541491Y-7302579D01*
X3541491Y-7302579D02*
X3531968Y-7283531D01*
X3531968Y-7283531D02*
X3522444Y-7254960D01*
X3522444Y-7254960D02*
X3512920Y-7207341D01*
X3512920Y-7207341D02*
X3512920Y-7169246D01*
X3512920Y-7169246D02*
X3522444Y-7121627D01*
X3522444Y-7121627D02*
X3531968Y-7093055D01*
X3531968Y-7093055D02*
X3541491Y-7074008D01*
X3541491Y-7074008D02*
X3560539Y-7045436D01*
X3560539Y-7045436D02*
X3570063Y-7035912D01*
X3751015Y-7264484D02*
X3636729Y-7264484D01*
X3693872Y-7264484D02*
X3693872Y-7064484D01*
X3693872Y-7064484D02*
X3674825Y-7093055D01*
X3674825Y-7093055D02*
X3655777Y-7112103D01*
X3655777Y-7112103D02*
X3636729Y-7121627D01*
X3827206Y-7083531D02*
X3836729Y-7074008D01*
X3836729Y-7074008D02*
X3855777Y-7064484D01*
X3855777Y-7064484D02*
X3903396Y-7064484D01*
X3903396Y-7064484D02*
X3922444Y-7074008D01*
X3922444Y-7074008D02*
X3931968Y-7083531D01*
X3931968Y-7083531D02*
X3941491Y-7102579D01*
X3941491Y-7102579D02*
X3941491Y-7121627D01*
X3941491Y-7121627D02*
X3931968Y-7150198D01*
X3931968Y-7150198D02*
X3817682Y-7264484D01*
X3817682Y-7264484D02*
X3941491Y-7264484D01*
X4179587Y-7264484D02*
X4179587Y-7064484D01*
X4265301Y-7264484D02*
X4265301Y-7159722D01*
X4265301Y-7159722D02*
X4255777Y-7140674D01*
X4255777Y-7140674D02*
X4236730Y-7131150D01*
X4236730Y-7131150D02*
X4208158Y-7131150D01*
X4208158Y-7131150D02*
X4189110Y-7140674D01*
X4189110Y-7140674D02*
X4179587Y-7150198D01*
X4389111Y-7264484D02*
X4370063Y-7254960D01*
X4370063Y-7254960D02*
X4360539Y-7245436D01*
X4360539Y-7245436D02*
X4351015Y-7226388D01*
X4351015Y-7226388D02*
X4351015Y-7169246D01*
X4351015Y-7169246D02*
X4360539Y-7150198D01*
X4360539Y-7150198D02*
X4370063Y-7140674D01*
X4370063Y-7140674D02*
X4389111Y-7131150D01*
X4389111Y-7131150D02*
X4417682Y-7131150D01*
X4417682Y-7131150D02*
X4436730Y-7140674D01*
X4436730Y-7140674D02*
X4446253Y-7150198D01*
X4446253Y-7150198D02*
X4455777Y-7169246D01*
X4455777Y-7169246D02*
X4455777Y-7226388D01*
X4455777Y-7226388D02*
X4446253Y-7245436D01*
X4446253Y-7245436D02*
X4436730Y-7254960D01*
X4436730Y-7254960D02*
X4417682Y-7264484D01*
X4417682Y-7264484D02*
X4389111Y-7264484D01*
X4570063Y-7264484D02*
X4551015Y-7254960D01*
X4551015Y-7254960D02*
X4541492Y-7235912D01*
X4541492Y-7235912D02*
X4541492Y-7064484D01*
X4722444Y-7254960D02*
X4703396Y-7264484D01*
X4703396Y-7264484D02*
X4665301Y-7264484D01*
X4665301Y-7264484D02*
X4646253Y-7254960D01*
X4646253Y-7254960D02*
X4636730Y-7235912D01*
X4636730Y-7235912D02*
X4636730Y-7159722D01*
X4636730Y-7159722D02*
X4646253Y-7140674D01*
X4646253Y-7140674D02*
X4665301Y-7131150D01*
X4665301Y-7131150D02*
X4703396Y-7131150D01*
X4703396Y-7131150D02*
X4722444Y-7140674D01*
X4722444Y-7140674D02*
X4731968Y-7159722D01*
X4731968Y-7159722D02*
X4731968Y-7178769D01*
X4731968Y-7178769D02*
X4636730Y-7197817D01*
X4808158Y-7254960D02*
X4827206Y-7264484D01*
X4827206Y-7264484D02*
X4865301Y-7264484D01*
X4865301Y-7264484D02*
X4884349Y-7254960D01*
X4884349Y-7254960D02*
X4893873Y-7235912D01*
X4893873Y-7235912D02*
X4893873Y-7226388D01*
X4893873Y-7226388D02*
X4884349Y-7207341D01*
X4884349Y-7207341D02*
X4865301Y-7197817D01*
X4865301Y-7197817D02*
X4836730Y-7197817D01*
X4836730Y-7197817D02*
X4817682Y-7188293D01*
X4817682Y-7188293D02*
X4808158Y-7169246D01*
X4808158Y-7169246D02*
X4808158Y-7159722D01*
X4808158Y-7159722D02*
X4817682Y-7140674D01*
X4817682Y-7140674D02*
X4836730Y-7131150D01*
X4836730Y-7131150D02*
X4865301Y-7131150D01*
X4865301Y-7131150D02*
X4884349Y-7140674D01*
X4960539Y-7340674D02*
X4970063Y-7331150D01*
X4970063Y-7331150D02*
X4989111Y-7302579D01*
X4989111Y-7302579D02*
X4998634Y-7283531D01*
X4998634Y-7283531D02*
X5008158Y-7254960D01*
X5008158Y-7254960D02*
X5017682Y-7207341D01*
X5017682Y-7207341D02*
X5017682Y-7169246D01*
X5017682Y-7169246D02*
X5008158Y-7121627D01*
X5008158Y-7121627D02*
X4998634Y-7093055D01*
X4998634Y-7093055D02*
X4989111Y-7074008D01*
X4989111Y-7074008D02*
X4970063Y-7045436D01*
X4970063Y-7045436D02*
X4960539Y-7035912D01*
D10*
X-12322Y-7454678D02*
X-12322Y-7419322D01*
X-47678Y-7419322D01*
X-47678Y-7454678D01*
X-12322Y-7454678D01*
D11*
X293872Y-7328484D02*
X312920Y-7328484D01*
X312920Y-7328484D02*
X331967Y-7338008D01*
X331967Y-7338008D02*
X341491Y-7347531D01*
X341491Y-7347531D02*
X351015Y-7366579D01*
X351015Y-7366579D02*
X360539Y-7404674D01*
X360539Y-7404674D02*
X360539Y-7452293D01*
X360539Y-7452293D02*
X351015Y-7490388D01*
X351015Y-7490388D02*
X341491Y-7509436D01*
X341491Y-7509436D02*
X331967Y-7518960D01*
X331967Y-7518960D02*
X312920Y-7528484D01*
X312920Y-7528484D02*
X293872Y-7528484D01*
X293872Y-7528484D02*
X274824Y-7518960D01*
X274824Y-7518960D02*
X265301Y-7509436D01*
X265301Y-7509436D02*
X255777Y-7490388D01*
X255777Y-7490388D02*
X246253Y-7452293D01*
X246253Y-7452293D02*
X246253Y-7404674D01*
X246253Y-7404674D02*
X255777Y-7366579D01*
X255777Y-7366579D02*
X265301Y-7347531D01*
X265301Y-7347531D02*
X274824Y-7338008D01*
X274824Y-7338008D02*
X293872Y-7328484D01*
X446253Y-7509436D02*
X455777Y-7518960D01*
X455777Y-7518960D02*
X446253Y-7528484D01*
X446253Y-7528484D02*
X436729Y-7518960D01*
X436729Y-7518960D02*
X446253Y-7509436D01*
X446253Y-7509436D02*
X446253Y-7528484D01*
X636729Y-7328484D02*
X541491Y-7328484D01*
X541491Y-7328484D02*
X531967Y-7423722D01*
X531967Y-7423722D02*
X541491Y-7414198D01*
X541491Y-7414198D02*
X560539Y-7404674D01*
X560539Y-7404674D02*
X608158Y-7404674D01*
X608158Y-7404674D02*
X627205Y-7414198D01*
X627205Y-7414198D02*
X636729Y-7423722D01*
X636729Y-7423722D02*
X646253Y-7442769D01*
X646253Y-7442769D02*
X646253Y-7490388D01*
X646253Y-7490388D02*
X636729Y-7509436D01*
X636729Y-7509436D02*
X627205Y-7518960D01*
X627205Y-7518960D02*
X608158Y-7528484D01*
X608158Y-7528484D02*
X560539Y-7528484D01*
X560539Y-7528484D02*
X541491Y-7518960D01*
X541491Y-7518960D02*
X531967Y-7509436D01*
X770062Y-7328484D02*
X789110Y-7328484D01*
X789110Y-7328484D02*
X808158Y-7338008D01*
X808158Y-7338008D02*
X817682Y-7347531D01*
X817682Y-7347531D02*
X827205Y-7366579D01*
X827205Y-7366579D02*
X836729Y-7404674D01*
X836729Y-7404674D02*
X836729Y-7452293D01*
X836729Y-7452293D02*
X827205Y-7490388D01*
X827205Y-7490388D02*
X817682Y-7509436D01*
X817682Y-7509436D02*
X808158Y-7518960D01*
X808158Y-7518960D02*
X789110Y-7528484D01*
X789110Y-7528484D02*
X770062Y-7528484D01*
X770062Y-7528484D02*
X751015Y-7518960D01*
X751015Y-7518960D02*
X741491Y-7509436D01*
X741491Y-7509436D02*
X731967Y-7490388D01*
X731967Y-7490388D02*
X722443Y-7452293D01*
X722443Y-7452293D02*
X722443Y-7404674D01*
X722443Y-7404674D02*
X731967Y-7366579D01*
X731967Y-7366579D02*
X741491Y-7347531D01*
X741491Y-7347531D02*
X751015Y-7338008D01*
X751015Y-7338008D02*
X770062Y-7328484D01*
X960539Y-7328484D02*
X979586Y-7328484D01*
X979586Y-7328484D02*
X998634Y-7338008D01*
X998634Y-7338008D02*
X1008158Y-7347531D01*
X1008158Y-7347531D02*
X1017682Y-7366579D01*
X1017682Y-7366579D02*
X1027205Y-7404674D01*
X1027205Y-7404674D02*
X1027205Y-7452293D01*
X1027205Y-7452293D02*
X1017682Y-7490388D01*
X1017682Y-7490388D02*
X1008158Y-7509436D01*
X1008158Y-7509436D02*
X998634Y-7518960D01*
X998634Y-7518960D02*
X979586Y-7528484D01*
X979586Y-7528484D02*
X960539Y-7528484D01*
X960539Y-7528484D02*
X941491Y-7518960D01*
X941491Y-7518960D02*
X931967Y-7509436D01*
X931967Y-7509436D02*
X922443Y-7490388D01*
X922443Y-7490388D02*
X912920Y-7452293D01*
X912920Y-7452293D02*
X912920Y-7404674D01*
X912920Y-7404674D02*
X922443Y-7366579D01*
X922443Y-7366579D02*
X931967Y-7347531D01*
X931967Y-7347531D02*
X941491Y-7338008D01*
X941491Y-7338008D02*
X960539Y-7328484D01*
X1112920Y-7528484D02*
X1112920Y-7395150D01*
X1112920Y-7414198D02*
X1122444Y-7404674D01*
X1122444Y-7404674D02*
X1141491Y-7395150D01*
X1141491Y-7395150D02*
X1170063Y-7395150D01*
X1170063Y-7395150D02*
X1189110Y-7404674D01*
X1189110Y-7404674D02*
X1198634Y-7423722D01*
X1198634Y-7423722D02*
X1198634Y-7528484D01*
X1198634Y-7423722D02*
X1208158Y-7404674D01*
X1208158Y-7404674D02*
X1227205Y-7395150D01*
X1227205Y-7395150D02*
X1255777Y-7395150D01*
X1255777Y-7395150D02*
X1274825Y-7404674D01*
X1274825Y-7404674D02*
X1284348Y-7423722D01*
X1284348Y-7423722D02*
X1284348Y-7528484D01*
X1379586Y-7528484D02*
X1379586Y-7395150D01*
X1379586Y-7414198D02*
X1389110Y-7404674D01*
X1389110Y-7404674D02*
X1408158Y-7395150D01*
X1408158Y-7395150D02*
X1436729Y-7395150D01*
X1436729Y-7395150D02*
X1455777Y-7404674D01*
X1455777Y-7404674D02*
X1465301Y-7423722D01*
X1465301Y-7423722D02*
X1465301Y-7528484D01*
X1465301Y-7423722D02*
X1474824Y-7404674D01*
X1474824Y-7404674D02*
X1493872Y-7395150D01*
X1493872Y-7395150D02*
X1522443Y-7395150D01*
X1522443Y-7395150D02*
X1541491Y-7404674D01*
X1541491Y-7404674D02*
X1551015Y-7423722D01*
X1551015Y-7423722D02*
X1551015Y-7528484D01*
X1941491Y-7318960D02*
X1770063Y-7576103D01*
X2198634Y-7328484D02*
X2217682Y-7328484D01*
X2217682Y-7328484D02*
X2236729Y-7338008D01*
X2236729Y-7338008D02*
X2246253Y-7347531D01*
X2246253Y-7347531D02*
X2255777Y-7366579D01*
X2255777Y-7366579D02*
X2265301Y-7404674D01*
X2265301Y-7404674D02*
X2265301Y-7452293D01*
X2265301Y-7452293D02*
X2255777Y-7490388D01*
X2255777Y-7490388D02*
X2246253Y-7509436D01*
X2246253Y-7509436D02*
X2236729Y-7518960D01*
X2236729Y-7518960D02*
X2217682Y-7528484D01*
X2217682Y-7528484D02*
X2198634Y-7528484D01*
X2198634Y-7528484D02*
X2179587Y-7518960D01*
X2179587Y-7518960D02*
X2170063Y-7509436D01*
X2170063Y-7509436D02*
X2160539Y-7490388D01*
X2160539Y-7490388D02*
X2151015Y-7452293D01*
X2151015Y-7452293D02*
X2151015Y-7404674D01*
X2151015Y-7404674D02*
X2160539Y-7366579D01*
X2160539Y-7366579D02*
X2170063Y-7347531D01*
X2170063Y-7347531D02*
X2179587Y-7338008D01*
X2179587Y-7338008D02*
X2198634Y-7328484D01*
X2351015Y-7509436D02*
X2360539Y-7518960D01*
X2360539Y-7518960D02*
X2351015Y-7528484D01*
X2351015Y-7528484D02*
X2341491Y-7518960D01*
X2341491Y-7518960D02*
X2351015Y-7509436D01*
X2351015Y-7509436D02*
X2351015Y-7528484D01*
X2484348Y-7328484D02*
X2503396Y-7328484D01*
X2503396Y-7328484D02*
X2522444Y-7338008D01*
X2522444Y-7338008D02*
X2531968Y-7347531D01*
X2531968Y-7347531D02*
X2541491Y-7366579D01*
X2541491Y-7366579D02*
X2551015Y-7404674D01*
X2551015Y-7404674D02*
X2551015Y-7452293D01*
X2551015Y-7452293D02*
X2541491Y-7490388D01*
X2541491Y-7490388D02*
X2531968Y-7509436D01*
X2531968Y-7509436D02*
X2522444Y-7518960D01*
X2522444Y-7518960D02*
X2503396Y-7528484D01*
X2503396Y-7528484D02*
X2484348Y-7528484D01*
X2484348Y-7528484D02*
X2465301Y-7518960D01*
X2465301Y-7518960D02*
X2455777Y-7509436D01*
X2455777Y-7509436D02*
X2446253Y-7490388D01*
X2446253Y-7490388D02*
X2436729Y-7452293D01*
X2436729Y-7452293D02*
X2436729Y-7404674D01*
X2436729Y-7404674D02*
X2446253Y-7366579D01*
X2446253Y-7366579D02*
X2455777Y-7347531D01*
X2455777Y-7347531D02*
X2465301Y-7338008D01*
X2465301Y-7338008D02*
X2484348Y-7328484D01*
X2741491Y-7528484D02*
X2627206Y-7528484D01*
X2684348Y-7528484D02*
X2684348Y-7328484D01*
X2684348Y-7328484D02*
X2665301Y-7357055D01*
X2665301Y-7357055D02*
X2646253Y-7376103D01*
X2646253Y-7376103D02*
X2627206Y-7385627D01*
X2836729Y-7528484D02*
X2874825Y-7528484D01*
X2874825Y-7528484D02*
X2893872Y-7518960D01*
X2893872Y-7518960D02*
X2903396Y-7509436D01*
X2903396Y-7509436D02*
X2922444Y-7480865D01*
X2922444Y-7480865D02*
X2931967Y-7442769D01*
X2931967Y-7442769D02*
X2931967Y-7366579D01*
X2931967Y-7366579D02*
X2922444Y-7347531D01*
X2922444Y-7347531D02*
X2912920Y-7338008D01*
X2912920Y-7338008D02*
X2893872Y-7328484D01*
X2893872Y-7328484D02*
X2855777Y-7328484D01*
X2855777Y-7328484D02*
X2836729Y-7338008D01*
X2836729Y-7338008D02*
X2827206Y-7347531D01*
X2827206Y-7347531D02*
X2817682Y-7366579D01*
X2817682Y-7366579D02*
X2817682Y-7414198D01*
X2817682Y-7414198D02*
X2827206Y-7433246D01*
X2827206Y-7433246D02*
X2836729Y-7442769D01*
X2836729Y-7442769D02*
X2855777Y-7452293D01*
X2855777Y-7452293D02*
X2893872Y-7452293D01*
X2893872Y-7452293D02*
X2912920Y-7442769D01*
X2912920Y-7442769D02*
X2922444Y-7433246D01*
X2922444Y-7433246D02*
X2931967Y-7414198D01*
X2998634Y-7328484D02*
X3131967Y-7328484D01*
X3131967Y-7328484D02*
X3046253Y-7528484D01*
X3198634Y-7328484D02*
X3198634Y-7366579D01*
X3274825Y-7328484D02*
X3274825Y-7366579D01*
X3570063Y-7604674D02*
X3560539Y-7595150D01*
X3560539Y-7595150D02*
X3541491Y-7566579D01*
X3541491Y-7566579D02*
X3531968Y-7547531D01*
X3531968Y-7547531D02*
X3522444Y-7518960D01*
X3522444Y-7518960D02*
X3512920Y-7471341D01*
X3512920Y-7471341D02*
X3512920Y-7433246D01*
X3512920Y-7433246D02*
X3522444Y-7385627D01*
X3522444Y-7385627D02*
X3531968Y-7357055D01*
X3531968Y-7357055D02*
X3541491Y-7338008D01*
X3541491Y-7338008D02*
X3560539Y-7309436D01*
X3560539Y-7309436D02*
X3570063Y-7299912D01*
X3684348Y-7328484D02*
X3703396Y-7328484D01*
X3703396Y-7328484D02*
X3722444Y-7338008D01*
X3722444Y-7338008D02*
X3731968Y-7347531D01*
X3731968Y-7347531D02*
X3741491Y-7366579D01*
X3741491Y-7366579D02*
X3751015Y-7404674D01*
X3751015Y-7404674D02*
X3751015Y-7452293D01*
X3751015Y-7452293D02*
X3741491Y-7490388D01*
X3741491Y-7490388D02*
X3731968Y-7509436D01*
X3731968Y-7509436D02*
X3722444Y-7518960D01*
X3722444Y-7518960D02*
X3703396Y-7528484D01*
X3703396Y-7528484D02*
X3684348Y-7528484D01*
X3684348Y-7528484D02*
X3665301Y-7518960D01*
X3665301Y-7518960D02*
X3655777Y-7509436D01*
X3655777Y-7509436D02*
X3646253Y-7490388D01*
X3646253Y-7490388D02*
X3636729Y-7452293D01*
X3636729Y-7452293D02*
X3636729Y-7404674D01*
X3636729Y-7404674D02*
X3646253Y-7366579D01*
X3646253Y-7366579D02*
X3655777Y-7347531D01*
X3655777Y-7347531D02*
X3665301Y-7338008D01*
X3665301Y-7338008D02*
X3684348Y-7328484D01*
X3989110Y-7528484D02*
X3989110Y-7328484D01*
X4074825Y-7528484D02*
X4074825Y-7423722D01*
X4074825Y-7423722D02*
X4065301Y-7404674D01*
X4065301Y-7404674D02*
X4046253Y-7395150D01*
X4046253Y-7395150D02*
X4017682Y-7395150D01*
X4017682Y-7395150D02*
X3998634Y-7404674D01*
X3998634Y-7404674D02*
X3989110Y-7414198D01*
X4198634Y-7528484D02*
X4179587Y-7518960D01*
X4179587Y-7518960D02*
X4170063Y-7509436D01*
X4170063Y-7509436D02*
X4160539Y-7490388D01*
X4160539Y-7490388D02*
X4160539Y-7433246D01*
X4160539Y-7433246D02*
X4170063Y-7414198D01*
X4170063Y-7414198D02*
X4179587Y-7404674D01*
X4179587Y-7404674D02*
X4198634Y-7395150D01*
X4198634Y-7395150D02*
X4227206Y-7395150D01*
X4227206Y-7395150D02*
X4246253Y-7404674D01*
X4246253Y-7404674D02*
X4255777Y-7414198D01*
X4255777Y-7414198D02*
X4265301Y-7433246D01*
X4265301Y-7433246D02*
X4265301Y-7490388D01*
X4265301Y-7490388D02*
X4255777Y-7509436D01*
X4255777Y-7509436D02*
X4246253Y-7518960D01*
X4246253Y-7518960D02*
X4227206Y-7528484D01*
X4227206Y-7528484D02*
X4198634Y-7528484D01*
X4379587Y-7528484D02*
X4360539Y-7518960D01*
X4360539Y-7518960D02*
X4351015Y-7499912D01*
X4351015Y-7499912D02*
X4351015Y-7328484D01*
X4531968Y-7518960D02*
X4512920Y-7528484D01*
X4512920Y-7528484D02*
X4474825Y-7528484D01*
X4474825Y-7528484D02*
X4455777Y-7518960D01*
X4455777Y-7518960D02*
X4446253Y-7499912D01*
X4446253Y-7499912D02*
X4446253Y-7423722D01*
X4446253Y-7423722D02*
X4455777Y-7404674D01*
X4455777Y-7404674D02*
X4474825Y-7395150D01*
X4474825Y-7395150D02*
X4512920Y-7395150D01*
X4512920Y-7395150D02*
X4531968Y-7404674D01*
X4531968Y-7404674D02*
X4541492Y-7423722D01*
X4541492Y-7423722D02*
X4541492Y-7442769D01*
X4541492Y-7442769D02*
X4446253Y-7461817D01*
X4617682Y-7518960D02*
X4636730Y-7528484D01*
X4636730Y-7528484D02*
X4674825Y-7528484D01*
X4674825Y-7528484D02*
X4693873Y-7518960D01*
X4693873Y-7518960D02*
X4703396Y-7499912D01*
X4703396Y-7499912D02*
X4703396Y-7490388D01*
X4703396Y-7490388D02*
X4693873Y-7471341D01*
X4693873Y-7471341D02*
X4674825Y-7461817D01*
X4674825Y-7461817D02*
X4646253Y-7461817D01*
X4646253Y-7461817D02*
X4627206Y-7452293D01*
X4627206Y-7452293D02*
X4617682Y-7433246D01*
X4617682Y-7433246D02*
X4617682Y-7423722D01*
X4617682Y-7423722D02*
X4627206Y-7404674D01*
X4627206Y-7404674D02*
X4646253Y-7395150D01*
X4646253Y-7395150D02*
X4674825Y-7395150D01*
X4674825Y-7395150D02*
X4693873Y-7404674D01*
X4941492Y-7452293D02*
X5093873Y-7452293D01*
X5017682Y-7528484D02*
X5017682Y-7376103D01*
X5427206Y-7395150D02*
X5427206Y-7528484D01*
X5379587Y-7318960D02*
X5331968Y-7461817D01*
X5331968Y-7461817D02*
X5455777Y-7461817D01*
X5674825Y-7518960D02*
X5693873Y-7528484D01*
X5693873Y-7528484D02*
X5731968Y-7528484D01*
X5731968Y-7528484D02*
X5751015Y-7518960D01*
X5751015Y-7518960D02*
X5760539Y-7499912D01*
X5760539Y-7499912D02*
X5760539Y-7490388D01*
X5760539Y-7490388D02*
X5751015Y-7471341D01*
X5751015Y-7471341D02*
X5731968Y-7461817D01*
X5731968Y-7461817D02*
X5703396Y-7461817D01*
X5703396Y-7461817D02*
X5684349Y-7452293D01*
X5684349Y-7452293D02*
X5674825Y-7433246D01*
X5674825Y-7433246D02*
X5674825Y-7423722D01*
X5674825Y-7423722D02*
X5684349Y-7404674D01*
X5684349Y-7404674D02*
X5703396Y-7395150D01*
X5703396Y-7395150D02*
X5731968Y-7395150D01*
X5731968Y-7395150D02*
X5751015Y-7404674D01*
X5874825Y-7528484D02*
X5855777Y-7518960D01*
X5855777Y-7518960D02*
X5846254Y-7499912D01*
X5846254Y-7499912D02*
X5846254Y-7328484D01*
X5979587Y-7528484D02*
X5960539Y-7518960D01*
X5960539Y-7518960D02*
X5951015Y-7509436D01*
X5951015Y-7509436D02*
X5941492Y-7490388D01*
X5941492Y-7490388D02*
X5941492Y-7433246D01*
X5941492Y-7433246D02*
X5951015Y-7414198D01*
X5951015Y-7414198D02*
X5960539Y-7404674D01*
X5960539Y-7404674D02*
X5979587Y-7395150D01*
X5979587Y-7395150D02*
X6008158Y-7395150D01*
X6008158Y-7395150D02*
X6027206Y-7404674D01*
X6027206Y-7404674D02*
X6036730Y-7414198D01*
X6036730Y-7414198D02*
X6046254Y-7433246D01*
X6046254Y-7433246D02*
X6046254Y-7490388D01*
X6046254Y-7490388D02*
X6036730Y-7509436D01*
X6036730Y-7509436D02*
X6027206Y-7518960D01*
X6027206Y-7518960D02*
X6008158Y-7528484D01*
X6008158Y-7528484D02*
X5979587Y-7528484D01*
X6103396Y-7395150D02*
X6179587Y-7395150D01*
X6131968Y-7328484D02*
X6131968Y-7499912D01*
X6131968Y-7499912D02*
X6141492Y-7518960D01*
X6141492Y-7518960D02*
X6160539Y-7528484D01*
X6160539Y-7528484D02*
X6179587Y-7528484D01*
X6236730Y-7518960D02*
X6255777Y-7528484D01*
X6255777Y-7528484D02*
X6293873Y-7528484D01*
X6293873Y-7528484D02*
X6312920Y-7518960D01*
X6312920Y-7518960D02*
X6322444Y-7499912D01*
X6322444Y-7499912D02*
X6322444Y-7490388D01*
X6322444Y-7490388D02*
X6312920Y-7471341D01*
X6312920Y-7471341D02*
X6293873Y-7461817D01*
X6293873Y-7461817D02*
X6265301Y-7461817D01*
X6265301Y-7461817D02*
X6246254Y-7452293D01*
X6246254Y-7452293D02*
X6236730Y-7433246D01*
X6236730Y-7433246D02*
X6236730Y-7423722D01*
X6236730Y-7423722D02*
X6246254Y-7404674D01*
X6246254Y-7404674D02*
X6265301Y-7395150D01*
X6265301Y-7395150D02*
X6293873Y-7395150D01*
X6293873Y-7395150D02*
X6312920Y-7404674D01*
X6389111Y-7604674D02*
X6398635Y-7595150D01*
X6398635Y-7595150D02*
X6417682Y-7566579D01*
X6417682Y-7566579D02*
X6427206Y-7547531D01*
X6427206Y-7547531D02*
X6436730Y-7518960D01*
X6436730Y-7518960D02*
X6446254Y-7471341D01*
X6446254Y-7471341D02*
X6446254Y-7433246D01*
X6446254Y-7433246D02*
X6436730Y-7385627D01*
X6436730Y-7385627D02*
X6427206Y-7357055D01*
X6427206Y-7357055D02*
X6417682Y-7338008D01*
X6417682Y-7338008D02*
X6398635Y-7309436D01*
X6398635Y-7309436D02*
X6389111Y-7299912D01*
D10*
X-55000Y-7751000D02*
X-5000Y-7701000D01*
X-55000Y-7651000D01*
X-105000Y-7701000D01*
X-55000Y-7751000D01*
D11*
X360539Y-7792484D02*
X246253Y-7792484D01*
X303396Y-7792484D02*
X303396Y-7592484D01*
X303396Y-7592484D02*
X284348Y-7621055D01*
X284348Y-7621055D02*
X265301Y-7640103D01*
X265301Y-7640103D02*
X246253Y-7649627D01*
X446253Y-7773436D02*
X455777Y-7782960D01*
X455777Y-7782960D02*
X446253Y-7792484D01*
X446253Y-7792484D02*
X436729Y-7782960D01*
X436729Y-7782960D02*
X446253Y-7773436D01*
X446253Y-7773436D02*
X446253Y-7792484D01*
X579586Y-7592484D02*
X598634Y-7592484D01*
X598634Y-7592484D02*
X617682Y-7602008D01*
X617682Y-7602008D02*
X627205Y-7611531D01*
X627205Y-7611531D02*
X636729Y-7630579D01*
X636729Y-7630579D02*
X646253Y-7668674D01*
X646253Y-7668674D02*
X646253Y-7716293D01*
X646253Y-7716293D02*
X636729Y-7754388D01*
X636729Y-7754388D02*
X627205Y-7773436D01*
X627205Y-7773436D02*
X617682Y-7782960D01*
X617682Y-7782960D02*
X598634Y-7792484D01*
X598634Y-7792484D02*
X579586Y-7792484D01*
X579586Y-7792484D02*
X560539Y-7782960D01*
X560539Y-7782960D02*
X551015Y-7773436D01*
X551015Y-7773436D02*
X541491Y-7754388D01*
X541491Y-7754388D02*
X531967Y-7716293D01*
X531967Y-7716293D02*
X531967Y-7668674D01*
X531967Y-7668674D02*
X541491Y-7630579D01*
X541491Y-7630579D02*
X551015Y-7611531D01*
X551015Y-7611531D02*
X560539Y-7602008D01*
X560539Y-7602008D02*
X579586Y-7592484D01*
X770062Y-7592484D02*
X789110Y-7592484D01*
X789110Y-7592484D02*
X808158Y-7602008D01*
X808158Y-7602008D02*
X817682Y-7611531D01*
X817682Y-7611531D02*
X827205Y-7630579D01*
X827205Y-7630579D02*
X836729Y-7668674D01*
X836729Y-7668674D02*
X836729Y-7716293D01*
X836729Y-7716293D02*
X827205Y-7754388D01*
X827205Y-7754388D02*
X817682Y-7773436D01*
X817682Y-7773436D02*
X808158Y-7782960D01*
X808158Y-7782960D02*
X789110Y-7792484D01*
X789110Y-7792484D02*
X770062Y-7792484D01*
X770062Y-7792484D02*
X751015Y-7782960D01*
X751015Y-7782960D02*
X741491Y-7773436D01*
X741491Y-7773436D02*
X731967Y-7754388D01*
X731967Y-7754388D02*
X722443Y-7716293D01*
X722443Y-7716293D02*
X722443Y-7668674D01*
X722443Y-7668674D02*
X731967Y-7630579D01*
X731967Y-7630579D02*
X741491Y-7611531D01*
X741491Y-7611531D02*
X751015Y-7602008D01*
X751015Y-7602008D02*
X770062Y-7592484D01*
X960539Y-7592484D02*
X979586Y-7592484D01*
X979586Y-7592484D02*
X998634Y-7602008D01*
X998634Y-7602008D02*
X1008158Y-7611531D01*
X1008158Y-7611531D02*
X1017682Y-7630579D01*
X1017682Y-7630579D02*
X1027205Y-7668674D01*
X1027205Y-7668674D02*
X1027205Y-7716293D01*
X1027205Y-7716293D02*
X1017682Y-7754388D01*
X1017682Y-7754388D02*
X1008158Y-7773436D01*
X1008158Y-7773436D02*
X998634Y-7782960D01*
X998634Y-7782960D02*
X979586Y-7792484D01*
X979586Y-7792484D02*
X960539Y-7792484D01*
X960539Y-7792484D02*
X941491Y-7782960D01*
X941491Y-7782960D02*
X931967Y-7773436D01*
X931967Y-7773436D02*
X922443Y-7754388D01*
X922443Y-7754388D02*
X912920Y-7716293D01*
X912920Y-7716293D02*
X912920Y-7668674D01*
X912920Y-7668674D02*
X922443Y-7630579D01*
X922443Y-7630579D02*
X931967Y-7611531D01*
X931967Y-7611531D02*
X941491Y-7602008D01*
X941491Y-7602008D02*
X960539Y-7592484D01*
X1112920Y-7792484D02*
X1112920Y-7659150D01*
X1112920Y-7678198D02*
X1122444Y-7668674D01*
X1122444Y-7668674D02*
X1141491Y-7659150D01*
X1141491Y-7659150D02*
X1170063Y-7659150D01*
X1170063Y-7659150D02*
X1189110Y-7668674D01*
X1189110Y-7668674D02*
X1198634Y-7687722D01*
X1198634Y-7687722D02*
X1198634Y-7792484D01*
X1198634Y-7687722D02*
X1208158Y-7668674D01*
X1208158Y-7668674D02*
X1227205Y-7659150D01*
X1227205Y-7659150D02*
X1255777Y-7659150D01*
X1255777Y-7659150D02*
X1274825Y-7668674D01*
X1274825Y-7668674D02*
X1284348Y-7687722D01*
X1284348Y-7687722D02*
X1284348Y-7792484D01*
X1379586Y-7792484D02*
X1379586Y-7659150D01*
X1379586Y-7678198D02*
X1389110Y-7668674D01*
X1389110Y-7668674D02*
X1408158Y-7659150D01*
X1408158Y-7659150D02*
X1436729Y-7659150D01*
X1436729Y-7659150D02*
X1455777Y-7668674D01*
X1455777Y-7668674D02*
X1465301Y-7687722D01*
X1465301Y-7687722D02*
X1465301Y-7792484D01*
X1465301Y-7687722D02*
X1474824Y-7668674D01*
X1474824Y-7668674D02*
X1493872Y-7659150D01*
X1493872Y-7659150D02*
X1522443Y-7659150D01*
X1522443Y-7659150D02*
X1541491Y-7668674D01*
X1541491Y-7668674D02*
X1551015Y-7687722D01*
X1551015Y-7687722D02*
X1551015Y-7792484D01*
X1941491Y-7582960D02*
X1770063Y-7840103D01*
X2198634Y-7592484D02*
X2217682Y-7592484D01*
X2217682Y-7592484D02*
X2236729Y-7602008D01*
X2236729Y-7602008D02*
X2246253Y-7611531D01*
X2246253Y-7611531D02*
X2255777Y-7630579D01*
X2255777Y-7630579D02*
X2265301Y-7668674D01*
X2265301Y-7668674D02*
X2265301Y-7716293D01*
X2265301Y-7716293D02*
X2255777Y-7754388D01*
X2255777Y-7754388D02*
X2246253Y-7773436D01*
X2246253Y-7773436D02*
X2236729Y-7782960D01*
X2236729Y-7782960D02*
X2217682Y-7792484D01*
X2217682Y-7792484D02*
X2198634Y-7792484D01*
X2198634Y-7792484D02*
X2179587Y-7782960D01*
X2179587Y-7782960D02*
X2170063Y-7773436D01*
X2170063Y-7773436D02*
X2160539Y-7754388D01*
X2160539Y-7754388D02*
X2151015Y-7716293D01*
X2151015Y-7716293D02*
X2151015Y-7668674D01*
X2151015Y-7668674D02*
X2160539Y-7630579D01*
X2160539Y-7630579D02*
X2170063Y-7611531D01*
X2170063Y-7611531D02*
X2179587Y-7602008D01*
X2179587Y-7602008D02*
X2198634Y-7592484D01*
X2351015Y-7773436D02*
X2360539Y-7782960D01*
X2360539Y-7782960D02*
X2351015Y-7792484D01*
X2351015Y-7792484D02*
X2341491Y-7782960D01*
X2341491Y-7782960D02*
X2351015Y-7773436D01*
X2351015Y-7773436D02*
X2351015Y-7792484D01*
X2484348Y-7592484D02*
X2503396Y-7592484D01*
X2503396Y-7592484D02*
X2522444Y-7602008D01*
X2522444Y-7602008D02*
X2531968Y-7611531D01*
X2531968Y-7611531D02*
X2541491Y-7630579D01*
X2541491Y-7630579D02*
X2551015Y-7668674D01*
X2551015Y-7668674D02*
X2551015Y-7716293D01*
X2551015Y-7716293D02*
X2541491Y-7754388D01*
X2541491Y-7754388D02*
X2531968Y-7773436D01*
X2531968Y-7773436D02*
X2522444Y-7782960D01*
X2522444Y-7782960D02*
X2503396Y-7792484D01*
X2503396Y-7792484D02*
X2484348Y-7792484D01*
X2484348Y-7792484D02*
X2465301Y-7782960D01*
X2465301Y-7782960D02*
X2455777Y-7773436D01*
X2455777Y-7773436D02*
X2446253Y-7754388D01*
X2446253Y-7754388D02*
X2436729Y-7716293D01*
X2436729Y-7716293D02*
X2436729Y-7668674D01*
X2436729Y-7668674D02*
X2446253Y-7630579D01*
X2446253Y-7630579D02*
X2455777Y-7611531D01*
X2455777Y-7611531D02*
X2465301Y-7602008D01*
X2465301Y-7602008D02*
X2484348Y-7592484D01*
X2617682Y-7592484D02*
X2741491Y-7592484D01*
X2741491Y-7592484D02*
X2674825Y-7668674D01*
X2674825Y-7668674D02*
X2703396Y-7668674D01*
X2703396Y-7668674D02*
X2722444Y-7678198D01*
X2722444Y-7678198D02*
X2731968Y-7687722D01*
X2731968Y-7687722D02*
X2741491Y-7706769D01*
X2741491Y-7706769D02*
X2741491Y-7754388D01*
X2741491Y-7754388D02*
X2731968Y-7773436D01*
X2731968Y-7773436D02*
X2722444Y-7782960D01*
X2722444Y-7782960D02*
X2703396Y-7792484D01*
X2703396Y-7792484D02*
X2646253Y-7792484D01*
X2646253Y-7792484D02*
X2627206Y-7782960D01*
X2627206Y-7782960D02*
X2617682Y-7773436D01*
X2836729Y-7792484D02*
X2874825Y-7792484D01*
X2874825Y-7792484D02*
X2893872Y-7782960D01*
X2893872Y-7782960D02*
X2903396Y-7773436D01*
X2903396Y-7773436D02*
X2922444Y-7744865D01*
X2922444Y-7744865D02*
X2931967Y-7706769D01*
X2931967Y-7706769D02*
X2931967Y-7630579D01*
X2931967Y-7630579D02*
X2922444Y-7611531D01*
X2922444Y-7611531D02*
X2912920Y-7602008D01*
X2912920Y-7602008D02*
X2893872Y-7592484D01*
X2893872Y-7592484D02*
X2855777Y-7592484D01*
X2855777Y-7592484D02*
X2836729Y-7602008D01*
X2836729Y-7602008D02*
X2827206Y-7611531D01*
X2827206Y-7611531D02*
X2817682Y-7630579D01*
X2817682Y-7630579D02*
X2817682Y-7678198D01*
X2817682Y-7678198D02*
X2827206Y-7697246D01*
X2827206Y-7697246D02*
X2836729Y-7706769D01*
X2836729Y-7706769D02*
X2855777Y-7716293D01*
X2855777Y-7716293D02*
X2893872Y-7716293D01*
X2893872Y-7716293D02*
X2912920Y-7706769D01*
X2912920Y-7706769D02*
X2922444Y-7697246D01*
X2922444Y-7697246D02*
X2931967Y-7678198D01*
X3103396Y-7659150D02*
X3103396Y-7792484D01*
X3055777Y-7582960D02*
X3008158Y-7725817D01*
X3008158Y-7725817D02*
X3131967Y-7725817D01*
X3198634Y-7592484D02*
X3198634Y-7630579D01*
X3274825Y-7592484D02*
X3274825Y-7630579D01*
X3570063Y-7868674D02*
X3560539Y-7859150D01*
X3560539Y-7859150D02*
X3541491Y-7830579D01*
X3541491Y-7830579D02*
X3531968Y-7811531D01*
X3531968Y-7811531D02*
X3522444Y-7782960D01*
X3522444Y-7782960D02*
X3512920Y-7735341D01*
X3512920Y-7735341D02*
X3512920Y-7697246D01*
X3512920Y-7697246D02*
X3522444Y-7649627D01*
X3522444Y-7649627D02*
X3531968Y-7621055D01*
X3531968Y-7621055D02*
X3541491Y-7602008D01*
X3541491Y-7602008D02*
X3560539Y-7573436D01*
X3560539Y-7573436D02*
X3570063Y-7563912D01*
X3627206Y-7592484D02*
X3751015Y-7592484D01*
X3751015Y-7592484D02*
X3684348Y-7668674D01*
X3684348Y-7668674D02*
X3712920Y-7668674D01*
X3712920Y-7668674D02*
X3731968Y-7678198D01*
X3731968Y-7678198D02*
X3741491Y-7687722D01*
X3741491Y-7687722D02*
X3751015Y-7706769D01*
X3751015Y-7706769D02*
X3751015Y-7754388D01*
X3751015Y-7754388D02*
X3741491Y-7773436D01*
X3741491Y-7773436D02*
X3731968Y-7782960D01*
X3731968Y-7782960D02*
X3712920Y-7792484D01*
X3712920Y-7792484D02*
X3655777Y-7792484D01*
X3655777Y-7792484D02*
X3636729Y-7782960D01*
X3636729Y-7782960D02*
X3627206Y-7773436D01*
X3817682Y-7592484D02*
X3951015Y-7592484D01*
X3951015Y-7592484D02*
X3865301Y-7792484D01*
X4179587Y-7792484D02*
X4179587Y-7592484D01*
X4265301Y-7792484D02*
X4265301Y-7687722D01*
X4265301Y-7687722D02*
X4255777Y-7668674D01*
X4255777Y-7668674D02*
X4236730Y-7659150D01*
X4236730Y-7659150D02*
X4208158Y-7659150D01*
X4208158Y-7659150D02*
X4189110Y-7668674D01*
X4189110Y-7668674D02*
X4179587Y-7678198D01*
X4389111Y-7792484D02*
X4370063Y-7782960D01*
X4370063Y-7782960D02*
X4360539Y-7773436D01*
X4360539Y-7773436D02*
X4351015Y-7754388D01*
X4351015Y-7754388D02*
X4351015Y-7697246D01*
X4351015Y-7697246D02*
X4360539Y-7678198D01*
X4360539Y-7678198D02*
X4370063Y-7668674D01*
X4370063Y-7668674D02*
X4389111Y-7659150D01*
X4389111Y-7659150D02*
X4417682Y-7659150D01*
X4417682Y-7659150D02*
X4436730Y-7668674D01*
X4436730Y-7668674D02*
X4446253Y-7678198D01*
X4446253Y-7678198D02*
X4455777Y-7697246D01*
X4455777Y-7697246D02*
X4455777Y-7754388D01*
X4455777Y-7754388D02*
X4446253Y-7773436D01*
X4446253Y-7773436D02*
X4436730Y-7782960D01*
X4436730Y-7782960D02*
X4417682Y-7792484D01*
X4417682Y-7792484D02*
X4389111Y-7792484D01*
X4570063Y-7792484D02*
X4551015Y-7782960D01*
X4551015Y-7782960D02*
X4541492Y-7763912D01*
X4541492Y-7763912D02*
X4541492Y-7592484D01*
X4722444Y-7782960D02*
X4703396Y-7792484D01*
X4703396Y-7792484D02*
X4665301Y-7792484D01*
X4665301Y-7792484D02*
X4646253Y-7782960D01*
X4646253Y-7782960D02*
X4636730Y-7763912D01*
X4636730Y-7763912D02*
X4636730Y-7687722D01*
X4636730Y-7687722D02*
X4646253Y-7668674D01*
X4646253Y-7668674D02*
X4665301Y-7659150D01*
X4665301Y-7659150D02*
X4703396Y-7659150D01*
X4703396Y-7659150D02*
X4722444Y-7668674D01*
X4722444Y-7668674D02*
X4731968Y-7687722D01*
X4731968Y-7687722D02*
X4731968Y-7706769D01*
X4731968Y-7706769D02*
X4636730Y-7725817D01*
X4808158Y-7782960D02*
X4827206Y-7792484D01*
X4827206Y-7792484D02*
X4865301Y-7792484D01*
X4865301Y-7792484D02*
X4884349Y-7782960D01*
X4884349Y-7782960D02*
X4893873Y-7763912D01*
X4893873Y-7763912D02*
X4893873Y-7754388D01*
X4893873Y-7754388D02*
X4884349Y-7735341D01*
X4884349Y-7735341D02*
X4865301Y-7725817D01*
X4865301Y-7725817D02*
X4836730Y-7725817D01*
X4836730Y-7725817D02*
X4817682Y-7716293D01*
X4817682Y-7716293D02*
X4808158Y-7697246D01*
X4808158Y-7697246D02*
X4808158Y-7687722D01*
X4808158Y-7687722D02*
X4817682Y-7668674D01*
X4817682Y-7668674D02*
X4836730Y-7659150D01*
X4836730Y-7659150D02*
X4865301Y-7659150D01*
X4865301Y-7659150D02*
X4884349Y-7668674D01*
X4960539Y-7868674D02*
X4970063Y-7859150D01*
X4970063Y-7859150D02*
X4989111Y-7830579D01*
X4989111Y-7830579D02*
X4998634Y-7811531D01*
X4998634Y-7811531D02*
X5008158Y-7782960D01*
X5008158Y-7782960D02*
X5017682Y-7735341D01*
X5017682Y-7735341D02*
X5017682Y-7697246D01*
X5017682Y-7697246D02*
X5008158Y-7649627D01*
X5008158Y-7649627D02*
X4998634Y-7621055D01*
X4998634Y-7621055D02*
X4989111Y-7602008D01*
X4989111Y-7602008D02*
X4970063Y-7573436D01*
X4970063Y-7573436D02*
X4960539Y-7563912D01*
M02*
