%TF.GenerationSoftware,KiCad,Pcbnew,10.0.5*%
%TF.CreationDate,2026-08-17T09:53:19-04:00*%
%TF.ProjectId,bench_board,62656e63-685f-4626-9f61-72642e6b6963,rev?*%
%TF.SameCoordinates,Original*%
%TF.FileFunction,Copper,L4,Bot*%
%TF.FilePolarity,Positive*%
%FSLAX46Y46*%
G04 Gerber Fmt 4.6, Leading zero omitted, Abs format (unit mm)*
G04 Created by KiCad (PCBNEW 10.0.5) date 2026-08-17 09:53:19*
%MOMM*%
%LPD*%
G01*
G04 APERTURE LIST*
%TA.AperFunction,ComponentPad*%
%ADD10R,1.700000X1.700000*%
%TD*%
%TA.AperFunction,ComponentPad*%
%ADD11C,1.700000*%
%TD*%
%TA.AperFunction,ComponentPad*%
%ADD12C,0.650000*%
%TD*%
%TA.AperFunction,ComponentPad*%
%ADD13O,1.400000X0.800000*%
%TD*%
%TA.AperFunction,ViaPad*%
%ADD14C,0.600000*%
%TD*%
%TA.AperFunction,ViaPad*%
%ADD15C,0.800000*%
%TD*%
%TA.AperFunction,Conductor*%
%ADD16C,0.200000*%
%TD*%
G04 APERTURE END LIST*
D10*
%TO.P,J9,1*%
%TO.N,3V3*%
X43000000Y-7000000D03*
D11*
%TO.P,J9,2*%
%TO.N,GND*%
X45540000Y-7000000D03*
%TO.P,J9,3*%
%TO.N,EXP_I2C_SCL*%
X48080000Y-7000000D03*
%TO.P,J9,4*%
%TO.N,EXP_I2C_SDA*%
X50620000Y-7000000D03*
%TO.P,J9,5*%
%TO.N,EXP_SPI_SCK*%
X53160000Y-7000000D03*
%TO.P,J9,6*%
%TO.N,EXP_SPI_MOSI*%
X55700000Y-7000000D03*
%TO.P,J9,7*%
%TO.N,EXP_SPI_MISO*%
X58240000Y-7000000D03*
%TO.P,J9,8*%
%TO.N,EXP_SPI_CS1*%
X60780000Y-7000000D03*
%TO.P,J9,9*%
%TO.N,EXP_SPI_CS2*%
X63320000Y-7000000D03*
%TO.P,J9,10*%
%TO.N,EXP_UART_RX*%
X65860000Y-7000000D03*
%TO.P,J9,11*%
%TO.N,EXP_IRQ1*%
X68400000Y-7000000D03*
%TO.P,J9,12*%
%TO.N,EXP_IRQ2*%
X70940000Y-7000000D03*
%TO.P,J9,13*%
%TO.N,5V_RX*%
X73480000Y-7000000D03*
%TO.P,J9,14*%
%TO.N,GND*%
X76020000Y-7000000D03*
%TD*%
D10*
%TO.P,J1,1*%
%TO.N,VBAT_4S*%
X6000000Y-30000000D03*
D11*
%TO.P,J1,2*%
%TO.N,GND*%
X8540000Y-30000000D03*
%TD*%
D12*
%TO.P,J3,B1*%
%TO.N,GND*%
X70290000Y-27200000D03*
%TO.P,J3,B2*%
%TO.N,N/C*%
X70990000Y-27600000D03*
%TO.P,J3,B3*%
X70990000Y-28400000D03*
%TO.P,J3,B4*%
%TO.N,USB_VBUS*%
X70290000Y-28800000D03*
%TO.P,J3,B5*%
%TO.N,CC2*%
X70990000Y-29200000D03*
%TO.P,J3,B6*%
%TO.N,USB_DP*%
X70290000Y-29600000D03*
%TO.P,J3,B7*%
%TO.N,USB_DM*%
X70290000Y-30400000D03*
%TO.P,J3,B8*%
%TO.N,N/C*%
X70990000Y-30800000D03*
%TO.P,J3,B9*%
%TO.N,USB_VBUS*%
X70290000Y-31200000D03*
%TO.P,J3,B10*%
%TO.N,N/C*%
X70990000Y-31600000D03*
%TO.P,J3,B11*%
X70990000Y-32400000D03*
%TO.P,J3,B12*%
%TO.N,GND*%
X70290000Y-32800000D03*
D13*
%TO.P,J3,SH*%
X76840000Y-34490000D03*
X70890000Y-34130000D03*
X70890000Y-25870000D03*
X76840000Y-25510000D03*
%TD*%
D10*
%TO.P,J5,1*%
%TO.N,M1*%
X40000000Y-47000000D03*
D11*
%TO.P,J5,2*%
%TO.N,M2*%
X40000000Y-49540000D03*
%TO.P,J5,3*%
%TO.N,M3*%
X40000000Y-52080000D03*
%TO.P,J5,4*%
%TO.N,M4*%
X40000000Y-54620000D03*
%TO.P,J5,5*%
%TO.N,GND*%
X40000000Y-57160000D03*
%TD*%
D10*
%TO.P,J4,1*%
%TO.N,3V3*%
X30000000Y-47000000D03*
D11*
%TO.P,J4,2*%
%TO.N,GND*%
X30000000Y-49540000D03*
%TO.P,J4,3*%
%TO.N,CRSF_TX*%
X30000000Y-52080000D03*
%TO.P,J4,4*%
%TO.N,CRSF_RX*%
X30000000Y-54620000D03*
%TD*%
D10*
%TO.P,J8,1*%
%TO.N,TELEM_TX*%
X71500000Y-56000000D03*
D11*
%TO.P,J8,2*%
%TO.N,GND*%
X74040000Y-56000000D03*
%TO.P,J8,3*%
%TO.N,3V3*%
X76580000Y-56000000D03*
%TD*%
D10*
%TO.P,J2,1*%
%TO.N,BOOT0*%
X30000000Y-12000000D03*
D11*
%TO.P,J2,2*%
%TO.N,3V3*%
X30000000Y-14540000D03*
%TD*%
D10*
%TO.P,J6,1*%
%TO.N,3V3*%
X62000000Y-47000000D03*
D11*
%TO.P,J6,2*%
%TO.N,SWDIO*%
X62000000Y-49540000D03*
%TO.P,J6,3*%
%TO.N,SWCLK*%
X62000000Y-52080000D03*
%TO.P,J6,4*%
%TO.N,NRST*%
X62000000Y-54620000D03*
%TO.P,J6,5*%
%TO.N,GND*%
X62000000Y-57160000D03*
%TD*%
D10*
%TO.P,J7,1*%
%TO.N,5V_RX*%
X71000000Y-48000000D03*
D11*
%TO.P,J7,2*%
%TO.N,GND*%
X73540000Y-48000000D03*
%TD*%
D14*
%TO.N,USB_DM*%
X63763600Y-29849500D03*
X54591700Y-30081700D03*
X67256000Y-23077000D03*
%TO.N,USB_DM_MCU*%
X41902600Y-28521100D03*
X52406600Y-30083400D03*
%TO.N,3V3*%
X13273800Y-6103300D03*
D15*
X17207400Y-9176200D03*
D14*
X44370200Y-42280500D03*
D15*
%TO.N,GND*%
X34539800Y-39400600D03*
X22178000Y-30423000D03*
X14003500Y-47819100D03*
X62527000Y-24149200D03*
X20916300Y-8966300D03*
X45752800Y-29452000D03*
X40740800Y-43592700D03*
X19797300Y-39051700D03*
X49506000Y-38095500D03*
X7914200Y-12612000D03*
D14*
%TO.N,EXP_I2C_SCL*%
X37250000Y-34437000D03*
%TO.N,EXP_I2C_SDA*%
X38171900Y-34445900D03*
%TO.N,EXP_SPI_SCK*%
X43356800Y-33150500D03*
%TO.N,EXP_SPI_MOSI*%
X43629600Y-31733200D03*
%TO.N,EXP_SPI_MISO*%
X44455100Y-30718600D03*
%TO.N,EXP_SPI_CS2*%
X27269400Y-29963600D03*
X31560500Y-16093100D03*
%TO.N,EXP_UART_RX*%
X37250000Y-23067800D03*
%TO.N,EXP_IRQ1*%
X30779100Y-30660100D03*
%TO.N,EXP_IRQ2*%
X30552100Y-25412600D03*
D15*
%TO.N,5V_RX*%
X18175000Y-15172800D03*
X5073800Y-14976200D03*
D14*
%TO.N,HSE_IN*%
X28095000Y-28346300D03*
X25471700Y-32359200D03*
X32061900Y-39793100D03*
%TO.N,HSE_OUT*%
X27675000Y-34560900D03*
X32699000Y-40361500D03*
X30606800Y-28545500D03*
D15*
%TO.N,BOOST_SW*%
X5862500Y-6042100D03*
X12831600Y-12168400D03*
D14*
%TO.N,BOOT0*%
X26642000Y-26571700D03*
X33824400Y-25952400D03*
%TO.N,NRST*%
X35049500Y-33557500D03*
X46296900Y-39185100D03*
X30610500Y-29334100D03*
%TO.N,COMP_NODE*%
X18134200Y-46829800D03*
X10267600Y-50222400D03*
%TO.N,VFB*%
X25894300Y-40595700D03*
X17232700Y-47662700D03*
D15*
%TO.N,VBAT_4S*%
X19442800Y-29244600D03*
X9944600Y-43895800D03*
X18286500Y-41429500D03*
D14*
%TO.N,CC1*%
X57096400Y-34393600D03*
X68169400Y-30849500D03*
%TO.N,USB_VBUS*%
X68605100Y-25129300D03*
%TO.N,USB_DP*%
X66910600Y-25723100D03*
%TO.N,CC2*%
X57286000Y-32010000D03*
%TO.N,M1*%
X34250000Y-23087200D03*
%TO.N,M2*%
X37577000Y-26315400D03*
%TO.N,M3*%
X32805000Y-22903100D03*
%TO.N,M4*%
X33072600Y-25997700D03*
%TO.N,VCAP2*%
X25471800Y-26506000D03*
X37028900Y-26849000D03*
%TO.N,VFB_5V*%
X19110200Y-13285200D03*
X6617100Y-9704600D03*
%TO.N,SW_NODE*%
X14832000Y-40869300D03*
D15*
X9905600Y-45635000D03*
D14*
%TO.N,SS_NODE*%
X15699400Y-42319400D03*
X15446100Y-51573900D03*
%TO.N,CRSF_TX*%
X39440600Y-29682500D03*
%TO.N,CRSF_RX*%
X32716800Y-29781800D03*
%TO.N,VCAP1*%
X36570600Y-38090300D03*
X26363000Y-29494900D03*
%TO.N,SPI1_CS*%
X46769000Y-24841600D03*
X32750000Y-34430100D03*
%TO.N,SPI1_MISO*%
X46803100Y-25605400D03*
X33750000Y-34444200D03*
%TO.N,MPU_INT*%
X34748400Y-34443700D03*
X49249900Y-24883400D03*
%TO.N,MPU_CPOUT*%
X48750000Y-19168000D03*
X45681800Y-30640200D03*
%TO.N,SPI1_SCK*%
X33250000Y-36902600D03*
X47249900Y-19161300D03*
%TO.N,SPI1_MOSI*%
X34250000Y-36925100D03*
X46136600Y-19529800D03*
%TO.N,TELEM_TX*%
X37750000Y-25556400D03*
%TO.N,SWDIO*%
X42410300Y-27174700D03*
%TO.N,SWCLK*%
X39376700Y-24333700D03*
%TO.N,USB_DP_MCU*%
X41908600Y-27751000D03*
X52260100Y-27176000D03*
%TD*%
%TO.N,NRST*%
D16*
X35049500Y-33557500D02*
X30854200Y-29362200D01*
X30638500Y-29362100D02*
X30610500Y-29334100D01*
X30854200Y-29362200D02*
X30638500Y-29362200D01*
X30638500Y-29362200D02*
X30638500Y-29362100D01*
%TO.N,MPU_CPOUT*%
X47573200Y-20344800D02*
X47573200Y-28748800D01*
X47573200Y-28748800D02*
X45681800Y-30640200D01*
X48750000Y-19168000D02*
X47573200Y-20344800D01*
%TO.N,SPI1_SCK*%
X35601200Y-34551400D02*
X33250000Y-36902600D01*
X47249900Y-19161300D02*
X47059200Y-18970600D01*
X35601200Y-29209700D02*
X35601200Y-34551400D01*
X47059200Y-18970600D02*
X45840300Y-18970600D01*
X45840300Y-18970600D02*
X35601200Y-29209700D01*
%TO.N,SPI1_MOSI*%
X41335800Y-24330600D02*
X46136600Y-19529800D01*
X34250000Y-36925100D02*
X34250000Y-36570700D01*
X41335800Y-29484900D02*
X41335800Y-24330600D01*
X34250000Y-36570700D02*
X41335800Y-29484900D01*
%TD*%
M02*
