M48
; DRILL file KiCad 10.0.5 date 2026-08-17T09:53:19
; FORMAT={-:-/ absolute / metric / decimal}
; #@! TF.CreationDate,2026-08-17T09:53:19-04:00
; #@! TF.GenerationSoftware,Kicad,Pcbnew,10.0.5
; #@! TF.FileFunction,Plated,1,4,PTH
FMAT,2
METRIC
; #@! TA.AperFunction,Plated,PTH,ViaDrill
T1C0.300
; #@! TA.AperFunction,Plated,PTH,ViaDrill
T2C0.400
; #@! TA.AperFunction,Plated,PTH,ComponentDrill
T3C0.400
; #@! TA.AperFunction,Plated,PTH,ComponentDrill
T4C0.500
; #@! TA.AperFunction,Plated,PTH,ComponentDrill
T5C1.000
%
G90
G05
T1
X6.617Y-9.705
X10.268Y-50.222
X15.446Y-51.574
X15.699Y-42.319
X17.233Y-47.663
X18.134Y-46.83
X19.11Y-13.285
X25.472Y-32.359
X25.472Y-26.506
X25.894Y-40.596
X26.363Y-29.495
X26.642Y-26.572
X27.269Y-29.964
X27.675Y-34.561
X28.095Y-28.346
X30.552Y-25.413
X30.607Y-28.545
X30.61Y-29.334
X30.779Y-30.66
X31.56Y-16.093
X32.062Y-39.793
X32.699Y-40.361
X32.717Y-29.782
X32.75Y-34.43
X32.805Y-22.903
X33.073Y-25.998
X33.25Y-36.903
X33.75Y-34.444
X33.824Y-25.952
X34.25Y-23.087
X34.25Y-36.925
X34.748Y-34.444
X35.05Y-33.557
X36.571Y-38.09
X37.029Y-26.849
X37.25Y-23.068
X37.25Y-34.437
X37.577Y-26.315
X37.75Y-25.556
X38.172Y-34.446
X39.377Y-24.334
X39.441Y-29.682
X41.903Y-28.521
X41.909Y-27.751
X42.41Y-27.175
X43.357Y-33.151
X43.63Y-31.733
X44.455Y-30.719
X45.682Y-30.64
X46.137Y-19.53
X46.297Y-39.185
X46.769Y-24.842
X46.803Y-25.605
X47.25Y-19.161
X48.75Y-19.168
X49.25Y-24.883
X52.26Y-27.176
X52.407Y-30.083
X54.592Y-30.082
X57.096Y-34.394
X57.286Y-32.01
X63.764Y-29.849
X66.911Y-25.723
X67.256Y-23.077
X68.169Y-30.849
X68.605Y-25.129
T2
X5.074Y-14.976
X5.862Y-6.042
X7.914Y-12.612
X9.906Y-45.635
X9.945Y-43.896
X12.832Y-12.168
X13.274Y-6.103
X14.003Y-47.819
X14.832Y-40.869
X17.207Y-9.176
X18.175Y-15.173
X18.287Y-41.429
X19.443Y-29.245
X19.797Y-39.052
X20.916Y-8.966
X22.178Y-30.423
X34.54Y-39.401
X40.741Y-43.593
X44.37Y-42.28
X45.753Y-29.452
X49.506Y-38.096
X62.527Y-24.149
T3
X70.29Y-27.2
X70.29Y-28.8
X70.29Y-29.6
X70.29Y-30.4
X70.29Y-31.2
X70.29Y-32.8
X70.99Y-27.6
X70.99Y-28.4
X70.99Y-29.2
X70.99Y-30.8
X70.99Y-31.6
X70.99Y-32.4
T5
X6.0Y-30.0
X8.54Y-30.0
X30.0Y-12.0
X30.0Y-14.54
X30.0Y-47.0
X30.0Y-49.54
X30.0Y-52.08
X30.0Y-54.62
X40.0Y-47.0
X40.0Y-49.54
X40.0Y-52.08
X40.0Y-54.62
X40.0Y-57.16
X43.0Y-7.0
X45.54Y-7.0
X48.08Y-7.0
X50.62Y-7.0
X53.16Y-7.0
X55.7Y-7.0
X58.24Y-7.0
X60.78Y-7.0
X62.0Y-47.0
X62.0Y-49.54
X62.0Y-52.08
X62.0Y-54.62
X62.0Y-57.16
X63.32Y-7.0
X65.86Y-7.0
X68.4Y-7.0
X70.94Y-7.0
X71.0Y-48.0
X71.5Y-56.0
X73.48Y-7.0
X73.54Y-48.0
X74.04Y-56.0
X76.02Y-7.0
X76.58Y-56.0
T4
X70.59Y-25.87G85X71.19Y-25.87
G05
X70.59Y-34.13G85X71.19Y-34.13
G05
X76.54Y-25.51G85X77.14Y-25.51
G05
X76.54Y-34.49G85X77.14Y-34.49
G05
M30
