%TF.GenerationSoftware,KiCad,Pcbnew,10.0.5*%
%TF.CreationDate,2026-08-17T10:06:52-04:00*%
%TF.ProjectId,bench_board,62656e63-685f-4626-9f61-72642e6b6963,rev?*%
%TF.SameCoordinates,Original*%
%TF.FileFunction,Copper,L2,Inr*%
%TF.FilePolarity,Positive*%
%FSLAX46Y46*%
G04 Gerber Fmt 4.6, Leading zero omitted, Abs format (unit mm)*
G04 Created by KiCad (PCBNEW 10.0.5) date 2026-08-17 10:06:52*
%MOMM*%
%LPD*%
G01*
G04 APERTURE LIST*
%TA.AperFunction,ComponentPad*%
%ADD10R,1.700000X1.700000*%
%TD*%
%TA.AperFunction,ComponentPad*%
%ADD11C,1.700000*%
%TD*%
%TA.AperFunction,ComponentPad*%
%ADD12C,0.650000*%
%TD*%
%TA.AperFunction,ComponentPad*%
%ADD13O,1.400000X0.800000*%
%TD*%
%TA.AperFunction,ViaPad*%
%ADD14C,0.600000*%
%TD*%
%TA.AperFunction,ViaPad*%
%ADD15C,0.800000*%
%TD*%
%TA.AperFunction,Conductor*%
%ADD16C,0.200000*%
%TD*%
%TA.AperFunction,Conductor*%
%ADD17C,0.600000*%
%TD*%
G04 APERTURE END LIST*
D10*
%TO.N,3V3*%
%TO.C,J9*%
X43000000Y-7000000D03*
D11*
%TO.N,GND*%
X45540000Y-7000000D03*
%TO.N,EXP_I2C_SCL*%
X48080000Y-7000000D03*
%TO.N,EXP_I2C_SDA*%
X50620000Y-7000000D03*
%TO.N,EXP_SPI_SCK*%
X53160000Y-7000000D03*
%TO.N,EXP_SPI_MOSI*%
X55700000Y-7000000D03*
%TO.N,EXP_SPI_MISO*%
X58240000Y-7000000D03*
%TO.N,EXP_SPI_CS1*%
X60780000Y-7000000D03*
%TO.N,EXP_SPI_CS2*%
X63320000Y-7000000D03*
%TO.N,EXP_UART_RX*%
X65860000Y-7000000D03*
%TO.N,EXP_IRQ1*%
X68400000Y-7000000D03*
%TO.N,EXP_IRQ2*%
X70940000Y-7000000D03*
%TO.N,5V_RX*%
X73480000Y-7000000D03*
%TO.N,GND*%
X76020000Y-7000000D03*
%TD*%
D10*
%TO.N,VBAT_4S*%
%TO.C,J1*%
X6000000Y-30000000D03*
D11*
%TO.N,GND*%
X8540000Y-30000000D03*
%TD*%
D12*
%TO.N,GND*%
%TO.C,J3*%
X70290000Y-27200000D03*
%TO.N,N/C*%
X70990000Y-27600000D03*
X70990000Y-28400000D03*
%TO.N,USB_VBUS*%
X70290000Y-28800000D03*
%TO.N,CC2*%
X70990000Y-29200000D03*
%TO.N,USB_DP*%
X70290000Y-29600000D03*
%TO.N,USB_DM*%
X70290000Y-30400000D03*
%TO.N,N/C*%
X70990000Y-30800000D03*
%TO.N,USB_VBUS*%
X70290000Y-31200000D03*
%TO.N,N/C*%
X70990000Y-31600000D03*
X70990000Y-32400000D03*
%TO.N,GND*%
X70290000Y-32800000D03*
D13*
X76840000Y-34490000D03*
X70890000Y-34130000D03*
X70890000Y-25870000D03*
X76840000Y-25510000D03*
%TD*%
D10*
%TO.N,M1*%
%TO.C,J5*%
X40000000Y-47000000D03*
D11*
%TO.N,M2*%
X40000000Y-49540000D03*
%TO.N,M3*%
X40000000Y-52080000D03*
%TO.N,M4*%
X40000000Y-54620000D03*
%TO.N,GND*%
X40000000Y-57160000D03*
%TD*%
D10*
%TO.N,3V3*%
%TO.C,J4*%
X30000000Y-47000000D03*
D11*
%TO.N,GND*%
X30000000Y-49540000D03*
%TO.N,CRSF_TX*%
X30000000Y-52080000D03*
%TO.N,CRSF_RX*%
X30000000Y-54620000D03*
%TD*%
D10*
%TO.N,TELEM_TX*%
%TO.C,J8*%
X71500000Y-56000000D03*
D11*
%TO.N,GND*%
X74040000Y-56000000D03*
%TO.N,3V3*%
X76580000Y-56000000D03*
%TD*%
D10*
%TO.N,BOOT0*%
%TO.C,J2*%
X30000000Y-12000000D03*
D11*
%TO.N,3V3*%
X30000000Y-14540000D03*
%TD*%
D10*
%TO.N,3V3*%
%TO.C,J6*%
X62000000Y-47000000D03*
D11*
%TO.N,SWDIO*%
X62000000Y-49540000D03*
%TO.N,SWCLK*%
X62000000Y-52080000D03*
%TO.N,NRST*%
X62000000Y-54620000D03*
%TO.N,GND*%
X62000000Y-57160000D03*
%TD*%
D10*
%TO.N,5V_RX*%
%TO.C,J7*%
X71000000Y-48000000D03*
D11*
%TO.N,GND*%
X73540000Y-48000000D03*
%TD*%
D14*
%TO.N,USB_DM*%
X54591700Y-30081700D03*
X63763600Y-29849500D03*
X67256000Y-23077000D03*
%TO.N,USB_DM_MCU*%
X41902600Y-28521100D03*
X52406600Y-30081800D03*
D15*
%TO.N,3V3*%
X17207400Y-9176200D03*
D14*
X13273800Y-6103300D03*
D15*
X20089700Y-44998900D03*
D14*
X44370200Y-42280500D03*
D15*
%TO.N,GND*%
X14003500Y-47819100D03*
X22178000Y-30423000D03*
X7914200Y-12612000D03*
X46559000Y-32144800D03*
X19797300Y-39051700D03*
X40740800Y-43592700D03*
X34589400Y-40970400D03*
X62527000Y-24149200D03*
X20916300Y-8966300D03*
D14*
%TO.N,EXP_I2C_SCL*%
X37254800Y-34437000D03*
%TO.N,EXP_I2C_SDA*%
X38133100Y-34441400D03*
%TO.N,EXP_SPI_SCK*%
X41917600Y-33250000D03*
%TO.N,EXP_SPI_MOSI*%
X39445500Y-32250000D03*
%TO.N,EXP_SPI_MISO*%
X41920800Y-32384100D03*
%TO.N,EXP_SPI_CS1*%
X27506400Y-27842000D03*
%TO.N,EXP_SPI_CS2*%
X31757900Y-30166500D03*
%TO.N,EXP_UART_RX*%
X37250000Y-23067800D03*
%TO.N,EXP_IRQ1*%
X33509400Y-30602800D03*
%TO.N,EXP_IRQ2*%
X34058000Y-31150500D03*
D15*
%TO.N,5V_RX*%
X18175000Y-15172800D03*
X5073800Y-14976200D03*
D14*
%TO.N,HSE_IN*%
X31922400Y-39653600D03*
X28095000Y-28349500D03*
%TO.N,HSE_OUT*%
X31117800Y-28750000D03*
X32699000Y-40361500D03*
X27675000Y-34560900D03*
D15*
%TO.N,BOOST_SW*%
X12831600Y-12168400D03*
X5862500Y-6042100D03*
D14*
%TO.N,BOOT0*%
X33955900Y-26108300D03*
X26643300Y-26569800D03*
%TO.N,NRST*%
X30580200Y-29320700D03*
X48931900Y-44318700D03*
%TO.N,COMP_NODE*%
X10267600Y-50222400D03*
X18134200Y-46829800D03*
%TO.N,VFB*%
X17232700Y-47662700D03*
X25899200Y-39409200D03*
%TO.N,VBAT_SENSE*%
X18500000Y-33734300D03*
X28440000Y-34372600D03*
D15*
%TO.N,VBAT_4S*%
X18284400Y-41429500D03*
X10092000Y-43748400D03*
X19442800Y-29244600D03*
D14*
%TO.N,CC1*%
X68169400Y-30852700D03*
X57084800Y-34405200D03*
%TO.N,USB_VBUS*%
X68605100Y-25129300D03*
%TO.N,USB_DP*%
X66910600Y-25723100D03*
%TO.N,CC2*%
X57290500Y-31991100D03*
%TO.N,M1*%
X34250000Y-23087200D03*
%TO.N,M2*%
X36563500Y-30132500D03*
X36901400Y-26369900D03*
%TO.N,M3*%
X32903500Y-23088400D03*
X35533400Y-30599000D03*
%TO.N,M4*%
X32538600Y-21811500D03*
%TO.N,VCAP2*%
X25470200Y-26506000D03*
X30960400Y-27499700D03*
%TO.N,VFB_5V*%
X6617100Y-9704600D03*
X19110200Y-13285200D03*
D15*
%TO.N,SW_NODE*%
X17841900Y-42416200D03*
X9905600Y-45635000D03*
D14*
%TO.N,SS_NODE*%
X15699400Y-42319400D03*
X15446100Y-51573900D03*
%TO.N,CRSF_TX*%
X37586100Y-29377000D03*
%TO.N,CRSF_RX*%
X37030500Y-28848400D03*
%TO.N,VCAP1*%
X38250000Y-36908800D03*
X26363000Y-29494900D03*
%TO.N,SPI1_CS*%
X46769000Y-24841600D03*
X32750000Y-34433800D03*
%TO.N,SPI1_MISO*%
X33750000Y-34447600D03*
X46803100Y-25605400D03*
%TO.N,MPU_INT*%
X34750000Y-34443700D03*
X49249900Y-24883400D03*
%TO.N,MPU_CPOUT*%
X44497500Y-30629500D03*
X48750000Y-19169600D03*
%TO.N,SPI1_SCK*%
X33250000Y-36904800D03*
X47249900Y-19159700D03*
%TO.N,SPI1_MOSI*%
X46157300Y-19457300D03*
X34250000Y-36921300D03*
%TO.N,TELEM_TX*%
X45479000Y-26547600D03*
%TO.N,SWDIO*%
X42410300Y-27174700D03*
%TO.N,SWCLK*%
X39379400Y-24325000D03*
%TO.N,USB_DP_MCU*%
X52260100Y-27176000D03*
X41909600Y-27752100D03*
%TD*%
%TO.N,USB_DM*%
D16*
X70190900Y-30300900D02*
X64215000Y-30300900D01*
X70290000Y-30400000D02*
X70190900Y-30300900D01*
X67256000Y-23077000D02*
X63763600Y-26569400D01*
X64215000Y-30300900D02*
X63763600Y-29849500D01*
X63763600Y-26569400D02*
X63763600Y-29849500D01*
%TO.N,EXP_I2C_SCL*%
X38559800Y-16520200D02*
X48080000Y-7000000D01*
X38559800Y-33132000D02*
X38559800Y-16520200D01*
X37254800Y-34437000D02*
X38559800Y-33132000D01*
%TO.N,EXP_SPI_SCK*%
X41917600Y-33250000D02*
X40927000Y-32259400D01*
X40927000Y-19233000D02*
X53160000Y-7000000D01*
X40927000Y-32259400D02*
X40927000Y-19233000D01*
%TO.N,EXP_SPI_MISO*%
X58240000Y-7000000D02*
X57759200Y-7000000D01*
X57759200Y-7000000D02*
X41320500Y-23438700D01*
X41320500Y-23438700D02*
X41320500Y-31783800D01*
X41320500Y-31783800D02*
X41920800Y-32384100D01*
%TO.N,5V_RX*%
D17*
X71000000Y-48000000D02*
X71000000Y-46648300D01*
X71000000Y-46648300D02*
X73480000Y-44168300D01*
X73480000Y-44168300D02*
X73480000Y-7000000D01*
%TO.N,HSE_OUT*%
D16*
X31117800Y-28750000D02*
X30331100Y-28750000D01*
X27675000Y-31406100D02*
X27675000Y-34560900D01*
X30331100Y-28750000D02*
X27675000Y-31406100D01*
%TO.N,BOOST_SW*%
D17*
X12831600Y-12168400D02*
X6705300Y-6042100D01*
X6705300Y-6042100D02*
X5862500Y-6042100D01*
%TO.N,BOOT0*%
D16*
X33501400Y-25653800D02*
X33955900Y-26108300D01*
X30000000Y-12000000D02*
X30000000Y-13101700D01*
X33501400Y-16327700D02*
X33501400Y-25653800D01*
X30275400Y-13101700D02*
X33501400Y-16327700D01*
X30000000Y-13101700D02*
X30275400Y-13101700D01*
%TO.N,VFB*%
X25899200Y-40181900D02*
X25899200Y-39409200D01*
X18418400Y-47662700D02*
X25899200Y-40181900D01*
X17232700Y-47662700D02*
X18418400Y-47662700D01*
%TO.N,VBAT_4S*%
D17*
X19442800Y-29244600D02*
X19442800Y-37954000D01*
X19442800Y-37954000D02*
X18284400Y-39112400D01*
X6000000Y-39656400D02*
X10092000Y-43748400D01*
X6000000Y-30000000D02*
X6000000Y-39656400D01*
X18284400Y-39112400D02*
X18284400Y-41429500D01*
%TO.N,USB_VBUS*%
D16*
X70290000Y-28800000D02*
X68605100Y-27115100D01*
X68605100Y-27115100D02*
X68605100Y-25129300D01*
%TO.N,USB_DP*%
X70258900Y-29600000D02*
X66910600Y-26251700D01*
X70290000Y-29600000D02*
X70258900Y-29600000D01*
X66910600Y-26251700D02*
X66910600Y-25723100D01*
%TO.N,M1*%
X38174000Y-28422600D02*
X38174000Y-29981000D01*
X34250000Y-23087200D02*
X34250000Y-24498600D01*
X40000000Y-47000000D02*
X40000000Y-45898300D01*
X38174000Y-29981000D02*
X36701500Y-31453500D01*
X36701500Y-31453500D02*
X36701500Y-42599800D01*
X36701500Y-42599800D02*
X40000000Y-45898300D01*
X34250000Y-24498600D02*
X38174000Y-28422600D01*
%TO.N,M2*%
X36299100Y-30396900D02*
X36299100Y-45839100D01*
X36299100Y-45839100D02*
X40000000Y-49540000D01*
X36563500Y-30132500D02*
X36299100Y-30396900D01*
%TO.N,M3*%
X35895100Y-47975100D02*
X40000000Y-52080000D01*
X35533400Y-30599000D02*
X35895100Y-30960700D01*
X35895100Y-30960700D02*
X35895100Y-47975100D01*
%TO.N,M4*%
X38863700Y-55756300D02*
X29566600Y-55756300D01*
X40000000Y-54620000D02*
X38863700Y-55756300D01*
X32089900Y-22260200D02*
X32538600Y-21811500D01*
X28831500Y-55021200D02*
X28831500Y-35936000D01*
X30040100Y-30677800D02*
X32089900Y-28628000D01*
X29566600Y-55756300D02*
X28831500Y-55021200D01*
X32089900Y-28628000D02*
X32089900Y-22260200D01*
X30040100Y-34727400D02*
X30040100Y-30677800D01*
X28831500Y-35936000D02*
X30040100Y-34727400D01*
%TO.N,VCAP2*%
X26158500Y-27194300D02*
X30655000Y-27194300D01*
X25470200Y-26506000D02*
X26158500Y-27194300D01*
X30655000Y-27194300D02*
X30960400Y-27499700D01*
%TO.N,SS_NODE*%
X15699400Y-51320600D02*
X15446100Y-51573900D01*
X15699400Y-42319400D02*
X15699400Y-51320600D01*
%TO.N,CRSF_TX*%
X31200200Y-50879800D02*
X30000000Y-52080000D01*
X34630000Y-31646900D02*
X31200200Y-35076700D01*
X37586100Y-29377000D02*
X37586100Y-28567600D01*
X34630000Y-30225000D02*
X34630000Y-31646900D01*
X37228600Y-28210100D02*
X36644900Y-28210100D01*
X36644900Y-28210100D02*
X34630000Y-30225000D01*
X31200200Y-35076700D02*
X31200200Y-50879800D01*
X37586100Y-28567600D02*
X37228600Y-28210100D01*
%TO.N,CRSF_RX*%
X34981700Y-30827400D02*
X34981700Y-30370600D01*
X30000000Y-54620000D02*
X35339300Y-49280700D01*
X35339300Y-31185000D02*
X34981700Y-30827400D01*
X34981700Y-30370600D02*
X36503900Y-28848400D01*
X36503900Y-28848400D02*
X37030500Y-28848400D01*
X35339300Y-49280700D02*
X35339300Y-31185000D01*
%TO.N,MPU_CPOUT*%
X44497500Y-30629500D02*
X44497500Y-23422100D01*
X44497500Y-23422100D02*
X48750000Y-19169600D01*
%TO.N,TELEM_TX*%
X71500000Y-52568600D02*
X71500000Y-56000000D01*
X45479000Y-26547600D02*
X71500000Y-52568600D01*
%TO.N,SWDIO*%
X44314500Y-31249700D02*
X43428000Y-30363200D01*
X63151700Y-45979600D02*
X48421800Y-31249700D01*
X43428000Y-28192400D02*
X42410300Y-27174700D01*
X48421800Y-31249700D02*
X44314500Y-31249700D01*
X43428000Y-30363200D02*
X43428000Y-28192400D01*
X62000000Y-49540000D02*
X63151700Y-48388300D01*
X63151700Y-48388300D02*
X63151700Y-45979600D01*
%TO.N,SWCLK*%
X40317700Y-25263300D02*
X40317700Y-33372000D01*
X39379400Y-24325000D02*
X40317700Y-25263300D01*
X59025700Y-52080000D02*
X62000000Y-52080000D01*
X40317700Y-33372000D02*
X59025700Y-52080000D01*
%TD*%
%TA.AperFunction,Conductor*%
%TO.N,GND*%
G36*
X77959191Y-2018907D02*
G01*
X77995155Y-2068407D01*
X78000000Y-2099000D01*
X78000000Y-24858200D01*
X77981093Y-24916391D01*
X77931593Y-24952355D01*
X77870407Y-24952355D01*
X77830996Y-24928204D01*
X77713715Y-24810923D01*
X77566308Y-24712429D01*
X77402520Y-24644586D01*
X77228644Y-24610000D01*
X77090001Y-24610000D01*
X77090000Y-24610001D01*
X77090000Y-25260000D01*
X76589999Y-25260000D01*
X76590000Y-25259999D01*
X76590000Y-24610001D01*
X76589999Y-24610000D01*
X76451355Y-24610000D01*
X76277480Y-24644586D01*
X76277478Y-24644586D01*
X76113691Y-24712429D01*
X75966284Y-24810923D01*
X75840923Y-24936284D01*
X75742430Y-25083689D01*
X75674586Y-25247476D01*
X75672095Y-25260000D01*
X76490272Y-25260000D01*
X76398386Y-25298060D01*
X76328060Y-25368386D01*
X76290000Y-25460272D01*
X76290000Y-25559728D01*
X76328060Y-25651614D01*
X76398386Y-25721940D01*
X76490272Y-25760000D01*
X75672096Y-25760000D01*
X75674586Y-25772523D01*
X75742430Y-25936310D01*
X75840923Y-26083715D01*
X75966284Y-26209076D01*
X76113691Y-26307570D01*
X76277479Y-26375413D01*
X76451355Y-26409999D01*
X76451359Y-26410000D01*
X76589999Y-26410000D01*
X76590000Y-26409999D01*
X76590000Y-25760001D01*
X76589999Y-25760000D01*
X77090000Y-25760000D01*
X77090000Y-26409999D01*
X77090001Y-26410000D01*
X77228641Y-26410000D01*
X77228644Y-26409999D01*
X77402519Y-26375413D01*
X77402521Y-26375413D01*
X77566308Y-26307570D01*
X77713715Y-26209076D01*
X77830996Y-26091796D01*
X77885513Y-26064019D01*
X77945945Y-26073590D01*
X77989210Y-26116855D01*
X78000000Y-26161800D01*
X78000000Y-33838200D01*
X77981093Y-33896391D01*
X77931593Y-33932355D01*
X77870407Y-33932355D01*
X77830996Y-33908204D01*
X77713715Y-33790923D01*
X77566308Y-33692429D01*
X77402520Y-33624586D01*
X77228644Y-33590000D01*
X77090001Y-33590000D01*
X77090000Y-33590001D01*
X77090000Y-34240000D01*
X76589999Y-34240000D01*
X76590000Y-34239999D01*
X76590000Y-33590001D01*
X76589999Y-33590000D01*
X76451355Y-33590000D01*
X76277480Y-33624586D01*
X76277478Y-33624586D01*
X76113691Y-33692429D01*
X75966284Y-33790923D01*
X75840923Y-33916284D01*
X75742430Y-34063689D01*
X75674586Y-34227476D01*
X75672095Y-34240000D01*
X76490272Y-34240000D01*
X76398386Y-34278060D01*
X76328060Y-34348386D01*
X76290000Y-34440272D01*
X76290000Y-34539728D01*
X76328060Y-34631614D01*
X76398386Y-34701940D01*
X76490272Y-34740000D01*
X75672096Y-34740000D01*
X75674586Y-34752523D01*
X75742430Y-34916310D01*
X75840923Y-35063715D01*
X75966284Y-35189076D01*
X76113691Y-35287570D01*
X76277479Y-35355413D01*
X76451355Y-35389999D01*
X76451359Y-35390000D01*
X76589999Y-35390000D01*
X76590000Y-35389999D01*
X76590000Y-34740001D01*
X76589999Y-34740000D01*
X77090000Y-34740000D01*
X77090000Y-35389999D01*
X77090001Y-35390000D01*
X77228641Y-35390000D01*
X77228644Y-35389999D01*
X77402519Y-35355413D01*
X77402521Y-35355413D01*
X77566308Y-35287570D01*
X77713715Y-35189076D01*
X77830996Y-35071796D01*
X77885513Y-35044019D01*
X77945945Y-35053590D01*
X77989210Y-35096855D01*
X78000000Y-35141800D01*
X78000000Y-57901000D01*
X77981093Y-57959191D01*
X77931593Y-57995155D01*
X77901000Y-58000000D01*
X63248692Y-58000000D01*
X63190501Y-57981093D01*
X63154537Y-57931593D01*
X63154537Y-57870407D01*
X63160482Y-57856055D01*
X63251095Y-57678215D01*
X63316759Y-57476121D01*
X63350000Y-57266250D01*
X63350000Y-57053749D01*
X63316759Y-56843878D01*
X63251095Y-56641784D01*
X63154623Y-56452446D01*
X63154619Y-56452440D01*
X63115270Y-56398282D01*
X63115269Y-56398282D01*
X62482962Y-57030590D01*
X62465925Y-56967007D01*
X62400099Y-56852993D01*
X62307007Y-56759901D01*
X62192993Y-56694075D01*
X62129407Y-56677037D01*
X62761716Y-56044729D01*
X62761716Y-56044728D01*
X62707559Y-56005380D01*
X62707553Y-56005376D01*
X62518215Y-55908904D01*
X62427015Y-55879272D01*
X62377515Y-55843308D01*
X62358608Y-55785117D01*
X62377515Y-55726926D01*
X62427013Y-55690962D01*
X62427017Y-55690962D01*
X62427018Y-55690962D01*
X62441633Y-55686213D01*
X62441633Y-55686212D01*
X62441639Y-55686211D01*
X62602994Y-55603996D01*
X62749501Y-55497553D01*
X62877553Y-55369501D01*
X62983996Y-55222994D01*
X63066211Y-55061639D01*
X63122171Y-54889409D01*
X63136335Y-54799977D01*
X63150500Y-54710549D01*
X63150500Y-54529450D01*
X63122171Y-54350593D01*
X63122171Y-54350591D01*
X63066211Y-54178361D01*
X62983996Y-54017006D01*
X62877553Y-53870499D01*
X62749501Y-53742447D01*
X62602994Y-53636004D01*
X62602993Y-53636003D01*
X62602991Y-53636002D01*
X62441637Y-53553788D01*
X62269406Y-53497828D01*
X62090549Y-53469500D01*
X62090546Y-53469500D01*
X61909454Y-53469500D01*
X61909451Y-53469500D01*
X61730593Y-53497828D01*
X61558362Y-53553788D01*
X61397008Y-53636002D01*
X61389189Y-53641683D01*
X61250499Y-53742447D01*
X61122447Y-53870499D01*
X61069225Y-53943752D01*
X61016002Y-54017008D01*
X60933788Y-54178362D01*
X60877828Y-54350593D01*
X60849500Y-54529450D01*
X60849500Y-54710549D01*
X60877828Y-54889406D01*
X60918961Y-55016004D01*
X60933789Y-55061639D01*
X61016004Y-55222994D01*
X61122447Y-55369501D01*
X61250499Y-55497553D01*
X61397006Y-55603996D01*
X61558361Y-55686211D01*
X61569483Y-55689824D01*
X61572983Y-55690962D01*
X61622483Y-55726926D01*
X61641391Y-55785116D01*
X61622484Y-55843307D01*
X61572985Y-55879271D01*
X61572984Y-55879272D01*
X61481784Y-55908904D01*
X61292446Y-56005376D01*
X61292442Y-56005378D01*
X61238282Y-56044728D01*
X61870591Y-56677037D01*
X61807007Y-56694075D01*
X61692993Y-56759901D01*
X61599901Y-56852993D01*
X61534075Y-56967007D01*
X61517037Y-57030591D01*
X60884728Y-56398282D01*
X60845378Y-56452442D01*
X60845376Y-56452446D01*
X60748904Y-56641784D01*
X60683240Y-56843878D01*
X60650000Y-57053749D01*
X60650000Y-57266250D01*
X60683240Y-57476121D01*
X60748904Y-57678215D01*
X60839518Y-57856055D01*
X60849089Y-57916487D01*
X60821311Y-57971004D01*
X60766795Y-57998781D01*
X60751308Y-58000000D01*
X41248692Y-58000000D01*
X41190501Y-57981093D01*
X41154537Y-57931593D01*
X41154537Y-57870407D01*
X41160482Y-57856055D01*
X41251095Y-57678215D01*
X41316759Y-57476121D01*
X41350000Y-57266250D01*
X41350000Y-57053749D01*
X41316759Y-56843878D01*
X41251095Y-56641784D01*
X41154623Y-56452446D01*
X41154619Y-56452440D01*
X41115270Y-56398282D01*
X41115269Y-56398282D01*
X40482962Y-57030590D01*
X40465925Y-56967007D01*
X40400099Y-56852993D01*
X40307007Y-56759901D01*
X40192993Y-56694075D01*
X40129408Y-56677037D01*
X40761716Y-56044729D01*
X40761716Y-56044728D01*
X40707559Y-56005380D01*
X40707553Y-56005376D01*
X40518215Y-55908904D01*
X40427015Y-55879272D01*
X40377515Y-55843308D01*
X40358608Y-55785117D01*
X40377515Y-55726926D01*
X40427013Y-55690962D01*
X40427017Y-55690962D01*
X40427018Y-55690962D01*
X40441633Y-55686213D01*
X40441633Y-55686212D01*
X40441639Y-55686211D01*
X40602994Y-55603996D01*
X40749501Y-55497553D01*
X40877553Y-55369501D01*
X40983996Y-55222994D01*
X41066211Y-55061639D01*
X41122171Y-54889409D01*
X41136335Y-54799977D01*
X41150500Y-54710549D01*
X41150500Y-54529450D01*
X41122171Y-54350593D01*
X41122171Y-54350591D01*
X41066211Y-54178361D01*
X40983996Y-54017006D01*
X40877553Y-53870499D01*
X40749501Y-53742447D01*
X40602994Y-53636004D01*
X40602993Y-53636003D01*
X40602991Y-53636002D01*
X40441637Y-53553788D01*
X40269406Y-53497828D01*
X40090549Y-53469500D01*
X40090546Y-53469500D01*
X39909454Y-53469500D01*
X39909451Y-53469500D01*
X39730593Y-53497828D01*
X39558362Y-53553788D01*
X39397008Y-53636002D01*
X39389189Y-53641683D01*
X39250499Y-53742447D01*
X39122447Y-53870499D01*
X39069225Y-53943752D01*
X39016002Y-54017008D01*
X38933788Y-54178362D01*
X38877828Y-54350593D01*
X38849500Y-54529450D01*
X38849500Y-54710549D01*
X38877828Y-54889406D01*
X38929309Y-55047852D01*
X38929308Y-55109037D01*
X38905158Y-55148447D01*
X38726804Y-55326803D01*
X38672288Y-55354581D01*
X38656800Y-55355800D01*
X31077882Y-55355800D01*
X31019691Y-55336893D01*
X30983727Y-55287393D01*
X30983727Y-55226207D01*
X30989672Y-55211855D01*
X31021980Y-55148447D01*
X31066211Y-55061639D01*
X31122171Y-54889409D01*
X31136335Y-54799977D01*
X31150500Y-54710549D01*
X31150500Y-54529450D01*
X31122171Y-54350593D01*
X31122171Y-54350591D01*
X31070690Y-54192146D01*
X31070691Y-54130961D01*
X31094839Y-54091552D01*
X35659780Y-49526613D01*
X35677066Y-49496672D01*
X35697542Y-49461208D01*
X35697556Y-49461180D01*
X35697570Y-49461158D01*
X35712507Y-49435287D01*
X35739800Y-49333427D01*
X35739800Y-48625201D01*
X35758707Y-48567010D01*
X35808207Y-48531046D01*
X35869393Y-48531046D01*
X35908804Y-48555197D01*
X38905158Y-51551551D01*
X38932935Y-51606068D01*
X38929309Y-51652147D01*
X38877828Y-51810593D01*
X38849500Y-51989450D01*
X38849500Y-52170549D01*
X38877828Y-52349406D01*
X38931915Y-52515873D01*
X38933789Y-52521639D01*
X39016004Y-52682994D01*
X39122447Y-52829501D01*
X39250499Y-52957553D01*
X39397006Y-53063996D01*
X39558361Y-53146211D01*
X39730591Y-53202171D01*
X39802136Y-53213502D01*
X39909451Y-53230500D01*
X39909454Y-53230500D01*
X40090549Y-53230500D01*
X40179977Y-53216335D01*
X40269409Y-53202171D01*
X40441639Y-53146211D01*
X40602994Y-53063996D01*
X40749501Y-52957553D01*
X40877553Y-52829501D01*
X40983996Y-52682994D01*
X41066211Y-52521639D01*
X41122171Y-52349409D01*
X41150500Y-52170546D01*
X41150500Y-51989454D01*
X41150500Y-51989450D01*
X41122171Y-51810593D01*
X41122171Y-51810591D01*
X41066211Y-51638361D01*
X40983996Y-51477006D01*
X40877553Y-51330499D01*
X40749501Y-51202447D01*
X40602994Y-51096004D01*
X40602993Y-51096003D01*
X40602991Y-51096002D01*
X40441637Y-51013788D01*
X40269406Y-50957828D01*
X40090549Y-50929500D01*
X40090546Y-50929500D01*
X39909454Y-50929500D01*
X39909451Y-50929500D01*
X39730593Y-50957828D01*
X39572147Y-51009309D01*
X39510962Y-51009308D01*
X39471551Y-50985158D01*
X36324596Y-47838203D01*
X36296819Y-47783686D01*
X36295600Y-47768199D01*
X36295600Y-46641001D01*
X36314507Y-46582810D01*
X36364007Y-46546846D01*
X36425193Y-46546846D01*
X36464604Y-46570997D01*
X38905158Y-49011551D01*
X38932935Y-49066068D01*
X38929309Y-49112147D01*
X38877828Y-49270593D01*
X38849500Y-49449450D01*
X38849500Y-49630549D01*
X38877828Y-49809406D01*
X38933788Y-49981637D01*
X38963525Y-50040000D01*
X39016004Y-50142994D01*
X39122447Y-50289501D01*
X39250499Y-50417553D01*
X39397006Y-50523996D01*
X39558361Y-50606211D01*
X39730591Y-50662171D01*
X39802136Y-50673502D01*
X39909451Y-50690500D01*
X39909454Y-50690500D01*
X40090549Y-50690500D01*
X40179977Y-50676335D01*
X40269409Y-50662171D01*
X40441639Y-50606211D01*
X40602994Y-50523996D01*
X40749501Y-50417553D01*
X40877553Y-50289501D01*
X40983996Y-50142994D01*
X41066211Y-49981639D01*
X41122171Y-49809409D01*
X41150500Y-49630546D01*
X41150500Y-49449454D01*
X41150500Y-49449450D01*
X41122171Y-49270593D01*
X41122171Y-49270591D01*
X41066211Y-49098361D01*
X40983996Y-48937006D01*
X40877553Y-48790499D01*
X40749501Y-48662447D01*
X40602994Y-48556004D01*
X40602993Y-48556003D01*
X40602991Y-48556002D01*
X40441637Y-48473788D01*
X40269406Y-48417828D01*
X40090549Y-48389500D01*
X40090546Y-48389500D01*
X39909454Y-48389500D01*
X39909451Y-48389500D01*
X39730593Y-48417828D01*
X39572147Y-48469309D01*
X39510962Y-48469308D01*
X39471551Y-48445158D01*
X39345896Y-48319503D01*
X39318119Y-48264986D01*
X39327690Y-48204554D01*
X39370955Y-48161289D01*
X39415900Y-48150499D01*
X40894861Y-48150499D01*
X40894864Y-48150499D01*
X40919991Y-48147585D01*
X41022765Y-48102206D01*
X41102206Y-48022765D01*
X41147585Y-47919991D01*
X41150500Y-47894865D01*
X41150499Y-46105136D01*
X41147585Y-46080009D01*
X41102206Y-45977235D01*
X41022765Y-45897794D01*
X40919991Y-45852415D01*
X40919990Y-45852414D01*
X40919988Y-45852414D01*
X40894869Y-45849500D01*
X40894865Y-45849500D01*
X40477518Y-45849500D01*
X40419327Y-45830593D01*
X40383363Y-45781093D01*
X40381892Y-45776124D01*
X40373208Y-45743716D01*
X40373205Y-45743709D01*
X40320480Y-45652387D01*
X40245913Y-45577819D01*
X40245913Y-45577820D01*
X38907736Y-44239643D01*
X48331400Y-44239643D01*
X48331400Y-44397757D01*
X48372323Y-44550484D01*
X48451380Y-44687416D01*
X48563184Y-44799220D01*
X48700116Y-44878277D01*
X48852843Y-44919200D01*
X48852845Y-44919200D01*
X49010955Y-44919200D01*
X49010957Y-44919200D01*
X49163684Y-44878277D01*
X49300616Y-44799220D01*
X49412420Y-44687416D01*
X49491477Y-44550484D01*
X49532400Y-44397757D01*
X49532400Y-44239643D01*
X49491477Y-44086916D01*
X49412420Y-43949984D01*
X49300616Y-43838180D01*
X49163684Y-43759123D01*
X49010957Y-43718200D01*
X48852843Y-43718200D01*
X48700116Y-43759123D01*
X48563184Y-43838180D01*
X48451380Y-43949984D01*
X48372323Y-44086916D01*
X48331400Y-44239643D01*
X38907736Y-44239643D01*
X37130996Y-42462903D01*
X37103219Y-42408386D01*
X37102000Y-42392899D01*
X37102000Y-42201443D01*
X43769700Y-42201443D01*
X43769700Y-42359557D01*
X43810623Y-42512284D01*
X43889680Y-42649216D01*
X44001484Y-42761020D01*
X44138416Y-42840077D01*
X44291143Y-42881000D01*
X44291145Y-42881000D01*
X44449255Y-42881000D01*
X44449257Y-42881000D01*
X44601984Y-42840077D01*
X44738916Y-42761020D01*
X44850720Y-42649216D01*
X44929777Y-42512284D01*
X44970700Y-42359557D01*
X44970700Y-42201443D01*
X44929777Y-42048716D01*
X44850720Y-41911784D01*
X44738916Y-41799980D01*
X44601984Y-41720923D01*
X44449257Y-41680000D01*
X44291143Y-41680000D01*
X44138416Y-41720923D01*
X44001484Y-41799980D01*
X43889680Y-41911784D01*
X43810623Y-42048716D01*
X43769700Y-42201443D01*
X37102000Y-42201443D01*
X37102000Y-36829743D01*
X37649500Y-36829743D01*
X37649500Y-36987857D01*
X37690423Y-37140584D01*
X37769480Y-37277516D01*
X37881284Y-37389320D01*
X38018216Y-37468377D01*
X38170943Y-37509300D01*
X38170945Y-37509300D01*
X38329055Y-37509300D01*
X38329057Y-37509300D01*
X38481784Y-37468377D01*
X38618716Y-37389320D01*
X38730520Y-37277516D01*
X38809577Y-37140584D01*
X38850500Y-36987857D01*
X38850500Y-36829743D01*
X38809577Y-36677016D01*
X38730520Y-36540084D01*
X38618716Y-36428280D01*
X38481784Y-36349223D01*
X38329057Y-36308300D01*
X38170943Y-36308300D01*
X38018216Y-36349223D01*
X37881284Y-36428280D01*
X37769480Y-36540084D01*
X37690423Y-36677016D01*
X37649500Y-36829743D01*
X37102000Y-36829743D01*
X37102000Y-35136500D01*
X37120907Y-35078309D01*
X37170407Y-35042345D01*
X37201000Y-35037500D01*
X37333855Y-35037500D01*
X37333857Y-35037500D01*
X37486584Y-34996577D01*
X37623516Y-34917520D01*
X37623520Y-34917515D01*
X37623523Y-34917514D01*
X37628666Y-34913569D01*
X37629878Y-34915149D01*
X37676245Y-34891515D01*
X37736678Y-34901075D01*
X37761748Y-34919285D01*
X37764380Y-34921917D01*
X37764382Y-34921918D01*
X37764384Y-34921920D01*
X37901316Y-35000977D01*
X38054043Y-35041900D01*
X38054045Y-35041900D01*
X38212155Y-35041900D01*
X38212157Y-35041900D01*
X38364884Y-35000977D01*
X38501816Y-34921920D01*
X38613620Y-34810116D01*
X38692677Y-34673184D01*
X38733600Y-34520457D01*
X38733600Y-34362343D01*
X38692677Y-34209616D01*
X38613620Y-34072684D01*
X38501816Y-33960880D01*
X38483898Y-33950535D01*
X38442957Y-33905065D01*
X38436563Y-33844214D01*
X38463393Y-33794797D01*
X38805710Y-33452481D01*
X38805713Y-33452480D01*
X38880280Y-33377913D01*
X38933007Y-33286587D01*
X38943712Y-33246635D01*
X38960301Y-33184727D01*
X38960301Y-33079273D01*
X38960301Y-33073211D01*
X38960300Y-33073193D01*
X38960300Y-32834740D01*
X38979207Y-32776549D01*
X39028707Y-32740585D01*
X39089893Y-32740585D01*
X39108790Y-32748998D01*
X39213716Y-32809577D01*
X39366443Y-32850500D01*
X39366445Y-32850500D01*
X39524555Y-32850500D01*
X39524557Y-32850500D01*
X39677284Y-32809577D01*
X39768701Y-32756797D01*
X39828548Y-32744076D01*
X39884444Y-32768963D01*
X39915037Y-32821951D01*
X39917200Y-32842534D01*
X39917200Y-33319273D01*
X39917200Y-33424727D01*
X39932488Y-33481783D01*
X39944494Y-33526592D01*
X39997216Y-33617908D01*
X39997217Y-33617909D01*
X39997218Y-33617910D01*
X39997220Y-33617913D01*
X49416278Y-43036971D01*
X58705219Y-52325912D01*
X58705220Y-52325913D01*
X58705219Y-52325913D01*
X58779787Y-52400480D01*
X58871113Y-52453207D01*
X58972973Y-52480500D01*
X59078427Y-52480500D01*
X60852161Y-52480500D01*
X60910352Y-52499407D01*
X60940368Y-52534552D01*
X61016004Y-52682994D01*
X61122447Y-52829501D01*
X61250499Y-52957553D01*
X61397006Y-53063996D01*
X61558361Y-53146211D01*
X61730591Y-53202171D01*
X61802136Y-53213502D01*
X61909451Y-53230500D01*
X61909454Y-53230500D01*
X62090549Y-53230500D01*
X62179977Y-53216335D01*
X62269409Y-53202171D01*
X62441639Y-53146211D01*
X62602994Y-53063996D01*
X62749501Y-52957553D01*
X62877553Y-52829501D01*
X62983996Y-52682994D01*
X63066211Y-52521639D01*
X63122171Y-52349409D01*
X63150500Y-52170546D01*
X63150500Y-51989454D01*
X63150500Y-51989450D01*
X63122171Y-51810593D01*
X63122171Y-51810591D01*
X63066211Y-51638361D01*
X62983996Y-51477006D01*
X62877553Y-51330499D01*
X62749501Y-51202447D01*
X62602994Y-51096004D01*
X62602993Y-51096003D01*
X62602991Y-51096002D01*
X62441637Y-51013788D01*
X62269406Y-50957828D01*
X62090549Y-50929500D01*
X62090546Y-50929500D01*
X61909454Y-50929500D01*
X61909451Y-50929500D01*
X61730593Y-50957828D01*
X61558362Y-51013788D01*
X61397008Y-51096002D01*
X61356115Y-51125713D01*
X61250499Y-51202447D01*
X61122447Y-51330499D01*
X61114007Y-51342116D01*
X61016002Y-51477008D01*
X60980463Y-51546759D01*
X60940369Y-51625446D01*
X60897106Y-51668710D01*
X60852161Y-51679500D01*
X59232601Y-51679500D01*
X59174410Y-51660593D01*
X59162597Y-51650504D01*
X54729715Y-47217622D01*
X54701938Y-47163105D01*
X54711509Y-47102673D01*
X54754774Y-47059408D01*
X54815206Y-47049837D01*
X54825335Y-47051990D01*
X54861139Y-47061584D01*
X54888203Y-47068836D01*
X54888204Y-47068836D01*
X54888211Y-47068838D01*
X55128712Y-47100500D01*
X55128713Y-47100500D01*
X55371287Y-47100500D01*
X55371288Y-47100500D01*
X55611789Y-47068838D01*
X55846100Y-47006054D01*
X56070212Y-46913224D01*
X56280289Y-46791936D01*
X56472738Y-46644265D01*
X56644265Y-46472738D01*
X56791936Y-46280289D01*
X56913224Y-46070212D01*
X57006054Y-45846100D01*
X57068838Y-45611789D01*
X57100500Y-45371288D01*
X57100500Y-45128712D01*
X57068838Y-44888211D01*
X57006054Y-44653900D01*
X56928391Y-44466406D01*
X56913227Y-44429795D01*
X56913226Y-44429794D01*
X56913224Y-44429788D01*
X56791936Y-44219711D01*
X56690039Y-44086916D01*
X56644270Y-44027268D01*
X56644268Y-44027266D01*
X56644265Y-44027262D01*
X56472738Y-43855735D01*
X56472733Y-43855731D01*
X56472731Y-43855729D01*
X56280292Y-43708066D01*
X56230655Y-43679408D01*
X56070212Y-43586776D01*
X56070208Y-43586774D01*
X56070204Y-43586772D01*
X55846105Y-43493948D01*
X55846104Y-43493947D01*
X55846100Y-43493946D01*
X55611789Y-43431162D01*
X55611786Y-43431161D01*
X55611784Y-43431161D01*
X55371289Y-43399500D01*
X55371288Y-43399500D01*
X55128712Y-43399500D01*
X55128710Y-43399500D01*
X54888218Y-43431161D01*
X54888213Y-43431161D01*
X54653907Y-43493944D01*
X54653894Y-43493948D01*
X54429795Y-43586772D01*
X54219707Y-43708066D01*
X54027268Y-43855729D01*
X53855729Y-44027268D01*
X53708066Y-44219707D01*
X53586772Y-44429795D01*
X53493948Y-44653894D01*
X53493944Y-44653907D01*
X53431161Y-44888213D01*
X53431161Y-44888218D01*
X53399500Y-45128710D01*
X53399500Y-45371289D01*
X53431161Y-45611781D01*
X53431161Y-45611786D01*
X53431162Y-45611789D01*
X53443844Y-45659120D01*
X53448008Y-45674657D01*
X53444805Y-45735759D01*
X53406300Y-45783308D01*
X53347200Y-45799144D01*
X53290078Y-45777217D01*
X53282377Y-45770284D01*
X40747196Y-33235103D01*
X40719419Y-33180586D01*
X40718200Y-33165099D01*
X40718200Y-32856001D01*
X40737107Y-32797810D01*
X40786607Y-32761846D01*
X40847793Y-32761846D01*
X40887204Y-32785997D01*
X41288104Y-33186897D01*
X41315881Y-33241414D01*
X41317100Y-33256901D01*
X41317100Y-33329057D01*
X41358023Y-33481784D01*
X41437080Y-33618716D01*
X41548884Y-33730520D01*
X41685816Y-33809577D01*
X41838543Y-33850500D01*
X41838545Y-33850500D01*
X41996655Y-33850500D01*
X41996657Y-33850500D01*
X42149384Y-33809577D01*
X42286316Y-33730520D01*
X42398120Y-33618716D01*
X42477177Y-33481784D01*
X42518100Y-33329057D01*
X42518100Y-33170943D01*
X42477177Y-33018216D01*
X42398120Y-32881284D01*
X42398114Y-32881278D01*
X42396586Y-32879286D01*
X42395983Y-32877585D01*
X42394875Y-32875665D01*
X42395230Y-32875459D01*
X42376160Y-32821611D01*
X42393536Y-32762945D01*
X42397558Y-32758111D01*
X42397369Y-32757966D01*
X42401314Y-32752823D01*
X42401315Y-32752820D01*
X42401320Y-32752816D01*
X42480377Y-32615884D01*
X42521300Y-32463157D01*
X42521300Y-32305043D01*
X42480377Y-32152316D01*
X42401320Y-32015384D01*
X42289516Y-31903580D01*
X42152584Y-31824523D01*
X41999857Y-31783600D01*
X41999855Y-31783600D01*
X41927701Y-31783600D01*
X41869510Y-31764693D01*
X41857697Y-31754604D01*
X41749996Y-31646903D01*
X41722219Y-31592386D01*
X41721000Y-31576899D01*
X41721000Y-29220600D01*
X41739907Y-29162409D01*
X41789407Y-29126445D01*
X41820000Y-29121600D01*
X41981655Y-29121600D01*
X41981657Y-29121600D01*
X42134384Y-29080677D01*
X42271316Y-29001620D01*
X42383120Y-28889816D01*
X42462177Y-28752884D01*
X42503100Y-28600157D01*
X42503100Y-28442043D01*
X42462177Y-28289316D01*
X42406084Y-28192160D01*
X42393363Y-28132314D01*
X42406081Y-28093169D01*
X42469177Y-27983884D01*
X42469178Y-27983878D01*
X42471983Y-27979021D01*
X42517453Y-27938080D01*
X42578303Y-27931684D01*
X42627724Y-27958517D01*
X42998504Y-28329297D01*
X43026281Y-28383814D01*
X43027500Y-28399301D01*
X43027500Y-30310473D01*
X43027500Y-30415927D01*
X43036630Y-30450000D01*
X43054794Y-30517792D01*
X43107516Y-30609108D01*
X43107517Y-30609109D01*
X43107518Y-30609110D01*
X43107520Y-30609113D01*
X43581726Y-31083319D01*
X43994019Y-31495612D01*
X43994020Y-31495613D01*
X43994019Y-31495613D01*
X44036798Y-31538391D01*
X44068587Y-31570180D01*
X44159913Y-31622907D01*
X44261773Y-31650200D01*
X48214899Y-31650200D01*
X48273090Y-31669107D01*
X48284903Y-31679196D01*
X62286203Y-45680496D01*
X62313980Y-45735013D01*
X62304409Y-45795445D01*
X62261144Y-45838710D01*
X62216199Y-45849500D01*
X61105139Y-45849500D01*
X61105136Y-45849501D01*
X61080009Y-45852414D01*
X60977235Y-45897794D01*
X60897794Y-45977235D01*
X60852414Y-46080011D01*
X60849500Y-46105130D01*
X60849500Y-47894860D01*
X60849501Y-47894863D01*
X60852414Y-47919990D01*
X60858677Y-47934174D01*
X60897794Y-48022765D01*
X60977235Y-48102206D01*
X61080009Y-48147585D01*
X61105135Y-48150500D01*
X62584099Y-48150499D01*
X62642290Y-48169406D01*
X62678254Y-48218906D01*
X62678254Y-48280092D01*
X62654103Y-48319503D01*
X62528448Y-48445158D01*
X62473931Y-48472935D01*
X62427852Y-48469309D01*
X62269406Y-48417828D01*
X62090549Y-48389500D01*
X62090546Y-48389500D01*
X61909454Y-48389500D01*
X61909451Y-48389500D01*
X61730593Y-48417828D01*
X61558362Y-48473788D01*
X61397008Y-48556002D01*
X61384910Y-48564792D01*
X61250499Y-48662447D01*
X61122447Y-48790499D01*
X61069225Y-48863752D01*
X61016002Y-48937008D01*
X60933788Y-49098362D01*
X60877828Y-49270593D01*
X60849500Y-49449450D01*
X60849500Y-49630549D01*
X60877828Y-49809406D01*
X60933788Y-49981637D01*
X60963525Y-50040000D01*
X61016004Y-50142994D01*
X61122447Y-50289501D01*
X61250499Y-50417553D01*
X61397006Y-50523996D01*
X61558361Y-50606211D01*
X61730591Y-50662171D01*
X61802136Y-50673502D01*
X61909451Y-50690500D01*
X61909454Y-50690500D01*
X62090549Y-50690500D01*
X62179977Y-50676335D01*
X62269409Y-50662171D01*
X62441639Y-50606211D01*
X62602994Y-50523996D01*
X62749501Y-50417553D01*
X62877553Y-50289501D01*
X62983996Y-50142994D01*
X63066211Y-49981639D01*
X63122171Y-49809409D01*
X63150500Y-49630546D01*
X63150500Y-49449454D01*
X63150500Y-49449450D01*
X63122171Y-49270593D01*
X63122171Y-49270591D01*
X63083152Y-49150500D01*
X63070690Y-49112145D01*
X63070691Y-49050960D01*
X63094839Y-49011551D01*
X63397610Y-48708781D01*
X63397613Y-48708780D01*
X63472180Y-48634213D01*
X63517334Y-48556004D01*
X63524907Y-48542888D01*
X63552201Y-48441027D01*
X63552201Y-48335573D01*
X63552201Y-48329511D01*
X63552200Y-48329493D01*
X63552200Y-45926874D01*
X63544408Y-45897794D01*
X63524907Y-45825013D01*
X63472180Y-45733687D01*
X63440696Y-45702203D01*
X63397613Y-45659119D01*
X63397613Y-45659120D01*
X48667713Y-30929220D01*
X48667710Y-30929218D01*
X48667709Y-30929217D01*
X48667708Y-30929216D01*
X48576391Y-30876494D01*
X48576393Y-30876494D01*
X48520835Y-30861608D01*
X48474527Y-30849200D01*
X48474525Y-30849200D01*
X45189334Y-30849200D01*
X45131143Y-30830293D01*
X45095179Y-30780793D01*
X45093707Y-30724577D01*
X45098000Y-30708557D01*
X45098000Y-30550443D01*
X45057077Y-30397716D01*
X44978020Y-30260784D01*
X44962678Y-30245442D01*
X44926996Y-30209759D01*
X44899219Y-30155242D01*
X44898000Y-30139756D01*
X44898000Y-27054843D01*
X44916907Y-26996652D01*
X44966407Y-26960688D01*
X45027593Y-26960688D01*
X45067001Y-26984837D01*
X45110284Y-27028120D01*
X45247216Y-27107177D01*
X45399943Y-27148100D01*
X45472099Y-27148100D01*
X45530290Y-27167007D01*
X45542103Y-27177096D01*
X71070504Y-52705497D01*
X71098281Y-52760014D01*
X71099500Y-52775501D01*
X71099500Y-54750500D01*
X71080593Y-54808691D01*
X71031093Y-54844655D01*
X71000500Y-54849500D01*
X70605139Y-54849500D01*
X70605136Y-54849501D01*
X70580009Y-54852414D01*
X70477235Y-54897794D01*
X70397794Y-54977235D01*
X70352414Y-55080011D01*
X70349500Y-55105130D01*
X70349500Y-56894860D01*
X70349501Y-56894863D01*
X70352414Y-56919990D01*
X70377756Y-56977385D01*
X70397794Y-57022765D01*
X70477235Y-57102206D01*
X70580009Y-57147585D01*
X70605135Y-57150500D01*
X72394864Y-57150499D01*
X72419991Y-57147585D01*
X72522765Y-57102206D01*
X72602206Y-57022765D01*
X72647585Y-56919991D01*
X72650500Y-56894865D01*
X72650499Y-56658943D01*
X72669406Y-56600756D01*
X72718906Y-56564792D01*
X72780091Y-56564791D01*
X72829591Y-56600755D01*
X72837709Y-56614001D01*
X72885376Y-56707553D01*
X72885380Y-56707559D01*
X72924728Y-56761716D01*
X72924729Y-56761716D01*
X73557037Y-56129407D01*
X73574075Y-56192993D01*
X73639901Y-56307007D01*
X73732993Y-56400099D01*
X73847007Y-56465925D01*
X73910589Y-56482962D01*
X73278282Y-57115269D01*
X73278282Y-57115270D01*
X73332440Y-57154619D01*
X73332446Y-57154623D01*
X73521784Y-57251095D01*
X73723878Y-57316759D01*
X73933750Y-57350000D01*
X74146250Y-57350000D01*
X74356121Y-57316759D01*
X74558215Y-57251095D01*
X74747556Y-57154620D01*
X74801716Y-57115270D01*
X74169408Y-56482962D01*
X74232993Y-56465925D01*
X74347007Y-56400099D01*
X74440099Y-56307007D01*
X74505925Y-56192993D01*
X74522962Y-56129408D01*
X75155270Y-56761716D01*
X75194620Y-56707556D01*
X75291096Y-56518213D01*
X75320727Y-56427016D01*
X75356690Y-56377516D01*
X75414881Y-56358608D01*
X75473072Y-56377515D01*
X75509036Y-56427013D01*
X75513788Y-56441637D01*
X75594863Y-56600756D01*
X75596004Y-56602994D01*
X75702447Y-56749501D01*
X75830499Y-56877553D01*
X75977006Y-56983996D01*
X76138361Y-57066211D01*
X76310591Y-57122171D01*
X76382136Y-57133502D01*
X76489451Y-57150500D01*
X76489454Y-57150500D01*
X76670549Y-57150500D01*
X76759977Y-57136335D01*
X76849409Y-57122171D01*
X77021639Y-57066211D01*
X77182994Y-56983996D01*
X77329501Y-56877553D01*
X77457553Y-56749501D01*
X77563996Y-56602994D01*
X77646211Y-56441639D01*
X77702171Y-56269409D01*
X77717012Y-56175707D01*
X77730500Y-56090549D01*
X77730500Y-55909450D01*
X77702171Y-55730593D01*
X77702171Y-55730591D01*
X77646211Y-55558361D01*
X77563996Y-55397006D01*
X77457553Y-55250499D01*
X77329501Y-55122447D01*
X77182994Y-55016004D01*
X77182993Y-55016003D01*
X77182991Y-55016002D01*
X77021637Y-54933788D01*
X76849406Y-54877828D01*
X76670549Y-54849500D01*
X76670546Y-54849500D01*
X76489454Y-54849500D01*
X76489451Y-54849500D01*
X76310593Y-54877828D01*
X76138362Y-54933788D01*
X75977008Y-55016002D01*
X75914197Y-55061637D01*
X75830499Y-55122447D01*
X75702447Y-55250499D01*
X75675642Y-55287393D01*
X75596002Y-55397008D01*
X75513787Y-55558364D01*
X75513786Y-55558366D01*
X75509035Y-55572988D01*
X75473069Y-55622486D01*
X75414878Y-55641391D01*
X75356688Y-55622481D01*
X75320727Y-55572983D01*
X75291096Y-55481786D01*
X75194623Y-55292446D01*
X75194619Y-55292440D01*
X75155270Y-55238282D01*
X75155269Y-55238282D01*
X74522962Y-55870589D01*
X74505925Y-55807007D01*
X74440099Y-55692993D01*
X74347007Y-55599901D01*
X74232993Y-55534075D01*
X74169407Y-55517037D01*
X74801716Y-54884729D01*
X74801716Y-54884728D01*
X74747559Y-54845380D01*
X74747553Y-54845376D01*
X74558215Y-54748904D01*
X74356121Y-54683240D01*
X74146250Y-54650000D01*
X73933750Y-54650000D01*
X73723878Y-54683240D01*
X73521784Y-54748904D01*
X73332446Y-54845376D01*
X73332442Y-54845378D01*
X73278282Y-54884728D01*
X73910591Y-55517037D01*
X73847007Y-55534075D01*
X73732993Y-55599901D01*
X73639901Y-55692993D01*
X73574075Y-55807007D01*
X73557037Y-55870591D01*
X72924728Y-55238282D01*
X72885378Y-55292442D01*
X72885376Y-55292446D01*
X72837709Y-55385999D01*
X72794444Y-55429264D01*
X72734012Y-55438835D01*
X72679495Y-55411057D01*
X72651718Y-55356541D01*
X72650499Y-55341054D01*
X72650499Y-55105139D01*
X72650499Y-55105136D01*
X72647585Y-55080009D01*
X72602206Y-54977235D01*
X72522765Y-54897794D01*
X72419991Y-54852415D01*
X72419990Y-54852414D01*
X72419988Y-54852414D01*
X72394869Y-54849500D01*
X72394865Y-54849500D01*
X71999500Y-54849500D01*
X71941309Y-54830593D01*
X71905345Y-54781093D01*
X71900500Y-54750500D01*
X71900500Y-52515874D01*
X71900500Y-52515873D01*
X71873207Y-52414013D01*
X71873207Y-52414012D01*
X71873207Y-52414011D01*
X71820483Y-52322691D01*
X71820481Y-52322689D01*
X71820480Y-52322687D01*
X66602923Y-47105130D01*
X69849500Y-47105130D01*
X69849500Y-48894860D01*
X69849501Y-48894863D01*
X69852414Y-48919990D01*
X69877756Y-48977385D01*
X69897794Y-49022765D01*
X69977235Y-49102206D01*
X70080009Y-49147585D01*
X70105135Y-49150500D01*
X71894864Y-49150499D01*
X71919991Y-49147585D01*
X72022765Y-49102206D01*
X72102206Y-49022765D01*
X72147585Y-48919991D01*
X72150500Y-48894865D01*
X72150499Y-48658943D01*
X72169406Y-48600756D01*
X72218906Y-48564792D01*
X72280091Y-48564791D01*
X72329591Y-48600755D01*
X72337709Y-48614001D01*
X72385376Y-48707553D01*
X72385380Y-48707559D01*
X72424728Y-48761716D01*
X72424729Y-48761716D01*
X73057037Y-48129407D01*
X73074075Y-48192993D01*
X73139901Y-48307007D01*
X73232993Y-48400099D01*
X73347007Y-48465925D01*
X73410589Y-48482962D01*
X72778282Y-49115269D01*
X72778282Y-49115270D01*
X72832440Y-49154619D01*
X72832446Y-49154623D01*
X73021784Y-49251095D01*
X73223878Y-49316759D01*
X73433750Y-49350000D01*
X73646250Y-49350000D01*
X73856121Y-49316759D01*
X74058215Y-49251095D01*
X74247556Y-49154620D01*
X74301716Y-49115270D01*
X73669408Y-48482962D01*
X73732993Y-48465925D01*
X73847007Y-48400099D01*
X73940099Y-48307007D01*
X74005925Y-48192993D01*
X74022962Y-48129408D01*
X74655270Y-48761716D01*
X74694620Y-48707556D01*
X74791095Y-48518215D01*
X74856759Y-48316121D01*
X74890000Y-48106250D01*
X74890000Y-47893749D01*
X74856759Y-47683878D01*
X74791095Y-47481784D01*
X74694623Y-47292446D01*
X74694619Y-47292440D01*
X74655270Y-47238282D01*
X74655269Y-47238282D01*
X74022962Y-47870589D01*
X74005925Y-47807007D01*
X73940099Y-47692993D01*
X73847007Y-47599901D01*
X73732993Y-47534075D01*
X73669407Y-47517037D01*
X74301716Y-46884729D01*
X74301716Y-46884728D01*
X74247559Y-46845380D01*
X74247553Y-46845376D01*
X74058215Y-46748904D01*
X73856121Y-46683240D01*
X73646250Y-46650000D01*
X73433750Y-46650000D01*
X73223878Y-46683240D01*
X73021784Y-46748904D01*
X72832446Y-46845376D01*
X72832442Y-46845378D01*
X72778282Y-46884728D01*
X73410591Y-47517037D01*
X73347007Y-47534075D01*
X73232993Y-47599901D01*
X73139901Y-47692993D01*
X73074075Y-47807007D01*
X73057037Y-47870591D01*
X72424728Y-47238282D01*
X72385378Y-47292442D01*
X72385376Y-47292446D01*
X72337709Y-47385999D01*
X72294444Y-47429264D01*
X72234012Y-47438835D01*
X72179495Y-47411057D01*
X72151718Y-47356541D01*
X72150499Y-47341054D01*
X72150499Y-47105139D01*
X72150499Y-47105136D01*
X72147585Y-47080009D01*
X72102206Y-46977235D01*
X72022765Y-46897794D01*
X71919991Y-46852415D01*
X71919990Y-46852414D01*
X71919988Y-46852414D01*
X71894869Y-46849500D01*
X71894865Y-46849500D01*
X71887042Y-46849500D01*
X71828851Y-46830593D01*
X71792887Y-46781093D01*
X71792887Y-46719907D01*
X71817038Y-46680496D01*
X72217953Y-46279581D01*
X73960520Y-44537016D01*
X74039577Y-44400084D01*
X74080501Y-44247357D01*
X74080501Y-44089242D01*
X74080501Y-44083180D01*
X74080500Y-44083162D01*
X74080500Y-8036251D01*
X74099407Y-7978060D01*
X74121306Y-7956160D01*
X74229501Y-7877553D01*
X74357553Y-7749501D01*
X74463996Y-7602994D01*
X74546211Y-7441639D01*
X74550962Y-7427018D01*
X74586924Y-7377517D01*
X74645115Y-7358608D01*
X74703306Y-7377514D01*
X74739271Y-7427013D01*
X74739272Y-7427015D01*
X74768904Y-7518215D01*
X74865376Y-7707553D01*
X74865380Y-7707559D01*
X74904728Y-7761716D01*
X74904729Y-7761716D01*
X75537037Y-7129407D01*
X75554075Y-7192993D01*
X75619901Y-7307007D01*
X75712993Y-7400099D01*
X75827007Y-7465925D01*
X75890589Y-7482962D01*
X75258282Y-8115269D01*
X75258282Y-8115270D01*
X75312440Y-8154619D01*
X75312446Y-8154623D01*
X75501784Y-8251095D01*
X75703878Y-8316759D01*
X75913750Y-8350000D01*
X76126250Y-8350000D01*
X76336121Y-8316759D01*
X76538215Y-8251095D01*
X76727556Y-8154620D01*
X76781716Y-8115270D01*
X76149408Y-7482962D01*
X76212993Y-7465925D01*
X76327007Y-7400099D01*
X76420099Y-7307007D01*
X76485925Y-7192993D01*
X76502962Y-7129408D01*
X77135270Y-7761716D01*
X77174620Y-7707556D01*
X77271095Y-7518215D01*
X77336759Y-7316121D01*
X77370000Y-7106250D01*
X77370000Y-6893749D01*
X77336759Y-6683878D01*
X77271095Y-6481784D01*
X77174623Y-6292446D01*
X77174619Y-6292440D01*
X77135270Y-6238282D01*
X77135269Y-6238282D01*
X76502962Y-6870589D01*
X76485925Y-6807007D01*
X76420099Y-6692993D01*
X76327007Y-6599901D01*
X76212993Y-6534075D01*
X76149407Y-6517037D01*
X76781716Y-5884729D01*
X76781716Y-5884728D01*
X76727559Y-5845380D01*
X76727553Y-5845376D01*
X76538215Y-5748904D01*
X76336121Y-5683240D01*
X76126250Y-5650000D01*
X75913750Y-5650000D01*
X75703878Y-5683240D01*
X75501784Y-5748904D01*
X75312446Y-5845376D01*
X75312442Y-5845378D01*
X75258282Y-5884728D01*
X75890591Y-6517037D01*
X75827007Y-6534075D01*
X75712993Y-6599901D01*
X75619901Y-6692993D01*
X75554075Y-6807007D01*
X75537037Y-6870591D01*
X74904728Y-6238282D01*
X74865378Y-6292442D01*
X74865376Y-6292446D01*
X74768904Y-6481784D01*
X74739272Y-6572984D01*
X74703308Y-6622484D01*
X74645117Y-6641391D01*
X74586926Y-6622484D01*
X74550962Y-6572984D01*
X74550962Y-6572983D01*
X74549824Y-6569483D01*
X74546211Y-6558361D01*
X74463996Y-6397006D01*
X74357553Y-6250499D01*
X74229501Y-6122447D01*
X74082994Y-6016004D01*
X74082990Y-6016001D01*
X74082988Y-6016000D01*
X74072527Y-6010670D01*
X74072526Y-6010670D01*
X73921637Y-5933788D01*
X73749406Y-5877828D01*
X73570549Y-5849500D01*
X73570546Y-5849500D01*
X73389454Y-5849500D01*
X73389451Y-5849500D01*
X73210593Y-5877828D01*
X73038362Y-5933788D01*
X72877008Y-6016002D01*
X72803752Y-6069225D01*
X72730499Y-6122447D01*
X72602447Y-6250499D01*
X72571975Y-6292440D01*
X72496002Y-6397008D01*
X72413788Y-6558362D01*
X72357828Y-6730593D01*
X72329500Y-6909450D01*
X72329500Y-7090549D01*
X72357828Y-7269406D01*
X72413788Y-7441637D01*
X72494863Y-7600756D01*
X72496004Y-7602994D01*
X72602447Y-7749501D01*
X72730499Y-7877553D01*
X72838692Y-7956159D01*
X72874655Y-8005658D01*
X72879500Y-8036251D01*
X72879500Y-43878556D01*
X72860593Y-43936747D01*
X72850504Y-43948560D01*
X70631286Y-46167778D01*
X70631284Y-46167780D01*
X70631283Y-46167779D01*
X70519482Y-46279581D01*
X70519480Y-46279583D01*
X70519480Y-46279584D01*
X70487198Y-46335500D01*
X70477207Y-46352805D01*
X70477206Y-46352806D01*
X70440424Y-46416511D01*
X70440423Y-46416515D01*
X70399499Y-46569243D01*
X70399499Y-46569245D01*
X70399499Y-46735331D01*
X70399500Y-46735344D01*
X70399500Y-46750500D01*
X70380593Y-46808691D01*
X70331093Y-46844655D01*
X70300500Y-46849500D01*
X70105140Y-46849500D01*
X70105135Y-46849501D01*
X70080009Y-46852414D01*
X69977235Y-46897794D01*
X69897794Y-46977235D01*
X69852414Y-47080011D01*
X69849500Y-47105130D01*
X66602923Y-47105130D01*
X53823936Y-34326143D01*
X56484300Y-34326143D01*
X56484300Y-34484257D01*
X56525223Y-34636984D01*
X56604280Y-34773916D01*
X56716084Y-34885720D01*
X56853016Y-34964777D01*
X57005743Y-35005700D01*
X57005745Y-35005700D01*
X57163855Y-35005700D01*
X57163857Y-35005700D01*
X57316584Y-34964777D01*
X57453516Y-34885720D01*
X57565320Y-34773916D01*
X57644377Y-34636984D01*
X57685300Y-34484257D01*
X57685300Y-34326143D01*
X57644377Y-34173416D01*
X57565320Y-34036484D01*
X57453516Y-33924680D01*
X57316584Y-33845623D01*
X57163857Y-33804700D01*
X57005743Y-33804700D01*
X56853016Y-33845623D01*
X56716084Y-33924680D01*
X56604280Y-34036484D01*
X56525223Y-34173416D01*
X56484300Y-34326143D01*
X53823936Y-34326143D01*
X53022027Y-33524234D01*
X69064500Y-33524234D01*
X69064500Y-33675766D01*
X69082987Y-33744760D01*
X69103720Y-33822139D01*
X69179481Y-33953360D01*
X69179483Y-33953362D01*
X69179485Y-33953365D01*
X69286635Y-34060515D01*
X69286637Y-34060516D01*
X69286639Y-34060518D01*
X69417861Y-34136279D01*
X69417859Y-34136279D01*
X69417863Y-34136280D01*
X69417865Y-34136281D01*
X69564234Y-34175500D01*
X69564236Y-34175500D01*
X69600171Y-34175500D01*
X69658362Y-34194407D01*
X69694326Y-34243907D01*
X69697269Y-34255186D01*
X69724586Y-34392519D01*
X69724586Y-34392521D01*
X69792429Y-34556308D01*
X69890923Y-34703715D01*
X70016284Y-34829076D01*
X70163691Y-34927570D01*
X70327479Y-34995413D01*
X70501355Y-35029999D01*
X70501359Y-35030000D01*
X70639999Y-35030000D01*
X70640000Y-35029999D01*
X70640000Y-34380000D01*
X71140001Y-34380000D01*
X71140000Y-34380001D01*
X71140000Y-35029999D01*
X71140001Y-35030000D01*
X71278641Y-35030000D01*
X71278644Y-35029999D01*
X71452519Y-34995413D01*
X71452521Y-34995413D01*
X71616308Y-34927570D01*
X71763715Y-34829076D01*
X71889076Y-34703715D01*
X71987569Y-34556310D01*
X72055413Y-34392523D01*
X72057904Y-34380000D01*
X71239728Y-34380000D01*
X71331614Y-34341940D01*
X71401940Y-34271614D01*
X71440000Y-34179728D01*
X71440000Y-34080272D01*
X71401940Y-33988386D01*
X71331614Y-33918060D01*
X71239728Y-33880000D01*
X72057904Y-33880000D01*
X72055413Y-33867476D01*
X71987569Y-33703689D01*
X71889076Y-33556284D01*
X71763715Y-33430923D01*
X71616308Y-33332429D01*
X71452520Y-33264586D01*
X71278644Y-33230000D01*
X71188765Y-33230000D01*
X71140000Y-33270482D01*
X71140000Y-33879999D01*
X71140001Y-33880000D01*
X70640000Y-33880000D01*
X70640000Y-33503554D01*
X69555017Y-32418571D01*
X69496704Y-32559354D01*
X69496704Y-32559356D01*
X69465000Y-32718742D01*
X69465000Y-32881260D01*
X69479092Y-32952107D01*
X69471900Y-33012868D01*
X69430366Y-33057798D01*
X69419881Y-33062883D01*
X69417865Y-33063717D01*
X69286639Y-33139481D01*
X69179481Y-33246639D01*
X69103720Y-33377860D01*
X69089502Y-33430923D01*
X69064500Y-33524234D01*
X53022027Y-33524234D01*
X51409836Y-31912043D01*
X56690000Y-31912043D01*
X56690000Y-32070157D01*
X56730923Y-32222884D01*
X56809980Y-32359816D01*
X56921784Y-32471620D01*
X57058716Y-32550677D01*
X57211443Y-32591600D01*
X57211445Y-32591600D01*
X57369555Y-32591600D01*
X57369557Y-32591600D01*
X57522284Y-32550677D01*
X57659216Y-32471620D01*
X57771020Y-32359816D01*
X57850077Y-32222884D01*
X57891000Y-32070157D01*
X57891000Y-31912043D01*
X57850077Y-31759316D01*
X57771020Y-31622384D01*
X57659216Y-31510580D01*
X57522284Y-31431523D01*
X57369557Y-31390600D01*
X57211443Y-31390600D01*
X57058716Y-31431523D01*
X56921784Y-31510580D01*
X56809980Y-31622384D01*
X56730923Y-31759316D01*
X56690000Y-31912043D01*
X51409836Y-31912043D01*
X49500536Y-30002743D01*
X51806100Y-30002743D01*
X51806100Y-30160857D01*
X51847023Y-30313584D01*
X51926080Y-30450516D01*
X52037884Y-30562320D01*
X52174816Y-30641377D01*
X52327543Y-30682300D01*
X52327545Y-30682300D01*
X52485655Y-30682300D01*
X52485657Y-30682300D01*
X52638384Y-30641377D01*
X52775316Y-30562320D01*
X52887120Y-30450516D01*
X52966177Y-30313584D01*
X53007100Y-30160857D01*
X53007100Y-30002743D01*
X53007073Y-30002643D01*
X53991200Y-30002643D01*
X53991200Y-30160757D01*
X54032123Y-30313484D01*
X54111180Y-30450416D01*
X54222984Y-30562220D01*
X54359916Y-30641277D01*
X54512643Y-30682200D01*
X54512645Y-30682200D01*
X54670755Y-30682200D01*
X54670757Y-30682200D01*
X54823484Y-30641277D01*
X54960416Y-30562220D01*
X55072220Y-30450416D01*
X55151277Y-30313484D01*
X55192200Y-30160757D01*
X55192200Y-30002643D01*
X55151277Y-29849916D01*
X55105394Y-29770443D01*
X63163100Y-29770443D01*
X63163100Y-29928557D01*
X63204023Y-30081284D01*
X63283080Y-30218216D01*
X63394884Y-30330020D01*
X63531816Y-30409077D01*
X63684543Y-30450000D01*
X63756699Y-30450000D01*
X63814890Y-30468907D01*
X63826702Y-30478996D01*
X63969086Y-30621379D01*
X63969091Y-30621383D01*
X64060408Y-30674105D01*
X64060406Y-30674105D01*
X64060410Y-30674106D01*
X64060412Y-30674107D01*
X64162273Y-30701400D01*
X64267727Y-30701400D01*
X67469900Y-30701400D01*
X67528091Y-30720307D01*
X67564055Y-30769807D01*
X67568900Y-30800400D01*
X67568900Y-30931757D01*
X67609823Y-31084484D01*
X67688880Y-31221416D01*
X67800684Y-31333220D01*
X67937616Y-31412277D01*
X68090343Y-31453200D01*
X68090345Y-31453200D01*
X68248455Y-31453200D01*
X68248457Y-31453200D01*
X68401184Y-31412277D01*
X68538116Y-31333220D01*
X68649920Y-31221416D01*
X68728977Y-31084484D01*
X68769900Y-30931757D01*
X68769900Y-30800400D01*
X68788807Y-30742209D01*
X68838307Y-30706245D01*
X68868900Y-30701400D01*
X69685655Y-30701400D01*
X69743846Y-30720307D01*
X69779810Y-30769807D01*
X69779810Y-30830993D01*
X69767971Y-30855399D01*
X69754525Y-30875523D01*
X69735688Y-30903715D01*
X69688536Y-31017549D01*
X69664500Y-31138391D01*
X69664500Y-31261608D01*
X69688536Y-31382450D01*
X69735688Y-31496285D01*
X69735689Y-31496286D01*
X69804142Y-31598733D01*
X69891267Y-31685858D01*
X69993714Y-31754311D01*
X70107548Y-31801463D01*
X70107553Y-31801464D01*
X70112206Y-31802876D01*
X70111769Y-31804314D01*
X70159584Y-31831076D01*
X70185213Y-31886635D01*
X70173291Y-31946648D01*
X70128371Y-31988191D01*
X70106218Y-31995392D01*
X70049362Y-32006702D01*
X70049354Y-32006704D01*
X69908571Y-32065017D01*
X69908571Y-32065018D01*
X70357997Y-32514443D01*
X70385092Y-32565132D01*
X70388537Y-32582453D01*
X70412041Y-32639198D01*
X70403291Y-32630448D01*
X70329782Y-32600000D01*
X70250218Y-32600000D01*
X70176709Y-32630448D01*
X70120448Y-32686709D01*
X70090000Y-32760218D01*
X70090000Y-32839782D01*
X70120448Y-32913291D01*
X70176709Y-32969552D01*
X70250218Y-33000000D01*
X70329782Y-33000000D01*
X70403291Y-32969552D01*
X70459552Y-32913291D01*
X70490000Y-32839782D01*
X70490000Y-32777568D01*
X70504142Y-32798733D01*
X70591267Y-32885858D01*
X70693714Y-32954311D01*
X70807548Y-33001463D01*
X70824863Y-33004907D01*
X70875553Y-33032001D01*
X70968552Y-33124999D01*
X70968553Y-33125000D01*
X71005262Y-33125000D01*
X71070938Y-33070478D01*
X71072726Y-33066163D01*
X71112461Y-33019635D01*
X71144876Y-33006947D01*
X71172452Y-33001463D01*
X71286286Y-32954311D01*
X71388733Y-32885858D01*
X71475858Y-32798733D01*
X71544311Y-32696286D01*
X71591463Y-32582452D01*
X71615500Y-32461606D01*
X71615500Y-32338394D01*
X71591463Y-32217548D01*
X71544311Y-32103714D01*
X71511761Y-32055000D01*
X71495153Y-31996114D01*
X71511761Y-31944999D01*
X71544311Y-31896286D01*
X71591463Y-31782452D01*
X71615500Y-31661606D01*
X71615500Y-31538394D01*
X71591463Y-31417548D01*
X71544311Y-31303714D01*
X71511761Y-31255000D01*
X71495153Y-31196114D01*
X71511761Y-31144999D01*
X71544311Y-31096286D01*
X71591463Y-30982452D01*
X71615500Y-30861606D01*
X71615500Y-30738394D01*
X71591463Y-30617548D01*
X71544311Y-30503714D01*
X71475858Y-30401267D01*
X71388733Y-30314142D01*
X71308873Y-30260781D01*
X71286285Y-30245688D01*
X71172450Y-30198536D01*
X71051608Y-30174500D01*
X71051606Y-30174500D01*
X70939781Y-30174500D01*
X70881590Y-30155593D01*
X70848316Y-30113384D01*
X70845361Y-30106250D01*
X70844311Y-30103714D01*
X70811761Y-30055000D01*
X70795153Y-29996114D01*
X70811763Y-29944997D01*
X70822750Y-29928555D01*
X70844311Y-29896286D01*
X70848316Y-29886615D01*
X70888052Y-29840090D01*
X70939781Y-29825500D01*
X71051604Y-29825500D01*
X71051606Y-29825500D01*
X71172452Y-29801463D01*
X71286286Y-29754311D01*
X71388733Y-29685858D01*
X71475858Y-29598733D01*
X71544311Y-29496286D01*
X71591463Y-29382452D01*
X71615500Y-29261606D01*
X71615500Y-29138394D01*
X71591463Y-29017548D01*
X71544311Y-28903714D01*
X71511761Y-28855000D01*
X71495153Y-28796114D01*
X71511761Y-28744999D01*
X71544311Y-28696286D01*
X71591463Y-28582452D01*
X71615500Y-28461606D01*
X71615500Y-28338394D01*
X71591463Y-28217548D01*
X71544311Y-28103714D01*
X71511761Y-28055000D01*
X71495153Y-27996114D01*
X71511761Y-27944999D01*
X71544311Y-27896286D01*
X71591463Y-27782452D01*
X71615500Y-27661606D01*
X71615500Y-27538394D01*
X71591463Y-27417548D01*
X71544311Y-27303714D01*
X71475858Y-27201267D01*
X71388733Y-27114142D01*
X71320279Y-27068402D01*
X71286285Y-27045688D01*
X71172455Y-26998538D01*
X71172449Y-26998536D01*
X71144877Y-26993052D01*
X71095126Y-26966883D01*
X71000764Y-26875000D01*
X70968552Y-26875000D01*
X70875553Y-26967998D01*
X70824867Y-26995091D01*
X70807552Y-26998535D01*
X70807549Y-26998536D01*
X70693714Y-27045688D01*
X70591267Y-27114142D01*
X70591263Y-27114145D01*
X70504142Y-27201266D01*
X70490000Y-27222430D01*
X70490000Y-27160218D01*
X70459552Y-27086709D01*
X70403291Y-27030448D01*
X70331628Y-27000764D01*
X70371548Y-26941021D01*
X70433776Y-26790789D01*
X70449798Y-26710240D01*
X70476892Y-26659552D01*
X70639999Y-26496446D01*
X70640000Y-26496445D01*
X70640000Y-26120000D01*
X71140001Y-26120000D01*
X71140000Y-26120001D01*
X71140000Y-26734219D01*
X71176746Y-26770000D01*
X71278641Y-26770000D01*
X71278644Y-26769999D01*
X71452519Y-26735413D01*
X71452521Y-26735413D01*
X71616308Y-26667570D01*
X71763715Y-26569076D01*
X71889076Y-26443715D01*
X71987569Y-26296310D01*
X72055413Y-26132523D01*
X72057904Y-26120000D01*
X71239728Y-26120000D01*
X71331614Y-26081940D01*
X71401940Y-26011614D01*
X71440000Y-25919728D01*
X71440000Y-25820272D01*
X71401940Y-25728386D01*
X71331614Y-25658060D01*
X71239728Y-25620000D01*
X72057904Y-25620000D01*
X72055413Y-25607476D01*
X71987569Y-25443689D01*
X71889076Y-25296284D01*
X71763715Y-25170923D01*
X71616308Y-25072429D01*
X71452520Y-25004586D01*
X71278644Y-24970000D01*
X71140001Y-24970000D01*
X71140000Y-24970001D01*
X71140000Y-25619999D01*
X71140001Y-25620000D01*
X70640000Y-25620000D01*
X70640000Y-24970001D01*
X70639999Y-24970000D01*
X70501355Y-24970000D01*
X70327480Y-25004586D01*
X70327478Y-25004586D01*
X70163691Y-25072429D01*
X70016281Y-25170925D01*
X69890927Y-25296278D01*
X69832153Y-25384238D01*
X69784102Y-25422116D01*
X69730528Y-25426334D01*
X69721307Y-25424500D01*
X69721305Y-25424500D01*
X69558695Y-25424500D01*
X69558694Y-25424500D01*
X69399213Y-25456223D01*
X69288209Y-25502202D01*
X69227212Y-25507001D01*
X69175043Y-25475031D01*
X69151629Y-25418503D01*
X69163177Y-25367485D01*
X69162194Y-25367078D01*
X69164565Y-25361353D01*
X69164593Y-25361228D01*
X69164677Y-25361084D01*
X69205600Y-25208357D01*
X69205600Y-25050243D01*
X69164677Y-24897516D01*
X69085620Y-24760584D01*
X68973816Y-24648780D01*
X68836884Y-24569723D01*
X68684157Y-24528800D01*
X68526043Y-24528800D01*
X68373316Y-24569723D01*
X68236384Y-24648780D01*
X68124580Y-24760584D01*
X68045523Y-24897516D01*
X68004600Y-25050243D01*
X68004600Y-25208357D01*
X68045523Y-25361084D01*
X68124580Y-25498016D01*
X68175605Y-25549041D01*
X68203381Y-25603556D01*
X68204600Y-25619043D01*
X68204600Y-26740299D01*
X68185693Y-26798490D01*
X68136193Y-26834454D01*
X68075007Y-26834454D01*
X68035596Y-26810303D01*
X67417745Y-26192452D01*
X67389968Y-26137935D01*
X67399539Y-26077503D01*
X67401990Y-26072987D01*
X67470177Y-25954884D01*
X67511100Y-25802157D01*
X67511100Y-25644043D01*
X67470177Y-25491316D01*
X67391120Y-25354384D01*
X67279316Y-25242580D01*
X67142384Y-25163523D01*
X66989657Y-25122600D01*
X66831543Y-25122600D01*
X66678816Y-25163523D01*
X66541884Y-25242580D01*
X66430080Y-25354384D01*
X66351023Y-25491316D01*
X66310100Y-25644043D01*
X66310100Y-25802157D01*
X66351023Y-25954884D01*
X66430080Y-26091816D01*
X66481105Y-26142841D01*
X66508881Y-26197356D01*
X66510100Y-26212843D01*
X66510100Y-26304427D01*
X66513152Y-26315816D01*
X66537394Y-26406292D01*
X66590116Y-26497608D01*
X66590118Y-26497610D01*
X66590120Y-26497613D01*
X69635505Y-29542998D01*
X69663281Y-29597513D01*
X69664500Y-29613000D01*
X69664500Y-29661610D01*
X69688464Y-29782087D01*
X69681272Y-29842848D01*
X69639739Y-29887777D01*
X69591366Y-29900400D01*
X64463100Y-29900400D01*
X64404909Y-29881493D01*
X64368945Y-29831993D01*
X64364100Y-29801400D01*
X64364100Y-29770444D01*
X64364100Y-29770443D01*
X64323177Y-29617716D01*
X64244120Y-29480784D01*
X64219393Y-29456057D01*
X64193096Y-29429759D01*
X64165319Y-29375242D01*
X64164100Y-29359756D01*
X64164100Y-26776301D01*
X64183007Y-26718110D01*
X64193096Y-26706297D01*
X67192897Y-23706496D01*
X67247414Y-23678719D01*
X67262901Y-23677500D01*
X67335055Y-23677500D01*
X67335057Y-23677500D01*
X67487784Y-23636577D01*
X67624716Y-23557520D01*
X67736520Y-23445716D01*
X67815577Y-23308784D01*
X67856500Y-23156057D01*
X67856500Y-22997943D01*
X67815577Y-22845216D01*
X67736520Y-22708284D01*
X67624716Y-22596480D01*
X67487784Y-22517423D01*
X67335057Y-22476500D01*
X67176943Y-22476500D01*
X67058551Y-22508223D01*
X67024216Y-22517423D01*
X66887284Y-22596480D01*
X66775480Y-22708284D01*
X66696423Y-22845216D01*
X66655500Y-22997944D01*
X66655500Y-23070099D01*
X66636593Y-23128290D01*
X66626504Y-23140103D01*
X63443116Y-26323491D01*
X63390394Y-26414808D01*
X63390392Y-26414812D01*
X63381850Y-26446689D01*
X63381851Y-26446690D01*
X63363100Y-26516673D01*
X63363100Y-29359756D01*
X63344193Y-29417947D01*
X63334104Y-29429759D01*
X63283082Y-29480781D01*
X63283080Y-29480783D01*
X63283080Y-29480784D01*
X63204023Y-29617716D01*
X63163100Y-29770443D01*
X55105394Y-29770443D01*
X55072220Y-29712984D01*
X54960416Y-29601180D01*
X54823484Y-29522123D01*
X54670757Y-29481200D01*
X54512643Y-29481200D01*
X54359916Y-29522123D01*
X54222984Y-29601180D01*
X54111180Y-29712984D01*
X54032123Y-29849916D01*
X53991200Y-30002643D01*
X53007073Y-30002643D01*
X52966177Y-29850016D01*
X52887120Y-29713084D01*
X52775316Y-29601280D01*
X52638384Y-29522223D01*
X52485657Y-29481300D01*
X52327543Y-29481300D01*
X52174816Y-29522223D01*
X52037884Y-29601280D01*
X51926080Y-29713084D01*
X51847023Y-29850016D01*
X51806100Y-30002743D01*
X49500536Y-30002743D01*
X46594736Y-27096943D01*
X51659600Y-27096943D01*
X51659600Y-27255057D01*
X51700523Y-27407784D01*
X51779580Y-27544716D01*
X51891384Y-27656520D01*
X52028316Y-27735577D01*
X52181043Y-27776500D01*
X52181045Y-27776500D01*
X52339155Y-27776500D01*
X52339157Y-27776500D01*
X52491884Y-27735577D01*
X52628816Y-27656520D01*
X52740620Y-27544716D01*
X52819677Y-27407784D01*
X52860600Y-27255057D01*
X52860600Y-27096943D01*
X52819677Y-26944216D01*
X52740620Y-26807284D01*
X52628816Y-26695480D01*
X52491884Y-26616423D01*
X52339157Y-26575500D01*
X52181043Y-26575500D01*
X52028316Y-26616423D01*
X51891384Y-26695480D01*
X51779580Y-26807284D01*
X51700523Y-26944216D01*
X51659600Y-27096943D01*
X46594736Y-27096943D01*
X46108496Y-26610703D01*
X46080719Y-26556186D01*
X46079500Y-26540699D01*
X46079500Y-26468544D01*
X46074251Y-26448955D01*
X46038577Y-26315816D01*
X45959520Y-26178884D01*
X45847716Y-26067080D01*
X45710784Y-25988023D01*
X45558057Y-25947100D01*
X45399943Y-25947100D01*
X45247216Y-25988023D01*
X45110284Y-26067080D01*
X45067001Y-26110362D01*
X45012487Y-26138138D01*
X44952055Y-26128567D01*
X44908790Y-26085302D01*
X44898000Y-26040357D01*
X44898000Y-24762543D01*
X46168500Y-24762543D01*
X46168500Y-24920657D01*
X46209423Y-25073384D01*
X46284563Y-25203532D01*
X46297284Y-25263379D01*
X46284564Y-25302528D01*
X46246542Y-25368386D01*
X46243523Y-25373616D01*
X46202600Y-25526343D01*
X46202600Y-25684457D01*
X46243523Y-25837184D01*
X46322580Y-25974116D01*
X46434384Y-26085920D01*
X46571316Y-26164977D01*
X46724043Y-26205900D01*
X46724045Y-26205900D01*
X46882155Y-26205900D01*
X46882157Y-26205900D01*
X47034884Y-26164977D01*
X47171816Y-26085920D01*
X47283620Y-25974116D01*
X47362677Y-25837184D01*
X47403600Y-25684457D01*
X47403600Y-25526343D01*
X47362677Y-25373616D01*
X47287535Y-25243466D01*
X47274815Y-25183619D01*
X47287534Y-25144471D01*
X47328577Y-25073384D01*
X47369500Y-24920657D01*
X47369500Y-24804343D01*
X48649400Y-24804343D01*
X48649400Y-24962457D01*
X48690323Y-25115184D01*
X48769380Y-25252116D01*
X48881184Y-25363920D01*
X49018116Y-25442977D01*
X49170843Y-25483900D01*
X49170845Y-25483900D01*
X49328955Y-25483900D01*
X49328957Y-25483900D01*
X49481684Y-25442977D01*
X49618616Y-25363920D01*
X49730420Y-25252116D01*
X49809477Y-25115184D01*
X49850400Y-24962457D01*
X49850400Y-24804343D01*
X49809477Y-24651616D01*
X49730420Y-24514684D01*
X49618616Y-24402880D01*
X49481684Y-24323823D01*
X49328957Y-24282900D01*
X49170843Y-24282900D01*
X49018116Y-24323823D01*
X48881184Y-24402880D01*
X48769380Y-24514684D01*
X48690323Y-24651616D01*
X48649400Y-24804343D01*
X47369500Y-24804343D01*
X47369500Y-24762543D01*
X47328577Y-24609816D01*
X47249520Y-24472884D01*
X47137716Y-24361080D01*
X47000784Y-24282023D01*
X46848057Y-24241100D01*
X46689943Y-24241100D01*
X46537216Y-24282023D01*
X46400284Y-24361080D01*
X46288480Y-24472884D01*
X46209423Y-24609816D01*
X46168500Y-24762543D01*
X44898000Y-24762543D01*
X44898000Y-23629001D01*
X44916907Y-23570810D01*
X44926996Y-23558997D01*
X48686897Y-19799096D01*
X48741414Y-19771319D01*
X48756901Y-19770100D01*
X48829055Y-19770100D01*
X48829057Y-19770100D01*
X48981784Y-19729177D01*
X49118716Y-19650120D01*
X49230520Y-19538316D01*
X49309577Y-19401384D01*
X49350500Y-19248657D01*
X49350500Y-19090543D01*
X49309577Y-18937816D01*
X49230520Y-18800884D01*
X49118716Y-18689080D01*
X48981784Y-18610023D01*
X48829057Y-18569100D01*
X48670943Y-18569100D01*
X48518216Y-18610023D01*
X48381284Y-18689080D01*
X48269480Y-18800884D01*
X48190423Y-18937816D01*
X48149501Y-19090542D01*
X48149500Y-19090544D01*
X48149500Y-19162699D01*
X48130593Y-19220890D01*
X48120503Y-19232703D01*
X48015007Y-19338198D01*
X47960491Y-19365975D01*
X47900059Y-19356403D01*
X47856794Y-19313139D01*
X47847223Y-19252707D01*
X47849379Y-19242566D01*
X47850400Y-19238757D01*
X47850400Y-19080643D01*
X47809477Y-18927916D01*
X47730420Y-18790984D01*
X47618616Y-18679180D01*
X47481684Y-18600123D01*
X47328957Y-18559200D01*
X47170843Y-18559200D01*
X47018116Y-18600123D01*
X47018114Y-18600123D01*
X47018114Y-18600124D01*
X47018111Y-18600125D01*
X46976939Y-18623895D01*
X46917091Y-18636615D01*
X46861196Y-18611728D01*
X46830604Y-18558740D01*
X46837001Y-18497889D01*
X46857434Y-18468157D01*
X50696881Y-14628710D01*
X53399500Y-14628710D01*
X53399500Y-14871289D01*
X53431161Y-15111781D01*
X53431161Y-15111786D01*
X53439523Y-15142994D01*
X53478780Y-15289502D01*
X53493944Y-15346092D01*
X53493948Y-15346105D01*
X53586772Y-15570204D01*
X53586774Y-15570208D01*
X53586776Y-15570212D01*
X53708064Y-15780289D01*
X53708066Y-15780292D01*
X53855729Y-15972731D01*
X53855731Y-15972733D01*
X53855735Y-15972738D01*
X54027262Y-16144265D01*
X54027266Y-16144268D01*
X54027268Y-16144270D01*
X54197604Y-16274973D01*
X54219711Y-16291936D01*
X54429788Y-16413224D01*
X54653900Y-16506054D01*
X54888211Y-16568838D01*
X55128712Y-16600500D01*
X55128713Y-16600500D01*
X55371287Y-16600500D01*
X55371288Y-16600500D01*
X55611789Y-16568838D01*
X55846100Y-16506054D01*
X56070212Y-16413224D01*
X56280289Y-16291936D01*
X56472738Y-16144265D01*
X56644265Y-15972738D01*
X56791936Y-15780289D01*
X56913224Y-15570212D01*
X57006054Y-15346100D01*
X57068838Y-15111789D01*
X57100500Y-14871288D01*
X57100500Y-14628712D01*
X57068838Y-14388211D01*
X57006054Y-14153900D01*
X56913224Y-13929788D01*
X56791936Y-13719711D01*
X56791933Y-13719707D01*
X56644270Y-13527268D01*
X56644268Y-13527266D01*
X56644265Y-13527262D01*
X56472738Y-13355735D01*
X56472733Y-13355731D01*
X56472731Y-13355729D01*
X56280292Y-13208066D01*
X56276963Y-13206144D01*
X56070212Y-13086776D01*
X56070208Y-13086774D01*
X56070204Y-13086772D01*
X55846105Y-12993948D01*
X55846104Y-12993947D01*
X55846100Y-12993946D01*
X55611789Y-12931162D01*
X55611786Y-12931161D01*
X55611784Y-12931161D01*
X55371289Y-12899500D01*
X55371288Y-12899500D01*
X55128712Y-12899500D01*
X55128710Y-12899500D01*
X54888218Y-12931161D01*
X54888213Y-12931161D01*
X54653907Y-12993944D01*
X54653894Y-12993948D01*
X54429795Y-13086772D01*
X54219707Y-13208066D01*
X54027268Y-13355729D01*
X53855729Y-13527268D01*
X53708066Y-13719707D01*
X53586772Y-13929795D01*
X53493948Y-14153894D01*
X53493944Y-14153907D01*
X53431161Y-14388213D01*
X53431161Y-14388218D01*
X53399500Y-14628710D01*
X50696881Y-14628710D01*
X57406120Y-7919471D01*
X57460635Y-7891696D01*
X57521067Y-7901267D01*
X57534308Y-7909381D01*
X57597087Y-7954993D01*
X57628835Y-7978060D01*
X57637006Y-7983996D01*
X57798361Y-8066211D01*
X57970591Y-8122171D01*
X58042136Y-8133502D01*
X58149451Y-8150500D01*
X58149454Y-8150500D01*
X58330549Y-8150500D01*
X58419977Y-8136335D01*
X58509409Y-8122171D01*
X58681639Y-8066211D01*
X58842994Y-7983996D01*
X58989501Y-7877553D01*
X59117553Y-7749501D01*
X59223996Y-7602994D01*
X59306211Y-7441639D01*
X59362171Y-7269409D01*
X59388013Y-7106250D01*
X59390500Y-7090549D01*
X59390500Y-6909450D01*
X59629500Y-6909450D01*
X59629500Y-7090549D01*
X59657828Y-7269406D01*
X59713788Y-7441637D01*
X59794863Y-7600756D01*
X59796004Y-7602994D01*
X59902447Y-7749501D01*
X60030499Y-7877553D01*
X60177006Y-7983996D01*
X60338361Y-8066211D01*
X60510591Y-8122171D01*
X60582136Y-8133502D01*
X60689451Y-8150500D01*
X60689454Y-8150500D01*
X60870549Y-8150500D01*
X60959977Y-8136335D01*
X61049409Y-8122171D01*
X61221639Y-8066211D01*
X61382994Y-7983996D01*
X61529501Y-7877553D01*
X61657553Y-7749501D01*
X61763996Y-7602994D01*
X61846211Y-7441639D01*
X61902171Y-7269409D01*
X61928013Y-7106250D01*
X61930500Y-7090549D01*
X61930500Y-6909450D01*
X62169500Y-6909450D01*
X62169500Y-7090549D01*
X62197828Y-7269406D01*
X62253788Y-7441637D01*
X62334863Y-7600756D01*
X62336004Y-7602994D01*
X62442447Y-7749501D01*
X62570499Y-7877553D01*
X62717006Y-7983996D01*
X62878361Y-8066211D01*
X63050591Y-8122171D01*
X63122136Y-8133502D01*
X63229451Y-8150500D01*
X63229454Y-8150500D01*
X63410549Y-8150500D01*
X63499977Y-8136335D01*
X63589409Y-8122171D01*
X63761639Y-8066211D01*
X63922994Y-7983996D01*
X64069501Y-7877553D01*
X64197553Y-7749501D01*
X64303996Y-7602994D01*
X64386211Y-7441639D01*
X64442171Y-7269409D01*
X64468013Y-7106250D01*
X64470500Y-7090549D01*
X64470500Y-6909450D01*
X64709500Y-6909450D01*
X64709500Y-7090549D01*
X64737828Y-7269406D01*
X64793788Y-7441637D01*
X64874863Y-7600756D01*
X64876004Y-7602994D01*
X64982447Y-7749501D01*
X65110499Y-7877553D01*
X65257006Y-7983996D01*
X65418361Y-8066211D01*
X65590591Y-8122171D01*
X65662136Y-8133502D01*
X65769451Y-8150500D01*
X65769454Y-8150500D01*
X65950549Y-8150500D01*
X66039977Y-8136335D01*
X66129409Y-8122171D01*
X66301639Y-8066211D01*
X66462994Y-7983996D01*
X66609501Y-7877553D01*
X66737553Y-7749501D01*
X66843996Y-7602994D01*
X66926211Y-7441639D01*
X66982171Y-7269409D01*
X67008013Y-7106250D01*
X67010500Y-7090549D01*
X67010500Y-6909450D01*
X67249500Y-6909450D01*
X67249500Y-7090549D01*
X67277828Y-7269406D01*
X67333788Y-7441637D01*
X67414863Y-7600756D01*
X67416004Y-7602994D01*
X67522447Y-7749501D01*
X67650499Y-7877553D01*
X67797006Y-7983996D01*
X67958361Y-8066211D01*
X68130591Y-8122171D01*
X68202136Y-8133502D01*
X68309451Y-8150500D01*
X68309454Y-8150500D01*
X68490549Y-8150500D01*
X68579977Y-8136335D01*
X68669409Y-8122171D01*
X68841639Y-8066211D01*
X69002994Y-7983996D01*
X69149501Y-7877553D01*
X69277553Y-7749501D01*
X69383996Y-7602994D01*
X69466211Y-7441639D01*
X69522171Y-7269409D01*
X69548013Y-7106250D01*
X69550500Y-7090549D01*
X69550500Y-6909450D01*
X69789500Y-6909450D01*
X69789500Y-7090549D01*
X69817828Y-7269406D01*
X69873788Y-7441637D01*
X69954863Y-7600756D01*
X69956004Y-7602994D01*
X70062447Y-7749501D01*
X70190499Y-7877553D01*
X70337006Y-7983996D01*
X70498361Y-8066211D01*
X70670591Y-8122171D01*
X70742136Y-8133502D01*
X70849451Y-8150500D01*
X70849454Y-8150500D01*
X71030549Y-8150500D01*
X71119977Y-8136335D01*
X71209409Y-8122171D01*
X71381639Y-8066211D01*
X71542994Y-7983996D01*
X71689501Y-7877553D01*
X71817553Y-7749501D01*
X71923996Y-7602994D01*
X72006211Y-7441639D01*
X72062171Y-7269409D01*
X72088013Y-7106250D01*
X72090500Y-7090549D01*
X72090500Y-6909450D01*
X72062171Y-6730593D01*
X72062171Y-6730591D01*
X72006211Y-6558361D01*
X71923996Y-6397006D01*
X71817553Y-6250499D01*
X71689501Y-6122447D01*
X71542994Y-6016004D01*
X71542993Y-6016003D01*
X71542991Y-6016002D01*
X71381637Y-5933788D01*
X71209406Y-5877828D01*
X71030549Y-5849500D01*
X71030546Y-5849500D01*
X70849454Y-5849500D01*
X70849451Y-5849500D01*
X70670593Y-5877828D01*
X70498362Y-5933788D01*
X70337008Y-6016002D01*
X70263752Y-6069225D01*
X70190499Y-6122447D01*
X70062447Y-6250499D01*
X70031975Y-6292440D01*
X69956002Y-6397008D01*
X69873788Y-6558362D01*
X69817828Y-6730593D01*
X69789500Y-6909450D01*
X69550500Y-6909450D01*
X69522171Y-6730593D01*
X69522171Y-6730591D01*
X69466211Y-6558361D01*
X69383996Y-6397006D01*
X69277553Y-6250499D01*
X69149501Y-6122447D01*
X69002994Y-6016004D01*
X69002993Y-6016003D01*
X69002991Y-6016002D01*
X68841637Y-5933788D01*
X68669406Y-5877828D01*
X68490549Y-5849500D01*
X68490546Y-5849500D01*
X68309454Y-5849500D01*
X68309451Y-5849500D01*
X68130593Y-5877828D01*
X67958362Y-5933788D01*
X67797008Y-6016002D01*
X67723752Y-6069225D01*
X67650499Y-6122447D01*
X67522447Y-6250499D01*
X67491975Y-6292440D01*
X67416002Y-6397008D01*
X67333788Y-6558362D01*
X67277828Y-6730593D01*
X67249500Y-6909450D01*
X67010500Y-6909450D01*
X66982171Y-6730593D01*
X66982171Y-6730591D01*
X66926211Y-6558361D01*
X66843996Y-6397006D01*
X66737553Y-6250499D01*
X66609501Y-6122447D01*
X66462994Y-6016004D01*
X66462993Y-6016003D01*
X66462991Y-6016002D01*
X66301637Y-5933788D01*
X66129406Y-5877828D01*
X65950549Y-5849500D01*
X65950546Y-5849500D01*
X65769454Y-5849500D01*
X65769451Y-5849500D01*
X65590593Y-5877828D01*
X65418362Y-5933788D01*
X65257008Y-6016002D01*
X65183752Y-6069225D01*
X65110499Y-6122447D01*
X64982447Y-6250499D01*
X64951975Y-6292440D01*
X64876002Y-6397008D01*
X64793788Y-6558362D01*
X64737828Y-6730593D01*
X64709500Y-6909450D01*
X64470500Y-6909450D01*
X64442171Y-6730593D01*
X64442171Y-6730591D01*
X64386211Y-6558361D01*
X64303996Y-6397006D01*
X64197553Y-6250499D01*
X64069501Y-6122447D01*
X63922994Y-6016004D01*
X63922993Y-6016003D01*
X63922991Y-6016002D01*
X63761637Y-5933788D01*
X63589406Y-5877828D01*
X63410549Y-5849500D01*
X63410546Y-5849500D01*
X63229454Y-5849500D01*
X63229451Y-5849500D01*
X63050593Y-5877828D01*
X62878362Y-5933788D01*
X62717008Y-6016002D01*
X62643752Y-6069225D01*
X62570499Y-6122447D01*
X62442447Y-6250499D01*
X62411975Y-6292440D01*
X62336002Y-6397008D01*
X62253788Y-6558362D01*
X62197828Y-6730593D01*
X62169500Y-6909450D01*
X61930500Y-6909450D01*
X61902171Y-6730593D01*
X61902171Y-6730591D01*
X61846211Y-6558361D01*
X61763996Y-6397006D01*
X61657553Y-6250499D01*
X61529501Y-6122447D01*
X61382994Y-6016004D01*
X61382993Y-6016003D01*
X61382991Y-6016002D01*
X61221637Y-5933788D01*
X61049406Y-5877828D01*
X60870549Y-5849500D01*
X60870546Y-5849500D01*
X60689454Y-5849500D01*
X60689451Y-5849500D01*
X60510593Y-5877828D01*
X60338362Y-5933788D01*
X60177008Y-6016002D01*
X60103752Y-6069225D01*
X60030499Y-6122447D01*
X59902447Y-6250499D01*
X59871975Y-6292440D01*
X59796002Y-6397008D01*
X59713788Y-6558362D01*
X59657828Y-6730593D01*
X59629500Y-6909450D01*
X59390500Y-6909450D01*
X59362171Y-6730593D01*
X59362171Y-6730591D01*
X59306211Y-6558361D01*
X59223996Y-6397006D01*
X59117553Y-6250499D01*
X58989501Y-6122447D01*
X58842994Y-6016004D01*
X58842993Y-6016003D01*
X58842991Y-6016002D01*
X58681637Y-5933788D01*
X58509406Y-5877828D01*
X58330549Y-5849500D01*
X58330546Y-5849500D01*
X58149454Y-5849500D01*
X58149451Y-5849500D01*
X57970593Y-5877828D01*
X57798362Y-5933788D01*
X57637008Y-6016002D01*
X57563752Y-6069225D01*
X57490499Y-6122447D01*
X57362447Y-6250499D01*
X57331975Y-6292440D01*
X57256002Y-6397008D01*
X57173788Y-6558362D01*
X57117828Y-6730593D01*
X57089500Y-6909450D01*
X57089500Y-7062298D01*
X57070593Y-7120489D01*
X57060503Y-7132302D01*
X57018569Y-7174235D01*
X56964052Y-7202012D01*
X56903620Y-7192440D01*
X56860356Y-7149175D01*
X56851704Y-7094546D01*
X56850195Y-7094428D01*
X56850500Y-7090550D01*
X56850500Y-6909450D01*
X56822171Y-6730593D01*
X56822171Y-6730591D01*
X56766211Y-6558361D01*
X56683996Y-6397006D01*
X56577553Y-6250499D01*
X56449501Y-6122447D01*
X56302994Y-6016004D01*
X56302993Y-6016003D01*
X56302991Y-6016002D01*
X56141637Y-5933788D01*
X55969406Y-5877828D01*
X55790549Y-5849500D01*
X55790546Y-5849500D01*
X55609454Y-5849500D01*
X55609451Y-5849500D01*
X55430593Y-5877828D01*
X55258362Y-5933788D01*
X55097008Y-6016002D01*
X55023752Y-6069225D01*
X54950499Y-6122447D01*
X54822447Y-6250499D01*
X54791975Y-6292440D01*
X54716002Y-6397008D01*
X54633788Y-6558362D01*
X54577828Y-6730593D01*
X54549500Y-6909450D01*
X54549500Y-7090549D01*
X54577828Y-7269406D01*
X54633788Y-7441637D01*
X54714863Y-7600756D01*
X54716004Y-7602994D01*
X54822447Y-7749501D01*
X54950499Y-7877553D01*
X55097006Y-7983996D01*
X55258361Y-8066211D01*
X55430591Y-8122171D01*
X55502136Y-8133502D01*
X55609451Y-8150500D01*
X55609454Y-8150500D01*
X55790550Y-8150500D01*
X55794428Y-8150195D01*
X55794547Y-8151714D01*
X55849138Y-8160337D01*
X55892421Y-8203583D01*
X55902019Y-8264011D01*
X55874265Y-8318540D01*
X55874235Y-8318570D01*
X41496504Y-22696302D01*
X41441987Y-22724079D01*
X41381555Y-22714508D01*
X41338290Y-22671243D01*
X41327500Y-22626298D01*
X41327500Y-19439899D01*
X41346407Y-19381708D01*
X41356490Y-19369901D01*
X52631551Y-8094839D01*
X52686066Y-8067064D01*
X52732145Y-8070690D01*
X52790657Y-8089701D01*
X52890591Y-8122171D01*
X52962136Y-8133502D01*
X53069451Y-8150500D01*
X53069454Y-8150500D01*
X53250549Y-8150500D01*
X53339977Y-8136335D01*
X53429409Y-8122171D01*
X53601639Y-8066211D01*
X53762994Y-7983996D01*
X53909501Y-7877553D01*
X54037553Y-7749501D01*
X54143996Y-7602994D01*
X54226211Y-7441639D01*
X54282171Y-7269409D01*
X54308013Y-7106250D01*
X54310500Y-7090549D01*
X54310500Y-6909450D01*
X54282171Y-6730593D01*
X54282171Y-6730591D01*
X54226211Y-6558361D01*
X54143996Y-6397006D01*
X54037553Y-6250499D01*
X53909501Y-6122447D01*
X53762994Y-6016004D01*
X53762993Y-6016003D01*
X53762991Y-6016002D01*
X53601637Y-5933788D01*
X53429406Y-5877828D01*
X53250549Y-5849500D01*
X53250546Y-5849500D01*
X53069454Y-5849500D01*
X53069451Y-5849500D01*
X52890593Y-5877828D01*
X52718362Y-5933788D01*
X52557008Y-6016002D01*
X52483752Y-6069225D01*
X52410499Y-6122447D01*
X52282447Y-6250499D01*
X52251975Y-6292440D01*
X52176002Y-6397008D01*
X52093788Y-6558362D01*
X52037828Y-6730593D01*
X52009500Y-6909450D01*
X52009500Y-7090549D01*
X52037828Y-7269406D01*
X52089309Y-7427852D01*
X52089308Y-7489037D01*
X52065158Y-7528448D01*
X40606517Y-18987090D01*
X40606516Y-18987091D01*
X40553795Y-19078407D01*
X40553792Y-19078414D01*
X40550543Y-19090542D01*
X40550543Y-19090543D01*
X40526500Y-19180274D01*
X40526500Y-24666699D01*
X40507593Y-24724890D01*
X40458093Y-24760854D01*
X40396907Y-24760854D01*
X40357496Y-24736703D01*
X40008896Y-24388103D01*
X39981119Y-24333586D01*
X39979900Y-24318099D01*
X39979900Y-24245944D01*
X39978602Y-24241100D01*
X39938977Y-24093216D01*
X39859920Y-23956284D01*
X39748116Y-23844480D01*
X39611184Y-23765423D01*
X39458457Y-23724500D01*
X39300343Y-23724500D01*
X39147616Y-23765423D01*
X39147614Y-23765423D01*
X39147614Y-23765424D01*
X39147611Y-23765425D01*
X39108798Y-23787833D01*
X39048950Y-23800553D01*
X38993055Y-23775666D01*
X38962463Y-23722677D01*
X38960300Y-23702096D01*
X38960300Y-16727100D01*
X38979207Y-16668909D01*
X38989290Y-16657102D01*
X47551552Y-8094839D01*
X47606067Y-8067064D01*
X47652146Y-8070690D01*
X47810591Y-8122171D01*
X47882136Y-8133502D01*
X47989451Y-8150500D01*
X47989454Y-8150500D01*
X48170549Y-8150500D01*
X48259977Y-8136335D01*
X48349409Y-8122171D01*
X48521639Y-8066211D01*
X48682994Y-7983996D01*
X48829501Y-7877553D01*
X48957553Y-7749501D01*
X49063996Y-7602994D01*
X49146211Y-7441639D01*
X49202171Y-7269409D01*
X49228013Y-7106250D01*
X49230500Y-7090549D01*
X49230500Y-6909450D01*
X49469500Y-6909450D01*
X49469500Y-7090549D01*
X49497828Y-7269406D01*
X49553788Y-7441637D01*
X49634863Y-7600756D01*
X49636004Y-7602994D01*
X49742447Y-7749501D01*
X49870499Y-7877553D01*
X50017006Y-7983996D01*
X50178361Y-8066211D01*
X50350591Y-8122171D01*
X50422136Y-8133502D01*
X50529451Y-8150500D01*
X50529454Y-8150500D01*
X50710549Y-8150500D01*
X50799977Y-8136335D01*
X50889409Y-8122171D01*
X51061639Y-8066211D01*
X51222994Y-7983996D01*
X51369501Y-7877553D01*
X51497553Y-7749501D01*
X51603996Y-7602994D01*
X51686211Y-7441639D01*
X51742171Y-7269409D01*
X51768013Y-7106250D01*
X51770500Y-7090549D01*
X51770500Y-6909450D01*
X51742171Y-6730593D01*
X51742171Y-6730591D01*
X51686211Y-6558361D01*
X51603996Y-6397006D01*
X51497553Y-6250499D01*
X51369501Y-6122447D01*
X51222994Y-6016004D01*
X51222993Y-6016003D01*
X51222991Y-6016002D01*
X51061637Y-5933788D01*
X50889406Y-5877828D01*
X50710549Y-5849500D01*
X50710546Y-5849500D01*
X50529454Y-5849500D01*
X50529451Y-5849500D01*
X50350593Y-5877828D01*
X50178362Y-5933788D01*
X50017008Y-6016002D01*
X49943752Y-6069225D01*
X49870499Y-6122447D01*
X49742447Y-6250499D01*
X49711975Y-6292440D01*
X49636002Y-6397008D01*
X49553788Y-6558362D01*
X49497828Y-6730593D01*
X49469500Y-6909450D01*
X49230500Y-6909450D01*
X49202171Y-6730593D01*
X49202171Y-6730591D01*
X49146211Y-6558361D01*
X49063996Y-6397006D01*
X48957553Y-6250499D01*
X48829501Y-6122447D01*
X48682994Y-6016004D01*
X48682993Y-6016003D01*
X48682991Y-6016002D01*
X48521637Y-5933788D01*
X48349406Y-5877828D01*
X48170549Y-5849500D01*
X48170546Y-5849500D01*
X47989454Y-5849500D01*
X47989451Y-5849500D01*
X47810593Y-5877828D01*
X47638362Y-5933788D01*
X47477008Y-6016002D01*
X47403752Y-6069225D01*
X47330499Y-6122447D01*
X47202447Y-6250499D01*
X47171975Y-6292440D01*
X47096002Y-6397008D01*
X47013787Y-6558364D01*
X47013786Y-6558366D01*
X47009035Y-6572988D01*
X46973069Y-6622486D01*
X46914878Y-6641391D01*
X46856688Y-6622481D01*
X46820727Y-6572983D01*
X46791096Y-6481786D01*
X46694623Y-6292446D01*
X46694619Y-6292440D01*
X46655270Y-6238282D01*
X46655269Y-6238282D01*
X46022962Y-6870590D01*
X46005925Y-6807007D01*
X45940099Y-6692993D01*
X45847007Y-6599901D01*
X45732993Y-6534075D01*
X45669407Y-6517037D01*
X46301716Y-5884729D01*
X46301716Y-5884728D01*
X46247559Y-5845380D01*
X46247553Y-5845376D01*
X46058215Y-5748904D01*
X45856121Y-5683240D01*
X45646250Y-5650000D01*
X45433750Y-5650000D01*
X45223878Y-5683240D01*
X45021784Y-5748904D01*
X44832446Y-5845376D01*
X44832442Y-5845378D01*
X44778282Y-5884728D01*
X45410591Y-6517037D01*
X45347007Y-6534075D01*
X45232993Y-6599901D01*
X45139901Y-6692993D01*
X45074075Y-6807007D01*
X45057037Y-6870591D01*
X44424728Y-6238282D01*
X44385378Y-6292442D01*
X44385376Y-6292446D01*
X44337709Y-6385999D01*
X44294444Y-6429264D01*
X44234012Y-6438835D01*
X44179495Y-6411057D01*
X44151718Y-6356541D01*
X44150499Y-6341054D01*
X44150499Y-6105139D01*
X44150499Y-6105136D01*
X44147585Y-6080009D01*
X44102206Y-5977235D01*
X44022765Y-5897794D01*
X43919991Y-5852415D01*
X43919990Y-5852414D01*
X43919988Y-5852414D01*
X43894868Y-5849500D01*
X42105139Y-5849500D01*
X42105136Y-5849501D01*
X42080009Y-5852414D01*
X41977235Y-5897794D01*
X41897794Y-5977235D01*
X41852414Y-6080011D01*
X41849500Y-6105130D01*
X41849500Y-7894860D01*
X41849501Y-7894863D01*
X41852414Y-7919990D01*
X41868384Y-7956158D01*
X41897794Y-8022765D01*
X41977235Y-8102206D01*
X42080009Y-8147585D01*
X42105135Y-8150500D01*
X43894864Y-8150499D01*
X43919991Y-8147585D01*
X44022765Y-8102206D01*
X44102206Y-8022765D01*
X44147585Y-7919991D01*
X44150500Y-7894865D01*
X44150499Y-7658943D01*
X44169406Y-7600756D01*
X44218906Y-7564792D01*
X44280091Y-7564791D01*
X44329591Y-7600755D01*
X44337709Y-7614001D01*
X44385376Y-7707553D01*
X44385380Y-7707559D01*
X44424728Y-7761716D01*
X44424729Y-7761716D01*
X45057037Y-7129407D01*
X45074075Y-7192993D01*
X45139901Y-7307007D01*
X45232993Y-7400099D01*
X45347007Y-7465925D01*
X45410590Y-7482962D01*
X44778282Y-8115269D01*
X44778282Y-8115270D01*
X44832440Y-8154619D01*
X44832446Y-8154623D01*
X45021784Y-8251095D01*
X45223878Y-8316759D01*
X45433750Y-8350000D01*
X45646250Y-8350000D01*
X45856121Y-8316759D01*
X45968655Y-8280195D01*
X46029841Y-8280195D01*
X46079341Y-8316159D01*
X46098248Y-8374350D01*
X46079341Y-8432541D01*
X46069252Y-8444354D01*
X38239317Y-16274290D01*
X38239316Y-16274291D01*
X38186595Y-16365606D01*
X38186591Y-16365615D01*
X38173836Y-16413223D01*
X38159300Y-16467473D01*
X38159300Y-27602499D01*
X38140393Y-27660690D01*
X38090893Y-27696654D01*
X38029707Y-27696654D01*
X37990296Y-27672503D01*
X37289168Y-26971375D01*
X37261391Y-26916858D01*
X37270962Y-26856426D01*
X37289165Y-26831370D01*
X37381920Y-26738616D01*
X37460977Y-26601684D01*
X37501900Y-26448957D01*
X37501900Y-26290843D01*
X37460977Y-26138116D01*
X37381920Y-26001184D01*
X37270116Y-25889380D01*
X37133184Y-25810323D01*
X36980457Y-25769400D01*
X36822343Y-25769400D01*
X36669616Y-25810323D01*
X36532684Y-25889380D01*
X36439930Y-25982133D01*
X36385416Y-26009909D01*
X36324984Y-26000338D01*
X36299925Y-25982132D01*
X34679496Y-24361703D01*
X34651719Y-24307186D01*
X34650500Y-24291699D01*
X34650500Y-23576943D01*
X34669407Y-23518752D01*
X34679490Y-23506945D01*
X34730520Y-23455916D01*
X34809577Y-23318984D01*
X34850500Y-23166257D01*
X34850500Y-23008143D01*
X34845302Y-22988743D01*
X36649500Y-22988743D01*
X36649500Y-23146857D01*
X36690423Y-23299584D01*
X36769480Y-23436516D01*
X36881284Y-23548320D01*
X37018216Y-23627377D01*
X37170943Y-23668300D01*
X37170945Y-23668300D01*
X37329055Y-23668300D01*
X37329057Y-23668300D01*
X37481784Y-23627377D01*
X37618716Y-23548320D01*
X37730520Y-23436516D01*
X37809577Y-23299584D01*
X37850500Y-23146857D01*
X37850500Y-22988743D01*
X37809577Y-22836016D01*
X37730520Y-22699084D01*
X37618716Y-22587280D01*
X37481784Y-22508223D01*
X37329057Y-22467300D01*
X37170943Y-22467300D01*
X37018216Y-22508223D01*
X36881284Y-22587280D01*
X36769480Y-22699084D01*
X36690423Y-22836016D01*
X36649500Y-22988743D01*
X34845302Y-22988743D01*
X34809577Y-22855416D01*
X34730520Y-22718484D01*
X34618716Y-22606680D01*
X34481784Y-22527623D01*
X34329057Y-22486700D01*
X34170943Y-22486700D01*
X34090618Y-22508223D01*
X34026523Y-22525397D01*
X33965421Y-22522194D01*
X33917871Y-22483689D01*
X33901900Y-22429770D01*
X33901900Y-16274974D01*
X33901900Y-16274973D01*
X33874607Y-16173113D01*
X33874607Y-16173112D01*
X33874607Y-16173111D01*
X33821883Y-16081791D01*
X33821882Y-16081790D01*
X33821881Y-16081789D01*
X33821880Y-16081787D01*
X30999768Y-13259675D01*
X30971991Y-13205158D01*
X30981562Y-13144726D01*
X31016701Y-13109586D01*
X31015197Y-13107390D01*
X31022760Y-13102207D01*
X31022765Y-13102206D01*
X31102206Y-13022765D01*
X31147585Y-12919991D01*
X31150500Y-12894865D01*
X31150499Y-11105136D01*
X31147585Y-11080009D01*
X31102206Y-10977235D01*
X31022765Y-10897794D01*
X30919991Y-10852415D01*
X30919990Y-10852414D01*
X30919988Y-10852414D01*
X30894868Y-10849500D01*
X29105139Y-10849500D01*
X29105136Y-10849501D01*
X29080009Y-10852414D01*
X28977235Y-10897794D01*
X28897794Y-10977235D01*
X28852414Y-11080011D01*
X28849500Y-11105130D01*
X28849500Y-12894860D01*
X28849501Y-12894863D01*
X28852414Y-12919990D01*
X28857347Y-12931161D01*
X28897794Y-13022765D01*
X28977235Y-13102206D01*
X29080009Y-13147585D01*
X29105135Y-13150500D01*
X29522482Y-13150499D01*
X29580673Y-13169406D01*
X29616637Y-13218906D01*
X29618104Y-13223861D01*
X29626793Y-13256287D01*
X29660595Y-13314834D01*
X29673316Y-13374682D01*
X29648429Y-13430577D01*
X29605452Y-13458487D01*
X29558364Y-13473787D01*
X29397008Y-13556002D01*
X29323752Y-13609225D01*
X29250499Y-13662447D01*
X29122447Y-13790499D01*
X29083013Y-13844776D01*
X29016002Y-13937008D01*
X28933788Y-14098362D01*
X28877828Y-14270593D01*
X28849500Y-14449450D01*
X28849500Y-14630549D01*
X28877828Y-14809406D01*
X28933788Y-14981637D01*
X29000102Y-15111786D01*
X29016004Y-15142994D01*
X29122447Y-15289501D01*
X29250499Y-15417553D01*
X29397006Y-15523996D01*
X29558361Y-15606211D01*
X29730591Y-15662171D01*
X29802136Y-15673502D01*
X29909451Y-15690500D01*
X29909454Y-15690500D01*
X30090549Y-15690500D01*
X30179977Y-15676335D01*
X30269409Y-15662171D01*
X30441639Y-15606211D01*
X30602994Y-15523996D01*
X30749501Y-15417553D01*
X30877553Y-15289501D01*
X30983996Y-15142994D01*
X31066211Y-14981639D01*
X31122171Y-14809409D01*
X31132049Y-14747044D01*
X31159826Y-14692528D01*
X31214343Y-14664750D01*
X31274775Y-14674321D01*
X31299834Y-14692527D01*
X33071904Y-16464597D01*
X33099681Y-16519114D01*
X33100900Y-16534601D01*
X33100900Y-21285557D01*
X33081993Y-21343748D01*
X33032493Y-21379712D01*
X32971307Y-21379712D01*
X32931898Y-21355562D01*
X32907316Y-21330980D01*
X32770384Y-21251923D01*
X32617657Y-21211000D01*
X32459543Y-21211000D01*
X32306816Y-21251923D01*
X32169884Y-21330980D01*
X32058080Y-21442784D01*
X31979023Y-21579716D01*
X31938100Y-21732444D01*
X31938100Y-21804599D01*
X31919193Y-21862790D01*
X31909104Y-21874602D01*
X31769420Y-22014286D01*
X31769416Y-22014291D01*
X31716693Y-22105611D01*
X31716692Y-22105611D01*
X31716693Y-22105612D01*
X31689400Y-22207473D01*
X31689400Y-27191892D01*
X31670493Y-27250083D01*
X31620993Y-27286047D01*
X31559807Y-27286047D01*
X31510307Y-27250083D01*
X31504667Y-27241398D01*
X31440920Y-27130984D01*
X31329116Y-27019180D01*
X31192184Y-26940123D01*
X31039457Y-26899200D01*
X31039455Y-26899200D01*
X30967300Y-26899200D01*
X30909109Y-26880293D01*
X30906096Y-26877720D01*
X30906059Y-26877769D01*
X30900908Y-26873816D01*
X30809591Y-26821094D01*
X30809593Y-26821094D01*
X30758051Y-26807284D01*
X30707727Y-26793800D01*
X30707725Y-26793800D01*
X27333982Y-26793800D01*
X27275791Y-26774893D01*
X27239827Y-26725393D01*
X27238355Y-26669178D01*
X27240934Y-26659552D01*
X27243800Y-26648857D01*
X27243800Y-26490743D01*
X27202877Y-26338016D01*
X27123820Y-26201084D01*
X27012016Y-26089280D01*
X26875084Y-26010223D01*
X26722357Y-25969300D01*
X26564243Y-25969300D01*
X26415293Y-26009211D01*
X26411516Y-26010223D01*
X26274584Y-26089280D01*
X26162779Y-26201085D01*
X26160902Y-26204337D01*
X26158901Y-26206138D01*
X26158831Y-26206230D01*
X26158813Y-26206216D01*
X26115430Y-26245277D01*
X26054580Y-26251670D01*
X26001593Y-26221075D01*
X25989434Y-26204340D01*
X25950720Y-26137284D01*
X25838916Y-26025480D01*
X25701984Y-25946423D01*
X25549257Y-25905500D01*
X25391143Y-25905500D01*
X25238416Y-25946423D01*
X25101484Y-26025480D01*
X24989680Y-26137284D01*
X24910623Y-26274216D01*
X24869700Y-26426943D01*
X24869700Y-26585057D01*
X24910623Y-26737784D01*
X24989680Y-26874716D01*
X25101484Y-26986520D01*
X25238416Y-27065577D01*
X25391143Y-27106500D01*
X25463299Y-27106500D01*
X25521490Y-27125407D01*
X25533302Y-27135496D01*
X25912586Y-27514779D01*
X25912591Y-27514783D01*
X26003908Y-27567505D01*
X26003906Y-27567505D01*
X26003910Y-27567506D01*
X26003912Y-27567507D01*
X26105773Y-27594800D01*
X26211227Y-27594800D01*
X26821935Y-27594800D01*
X26880126Y-27613707D01*
X26916090Y-27663207D01*
X26917561Y-27719424D01*
X26905900Y-27762940D01*
X26905900Y-27762943D01*
X26905900Y-27921057D01*
X26946823Y-28073784D01*
X27025880Y-28210716D01*
X27137684Y-28322520D01*
X27274616Y-28401577D01*
X27427343Y-28442500D01*
X27427345Y-28442500D01*
X27433777Y-28443347D01*
X27433411Y-28446119D01*
X27480462Y-28461407D01*
X27516426Y-28510907D01*
X27517890Y-28515851D01*
X27535423Y-28581284D01*
X27614480Y-28718216D01*
X27726284Y-28830020D01*
X27863216Y-28909077D01*
X28015943Y-28950000D01*
X28015945Y-28950000D01*
X28174055Y-28950000D01*
X28174057Y-28950000D01*
X28326784Y-28909077D01*
X28463716Y-28830020D01*
X28575520Y-28718216D01*
X28654577Y-28581284D01*
X28695500Y-28428557D01*
X28695500Y-28270443D01*
X28654577Y-28117716D01*
X28575520Y-27980784D01*
X28463716Y-27868980D01*
X28326784Y-27789923D01*
X28324929Y-27789426D01*
X28323777Y-27788677D01*
X28320789Y-27787440D01*
X28321018Y-27786886D01*
X28273617Y-27756103D01*
X28251690Y-27698981D01*
X28267526Y-27639881D01*
X28315075Y-27601376D01*
X28350554Y-27594800D01*
X30288233Y-27594800D01*
X30346424Y-27613707D01*
X30382388Y-27663207D01*
X30383858Y-27668170D01*
X30400823Y-27731484D01*
X30479880Y-27868416D01*
X30591684Y-27980220D01*
X30728616Y-28059277D01*
X30760407Y-28067795D01*
X30811720Y-28101117D01*
X30833647Y-28158238D01*
X30817812Y-28217339D01*
X30784284Y-28249157D01*
X30749082Y-28269480D01*
X30698059Y-28320504D01*
X30643542Y-28348281D01*
X30628056Y-28349500D01*
X30389906Y-28349500D01*
X30389890Y-28349499D01*
X30383827Y-28349499D01*
X30278373Y-28349499D01*
X30278370Y-28349499D01*
X30176513Y-28376792D01*
X30176509Y-28376794D01*
X30085187Y-28429519D01*
X30010619Y-28504086D01*
X30010620Y-28504087D01*
X27354516Y-31160191D01*
X27301794Y-31251508D01*
X27301792Y-31251512D01*
X27289091Y-31298911D01*
X27289092Y-31298912D01*
X27274500Y-31353373D01*
X27274500Y-34071156D01*
X27255593Y-34129347D01*
X27245504Y-34141159D01*
X27194482Y-34192181D01*
X27194480Y-34192183D01*
X27194480Y-34192184D01*
X27115423Y-34329116D01*
X27074500Y-34481843D01*
X27074500Y-34639957D01*
X27115423Y-34792684D01*
X27194480Y-34929616D01*
X27306284Y-35041420D01*
X27443216Y-35120477D01*
X27595943Y-35161400D01*
X27595945Y-35161400D01*
X27754055Y-35161400D01*
X27754057Y-35161400D01*
X27906784Y-35120477D01*
X28043716Y-35041420D01*
X28124221Y-34960914D01*
X28178735Y-34933138D01*
X28219840Y-34935291D01*
X28360943Y-34973100D01*
X28360945Y-34973100D01*
X28519055Y-34973100D01*
X28519057Y-34973100D01*
X28671784Y-34932177D01*
X28808716Y-34853120D01*
X28920520Y-34741316D01*
X28999577Y-34604384D01*
X29040500Y-34451657D01*
X29040500Y-34293543D01*
X28999577Y-34140816D01*
X28920520Y-34003884D01*
X28808716Y-33892080D01*
X28671784Y-33813023D01*
X28519057Y-33772100D01*
X28360943Y-33772100D01*
X28208216Y-33813023D01*
X28208214Y-33813023D01*
X28201948Y-33814703D01*
X28201271Y-33812178D01*
X28151347Y-33816085D01*
X28099192Y-33784093D01*
X28075802Y-33727555D01*
X28075500Y-33719831D01*
X28075500Y-31612999D01*
X28094407Y-31554808D01*
X28104490Y-31543001D01*
X29958874Y-29688616D01*
X30013391Y-29660840D01*
X30073823Y-29670411D01*
X30098882Y-29688617D01*
X30099678Y-29689413D01*
X30099680Y-29689416D01*
X30210882Y-29800618D01*
X30238658Y-29855133D01*
X30229087Y-29915565D01*
X30210881Y-29940623D01*
X29719620Y-30431886D01*
X29719616Y-30431891D01*
X29666895Y-30523206D01*
X29666891Y-30523215D01*
X29651279Y-30581486D01*
X29651279Y-30581487D01*
X29639600Y-30625073D01*
X29639600Y-34520499D01*
X29620693Y-34578690D01*
X29610604Y-34590503D01*
X28511016Y-35690091D01*
X28458293Y-35781411D01*
X28458292Y-35781411D01*
X28458293Y-35781412D01*
X28458293Y-35781413D01*
X28431000Y-35883273D01*
X28431000Y-54968473D01*
X28431000Y-55073927D01*
X28444001Y-55122447D01*
X28458294Y-55175792D01*
X28511016Y-55267108D01*
X28511017Y-55267109D01*
X28511018Y-55267110D01*
X28511020Y-55267113D01*
X28885298Y-55641391D01*
X29246119Y-56002212D01*
X29246120Y-56002213D01*
X29246119Y-56002213D01*
X29288635Y-56044728D01*
X29320687Y-56076780D01*
X29412013Y-56129507D01*
X29513873Y-56156800D01*
X29513875Y-56156800D01*
X38865878Y-56156800D01*
X38924069Y-56175707D01*
X38960033Y-56225207D01*
X38960033Y-56286393D01*
X38945971Y-56313991D01*
X38845375Y-56452448D01*
X38748904Y-56641784D01*
X38683240Y-56843878D01*
X38650000Y-57053749D01*
X38650000Y-57266250D01*
X38683240Y-57476121D01*
X38748904Y-57678215D01*
X38839518Y-57856055D01*
X38849089Y-57916487D01*
X38821311Y-57971004D01*
X38766795Y-57998781D01*
X38751308Y-58000000D01*
X2099000Y-58000000D01*
X2040809Y-57981093D01*
X2004845Y-57931593D01*
X2000000Y-57901000D01*
X2000000Y-51494843D01*
X14845600Y-51494843D01*
X14845600Y-51652957D01*
X14886523Y-51805684D01*
X14965580Y-51942616D01*
X15077384Y-52054420D01*
X15214316Y-52133477D01*
X15367043Y-52174400D01*
X15367045Y-52174400D01*
X15525155Y-52174400D01*
X15525157Y-52174400D01*
X15677884Y-52133477D01*
X15814816Y-52054420D01*
X15926620Y-51942616D01*
X16005677Y-51805684D01*
X16046600Y-51652957D01*
X16046600Y-51546759D01*
X16059864Y-51497258D01*
X16072607Y-51475188D01*
X16099900Y-51373327D01*
X16099900Y-51267873D01*
X16099900Y-47583643D01*
X16632200Y-47583643D01*
X16632200Y-47741757D01*
X16673123Y-47894484D01*
X16752180Y-48031416D01*
X16863984Y-48143220D01*
X17000916Y-48222277D01*
X17153643Y-48263200D01*
X17153645Y-48263200D01*
X17311755Y-48263200D01*
X17311757Y-48263200D01*
X17464484Y-48222277D01*
X17601416Y-48143220D01*
X17638386Y-48106250D01*
X17652441Y-48092196D01*
X17706958Y-48064419D01*
X17722444Y-48063200D01*
X18471125Y-48063200D01*
X18471127Y-48063200D01*
X18572988Y-48035907D01*
X18572990Y-48035905D01*
X18572992Y-48035905D01*
X18664308Y-47983183D01*
X18664308Y-47983182D01*
X18664313Y-47983180D01*
X21518783Y-45128710D01*
X22899500Y-45128710D01*
X22899500Y-45371289D01*
X22931161Y-45611781D01*
X22931161Y-45611786D01*
X22949572Y-45680496D01*
X22992131Y-45839328D01*
X22993944Y-45846092D01*
X22993948Y-45846105D01*
X23086772Y-46070204D01*
X23086774Y-46070208D01*
X23086776Y-46070212D01*
X23207657Y-46279584D01*
X23208066Y-46280292D01*
X23355729Y-46472731D01*
X23355731Y-46472733D01*
X23355735Y-46472738D01*
X23527262Y-46644265D01*
X23527266Y-46644268D01*
X23527268Y-46644270D01*
X23663630Y-46748904D01*
X23719711Y-46791936D01*
X23929788Y-46913224D01*
X24153900Y-47006054D01*
X24388211Y-47068838D01*
X24628712Y-47100500D01*
X24628713Y-47100500D01*
X24871287Y-47100500D01*
X24871288Y-47100500D01*
X25111789Y-47068838D01*
X25346100Y-47006054D01*
X25570212Y-46913224D01*
X25780289Y-46791936D01*
X25972738Y-46644265D01*
X26144265Y-46472738D01*
X26291936Y-46280289D01*
X26413224Y-46070212D01*
X26506054Y-45846100D01*
X26568838Y-45611789D01*
X26600500Y-45371288D01*
X26600500Y-45128712D01*
X26568838Y-44888211D01*
X26506054Y-44653900D01*
X26428391Y-44466406D01*
X26413227Y-44429795D01*
X26413226Y-44429794D01*
X26413224Y-44429788D01*
X26291936Y-44219711D01*
X26190039Y-44086916D01*
X26144270Y-44027268D01*
X26144268Y-44027266D01*
X26144265Y-44027262D01*
X25972738Y-43855735D01*
X25972733Y-43855731D01*
X25972731Y-43855729D01*
X25780292Y-43708066D01*
X25730655Y-43679408D01*
X25570212Y-43586776D01*
X25570208Y-43586774D01*
X25570204Y-43586772D01*
X25346105Y-43493948D01*
X25346104Y-43493947D01*
X25346100Y-43493946D01*
X25111789Y-43431162D01*
X25111786Y-43431161D01*
X25111784Y-43431161D01*
X24871289Y-43399500D01*
X24871288Y-43399500D01*
X24628712Y-43399500D01*
X24628710Y-43399500D01*
X24388218Y-43431161D01*
X24388213Y-43431161D01*
X24153907Y-43493944D01*
X24153894Y-43493948D01*
X23929795Y-43586772D01*
X23719707Y-43708066D01*
X23527268Y-43855729D01*
X23355729Y-44027268D01*
X23208066Y-44219707D01*
X23086772Y-44429795D01*
X22993948Y-44653894D01*
X22993944Y-44653907D01*
X22931161Y-44888213D01*
X22931161Y-44888218D01*
X22899500Y-45128710D01*
X21518783Y-45128710D01*
X26219680Y-40427813D01*
X26272407Y-40336488D01*
X26299700Y-40234627D01*
X26299700Y-40129173D01*
X26299700Y-39898943D01*
X26318607Y-39840752D01*
X26328690Y-39828945D01*
X26379720Y-39777916D01*
X26458777Y-39640984D01*
X26499700Y-39488257D01*
X26499700Y-39330143D01*
X26458777Y-39177416D01*
X26379720Y-39040484D01*
X26267916Y-38928680D01*
X26130984Y-38849623D01*
X25978257Y-38808700D01*
X25820143Y-38808700D01*
X25667416Y-38849623D01*
X25530484Y-38928680D01*
X25418680Y-39040484D01*
X25339623Y-39177416D01*
X25298700Y-39330143D01*
X25298700Y-39488257D01*
X25339623Y-39640984D01*
X25418680Y-39777916D01*
X25469705Y-39828941D01*
X25497481Y-39883456D01*
X25498700Y-39898943D01*
X25498700Y-39974998D01*
X25479793Y-40033189D01*
X25469704Y-40045002D01*
X20850705Y-44664000D01*
X20796188Y-44691777D01*
X20735756Y-44682206D01*
X20698388Y-44648999D01*
X20633814Y-44552358D01*
X20536242Y-44454786D01*
X20536241Y-44454785D01*
X20421517Y-44378128D01*
X20421506Y-44378122D01*
X20294028Y-44325320D01*
X20158695Y-44298400D01*
X20158693Y-44298400D01*
X20020707Y-44298400D01*
X20020704Y-44298400D01*
X19885372Y-44325320D01*
X19885370Y-44325320D01*
X19757893Y-44378122D01*
X19757882Y-44378128D01*
X19643158Y-44454785D01*
X19545585Y-44552358D01*
X19468928Y-44667082D01*
X19468922Y-44667093D01*
X19416120Y-44794570D01*
X19416120Y-44794572D01*
X19389200Y-44929904D01*
X19389200Y-45067895D01*
X19416120Y-45203227D01*
X19416120Y-45203229D01*
X19468922Y-45330706D01*
X19468928Y-45330717D01*
X19535717Y-45430672D01*
X19545586Y-45445442D01*
X19643158Y-45543014D01*
X19739799Y-45607587D01*
X19777677Y-45655635D01*
X19780079Y-45716773D01*
X19754800Y-45759905D01*
X18862134Y-46652572D01*
X18807617Y-46680349D01*
X18747185Y-46670778D01*
X18703920Y-46627513D01*
X18696504Y-46608192D01*
X18693778Y-46598019D01*
X18693778Y-46598018D01*
X18684998Y-46582810D01*
X18614720Y-46461084D01*
X18502916Y-46349280D01*
X18365984Y-46270223D01*
X18213257Y-46229300D01*
X18055143Y-46229300D01*
X17902416Y-46270223D01*
X17765484Y-46349280D01*
X17653680Y-46461084D01*
X17574623Y-46598016D01*
X17539966Y-46727360D01*
X17533700Y-46750744D01*
X17533700Y-46908856D01*
X17550753Y-46972501D01*
X17547550Y-47033602D01*
X17509045Y-47081152D01*
X17449944Y-47096987D01*
X17429503Y-47093750D01*
X17311757Y-47062200D01*
X17153643Y-47062200D01*
X17000916Y-47103123D01*
X16863984Y-47182180D01*
X16752180Y-47293984D01*
X16673123Y-47430916D01*
X16632200Y-47583643D01*
X16099900Y-47583643D01*
X16099900Y-42809143D01*
X16118807Y-42750952D01*
X16128890Y-42739145D01*
X16179920Y-42688116D01*
X16258977Y-42551184D01*
X16299900Y-42398457D01*
X16299900Y-42347204D01*
X17141400Y-42347204D01*
X17141400Y-42485195D01*
X17168320Y-42620527D01*
X17168320Y-42620529D01*
X17221122Y-42748006D01*
X17221128Y-42748017D01*
X17297785Y-42862741D01*
X17395358Y-42960314D01*
X17510082Y-43036971D01*
X17510093Y-43036977D01*
X17533000Y-43046465D01*
X17637572Y-43089780D01*
X17772907Y-43116700D01*
X17772908Y-43116700D01*
X17910892Y-43116700D01*
X17910893Y-43116700D01*
X18046228Y-43089780D01*
X18173711Y-43036975D01*
X18288442Y-42960314D01*
X18386014Y-42862742D01*
X18462675Y-42748011D01*
X18515480Y-42620528D01*
X18542400Y-42485193D01*
X18542400Y-42347207D01*
X18515480Y-42211872D01*
X18510983Y-42201017D01*
X18506183Y-42140021D01*
X18538152Y-42087852D01*
X18564556Y-42071670D01*
X18616211Y-42050275D01*
X18730942Y-41973614D01*
X18828514Y-41876042D01*
X18905175Y-41761311D01*
X18957980Y-41633828D01*
X18984900Y-41498493D01*
X18984900Y-41360507D01*
X18957980Y-41225172D01*
X18905175Y-41097689D01*
X18901582Y-41092311D01*
X18884900Y-41037313D01*
X18884900Y-39402142D01*
X18903807Y-39343951D01*
X18913890Y-39332144D01*
X19811513Y-38434521D01*
X19811516Y-38434520D01*
X19923320Y-38322716D01*
X19973439Y-38235904D01*
X20002377Y-38185785D01*
X20043301Y-38033057D01*
X20043301Y-37874943D01*
X20043301Y-37868881D01*
X20043300Y-37868863D01*
X20043300Y-29636785D01*
X20059985Y-29581783D01*
X20063575Y-29576411D01*
X20116380Y-29448928D01*
X20122961Y-29415843D01*
X25762500Y-29415843D01*
X25762500Y-29573957D01*
X25803423Y-29726684D01*
X25882480Y-29863616D01*
X25994284Y-29975420D01*
X26131216Y-30054477D01*
X26283943Y-30095400D01*
X26283945Y-30095400D01*
X26442055Y-30095400D01*
X26442057Y-30095400D01*
X26594784Y-30054477D01*
X26731716Y-29975420D01*
X26843520Y-29863616D01*
X26922577Y-29726684D01*
X26963500Y-29573957D01*
X26963500Y-29415843D01*
X26922577Y-29263116D01*
X26843520Y-29126184D01*
X26731716Y-29014380D01*
X26594784Y-28935323D01*
X26442057Y-28894400D01*
X26283943Y-28894400D01*
X26131216Y-28935323D01*
X25994284Y-29014380D01*
X25882480Y-29126184D01*
X25803423Y-29263116D01*
X25762500Y-29415843D01*
X20122961Y-29415843D01*
X20143300Y-29313593D01*
X20143300Y-29175607D01*
X20116380Y-29040272D01*
X20063575Y-28912789D01*
X20063574Y-28912787D01*
X20063571Y-28912782D01*
X19986914Y-28798058D01*
X19889341Y-28700485D01*
X19774617Y-28623828D01*
X19774606Y-28623822D01*
X19647128Y-28571020D01*
X19511795Y-28544100D01*
X19511793Y-28544100D01*
X19373807Y-28544100D01*
X19373804Y-28544100D01*
X19238472Y-28571020D01*
X19238470Y-28571020D01*
X19110993Y-28623822D01*
X19110982Y-28623828D01*
X18996258Y-28700485D01*
X18898685Y-28798058D01*
X18822028Y-28912782D01*
X18822022Y-28912793D01*
X18769220Y-29040270D01*
X18769220Y-29040272D01*
X18742300Y-29175604D01*
X18742300Y-29313595D01*
X18757506Y-29390038D01*
X18769214Y-29448900D01*
X18769220Y-29448927D01*
X18769220Y-29448929D01*
X18822022Y-29576406D01*
X18822024Y-29576409D01*
X18822025Y-29576411D01*
X18825614Y-29581783D01*
X18842300Y-29636785D01*
X18842300Y-33075316D01*
X18823393Y-33133507D01*
X18773893Y-33169471D01*
X18717677Y-33170943D01*
X18579057Y-33133800D01*
X18420943Y-33133800D01*
X18268216Y-33174723D01*
X18131284Y-33253780D01*
X18019480Y-33365584D01*
X17940423Y-33502516D01*
X17899500Y-33655243D01*
X17899500Y-33813357D01*
X17940423Y-33966084D01*
X18019480Y-34103016D01*
X18131284Y-34214820D01*
X18268216Y-34293877D01*
X18420943Y-34334800D01*
X18420945Y-34334800D01*
X18579055Y-34334800D01*
X18579057Y-34334800D01*
X18717679Y-34297656D01*
X18778778Y-34300858D01*
X18826328Y-34339364D01*
X18842300Y-34393283D01*
X18842300Y-37664256D01*
X18823393Y-37722447D01*
X18813304Y-37734260D01*
X17915684Y-38631880D01*
X17915683Y-38631879D01*
X17803879Y-38743684D01*
X17753759Y-38830495D01*
X17724825Y-38880609D01*
X17724823Y-38880613D01*
X17724823Y-38880615D01*
X17683899Y-39033343D01*
X17683899Y-39033345D01*
X17683899Y-39199431D01*
X17683900Y-39199444D01*
X17683900Y-41037313D01*
X17667218Y-41092311D01*
X17663624Y-41097690D01*
X17610820Y-41225170D01*
X17610820Y-41225172D01*
X17583900Y-41360504D01*
X17583900Y-41498495D01*
X17610820Y-41633827D01*
X17610820Y-41633828D01*
X17615317Y-41644686D01*
X17620114Y-41705683D01*
X17588142Y-41757851D01*
X17561738Y-41774031D01*
X17510087Y-41795426D01*
X17510082Y-41795428D01*
X17395358Y-41872085D01*
X17297785Y-41969658D01*
X17221128Y-42084382D01*
X17221122Y-42084393D01*
X17168320Y-42211870D01*
X17168320Y-42211872D01*
X17141400Y-42347204D01*
X16299900Y-42347204D01*
X16299900Y-42240343D01*
X16258977Y-42087616D01*
X16179920Y-41950684D01*
X16068116Y-41838880D01*
X15931184Y-41759823D01*
X15778457Y-41718900D01*
X15620343Y-41718900D01*
X15467616Y-41759823D01*
X15330684Y-41838880D01*
X15218880Y-41950684D01*
X15139823Y-42087616D01*
X15098900Y-42240343D01*
X15098900Y-42398457D01*
X15139823Y-42551184D01*
X15218880Y-42688116D01*
X15269905Y-42739141D01*
X15297681Y-42793656D01*
X15298900Y-42809143D01*
X15298900Y-50915693D01*
X15279993Y-50973884D01*
X15230493Y-51009848D01*
X15225526Y-51011319D01*
X15214317Y-51014322D01*
X15181228Y-51033426D01*
X15077384Y-51093380D01*
X14965580Y-51205184D01*
X14886523Y-51342116D01*
X14845600Y-51494843D01*
X2000000Y-51494843D01*
X2000000Y-50143343D01*
X9667100Y-50143343D01*
X9667100Y-50301457D01*
X9708023Y-50454184D01*
X9787080Y-50591116D01*
X9898884Y-50702920D01*
X10035816Y-50781977D01*
X10188543Y-50822900D01*
X10188545Y-50822900D01*
X10346655Y-50822900D01*
X10346657Y-50822900D01*
X10499384Y-50781977D01*
X10636316Y-50702920D01*
X10748120Y-50591116D01*
X10827177Y-50454184D01*
X10868100Y-50301457D01*
X10868100Y-50143343D01*
X10827177Y-49990616D01*
X10748120Y-49853684D01*
X10636316Y-49741880D01*
X10499384Y-49662823D01*
X10346657Y-49621900D01*
X10188543Y-49621900D01*
X10035816Y-49662823D01*
X9898884Y-49741880D01*
X9787080Y-49853684D01*
X9708023Y-49990616D01*
X9667100Y-50143343D01*
X2000000Y-50143343D01*
X2000000Y-45566004D01*
X9205100Y-45566004D01*
X9205100Y-45703995D01*
X9213000Y-45743709D01*
X9230282Y-45830593D01*
X9232020Y-45839327D01*
X9232020Y-45839329D01*
X9284822Y-45966806D01*
X9284828Y-45966817D01*
X9361485Y-46081541D01*
X9459058Y-46179114D01*
X9573782Y-46255771D01*
X9573793Y-46255777D01*
X9620883Y-46275282D01*
X9701272Y-46308580D01*
X9836607Y-46335500D01*
X9836608Y-46335500D01*
X9974592Y-46335500D01*
X9974593Y-46335500D01*
X10109928Y-46308580D01*
X10237411Y-46255775D01*
X10352142Y-46179114D01*
X10449714Y-46081542D01*
X10526375Y-45966811D01*
X10579180Y-45839328D01*
X10606100Y-45703993D01*
X10606100Y-45566007D01*
X10579180Y-45430672D01*
X10554582Y-45371287D01*
X10526377Y-45303193D01*
X10526371Y-45303182D01*
X10449714Y-45188458D01*
X10352141Y-45090885D01*
X10237417Y-45014228D01*
X10237406Y-45014222D01*
X10109928Y-44961420D01*
X9974595Y-44934500D01*
X9974593Y-44934500D01*
X9836607Y-44934500D01*
X9836604Y-44934500D01*
X9701272Y-44961420D01*
X9701270Y-44961420D01*
X9573793Y-45014222D01*
X9573782Y-45014228D01*
X9459058Y-45090885D01*
X9361485Y-45188458D01*
X9284828Y-45303182D01*
X9284822Y-45303193D01*
X9232020Y-45430670D01*
X9232020Y-45430672D01*
X9205100Y-45566004D01*
X2000000Y-45566004D01*
X2000000Y-29105130D01*
X4849500Y-29105130D01*
X4849500Y-30894860D01*
X4849501Y-30894863D01*
X4852414Y-30919990D01*
X4856490Y-30929220D01*
X4897794Y-31022765D01*
X4977235Y-31102206D01*
X5080009Y-31147585D01*
X5105135Y-31150500D01*
X5300501Y-31150499D01*
X5358690Y-31169406D01*
X5394654Y-31218906D01*
X5399500Y-31249499D01*
X5399500Y-39571263D01*
X5399499Y-39571281D01*
X5399499Y-39577343D01*
X5399499Y-39735457D01*
X5439156Y-39883456D01*
X5440424Y-39888188D01*
X5464687Y-39930211D01*
X5464688Y-39930214D01*
X5500813Y-39992784D01*
X5519480Y-40025116D01*
X5631284Y-40136920D01*
X5631286Y-40136921D01*
X9390065Y-43895700D01*
X9417158Y-43946388D01*
X9418417Y-43952721D01*
X9418419Y-43952727D01*
X9471222Y-44080206D01*
X9471228Y-44080217D01*
X9547885Y-44194941D01*
X9645458Y-44292514D01*
X9760182Y-44369171D01*
X9760193Y-44369177D01*
X9807283Y-44388682D01*
X9887672Y-44421980D01*
X10023007Y-44448900D01*
X10023008Y-44448900D01*
X10160992Y-44448900D01*
X10160993Y-44448900D01*
X10296328Y-44421980D01*
X10423811Y-44369175D01*
X10538542Y-44292514D01*
X10636114Y-44194942D01*
X10712775Y-44080211D01*
X10765580Y-43952728D01*
X10792500Y-43817393D01*
X10792500Y-43679407D01*
X10765580Y-43544072D01*
X10744816Y-43493944D01*
X10712777Y-43416593D01*
X10712771Y-43416582D01*
X10636114Y-43301858D01*
X10538541Y-43204285D01*
X10423817Y-43127628D01*
X10423806Y-43127622D01*
X10296327Y-43074819D01*
X10296321Y-43074817D01*
X10289988Y-43073558D01*
X10239300Y-43046465D01*
X6629496Y-39436661D01*
X6601719Y-39382144D01*
X6600500Y-39366657D01*
X6600500Y-31249499D01*
X6619407Y-31191308D01*
X6668907Y-31155344D01*
X6699500Y-31150499D01*
X6894861Y-31150499D01*
X6894864Y-31150499D01*
X6919991Y-31147585D01*
X7022765Y-31102206D01*
X7102206Y-31022765D01*
X7147585Y-30919991D01*
X7150500Y-30894865D01*
X7150499Y-30658943D01*
X7169406Y-30600756D01*
X7218906Y-30564792D01*
X7280091Y-30564791D01*
X7329591Y-30600755D01*
X7337709Y-30614001D01*
X7385376Y-30707553D01*
X7385380Y-30707559D01*
X7424728Y-30761716D01*
X7424729Y-30761716D01*
X8057037Y-30129407D01*
X8074075Y-30192993D01*
X8139901Y-30307007D01*
X8232993Y-30400099D01*
X8347007Y-30465925D01*
X8410589Y-30482962D01*
X7778282Y-31115269D01*
X7778282Y-31115270D01*
X7832440Y-31154619D01*
X7832446Y-31154623D01*
X8021784Y-31251095D01*
X8223878Y-31316759D01*
X8433750Y-31350000D01*
X8646250Y-31350000D01*
X8856121Y-31316759D01*
X9058215Y-31251095D01*
X9247556Y-31154620D01*
X9301716Y-31115270D01*
X8669408Y-30482962D01*
X8732993Y-30465925D01*
X8847007Y-30400099D01*
X8940099Y-30307007D01*
X9005925Y-30192993D01*
X9022962Y-30129408D01*
X9655270Y-30761716D01*
X9694620Y-30707556D01*
X9791095Y-30518215D01*
X9856759Y-30316121D01*
X9890000Y-30106250D01*
X9890000Y-29893749D01*
X9856759Y-29683878D01*
X9791095Y-29481784D01*
X9694623Y-29292446D01*
X9694619Y-29292440D01*
X9655270Y-29238282D01*
X9655269Y-29238282D01*
X9022962Y-29870589D01*
X9005925Y-29807007D01*
X8940099Y-29692993D01*
X8847007Y-29599901D01*
X8732993Y-29534075D01*
X8669407Y-29517037D01*
X9301716Y-28884729D01*
X9301716Y-28884728D01*
X9247559Y-28845380D01*
X9247553Y-28845376D01*
X9058215Y-28748904D01*
X8856121Y-28683240D01*
X8646250Y-28650000D01*
X8433750Y-28650000D01*
X8223878Y-28683240D01*
X8021784Y-28748904D01*
X7832446Y-28845376D01*
X7832442Y-28845378D01*
X7778282Y-28884728D01*
X8410591Y-29517037D01*
X8347007Y-29534075D01*
X8232993Y-29599901D01*
X8139901Y-29692993D01*
X8074075Y-29807007D01*
X8057037Y-29870591D01*
X7424728Y-29238282D01*
X7385378Y-29292442D01*
X7385376Y-29292446D01*
X7337709Y-29385999D01*
X7294444Y-29429264D01*
X7234012Y-29438835D01*
X7179495Y-29411057D01*
X7151718Y-29356541D01*
X7150499Y-29341054D01*
X7150499Y-29105139D01*
X7150499Y-29105136D01*
X7147585Y-29080009D01*
X7102206Y-28977235D01*
X7022765Y-28897794D01*
X6919991Y-28852415D01*
X6919990Y-28852414D01*
X6919988Y-28852414D01*
X6894868Y-28849500D01*
X5105139Y-28849500D01*
X5105136Y-28849501D01*
X5080009Y-28852414D01*
X4977235Y-28897794D01*
X4897794Y-28977235D01*
X4852414Y-29080011D01*
X4849500Y-29105130D01*
X2000000Y-29105130D01*
X2000000Y-14907204D01*
X4373300Y-14907204D01*
X4373300Y-15045195D01*
X4400220Y-15180527D01*
X4400220Y-15180529D01*
X4453022Y-15308006D01*
X4453028Y-15308017D01*
X4529685Y-15422741D01*
X4627258Y-15520314D01*
X4741982Y-15596971D01*
X4741993Y-15596977D01*
X4789083Y-15616482D01*
X4869472Y-15649780D01*
X5004807Y-15676700D01*
X5004808Y-15676700D01*
X5142792Y-15676700D01*
X5142793Y-15676700D01*
X5278128Y-15649780D01*
X5405611Y-15596975D01*
X5520342Y-15520314D01*
X5617914Y-15422742D01*
X5694575Y-15308011D01*
X5747380Y-15180528D01*
X5762641Y-15103804D01*
X17474500Y-15103804D01*
X17474500Y-15241795D01*
X17501420Y-15377127D01*
X17501420Y-15377129D01*
X17554222Y-15504606D01*
X17554228Y-15504617D01*
X17630885Y-15619341D01*
X17728458Y-15716914D01*
X17843182Y-15793571D01*
X17843193Y-15793577D01*
X17890283Y-15813082D01*
X17970672Y-15846380D01*
X18106007Y-15873300D01*
X18106008Y-15873300D01*
X18243992Y-15873300D01*
X18243993Y-15873300D01*
X18379328Y-15846380D01*
X18506811Y-15793575D01*
X18621542Y-15716914D01*
X18719114Y-15619342D01*
X18795775Y-15504611D01*
X18848580Y-15377128D01*
X18875500Y-15241793D01*
X18875500Y-15103807D01*
X18848580Y-14968472D01*
X18795775Y-14840989D01*
X18795774Y-14840987D01*
X18795771Y-14840982D01*
X18719114Y-14726258D01*
X18621566Y-14628710D01*
X22899500Y-14628710D01*
X22899500Y-14871289D01*
X22931161Y-15111781D01*
X22931161Y-15111786D01*
X22939523Y-15142994D01*
X22978780Y-15289502D01*
X22993944Y-15346092D01*
X22993948Y-15346105D01*
X23086772Y-15570204D01*
X23086774Y-15570208D01*
X23086776Y-15570212D01*
X23208064Y-15780289D01*
X23208066Y-15780292D01*
X23355729Y-15972731D01*
X23355731Y-15972733D01*
X23355735Y-15972738D01*
X23527262Y-16144265D01*
X23527266Y-16144268D01*
X23527268Y-16144270D01*
X23697604Y-16274973D01*
X23719711Y-16291936D01*
X23929788Y-16413224D01*
X24153900Y-16506054D01*
X24388211Y-16568838D01*
X24628712Y-16600500D01*
X24628713Y-16600500D01*
X24871287Y-16600500D01*
X24871288Y-16600500D01*
X25111789Y-16568838D01*
X25346100Y-16506054D01*
X25570212Y-16413224D01*
X25780289Y-16291936D01*
X25972738Y-16144265D01*
X26144265Y-15972738D01*
X26291936Y-15780289D01*
X26413224Y-15570212D01*
X26506054Y-15346100D01*
X26568838Y-15111789D01*
X26600500Y-14871288D01*
X26600500Y-14628712D01*
X26568838Y-14388211D01*
X26506054Y-14153900D01*
X26413224Y-13929788D01*
X26291936Y-13719711D01*
X26291933Y-13719707D01*
X26144270Y-13527268D01*
X26144268Y-13527266D01*
X26144265Y-13527262D01*
X25972738Y-13355735D01*
X25972733Y-13355731D01*
X25972731Y-13355729D01*
X25780292Y-13208066D01*
X25776963Y-13206144D01*
X25570212Y-13086776D01*
X25570208Y-13086774D01*
X25570204Y-13086772D01*
X25346105Y-12993948D01*
X25346104Y-12993947D01*
X25346100Y-12993946D01*
X25111789Y-12931162D01*
X25111786Y-12931161D01*
X25111784Y-12931161D01*
X24871289Y-12899500D01*
X24871288Y-12899500D01*
X24628712Y-12899500D01*
X24628710Y-12899500D01*
X24388218Y-12931161D01*
X24388213Y-12931161D01*
X24153907Y-12993944D01*
X24153894Y-12993948D01*
X23929795Y-13086772D01*
X23719707Y-13208066D01*
X23527268Y-13355729D01*
X23355729Y-13527268D01*
X23208066Y-13719707D01*
X23086772Y-13929795D01*
X22993948Y-14153894D01*
X22993944Y-14153907D01*
X22931161Y-14388213D01*
X22931161Y-14388218D01*
X22899500Y-14628710D01*
X18621566Y-14628710D01*
X18621541Y-14628685D01*
X18506817Y-14552028D01*
X18506806Y-14552022D01*
X18379328Y-14499220D01*
X18243995Y-14472300D01*
X18243993Y-14472300D01*
X18106007Y-14472300D01*
X18106004Y-14472300D01*
X17970672Y-14499220D01*
X17970670Y-14499220D01*
X17843193Y-14552022D01*
X17843182Y-14552028D01*
X17728458Y-14628685D01*
X17630885Y-14726258D01*
X17554228Y-14840982D01*
X17554222Y-14840993D01*
X17501420Y-14968470D01*
X17501420Y-14968472D01*
X17474500Y-15103804D01*
X5762641Y-15103804D01*
X5774300Y-15045193D01*
X5774300Y-14907207D01*
X5747380Y-14771872D01*
X5694575Y-14644389D01*
X5694574Y-14644387D01*
X5694571Y-14644382D01*
X5617914Y-14529658D01*
X5520341Y-14432085D01*
X5405617Y-14355428D01*
X5405606Y-14355422D01*
X5278128Y-14302620D01*
X5142795Y-14275700D01*
X5142793Y-14275700D01*
X5004807Y-14275700D01*
X5004804Y-14275700D01*
X4869472Y-14302620D01*
X4869470Y-14302620D01*
X4741993Y-14355422D01*
X4741982Y-14355428D01*
X4627258Y-14432085D01*
X4529685Y-14529658D01*
X4453028Y-14644382D01*
X4453022Y-14644393D01*
X4400220Y-14771870D01*
X4400220Y-14771872D01*
X4373300Y-14907204D01*
X2000000Y-14907204D01*
X2000000Y-13206143D01*
X18509700Y-13206143D01*
X18509700Y-13364257D01*
X18550623Y-13516984D01*
X18629680Y-13653916D01*
X18741484Y-13765720D01*
X18878416Y-13844777D01*
X19031143Y-13885700D01*
X19031145Y-13885700D01*
X19189255Y-13885700D01*
X19189257Y-13885700D01*
X19341984Y-13844777D01*
X19478916Y-13765720D01*
X19590720Y-13653916D01*
X19669777Y-13516984D01*
X19710700Y-13364257D01*
X19710700Y-13206143D01*
X19669777Y-13053416D01*
X19590720Y-12916484D01*
X19478916Y-12804680D01*
X19341984Y-12725623D01*
X19189257Y-12684700D01*
X19031143Y-12684700D01*
X18878416Y-12725623D01*
X18741484Y-12804680D01*
X18629680Y-12916484D01*
X18550623Y-13053416D01*
X18509700Y-13206143D01*
X2000000Y-13206143D01*
X2000000Y-9625543D01*
X6016600Y-9625543D01*
X6016600Y-9783657D01*
X6057523Y-9936384D01*
X6136580Y-10073316D01*
X6248384Y-10185120D01*
X6385316Y-10264177D01*
X6538043Y-10305100D01*
X6538045Y-10305100D01*
X6696155Y-10305100D01*
X6696157Y-10305100D01*
X6848884Y-10264177D01*
X6985816Y-10185120D01*
X7097620Y-10073316D01*
X7176677Y-9936384D01*
X7217600Y-9783657D01*
X7217600Y-9625543D01*
X7176677Y-9472816D01*
X7097620Y-9335884D01*
X6985816Y-9224080D01*
X6848884Y-9145023D01*
X6696157Y-9104100D01*
X6538043Y-9104100D01*
X6385316Y-9145023D01*
X6248384Y-9224080D01*
X6136580Y-9335884D01*
X6057523Y-9472816D01*
X6016600Y-9625543D01*
X2000000Y-9625543D01*
X2000000Y-5973104D01*
X5162000Y-5973104D01*
X5162000Y-6111095D01*
X5188920Y-6246427D01*
X5188920Y-6246429D01*
X5241722Y-6373906D01*
X5241728Y-6373917D01*
X5318385Y-6488641D01*
X5415958Y-6586214D01*
X5530682Y-6662871D01*
X5530693Y-6662877D01*
X5551743Y-6671596D01*
X5658172Y-6715680D01*
X5793507Y-6742600D01*
X5793508Y-6742600D01*
X5931492Y-6742600D01*
X5931493Y-6742600D01*
X6066828Y-6715680D01*
X6194311Y-6662875D01*
X6199684Y-6659285D01*
X6254686Y-6642600D01*
X6415557Y-6642600D01*
X6473748Y-6661507D01*
X6485561Y-6671596D01*
X12129665Y-12315701D01*
X12156758Y-12366387D01*
X12158018Y-12372724D01*
X12158020Y-12372730D01*
X12210822Y-12500206D01*
X12210828Y-12500217D01*
X12287485Y-12614941D01*
X12385058Y-12712514D01*
X12499782Y-12789171D01*
X12499793Y-12789177D01*
X12546883Y-12808682D01*
X12627272Y-12841980D01*
X12762607Y-12868900D01*
X12762608Y-12868900D01*
X12900592Y-12868900D01*
X12900593Y-12868900D01*
X13035928Y-12841980D01*
X13163411Y-12789175D01*
X13278142Y-12712514D01*
X13375714Y-12614942D01*
X13452375Y-12500211D01*
X13505180Y-12372728D01*
X13532100Y-12237393D01*
X13532100Y-12099407D01*
X13505180Y-11964072D01*
X13452375Y-11836589D01*
X13452374Y-11836587D01*
X13452371Y-11836582D01*
X13375714Y-11721858D01*
X13278141Y-11624285D01*
X13163417Y-11547628D01*
X13163406Y-11547622D01*
X13035930Y-11494820D01*
X13035924Y-11494818D01*
X13029587Y-11493558D01*
X12978901Y-11466465D01*
X10684783Y-9172347D01*
X10619640Y-9107204D01*
X16506900Y-9107204D01*
X16506900Y-9245195D01*
X16533820Y-9380527D01*
X16533820Y-9380529D01*
X16586622Y-9508006D01*
X16586628Y-9508017D01*
X16663285Y-9622741D01*
X16760858Y-9720314D01*
X16875582Y-9796971D01*
X16875593Y-9796977D01*
X16922683Y-9816482D01*
X17003072Y-9849780D01*
X17138407Y-9876700D01*
X17138408Y-9876700D01*
X17276392Y-9876700D01*
X17276393Y-9876700D01*
X17411728Y-9849780D01*
X17539211Y-9796975D01*
X17653942Y-9720314D01*
X17751514Y-9622742D01*
X17828175Y-9508011D01*
X17880980Y-9380528D01*
X17907900Y-9245193D01*
X17907900Y-9107207D01*
X17880980Y-8971872D01*
X17828175Y-8844389D01*
X17828174Y-8844387D01*
X17828171Y-8844382D01*
X17751514Y-8729658D01*
X17653941Y-8632085D01*
X17539217Y-8555428D01*
X17539206Y-8555422D01*
X17411728Y-8502620D01*
X17276395Y-8475700D01*
X17276393Y-8475700D01*
X17138407Y-8475700D01*
X17138404Y-8475700D01*
X17003072Y-8502620D01*
X17003070Y-8502620D01*
X16875593Y-8555422D01*
X16875582Y-8555428D01*
X16760858Y-8632085D01*
X16663285Y-8729658D01*
X16586628Y-8844382D01*
X16586622Y-8844393D01*
X16533820Y-8971870D01*
X16533820Y-8971872D01*
X16506900Y-9107204D01*
X10619640Y-9107204D01*
X7600193Y-6087758D01*
X7536678Y-6024243D01*
X12673300Y-6024243D01*
X12673300Y-6182357D01*
X12714223Y-6335084D01*
X12793280Y-6472016D01*
X12905084Y-6583820D01*
X13042016Y-6662877D01*
X13194743Y-6703800D01*
X13194745Y-6703800D01*
X13352855Y-6703800D01*
X13352857Y-6703800D01*
X13505584Y-6662877D01*
X13642516Y-6583820D01*
X13754320Y-6472016D01*
X13833377Y-6335084D01*
X13874300Y-6182357D01*
X13874300Y-6024243D01*
X13833377Y-5871516D01*
X13754320Y-5734584D01*
X13642516Y-5622780D01*
X13505584Y-5543723D01*
X13352857Y-5502800D01*
X13194743Y-5502800D01*
X13042016Y-5543723D01*
X12905084Y-5622780D01*
X12793280Y-5734584D01*
X12714223Y-5871516D01*
X12673300Y-6024243D01*
X7536678Y-6024243D01*
X7185821Y-5673386D01*
X7185820Y-5673384D01*
X7074016Y-5561580D01*
X7074013Y-5561578D01*
X6963869Y-5497986D01*
X6963865Y-5497985D01*
X6937085Y-5482523D01*
X6784357Y-5441599D01*
X6626243Y-5441599D01*
X6620180Y-5441599D01*
X6620164Y-5441600D01*
X6254686Y-5441600D01*
X6199684Y-5424915D01*
X6194315Y-5421328D01*
X6194311Y-5421325D01*
X6066828Y-5368520D01*
X5931495Y-5341600D01*
X5931493Y-5341600D01*
X5793507Y-5341600D01*
X5793504Y-5341600D01*
X5658172Y-5368520D01*
X5658170Y-5368520D01*
X5530693Y-5421322D01*
X5530682Y-5421328D01*
X5415958Y-5497985D01*
X5318385Y-5595558D01*
X5241728Y-5710282D01*
X5241722Y-5710293D01*
X5188920Y-5837770D01*
X5188920Y-5837772D01*
X5162000Y-5973104D01*
X2000000Y-5973104D01*
X2000000Y-2099000D01*
X2018907Y-2040809D01*
X2068407Y-2004845D01*
X2099000Y-2000000D01*
X77901000Y-2000000D01*
X77959191Y-2018907D01*
G37*
%TD.AperFunction*%
%TA.AperFunction,Conductor*%
G36*
X32209487Y-34730547D02*
G01*
X32250276Y-34769255D01*
X32269480Y-34802516D01*
X32381284Y-34914320D01*
X32518216Y-34993377D01*
X32670943Y-35034300D01*
X32670945Y-35034300D01*
X32829055Y-35034300D01*
X32829057Y-35034300D01*
X32981784Y-34993377D01*
X33118716Y-34914320D01*
X33173098Y-34859937D01*
X33227613Y-34832162D01*
X33288045Y-34841733D01*
X33313100Y-34859936D01*
X33381284Y-34928120D01*
X33518216Y-35007177D01*
X33670943Y-35048100D01*
X33670945Y-35048100D01*
X33829055Y-35048100D01*
X33829057Y-35048100D01*
X33981784Y-35007177D01*
X34118716Y-34928120D01*
X34181948Y-34864887D01*
X34236463Y-34837112D01*
X34296895Y-34846683D01*
X34321950Y-34864886D01*
X34381284Y-34924220D01*
X34518216Y-35003277D01*
X34670943Y-35044200D01*
X34670945Y-35044200D01*
X34835546Y-35044200D01*
X34835546Y-35046097D01*
X34887020Y-35055626D01*
X34929147Y-35099999D01*
X34938800Y-35142639D01*
X34938800Y-36543863D01*
X34919893Y-36602054D01*
X34870393Y-36638018D01*
X34809207Y-36638018D01*
X34759707Y-36602054D01*
X34754064Y-36593363D01*
X34730521Y-36552586D01*
X34730520Y-36552584D01*
X34618716Y-36440780D01*
X34481784Y-36361723D01*
X34329057Y-36320800D01*
X34170943Y-36320800D01*
X34018216Y-36361723D01*
X33881284Y-36440780D01*
X33828251Y-36493812D01*
X33773737Y-36521588D01*
X33713305Y-36512017D01*
X33688249Y-36493813D01*
X33618716Y-36424280D01*
X33481784Y-36345223D01*
X33329057Y-36304300D01*
X33170943Y-36304300D01*
X33018216Y-36345223D01*
X32881284Y-36424280D01*
X32769480Y-36536084D01*
X32690423Y-36673016D01*
X32649500Y-36825743D01*
X32649500Y-36983857D01*
X32690423Y-37136584D01*
X32769480Y-37273516D01*
X32881284Y-37385320D01*
X33018216Y-37464377D01*
X33170943Y-37505300D01*
X33170945Y-37505300D01*
X33329055Y-37505300D01*
X33329057Y-37505300D01*
X33481784Y-37464377D01*
X33618716Y-37385320D01*
X33671748Y-37332287D01*
X33726263Y-37304512D01*
X33786695Y-37314083D01*
X33811750Y-37332286D01*
X33881284Y-37401820D01*
X34018216Y-37480877D01*
X34170943Y-37521800D01*
X34170945Y-37521800D01*
X34329055Y-37521800D01*
X34329057Y-37521800D01*
X34481784Y-37480877D01*
X34618716Y-37401820D01*
X34730520Y-37290016D01*
X34754064Y-37249235D01*
X34799532Y-37208295D01*
X34860383Y-37201899D01*
X34913371Y-37232492D01*
X34938258Y-37288387D01*
X34938800Y-37298736D01*
X34938800Y-49073798D01*
X34919893Y-49131989D01*
X34909804Y-49143802D01*
X30528447Y-53525158D01*
X30473930Y-53552935D01*
X30427851Y-53549309D01*
X30269406Y-53497828D01*
X30090549Y-53469500D01*
X30090546Y-53469500D01*
X29909454Y-53469500D01*
X29909451Y-53469500D01*
X29730593Y-53497828D01*
X29558362Y-53553788D01*
X29397006Y-53636003D01*
X29397004Y-53636004D01*
X29389189Y-53641683D01*
X29330998Y-53660589D01*
X29272808Y-53641680D01*
X29236845Y-53592180D01*
X29232000Y-53561589D01*
X29232000Y-53138410D01*
X29250907Y-53080219D01*
X29300407Y-53044255D01*
X29361593Y-53044255D01*
X29389192Y-53058319D01*
X29397006Y-53063996D01*
X29558361Y-53146211D01*
X29730591Y-53202171D01*
X29802136Y-53213502D01*
X29909451Y-53230500D01*
X29909454Y-53230500D01*
X30090549Y-53230500D01*
X30179977Y-53216335D01*
X30269409Y-53202171D01*
X30441639Y-53146211D01*
X30602994Y-53063996D01*
X30749501Y-52957553D01*
X30877553Y-52829501D01*
X30983996Y-52682994D01*
X31066211Y-52521639D01*
X31122171Y-52349409D01*
X31150500Y-52170546D01*
X31150500Y-51989454D01*
X31150500Y-51989450D01*
X31122171Y-51810593D01*
X31122171Y-51810591D01*
X31076072Y-51668710D01*
X31070690Y-51652145D01*
X31070691Y-51590960D01*
X31094840Y-51551551D01*
X31520680Y-51125713D01*
X31573407Y-51034388D01*
X31600700Y-50932527D01*
X31600700Y-50827073D01*
X31600700Y-40318103D01*
X31619607Y-40259912D01*
X31669107Y-40223948D01*
X31725320Y-40222476D01*
X31843343Y-40254100D01*
X31843345Y-40254100D01*
X31999500Y-40254100D01*
X32057691Y-40273007D01*
X32093655Y-40322507D01*
X32098500Y-40353100D01*
X32098500Y-40440557D01*
X32139423Y-40593284D01*
X32218480Y-40730216D01*
X32330284Y-40842020D01*
X32467216Y-40921077D01*
X32619943Y-40962000D01*
X32619945Y-40962000D01*
X32778055Y-40962000D01*
X32778057Y-40962000D01*
X32930784Y-40921077D01*
X33067716Y-40842020D01*
X33179520Y-40730216D01*
X33258577Y-40593284D01*
X33299500Y-40440557D01*
X33299500Y-40282443D01*
X33258577Y-40129716D01*
X33179520Y-39992784D01*
X33067716Y-39880980D01*
X32930784Y-39801923D01*
X32778057Y-39761000D01*
X32621900Y-39761000D01*
X32563709Y-39742093D01*
X32527745Y-39692593D01*
X32522900Y-39662000D01*
X32522900Y-39574544D01*
X32522021Y-39571263D01*
X32481977Y-39421816D01*
X32402920Y-39284884D01*
X32291116Y-39173080D01*
X32154184Y-39094023D01*
X32001457Y-39053100D01*
X31843343Y-39053100D01*
X31805724Y-39063179D01*
X31725322Y-39084723D01*
X31664221Y-39081520D01*
X31616671Y-39043015D01*
X31600700Y-38989096D01*
X31600700Y-35283600D01*
X31619607Y-35225409D01*
X31629696Y-35213597D01*
X32094538Y-34748754D01*
X32149055Y-34720976D01*
X32209487Y-34730547D01*
G37*
%TD.AperFunction*%
%TD*%
M02*
