%TF.GenerationSoftware,KiCad,Pcbnew,10.0.5*%
%TF.CreationDate,2026-08-17T10:06:52-04:00*%
%TF.ProjectId,bench_board,62656e63-685f-4626-9f61-72642e6b6963,rev?*%
%TF.SameCoordinates,Original*%
%TF.FileFunction,Soldermask,Top*%
%TF.FilePolarity,Negative*%
%FSLAX46Y46*%
G04 Gerber Fmt 4.6, Leading zero omitted, Abs format (unit mm)*
G04 Created by KiCad (PCBNEW 10.0.5) date 2026-08-17 10:06:52*
%MOMM*%
%LPD*%
G01*
G04 APERTURE LIST*
G04 Aperture macros list*
%AMRoundRect*
0 Rectangle with rounded corners*
0 $1 Rounding radius*
0 $2 $3 $4 $5 $6 $7 $8 $9 X,Y pos of 4 corners*
0 Add a 4 corners polygon primitive as box body*
4,1,4,$2,$3,$4,$5,$6,$7,$8,$9,$2,$3,0*
0 Add four circle primitives for the rounded corners*
1,1,$1+$1,$2,$3*
1,1,$1+$1,$4,$5*
1,1,$1+$1,$6,$7*
1,1,$1+$1,$8,$9*
0 Add four rect primitives between the rounded corners*
20,1,$1+$1,$2,$3,$4,$5,0*
20,1,$1+$1,$4,$5,$6,$7,0*
20,1,$1+$1,$6,$7,$8,$9,0*
20,1,$1+$1,$8,$9,$2,$3,0*%
G04 Aperture macros list end*
%ADD10RoundRect,0.135000X0.135000X0.185000X-0.135000X0.185000X-0.135000X-0.185000X0.135000X-0.185000X0*%
%ADD11R,1.700000X1.700000*%
%ADD12C,1.700000*%
%ADD13C,6.000000*%
%ADD14RoundRect,0.250000X-0.450000X-0.350000X0.450000X-0.350000X0.450000X0.350000X-0.450000X0.350000X0*%
%ADD15RoundRect,0.250000X-0.375000X-1.075000X0.375000X-1.075000X0.375000X1.075000X-0.375000X1.075000X0*%
%ADD16RoundRect,0.135000X-0.185000X0.135000X-0.185000X-0.135000X0.185000X-0.135000X0.185000X0.135000X0*%
%ADD17RoundRect,0.250000X-0.250000X-0.475000X0.250000X-0.475000X0.250000X0.475000X-0.250000X0.475000X0*%
%ADD18RoundRect,0.135000X-0.135000X-0.185000X0.135000X-0.185000X0.135000X0.185000X-0.135000X0.185000X0*%
%ADD19RoundRect,0.135000X0.185000X-0.135000X0.185000X0.135000X-0.185000X0.135000X-0.185000X-0.135000X0*%
%ADD20RoundRect,0.140000X-0.140000X-0.170000X0.140000X-0.170000X0.140000X0.170000X-0.140000X0.170000X0*%
%ADD21C,0.650000*%
%ADD22O,0.650000X0.950000*%
%ADD23RoundRect,0.075000X0.275000X-0.075000X0.275000X0.075000X-0.275000X0.075000X-0.275000X-0.075000X0*%
%ADD24O,1.400000X0.800000*%
%ADD25RoundRect,0.225000X-0.250000X0.225000X-0.250000X-0.225000X0.250000X-0.225000X0.250000X0.225000X0*%
%ADD26RoundRect,0.200000X-0.200000X-0.275000X0.200000X-0.275000X0.200000X0.275000X-0.200000X0.275000X0*%
%ADD27RoundRect,0.140000X-0.170000X0.140000X-0.170000X-0.140000X0.170000X-0.140000X0.170000X0.140000X0*%
%ADD28RoundRect,0.150000X-0.825000X-0.150000X0.825000X-0.150000X0.825000X0.150000X-0.825000X0.150000X0*%
%ADD29R,2.410000X3.810000*%
%ADD30RoundRect,0.150000X-0.512500X-0.150000X0.512500X-0.150000X0.512500X0.150000X-0.512500X0.150000X0*%
%ADD31RoundRect,0.225000X0.225000X0.250000X-0.225000X0.250000X-0.225000X-0.250000X0.225000X-0.250000X0*%
%ADD32RoundRect,0.075000X-0.350000X-0.075000X0.350000X-0.075000X0.350000X0.075000X-0.350000X0.075000X0*%
%ADD33RoundRect,0.075000X0.075000X-0.350000X0.075000X0.350000X-0.075000X0.350000X-0.075000X-0.350000X0*%
%ADD34RoundRect,0.250000X-1.000000X-0.650000X1.000000X-0.650000X1.000000X0.650000X-1.000000X0.650000X0*%
%ADD35RoundRect,0.225000X-0.225000X-0.250000X0.225000X-0.250000X0.225000X0.250000X-0.225000X0.250000X0*%
%ADD36RoundRect,0.075000X-0.700000X-0.075000X0.700000X-0.075000X0.700000X0.075000X-0.700000X0.075000X0*%
%ADD37RoundRect,0.075000X-0.075000X-0.700000X0.075000X-0.700000X0.075000X0.700000X-0.075000X0.700000X0*%
%ADD38RoundRect,0.140000X0.140000X0.170000X-0.140000X0.170000X-0.140000X-0.170000X0.140000X-0.170000X0*%
G04 APERTURE END LIST*
D10*
%TO.C,R5*%
X54010000Y-29500000D03*
X52990000Y-29500000D03*
%TD*%
D11*
%TO.C,J9*%
X43000000Y-7000000D03*
D12*
X45540000Y-7000000D03*
X48080000Y-7000000D03*
X50620000Y-7000000D03*
X53160000Y-7000000D03*
X55700000Y-7000000D03*
X58240000Y-7000000D03*
X60780000Y-7000000D03*
X63320000Y-7000000D03*
X65860000Y-7000000D03*
X68400000Y-7000000D03*
X70940000Y-7000000D03*
X73480000Y-7000000D03*
X76020000Y-7000000D03*
%TD*%
D13*
%TO.C,MH1*%
X24750000Y-14750000D03*
%TD*%
D14*
%TO.C,Y1*%
X24300000Y-34850000D03*
X26500000Y-34850000D03*
X26500000Y-33150000D03*
X24300000Y-33150000D03*
%TD*%
D15*
%TO.C,L2*%
X11600000Y-8000000D03*
X14400000Y-8000000D03*
%TD*%
D16*
%TO.C,R4*%
X26642000Y-27303000D03*
X26642000Y-28323000D03*
%TD*%
D17*
%TO.C,C26*%
X6050000Y-14000000D03*
X7950000Y-14000000D03*
%TD*%
D18*
%TO.C,R3*%
X47913000Y-43527000D03*
X48933000Y-43527000D03*
%TD*%
%TO.C,R11*%
X9490000Y-51000000D03*
X10510000Y-51000000D03*
%TD*%
D17*
%TO.C,C15*%
X47553000Y-40243000D03*
X49453000Y-40243000D03*
%TD*%
D19*
%TO.C,R1*%
X22277000Y-49136000D03*
X22277000Y-48116000D03*
%TD*%
D20*
%TO.C,C8*%
X44379000Y-41446000D03*
X45339000Y-41446000D03*
%TD*%
%TO.C,C16*%
X47182000Y-37819000D03*
X48142000Y-37819000D03*
%TD*%
%TO.C,C22*%
X18020000Y-26000000D03*
X18980000Y-26000000D03*
%TD*%
%TO.C,C6*%
X44491000Y-43260000D03*
X45451000Y-43260000D03*
%TD*%
D11*
%TO.C,J1*%
X6000000Y-30000000D03*
D12*
X8540000Y-30000000D03*
%TD*%
D20*
%TO.C,C7*%
X44708000Y-35851000D03*
X45668000Y-35851000D03*
%TD*%
D16*
%TO.C,R7*%
X56500000Y-34990000D03*
X56500000Y-36010000D03*
%TD*%
D21*
%TO.C,J3*%
X69640000Y-33600000D03*
D22*
X69640000Y-26400000D03*
D23*
X68980000Y-32750000D03*
X68980000Y-32250000D03*
X68980000Y-31750000D03*
X68980000Y-31250000D03*
X68980000Y-30750000D03*
X68980000Y-30250000D03*
X68980000Y-29750000D03*
X68980000Y-29250000D03*
X68980000Y-28750000D03*
X68980000Y-28250000D03*
X68980000Y-27750000D03*
X68980000Y-27250000D03*
D21*
X70290000Y-27200000D03*
X70990000Y-27600000D03*
X70990000Y-28400000D03*
X70290000Y-28800000D03*
X70990000Y-29200000D03*
X70290000Y-29600000D03*
X70290000Y-30400000D03*
X70990000Y-30800000D03*
X70290000Y-31200000D03*
X70990000Y-31600000D03*
X70990000Y-32400000D03*
X70290000Y-32800000D03*
D24*
X76840000Y-34490000D03*
X70890000Y-34130000D03*
X70890000Y-25870000D03*
X76840000Y-25510000D03*
%TD*%
D17*
%TO.C,C25*%
X18050000Y-8000000D03*
X19950000Y-8000000D03*
%TD*%
D20*
%TO.C,C9*%
X38087000Y-41899000D03*
X39047000Y-41899000D03*
%TD*%
D11*
%TO.C,J5*%
X40000000Y-47000000D03*
D12*
X40000000Y-49540000D03*
X40000000Y-52080000D03*
X40000000Y-54620000D03*
X40000000Y-57160000D03*
%TD*%
D25*
%TO.C,C12*%
X24537000Y-26506000D03*
X24537000Y-28056000D03*
%TD*%
D17*
%TO.C,C2*%
X24414000Y-48823000D03*
X26314000Y-48823000D03*
%TD*%
D26*
%TO.C,R13*%
X18175000Y-18500000D03*
X19825000Y-18500000D03*
%TD*%
D13*
%TO.C,MH3*%
X24750000Y-45250000D03*
%TD*%
D27*
%TO.C,C19*%
X44731000Y-28492000D03*
X44731000Y-29452000D03*
%TD*%
D28*
%TO.C,U2*%
X11525000Y-43095000D03*
X11525000Y-44365000D03*
X11525000Y-45635000D03*
X11525000Y-46905000D03*
X16475000Y-46905000D03*
X16475000Y-45635000D03*
X16475000Y-44365000D03*
X16475000Y-43095000D03*
D29*
X14000000Y-45000000D03*
%TD*%
D30*
%TO.C,U5*%
X63862500Y-23050000D03*
X63862500Y-24000000D03*
X63862500Y-24950000D03*
X66137500Y-24950000D03*
X66137500Y-24000000D03*
X66137500Y-23050000D03*
%TD*%
D18*
%TO.C,R2*%
X26490000Y-40000000D03*
X27510000Y-40000000D03*
%TD*%
D11*
%TO.C,J4*%
X30000000Y-47000000D03*
D12*
X30000000Y-49540000D03*
X30000000Y-52080000D03*
X30000000Y-54620000D03*
%TD*%
D20*
%TO.C,C10*%
X44455000Y-39573000D03*
X45415000Y-39573000D03*
%TD*%
D31*
%TO.C,C11*%
X26363000Y-30423000D03*
X24813000Y-30423000D03*
%TD*%
D20*
%TO.C,C17*%
X32639000Y-39216000D03*
X33599000Y-39216000D03*
%TD*%
%TO.C,C23*%
X13020000Y-51000000D03*
X13980000Y-51000000D03*
%TD*%
D32*
%TO.C,U4*%
X46050000Y-20750000D03*
X46050000Y-21250000D03*
X46050000Y-21750000D03*
X46050000Y-22250000D03*
X46050000Y-22750000D03*
X46050000Y-23250000D03*
D33*
X46750000Y-23950000D03*
X47250000Y-23950000D03*
X47750000Y-23950000D03*
X48250000Y-23950000D03*
X48750000Y-23950000D03*
X49250000Y-23950000D03*
D32*
X49950000Y-23250000D03*
X49950000Y-22750000D03*
X49950000Y-22250000D03*
X49950000Y-21750000D03*
X49950000Y-21250000D03*
X49950000Y-20750000D03*
D33*
X49250000Y-20050000D03*
X48750000Y-20050000D03*
X48250000Y-20050000D03*
X47750000Y-20050000D03*
X47250000Y-20050000D03*
X46750000Y-20050000D03*
%TD*%
D11*
%TO.C,J8*%
X71500000Y-56000000D03*
D12*
X74040000Y-56000000D03*
X76580000Y-56000000D03*
%TD*%
D20*
%TO.C,C14*%
X44458000Y-37736000D03*
X45418000Y-37736000D03*
%TD*%
D30*
%TO.C,U6*%
X5862500Y-7050000D03*
X5862500Y-8000000D03*
X5862500Y-8950000D03*
X8137500Y-8950000D03*
X8137500Y-8000000D03*
X8137500Y-7050000D03*
%TD*%
D15*
%TO.C,L1*%
X18600000Y-45000000D03*
X21400000Y-45000000D03*
%TD*%
D34*
%TO.C,D1*%
X11000000Y-14000000D03*
X15000000Y-14000000D03*
%TD*%
D20*
%TO.C,C24*%
X16020000Y-51000000D03*
X16980000Y-51000000D03*
%TD*%
D11*
%TO.C,J2*%
X30000000Y-12000000D03*
D12*
X30000000Y-14540000D03*
%TD*%
D19*
%TO.C,R10*%
X18500000Y-33010000D03*
X18500000Y-31990000D03*
%TD*%
D11*
%TO.C,J6*%
X62000000Y-47000000D03*
D12*
X62000000Y-49540000D03*
X62000000Y-52080000D03*
X62000000Y-54620000D03*
X62000000Y-57160000D03*
%TD*%
D26*
%TO.C,R12*%
X18175000Y-14000000D03*
X19825000Y-14000000D03*
%TD*%
D35*
%TO.C,C13*%
X36985000Y-39819000D03*
X38535000Y-39819000D03*
%TD*%
D36*
%TO.C,U1*%
X29325000Y-26250000D03*
X29325000Y-26750000D03*
X29325000Y-27250000D03*
X29325000Y-27750000D03*
X29325000Y-28250000D03*
X29325000Y-28750000D03*
X29325000Y-29250000D03*
X29325000Y-29750000D03*
X29325000Y-30250000D03*
X29325000Y-30750000D03*
X29325000Y-31250000D03*
X29325000Y-31750000D03*
X29325000Y-32250000D03*
X29325000Y-32750000D03*
X29325000Y-33250000D03*
X29325000Y-33750000D03*
D37*
X31250000Y-35675000D03*
X31750000Y-35675000D03*
X32250000Y-35675000D03*
X32750000Y-35675000D03*
X33250000Y-35675000D03*
X33750000Y-35675000D03*
X34250000Y-35675000D03*
X34750000Y-35675000D03*
X35250000Y-35675000D03*
X35750000Y-35675000D03*
X36250000Y-35675000D03*
X36750000Y-35675000D03*
X37250000Y-35675000D03*
X37750000Y-35675000D03*
X38250000Y-35675000D03*
X38750000Y-35675000D03*
D36*
X40675000Y-33750000D03*
X40675000Y-33250000D03*
X40675000Y-32750000D03*
X40675000Y-32250000D03*
X40675000Y-31750000D03*
X40675000Y-31250000D03*
X40675000Y-30750000D03*
X40675000Y-30250000D03*
X40675000Y-29750000D03*
X40675000Y-29250000D03*
X40675000Y-28750000D03*
X40675000Y-28250000D03*
X40675000Y-27750000D03*
X40675000Y-27250000D03*
X40675000Y-26750000D03*
X40675000Y-26250000D03*
D37*
X38750000Y-24325000D03*
X38250000Y-24325000D03*
X37750000Y-24325000D03*
X37250000Y-24325000D03*
X36750000Y-24325000D03*
X36250000Y-24325000D03*
X35750000Y-24325000D03*
X35250000Y-24325000D03*
X34750000Y-24325000D03*
X34250000Y-24325000D03*
X33750000Y-24325000D03*
X33250000Y-24325000D03*
X32750000Y-24325000D03*
X32250000Y-24325000D03*
X31750000Y-24325000D03*
X31250000Y-24325000D03*
%TD*%
D11*
%TO.C,J7*%
X71000000Y-48000000D03*
D12*
X73540000Y-48000000D03*
%TD*%
D20*
%TO.C,C21*%
X45599000Y-34041000D03*
X46559000Y-34041000D03*
%TD*%
D19*
%TO.C,R9*%
X18500000Y-29510000D03*
X18500000Y-28490000D03*
%TD*%
D13*
%TO.C,MH2*%
X55250000Y-14750000D03*
%TD*%
D27*
%TO.C,C20*%
X45095000Y-31227000D03*
X45095000Y-32187000D03*
%TD*%
D20*
%TO.C,C18*%
X32699000Y-41144000D03*
X33659000Y-41144000D03*
%TD*%
D17*
%TO.C,C1*%
X16903000Y-40046000D03*
X18803000Y-40046000D03*
%TD*%
D16*
%TO.C,R8*%
X56500000Y-31990000D03*
X56500000Y-33010000D03*
%TD*%
D10*
%TO.C,R6*%
X54010000Y-27500000D03*
X52990000Y-27500000D03*
%TD*%
D13*
%TO.C,MH4*%
X55250000Y-45250000D03*
%TD*%
D38*
%TO.C,C3*%
X14832000Y-40039000D03*
X13872000Y-40039000D03*
%TD*%
M02*
